<svg xmlns="http://www.w3.org/2000/svg" viewBox="0 0 228.0 232.0" width="100%" preserveAspectRatio="xMidYMid meet">
<rect x="0" y="0" width="228.0" height="232.0" fill="#0d1117"/>
<path d="M 26.00,30.00 L 58.00,30.00 L 58.00,72.00 L 26.00,72.00 Z" fill="#161b22" stroke="#ff0000" stroke-width="0.5"/>
<path d="M 66.00,30.00 L 98.00,30.00 L 98.00,72.00 L 66.00,72.00 Z" fill="#161b22" stroke="#ff0000" stroke-width="0.5"/>
<path d="M 106.00,30.00 L 138.00,30.00 L 138.00,72.00 L 106.00,72.00 Z" fill="#161b22" stroke="#ff0000" stroke-width="0.5"/>
<path d="M 146.00,30.00 L 178.00,30.00 L 178.00,72.00 L 146.00,72.00 Z" fill="#161b22" stroke="#ff0000" stroke-width="0.5"/>
<path d="M 186.00,30.00 L 218.00,30.00 L 218.00,72.00 L 186.00,72.00 Z" fill="#161b22" stroke="#ff0000" stroke-width="0.5"/>
<path d="M 26.00,80.00 L 58.00,80.00 L 58.00,122.00 L 26.00,122.00 Z" fill="#161b22" stroke="#ff0000" stroke-width="0.5"/>
<path d="M 66.00,80.00 L 98.00,80.00 L 98.00,122.00 L 66.00,122.00 Z" fill="#161b22" stroke="#ff0000" stroke-width="0.5"/>
<path d="M 106.00,80.00 L 138.00,80.00 L 138.00,122.00 L 106.00,122.00 Z" fill="#161b22" stroke="#ff0000" stroke-width="0.5"/>
<path d="M 146.00,80.00 L 178.00,80.00 L 178.00,122.00 L 146.00,122.00 Z" fill="#161b22" stroke="#ff0000" stroke-width="0.5"/>
<path d="M 186.00,80.00 L 218.00,80.00 L 218.00,122.00 L 186.00,122.00 Z" fill="#161b22" stroke="#ff0000" stroke-width="0.5"/>
<path d="M 26.00,130.00 L 58.00,130.00 L 58.00,172.00 L 26.00,172.00 Z" fill="#161b22" stroke="#ff0000" stroke-width="0.5"/>
<path d="M 66.00,130.00 L 98.00,130.00 L 98.00,172.00 L 66.00,172.00 Z" fill="#161b22" stroke="#ff0000" stroke-width="0.5"/>
<path d="M 106.00,130.00 L 138.00,130.00 L 138.00,172.00 L 106.00,172.00 Z" fill="#161b22" stroke="#ff0000" stroke-width="0.5"/>
<path d="M 146.00,130.00 L 178.00,130.00 L 178.00,172.00 L 146.00,172.00 Z" fill="#161b22" stroke="#ff0000" stroke-width="0.5"/>
<path d="M 186.00,130.00 L 218.00,130.00 L 218.00,172.00 L 186.00,172.00 Z" fill="#161b22" stroke="#ff0000" stroke-width="0.5"/>
<path d="M 26.00,180.00 L 58.00,180.00 L 58.00,222.00 L 26.00,222.00 Z" fill="#161b22" stroke="#ff0000" stroke-width="0.5"/>
<path d="M 66.00,180.00 L 98.00,180.00 L 98.00,222.00 L 66.00,222.00 Z" fill="#161b22" stroke="#ff0000" stroke-width="0.5"/>
<path d="M 106.00,180.00 L 138.00,180.00 L 138.00,222.00 L 106.00,222.00 Z" fill="#161b22" stroke="#ff0000" stroke-width="0.5"/>
<path d="M 146.00,180.00 L 178.00,180.00 L 178.00,222.00 L 146.00,222.00 Z" fill="#161b22" stroke="#ff0000" stroke-width="0.5"/>
<path d="M 186.00,180.00 L 218.00,180.00 L 218.00,222.00 L 186.00,222.00 Z" fill="#161b22" stroke="#ff0000" stroke-width="0.5"/>
<line x1="26.00" y1="51.00" x2="27.00" y2="51.00" stroke="#0000ff" stroke-width="0.7"/>
<line x1="27.50" y1="51.00" x2="28.50" y2="51.00" stroke="#0000ff" stroke-width="0.7"/>
<line x1="29.00" y1="51.00" x2="30.00" y2="51.00" stroke="#0000ff" stroke-width="0.7"/>
<line x1="30.50" y1="51.00" x2="31.50" y2="51.00" stroke="#0000ff" stroke-width="0.7"/>
<line x1="32.00" y1="51.00" x2="33.00" y2="51.00" stroke="#0000ff" stroke-width="0.7"/>
<line x1="33.50" y1="51.00" x2="34.50" y2="51.00" stroke="#0000ff" stroke-width="0.7"/>
<line x1="35.00" y1="51.00" x2="36.00" y2="51.00" stroke="#0000ff" stroke-width="0.7"/>
<line x1="36.50" y1="51.00" x2="37.50" y2="51.00" stroke="#0000ff" stroke-width="0.7"/>
<line x1="38.00" y1="51.00" x2="39.00" y2="51.00" stroke="#0000ff" stroke-width="0.7"/>
<line x1="39.50" y1="51.00" x2="40.50" y2="51.00" stroke="#0000ff" stroke-width="0.7"/>
<line x1="41.00" y1="51.00" x2="42.00" y2="51.00" stroke="#0000ff" stroke-width="0.7"/>
<line x1="42.50" y1="51.00" x2="43.50" y2="51.00" stroke="#0000ff" stroke-width="0.7"/>
<line x1="44.00" y1="51.00" x2="45.00" y2="51.00" stroke="#0000ff" stroke-width="0.7"/>
<line x1="45.50" y1="51.00" x2="46.50" y2="51.00" stroke="#0000ff" stroke-width="0.7"/>
<line x1="47.00" y1="51.00" x2="48.00" y2="51.00" stroke="#0000ff" stroke-width="0.7"/>
<line x1="48.50" y1="51.00" x2="49.50" y2="51.00" stroke="#0000ff" stroke-width="0.7"/>
<line x1="50.00" y1="51.00" x2="51.00" y2="51.00" stroke="#0000ff" stroke-width="0.7"/>
<line x1="51.50" y1="51.00" x2="52.50" y2="51.00" stroke="#0000ff" stroke-width="0.7"/>
<line x1="53.00" y1="51.00" x2="54.00" y2="51.00" stroke="#0000ff" stroke-width="0.7"/>
<line x1="54.50" y1="51.00" x2="55.50" y2="51.00" stroke="#0000ff" stroke-width="0.7"/>
<line x1="56.00" y1="51.00" x2="57.00" y2="51.00" stroke="#0000ff" stroke-width="0.7"/>
<line x1="57.50" y1="51.00" x2="58.00" y2="51.00" stroke="#0000ff" stroke-width="0.7"/>
<line x1="66.00" y1="51.00" x2="67.00" y2="51.00" stroke="#0000ff" stroke-width="0.7"/>
<line x1="68.00" y1="51.00" x2="69.00" y2="51.00" stroke="#0000ff" stroke-width="0.7"/>
<line x1="70.00" y1="51.00" x2="71.00" y2="51.00" stroke="#0000ff" stroke-width="0.7"/>
<line x1="72.00" y1="51.00" x2="73.00" y2="51.00" stroke="#0000ff" stroke-width="0.7"/>
<line x1="74.00" y1="51.00" x2="75.00" y2="51.00" stroke="#0000ff" stroke-width="0.7"/>
<line x1="76.00" y1="51.00" x2="77.00" y2="51.00" stroke="#0000ff" stroke-width="0.7"/>
<line x1="78.00" y1="51.00" x2="79.00" y2="51.00" stroke="#0000ff" stroke-width="0.7"/>
<line x1="80.00" y1="51.00" x2="81.00" y2="51.00" stroke="#0000ff" stroke-width="0.7"/>
<line x1="82.00" y1="51.00" x2="83.00" y2="51.00" stroke="#0000ff" stroke-width="0.7"/>
<line x1="84.00" y1="51.00" x2="85.00" y2="51.00" stroke="#0000ff" stroke-width="0.7"/>
<line x1="86.00" y1="51.00" x2="87.00" y2="51.00" stroke="#0000ff" stroke-width="0.7"/>
<line x1="88.00" y1="51.00" x2="89.00" y2="51.00" stroke="#0000ff" stroke-width="0.7"/>
<line x1="90.00" y1="51.00" x2="91.00" y2="51.00" stroke="#0000ff" stroke-width="0.7"/>
<line x1="92.00" y1="51.00" x2="93.00" y2="51.00" stroke="#0000ff" stroke-width="0.7"/>
<line x1="94.00" y1="51.00" x2="95.00" y2="51.00" stroke="#0000ff" stroke-width="0.7"/>
<line x1="96.00" y1="51.00" x2="97.00" y2="51.00" stroke="#0000ff" stroke-width="0.7"/>
<line x1="106.00" y1="51.00" x2="107.00" y2="51.00" stroke="#0000ff" stroke-width="0.7"/>
<line x1="108.50" y1="51.00" x2="109.50" y2="51.00" stroke="#0000ff" stroke-width="0.7"/>
<line x1="111.00" y1="51.00" x2="112.00" y2="51.00" stroke="#0000ff" stroke-width="0.7"/>
<line x1="113.50" y1="51.00" x2="114.50" y2="51.00" stroke="#0000ff" stroke-width="0.7"/>
<line x1="116.00" y1="51.00" x2="117.00" y2="51.00" stroke="#0000ff" stroke-width="0.7"/>
<line x1="118.50" y1="51.00" x2="119.50" y2="51.00" stroke="#0000ff" stroke-width="0.7"/>
<line x1="121.00" y1="51.00" x2="122.00" y2="51.00" stroke="#0000ff" stroke-width="0.7"/>
<line x1="123.50" y1="51.00" x2="124.50" y2="51.00" stroke="#0000ff" stroke-width="0.7"/>
<line x1="126.00" y1="51.00" x2="127.00" y2="51.00" stroke="#0000ff" stroke-width="0.7"/>
<line x1="128.50" y1="51.00" x2="129.50" y2="51.00" stroke="#0000ff" stroke-width="0.7"/>
<line x1="131.00" y1="51.00" x2="132.00" y2="51.00" stroke="#0000ff" stroke-width="0.7"/>
<line x1="133.50" y1="51.00" x2="134.50" y2="51.00" stroke="#0000ff" stroke-width="0.7"/>
<line x1="136.00" y1="51.00" x2="137.00" y2="51.00" stroke="#0000ff" stroke-width="0.7"/>
<line x1="146.00" y1="51.00" x2="147.00" y2="51.00" stroke="#0000ff" stroke-width="0.7"/>
<line x1="149.00" y1="51.00" x2="150.00" y2="51.00" stroke="#0000ff" stroke-width="0.7"/>
<line x1="152.00" y1="51.00" x2="153.00" y2="51.00" stroke="#0000ff" stroke-width="0.7"/>
<line x1="155.00" y1="51.00" x2="156.00" y2="51.00" stroke="#0000ff" stroke-width="0.7"/>
<line x1="158.00" y1="51.00" x2="159.00" y2="51.00" stroke="#0000ff" stroke-width="0.7"/>
<line x1="161.00" y1="51.00" x2="162.00" y2="51.00" stroke="#0000ff" stroke-width="0.7"/>
<line x1="164.00" y1="51.00" x2="165.00" y2="51.00" stroke="#0000ff" stroke-width="0.7"/>
<line x1="167.00" y1="51.00" x2="168.00" y2="51.00" stroke="#0000ff" stroke-width="0.7"/>
<line x1="170.00" y1="51.00" x2="171.00" y2="51.00" stroke="#0000ff" stroke-width="0.7"/>
<line x1="173.00" y1="51.00" x2="174.00" y2="51.00" stroke="#0000ff" stroke-width="0.7"/>
<line x1="176.00" y1="51.00" x2="177.00" y2="51.00" stroke="#0000ff" stroke-width="0.7"/>
<line x1="186.00" y1="51.00" x2="218.00" y2="51.00" stroke="#0000ff" stroke-width="0.7"/>
<line x1="26.00" y1="101.00" x2="28.00" y2="101.00" stroke="#0000ff" stroke-width="0.7"/>
<line x1="28.50" y1="101.00" x2="30.50" y2="101.00" stroke="#0000ff" stroke-width="0.7"/>
<line x1="31.00" y1="101.00" x2="33.00" y2="101.00" stroke="#0000ff" stroke-width="0.7"/>
<line x1="33.50" y1="101.00" x2="35.50" y2="101.00" stroke="#0000ff" stroke-width="0.7"/>
<line x1="36.00" y1="101.00" x2="38.00" y2="101.00" stroke="#0000ff" stroke-width="0.7"/>
<line x1="38.50" y1="101.00" x2="40.50" y2="101.00" stroke="#0000ff" stroke-width="0.7"/>
<line x1="41.00" y1="101.00" x2="43.00" y2="101.00" stroke="#0000ff" stroke-width="0.7"/>
<line x1="43.50" y1="101.00" x2="45.50" y2="101.00" stroke="#0000ff" stroke-width="0.7"/>
<line x1="46.00" y1="101.00" x2="48.00" y2="101.00" stroke="#0000ff" stroke-width="0.7"/>
<line x1="48.50" y1="101.00" x2="50.50" y2="101.00" stroke="#0000ff" stroke-width="0.7"/>
<line x1="51.00" y1="101.00" x2="53.00" y2="101.00" stroke="#0000ff" stroke-width="0.7"/>
<line x1="53.50" y1="101.00" x2="55.50" y2="101.00" stroke="#0000ff" stroke-width="0.7"/>
<line x1="56.00" y1="101.00" x2="58.00" y2="101.00" stroke="#0000ff" stroke-width="0.7"/>
<line x1="66.00" y1="101.00" x2="68.00" y2="101.00" stroke="#0000ff" stroke-width="0.7"/>
<line x1="69.00" y1="101.00" x2="71.00" y2="101.00" stroke="#0000ff" stroke-width="0.7"/>
<line x1="72.00" y1="101.00" x2="74.00" y2="101.00" stroke="#0000ff" stroke-width="0.7"/>
<line x1="75.00" y1="101.00" x2="77.00" y2="101.00" stroke="#0000ff" stroke-width="0.7"/>
<line x1="78.00" y1="101.00" x2="80.00" y2="101.00" stroke="#0000ff" stroke-width="0.7"/>
<line x1="81.00" y1="101.00" x2="83.00" y2="101.00" stroke="#0000ff" stroke-width="0.7"/>
<line x1="84.00" y1="101.00" x2="86.00" y2="101.00" stroke="#0000ff" stroke-width="0.7"/>
<line x1="87.00" y1="101.00" x2="89.00" y2="101.00" stroke="#0000ff" stroke-width="0.7"/>
<line x1="90.00" y1="101.00" x2="92.00" y2="101.00" stroke="#0000ff" stroke-width="0.7"/>
<line x1="93.00" y1="101.00" x2="95.00" y2="101.00" stroke="#0000ff" stroke-width="0.7"/>
<line x1="96.00" y1="101.00" x2="98.00" y2="101.00" stroke="#0000ff" stroke-width="0.7"/>
<line x1="106.00" y1="101.00" x2="108.00" y2="101.00" stroke="#0000ff" stroke-width="0.7"/>
<line x1="109.50" y1="101.00" x2="111.50" y2="101.00" stroke="#0000ff" stroke-width="0.7"/>
<line x1="113.00" y1="101.00" x2="115.00" y2="101.00" stroke="#0000ff" stroke-width="0.7"/>
<line x1="116.50" y1="101.00" x2="118.50" y2="101.00" stroke="#0000ff" stroke-width="0.7"/>
<line x1="120.00" y1="101.00" x2="122.00" y2="101.00" stroke="#0000ff" stroke-width="0.7"/>
<line x1="123.50" y1="101.00" x2="125.50" y2="101.00" stroke="#0000ff" stroke-width="0.7"/>
<line x1="127.00" y1="101.00" x2="129.00" y2="101.00" stroke="#0000ff" stroke-width="0.7"/>
<line x1="130.50" y1="101.00" x2="132.50" y2="101.00" stroke="#0000ff" stroke-width="0.7"/>
<line x1="134.00" y1="101.00" x2="136.00" y2="101.00" stroke="#0000ff" stroke-width="0.7"/>
<line x1="137.50" y1="101.00" x2="138.00" y2="101.00" stroke="#0000ff" stroke-width="0.7"/>
<line x1="146.00" y1="101.00" x2="148.00" y2="101.00" stroke="#0000ff" stroke-width="0.7"/>
<line x1="150.00" y1="101.00" x2="152.00" y2="101.00" stroke="#0000ff" stroke-width="0.7"/>
<line x1="154.00" y1="101.00" x2="156.00" y2="101.00" stroke="#0000ff" stroke-width="0.7"/>
<line x1="158.00" y1="101.00" x2="160.00" y2="101.00" stroke="#0000ff" stroke-width="0.7"/>
<line x1="162.00" y1="101.00" x2="164.00" y2="101.00" stroke="#0000ff" stroke-width="0.7"/>
<line x1="166.00" y1="101.00" x2="168.00" y2="101.00" stroke="#0000ff" stroke-width="0.7"/>
<line x1="170.00" y1="101.00" x2="172.00" y2="101.00" stroke="#0000ff" stroke-width="0.7"/>
<line x1="174.00" y1="101.00" x2="176.00" y2="101.00" stroke="#0000ff" stroke-width="0.7"/>
<line x1="186.00" y1="101.00" x2="218.00" y2="101.00" stroke="#0000ff" stroke-width="0.7"/>
<line x1="26.00" y1="151.00" x2="29.00" y2="151.00" stroke="#0000ff" stroke-width="0.7"/>
<line x1="29.50" y1="151.00" x2="32.50" y2="151.00" stroke="#0000ff" stroke-width="0.7"/>
<line x1="33.00" y1="151.00" x2="36.00" y2="151.00" stroke="#0000ff" stroke-width="0.7"/>
<line x1="36.50" y1="151.00" x2="39.50" y2="151.00" stroke="#0000ff" stroke-width="0.7"/>
<line x1="40.00" y1="151.00" x2="43.00" y2="151.00" stroke="#0000ff" stroke-width="0.7"/>
<line x1="43.50" y1="151.00" x2="46.50" y2="151.00" stroke="#0000ff" stroke-width="0.7"/>
<line x1="47.00" y1="151.00" x2="50.00" y2="151.00" stroke="#0000ff" stroke-width="0.7"/>
<line x1="50.50" y1="151.00" x2="53.50" y2="151.00" stroke="#0000ff" stroke-width="0.7"/>
<line x1="54.00" y1="151.00" x2="57.00" y2="151.00" stroke="#0000ff" stroke-width="0.7"/>
<line x1="57.50" y1="151.00" x2="58.00" y2="151.00" stroke="#0000ff" stroke-width="0.7"/>
<line x1="66.00" y1="151.00" x2="69.00" y2="151.00" stroke="#0000ff" stroke-width="0.7"/>
<line x1="70.00" y1="151.00" x2="73.00" y2="151.00" stroke="#0000ff" stroke-width="0.7"/>
<line x1="74.00" y1="151.00" x2="77.00" y2="151.00" stroke="#0000ff" stroke-width="0.7"/>
<line x1="78.00" y1="151.00" x2="81.00" y2="151.00" stroke="#0000ff" stroke-width="0.7"/>
<line x1="82.00" y1="151.00" x2="85.00" y2="151.00" stroke="#0000ff" stroke-width="0.7"/>
<line x1="86.00" y1="151.00" x2="89.00" y2="151.00" stroke="#0000ff" stroke-width="0.7"/>
<line x1="90.00" y1="151.00" x2="93.00" y2="151.00" stroke="#0000ff" stroke-width="0.7"/>
<line x1="94.00" y1="151.00" x2="97.00" y2="151.00" stroke="#0000ff" stroke-width="0.7"/>
<line x1="106.00" y1="151.00" x2="109.00" y2="151.00" stroke="#0000ff" stroke-width="0.7"/>
<line x1="110.50" y1="151.00" x2="113.50" y2="151.00" stroke="#0000ff" stroke-width="0.7"/>
<line x1="115.00" y1="151.00" x2="118.00" y2="151.00" stroke="#0000ff" stroke-width="0.7"/>
<line x1="119.50" y1="151.00" x2="122.50" y2="151.00" stroke="#0000ff" stroke-width="0.7"/>
<line x1="124.00" y1="151.00" x2="127.00" y2="151.00" stroke="#0000ff" stroke-width="0.7"/>
<line x1="128.50" y1="151.00" x2="131.50" y2="151.00" stroke="#0000ff" stroke-width="0.7"/>
<line x1="133.00" y1="151.00" x2="136.00" y2="151.00" stroke="#0000ff" stroke-width="0.7"/>
<line x1="137.50" y1="151.00" x2="138.00" y2="151.00" stroke="#0000ff" stroke-width="0.7"/>
<line x1="146.00" y1="151.00" x2="149.00" y2="151.00" stroke="#0000ff" stroke-width="0.7"/>
<line x1="151.00" y1="151.00" x2="154.00" y2="151.00" stroke="#0000ff" stroke-width="0.7"/>
<line x1="156.00" y1="151.00" x2="159.00" y2="151.00" stroke="#0000ff" stroke-width="0.7"/>
<line x1="161.00" y1="151.00" x2="164.00" y2="151.00" stroke="#0000ff" stroke-width="0.7"/>
<line x1="166.00" y1="151.00" x2="169.00" y2="151.00" stroke="#0000ff" stroke-width="0.7"/>
<line x1="171.00" y1="151.00" x2="174.00" y2="151.00" stroke="#0000ff" stroke-width="0.7"/>
<line x1="176.00" y1="151.00" x2="178.00" y2="151.00" stroke="#0000ff" stroke-width="0.7"/>
<line x1="186.00" y1="151.00" x2="218.00" y2="151.00" stroke="#0000ff" stroke-width="0.7"/>
<line x1="26.00" y1="201.00" x2="31.00" y2="201.00" stroke="#0000ff" stroke-width="0.7"/>
<line x1="31.50" y1="201.00" x2="36.50" y2="201.00" stroke="#0000ff" stroke-width="0.7"/>
<line x1="37.00" y1="201.00" x2="42.00" y2="201.00" stroke="#0000ff" stroke-width="0.7"/>
<line x1="42.50" y1="201.00" x2="47.50" y2="201.00" stroke="#0000ff" stroke-width="0.7"/>
<line x1="48.00" y1="201.00" x2="53.00" y2="201.00" stroke="#0000ff" stroke-width="0.7"/>
<line x1="53.50" y1="201.00" x2="58.00" y2="201.00" stroke="#0000ff" stroke-width="0.7"/>
<line x1="66.00" y1="201.00" x2="71.00" y2="201.00" stroke="#0000ff" stroke-width="0.7"/>
<line x1="72.00" y1="201.00" x2="77.00" y2="201.00" stroke="#0000ff" stroke-width="0.7"/>
<line x1="78.00" y1="201.00" x2="83.00" y2="201.00" stroke="#0000ff" stroke-width="0.7"/>
<line x1="84.00" y1="201.00" x2="89.00" y2="201.00" stroke="#0000ff" stroke-width="0.7"/>
<line x1="90.00" y1="201.00" x2="95.00" y2="201.00" stroke="#0000ff" stroke-width="0.7"/>
<line x1="96.00" y1="201.00" x2="98.00" y2="201.00" stroke="#0000ff" stroke-width="0.7"/>
<line x1="106.00" y1="201.00" x2="111.00" y2="201.00" stroke="#0000ff" stroke-width="0.7"/>
<line x1="112.50" y1="201.00" x2="117.50" y2="201.00" stroke="#0000ff" stroke-width="0.7"/>
<line x1="119.00" y1="201.00" x2="124.00" y2="201.00" stroke="#0000ff" stroke-width="0.7"/>
<line x1="125.50" y1="201.00" x2="130.50" y2="201.00" stroke="#0000ff" stroke-width="0.7"/>
<line x1="132.00" y1="201.00" x2="137.00" y2="201.00" stroke="#0000ff" stroke-width="0.7"/>
<line x1="146.00" y1="201.00" x2="151.00" y2="201.00" stroke="#0000ff" stroke-width="0.7"/>
<line x1="153.00" y1="201.00" x2="158.00" y2="201.00" stroke="#0000ff" stroke-width="0.7"/>
<line x1="160.00" y1="201.00" x2="165.00" y2="201.00" stroke="#0000ff" stroke-width="0.7"/>
<line x1="167.00" y1="201.00" x2="172.00" y2="201.00" stroke="#0000ff" stroke-width="0.7"/>
<line x1="174.00" y1="201.00" x2="178.00" y2="201.00" stroke="#0000ff" stroke-width="0.7"/>
<line x1="186.00" y1="201.00" x2="218.00" y2="201.00" stroke="#0000ff" stroke-width="0.7"/>
<text x="26.0" y="15.5" fill="#ff9500" font-size="3.6" text-anchor="middle" font-family="monospace">FOLD / SCORE TEST  -  3.17 mm stock  -  rows=dash(mm)  cols=gap(mm)</text>
<text x="42.0" y="27.5" fill="#ff9500" font-size="3.6" text-anchor="middle" font-family="monospace">gap 0.5</text>
<text x="82.0" y="27.5" fill="#ff9500" font-size="3.6" text-anchor="middle" font-family="monospace">gap 1</text>
<text x="122.0" y="27.5" fill="#ff9500" font-size="3.6" text-anchor="middle" font-family="monospace">gap 1.5</text>
<text x="162.0" y="27.5" fill="#ff9500" font-size="3.6" text-anchor="middle" font-family="monospace">gap 2</text>
<text x="202.0" y="27.5" fill="#ff9500" font-size="3.6" text-anchor="middle" font-family="monospace">score</text>
<text x="18.0" y="51.0" fill="#ff9500" font-size="3.6" text-anchor="middle" font-family="monospace">dash 1</text>
<text x="42.0" y="63.6" fill="#ff9500" font-size="3.6" text-anchor="middle" font-family="monospace">1/0.5</text>
<text x="82.0" y="63.6" fill="#ff9500" font-size="3.6" text-anchor="middle" font-family="monospace">1/1</text>
<text x="122.0" y="63.6" fill="#ff9500" font-size="3.6" text-anchor="middle" font-family="monospace">1/1.5</text>
<text x="162.0" y="63.6" fill="#ff9500" font-size="3.6" text-anchor="middle" font-family="monospace">1/2</text>
<text x="202.0" y="63.6" fill="#ff9500" font-size="3.6" text-anchor="middle" font-family="monospace">score</text>
<text x="18.0" y="101.0" fill="#ff9500" font-size="3.6" text-anchor="middle" font-family="monospace">dash 2</text>
<text x="42.0" y="113.6" fill="#ff9500" font-size="3.6" text-anchor="middle" font-family="monospace">2/0.5</text>
<text x="82.0" y="113.6" fill="#ff9500" font-size="3.6" text-anchor="middle" font-family="monospace">2/1</text>
<text x="122.0" y="113.6" fill="#ff9500" font-size="3.6" text-anchor="middle" font-family="monospace">2/1.5</text>
<text x="162.0" y="113.6" fill="#ff9500" font-size="3.6" text-anchor="middle" font-family="monospace">2/2</text>
<text x="202.0" y="113.6" fill="#ff9500" font-size="3.6" text-anchor="middle" font-family="monospace">score</text>
<text x="18.0" y="151.0" fill="#ff9500" font-size="3.6" text-anchor="middle" font-family="monospace">dash 3</text>
<text x="42.0" y="163.6" fill="#ff9500" font-size="3.6" text-anchor="middle" font-family="monospace">3/0.5</text>
<text x="82.0" y="163.6" fill="#ff9500" font-size="3.6" text-anchor="middle" font-family="monospace">3/1</text>
<text x="122.0" y="163.6" fill="#ff9500" font-size="3.6" text-anchor="middle" font-family="monospace">3/1.5</text>
<text x="162.0" y="163.6" fill="#ff9500" font-size="3.6" text-anchor="middle" font-family="monospace">3/2</text>
<text x="202.0" y="163.6" fill="#ff9500" font-size="3.6" text-anchor="middle" font-family="monospace">score</text>
<text x="18.0" y="201.0" fill="#ff9500" font-size="3.6" text-anchor="middle" font-family="monospace">dash 5</text>
<text x="42.0" y="213.6" fill="#ff9500" font-size="3.6" text-anchor="middle" font-family="monospace">5/0.5</text>
<text x="82.0" y="213.6" fill="#ff9500" font-size="3.6" text-anchor="middle" font-family="monospace">5/1</text>
<text x="122.0" y="213.6" fill="#ff9500" font-size="3.6" text-anchor="middle" font-family="monospace">5/1.5</text>
<text x="162.0" y="213.6" fill="#ff9500" font-size="3.6" text-anchor="middle" font-family="monospace">5/2</text>
<text x="202.0" y="213.6" fill="#ff9500" font-size="3.6" text-anchor="middle" font-family="monospace">score</text>
</svg>