0
SECTION
2
ENTITIES
0
POLYLINE
8
CUT
66
1
70
1
0
VERTEX
8
CUT
10
26.00000
20
30.00000
30
0.0
0
VERTEX
8
CUT
10
58.00000
20
30.00000
30
0.0
0
VERTEX
8
CUT
10
58.00000
20
72.00000
30
0.0
0
VERTEX
8
CUT
10
26.00000
20
72.00000
30
0.0
0
SEQEND
0
POLYLINE
8
CUT
66
1
70
1
0
VERTEX
8
CUT
10
66.00000
20
30.00000
30
0.0
0
VERTEX
8
CUT
10
98.00000
20
30.00000
30
0.0
0
VERTEX
8
CUT
10
98.00000
20
72.00000
30
0.0
0
VERTEX
8
CUT
10
66.00000
20
72.00000
30
0.0
0
SEQEND
0
POLYLINE
8
CUT
66
1
70
1
0
VERTEX
8
CUT
10
106.00000
20
30.00000
30
0.0
0
VERTEX
8
CUT
10
138.00000
20
30.00000
30
0.0
0
VERTEX
8
CUT
10
138.00000
20
72.00000
30
0.0
0
VERTEX
8
CUT
10
106.00000
20
72.00000
30
0.0
0
SEQEND
0
POLYLINE
8
CUT
66
1
70
1
0
VERTEX
8
CUT
10
146.00000
20
30.00000
30
0.0
0
VERTEX
8
CUT
10
178.00000
20
30.00000
30
0.0
0
VERTEX
8
CUT
10
178.00000
20
72.00000
30
0.0
0
VERTEX
8
CUT
10
146.00000
20
72.00000
30
0.0
0
SEQEND
0
POLYLINE
8
CUT
66
1
70
1
0
VERTEX
8
CUT
10
186.00000
20
30.00000
30
0.0
0
VERTEX
8
CUT
10
218.00000
20
30.00000
30
0.0
0
VERTEX
8
CUT
10
218.00000
20
72.00000
30
0.0
0
VERTEX
8
CUT
10
186.00000
20
72.00000
30
0.0
0
SEQEND
0
POLYLINE
8
CUT
66
1
70
1
0
VERTEX
8
CUT
10
26.00000
20
80.00000
30
0.0
0
VERTEX
8
CUT
10
58.00000
20
80.00000
30
0.0
0
VERTEX
8
CUT
10
58.00000
20
122.00000
30
0.0
0
VERTEX
8
CUT
10
26.00000
20
122.00000
30
0.0
0
SEQEND
0
POLYLINE
8
CUT
66
1
70
1
0
VERTEX
8
CUT
10
66.00000
20
80.00000
30
0.0
0
VERTEX
8
CUT
10
98.00000
20
80.00000
30
0.0
0
VERTEX
8
CUT
10
98.00000
20
122.00000
30
0.0
0
VERTEX
8
CUT
10
66.00000
20
122.00000
30
0.0
0
SEQEND
0
POLYLINE
8
CUT
66
1
70
1
0
VERTEX
8
CUT
10
106.00000
20
80.00000
30
0.0
0
VERTEX
8
CUT
10
138.00000
20
80.00000
30
0.0
0
VERTEX
8
CUT
10
138.00000
20
122.00000
30
0.0
0
VERTEX
8
CUT
10
106.00000
20
122.00000
30
0.0
0
SEQEND
0
POLYLINE
8
CUT
66
1
70
1
0
VERTEX
8
CUT
10
146.00000
20
80.00000
30
0.0
0
VERTEX
8
CUT
10
178.00000
20
80.00000
30
0.0
0
VERTEX
8
CUT
10
178.00000
20
122.00000
30
0.0
0
VERTEX
8
CUT
10
146.00000
20
122.00000
30
0.0
0
SEQEND
0
POLYLINE
8
CUT
66
1
70
1
0
VERTEX
8
CUT
10
186.00000
20
80.00000
30
0.0
0
VERTEX
8
CUT
10
218.00000
20
80.00000
30
0.0
0
VERTEX
8
CUT
10
218.00000
20
122.00000
30
0.0
0
VERTEX
8
CUT
10
186.00000
20
122.00000
30
0.0
0
SEQEND
0
POLYLINE
8
CUT
66
1
70
1
0
VERTEX
8
CUT
10
26.00000
20
130.00000
30
0.0
0
VERTEX
8
CUT
10
58.00000
20
130.00000
30
0.0
0
VERTEX
8
CUT
10
58.00000
20
172.00000
30
0.0
0
VERTEX
8
CUT
10
26.00000
20
172.00000
30
0.0
0
SEQEND
0
POLYLINE
8
CUT
66
1
70
1
0
VERTEX
8
CUT
10
66.00000
20
130.00000
30
0.0
0
VERTEX
8
CUT
10
98.00000
20
130.00000
30
0.0
0
VERTEX
8
CUT
10
98.00000
20
172.00000
30
0.0
0
VERTEX
8
CUT
10
66.00000
20
172.00000
30
0.0
0
SEQEND
0
POLYLINE
8
CUT
66
1
70
1
0
VERTEX
8
CUT
10
106.00000
20
130.00000
30
0.0
0
VERTEX
8
CUT
10
138.00000
20
130.00000
30
0.0
0
VERTEX
8
CUT
10
138.00000
20
172.00000
30
0.0
0
VERTEX
8
CUT
10
106.00000
20
172.00000
30
0.0
0
SEQEND
0
POLYLINE
8
CUT
66
1
70
1
0
VERTEX
8
CUT
10
146.00000
20
130.00000
30
0.0
0
VERTEX
8
CUT
10
178.00000
20
130.00000
30
0.0
0
VERTEX
8
CUT
10
178.00000
20
172.00000
30
0.0
0
VERTEX
8
CUT
10
146.00000
20
172.00000
30
0.0
0
SEQEND
0
POLYLINE
8
CUT
66
1
70
1
0
VERTEX
8
CUT
10
186.00000
20
130.00000
30
0.0
0
VERTEX
8
CUT
10
218.00000
20
130.00000
30
0.0
0
VERTEX
8
CUT
10
218.00000
20
172.00000
30
0.0
0
VERTEX
8
CUT
10
186.00000
20
172.00000
30
0.0
0
SEQEND
0
POLYLINE
8
CUT
66
1
70
1
0
VERTEX
8
CUT
10
26.00000
20
180.00000
30
0.0
0
VERTEX
8
CUT
10
58.00000
20
180.00000
30
0.0
0
VERTEX
8
CUT
10
58.00000
20
222.00000
30
0.0
0
VERTEX
8
CUT
10
26.00000
20
222.00000
30
0.0
0
SEQEND
0
POLYLINE
8
CUT
66
1
70
1
0
VERTEX
8
CUT
10
66.00000
20
180.00000
30
0.0
0
VERTEX
8
CUT
10
98.00000
20
180.00000
30
0.0
0
VERTEX
8
CUT
10
98.00000
20
222.00000
30
0.0
0
VERTEX
8
CUT
10
66.00000
20
222.00000
30
0.0
0
SEQEND
0
POLYLINE
8
CUT
66
1
70
1
0
VERTEX
8
CUT
10
106.00000
20
180.00000
30
0.0
0
VERTEX
8
CUT
10
138.00000
20
180.00000
30
0.0
0
VERTEX
8
CUT
10
138.00000
20
222.00000
30
0.0
0
VERTEX
8
CUT
10
106.00000
20
222.00000
30
0.0
0
SEQEND
0
POLYLINE
8
CUT
66
1
70
1
0
VERTEX
8
CUT
10
146.00000
20
180.00000
30
0.0
0
VERTEX
8
CUT
10
178.00000
20
180.00000
30
0.0
0
VERTEX
8
CUT
10
178.00000
20
222.00000
30
0.0
0
VERTEX
8
CUT
10
146.00000
20
222.00000
30
0.0
0
SEQEND
0
POLYLINE
8
CUT
66
1
70
1
0
VERTEX
8
CUT
10
186.00000
20
180.00000
30
0.0
0
VERTEX
8
CUT
10
218.00000
20
180.00000
30
0.0
0
VERTEX
8
CUT
10
218.00000
20
222.00000
30
0.0
0
VERTEX
8
CUT
10
186.00000
20
222.00000
30
0.0
0
SEQEND
0
LINE
8
SCORE
10
26.00000
20
51.00000
30
0.0
11
27.00000
21
51.00000
31
0.0
0
LINE
8
SCORE
10
27.50000
20
51.00000
30
0.0
11
28.50000
21
51.00000
31
0.0
0
LINE
8
SCORE
10
29.00000
20
51.00000
30
0.0
11
30.00000
21
51.00000
31
0.0
0
LINE
8
SCORE
10
30.50000
20
51.00000
30
0.0
11
31.50000
21
51.00000
31
0.0
0
LINE
8
SCORE
10
32.00000
20
51.00000
30
0.0
11
33.00000
21
51.00000
31
0.0
0
LINE
8
SCORE
10
33.50000
20
51.00000
30
0.0
11
34.50000
21
51.00000
31
0.0
0
LINE
8
SCORE
10
35.00000
20
51.00000
30
0.0
11
36.00000
21
51.00000
31
0.0
0
LINE
8
SCORE
10
36.50000
20
51.00000
30
0.0
11
37.50000
21
51.00000
31
0.0
0
LINE
8
SCORE
10
38.00000
20
51.00000
30
0.0
11
39.00000
21
51.00000
31
0.0
0
LINE
8
SCORE
10
39.50000
20
51.00000
30
0.0
11
40.50000
21
51.00000
31
0.0
0
LINE
8
SCORE
10
41.00000
20
51.00000
30
0.0
11
42.00000
21
51.00000
31
0.0
0
LINE
8
SCORE
10
42.50000
20
51.00000
30
0.0
11
43.50000
21
51.00000
31
0.0
0
LINE
8
SCORE
10
44.00000
20
51.00000
30
0.0
11
45.00000
21
51.00000
31
0.0
0
LINE
8
SCORE
10
45.50000
20
51.00000
30
0.0
11
46.50000
21
51.00000
31
0.0
0
LINE
8
SCORE
10
47.00000
20
51.00000
30
0.0
11
48.00000
21
51.00000
31
0.0
0
LINE
8
SCORE
10
48.50000
20
51.00000
30
0.0
11
49.50000
21
51.00000
31
0.0
0
LINE
8
SCORE
10
50.00000
20
51.00000
30
0.0
11
51.00000
21
51.00000
31
0.0
0
LINE
8
SCORE
10
51.50000
20
51.00000
30
0.0
11
52.50000
21
51.00000
31
0.0
0
LINE
8
SCORE
10
53.00000
20
51.00000
30
0.0
11
54.00000
21
51.00000
31
0.0
0
LINE
8
SCORE
10
54.50000
20
51.00000
30
0.0
11
55.50000
21
51.00000
31
0.0
0
LINE
8
SCORE
10
56.00000
20
51.00000
30
0.0
11
57.00000
21
51.00000
31
0.0
0
LINE
8
SCORE
10
57.50000
20
51.00000
30
0.0
11
58.00000
21
51.00000
31
0.0
0
LINE
8
SCORE
10
66.00000
20
51.00000
30
0.0
11
67.00000
21
51.00000
31
0.0
0
LINE
8
SCORE
10
68.00000
20
51.00000
30
0.0
11
69.00000
21
51.00000
31
0.0
0
LINE
8
SCORE
10
70.00000
20
51.00000
30
0.0
11
71.00000
21
51.00000
31
0.0
0
LINE
8
SCORE
10
72.00000
20
51.00000
30
0.0
11
73.00000
21
51.00000
31
0.0
0
LINE
8
SCORE
10
74.00000
20
51.00000
30
0.0
11
75.00000
21
51.00000
31
0.0
0
LINE
8
SCORE
10
76.00000
20
51.00000
30
0.0
11
77.00000
21
51.00000
31
0.0
0
LINE
8
SCORE
10
78.00000
20
51.00000
30
0.0
11
79.00000
21
51.00000
31
0.0
0
LINE
8
SCORE
10
80.00000
20
51.00000
30
0.0
11
81.00000
21
51.00000
31
0.0
0
LINE
8
SCORE
10
82.00000
20
51.00000
30
0.0
11
83.00000
21
51.00000
31
0.0
0
LINE
8
SCORE
10
84.00000
20
51.00000
30
0.0
11
85.00000
21
51.00000
31
0.0
0
LINE
8
SCORE
10
86.00000
20
51.00000
30
0.0
11
87.00000
21
51.00000
31
0.0
0
LINE
8
SCORE
10
88.00000
20
51.00000
30
0.0
11
89.00000
21
51.00000
31
0.0
0
LINE
8
SCORE
10
90.00000
20
51.00000
30
0.0
11
91.00000
21
51.00000
31
0.0
0
LINE
8
SCORE
10
92.00000
20
51.00000
30
0.0
11
93.00000
21
51.00000
31
0.0
0
LINE
8
SCORE
10
94.00000
20
51.00000
30
0.0
11
95.00000
21
51.00000
31
0.0
0
LINE
8
SCORE
10
96.00000
20
51.00000
30
0.0
11
97.00000
21
51.00000
31
0.0
0
LINE
8
SCORE
10
106.00000
20
51.00000
30
0.0
11
107.00000
21
51.00000
31
0.0
0
LINE
8
SCORE
10
108.50000
20
51.00000
30
0.0
11
109.50000
21
51.00000
31
0.0
0
LINE
8
SCORE
10
111.00000
20
51.00000
30
0.0
11
112.00000
21
51.00000
31
0.0
0
LINE
8
SCORE
10
113.50000
20
51.00000
30
0.0
11
114.50000
21
51.00000
31
0.0
0
LINE
8
SCORE
10
116.00000
20
51.00000
30
0.0
11
117.00000
21
51.00000
31
0.0
0
LINE
8
SCORE
10
118.50000
20
51.00000
30
0.0
11
119.50000
21
51.00000
31
0.0
0
LINE
8
SCORE
10
121.00000
20
51.00000
30
0.0
11
122.00000
21
51.00000
31
0.0
0
LINE
8
SCORE
10
123.50000
20
51.00000
30
0.0
11
124.50000
21
51.00000
31
0.0
0
LINE
8
SCORE
10
126.00000
20
51.00000
30
0.0
11
127.00000
21
51.00000
31
0.0
0
LINE
8
SCORE
10
128.50000
20
51.00000
30
0.0
11
129.50000
21
51.00000
31
0.0
0
LINE
8
SCORE
10
131.00000
20
51.00000
30
0.0
11
132.00000
21
51.00000
31
0.0
0
LINE
8
SCORE
10
133.50000
20
51.00000
30
0.0
11
134.50000
21
51.00000
31
0.0
0
LINE
8
SCORE
10
136.00000
20
51.00000
30
0.0
11
137.00000
21
51.00000
31
0.0
0
LINE
8
SCORE
10
146.00000
20
51.00000
30
0.0
11
147.00000
21
51.00000
31
0.0
0
LINE
8
SCORE
10
149.00000
20
51.00000
30
0.0
11
150.00000
21
51.00000
31
0.0
0
LINE
8
SCORE
10
152.00000
20
51.00000
30
0.0
11
153.00000
21
51.00000
31
0.0
0
LINE
8
SCORE
10
155.00000
20
51.00000
30
0.0
11
156.00000
21
51.00000
31
0.0
0
LINE
8
SCORE
10
158.00000
20
51.00000
30
0.0
11
159.00000
21
51.00000
31
0.0
0
LINE
8
SCORE
10
161.00000
20
51.00000
30
0.0
11
162.00000
21
51.00000
31
0.0
0
LINE
8
SCORE
10
164.00000
20
51.00000
30
0.0
11
165.00000
21
51.00000
31
0.0
0
LINE
8
SCORE
10
167.00000
20
51.00000
30
0.0
11
168.00000
21
51.00000
31
0.0
0
LINE
8
SCORE
10
170.00000
20
51.00000
30
0.0
11
171.00000
21
51.00000
31
0.0
0
LINE
8
SCORE
10
173.00000
20
51.00000
30
0.0
11
174.00000
21
51.00000
31
0.0
0
LINE
8
SCORE
10
176.00000
20
51.00000
30
0.0
11
177.00000
21
51.00000
31
0.0
0
LINE
8
SCORE
10
186.00000
20
51.00000
30
0.0
11
218.00000
21
51.00000
31
0.0
0
LINE
8
SCORE
10
26.00000
20
101.00000
30
0.0
11
28.00000
21
101.00000
31
0.0
0
LINE
8
SCORE
10
28.50000
20
101.00000
30
0.0
11
30.50000
21
101.00000
31
0.0
0
LINE
8
SCORE
10
31.00000
20
101.00000
30
0.0
11
33.00000
21
101.00000
31
0.0
0
LINE
8
SCORE
10
33.50000
20
101.00000
30
0.0
11
35.50000
21
101.00000
31
0.0
0
LINE
8
SCORE
10
36.00000
20
101.00000
30
0.0
11
38.00000
21
101.00000
31
0.0
0
LINE
8
SCORE
10
38.50000
20
101.00000
30
0.0
11
40.50000
21
101.00000
31
0.0
0
LINE
8
SCORE
10
41.00000
20
101.00000
30
0.0
11
43.00000
21
101.00000
31
0.0
0
LINE
8
SCORE
10
43.50000
20
101.00000
30
0.0
11
45.50000
21
101.00000
31
0.0
0
LINE
8
SCORE
10
46.00000
20
101.00000
30
0.0
11
48.00000
21
101.00000
31
0.0
0
LINE
8
SCORE
10
48.50000
20
101.00000
30
0.0
11
50.50000
21
101.00000
31
0.0
0
LINE
8
SCORE
10
51.00000
20
101.00000
30
0.0
11
53.00000
21
101.00000
31
0.0
0
LINE
8
SCORE
10
53.50000
20
101.00000
30
0.0
11
55.50000
21
101.00000
31
0.0
0
LINE
8
SCORE
10
56.00000
20
101.00000
30
0.0
11
58.00000
21
101.00000
31
0.0
0
LINE
8
SCORE
10
66.00000
20
101.00000
30
0.0
11
68.00000
21
101.00000
31
0.0
0
LINE
8
SCORE
10
69.00000
20
101.00000
30
0.0
11
71.00000
21
101.00000
31
0.0
0
LINE
8
SCORE
10
72.00000
20
101.00000
30
0.0
11
74.00000
21
101.00000
31
0.0
0
LINE
8
SCORE
10
75.00000
20
101.00000
30
0.0
11
77.00000
21
101.00000
31
0.0
0
LINE
8
SCORE
10
78.00000
20
101.00000
30
0.0
11
80.00000
21
101.00000
31
0.0
0
LINE
8
SCORE
10
81.00000
20
101.00000
30
0.0
11
83.00000
21
101.00000
31
0.0
0
LINE
8
SCORE
10
84.00000
20
101.00000
30
0.0
11
86.00000
21
101.00000
31
0.0
0
LINE
8
SCORE
10
87.00000
20
101.00000
30
0.0
11
89.00000
21
101.00000
31
0.0
0
LINE
8
SCORE
10
90.00000
20
101.00000
30
0.0
11
92.00000
21
101.00000
31
0.0
0
LINE
8
SCORE
10
93.00000
20
101.00000
30
0.0
11
95.00000
21
101.00000
31
0.0
0
LINE
8
SCORE
10
96.00000
20
101.00000
30
0.0
11
98.00000
21
101.00000
31
0.0
0
LINE
8
SCORE
10
106.00000
20
101.00000
30
0.0
11
108.00000
21
101.00000
31
0.0
0
LINE
8
SCORE
10
109.50000
20
101.00000
30
0.0
11
111.50000
21
101.00000
31
0.0
0
LINE
8
SCORE
10
113.00000
20
101.00000
30
0.0
11
115.00000
21
101.00000
31
0.0
0
LINE
8
SCORE
10
116.50000
20
101.00000
30
0.0
11
118.50000
21
101.00000
31
0.0
0
LINE
8
SCORE
10
120.00000
20
101.00000
30
0.0
11
122.00000
21
101.00000
31
0.0
0
LINE
8
SCORE
10
123.50000
20
101.00000
30
0.0
11
125.50000
21
101.00000
31
0.0
0
LINE
8
SCORE
10
127.00000
20
101.00000
30
0.0
11
129.00000
21
101.00000
31
0.0
0
LINE
8
SCORE
10
130.50000
20
101.00000
30
0.0
11
132.50000
21
101.00000
31
0.0
0
LINE
8
SCORE
10
134.00000
20
101.00000
30
0.0
11
136.00000
21
101.00000
31
0.0
0
LINE
8
SCORE
10
137.50000
20
101.00000
30
0.0
11
138.00000
21
101.00000
31
0.0
0
LINE
8
SCORE
10
146.00000
20
101.00000
30
0.0
11
148.00000
21
101.00000
31
0.0
0
LINE
8
SCORE
10
150.00000
20
101.00000
30
0.0
11
152.00000
21
101.00000
31
0.0
0
LINE
8
SCORE
10
154.00000
20
101.00000
30
0.0
11
156.00000
21
101.00000
31
0.0
0
LINE
8
SCORE
10
158.00000
20
101.00000
30
0.0
11
160.00000
21
101.00000
31
0.0
0
LINE
8
SCORE
10
162.00000
20
101.00000
30
0.0
11
164.00000
21
101.00000
31
0.0
0
LINE
8
SCORE
10
166.00000
20
101.00000
30
0.0
11
168.00000
21
101.00000
31
0.0
0
LINE
8
SCORE
10
170.00000
20
101.00000
30
0.0
11
172.00000
21
101.00000
31
0.0
0
LINE
8
SCORE
10
174.00000
20
101.00000
30
0.0
11
176.00000
21
101.00000
31
0.0
0
LINE
8
SCORE
10
186.00000
20
101.00000
30
0.0
11
218.00000
21
101.00000
31
0.0
0
LINE
8
SCORE
10
26.00000
20
151.00000
30
0.0
11
29.00000
21
151.00000
31
0.0
0
LINE
8
SCORE
10
29.50000
20
151.00000
30
0.0
11
32.50000
21
151.00000
31
0.0
0
LINE
8
SCORE
10
33.00000
20
151.00000
30
0.0
11
36.00000
21
151.00000
31
0.0
0
LINE
8
SCORE
10
36.50000
20
151.00000
30
0.0
11
39.50000
21
151.00000
31
0.0
0
LINE
8
SCORE
10
40.00000
20
151.00000
30
0.0
11
43.00000
21
151.00000
31
0.0
0
LINE
8
SCORE
10
43.50000
20
151.00000
30
0.0
11
46.50000
21
151.00000
31
0.0
0
LINE
8
SCORE
10
47.00000
20
151.00000
30
0.0
11
50.00000
21
151.00000
31
0.0
0
LINE
8
SCORE
10
50.50000
20
151.00000
30
0.0
11
53.50000
21
151.00000
31
0.0
0
LINE
8
SCORE
10
54.00000
20
151.00000
30
0.0
11
57.00000
21
151.00000
31
0.0
0
LINE
8
SCORE
10
57.50000
20
151.00000
30
0.0
11
58.00000
21
151.00000
31
0.0
0
LINE
8
SCORE
10
66.00000
20
151.00000
30
0.0
11
69.00000
21
151.00000
31
0.0
0
LINE
8
SCORE
10
70.00000
20
151.00000
30
0.0
11
73.00000
21
151.00000
31
0.0
0
LINE
8
SCORE
10
74.00000
20
151.00000
30
0.0
11
77.00000
21
151.00000
31
0.0
0
LINE
8
SCORE
10
78.00000
20
151.00000
30
0.0
11
81.00000
21
151.00000
31
0.0
0
LINE
8
SCORE
10
82.00000
20
151.00000
30
0.0
11
85.00000
21
151.00000
31
0.0
0
LINE
8
SCORE
10
86.00000
20
151.00000
30
0.0
11
89.00000
21
151.00000
31
0.0
0
LINE
8
SCORE
10
90.00000
20
151.00000
30
0.0
11
93.00000
21
151.00000
31
0.0
0
LINE
8
SCORE
10
94.00000
20
151.00000
30
0.0
11
97.00000
21
151.00000
31
0.0
0
LINE
8
SCORE
10
106.00000
20
151.00000
30
0.0
11
109.00000
21
151.00000
31
0.0
0
LINE
8
SCORE
10
110.50000
20
151.00000
30
0.0
11
113.50000
21
151.00000
31
0.0
0
LINE
8
SCORE
10
115.00000
20
151.00000
30
0.0
11
118.00000
21
151.00000
31
0.0
0
LINE
8
SCORE
10
119.50000
20
151.00000
30
0.0
11
122.50000
21
151.00000
31
0.0
0
LINE
8
SCORE
10
124.00000
20
151.00000
30
0.0
11
127.00000
21
151.00000
31
0.0
0
LINE
8
SCORE
10
128.50000
20
151.00000
30
0.0
11
131.50000
21
151.00000
31
0.0
0
LINE
8
SCORE
10
133.00000
20
151.00000
30
0.0
11
136.00000
21
151.00000
31
0.0
0
LINE
8
SCORE
10
137.50000
20
151.00000
30
0.0
11
138.00000
21
151.00000
31
0.0
0
LINE
8
SCORE
10
146.00000
20
151.00000
30
0.0
11
149.00000
21
151.00000
31
0.0
0
LINE
8
SCORE
10
151.00000
20
151.00000
30
0.0
11
154.00000
21
151.00000
31
0.0
0
LINE
8
SCORE
10
156.00000
20
151.00000
30
0.0
11
159.00000
21
151.00000
31
0.0
0
LINE
8
SCORE
10
161.00000
20
151.00000
30
0.0
11
164.00000
21
151.00000
31
0.0
0
LINE
8
SCORE
10
166.00000
20
151.00000
30
0.0
11
169.00000
21
151.00000
31
0.0
0
LINE
8
SCORE
10
171.00000
20
151.00000
30
0.0
11
174.00000
21
151.00000
31
0.0
0
LINE
8
SCORE
10
176.00000
20
151.00000
30
0.0
11
178.00000
21
151.00000
31
0.0
0
LINE
8
SCORE
10
186.00000
20
151.00000
30
0.0
11
218.00000
21
151.00000
31
0.0
0
LINE
8
SCORE
10
26.00000
20
201.00000
30
0.0
11
31.00000
21
201.00000
31
0.0
0
LINE
8
SCORE
10
31.50000
20
201.00000
30
0.0
11
36.50000
21
201.00000
31
0.0
0
LINE
8
SCORE
10
37.00000
20
201.00000
30
0.0
11
42.00000
21
201.00000
31
0.0
0
LINE
8
SCORE
10
42.50000
20
201.00000
30
0.0
11
47.50000
21
201.00000
31
0.0
0
LINE
8
SCORE
10
48.00000
20
201.00000
30
0.0
11
53.00000
21
201.00000
31
0.0
0
LINE
8
SCORE
10
53.50000
20
201.00000
30
0.0
11
58.00000
21
201.00000
31
0.0
0
LINE
8
SCORE
10
66.00000
20
201.00000
30
0.0
11
71.00000
21
201.00000
31
0.0
0
LINE
8
SCORE
10
72.00000
20
201.00000
30
0.0
11
77.00000
21
201.00000
31
0.0
0
LINE
8
SCORE
10
78.00000
20
201.00000
30
0.0
11
83.00000
21
201.00000
31
0.0
0
LINE
8
SCORE
10
84.00000
20
201.00000
30
0.0
11
89.00000
21
201.00000
31
0.0
0
LINE
8
SCORE
10
90.00000
20
201.00000
30
0.0
11
95.00000
21
201.00000
31
0.0
0
LINE
8
SCORE
10
96.00000
20
201.00000
30
0.0
11
98.00000
21
201.00000
31
0.0
0
LINE
8
SCORE
10
106.00000
20
201.00000
30
0.0
11
111.00000
21
201.00000
31
0.0
0
LINE
8
SCORE
10
112.50000
20
201.00000
30
0.0
11
117.50000
21
201.00000
31
0.0
0
LINE
8
SCORE
10
119.00000
20
201.00000
30
0.0
11
124.00000
21
201.00000
31
0.0
0
LINE
8
SCORE
10
125.50000
20
201.00000
30
0.0
11
130.50000
21
201.00000
31
0.0
0
LINE
8
SCORE
10
132.00000
20
201.00000
30
0.0
11
137.00000
21
201.00000
31
0.0
0
LINE
8
SCORE
10
146.00000
20
201.00000
30
0.0
11
151.00000
21
201.00000
31
0.0
0
LINE
8
SCORE
10
153.00000
20
201.00000
30
0.0
11
158.00000
21
201.00000
31
0.0
0
LINE
8
SCORE
10
160.00000
20
201.00000
30
0.0
11
165.00000
21
201.00000
31
0.0
0
LINE
8
SCORE
10
167.00000
20
201.00000
30
0.0
11
172.00000
21
201.00000
31
0.0
0
LINE
8
SCORE
10
174.00000
20
201.00000
30
0.0
11
178.00000
21
201.00000
31
0.0
0
LINE
8
SCORE
10
186.00000
20
201.00000
30
0.0
11
218.00000
21
201.00000
31
0.0
0
ENDSEC
0
EOF
