<?xml version="1.0" encoding="UTF-8"?>
<svg xmlns="http://www.w3.org/2000/svg" version="1.1" width="228.0000mm" height="232.0000mm" viewBox="0 0 228.0000 232.0000">
<title>fold test card</title>
<g id="cut" stroke="#ff0000" fill="none" stroke-width="0.1000">
  <path d="M 26.0000,30.0000 L 58.0000,30.0000 L 58.0000,72.0000 L 26.0000,72.0000 Z"/>
  <path d="M 66.0000,30.0000 L 98.0000,30.0000 L 98.0000,72.0000 L 66.0000,72.0000 Z"/>
  <path d="M 106.0000,30.0000 L 138.0000,30.0000 L 138.0000,72.0000 L 106.0000,72.0000 Z"/>
  <path d="M 146.0000,30.0000 L 178.0000,30.0000 L 178.0000,72.0000 L 146.0000,72.0000 Z"/>
  <path d="M 186.0000,30.0000 L 218.0000,30.0000 L 218.0000,72.0000 L 186.0000,72.0000 Z"/>
  <path d="M 26.0000,80.0000 L 58.0000,80.0000 L 58.0000,122.0000 L 26.0000,122.0000 Z"/>
  <path d="M 66.0000,80.0000 L 98.0000,80.0000 L 98.0000,122.0000 L 66.0000,122.0000 Z"/>
  <path d="M 106.0000,80.0000 L 138.0000,80.0000 L 138.0000,122.0000 L 106.0000,122.0000 Z"/>
  <path d="M 146.0000,80.0000 L 178.0000,80.0000 L 178.0000,122.0000 L 146.0000,122.0000 Z"/>
  <path d="M 186.0000,80.0000 L 218.0000,80.0000 L 218.0000,122.0000 L 186.0000,122.0000 Z"/>
  <path d="M 26.0000,130.0000 L 58.0000,130.0000 L 58.0000,172.0000 L 26.0000,172.0000 Z"/>
  <path d="M 66.0000,130.0000 L 98.0000,130.0000 L 98.0000,172.0000 L 66.0000,172.0000 Z"/>
  <path d="M 106.0000,130.0000 L 138.0000,130.0000 L 138.0000,172.0000 L 106.0000,172.0000 Z"/>
  <path d="M 146.0000,130.0000 L 178.0000,130.0000 L 178.0000,172.0000 L 146.0000,172.0000 Z"/>
  <path d="M 186.0000,130.0000 L 218.0000,130.0000 L 218.0000,172.0000 L 186.0000,172.0000 Z"/>
  <path d="M 26.0000,180.0000 L 58.0000,180.0000 L 58.0000,222.0000 L 26.0000,222.0000 Z"/>
  <path d="M 66.0000,180.0000 L 98.0000,180.0000 L 98.0000,222.0000 L 66.0000,222.0000 Z"/>
  <path d="M 106.0000,180.0000 L 138.0000,180.0000 L 138.0000,222.0000 L 106.0000,222.0000 Z"/>
  <path d="M 146.0000,180.0000 L 178.0000,180.0000 L 178.0000,222.0000 L 146.0000,222.0000 Z"/>
  <path d="M 186.0000,180.0000 L 218.0000,180.0000 L 218.0000,222.0000 L 186.0000,222.0000 Z"/>
</g>
<g id="score" stroke="#0000ff" fill="none" stroke-width="0.1000">
  <line x1="26.0000" y1="51.0000" x2="27.0000" y2="51.0000"/>
  <line x1="27.5000" y1="51.0000" x2="28.5000" y2="51.0000"/>
  <line x1="29.0000" y1="51.0000" x2="30.0000" y2="51.0000"/>
  <line x1="30.5000" y1="51.0000" x2="31.5000" y2="51.0000"/>
  <line x1="32.0000" y1="51.0000" x2="33.0000" y2="51.0000"/>
  <line x1="33.5000" y1="51.0000" x2="34.5000" y2="51.0000"/>
  <line x1="35.0000" y1="51.0000" x2="36.0000" y2="51.0000"/>
  <line x1="36.5000" y1="51.0000" x2="37.5000" y2="51.0000"/>
  <line x1="38.0000" y1="51.0000" x2="39.0000" y2="51.0000"/>
  <line x1="39.5000" y1="51.0000" x2="40.5000" y2="51.0000"/>
  <line x1="41.0000" y1="51.0000" x2="42.0000" y2="51.0000"/>
  <line x1="42.5000" y1="51.0000" x2="43.5000" y2="51.0000"/>
  <line x1="44.0000" y1="51.0000" x2="45.0000" y2="51.0000"/>
  <line x1="45.5000" y1="51.0000" x2="46.5000" y2="51.0000"/>
  <line x1="47.0000" y1="51.0000" x2="48.0000" y2="51.0000"/>
  <line x1="48.5000" y1="51.0000" x2="49.5000" y2="51.0000"/>
  <line x1="50.0000" y1="51.0000" x2="51.0000" y2="51.0000"/>
  <line x1="51.5000" y1="51.0000" x2="52.5000" y2="51.0000"/>
  <line x1="53.0000" y1="51.0000" x2="54.0000" y2="51.0000"/>
  <line x1="54.5000" y1="51.0000" x2="55.5000" y2="51.0000"/>
  <line x1="56.0000" y1="51.0000" x2="57.0000" y2="51.0000"/>
  <line x1="57.5000" y1="51.0000" x2="58.0000" y2="51.0000"/>
  <line x1="66.0000" y1="51.0000" x2="67.0000" y2="51.0000"/>
  <line x1="68.0000" y1="51.0000" x2="69.0000" y2="51.0000"/>
  <line x1="70.0000" y1="51.0000" x2="71.0000" y2="51.0000"/>
  <line x1="72.0000" y1="51.0000" x2="73.0000" y2="51.0000"/>
  <line x1="74.0000" y1="51.0000" x2="75.0000" y2="51.0000"/>
  <line x1="76.0000" y1="51.0000" x2="77.0000" y2="51.0000"/>
  <line x1="78.0000" y1="51.0000" x2="79.0000" y2="51.0000"/>
  <line x1="80.0000" y1="51.0000" x2="81.0000" y2="51.0000"/>
  <line x1="82.0000" y1="51.0000" x2="83.0000" y2="51.0000"/>
  <line x1="84.0000" y1="51.0000" x2="85.0000" y2="51.0000"/>
  <line x1="86.0000" y1="51.0000" x2="87.0000" y2="51.0000"/>
  <line x1="88.0000" y1="51.0000" x2="89.0000" y2="51.0000"/>
  <line x1="90.0000" y1="51.0000" x2="91.0000" y2="51.0000"/>
  <line x1="92.0000" y1="51.0000" x2="93.0000" y2="51.0000"/>
  <line x1="94.0000" y1="51.0000" x2="95.0000" y2="51.0000"/>
  <line x1="96.0000" y1="51.0000" x2="97.0000" y2="51.0000"/>
  <line x1="106.0000" y1="51.0000" x2="107.0000" y2="51.0000"/>
  <line x1="108.5000" y1="51.0000" x2="109.5000" y2="51.0000"/>
  <line x1="111.0000" y1="51.0000" x2="112.0000" y2="51.0000"/>
  <line x1="113.5000" y1="51.0000" x2="114.5000" y2="51.0000"/>
  <line x1="116.0000" y1="51.0000" x2="117.0000" y2="51.0000"/>
  <line x1="118.5000" y1="51.0000" x2="119.5000" y2="51.0000"/>
  <line x1="121.0000" y1="51.0000" x2="122.0000" y2="51.0000"/>
  <line x1="123.5000" y1="51.0000" x2="124.5000" y2="51.0000"/>
  <line x1="126.0000" y1="51.0000" x2="127.0000" y2="51.0000"/>
  <line x1="128.5000" y1="51.0000" x2="129.5000" y2="51.0000"/>
  <line x1="131.0000" y1="51.0000" x2="132.0000" y2="51.0000"/>
  <line x1="133.5000" y1="51.0000" x2="134.5000" y2="51.0000"/>
  <line x1="136.0000" y1="51.0000" x2="137.0000" y2="51.0000"/>
  <line x1="146.0000" y1="51.0000" x2="147.0000" y2="51.0000"/>
  <line x1="149.0000" y1="51.0000" x2="150.0000" y2="51.0000"/>
  <line x1="152.0000" y1="51.0000" x2="153.0000" y2="51.0000"/>
  <line x1="155.0000" y1="51.0000" x2="156.0000" y2="51.0000"/>
  <line x1="158.0000" y1="51.0000" x2="159.0000" y2="51.0000"/>
  <line x1="161.0000" y1="51.0000" x2="162.0000" y2="51.0000"/>
  <line x1="164.0000" y1="51.0000" x2="165.0000" y2="51.0000"/>
  <line x1="167.0000" y1="51.0000" x2="168.0000" y2="51.0000"/>
  <line x1="170.0000" y1="51.0000" x2="171.0000" y2="51.0000"/>
  <line x1="173.0000" y1="51.0000" x2="174.0000" y2="51.0000"/>
  <line x1="176.0000" y1="51.0000" x2="177.0000" y2="51.0000"/>
  <line x1="186.0000" y1="51.0000" x2="218.0000" y2="51.0000"/>
  <line x1="26.0000" y1="101.0000" x2="28.0000" y2="101.0000"/>
  <line x1="28.5000" y1="101.0000" x2="30.5000" y2="101.0000"/>
  <line x1="31.0000" y1="101.0000" x2="33.0000" y2="101.0000"/>
  <line x1="33.5000" y1="101.0000" x2="35.5000" y2="101.0000"/>
  <line x1="36.0000" y1="101.0000" x2="38.0000" y2="101.0000"/>
  <line x1="38.5000" y1="101.0000" x2="40.5000" y2="101.0000"/>
  <line x1="41.0000" y1="101.0000" x2="43.0000" y2="101.0000"/>
  <line x1="43.5000" y1="101.0000" x2="45.5000" y2="101.0000"/>
  <line x1="46.0000" y1="101.0000" x2="48.0000" y2="101.0000"/>
  <line x1="48.5000" y1="101.0000" x2="50.5000" y2="101.0000"/>
  <line x1="51.0000" y1="101.0000" x2="53.0000" y2="101.0000"/>
  <line x1="53.5000" y1="101.0000" x2="55.5000" y2="101.0000"/>
  <line x1="56.0000" y1="101.0000" x2="58.0000" y2="101.0000"/>
  <line x1="66.0000" y1="101.0000" x2="68.0000" y2="101.0000"/>
  <line x1="69.0000" y1="101.0000" x2="71.0000" y2="101.0000"/>
  <line x1="72.0000" y1="101.0000" x2="74.0000" y2="101.0000"/>
  <line x1="75.0000" y1="101.0000" x2="77.0000" y2="101.0000"/>
  <line x1="78.0000" y1="101.0000" x2="80.0000" y2="101.0000"/>
  <line x1="81.0000" y1="101.0000" x2="83.0000" y2="101.0000"/>
  <line x1="84.0000" y1="101.0000" x2="86.0000" y2="101.0000"/>
  <line x1="87.0000" y1="101.0000" x2="89.0000" y2="101.0000"/>
  <line x1="90.0000" y1="101.0000" x2="92.0000" y2="101.0000"/>
  <line x1="93.0000" y1="101.0000" x2="95.0000" y2="101.0000"/>
  <line x1="96.0000" y1="101.0000" x2="98.0000" y2="101.0000"/>
  <line x1="106.0000" y1="101.0000" x2="108.0000" y2="101.0000"/>
  <line x1="109.5000" y1="101.0000" x2="111.5000" y2="101.0000"/>
  <line x1="113.0000" y1="101.0000" x2="115.0000" y2="101.0000"/>
  <line x1="116.5000" y1="101.0000" x2="118.5000" y2="101.0000"/>
  <line x1="120.0000" y1="101.0000" x2="122.0000" y2="101.0000"/>
  <line x1="123.5000" y1="101.0000" x2="125.5000" y2="101.0000"/>
  <line x1="127.0000" y1="101.0000" x2="129.0000" y2="101.0000"/>
  <line x1="130.5000" y1="101.0000" x2="132.5000" y2="101.0000"/>
  <line x1="134.0000" y1="101.0000" x2="136.0000" y2="101.0000"/>
  <line x1="137.5000" y1="101.0000" x2="138.0000" y2="101.0000"/>
  <line x1="146.0000" y1="101.0000" x2="148.0000" y2="101.0000"/>
  <line x1="150.0000" y1="101.0000" x2="152.0000" y2="101.0000"/>
  <line x1="154.0000" y1="101.0000" x2="156.0000" y2="101.0000"/>
  <line x1="158.0000" y1="101.0000" x2="160.0000" y2="101.0000"/>
  <line x1="162.0000" y1="101.0000" x2="164.0000" y2="101.0000"/>
  <line x1="166.0000" y1="101.0000" x2="168.0000" y2="101.0000"/>
  <line x1="170.0000" y1="101.0000" x2="172.0000" y2="101.0000"/>
  <line x1="174.0000" y1="101.0000" x2="176.0000" y2="101.0000"/>
  <line x1="186.0000" y1="101.0000" x2="218.0000" y2="101.0000"/>
  <line x1="26.0000" y1="151.0000" x2="29.0000" y2="151.0000"/>
  <line x1="29.5000" y1="151.0000" x2="32.5000" y2="151.0000"/>
  <line x1="33.0000" y1="151.0000" x2="36.0000" y2="151.0000"/>
  <line x1="36.5000" y1="151.0000" x2="39.5000" y2="151.0000"/>
  <line x1="40.0000" y1="151.0000" x2="43.0000" y2="151.0000"/>
  <line x1="43.5000" y1="151.0000" x2="46.5000" y2="151.0000"/>
  <line x1="47.0000" y1="151.0000" x2="50.0000" y2="151.0000"/>
  <line x1="50.5000" y1="151.0000" x2="53.5000" y2="151.0000"/>
  <line x1="54.0000" y1="151.0000" x2="57.0000" y2="151.0000"/>
  <line x1="57.5000" y1="151.0000" x2="58.0000" y2="151.0000"/>
  <line x1="66.0000" y1="151.0000" x2="69.0000" y2="151.0000"/>
  <line x1="70.0000" y1="151.0000" x2="73.0000" y2="151.0000"/>
  <line x1="74.0000" y1="151.0000" x2="77.0000" y2="151.0000"/>
  <line x1="78.0000" y1="151.0000" x2="81.0000" y2="151.0000"/>
  <line x1="82.0000" y1="151.0000" x2="85.0000" y2="151.0000"/>
  <line x1="86.0000" y1="151.0000" x2="89.0000" y2="151.0000"/>
  <line x1="90.0000" y1="151.0000" x2="93.0000" y2="151.0000"/>
  <line x1="94.0000" y1="151.0000" x2="97.0000" y2="151.0000"/>
  <line x1="106.0000" y1="151.0000" x2="109.0000" y2="151.0000"/>
  <line x1="110.5000" y1="151.0000" x2="113.5000" y2="151.0000"/>
  <line x1="115.0000" y1="151.0000" x2="118.0000" y2="151.0000"/>
  <line x1="119.5000" y1="151.0000" x2="122.5000" y2="151.0000"/>
  <line x1="124.0000" y1="151.0000" x2="127.0000" y2="151.0000"/>
  <line x1="128.5000" y1="151.0000" x2="131.5000" y2="151.0000"/>
  <line x1="133.0000" y1="151.0000" x2="136.0000" y2="151.0000"/>
  <line x1="137.5000" y1="151.0000" x2="138.0000" y2="151.0000"/>
  <line x1="146.0000" y1="151.0000" x2="149.0000" y2="151.0000"/>
  <line x1="151.0000" y1="151.0000" x2="154.0000" y2="151.0000"/>
  <line x1="156.0000" y1="151.0000" x2="159.0000" y2="151.0000"/>
  <line x1="161.0000" y1="151.0000" x2="164.0000" y2="151.0000"/>
  <line x1="166.0000" y1="151.0000" x2="169.0000" y2="151.0000"/>
  <line x1="171.0000" y1="151.0000" x2="174.0000" y2="151.0000"/>
  <line x1="176.0000" y1="151.0000" x2="178.0000" y2="151.0000"/>
  <line x1="186.0000" y1="151.0000" x2="218.0000" y2="151.0000"/>
  <line x1="26.0000" y1="201.0000" x2="31.0000" y2="201.0000"/>
  <line x1="31.5000" y1="201.0000" x2="36.5000" y2="201.0000"/>
  <line x1="37.0000" y1="201.0000" x2="42.0000" y2="201.0000"/>
  <line x1="42.5000" y1="201.0000" x2="47.5000" y2="201.0000"/>
  <line x1="48.0000" y1="201.0000" x2="53.0000" y2="201.0000"/>
  <line x1="53.5000" y1="201.0000" x2="58.0000" y2="201.0000"/>
  <line x1="66.0000" y1="201.0000" x2="71.0000" y2="201.0000"/>
  <line x1="72.0000" y1="201.0000" x2="77.0000" y2="201.0000"/>
  <line x1="78.0000" y1="201.0000" x2="83.0000" y2="201.0000"/>
  <line x1="84.0000" y1="201.0000" x2="89.0000" y2="201.0000"/>
  <line x1="90.0000" y1="201.0000" x2="95.0000" y2="201.0000"/>
  <line x1="96.0000" y1="201.0000" x2="98.0000" y2="201.0000"/>
  <line x1="106.0000" y1="201.0000" x2="111.0000" y2="201.0000"/>
  <line x1="112.5000" y1="201.0000" x2="117.5000" y2="201.0000"/>
  <line x1="119.0000" y1="201.0000" x2="124.0000" y2="201.0000"/>
  <line x1="125.5000" y1="201.0000" x2="130.5000" y2="201.0000"/>
  <line x1="132.0000" y1="201.0000" x2="137.0000" y2="201.0000"/>
  <line x1="146.0000" y1="201.0000" x2="151.0000" y2="201.0000"/>
  <line x1="153.0000" y1="201.0000" x2="158.0000" y2="201.0000"/>
  <line x1="160.0000" y1="201.0000" x2="165.0000" y2="201.0000"/>
  <line x1="167.0000" y1="201.0000" x2="172.0000" y2="201.0000"/>
  <line x1="174.0000" y1="201.0000" x2="178.0000" y2="201.0000"/>
  <line x1="186.0000" y1="201.0000" x2="218.0000" y2="201.0000"/>
</g>
<g id="labels" fill="#ff9500" font-size="4.000" font-family="sans-serif">
  <text x="26.000" y="15.500" text-anchor="middle">FOLD / SCORE TEST  -  3.17 mm stock  -  rows=dash(mm)  cols=gap(mm)</text>
  <text x="42.000" y="27.500" text-anchor="middle">gap 0.5</text>
  <text x="82.000" y="27.500" text-anchor="middle">gap 1</text>
  <text x="122.000" y="27.500" text-anchor="middle">gap 1.5</text>
  <text x="162.000" y="27.500" text-anchor="middle">gap 2</text>
  <text x="202.000" y="27.500" text-anchor="middle">score</text>
  <text x="18.000" y="51.000" text-anchor="middle">dash 1</text>
  <text x="42.000" y="63.600" text-anchor="middle">1/0.5</text>
  <text x="82.000" y="63.600" text-anchor="middle">1/1</text>
  <text x="122.000" y="63.600" text-anchor="middle">1/1.5</text>
  <text x="162.000" y="63.600" text-anchor="middle">1/2</text>
  <text x="202.000" y="63.600" text-anchor="middle">score</text>
  <text x="18.000" y="101.000" text-anchor="middle">dash 2</text>
  <text x="42.000" y="113.600" text-anchor="middle">2/0.5</text>
  <text x="82.000" y="113.600" text-anchor="middle">2/1</text>
  <text x="122.000" y="113.600" text-anchor="middle">2/1.5</text>
  <text x="162.000" y="113.600" text-anchor="middle">2/2</text>
  <text x="202.000" y="113.600" text-anchor="middle">score</text>
  <text x="18.000" y="151.000" text-anchor="middle">dash 3</text>
  <text x="42.000" y="163.600" text-anchor="middle">3/0.5</text>
  <text x="82.000" y="163.600" text-anchor="middle">3/1</text>
  <text x="122.000" y="163.600" text-anchor="middle">3/1.5</text>
  <text x="162.000" y="163.600" text-anchor="middle">3/2</text>
  <text x="202.000" y="163.600" text-anchor="middle">score</text>
  <text x="18.000" y="201.000" text-anchor="middle">dash 5</text>
  <text x="42.000" y="213.600" text-anchor="middle">5/0.5</text>
  <text x="82.000" y="213.600" text-anchor="middle">5/1</text>
  <text x="122.000" y="213.600" text-anchor="middle">5/1.5</text>
  <text x="162.000" y="213.600" text-anchor="middle">5/2</text>
  <text x="202.000" y="213.600" text-anchor="middle">score</text>
</g>
</svg>