0
SECTION
2
ENTITIES
0
POLYLINE
8
CUT
66
1
70
1
0
VERTEX
8
CUT
10
-0.07698
20
160.19078
30
0.0
0
VERTEX
8
CUT
10
16.48820
20
119.51172
30
0.0
0
VERTEX
8
CUT
10
8.09464
20
56.79929
30
0.0
0
VERTEX
8
CUT
10
80.01643
20
47.17313
30
0.0
0
VERTEX
8
CUT
10
80.01280
20
47.15219
30
0.0
0
VERTEX
8
CUT
10
95.45436
20
43.86429
30
0.0
0
VERTEX
8
CUT
10
110.83077
20
39.21359
30
0.0
0
VERTEX
8
CUT
10
125.76327
20
33.29042
30
0.0
0
VERTEX
8
CUT
10
137.23862
20
27.58289
30
0.0
0
VERTEX
8
CUT
10
137.16458
20
27.40948
30
0.0
0
VERTEX
8
CUT
10
152.29212
20
20.95024
30
0.0
0
VERTEX
8
CUT
10
154.69814
20
20.04788
30
0.0
0
VERTEX
8
CUT
10
157.10211
20
19.14488
30
0.0
0
VERTEX
8
CUT
10
159.50561
20
18.24068
30
0.0
0
VERTEX
8
CUT
10
161.90866
20
17.33529
30
0.0
0
VERTEX
8
CUT
10
164.31127
20
16.42873
30
0.0
0
VERTEX
8
CUT
10
166.71343
20
15.52101
30
0.0
0
VERTEX
8
CUT
10
169.11517
20
14.61215
30
0.0
0
VERTEX
8
CUT
10
171.51648
20
13.70218
30
0.0
0
VERTEX
8
CUT
10
173.91737
20
12.79110
30
0.0
0
VERTEX
8
CUT
10
176.31784
20
11.87894
30
0.0
0
VERTEX
8
CUT
10
178.71791
20
10.96571
30
0.0
0
VERTEX
8
CUT
10
181.11758
20
10.05143
30
0.0
0
VERTEX
8
CUT
10
183.51686
20
9.13612
30
0.0
0
VERTEX
8
CUT
10
185.91575
20
8.21979
30
0.0
0
VERTEX
8
CUT
10
188.31426
20
7.30247
30
0.0
0
VERTEX
8
CUT
10
190.71240
20
6.38416
30
0.0
0
VERTEX
8
CUT
10
193.11018
20
5.46489
30
0.0
0
VERTEX
8
CUT
10
195.50759
20
4.54468
30
0.0
0
VERTEX
8
CUT
10
197.90465
20
3.62354
30
0.0
0
VERTEX
8
CUT
10
200.30136
20
2.70149
30
0.0
0
VERTEX
8
CUT
10
202.69774
20
1.77854
30
0.0
0
VERTEX
8
CUT
10
205.09378
20
0.85472
30
0.0
0
VERTEX
8
CUT
10
207.55705
20
-0.09604
30
0.0
0
VERTEX
8
CUT
10
242.41340
20
81.53762
30
0.0
0
VERTEX
8
CUT
10
278.60992
20
110.75616
30
0.0
0
VERTEX
8
CUT
10
341.57927
20
258.23054
30
0.0
0
VERTEX
8
CUT
10
316.38313
20
268.98879
30
0.0
0
VERTEX
8
CUT
10
318.27878
20
271.63170
30
0.0
0
VERTEX
8
CUT
10
305.69121
20
277.00635
30
0.0
0
VERTEX
8
CUT
10
305.09332
20
273.80932
30
0.0
0
VERTEX
8
CUT
10
285.61106
20
282.12787
30
0.0
0
VERTEX
8
CUT
10
287.50671
20
284.77077
30
0.0
0
VERTEX
8
CUT
10
274.91913
20
290.14542
30
0.0
0
VERTEX
8
CUT
10
274.32125
20
286.94839
30
0.0
0
VERTEX
8
CUT
10
252.04506
20
296.45989
30
0.0
0
VERTEX
8
CUT
10
211.52244
20
201.55581
30
0.0
0
VERTEX
8
CUT
10
200.74869
20
201.55581
30
0.0
0
VERTEX
8
CUT
10
196.54869
20
205.75581
30
0.0
0
VERTEX
8
CUT
10
186.95336
20
205.75581
30
0.0
0
VERTEX
8
CUT
10
182.75336
20
201.55581
30
0.0
0
VERTEX
8
CUT
10
178.61549
20
201.55581
30
0.0
0
VERTEX
8
CUT
10
174.41549
20
205.75581
30
0.0
0
VERTEX
8
CUT
10
164.82016
20
205.75581
30
0.0
0
VERTEX
8
CUT
10
160.62016
20
201.55581
30
0.0
0
VERTEX
8
CUT
10
156.48230
20
201.55581
30
0.0
0
VERTEX
8
CUT
10
152.28230
20
205.75581
30
0.0
0
VERTEX
8
CUT
10
136.82016
20
205.75581
30
0.0
0
VERTEX
8
CUT
10
132.62016
20
201.55581
30
0.0
0
VERTEX
8
CUT
10
128.48230
20
201.55581
30
0.0
0
VERTEX
8
CUT
10
124.28230
20
205.75581
30
0.0
0
VERTEX
8
CUT
10
118.87078
20
205.75581
30
0.0
0
VERTEX
8
CUT
10
114.67078
20
201.55581
30
0.0
0
VERTEX
8
CUT
10
100.39888
20
201.55581
30
0.0
0
VERTEX
8
CUT
10
100.39887
20
201.55567
30
0.0
0
VERTEX
8
CUT
10
7.13016
20
214.03890
30
0.0
0
VERTEX
8
CUT
10
-0.07698
20
160.19078
30
0.0
0
SEQEND
0
POLYLINE
8
CUT
66
1
70
1
0
VERTEX
8
CUT
10
33.54114
20
203.99649
30
0.0
0
VERTEX
8
CUT
10
45.48464
20
202.39796
30
0.0
0
VERTEX
8
CUT
10
45.91246
20
205.59446
30
0.0
0
VERTEX
8
CUT
10
33.96896
20
207.19299
30
0.0
0
VERTEX
8
CUT
10
33.54114
20
203.99649
30
0.0
0
SEQEND
0
POLYLINE
8
CUT
66
1
70
1
0
VERTEX
8
CUT
10
66.70518
20
199.55777
30
0.0
0
VERTEX
8
CUT
10
78.64868
20
197.95923
30
0.0
0
VERTEX
8
CUT
10
79.07650
20
201.15573
30
0.0
0
VERTEX
8
CUT
10
67.13300
20
202.75427
30
0.0
0
VERTEX
8
CUT
10
66.70518
20
199.55777
30
0.0
0
SEQEND
0
LINE
8
SCORE
10
212.10433
20
202.72759
30
0.0
11
210.14090
21
198.12923
31
0.0
0
LINE
8
SCORE
10
208.17746
20
193.53087
30
0.0
11
206.21403
21
188.93251
31
0.0
0
LINE
8
SCORE
10
204.25060
20
184.33414
30
0.0
11
202.28717
21
179.73578
31
0.0
0
LINE
8
SCORE
10
200.32374
20
175.13742
30
0.0
11
198.36031
21
170.53906
31
0.0
0
LINE
8
SCORE
10
196.39687
20
165.94070
30
0.0
11
194.43344
21
161.34233
31
0.0
0
LINE
8
SCORE
10
192.47001
20
156.74397
30
0.0
11
190.50658
21
152.14561
31
0.0
0
LINE
8
SCORE
10
188.54315
20
147.54725
30
0.0
11
186.57972
21
142.94888
31
0.0
0
LINE
8
SCORE
10
184.61628
20
138.35052
30
0.0
11
182.65285
21
133.75216
31
0.0
0
LINE
8
SCORE
10
180.68942
20
129.15380
30
0.0
11
178.72599
21
124.55543
31
0.0
0
LINE
8
SCORE
10
176.76256
20
119.95707
30
0.0
11
174.79913
21
115.35871
31
0.0
0
LINE
8
SCORE
10
172.83570
20
110.76035
30
0.0
11
170.87226
21
106.16198
31
0.0
0
LINE
8
SCORE
10
168.90883
20
101.56362
30
0.0
11
166.94540
21
96.96526
31
0.0
0
LINE
8
SCORE
10
164.98197
20
92.36690
30
0.0
11
163.01854
21
87.76853
31
0.0
0
LINE
8
SCORE
10
161.05511
20
83.17017
30
0.0
11
159.09167
21
78.57181
31
0.0
0
LINE
8
SCORE
10
157.12824
20
73.97345
30
0.0
11
155.16481
21
69.37509
31
0.0
0
LINE
8
SCORE
10
153.20138
20
64.77672
30
0.0
11
151.23795
21
60.17836
31
0.0
0
LINE
8
SCORE
10
149.27452
20
55.58000
30
0.0
11
147.31108
21
50.98164
31
0.0
0
LINE
8
SCORE
10
145.34765
20
46.38327
30
0.0
11
143.38422
21
41.78491
31
0.0
0
LINE
8
SCORE
10
141.42079
20
37.18655
30
0.0
11
139.45736
21
32.58819
31
0.0
0
LINE
8
SCORE
10
137.49393
20
27.98982
30
0.0
11
137.26300
21
27.44900
31
0.0
0
LINE
8
SCORE
10
103.53974
20
201.05962
30
0.0
11
102.87644
21
196.10382
31
0.0
0
LINE
8
SCORE
10
102.21315
20
191.14801
30
0.0
11
101.54985
21
186.19220
31
0.0
0
LINE
8
SCORE
10
100.88656
20
181.23639
30
0.0
11
100.22326
21
176.28058
31
0.0
0
LINE
8
SCORE
10
99.55997
20
171.32477
30
0.0
11
98.89667
21
166.36896
31
0.0
0
LINE
8
SCORE
10
98.23337
20
161.41316
30
0.0
11
97.57008
21
156.45735
31
0.0
0
LINE
8
SCORE
10
96.90678
20
151.50154
30
0.0
11
96.24349
21
146.54573
31
0.0
0
LINE
8
SCORE
10
95.58019
20
141.58992
30
0.0
11
94.91690
21
136.63411
31
0.0
0
LINE
8
SCORE
10
94.25360
20
131.67830
30
0.0
11
93.59031
21
126.72249
31
0.0
0
LINE
8
SCORE
10
92.92701
20
121.76669
30
0.0
11
92.26371
21
116.81088
31
0.0
0
LINE
8
SCORE
10
91.60042
20
111.85507
30
0.0
11
90.93712
21
106.89926
31
0.0
0
LINE
8
SCORE
10
90.27383
20
101.94345
30
0.0
11
89.61053
21
96.98764
31
0.0
0
LINE
8
SCORE
10
88.94724
20
92.03183
30
0.0
11
88.28394
21
87.07603
31
0.0
0
LINE
8
SCORE
10
87.62065
20
82.12022
30
0.0
11
86.95735
21
77.16441
31
0.0
0
LINE
8
SCORE
10
86.29405
20
72.20860
30
0.0
11
85.63076
21
67.25279
31
0.0
0
LINE
8
SCORE
10
84.96746
20
62.29698
30
0.0
11
84.30417
21
57.34117
31
0.0
0
LINE
8
SCORE
10
83.64087
20
52.38537
30
0.0
11
82.97758
21
47.42956
31
0.0
0
LINE
8
SCORE
10
299.61240
20
160.13502
30
0.0
11
295.01404
21
162.09845
31
0.0
0
LINE
8
SCORE
10
290.41568
20
164.06188
30
0.0
11
285.81732
21
166.02531
31
0.0
0
LINE
8
SCORE
10
281.21896
20
167.98875
30
0.0
11
276.62059
21
169.95218
31
0.0
0
LINE
8
SCORE
10
272.02223
20
171.91561
30
0.0
11
267.42387
21
173.87904
31
0.0
0
LINE
8
SCORE
10
262.82551
20
175.84247
30
0.0
11
258.22714
21
177.80590
31
0.0
0
LINE
8
SCORE
10
253.62878
20
179.76934
30
0.0
11
249.03042
21
181.73277
31
0.0
0
LINE
8
SCORE
10
244.43206
20
183.69620
30
0.0
11
239.83369
21
185.65963
31
0.0
0
LINE
8
SCORE
10
235.23533
20
187.62306
30
0.0
11
230.63697
21
189.58649
31
0.0
0
LINE
8
SCORE
10
226.03861
20
191.54993
30
0.0
11
221.44024
21
193.51336
31
0.0
0
LINE
8
SCORE
10
216.84188
20
195.47679
30
0.0
11
212.24352
21
197.44022
31
0.0
0
LINE
8
SCORE
10
207.64516
20
199.40365
30
0.0
11
207.29633
21
199.55259
31
0.0
0
LINE
8
SCORE2
10
212.10433
20
202.72759
30
0.0
11
137.26300
21
27.44900
31
0.0
0
LINE
8
SCORE2
10
103.53974
20
201.05962
30
0.0
11
82.90170
21
46.86262
31
0.0
0
LINE
8
SCORE2
10
299.61240
20
160.13502
30
0.0
11
207.29633
21
199.55259
31
0.0
0
ENDSEC
0
EOF
