0
SECTION
2
ENTITIES
0
POLYLINE
8
CUT
66
1
70
1
0
VERTEX
8
CUT
10
-0.08429
20
252.53712
30
0.0
0
VERTEX
8
CUT
10
13.46689
20
151.29300
30
0.0
0
VERTEX
8
CUT
10
20.66408
20
97.51922
30
0.0
0
VERTEX
8
CUT
10
47.34373
20
62.62814
30
0.0
0
VERTEX
8
CUT
10
55.73729
20
-0.08429
30
0.0
0
VERTEX
8
CUT
10
133.68106
20
10.34786
30
0.0
0
VERTEX
8
CUT
10
149.62116
20
12.36499
30
0.0
0
VERTEX
8
CUT
10
165.67137
20
13.03883
30
0.0
0
VERTEX
8
CUT
10
181.72158
20
12.36499
30
0.0
0
VERTEX
8
CUT
10
197.66169
20
10.34786
30
0.0
0
VERTEX
8
CUT
10
275.60546
20
-0.08429
30
0.0
0
VERTEX
8
CUT
10
283.99902
20
62.62814
30
0.0
0
VERTEX
8
CUT
10
310.67867
20
97.51922
30
0.0
0
VERTEX
8
CUT
10
317.88581
20
151.36734
30
0.0
0
VERTEX
8
CUT
10
218.31441
20
164.69423
30
0.0
0
VERTEX
8
CUT
10
205.15572
20
164.69423
30
0.0
0
VERTEX
8
CUT
10
200.95572
20
168.89423
30
0.0
0
VERTEX
8
CUT
10
185.94031
20
168.89423
30
0.0
0
VERTEX
8
CUT
10
181.74031
20
164.69423
30
0.0
0
VERTEX
8
CUT
10
177.60244
20
164.69423
30
0.0
0
VERTEX
8
CUT
10
173.40244
20
168.89423
30
0.0
0
VERTEX
8
CUT
10
157.94031
20
168.89423
30
0.0
0
VERTEX
8
CUT
10
153.74031
20
164.69423
30
0.0
0
VERTEX
8
CUT
10
149.60244
20
164.69423
30
0.0
0
VERTEX
8
CUT
10
145.40244
20
168.89423
30
0.0
0
VERTEX
8
CUT
10
130.38703
20
168.89423
30
0.0
0
VERTEX
8
CUT
10
126.18703
20
164.69423
30
0.0
0
VERTEX
8
CUT
10
113.09896
20
164.69423
30
0.0
0
VERTEX
8
CUT
10
111.34858
20
177.77174
30
0.0
0
VERTEX
8
CUT
10
109.56449
20
177.53295
30
0.0
0
VERTEX
8
CUT
10
106.48626
20
200.53113
30
0.0
0
VERTEX
8
CUT
10
108.27035
20
200.76993
30
0.0
0
VERTEX
8
CUT
10
107.69327
20
205.08148
30
0.0
0
VERTEX
8
CUT
10
105.90918
20
204.84268
30
0.0
0
VERTEX
8
CUT
10
102.77169
20
228.28365
30
0.0
0
VERTEX
8
CUT
10
104.55578
20
228.52244
30
0.0
0
VERTEX
8
CUT
10
103.97869
20
232.83399
30
0.0
0
VERTEX
8
CUT
10
102.19460
20
232.59520
30
0.0
0
VERTEX
8
CUT
10
99.11637
20
255.59338
30
0.0
0
VERTEX
8
CUT
10
100.90046
20
255.83218
30
0.0
0
VERTEX
8
CUT
10
99.55639
20
265.87408
30
0.0
0
VERTEX
8
CUT
10
72.40175
20
262.23942
30
0.0
0
VERTEX
8
CUT
10
72.67985
20
265.47995
30
0.0
0
VERTEX
8
CUT
10
59.11384
20
263.66414
30
0.0
0
VERTEX
8
CUT
10
60.23438
20
260.61081
30
0.0
0
VERTEX
8
CUT
10
39.23775
20
257.80040
30
0.0
0
VERTEX
8
CUT
10
39.51585
20
261.04093
30
0.0
0
VERTEX
8
CUT
10
25.94984
20
259.22512
30
0.0
0
VERTEX
8
CUT
10
27.07038
20
256.17179
30
0.0
0
VERTEX
8
CUT
10
-0.08429
20
252.53712
30
0.0
0
SEQEND
0
POLYLINE
8
CUT
66
1
70
1
0
VERTEX
8
CUT
10
244.65600
20
154.66109
30
0.0
0
VERTEX
8
CUT
10
256.59949
20
153.06254
30
0.0
0
VERTEX
8
CUT
10
257.02732
20
156.25904
30
0.0
0
VERTEX
8
CUT
10
245.08382
20
157.85758
30
0.0
0
VERTEX
8
CUT
10
244.65600
20
154.66109
30
0.0
0
SEQEND
0
POLYLINE
8
CUT
66
1
70
1
0
VERTEX
8
CUT
10
277.82003
20
150.22233
30
0.0
0
VERTEX
8
CUT
10
289.76353
20
148.62378
30
0.0
0
VERTEX
8
CUT
10
290.19136
20
151.82028
30
0.0
0
VERTEX
8
CUT
10
278.24786
20
153.41882
30
0.0
0
VERTEX
8
CUT
10
277.82003
20
150.22233
30
0.0
0
SEQEND
0
LINE
8
SCORE
10
113.03333
20
164.61923
30
0.0
11
113.69663
21
159.66342
31
0.0
0
LINE
8
SCORE
10
114.35992
20
154.70761
30
0.0
11
115.02322
21
149.75180
31
0.0
0
LINE
8
SCORE
10
115.68651
20
144.79599
30
0.0
11
116.34981
21
139.84019
31
0.0
0
LINE
8
SCORE
10
117.01311
20
134.88438
30
0.0
11
117.67640
21
129.92857
31
0.0
0
LINE
8
SCORE
10
118.33970
20
124.97276
30
0.0
11
119.00299
21
120.01695
31
0.0
0
LINE
8
SCORE
10
119.66629
20
115.06114
30
0.0
11
120.32958
21
110.10533
31
0.0
0
LINE
8
SCORE
10
120.99288
20
105.14953
30
0.0
11
121.65617
21
100.19372
31
0.0
0
LINE
8
SCORE
10
122.31947
20
95.23791
30
0.0
11
122.98277
21
90.28210
31
0.0
0
LINE
8
SCORE
10
123.64606
20
85.32629
30
0.0
11
124.30936
21
80.37048
31
0.0
0
LINE
8
SCORE
10
124.97265
20
75.41467
30
0.0
11
125.63595
21
70.45886
31
0.0
0
LINE
8
SCORE
10
126.29924
20
65.50306
30
0.0
11
126.96254
21
60.54725
31
0.0
0
LINE
8
SCORE
10
127.62583
20
55.59144
30
0.0
11
128.28913
21
50.63563
31
0.0
0
LINE
8
SCORE
10
128.95243
20
45.67982
30
0.0
11
129.61572
21
40.72401
31
0.0
0
LINE
8
SCORE
10
130.27902
20
35.76820
30
0.0
11
130.94231
21
30.81240
31
0.0
0
LINE
8
SCORE
10
131.60561
20
25.85659
30
0.0
11
132.26890
21
20.90078
31
0.0
0
LINE
8
SCORE
10
132.93220
20
15.94497
30
0.0
11
133.59549
21
10.98916
31
0.0
0
LINE
8
SCORE
10
218.30942
20
164.61923
30
0.0
11
217.64612
21
159.66342
31
0.0
0
LINE
8
SCORE
10
216.98282
20
154.70761
30
0.0
11
216.31953
21
149.75180
31
0.0
0
LINE
8
SCORE
10
215.65623
20
144.79599
30
0.0
11
214.99294
21
139.84019
31
0.0
0
LINE
8
SCORE
10
214.32964
20
134.88438
30
0.0
11
213.66635
21
129.92857
31
0.0
0
LINE
8
SCORE
10
213.00305
20
124.97276
30
0.0
11
212.33976
21
120.01695
31
0.0
0
LINE
8
SCORE
10
211.67646
20
115.06114
30
0.0
11
211.01316
21
110.10533
31
0.0
0
LINE
8
SCORE
10
210.34987
20
105.14953
30
0.0
11
209.68657
21
100.19372
31
0.0
0
LINE
8
SCORE
10
209.02328
20
95.23791
30
0.0
11
208.35998
21
90.28210
31
0.0
0
LINE
8
SCORE
10
207.69669
20
85.32629
30
0.0
11
207.03339
21
80.37048
31
0.0
0
LINE
8
SCORE
10
206.37010
20
75.41467
30
0.0
11
205.70680
21
70.45886
31
0.0
0
LINE
8
SCORE
10
205.04350
20
65.50306
30
0.0
11
204.38021
21
60.54725
31
0.0
0
LINE
8
SCORE
10
203.71691
20
55.59144
30
0.0
11
203.05362
21
50.63563
31
0.0
0
LINE
8
SCORE
10
202.39032
20
45.67982
30
0.0
11
201.72703
21
40.72401
31
0.0
0
LINE
8
SCORE
10
201.06373
20
35.76820
30
0.0
11
200.40044
21
30.81240
31
0.0
0
LINE
8
SCORE
10
199.73714
20
25.85659
30
0.0
11
199.07384
21
20.90078
31
0.0
0
LINE
8
SCORE
10
198.41055
20
15.94497
30
0.0
11
197.74725
21
10.98916
31
0.0
0
LINE
8
SCORE
10
113.03333
20
164.61923
30
0.0
11
108.07752
21
163.95593
31
0.0
0
LINE
8
SCORE
10
103.12172
20
163.29263
30
0.0
11
98.16591
21
162.62933
31
0.0
0
LINE
8
SCORE
10
93.21010
20
161.96604
30
0.0
11
88.25429
21
161.30274
31
0.0
0
LINE
8
SCORE
10
83.29848
20
160.63944
30
0.0
11
78.34267
21
159.97614
31
0.0
0
LINE
8
SCORE
10
73.38687
20
159.31284
30
0.0
11
68.43106
21
158.64955
31
0.0
0
LINE
8
SCORE
10
63.47525
20
157.98625
30
0.0
11
58.51944
21
157.32295
31
0.0
0
LINE
8
SCORE
10
53.56363
20
156.65965
30
0.0
11
48.60783
21
155.99635
31
0.0
0
LINE
8
SCORE
10
43.65202
20
155.33305
30
0.0
11
38.69621
21
154.66976
31
0.0
0
LINE
8
SCORE
10
33.74040
20
154.00646
30
0.0
11
28.78459
21
153.34316
31
0.0
0
LINE
8
SCORE
10
23.82878
20
152.67986
30
0.0
11
18.87298
21
152.01656
31
0.0
0
LINE
8
SCORE
10
13.91717
20
151.35327
30
0.0
11
13.54123
21
151.30295
31
0.0
0
LINE
8
SCORE2
10
113.03333
20
164.61923
30
0.0
11
133.67137
21
10.42223
31
0.0
0
LINE
8
SCORE2
10
218.30942
20
164.61923
30
0.0
11
197.67137
21
10.42223
31
0.0
0
LINE
8
SCORE2
10
113.03333
20
164.61923
30
0.0
11
13.54123
21
151.30295
31
0.0
0
ENDSEC
0
EOF
