0
SECTION
2
ENTITIES
0
POLYLINE
8
CUT
66
1
70
1
0
VERTEX
8
CUT
10
-0.08429
20
252.53712
30
0.0
0
VERTEX
8
CUT
10
13.46689
20
151.29300
30
0.0
0
VERTEX
8
CUT
10
20.66408
20
97.51922
30
0.0
0
VERTEX
8
CUT
10
47.34373
20
62.62814
30
0.0
0
VERTEX
8
CUT
10
55.73729
20
-0.08429
30
0.0
0
VERTEX
8
CUT
10
133.68106
20
10.34786
30
0.0
0
VERTEX
8
CUT
10
149.62116
20
12.36499
30
0.0
0
VERTEX
8
CUT
10
165.67137
20
13.03883
30
0.0
0
VERTEX
8
CUT
10
181.72158
20
12.36499
30
0.0
0
VERTEX
8
CUT
10
197.66169
20
10.34786
30
0.0
0
VERTEX
8
CUT
10
275.60546
20
-0.08429
30
0.0
0
VERTEX
8
CUT
10
283.99902
20
62.62814
30
0.0
0
VERTEX
8
CUT
10
310.67867
20
97.51922
30
0.0
0
VERTEX
8
CUT
10
317.88581
20
151.36734
30
0.0
0
VERTEX
8
CUT
10
218.31441
20
164.69423
30
0.0
0
VERTEX
8
CUT
10
205.15572
20
164.69423
30
0.0
0
VERTEX
8
CUT
10
200.95572
20
168.89423
30
0.0
0
VERTEX
8
CUT
10
185.94031
20
168.89423
30
0.0
0
VERTEX
8
CUT
10
181.74031
20
164.69423
30
0.0
0
VERTEX
8
CUT
10
177.60244
20
164.69423
30
0.0
0
VERTEX
8
CUT
10
173.40244
20
168.89423
30
0.0
0
VERTEX
8
CUT
10
157.94031
20
168.89423
30
0.0
0
VERTEX
8
CUT
10
153.74031
20
164.69423
30
0.0
0
VERTEX
8
CUT
10
149.60244
20
164.69423
30
0.0
0
VERTEX
8
CUT
10
145.40244
20
168.89423
30
0.0
0
VERTEX
8
CUT
10
130.38703
20
168.89423
30
0.0
0
VERTEX
8
CUT
10
126.18703
20
164.69423
30
0.0
0
VERTEX
8
CUT
10
113.09896
20
164.69423
30
0.0
0
VERTEX
8
CUT
10
111.34858
20
177.77174
30
0.0
0
VERTEX
8
CUT
10
109.56449
20
177.53295
30
0.0
0
VERTEX
8
CUT
10
106.48626
20
200.53113
30
0.0
0
VERTEX
8
CUT
10
108.27035
20
200.76993
30
0.0
0
VERTEX
8
CUT
10
107.69327
20
205.08148
30
0.0
0
VERTEX
8
CUT
10
105.90918
20
204.84268
30
0.0
0
VERTEX
8
CUT
10
102.77169
20
228.28365
30
0.0
0
VERTEX
8
CUT
10
104.55578
20
228.52244
30
0.0
0
VERTEX
8
CUT
10
103.97869
20
232.83399
30
0.0
0
VERTEX
8
CUT
10
102.19460
20
232.59520
30
0.0
0
VERTEX
8
CUT
10
99.11637
20
255.59338
30
0.0
0
VERTEX
8
CUT
10
100.90046
20
255.83218
30
0.0
0
VERTEX
8
CUT
10
99.55639
20
265.87408
30
0.0
0
VERTEX
8
CUT
10
72.38899
20
262.23771
30
0.0
0
VERTEX
8
CUT
10
72.52722
20
265.45953
30
0.0
0
VERTEX
8
CUT
10
59.26647
20
263.68457
30
0.0
0
VERTEX
8
CUT
10
60.24714
20
260.61251
30
0.0
0
VERTEX
8
CUT
10
39.22499
20
257.79869
30
0.0
0
VERTEX
8
CUT
10
39.36322
20
261.02051
30
0.0
0
VERTEX
8
CUT
10
26.10247
20
259.24555
30
0.0
0
VERTEX
8
CUT
10
27.08314
20
256.17349
30
0.0
0
VERTEX
8
CUT
10
-0.08429
20
252.53712
30
0.0
0
SEQEND
0
POLYLINE
8
CUT
66
1
70
1
0
VERTEX
8
CUT
10
244.65600
20
154.66109
30
0.0
0
VERTEX
8
CUT
10
256.59949
20
153.06254
30
0.0
0
VERTEX
8
CUT
10
257.02732
20
156.25904
30
0.0
0
VERTEX
8
CUT
10
245.08382
20
157.85758
30
0.0
0
VERTEX
8
CUT
10
244.65600
20
154.66109
30
0.0
0
SEQEND
0
POLYLINE
8
CUT
66
1
70
1
0
VERTEX
8
CUT
10
277.82003
20
150.22233
30
0.0
0
VERTEX
8
CUT
10
289.76353
20
148.62378
30
0.0
0
VERTEX
8
CUT
10
290.19136
20
151.82028
30
0.0
0
VERTEX
8
CUT
10
278.24786
20
153.41882
30
0.0
0
VERTEX
8
CUT
10
277.82003
20
150.22233
30
0.0
0
SEQEND
0
LINE
8
SCORE
10
113.03333
20
164.61923
30
0.0
11
113.43131
21
161.64574
31
0.0
0
LINE
8
SCORE
10
113.82929
20
158.67226
30
0.0
11
114.22726
21
155.69877
31
0.0
0
LINE
8
SCORE
10
114.62524
20
152.72529
30
0.0
11
115.02322
21
149.75180
31
0.0
0
LINE
8
SCORE
10
115.42120
20
146.77832
30
0.0
11
115.81917
21
143.80483
31
0.0
0
LINE
8
SCORE
10
116.21715
20
140.83135
30
0.0
11
116.61513
21
137.85786
31
0.0
0
LINE
8
SCORE
10
117.01311
20
134.88438
30
0.0
11
117.41108
21
131.91089
31
0.0
0
LINE
8
SCORE
10
117.80906
20
128.93741
30
0.0
11
118.20704
21
125.96392
31
0.0
0
LINE
8
SCORE
10
118.60502
20
122.99044
30
0.0
11
119.00299
21
120.01695
31
0.0
0
LINE
8
SCORE
10
119.40097
20
117.04347
30
0.0
11
119.79895
21
114.06998
31
0.0
0
LINE
8
SCORE
10
120.19692
20
111.09650
30
0.0
11
120.59490
21
108.12301
31
0.0
0
LINE
8
SCORE
10
120.99288
20
105.14953
30
0.0
11
121.39086
21
102.17604
31
0.0
0
LINE
8
SCORE
10
121.78883
20
99.20255
30
0.0
11
122.18681
21
96.22907
31
0.0
0
LINE
8
SCORE
10
122.58479
20
93.25558
30
0.0
11
122.98277
21
90.28210
31
0.0
0
LINE
8
SCORE
10
123.38074
20
87.30861
30
0.0
11
123.77872
21
84.33513
31
0.0
0
LINE
8
SCORE
10
124.17670
20
81.36164
30
0.0
11
124.57468
21
78.38816
31
0.0
0
LINE
8
SCORE
10
124.97265
20
75.41467
30
0.0
11
125.37063
21
72.44119
31
0.0
0
LINE
8
SCORE
10
125.76861
20
69.46770
30
0.0
11
126.16658
21
66.49422
31
0.0
0
LINE
8
SCORE
10
126.56456
20
63.52073
30
0.0
11
126.96254
21
60.54725
31
0.0
0
LINE
8
SCORE
10
127.36052
20
57.57376
30
0.0
11
127.75849
21
54.60028
31
0.0
0
LINE
8
SCORE
10
128.15647
20
51.62679
30
0.0
11
128.55445
21
48.65331
31
0.0
0
LINE
8
SCORE
10
128.95243
20
45.67982
30
0.0
11
129.35040
21
42.70634
31
0.0
0
LINE
8
SCORE
10
129.74838
20
39.73285
30
0.0
11
130.14636
21
36.75937
31
0.0
0
LINE
8
SCORE
10
130.54434
20
33.78588
30
0.0
11
130.94231
21
30.81240
31
0.0
0
LINE
8
SCORE
10
131.34029
20
27.83891
30
0.0
11
131.73827
21
24.86543
31
0.0
0
LINE
8
SCORE
10
132.13624
20
21.89194
30
0.0
11
132.53422
21
18.91846
31
0.0
0
LINE
8
SCORE
10
132.93220
20
15.94497
30
0.0
11
133.33018
21
12.97148
31
0.0
0
LINE
8
SCORE
10
218.30942
20
164.61923
30
0.0
11
217.91144
21
161.64574
31
0.0
0
LINE
8
SCORE
10
217.51346
20
158.67226
30
0.0
11
217.11548
21
155.69877
31
0.0
0
LINE
8
SCORE
10
216.71751
20
152.72529
30
0.0
11
216.31953
21
149.75180
31
0.0
0
LINE
8
SCORE
10
215.92155
20
146.77832
30
0.0
11
215.52357
21
143.80483
31
0.0
0
LINE
8
SCORE
10
215.12560
20
140.83135
30
0.0
11
214.72762
21
137.85786
31
0.0
0
LINE
8
SCORE
10
214.32964
20
134.88438
30
0.0
11
213.93166
21
131.91089
31
0.0
0
LINE
8
SCORE
10
213.53369
20
128.93741
30
0.0
11
213.13571
21
125.96392
31
0.0
0
LINE
8
SCORE
10
212.73773
20
122.99044
30
0.0
11
212.33976
21
120.01695
31
0.0
0
LINE
8
SCORE
10
211.94178
20
117.04347
30
0.0
11
211.54380
21
114.06998
31
0.0
0
LINE
8
SCORE
10
211.14582
20
111.09650
30
0.0
11
210.74785
21
108.12301
31
0.0
0
LINE
8
SCORE
10
210.34987
20
105.14953
30
0.0
11
209.95189
21
102.17604
31
0.0
0
LINE
8
SCORE
10
209.55391
20
99.20255
30
0.0
11
209.15594
21
96.22907
31
0.0
0
LINE
8
SCORE
10
208.75796
20
93.25558
30
0.0
11
208.35998
21
90.28210
31
0.0
0
LINE
8
SCORE
10
207.96201
20
87.30861
30
0.0
11
207.56403
21
84.33513
31
0.0
0
LINE
8
SCORE
10
207.16605
20
81.36164
30
0.0
11
206.76807
21
78.38816
31
0.0
0
LINE
8
SCORE
10
206.37010
20
75.41467
30
0.0
11
205.97212
21
72.44119
31
0.0
0
LINE
8
SCORE
10
205.57414
20
69.46770
30
0.0
11
205.17616
21
66.49422
31
0.0
0
LINE
8
SCORE
10
204.77819
20
63.52073
30
0.0
11
204.38021
21
60.54725
31
0.0
0
LINE
8
SCORE
10
203.98223
20
57.57376
30
0.0
11
203.58425
21
54.60028
31
0.0
0
LINE
8
SCORE
10
203.18628
20
51.62679
30
0.0
11
202.78830
21
48.65331
31
0.0
0
LINE
8
SCORE
10
202.39032
20
45.67982
30
0.0
11
201.99235
21
42.70634
31
0.0
0
LINE
8
SCORE
10
201.59437
20
39.73285
30
0.0
11
201.19639
21
36.75937
31
0.0
0
LINE
8
SCORE
10
200.79841
20
33.78588
30
0.0
11
200.40044
21
30.81240
31
0.0
0
LINE
8
SCORE
10
200.00246
20
27.83891
30
0.0
11
199.60448
21
24.86543
31
0.0
0
LINE
8
SCORE
10
199.20650
20
21.89194
30
0.0
11
198.80853
21
18.91846
31
0.0
0
LINE
8
SCORE
10
198.41055
20
15.94497
30
0.0
11
198.01257
21
12.97148
31
0.0
0
LINE
8
SCORE
10
113.03333
20
164.61923
30
0.0
11
110.05985
21
164.22125
31
0.0
0
LINE
8
SCORE
10
107.08636
20
163.82327
30
0.0
11
104.11288
21
163.42529
31
0.0
0
LINE
8
SCORE
10
101.13939
20
163.02731
30
0.0
11
98.16591
21
162.62933
31
0.0
0
LINE
8
SCORE
10
95.19242
20
162.23136
30
0.0
11
92.21894
21
161.83338
31
0.0
0
LINE
8
SCORE
10
89.24545
20
161.43540
30
0.0
11
86.27197
21
161.03742
31
0.0
0
LINE
8
SCORE
10
83.29848
20
160.63944
30
0.0
11
80.32500
21
160.24146
31
0.0
0
LINE
8
SCORE
10
77.35151
20
159.84348
30
0.0
11
74.37803
21
159.44550
31
0.0
0
LINE
8
SCORE
10
71.40454
20
159.04752
30
0.0
11
68.43106
21
158.64955
31
0.0
0
LINE
8
SCORE
10
65.45757
20
158.25157
30
0.0
11
62.48409
21
157.85359
31
0.0
0
LINE
8
SCORE
10
59.51060
20
157.45561
30
0.0
11
56.53712
21
157.05763
31
0.0
0
LINE
8
SCORE
10
53.56363
20
156.65965
30
0.0
11
50.59015
21
156.26167
31
0.0
0
LINE
8
SCORE
10
47.61666
20
155.86369
30
0.0
11
44.64318
21
155.46571
31
0.0
0
LINE
8
SCORE
10
41.66969
20
155.06774
30
0.0
11
38.69621
21
154.66976
31
0.0
0
LINE
8
SCORE
10
35.72272
20
154.27178
30
0.0
11
32.74924
21
153.87380
31
0.0
0
LINE
8
SCORE
10
29.77575
20
153.47582
30
0.0
11
26.80227
21
153.07784
31
0.0
0
LINE
8
SCORE
10
23.82878
20
152.67986
30
0.0
11
20.85530
21
152.28188
31
0.0
0
LINE
8
SCORE
10
17.88181
20
151.88390
30
0.0
11
14.90833
21
151.48593
31
0.0
0
LINE
8
SCORE2
10
113.03333
20
164.61923
30
0.0
11
133.67137
21
10.42223
31
0.0
0
LINE
8
SCORE2
10
218.30942
20
164.61923
30
0.0
11
197.67137
21
10.42223
31
0.0
0
LINE
8
SCORE2
10
113.03333
20
164.61923
30
0.0
11
13.54123
21
151.30295
31
0.0
0
ENDSEC
0
EOF
