0
SECTION
2
ENTITIES
0
POLYLINE
8
CUT
66
1
70
1
0
VERTEX
8
CUT
10
-0.09843
20
162.79632
30
0.0
0
VERTEX
8
CUT
10
22.12194
20
110.75616
30
0.0
0
VERTEX
8
CUT
10
58.31847
20
81.53762
30
0.0
0
VERTEX
8
CUT
10
93.17481
20
-0.09604
30
0.0
0
VERTEX
8
CUT
10
95.63809
20
0.85472
30
0.0
0
VERTEX
8
CUT
10
98.03413
20
1.77854
30
0.0
0
VERTEX
8
CUT
10
100.43050
20
2.70149
30
0.0
0
VERTEX
8
CUT
10
102.82722
20
3.62354
30
0.0
0
VERTEX
8
CUT
10
105.22428
20
4.54468
30
0.0
0
VERTEX
8
CUT
10
107.62169
20
5.46489
30
0.0
0
VERTEX
8
CUT
10
110.01946
20
6.38416
30
0.0
0
VERTEX
8
CUT
10
112.41760
20
7.30247
30
0.0
0
VERTEX
8
CUT
10
114.81611
20
8.21979
30
0.0
0
VERTEX
8
CUT
10
117.21501
20
9.13612
30
0.0
0
VERTEX
8
CUT
10
119.61428
20
10.05143
30
0.0
0
VERTEX
8
CUT
10
122.01395
20
10.96571
30
0.0
0
VERTEX
8
CUT
10
124.41402
20
11.87894
30
0.0
0
VERTEX
8
CUT
10
126.81450
20
12.79110
30
0.0
0
VERTEX
8
CUT
10
129.21539
20
13.70218
30
0.0
0
VERTEX
8
CUT
10
131.61670
20
14.61215
30
0.0
0
VERTEX
8
CUT
10
134.01843
20
15.52101
30
0.0
0
VERTEX
8
CUT
10
136.42060
20
16.42873
30
0.0
0
VERTEX
8
CUT
10
138.82320
20
17.33529
30
0.0
0
VERTEX
8
CUT
10
141.22625
20
18.24068
30
0.0
0
VERTEX
8
CUT
10
143.62976
20
19.14488
30
0.0
0
VERTEX
8
CUT
10
146.03372
20
20.04788
30
0.0
0
VERTEX
8
CUT
10
148.43974
20
20.95024
30
0.0
0
VERTEX
8
CUT
10
166.42027
20
28.62766
30
0.0
0
VERTEX
8
CUT
10
180.80852
20
35.78398
30
0.0
0
VERTEX
8
CUT
10
195.74101
20
41.70715
30
0.0
0
VERTEX
8
CUT
10
211.11743
20
46.35785
30
0.0
0
VERTEX
8
CUT
10
226.82982
20
49.70342
30
0.0
0
VERTEX
8
CUT
10
304.77099
20
60.13523
30
0.0
0
VERTEX
8
CUT
10
296.37743
20
122.84766
30
0.0
0
VERTEX
8
CUT
10
312.94262
20
163.52672
30
0.0
0
VERTEX
8
CUT
10
305.97639
20
215.57484
30
0.0
0
VERTEX
8
CUT
10
206.41489
20
202.24937
30
0.0
0
VERTEX
8
CUT
10
92.30073
20
202.24937
30
0.0
0
VERTEX
8
CUT
10
-0.09843
20
162.79632
30
0.0
0
SEQEND
0
LINE
8
SCORE
10
206.41989
20
202.17437
30
0.0
11
207.08318
21
197.21856
31
0.0
0
LINE
8
SCORE
10
207.74648
20
192.26276
30
0.0
11
208.40977
21
187.30695
31
0.0
0
LINE
8
SCORE
10
209.07307
20
182.35114
30
0.0
11
209.73637
21
177.39533
31
0.0
0
LINE
8
SCORE
10
210.39966
20
172.43952
30
0.0
11
211.06296
21
167.48371
31
0.0
0
LINE
8
SCORE
10
211.72625
20
162.52790
30
0.0
11
212.38955
21
157.57210
31
0.0
0
LINE
8
SCORE
10
213.05284
20
152.61629
30
0.0
11
213.71614
21
147.66048
31
0.0
0
LINE
8
SCORE
10
214.37943
20
142.70467
30
0.0
11
215.04273
21
137.74886
31
0.0
0
LINE
8
SCORE
10
215.70603
20
132.79305
30
0.0
11
216.36932
21
127.83724
31
0.0
0
LINE
8
SCORE
10
217.03262
20
122.88144
30
0.0
11
217.69591
21
117.92563
31
0.0
0
LINE
8
SCORE
10
218.35921
20
112.96982
30
0.0
11
219.02250
21
108.01401
31
0.0
0
LINE
8
SCORE
10
219.68580
20
103.05820
30
0.0
11
220.34909
21
98.10239
31
0.0
0
LINE
8
SCORE
10
221.01239
20
93.14658
30
0.0
11
221.67569
21
88.19077
31
0.0
0
LINE
8
SCORE
10
222.33898
20
83.23497
30
0.0
11
223.00228
21
78.27916
31
0.0
0
LINE
8
SCORE
10
223.66557
20
73.32335
30
0.0
11
224.32887
21
68.36754
31
0.0
0
LINE
8
SCORE
10
224.99216
20
63.41173
30
0.0
11
225.65546
21
58.45592
31
0.0
0
LINE
8
SCORE
10
226.31875
20
53.50011
30
0.0
11
226.81701
21
49.77737
31
0.0
0
LINE
8
SCORE
10
92.31607
20
202.17437
30
0.0
11
94.27950
21
197.57601
31
0.0
0
LINE
8
SCORE
10
96.24293
20
192.97765
30
0.0
11
98.20637
21
188.37929
31
0.0
0
LINE
8
SCORE
10
100.16980
20
183.78092
30
0.0
11
102.13323
21
179.18256
31
0.0
0
LINE
8
SCORE
10
104.09666
20
174.58420
30
0.0
11
106.06009
21
169.98584
31
0.0
0
LINE
8
SCORE
10
108.02352
20
165.38747
30
0.0
11
109.98696
21
160.78911
31
0.0
0
LINE
8
SCORE
10
111.95039
20
156.19075
30
0.0
11
113.91382
21
151.59239
31
0.0
0
LINE
8
SCORE
10
115.87725
20
146.99402
30
0.0
11
117.84068
21
142.39566
31
0.0
0
LINE
8
SCORE
10
119.80411
20
137.79730
30
0.0
11
121.76754
21
133.19894
31
0.0
0
LINE
8
SCORE
10
123.73098
20
128.60058
30
0.0
11
125.69441
21
124.00221
31
0.0
0
LINE
8
SCORE
10
127.65784
20
119.40385
30
0.0
11
129.62127
21
114.80549
31
0.0
0
LINE
8
SCORE
10
131.58470
20
110.20713
30
0.0
11
133.54813
21
105.60876
31
0.0
0
LINE
8
SCORE
10
135.51157
20
101.01040
30
0.0
11
137.47500
21
96.41204
31
0.0
0
LINE
8
SCORE
10
139.43843
20
91.81368
30
0.0
11
141.40186
21
87.21531
31
0.0
0
LINE
8
SCORE
10
143.36529
20
82.61695
30
0.0
11
145.32872
21
78.01859
31
0.0
0
LINE
8
SCORE
10
147.29216
20
73.42023
30
0.0
11
149.25559
21
68.82186
31
0.0
0
LINE
8
SCORE
10
151.21902
20
64.22350
30
0.0
11
153.18245
21
59.62514
31
0.0
0
LINE
8
SCORE
10
155.14588
20
55.02678
30
0.0
11
157.10931
21
50.42842
31
0.0
0
LINE
8
SCORE
10
159.07275
20
45.83005
30
0.0
11
161.03618
21
41.23169
31
0.0
0
LINE
8
SCORE
10
162.99961
20
36.63333
30
0.0
11
164.96304
21
32.03497
31
0.0
0
LINE
8
SCORE2
10
206.41989
20
202.17437
30
0.0
11
226.81701
21
49.77737
31
0.0
0
LINE
8
SCORE2
10
92.31607
20
202.17437
30
0.0
11
166.38882
21
28.69578
31
0.0
0
ENDSEC
0
EOF
