0
SECTION
2
ENTITIES
0
POLYLINE
8
CUT
66
1
70
1
0
VERTEX
8
CUT
10
-0.15397
20
156.84502
30
0.0
0
VERTEX
8
CUT
10
16.41122
20
116.16597
30
0.0
0
VERTEX
8
CUT
10
8.01036
20
53.39897
30
0.0
0
VERTEX
8
CUT
10
73.43529
20
44.64235
30
0.0
0
VERTEX
8
CUT
10
89.14180
20
41.29803
30
0.0
0
VERTEX
8
CUT
10
104.51220
20
36.64915
30
0.0
0
VERTEX
8
CUT
10
119.43884
20
30.72831
30
0.0
0
VERTEX
8
CUT
10
128.00043
20
26.47001
30
0.0
0
VERTEX
8
CUT
10
127.85234
20
26.12318
30
0.0
0
VERTEX
8
CUT
10
140.13044
20
20.88061
30
0.0
0
VERTEX
8
CUT
10
142.53802
20
19.97766
30
0.0
0
VERTEX
8
CUT
10
144.94194
20
19.07468
30
0.0
0
VERTEX
8
CUT
10
147.34541
20
18.17049
30
0.0
0
VERTEX
8
CUT
10
149.74843
20
17.26511
30
0.0
0
VERTEX
8
CUT
10
152.15100
20
16.35856
30
0.0
0
VERTEX
8
CUT
10
154.55313
20
15.45086
30
0.0
0
VERTEX
8
CUT
10
156.95484
20
14.54201
30
0.0
0
VERTEX
8
CUT
10
159.35611
20
13.63205
30
0.0
0
VERTEX
8
CUT
10
161.75697
20
12.72099
30
0.0
0
VERTEX
8
CUT
10
164.15741
20
11.80884
30
0.0
0
VERTEX
8
CUT
10
166.55745
20
10.89562
30
0.0
0
VERTEX
8
CUT
10
168.95709
20
9.98135
30
0.0
0
VERTEX
8
CUT
10
171.35634
20
9.06605
30
0.0
0
VERTEX
8
CUT
10
173.75520
20
8.14974
30
0.0
0
VERTEX
8
CUT
10
176.15368
20
7.23242
30
0.0
0
VERTEX
8
CUT
10
178.55180
20
6.31413
30
0.0
0
VERTEX
8
CUT
10
180.94954
20
5.39487
30
0.0
0
VERTEX
8
CUT
10
183.34693
20
4.47467
30
0.0
0
VERTEX
8
CUT
10
185.74396
20
3.55353
30
0.0
0
VERTEX
8
CUT
10
188.14065
20
2.63149
30
0.0
0
VERTEX
8
CUT
10
190.53700
20
1.70856
30
0.0
0
VERTEX
8
CUT
10
192.93301
20
0.78474
30
0.0
0
VERTEX
8
CUT
10
195.46382
20
-0.19208
30
0.0
0
VERTEX
8
CUT
10
230.34127
20
81.49099
30
0.0
0
VERTEX
8
CUT
10
266.53779
20
110.70953
30
0.0
0
VERTEX
8
CUT
10
324.50996
20
246.48051
30
0.0
0
VERTEX
8
CUT
10
305.17089
20
254.73791
30
0.0
0
VERTEX
8
CUT
10
308.73433
20
260.12101
30
0.0
0
VERTEX
8
CUT
10
298.83868
20
264.34626
30
0.0
0
VERTEX
8
CUT
10
297.41506
20
258.04950
30
0.0
0
VERTEX
8
CUT
10
282.09183
20
264.59221
30
0.0
0
VERTEX
8
CUT
10
285.65528
20
269.97531
30
0.0
0
VERTEX
8
CUT
10
275.75963
20
274.20056
30
0.0
0
VERTEX
8
CUT
10
274.33600
20
267.90380
30
0.0
0
VERTEX
8
CUT
10
259.01278
20
274.44652
30
0.0
0
VERTEX
8
CUT
10
262.57622
20
279.82962
30
0.0
0
VERTEX
8
CUT
10
252.68057
20
284.05487
30
0.0
0
VERTEX
8
CUT
10
251.25695
20
277.75810
30
0.0
0
VERTEX
8
CUT
10
237.75776
20
283.52199
30
0.0
0
VERTEX
8
CUT
10
201.72675
20
199.13726
30
0.0
0
VERTEX
8
CUT
10
194.48590
20
199.13726
30
0.0
0
VERTEX
8
CUT
10
190.28590
20
203.33726
30
0.0
0
VERTEX
8
CUT
10
180.62844
20
203.33726
30
0.0
0
VERTEX
8
CUT
10
176.42844
20
199.13726
30
0.0
0
VERTEX
8
CUT
10
172.35271
20
199.13726
30
0.0
0
VERTEX
8
CUT
10
168.15271
20
203.33726
30
0.0
0
VERTEX
8
CUT
10
158.49525
20
203.33726
30
0.0
0
VERTEX
8
CUT
10
154.29525
20
199.13726
30
0.0
0
VERTEX
8
CUT
10
150.21951
20
199.13726
30
0.0
0
VERTEX
8
CUT
10
146.01951
20
203.33726
30
0.0
0
VERTEX
8
CUT
10
130.49525
20
203.33726
30
0.0
0
VERTEX
8
CUT
10
126.29525
20
199.13726
30
0.0
0
VERTEX
8
CUT
10
122.21951
20
199.13726
30
0.0
0
VERTEX
8
CUT
10
118.01951
20
203.33726
30
0.0
0
VERTEX
8
CUT
10
112.54587
20
203.33726
30
0.0
0
VERTEX
8
CUT
10
108.34587
20
199.13726
30
0.0
0
VERTEX
8
CUT
10
94.10890
20
199.13726
30
0.0
0
VERTEX
8
CUT
10
7.06577
20
210.78724
30
0.0
0
VERTEX
8
CUT
10
-0.15397
20
156.84502
30
0.0
0
SEQEND
0
POLYLINE
8
CUT
66
1
70
1
0
VERTEX
8
CUT
10
26.36197
20
195.18958
30
0.0
0
VERTEX
8
CUT
10
34.39038
20
194.11504
30
0.0
0
VERTEX
8
CUT
10
35.24603
20
200.50804
30
0.0
0
VERTEX
8
CUT
10
27.21762
20
201.58257
30
0.0
0
VERTEX
8
CUT
10
26.36197
20
195.18958
30
0.0
0
SEQEND
0
POLYLINE
8
CUT
66
1
70
1
0
VERTEX
8
CUT
10
51.23500
20
191.86054
30
0.0
0
VERTEX
8
CUT
10
59.26341
20
190.78600
30
0.0
0
VERTEX
8
CUT
10
60.11906
20
197.17899
30
0.0
0
VERTEX
8
CUT
10
52.09065
20
198.25353
30
0.0
0
VERTEX
8
CUT
10
51.23500
20
191.86054
30
0.0
0
SEQEND
0
POLYLINE
8
CUT
66
1
70
1
0
VERTEX
8
CUT
10
76.10803
20
188.53149
30
0.0
0
VERTEX
8
CUT
10
84.13644
20
187.45696
30
0.0
0
VERTEX
8
CUT
10
84.99209
20
193.84995
30
0.0
0
VERTEX
8
CUT
10
76.96368
20
194.92448
30
0.0
0
VERTEX
8
CUT
10
76.10803
20
188.53149
30
0.0
0
SEQEND
0
LINE
8
SCORE
10
202.89051
20
201.48081
30
0.0
11
200.92708
21
196.88245
31
0.0
0
LINE
8
SCORE
10
198.96365
20
192.28409
30
0.0
11
197.00022
21
187.68573
31
0.0
0
LINE
8
SCORE
10
195.03679
20
183.08737
30
0.0
11
193.07336
21
178.48900
31
0.0
0
LINE
8
SCORE
10
191.10992
20
173.89064
30
0.0
11
189.14649
21
169.29228
31
0.0
0
LINE
8
SCORE
10
187.18306
20
164.69392
30
0.0
11
185.21963
21
160.09555
31
0.0
0
LINE
8
SCORE
10
183.25620
20
155.49719
30
0.0
11
181.29277
21
150.89883
31
0.0
0
LINE
8
SCORE
10
179.32934
20
146.30047
30
0.0
11
177.36590
21
141.70210
31
0.0
0
LINE
8
SCORE
10
175.40247
20
137.10374
30
0.0
11
173.43904
21
132.50538
31
0.0
0
LINE
8
SCORE
10
171.47561
20
127.90702
30
0.0
11
169.51218
21
123.30865
31
0.0
0
LINE
8
SCORE
10
167.54875
20
118.71029
30
0.0
11
165.58531
21
114.11193
31
0.0
0
LINE
8
SCORE
10
163.62188
20
109.51357
30
0.0
11
161.65845
21
104.91521
31
0.0
0
LINE
8
SCORE
10
159.69502
20
100.31684
30
0.0
11
157.73159
21
95.71848
31
0.0
0
LINE
8
SCORE
10
155.76816
20
91.12012
30
0.0
11
153.80472
21
86.52176
31
0.0
0
LINE
8
SCORE
10
151.84129
20
81.92339
30
0.0
11
149.87786
21
77.32503
31
0.0
0
LINE
8
SCORE
10
147.91443
20
72.72667
30
0.0
11
145.95100
21
68.12831
31
0.0
0
LINE
8
SCORE
10
143.98757
20
63.52994
30
0.0
11
142.02414
21
58.93158
31
0.0
0
LINE
8
SCORE
10
140.06070
20
54.33322
30
0.0
11
138.09727
21
49.73486
31
0.0
0
LINE
8
SCORE
10
136.13384
20
45.13649
30
0.0
11
134.17041
21
40.53813
31
0.0
0
LINE
8
SCORE
10
132.20698
20
35.93977
30
0.0
11
130.24355
21
31.34141
31
0.0
0
LINE
8
SCORE
10
128.28011
20
26.74305
30
0.0
11
128.04919
21
26.20222
31
0.0
0
LINE
8
SCORE
10
100.39281
20
198.14487
30
0.0
11
99.72952
21
193.18907
31
0.0
0
LINE
8
SCORE
10
99.06622
20
188.23326
30
0.0
11
98.40293
21
183.27745
31
0.0
0
LINE
8
SCORE
10
97.73963
20
178.32164
30
0.0
11
97.07633
21
173.36583
31
0.0
0
LINE
8
SCORE
10
96.41304
20
168.41002
30
0.0
11
95.74974
21
163.45421
31
0.0
0
LINE
8
SCORE
10
95.08645
20
158.49841
30
0.0
11
94.42315
21
153.54260
31
0.0
0
LINE
8
SCORE
10
93.75986
20
148.58679
30
0.0
11
93.09656
21
143.63098
31
0.0
0
LINE
8
SCORE
10
92.43327
20
138.67517
30
0.0
11
91.76997
21
133.71936
31
0.0
0
LINE
8
SCORE
10
91.10667
20
128.76355
30
0.0
11
90.44338
21
123.80775
31
0.0
0
LINE
8
SCORE
10
89.78008
20
118.85194
30
0.0
11
89.11679
21
113.89613
31
0.0
0
LINE
8
SCORE
10
88.45349
20
108.94032
30
0.0
11
87.79020
21
103.98451
31
0.0
0
LINE
8
SCORE
10
87.12690
20
99.02870
30
0.0
11
86.46361
21
94.07289
31
0.0
0
LINE
8
SCORE
10
85.80031
20
89.11709
30
0.0
11
85.13701
21
84.16128
31
0.0
0
LINE
8
SCORE
10
84.47372
20
79.20547
30
0.0
11
83.81042
21
74.24966
31
0.0
0
LINE
8
SCORE
10
83.14713
20
69.29385
30
0.0
11
82.48383
21
64.33804
31
0.0
0
LINE
8
SCORE
10
81.82054
20
59.38223
30
0.0
11
81.15724
21
54.42642
31
0.0
0
LINE
8
SCORE
10
80.49395
20
49.47062
30
0.0
11
79.83065
21
44.51481
31
0.0
0
LINE
8
SCORE
10
285.59060
20
155.71324
30
0.0
11
280.99224
21
157.67667
31
0.0
0
LINE
8
SCORE
10
276.39387
20
159.64010
30
0.0
11
271.79551
21
161.60354
31
0.0
0
LINE
8
SCORE
10
267.19715
20
163.56697
30
0.0
11
262.59879
21
165.53040
31
0.0
0
LINE
8
SCORE
10
258.00042
20
167.49383
30
0.0
11
253.40206
21
169.45726
31
0.0
0
LINE
8
SCORE
10
248.80370
20
171.42069
30
0.0
11
244.20534
21
173.38412
31
0.0
0
LINE
8
SCORE
10
239.60698
20
175.34756
30
0.0
11
235.00861
21
177.31099
31
0.0
0
LINE
8
SCORE
10
230.41025
20
179.27442
30
0.0
11
225.81189
21
181.23785
31
0.0
0
LINE
8
SCORE
10
221.21353
20
183.20128
30
0.0
11
216.61516
21
185.16471
31
0.0
0
LINE
8
SCORE
10
212.01680
20
187.12815
30
0.0
11
207.41844
21
189.09158
31
0.0
0
LINE
8
SCORE
10
202.82008
20
191.05501
30
0.0
11
198.22171
21
193.01844
31
0.0
0
LINE
8
SCORE
10
193.62335
20
194.98187
30
0.0
11
193.27453
21
195.13081
31
0.0
0
LINE
8
SCORE2
10
202.89051
20
201.48081
30
0.0
11
128.04919
21
26.20222
31
0.0
0
LINE
8
SCORE2
10
100.39281
20
198.14487
30
0.0
11
79.75477
21
43.94787
31
0.0
0
LINE
8
SCORE2
10
285.59060
20
155.71324
30
0.0
11
193.27453
21
195.13081
31
0.0
0
ENDSEC
0
EOF
