0
SECTION
2
ENTITIES
0
POLYLINE
8
CUT
66
1
70
1
0
VERTEX
8
CUT
10
-0.15397
20
156.84502
30
0.0
0
VERTEX
8
CUT
10
16.41122
20
116.16597
30
0.0
0
VERTEX
8
CUT
10
8.01036
20
53.39897
30
0.0
0
VERTEX
8
CUT
10
73.43529
20
44.64235
30
0.0
0
VERTEX
8
CUT
10
89.14180
20
41.29803
30
0.0
0
VERTEX
8
CUT
10
104.51220
20
36.64915
30
0.0
0
VERTEX
8
CUT
10
119.43884
20
30.72831
30
0.0
0
VERTEX
8
CUT
10
128.00043
20
26.47001
30
0.0
0
VERTEX
8
CUT
10
127.85234
20
26.12318
30
0.0
0
VERTEX
8
CUT
10
140.13044
20
20.88061
30
0.0
0
VERTEX
8
CUT
10
142.53802
20
19.97766
30
0.0
0
VERTEX
8
CUT
10
144.94194
20
19.07468
30
0.0
0
VERTEX
8
CUT
10
147.34541
20
18.17049
30
0.0
0
VERTEX
8
CUT
10
149.74843
20
17.26511
30
0.0
0
VERTEX
8
CUT
10
152.15100
20
16.35856
30
0.0
0
VERTEX
8
CUT
10
154.55313
20
15.45086
30
0.0
0
VERTEX
8
CUT
10
156.95484
20
14.54201
30
0.0
0
VERTEX
8
CUT
10
159.35611
20
13.63205
30
0.0
0
VERTEX
8
CUT
10
161.75697
20
12.72099
30
0.0
0
VERTEX
8
CUT
10
164.15741
20
11.80884
30
0.0
0
VERTEX
8
CUT
10
166.55745
20
10.89562
30
0.0
0
VERTEX
8
CUT
10
168.95709
20
9.98135
30
0.0
0
VERTEX
8
CUT
10
171.35634
20
9.06605
30
0.0
0
VERTEX
8
CUT
10
173.75520
20
8.14974
30
0.0
0
VERTEX
8
CUT
10
176.15368
20
7.23242
30
0.0
0
VERTEX
8
CUT
10
178.55180
20
6.31413
30
0.0
0
VERTEX
8
CUT
10
180.94954
20
5.39487
30
0.0
0
VERTEX
8
CUT
10
183.34693
20
4.47467
30
0.0
0
VERTEX
8
CUT
10
185.74396
20
3.55353
30
0.0
0
VERTEX
8
CUT
10
188.14065
20
2.63149
30
0.0
0
VERTEX
8
CUT
10
190.53700
20
1.70856
30
0.0
0
VERTEX
8
CUT
10
192.93301
20
0.78474
30
0.0
0
VERTEX
8
CUT
10
195.46382
20
-0.19208
30
0.0
0
VERTEX
8
CUT
10
230.34127
20
81.49099
30
0.0
0
VERTEX
8
CUT
10
266.53779
20
110.70953
30
0.0
0
VERTEX
8
CUT
10
324.50996
20
246.48051
30
0.0
0
VERTEX
8
CUT
10
305.17089
20
254.73791
30
0.0
0
VERTEX
8
CUT
10
308.73433
20
260.12101
30
0.0
0
VERTEX
8
CUT
10
298.83868
20
264.34626
30
0.0
0
VERTEX
8
CUT
10
297.41506
20
258.04950
30
0.0
0
VERTEX
8
CUT
10
282.09183
20
264.59221
30
0.0
0
VERTEX
8
CUT
10
285.65528
20
269.97531
30
0.0
0
VERTEX
8
CUT
10
275.75963
20
274.20056
30
0.0
0
VERTEX
8
CUT
10
274.33600
20
267.90380
30
0.0
0
VERTEX
8
CUT
10
259.01278
20
274.44652
30
0.0
0
VERTEX
8
CUT
10
262.57622
20
279.82962
30
0.0
0
VERTEX
8
CUT
10
252.68057
20
284.05487
30
0.0
0
VERTEX
8
CUT
10
251.25695
20
277.75810
30
0.0
0
VERTEX
8
CUT
10
237.75776
20
283.52199
30
0.0
0
VERTEX
8
CUT
10
201.72675
20
199.13726
30
0.0
0
VERTEX
8
CUT
10
194.48590
20
199.13726
30
0.0
0
VERTEX
8
CUT
10
190.28590
20
203.33726
30
0.0
0
VERTEX
8
CUT
10
180.62844
20
203.33726
30
0.0
0
VERTEX
8
CUT
10
176.42844
20
199.13726
30
0.0
0
VERTEX
8
CUT
10
172.35271
20
199.13726
30
0.0
0
VERTEX
8
CUT
10
168.15271
20
203.33726
30
0.0
0
VERTEX
8
CUT
10
158.49525
20
203.33726
30
0.0
0
VERTEX
8
CUT
10
154.29525
20
199.13726
30
0.0
0
VERTEX
8
CUT
10
150.21951
20
199.13726
30
0.0
0
VERTEX
8
CUT
10
146.01951
20
203.33726
30
0.0
0
VERTEX
8
CUT
10
130.49525
20
203.33726
30
0.0
0
VERTEX
8
CUT
10
126.29525
20
199.13726
30
0.0
0
VERTEX
8
CUT
10
122.21951
20
199.13726
30
0.0
0
VERTEX
8
CUT
10
118.01951
20
203.33726
30
0.0
0
VERTEX
8
CUT
10
112.54587
20
203.33726
30
0.0
0
VERTEX
8
CUT
10
108.34587
20
199.13726
30
0.0
0
VERTEX
8
CUT
10
94.10890
20
199.13726
30
0.0
0
VERTEX
8
CUT
10
7.06577
20
210.78724
30
0.0
0
VERTEX
8
CUT
10
-0.15397
20
156.84502
30
0.0
0
SEQEND
0
POLYLINE
8
CUT
66
1
70
1
0
VERTEX
8
CUT
10
26.36197
20
195.18958
30
0.0
0
VERTEX
8
CUT
10
34.39038
20
194.11504
30
0.0
0
VERTEX
8
CUT
10
35.24603
20
200.50804
30
0.0
0
VERTEX
8
CUT
10
27.21762
20
201.58257
30
0.0
0
VERTEX
8
CUT
10
26.36197
20
195.18958
30
0.0
0
SEQEND
0
POLYLINE
8
CUT
66
1
70
1
0
VERTEX
8
CUT
10
51.23500
20
191.86054
30
0.0
0
VERTEX
8
CUT
10
59.26341
20
190.78600
30
0.0
0
VERTEX
8
CUT
10
60.11906
20
197.17899
30
0.0
0
VERTEX
8
CUT
10
52.09065
20
198.25353
30
0.0
0
VERTEX
8
CUT
10
51.23500
20
191.86054
30
0.0
0
SEQEND
0
POLYLINE
8
CUT
66
1
70
1
0
VERTEX
8
CUT
10
76.10803
20
188.53149
30
0.0
0
VERTEX
8
CUT
10
84.13644
20
187.45696
30
0.0
0
VERTEX
8
CUT
10
84.99209
20
193.84995
30
0.0
0
VERTEX
8
CUT
10
76.96368
20
194.92448
30
0.0
0
VERTEX
8
CUT
10
76.10803
20
188.53149
30
0.0
0
SEQEND
0
LINE
8
SCORE
10
202.89051
20
201.48081
30
0.0
11
201.71246
21
198.72180
31
0.0
0
LINE
8
SCORE
10
200.53440
20
195.96278
30
0.0
11
199.35634
21
193.20376
31
0.0
0
LINE
8
SCORE
10
198.17828
20
190.44475
30
0.0
11
197.00022
21
187.68573
31
0.0
0
LINE
8
SCORE
10
195.82216
20
184.92671
30
0.0
11
194.64410
21
182.16769
31
0.0
0
LINE
8
SCORE
10
193.46604
20
179.40868
30
0.0
11
192.28798
21
176.64966
31
0.0
0
LINE
8
SCORE
10
191.10992
20
173.89064
30
0.0
11
189.93187
21
171.13162
31
0.0
0
LINE
8
SCORE
10
188.75381
20
168.37261
30
0.0
11
187.57575
21
165.61359
31
0.0
0
LINE
8
SCORE
10
186.39769
20
162.85457
30
0.0
11
185.21963
21
160.09555
31
0.0
0
LINE
8
SCORE
10
184.04157
20
157.33654
30
0.0
11
182.86351
21
154.57752
31
0.0
0
LINE
8
SCORE
10
181.68545
20
151.81850
30
0.0
11
180.50739
21
149.05948
31
0.0
0
LINE
8
SCORE
10
179.32934
20
146.30047
30
0.0
11
178.15128
21
143.54145
31
0.0
0
LINE
8
SCORE
10
176.97322
20
140.78243
30
0.0
11
175.79516
21
138.02341
31
0.0
0
LINE
8
SCORE
10
174.61710
20
135.26440
30
0.0
11
173.43904
21
132.50538
31
0.0
0
LINE
8
SCORE
10
172.26098
20
129.74636
30
0.0
11
171.08292
21
126.98734
31
0.0
0
LINE
8
SCORE
10
169.90486
20
124.22833
30
0.0
11
168.72680
21
121.46931
31
0.0
0
LINE
8
SCORE
10
167.54875
20
118.71029
30
0.0
11
166.37069
21
115.95127
31
0.0
0
LINE
8
SCORE
10
165.19263
20
113.19226
30
0.0
11
164.01457
21
110.43324
31
0.0
0
LINE
8
SCORE
10
162.83651
20
107.67422
30
0.0
11
161.65845
21
104.91521
31
0.0
0
LINE
8
SCORE
10
160.48039
20
102.15619
30
0.0
11
159.30233
21
99.39717
31
0.0
0
LINE
8
SCORE
10
158.12427
20
96.63815
30
0.0
11
156.94622
21
93.87914
31
0.0
0
LINE
8
SCORE
10
155.76816
20
91.12012
30
0.0
11
154.59010
21
88.36110
31
0.0
0
LINE
8
SCORE
10
153.41204
20
85.60208
30
0.0
11
152.23398
21
82.84307
31
0.0
0
LINE
8
SCORE
10
151.05592
20
80.08405
30
0.0
11
149.87786
21
77.32503
31
0.0
0
LINE
8
SCORE
10
148.69980
20
74.56601
30
0.0
11
147.52174
21
71.80700
31
0.0
0
LINE
8
SCORE
10
146.34368
20
69.04798
30
0.0
11
145.16563
21
66.28896
31
0.0
0
LINE
8
SCORE
10
143.98757
20
63.52994
30
0.0
11
142.80951
21
60.77093
31
0.0
0
LINE
8
SCORE
10
141.63145
20
58.01191
30
0.0
11
140.45339
21
55.25289
31
0.0
0
LINE
8
SCORE
10
139.27533
20
52.49387
30
0.0
11
138.09727
21
49.73486
31
0.0
0
LINE
8
SCORE
10
136.91921
20
46.97584
30
0.0
11
135.74115
21
44.21682
31
0.0
0
LINE
8
SCORE
10
134.56310
20
41.45780
30
0.0
11
133.38504
21
38.69879
31
0.0
0
LINE
8
SCORE
10
132.20698
20
35.93977
30
0.0
11
131.02892
21
33.18075
31
0.0
0
LINE
8
SCORE
10
129.85086
20
30.42174
30
0.0
11
128.67280
21
27.66272
31
0.0
0
LINE
8
SCORE
10
100.39281
20
198.14487
30
0.0
11
99.99484
21
195.17139
31
0.0
0
LINE
8
SCORE
10
99.59686
20
192.19790
30
0.0
11
99.19888
21
189.22442
31
0.0
0
LINE
8
SCORE
10
98.80090
20
186.25093
30
0.0
11
98.40293
21
183.27745
31
0.0
0
LINE
8
SCORE
10
98.00495
20
180.30396
30
0.0
11
97.60697
21
177.33048
31
0.0
0
LINE
8
SCORE
10
97.20899
20
174.35699
30
0.0
11
96.81102
21
171.38351
31
0.0
0
LINE
8
SCORE
10
96.41304
20
168.41002
30
0.0
11
96.01506
21
165.43654
31
0.0
0
LINE
8
SCORE
10
95.61708
20
162.46305
30
0.0
11
95.21911
21
159.48957
31
0.0
0
LINE
8
SCORE
10
94.82113
20
156.51608
30
0.0
11
94.42315
21
153.54260
31
0.0
0
LINE
8
SCORE
10
94.02518
20
150.56911
30
0.0
11
93.62720
21
147.59563
31
0.0
0
LINE
8
SCORE
10
93.22922
20
144.62214
30
0.0
11
92.83124
21
141.64866
31
0.0
0
LINE
8
SCORE
10
92.43327
20
138.67517
30
0.0
11
92.03529
21
135.70169
31
0.0
0
LINE
8
SCORE
10
91.63731
20
132.72820
30
0.0
11
91.23933
21
129.75472
31
0.0
0
LINE
8
SCORE
10
90.84136
20
126.78123
30
0.0
11
90.44338
21
123.80775
31
0.0
0
LINE
8
SCORE
10
90.04540
20
120.83426
30
0.0
11
89.64742
21
117.86078
31
0.0
0
LINE
8
SCORE
10
89.24945
20
114.88729
30
0.0
11
88.85147
21
111.91380
31
0.0
0
LINE
8
SCORE
10
88.45349
20
108.94032
30
0.0
11
88.05552
21
105.96683
31
0.0
0
LINE
8
SCORE
10
87.65754
20
102.99335
30
0.0
11
87.25956
21
100.01986
31
0.0
0
LINE
8
SCORE
10
86.86158
20
97.04638
30
0.0
11
86.46361
21
94.07289
31
0.0
0
LINE
8
SCORE
10
86.06563
20
91.09941
30
0.0
11
85.66765
21
88.12592
31
0.0
0
LINE
8
SCORE
10
85.26967
20
85.15244
30
0.0
11
84.87170
21
82.17895
31
0.0
0
LINE
8
SCORE
10
84.47372
20
79.20547
30
0.0
11
84.07574
21
76.23198
31
0.0
0
LINE
8
SCORE
10
83.67776
20
73.25850
30
0.0
11
83.27979
21
70.28501
31
0.0
0
LINE
8
SCORE
10
82.88181
20
67.31153
30
0.0
11
82.48383
21
64.33804
31
0.0
0
LINE
8
SCORE
10
82.08586
20
61.36456
30
0.0
11
81.68788
21
58.39107
31
0.0
0
LINE
8
SCORE
10
81.28990
20
55.41759
30
0.0
11
80.89192
21
52.44410
31
0.0
0
LINE
8
SCORE
10
80.49395
20
49.47062
30
0.0
11
80.09597
21
46.49713
31
0.0
0
LINE
8
SCORE
10
285.59060
20
155.71324
30
0.0
11
282.83158
21
156.89130
31
0.0
0
LINE
8
SCORE
10
280.07256
20
158.06936
30
0.0
11
277.31355
21
159.24742
31
0.0
0
LINE
8
SCORE
10
274.55453
20
160.42548
30
0.0
11
271.79551
21
161.60354
31
0.0
0
LINE
8
SCORE
10
269.03649
20
162.78159
30
0.0
11
266.27748
21
163.95965
31
0.0
0
LINE
8
SCORE
10
263.51846
20
165.13771
30
0.0
11
260.75944
21
166.31577
31
0.0
0
LINE
8
SCORE
10
258.00042
20
167.49383
30
0.0
11
255.24141
21
168.67189
31
0.0
0
LINE
8
SCORE
10
252.48239
20
169.84995
30
0.0
11
249.72337
21
171.02801
31
0.0
0
LINE
8
SCORE
10
246.96435
20
172.20607
30
0.0
11
244.20534
21
173.38412
31
0.0
0
LINE
8
SCORE
10
241.44632
20
174.56218
30
0.0
11
238.68730
21
175.74024
31
0.0
0
LINE
8
SCORE
10
235.92829
20
176.91830
30
0.0
11
233.16927
21
178.09636
31
0.0
0
LINE
8
SCORE
10
230.41025
20
179.27442
30
0.0
11
227.65123
21
180.45248
31
0.0
0
LINE
8
SCORE
10
224.89222
20
181.63054
30
0.0
11
222.13320
21
182.80860
31
0.0
0
LINE
8
SCORE
10
219.37418
20
183.98666
30
0.0
11
216.61516
21
185.16471
31
0.0
0
LINE
8
SCORE
10
213.85615
20
186.34277
30
0.0
11
211.09713
21
187.52083
31
0.0
0
LINE
8
SCORE
10
208.33811
20
188.69889
30
0.0
11
205.57909
21
189.87695
31
0.0
0
LINE
8
SCORE
10
202.82008
20
191.05501
30
0.0
11
200.06106
21
192.23307
31
0.0
0
LINE
8
SCORE
10
197.30204
20
193.41113
30
0.0
11
194.54302
21
194.58919
31
0.0
0
LINE
8
SCORE2
10
202.89051
20
201.48081
30
0.0
11
128.04919
21
26.20222
31
0.0
0
LINE
8
SCORE2
10
100.39281
20
198.14487
30
0.0
11
79.75477
21
43.94787
31
0.0
0
LINE
8
SCORE2
10
285.59060
20
155.71324
30
0.0
11
193.27453
21
195.13081
31
0.0
0
ENDSEC
0
EOF
