0
SECTION
2
ENTITIES
0
POLYLINE
8
CUT
66
1
70
1
0
VERTEX
8
CUT
10
-0.07787
20
155.59215
30
0.0
0
VERTEX
8
CUT
10
97.05230
20
151.79678
30
0.0
0
VERTEX
8
CUT
10
96.88831
20
147.59998
30
0.0
0
VERTEX
8
CUT
10
101.51584
20
147.41916
30
0.0
0
VERTEX
8
CUT
10
105.87663
20
151.45197
30
0.0
0
VERTEX
8
CUT
10
110.01134
20
151.29040
30
0.0
0
VERTEX
8
CUT
10
114.04415
20
146.92962
30
0.0
0
VERTEX
8
CUT
10
129.04811
20
146.34334
30
0.0
0
VERTEX
8
CUT
10
133.40889
20
150.37614
30
0.0
0
VERTEX
8
CUT
10
137.54361
20
150.21458
30
0.0
0
VERTEX
8
CUT
10
141.57641
20
145.85379
30
0.0
0
VERTEX
8
CUT
10
152.32415
20
145.43382
30
0.0
0
VERTEX
8
CUT
10
156.68493
20
149.46663
30
0.0
0
VERTEX
8
CUT
10
160.81965
20
149.30507
30
0.0
0
VERTEX
8
CUT
10
164.85245
20
144.94428
30
0.0
0
VERTEX
8
CUT
10
170.25984
20
144.73299
30
0.0
0
VERTEX
8
CUT
10
174.62063
20
148.76579
30
0.0
0
VERTEX
8
CUT
10
178.75534
20
148.60423
30
0.0
0
VERTEX
8
CUT
10
182.78815
20
144.24344
30
0.0
0
VERTEX
8
CUT
10
198.23849
20
143.63972
30
0.0
0
VERTEX
8
CUT
10
202.59927
20
147.67253
30
0.0
0
VERTEX
8
CUT
10
206.73399
20
147.51096
30
0.0
0
VERTEX
8
CUT
10
210.76679
20
143.15017
30
0.0
0
VERTEX
8
CUT
10
220.35481
20
142.77552
30
0.0
0
VERTEX
8
CUT
10
224.71559
20
146.80833
30
0.0
0
VERTEX
8
CUT
10
228.85031
20
146.64676
30
0.0
0
VERTEX
8
CUT
10
232.88311
20
142.28598
30
0.0
0
VERTEX
8
CUT
10
242.47112
20
141.91133
30
0.0
0
VERTEX
8
CUT
10
246.83191
20
145.94413
30
0.0
0
VERTEX
8
CUT
10
250.96662
20
145.78257
30
0.0
0
VERTEX
8
CUT
10
254.99943
20
141.42178
30
0.0
0
VERTEX
8
CUT
10
259.22543
20
141.25665
30
0.0
0
VERTEX
8
CUT
10
313.15800
20
-0.09681
30
0.0
0
VERTEX
8
CUT
10
336.92173
20
8.97010
30
0.0
0
VERTEX
8
CUT
10
337.52619
20
5.80248
30
0.0
0
VERTEX
8
CUT
10
350.02626
20
10.57180
30
0.0
0
VERTEX
8
CUT
10
348.36708
20
13.33700
30
0.0
0
VERTEX
8
CUT
10
367.62273
20
20.68389
30
0.0
0
VERTEX
8
CUT
10
368.22719
20
17.51626
30
0.0
0
VERTEX
8
CUT
10
380.72726
20
22.28559
30
0.0
0
VERTEX
8
CUT
10
379.06807
20
25.05079
30
0.0
0
VERTEX
8
CUT
10
404.11648
20
34.60786
30
0.0
0
VERTEX
8
CUT
10
328.17907
20
233.63444
30
0.0
0
VERTEX
8
CUT
10
293.15099
20
264.24400
30
0.0
0
VERTEX
8
CUT
10
245.00004
20
390.44425
30
0.0
0
VERTEX
8
CUT
10
244.03550
20
390.11250
30
0.0
0
VERTEX
8
CUT
10
242.24350
20
389.49661
30
0.0
0
VERTEX
8
CUT
10
240.45131
20
388.88126
30
0.0
0
VERTEX
8
CUT
10
239.55515
20
388.57380
30
0.0
0
VERTEX
8
CUT
10
237.76268
20
387.95930
30
0.0
0
VERTEX
8
CUT
10
236.86637
20
387.65226
30
0.0
0
VERTEX
8
CUT
10
235.07362
20
387.03863
30
0.0
0
VERTEX
8
CUT
10
234.17716
20
386.73203
30
0.0
0
VERTEX
8
CUT
10
232.38411
20
386.11928
30
0.0
0
VERTEX
8
CUT
10
231.48751
20
385.81313
30
0.0
0
VERTEX
8
CUT
10
229.69415
20
385.20128
30
0.0
0
VERTEX
8
CUT
10
228.79740
20
384.89558
30
0.0
0
VERTEX
8
CUT
10
227.00373
20
384.28465
30
0.0
0
VERTEX
8
CUT
10
226.10682
20
383.97942
30
0.0
0
VERTEX
8
CUT
10
224.31153
20
383.36898
30
0.0
0
VERTEX
8
CUT
10
174.15106
20
364.23056
30
0.0
0
VERTEX
8
CUT
10
174.18125
20
364.15144
30
0.0
0
VERTEX
8
CUT
10
165.22029
20
360.46221
30
0.0
0
VERTEX
8
CUT
10
152.90972
20
356.48563
30
0.0
0
VERTEX
8
CUT
10
140.32639
20
353.48178
30
0.0
0
VERTEX
8
CUT
10
127.54704
20
351.46898
30
0.0
0
VERTEX
8
CUT
10
114.64959
20
350.45950
30
0.0
0
VERTEX
8
CUT
10
102.61672
20
350.45950
30
0.0
0
VERTEX
8
CUT
10
102.61603
20
350.42415
30
0.0
0
VERTEX
8
CUT
10
29.47875
20
353.28199
30
0.0
0
VERTEX
8
CUT
10
25.29860
20
246.30468
30
0.0
0
VERTEX
8
CUT
10
2.02468
20
209.40019
30
0.0
0
VERTEX
8
CUT
10
-0.07787
20
155.59215
30
0.0
0
SEQEND
0
POLYLINE
8
CUT
66
1
70
1
0
VERTEX
8
CUT
10
26.93729
20
157.76399
30
0.0
0
VERTEX
8
CUT
10
38.97810
20
157.29349
30
0.0
0
VERTEX
8
CUT
10
39.10403
20
160.51603
30
0.0
0
VERTEX
8
CUT
10
27.06321
20
160.98653
30
0.0
0
VERTEX
8
CUT
10
26.93729
20
157.76399
30
0.0
0
SEQEND
0
POLYLINE
8
CUT
66
1
70
1
0
VERTEX
8
CUT
10
59.77200
20
156.48097
30
0.0
0
VERTEX
8
CUT
10
71.81281
20
156.01048
30
0.0
0
VERTEX
8
CUT
10
71.93873
20
159.23302
30
0.0
0
VERTEX
8
CUT
10
59.89792
20
159.70351
30
0.0
0
VERTEX
8
CUT
10
59.77200
20
156.48097
30
0.0
0
SEQEND
0
LINE
8
SCORE
10
259.76112
20
140.06304
30
0.0
11
259.04816
21
141.93165
31
0.0
0
LINE
8
SCORE
10
258.69168
20
142.86596
30
0.0
11
257.97873
21
144.73456
31
0.0
0
LINE
8
SCORE
10
257.62225
20
145.66887
30
0.0
11
256.90929
21
147.53747
31
0.0
0
LINE
8
SCORE
10
256.55281
20
148.47178
30
0.0
11
255.83986
21
150.34039
31
0.0
0
LINE
8
SCORE
10
255.48338
20
151.27469
30
0.0
11
254.77042
21
153.14330
31
0.0
0
LINE
8
SCORE
10
254.41395
20
154.07760
30
0.0
11
253.70099
21
155.94621
31
0.0
0
LINE
8
SCORE
10
253.34451
20
156.88051
30
0.0
11
252.63156
21
158.74912
31
0.0
0
LINE
8
SCORE
10
252.27508
20
159.68342
30
0.0
11
251.56212
21
161.55203
31
0.0
0
LINE
8
SCORE
10
251.20564
20
162.48633
30
0.0
11
250.49269
21
164.35494
31
0.0
0
LINE
8
SCORE
10
250.13621
20
165.28924
30
0.0
11
249.42325
21
167.15785
31
0.0
0
LINE
8
SCORE
10
249.06678
20
168.09216
30
0.0
11
248.35382
21
169.96076
31
0.0
0
LINE
8
SCORE
10
247.99734
20
170.89507
30
0.0
11
247.28439
21
172.76367
31
0.0
0
LINE
8
SCORE
10
246.92791
20
173.69798
30
0.0
11
246.21495
21
175.56659
31
0.0
0
LINE
8
SCORE
10
245.85847
20
176.50089
30
0.0
11
245.14552
21
178.36950
31
0.0
0
LINE
8
SCORE
10
244.78904
20
179.30380
30
0.0
11
244.07608
21
181.17241
31
0.0
0
LINE
8
SCORE
10
243.71961
20
182.10671
30
0.0
11
243.00665
21
183.97532
31
0.0
0
LINE
8
SCORE
10
242.65017
20
184.90962
30
0.0
11
241.93722
21
186.77823
31
0.0
0
LINE
8
SCORE
10
241.58074
20
187.71253
30
0.0
11
240.86778
21
189.58114
31
0.0
0
LINE
8
SCORE
10
240.51130
20
190.51544
30
0.0
11
239.79835
21
192.38405
31
0.0
0
LINE
8
SCORE
10
239.44187
20
193.31836
30
0.0
11
238.72891
21
195.18696
31
0.0
0
LINE
8
SCORE
10
238.37244
20
196.12127
30
0.0
11
237.65948
21
197.98987
31
0.0
0
LINE
8
SCORE
10
237.30300
20
198.92418
30
0.0
11
236.59005
21
200.79279
31
0.0
0
LINE
8
SCORE
10
236.23357
20
201.72709
30
0.0
11
235.52061
21
203.59570
31
0.0
0
LINE
8
SCORE
10
235.16413
20
204.53000
30
0.0
11
234.45118
21
206.39861
31
0.0
0
LINE
8
SCORE
10
234.09470
20
207.33291
30
0.0
11
233.38174
21
209.20152
31
0.0
0
LINE
8
SCORE
10
233.02527
20
210.13582
30
0.0
11
232.31231
21
212.00443
31
0.0
0
LINE
8
SCORE
10
231.95583
20
212.93873
30
0.0
11
231.24288
21
214.80734
31
0.0
0
LINE
8
SCORE
10
230.88640
20
215.74165
30
0.0
11
230.17344
21
217.61025
31
0.0
0
LINE
8
SCORE
10
229.81696
20
218.54456
30
0.0
11
229.10401
21
220.41316
31
0.0
0
LINE
8
SCORE
10
228.74753
20
221.34747
30
0.0
11
228.03457
21
223.21607
31
0.0
0
LINE
8
SCORE
10
227.67810
20
224.15038
30
0.0
11
226.96514
21
226.01899
31
0.0
0
LINE
8
SCORE
10
226.60866
20
226.95329
30
0.0
11
225.89571
21
228.82190
31
0.0
0
LINE
8
SCORE
10
225.53923
20
229.75620
30
0.0
11
224.82627
21
231.62481
31
0.0
0
LINE
8
SCORE
10
224.46979
20
232.55911
30
0.0
11
223.75684
21
234.42772
31
0.0
0
LINE
8
SCORE
10
223.40036
20
235.36202
30
0.0
11
222.68740
21
237.23063
31
0.0
0
LINE
8
SCORE
10
222.33093
20
238.16493
30
0.0
11
221.61797
21
240.03354
31
0.0
0
LINE
8
SCORE
10
221.26149
20
240.96785
30
0.0
11
220.54854
21
242.83645
31
0.0
0
LINE
8
SCORE
10
220.19206
20
243.77076
30
0.0
11
219.47910
21
245.63936
31
0.0
0
LINE
8
SCORE
10
219.12262
20
246.57367
30
0.0
11
218.40967
21
248.44227
31
0.0
0
LINE
8
SCORE
10
218.05319
20
249.37658
30
0.0
11
217.34023
21
251.24519
31
0.0
0
LINE
8
SCORE
10
216.98375
20
252.17949
30
0.0
11
216.27080
21
254.04810
31
0.0
0
LINE
8
SCORE
10
215.91432
20
254.98240
30
0.0
11
215.20136
21
256.85101
31
0.0
0
LINE
8
SCORE
10
214.84489
20
257.78531
30
0.0
11
214.13193
21
259.65392
31
0.0
0
LINE
8
SCORE
10
213.77545
20
260.58822
30
0.0
11
213.06250
21
262.45683
31
0.0
0
LINE
8
SCORE
10
212.70602
20
263.39113
30
0.0
11
211.99306
21
265.25974
31
0.0
0
LINE
8
SCORE
10
211.63658
20
266.19405
30
0.0
11
210.92363
21
268.06265
31
0.0
0
LINE
8
SCORE
10
210.56715
20
268.99696
30
0.0
11
209.85419
21
270.86556
31
0.0
0
LINE
8
SCORE
10
209.49772
20
271.79987
30
0.0
11
208.78476
21
273.66848
31
0.0
0
LINE
8
SCORE
10
208.42828
20
274.60278
30
0.0
11
207.71533
21
276.47139
31
0.0
0
LINE
8
SCORE
10
207.35885
20
277.40569
30
0.0
11
206.64589
21
279.27430
31
0.0
0
LINE
8
SCORE
10
206.28941
20
280.20860
30
0.0
11
205.57646
21
282.07721
31
0.0
0
LINE
8
SCORE
10
205.21998
20
283.01151
30
0.0
11
204.50702
21
284.88012
31
0.0
0
LINE
8
SCORE
10
204.15055
20
285.81442
30
0.0
11
203.43759
21
287.68303
31
0.0
0
LINE
8
SCORE
10
203.08111
20
288.61733
30
0.0
11
202.36816
21
290.48594
31
0.0
0
LINE
8
SCORE
10
202.01168
20
291.42025
30
0.0
11
201.29872
21
293.28885
31
0.0
0
LINE
8
SCORE
10
200.94224
20
294.22316
30
0.0
11
200.22929
21
296.09176
31
0.0
0
LINE
8
SCORE
10
199.87281
20
297.02607
30
0.0
11
199.15985
21
298.89468
31
0.0
0
LINE
8
SCORE
10
198.80338
20
299.82898
30
0.0
11
198.09042
21
301.69759
31
0.0
0
LINE
8
SCORE
10
197.73394
20
302.63189
30
0.0
11
197.02099
21
304.50050
31
0.0
0
LINE
8
SCORE
10
196.66451
20
305.43480
30
0.0
11
195.95155
21
307.30341
31
0.0
0
LINE
8
SCORE
10
195.59507
20
308.23771
30
0.0
11
194.88212
21
310.10632
31
0.0
0
LINE
8
SCORE
10
194.52564
20
311.04062
30
0.0
11
193.81268
21
312.90923
31
0.0
0
LINE
8
SCORE
10
193.45621
20
313.84353
30
0.0
11
192.74325
21
315.71214
31
0.0
0
LINE
8
SCORE
10
192.38677
20
316.64645
30
0.0
11
191.67382
21
318.51505
31
0.0
0
LINE
8
SCORE
10
191.31734
20
319.44936
30
0.0
11
190.60438
21
321.31796
31
0.0
0
LINE
8
SCORE
10
190.24790
20
322.25227
30
0.0
11
189.53495
21
324.12088
31
0.0
0
LINE
8
SCORE
10
189.17847
20
325.05518
30
0.0
11
188.46551
21
326.92379
31
0.0
0
LINE
8
SCORE
10
188.10904
20
327.85809
30
0.0
11
187.39608
21
329.72670
31
0.0
0
LINE
8
SCORE
10
187.03960
20
330.66100
30
0.0
11
186.32665
21
332.52961
31
0.0
0
LINE
8
SCORE
10
185.97017
20
333.46391
30
0.0
11
185.25721
21
335.33252
31
0.0
0
LINE
8
SCORE
10
184.90073
20
336.26682
30
0.0
11
184.18778
21
338.13543
31
0.0
0
LINE
8
SCORE
10
183.83130
20
339.06973
30
0.0
11
183.11834
21
340.93834
31
0.0
0
LINE
8
SCORE
10
182.76187
20
341.87265
30
0.0
11
182.04891
21
343.74125
31
0.0
0
LINE
8
SCORE
10
181.69243
20
344.67556
30
0.0
11
180.97948
21
346.54416
31
0.0
0
LINE
8
SCORE
10
180.62300
20
347.47847
30
0.0
11
179.91004
21
349.34708
31
0.0
0
LINE
8
SCORE
10
179.55356
20
350.28138
30
0.0
11
178.84061
21
352.14999
31
0.0
0
LINE
8
SCORE
10
178.48413
20
353.08429
30
0.0
11
177.77117
21
354.95290
31
0.0
0
LINE
8
SCORE
10
177.41470
20
355.88720
30
0.0
11
176.70174
21
357.75581
31
0.0
0
LINE
8
SCORE
10
176.34526
20
358.69011
30
0.0
11
175.63231
21
360.55872
31
0.0
0
LINE
8
SCORE
10
175.27583
20
361.49302
30
0.0
11
174.56287
21
363.36163
31
0.0
0
LINE
8
SCORE
10
347.23752
20
183.47318
30
0.0
11
345.36892
21
182.76023
31
0.0
0
LINE
8
SCORE
10
344.43461
20
182.40375
30
0.0
11
342.56601
21
181.69079
31
0.0
0
LINE
8
SCORE
10
341.63170
20
181.33431
30
0.0
11
339.76309
21
180.62136
31
0.0
0
LINE
8
SCORE
10
338.82879
20
180.26488
30
0.0
11
336.96018
21
179.55192
31
0.0
0
LINE
8
SCORE
10
336.02588
20
179.19545
30
0.0
11
334.15727
21
178.48249
31
0.0
0
LINE
8
SCORE
10
333.22297
20
178.12601
30
0.0
11
331.35436
21
177.41306
31
0.0
0
LINE
8
SCORE
10
330.42006
20
177.05658
30
0.0
11
328.55145
21
176.34362
31
0.0
0
LINE
8
SCORE
10
327.61715
20
175.98714
30
0.0
11
325.74854
21
175.27419
31
0.0
0
LINE
8
SCORE
10
324.81423
20
174.91771
30
0.0
11
322.94563
21
174.20475
31
0.0
0
LINE
8
SCORE
10
322.01132
20
173.84828
30
0.0
11
320.14272
21
173.13532
31
0.0
0
LINE
8
SCORE
10
319.20841
20
172.77884
30
0.0
11
317.33981
21
172.06589
31
0.0
0
LINE
8
SCORE
10
316.40550
20
171.70941
30
0.0
11
314.53689
21
170.99645
31
0.0
0
LINE
8
SCORE
10
313.60259
20
170.63997
30
0.0
11
311.73398
21
169.92702
31
0.0
0
LINE
8
SCORE
10
310.79968
20
169.57054
30
0.0
11
308.93107
21
168.85758
31
0.0
0
LINE
8
SCORE
10
307.99677
20
168.50111
30
0.0
11
306.12816
21
167.78815
31
0.0
0
LINE
8
SCORE
10
305.19386
20
167.43167
30
0.0
11
303.32525
21
166.71872
31
0.0
0
LINE
8
SCORE
10
302.39095
20
166.36224
30
0.0
11
300.52234
21
165.64928
31
0.0
0
LINE
8
SCORE
10
299.58803
20
165.29280
30
0.0
11
297.71943
21
164.57985
31
0.0
0
LINE
8
SCORE
10
296.78512
20
164.22337
30
0.0
11
294.91652
21
163.51041
31
0.0
0
LINE
8
SCORE
10
293.98221
20
163.15394
30
0.0
11
292.11361
21
162.44098
31
0.0
0
LINE
8
SCORE
10
291.17930
20
162.08450
30
0.0
11
289.31069
21
161.37154
31
0.0
0
LINE
8
SCORE
10
288.37639
20
161.01507
30
0.0
11
286.50778
21
160.30211
31
0.0
0
LINE
8
SCORE
10
285.57348
20
159.94563
30
0.0
11
283.70487
21
159.23268
31
0.0
0
LINE
8
SCORE
10
282.77057
20
158.87620
30
0.0
11
280.90196
21
158.16324
31
0.0
0
LINE
8
SCORE
10
279.96766
20
157.80676
30
0.0
11
278.09905
21
157.09381
31
0.0
0
LINE
8
SCORE
10
277.16475
20
156.73733
30
0.0
11
275.29614
21
156.02437
31
0.0
0
LINE
8
SCORE
10
274.36183
20
155.66790
30
0.0
11
272.49323
21
154.95494
31
0.0
0
LINE
8
SCORE
10
271.55892
20
154.59846
30
0.0
11
269.69032
21
153.88551
31
0.0
0
LINE
8
SCORE
10
268.75601
20
153.52903
30
0.0
11
266.88740
21
152.81607
31
0.0
0
LINE
8
SCORE
10
265.95310
20
152.45959
30
0.0
11
264.08449
21
151.74664
31
0.0
0
LINE
8
SCORE
10
263.15019
20
151.39016
30
0.0
11
261.28158
21
150.67720
31
0.0
0
LINE
8
SCORE
10
260.34728
20
150.32073
30
0.0
11
258.47867
21
149.60777
31
0.0
0
LINE
8
SCORE
10
257.54437
20
149.25129
30
0.0
11
255.67576
21
148.53834
31
0.0
0
LINE
8
SCORE
10
104.88234
20
350.26053
30
0.0
11
104.80425
21
348.26206
31
0.0
0
LINE
8
SCORE
10
104.76520
20
347.26282
30
0.0
11
104.68711
21
345.26435
31
0.0
0
LINE
8
SCORE
10
104.64807
20
344.26511
30
0.0
11
104.56997
21
342.26663
31
0.0
0
LINE
8
SCORE
10
104.53093
20
341.26740
30
0.0
11
104.45284
21
339.26892
31
0.0
0
LINE
8
SCORE
10
104.41379
20
338.26968
30
0.0
11
104.33570
21
336.27121
31
0.0
0
LINE
8
SCORE
10
104.29666
20
335.27197
30
0.0
11
104.21857
21
333.27350
31
0.0
0
LINE
8
SCORE
10
104.17952
20
332.27426
30
0.0
11
104.10143
21
330.27578
31
0.0
0
LINE
8
SCORE
10
104.06239
20
329.27655
30
0.0
11
103.98430
21
327.27807
31
0.0
0
LINE
8
SCORE
10
103.94525
20
326.27883
30
0.0
11
103.86716
21
324.28036
31
0.0
0
LINE
8
SCORE
10
103.82811
20
323.28112
30
0.0
11
103.75002
21
321.28265
31
0.0
0
LINE
8
SCORE
10
103.71098
20
320.28341
30
0.0
11
103.63289
21
318.28493
31
0.0
0
LINE
8
SCORE
10
103.59384
20
317.28570
30
0.0
11
103.51575
21
315.28722
31
0.0
0
LINE
8
SCORE
10
103.47671
20
314.28799
30
0.0
11
103.39862
21
312.28951
31
0.0
0
LINE
8
SCORE
10
103.35957
20
311.29027
30
0.0
11
103.28148
21
309.29180
31
0.0
0
LINE
8
SCORE
10
103.24244
20
308.29256
30
0.0
11
103.16435
21
306.29409
31
0.0
0
LINE
8
SCORE
10
103.12530
20
305.29485
30
0.0
11
103.04721
21
303.29637
31
0.0
0
LINE
8
SCORE
10
103.00816
20
302.29714
30
0.0
11
102.93007
21
300.29866
31
0.0
0
LINE
8
SCORE
10
102.89103
20
299.29942
30
0.0
11
102.81294
21
297.30095
31
0.0
0
LINE
8
SCORE
10
102.77389
20
296.30171
30
0.0
11
102.69580
21
294.30324
31
0.0
0
LINE
8
SCORE
10
102.65676
20
293.30400
30
0.0
11
102.57867
21
291.30552
31
0.0
0
LINE
8
SCORE
10
102.53962
20
290.30629
30
0.0
11
102.46153
21
288.30781
31
0.0
0
LINE
8
SCORE
10
102.42249
20
287.30857
30
0.0
11
102.34439
21
285.31010
31
0.0
0
LINE
8
SCORE
10
102.30535
20
284.31086
30
0.0
11
102.22726
21
282.31239
31
0.0
0
LINE
8
SCORE
10
102.18821
20
281.31315
30
0.0
11
102.11012
21
279.31467
31
0.0
0
LINE
8
SCORE
10
102.07108
20
278.31544
30
0.0
11
101.99299
21
276.31696
31
0.0
0
LINE
8
SCORE
10
101.95394
20
275.31772
30
0.0
11
101.87585
21
273.31925
31
0.0
0
LINE
8
SCORE
10
101.83681
20
272.32001
30
0.0
11
101.75872
21
270.32154
31
0.0
0
LINE
8
SCORE
10
101.71967
20
269.32230
30
0.0
11
101.64158
21
267.32383
31
0.0
0
LINE
8
SCORE
10
101.60253
20
266.32459
30
0.0
11
101.52444
21
264.32611
31
0.0
0
LINE
8
SCORE
10
101.48540
20
263.32688
30
0.0
11
101.40731
21
261.32840
31
0.0
0
LINE
8
SCORE
10
101.36826
20
260.32916
30
0.0
11
101.29017
21
258.33069
31
0.0
0
LINE
8
SCORE
10
101.25113
20
257.33145
30
0.0
11
101.17304
21
255.33298
31
0.0
0
LINE
8
SCORE
10
101.13399
20
254.33374
30
0.0
11
101.05590
21
252.33526
31
0.0
0
LINE
8
SCORE
10
101.01686
20
251.33603
30
0.0
11
100.93877
21
249.33755
31
0.0
0
LINE
8
SCORE
10
100.89972
20
248.33831
30
0.0
11
100.82163
21
246.33984
31
0.0
0
LINE
8
SCORE
10
100.78258
20
245.34060
30
0.0
11
100.70449
21
243.34213
31
0.0
0
LINE
8
SCORE
10
100.66545
20
242.34289
30
0.0
11
100.58736
21
240.34441
31
0.0
0
LINE
8
SCORE
10
100.54831
20
239.34518
30
0.0
11
100.47022
21
237.34670
31
0.0
0
LINE
8
SCORE
10
100.43118
20
236.34746
30
0.0
11
100.35309
21
234.34899
31
0.0
0
LINE
8
SCORE
10
100.31404
20
233.34975
30
0.0
11
100.23595
21
231.35128
31
0.0
0
LINE
8
SCORE
10
100.19691
20
230.35204
30
0.0
11
100.11881
21
228.35357
31
0.0
0
LINE
8
SCORE
10
100.07977
20
227.35433
30
0.0
11
100.00168
21
225.35585
31
0.0
0
LINE
8
SCORE
10
99.96263
20
224.35662
30
0.0
11
99.88454
21
222.35814
31
0.0
0
LINE
8
SCORE
10
99.84550
20
221.35890
30
0.0
11
99.76741
21
219.36043
31
0.0
0
LINE
8
SCORE
10
99.72836
20
218.36119
30
0.0
11
99.65027
21
216.36272
31
0.0
0
LINE
8
SCORE
10
99.61123
20
215.36348
30
0.0
11
99.53314
21
213.36500
31
0.0
0
LINE
8
SCORE
10
99.49409
20
212.36577
30
0.0
11
99.41600
21
210.36729
31
0.0
0
LINE
8
SCORE
10
99.37695
20
209.36805
30
0.0
11
99.29886
21
207.36958
31
0.0
0
LINE
8
SCORE
10
99.25982
20
206.37034
30
0.0
11
99.18173
21
204.37187
31
0.0
0
LINE
8
SCORE
10
99.14268
20
203.37263
30
0.0
11
99.06459
21
201.37415
31
0.0
0
LINE
8
SCORE
10
99.02555
20
200.37492
30
0.0
11
98.94746
21
198.37644
31
0.0
0
LINE
8
SCORE
10
98.90841
20
197.37720
30
0.0
11
98.83032
21
195.37873
31
0.0
0
LINE
8
SCORE
10
98.79128
20
194.37949
30
0.0
11
98.71319
21
192.38102
31
0.0
0
LINE
8
SCORE
10
98.67414
20
191.38178
30
0.0
11
98.59605
21
189.38330
31
0.0
0
LINE
8
SCORE
10
98.55700
20
188.38407
30
0.0
11
98.47891
21
186.38559
31
0.0
0
LINE
8
SCORE
10
98.43987
20
185.38636
30
0.0
11
98.36178
21
183.38788
31
0.0
0
LINE
8
SCORE
10
98.32273
20
182.38864
30
0.0
11
98.24464
21
180.39017
31
0.0
0
LINE
8
SCORE
10
98.20560
20
179.39093
30
0.0
11
98.12751
21
177.39246
31
0.0
0
LINE
8
SCORE
10
98.08846
20
176.39322
30
0.0
11
98.01037
21
174.39474
31
0.0
0
LINE
8
SCORE
10
97.97133
20
173.39551
30
0.0
11
97.89323
21
171.39703
31
0.0
0
LINE
8
SCORE
10
97.85419
20
170.39779
30
0.0
11
97.77610
21
168.39932
31
0.0
0
LINE
8
SCORE
10
97.73705
20
167.40008
30
0.0
11
97.65896
21
165.40161
31
0.0
0
LINE
8
SCORE
10
97.61992
20
164.40237
30
0.0
11
97.54183
21
162.40389
31
0.0
0
LINE
8
SCORE
10
97.50278
20
161.40466
30
0.0
11
97.42469
21
159.40618
31
0.0
0
LINE
8
SCORE
10
97.38565
20
158.40694
30
0.0
11
97.30756
21
156.40847
31
0.0
0
LINE
8
SCORE
10
97.26851
20
155.40923
30
0.0
11
97.19042
21
153.41076
31
0.0
0
LINE
8
SCORE
10
97.15137
20
152.41152
30
0.0
11
97.07328
21
150.41304
31
0.0
0
LINE
8
SCORE
10
97.03424
20
149.41381
30
0.0
11
96.96618
21
147.67200
31
0.0
0
LINE
8
SCORE2
10
259.76112
20
140.06304
30
0.0
11
174.24787
21
364.18722
31
0.0
0
LINE
8
SCORE2
10
347.23752
20
183.47318
30
0.0
11
255.13453
21
148.33183
31
0.0
0
LINE
8
SCORE2
10
104.88234
20
350.26053
30
0.0
11
96.96618
21
147.67200
31
0.0
0
ENDSEC
0
EOF
