0
SECTION
2
ENTITIES
0
POLYLINE
8
CUT
66
1
70
1
0
VERTEX
8
CUT
10
-0.00000
20
8.04549
30
0.0
0
VERTEX
8
CUT
10
0.82826
20
6.01154
30
0.0
0
VERTEX
8
CUT
10
0.40895
20
2.87864
30
0.0
0
VERTEX
8
CUT
10
4.17854
20
2.37411
30
0.0
0
VERTEX
8
CUT
10
4.17828
20
2.37216
30
0.0
0
VERTEX
8
CUT
10
4.07976
20
2.38535
30
0.0
0
VERTEX
8
CUT
10
4.84056
20
2.22336
30
0.0
0
VERTEX
8
CUT
10
5.60968
20
1.99073
30
0.0
0
VERTEX
8
CUT
10
6.35660
20
1.69446
30
0.0
0
VERTEX
8
CUT
10
6.96394
20
1.39238
30
0.0
0
VERTEX
8
CUT
10
6.96109
20
1.38570
30
0.0
0
VERTEX
8
CUT
10
7.74498
20
1.05099
30
0.0
0
VERTEX
8
CUT
10
7.86521
20
1.00590
30
0.0
0
VERTEX
8
CUT
10
7.98541
20
0.96075
30
0.0
0
VERTEX
8
CUT
10
8.10558
20
0.91554
30
0.0
0
VERTEX
8
CUT
10
8.22574
20
0.87027
30
0.0
0
VERTEX
8
CUT
10
8.34587
20
0.82494
30
0.0
0
VERTEX
8
CUT
10
8.46598
20
0.77956
30
0.0
0
VERTEX
8
CUT
10
8.58607
20
0.73411
30
0.0
0
VERTEX
8
CUT
10
8.70613
20
0.68862
30
0.0
0
VERTEX
8
CUT
10
8.82618
20
0.64306
30
0.0
0
VERTEX
8
CUT
10
8.94621
20
0.59745
30
0.0
0
VERTEX
8
CUT
10
9.06621
20
0.55179
30
0.0
0
VERTEX
8
CUT
10
9.18620
20
0.50608
30
0.0
0
VERTEX
8
CUT
10
9.30616
20
0.46031
30
0.0
0
VERTEX
8
CUT
10
9.42611
20
0.41449
30
0.0
0
VERTEX
8
CUT
10
9.54603
20
0.36863
30
0.0
0
VERTEX
8
CUT
10
9.66594
20
0.32271
30
0.0
0
VERTEX
8
CUT
10
9.78583
20
0.27675
30
0.0
0
VERTEX
8
CUT
10
9.90570
20
0.23073
30
0.0
0
VERTEX
8
CUT
10
10.02556
20
0.18468
30
0.0
0
VERTEX
8
CUT
10
10.14540
20
0.13857
30
0.0
0
VERTEX
8
CUT
10
10.26522
20
0.09243
30
0.0
0
VERTEX
8
CUT
10
10.38502
20
0.04623
30
0.0
0
VERTEX
8
CUT
10
10.50481
20
0.00000
30
0.0
0
VERTEX
8
CUT
10
12.24657
20
4.07921
30
0.0
0
VERTEX
8
CUT
10
14.05640
20
5.54014
30
0.0
0
VERTEX
8
CUT
10
17.25653
20
13.03487
30
0.0
0
VERTEX
8
CUT
10
15.93646
20
13.59852
30
0.0
0
VERTEX
8
CUT
10
16.00599
20
13.70475
30
0.0
0
VERTEX
8
CUT
10
15.52805
20
13.90882
30
0.0
0
VERTEX
8
CUT
10
15.49940
20
13.78514
30
0.0
0
VERTEX
8
CUT
10
14.39786
20
14.25547
30
0.0
0
VERTEX
8
CUT
10
14.46738
20
14.36170
30
0.0
0
VERTEX
8
CUT
10
13.98944
20
14.56577
30
0.0
0
VERTEX
8
CUT
10
13.96079
20
14.44209
30
0.0
0
VERTEX
8
CUT
10
12.78672
20
14.94340
30
0.0
0
VERTEX
8
CUT
10
10.65987
20
9.96229
30
0.0
0
VERTEX
8
CUT
10
10.62883
20
9.97555
30
0.0
0
VERTEX
8
CUT
10
10.68220
20
10.10055
30
0.0
0
VERTEX
8
CUT
10
10.10278
20
10.10055
30
0.0
0
VERTEX
8
CUT
10
9.89278
20
10.31055
30
0.0
0
VERTEX
8
CUT
10
9.41612
20
10.31055
30
0.0
0
VERTEX
8
CUT
10
9.20612
20
10.10055
30
0.0
0
VERTEX
8
CUT
10
8.99612
20
10.10055
30
0.0
0
VERTEX
8
CUT
10
8.78612
20
10.31055
30
0.0
0
VERTEX
8
CUT
10
8.30946
20
10.31055
30
0.0
0
VERTEX
8
CUT
10
8.09946
20
10.10055
30
0.0
0
VERTEX
8
CUT
10
7.88946
20
10.10055
30
0.0
0
VERTEX
8
CUT
10
7.67946
20
10.31055
30
0.0
0
VERTEX
8
CUT
10
6.90946
20
10.31055
30
0.0
0
VERTEX
8
CUT
10
6.69946
20
10.10055
30
0.0
0
VERTEX
8
CUT
10
6.48946
20
10.10055
30
0.0
0
VERTEX
8
CUT
10
6.27946
20
10.31055
30
0.0
0
VERTEX
8
CUT
10
6.01200
20
10.31055
30
0.0
0
VERTEX
8
CUT
10
5.80200
20
10.10055
30
0.0
0
VERTEX
8
CUT
10
5.10138
20
10.10055
30
0.0
0
VERTEX
8
CUT
10
5.21070
20
10.08592
30
0.0
0
VERTEX
8
CUT
10
5.21044
20
10.08396
30
0.0
0
VERTEX
8
CUT
10
0.35973
20
10.73319
30
0.0
0
VERTEX
8
CUT
10
-0.00000
20
8.04549
30
0.0
0
SEQEND
0
POLYLINE
8
CUT
66
1
70
1
0
VERTEX
8
CUT
10
1.74621
20
10.29142
30
0.0
0
VERTEX
8
CUT
10
2.22228
20
10.22770
30
0.0
0
VERTEX
8
CUT
10
2.23990
20
10.35940
30
0.0
0
VERTEX
8
CUT
10
1.76383
20
10.42312
30
0.0
0
VERTEX
8
CUT
10
1.74621
20
10.29142
30
0.0
0
SEQEND
0
POLYLINE
8
CUT
66
1
70
1
0
VERTEX
8
CUT
10
3.40441
20
10.06948
30
0.0
0
VERTEX
8
CUT
10
3.88048
20
10.00577
30
0.0
0
VERTEX
8
CUT
10
3.89811
20
10.13747
30
0.0
0
VERTEX
8
CUT
10
3.42204
20
10.20118
30
0.0
0
VERTEX
8
CUT
10
3.40441
20
10.06948
30
0.0
0
SEQEND
0
LINE
8
SCORE
10
10.62883
20
9.97555
30
0.0
11
10.58245
21
9.86692
31
0.0
0
LINE
8
SCORE
10
10.53607
20
9.75830
30
0.0
11
10.48969
21
9.64968
31
0.0
0
LINE
8
SCORE
10
10.44331
20
9.54106
30
0.0
11
10.39693
21
9.43243
31
0.0
0
LINE
8
SCORE
10
10.35054
20
9.32381
30
0.0
11
10.30416
21
9.21519
31
0.0
0
LINE
8
SCORE
10
10.25778
20
9.10657
30
0.0
11
10.21140
21
8.99794
31
0.0
0
LINE
8
SCORE
10
10.16502
20
8.88932
30
0.0
11
10.11864
21
8.78070
31
0.0
0
LINE
8
SCORE
10
10.07226
20
8.67207
30
0.0
11
10.02588
21
8.56345
31
0.0
0
LINE
8
SCORE
10
9.97950
20
8.45483
30
0.0
11
9.93312
21
8.34621
31
0.0
0
LINE
8
SCORE
10
9.88674
20
8.23758
30
0.0
11
9.84036
21
8.12896
31
0.0
0
LINE
8
SCORE
10
9.79398
20
8.02034
30
0.0
11
9.74760
21
7.91172
31
0.0
0
LINE
8
SCORE
10
9.70122
20
7.80309
30
0.0
11
9.65484
21
7.69447
31
0.0
0
LINE
8
SCORE
10
9.60846
20
7.58585
30
0.0
11
9.56208
21
7.47722
31
0.0
0
LINE
8
SCORE
10
9.51570
20
7.36860
30
0.0
11
9.46932
21
7.25998
31
0.0
0
LINE
8
SCORE
10
9.42294
20
7.15136
30
0.0
11
9.37656
21
7.04273
31
0.0
0
LINE
8
SCORE
10
9.33018
20
6.93411
30
0.0
11
9.28380
21
6.82549
31
0.0
0
LINE
8
SCORE
10
9.23742
20
6.71687
30
0.0
11
9.19104
21
6.60824
31
0.0
0
LINE
8
SCORE
10
9.14466
20
6.49962
30
0.0
11
9.09828
21
6.39100
31
0.0
0
LINE
8
SCORE
10
9.05190
20
6.28237
30
0.0
11
9.00552
21
6.17375
31
0.0
0
LINE
8
SCORE
10
8.95914
20
6.06513
30
0.0
11
8.91276
21
5.95651
31
0.0
0
LINE
8
SCORE
10
8.86638
20
5.84788
30
0.0
11
8.82000
21
5.73926
31
0.0
0
LINE
8
SCORE
10
8.77362
20
5.63064
30
0.0
11
8.72724
21
5.52202
31
0.0
0
LINE
8
SCORE
10
8.68085
20
5.41339
30
0.0
11
8.63447
21
5.30477
31
0.0
0
LINE
8
SCORE
10
8.58809
20
5.19615
30
0.0
11
8.54171
21
5.08752
31
0.0
0
LINE
8
SCORE
10
8.49533
20
4.97890
30
0.0
11
8.44895
21
4.87028
31
0.0
0
LINE
8
SCORE
10
8.40257
20
4.76166
30
0.0
11
8.35619
21
4.65303
31
0.0
0
LINE
8
SCORE
10
8.30981
20
4.54441
30
0.0
11
8.26343
21
4.43579
31
0.0
0
LINE
8
SCORE
10
8.21705
20
4.32716
30
0.0
11
8.17067
21
4.21854
31
0.0
0
LINE
8
SCORE
10
8.12429
20
4.10992
30
0.0
11
8.07791
21
4.00130
31
0.0
0
LINE
8
SCORE
10
8.03153
20
3.89267
30
0.0
11
7.98515
21
3.78405
31
0.0
0
LINE
8
SCORE
10
7.93877
20
3.67543
30
0.0
11
7.89239
21
3.56681
31
0.0
0
LINE
8
SCORE
10
7.84601
20
3.45818
30
0.0
11
7.79963
21
3.34956
31
0.0
0
LINE
8
SCORE
10
7.75325
20
3.24094
30
0.0
11
7.70687
21
3.13231
31
0.0
0
LINE
8
SCORE
10
7.66049
20
3.02369
30
0.0
11
7.61411
21
2.91507
31
0.0
0
LINE
8
SCORE
10
7.56773
20
2.80645
30
0.0
11
7.52135
21
2.69782
31
0.0
0
LINE
8
SCORE
10
7.47497
20
2.58920
30
0.0
11
7.42859
21
2.48058
31
0.0
0
LINE
8
SCORE
10
7.38221
20
2.37196
30
0.0
11
7.33583
21
2.26333
31
0.0
0
LINE
8
SCORE
10
7.28945
20
2.15471
30
0.0
11
7.24307
21
2.04609
31
0.0
0
LINE
8
SCORE
10
7.19669
20
1.93746
30
0.0
11
7.15031
21
1.82884
31
0.0
0
LINE
8
SCORE
10
7.10393
20
1.72022
30
0.0
11
7.05755
21
1.61160
31
0.0
0
LINE
8
SCORE
10
7.01117
20
1.50297
30
0.0
11
6.96478
21
1.39435
31
0.0
0
LINE
8
SCORE
10
5.21044
20
10.08396
30
0.0
11
5.19477
21
9.96690
31
0.0
0
LINE
8
SCORE
10
5.17910
20
9.84983
30
0.0
11
5.16343
21
9.73277
31
0.0
0
LINE
8
SCORE
10
5.14776
20
9.61570
30
0.0
11
5.13210
21
9.49863
31
0.0
0
LINE
8
SCORE
10
5.11643
20
9.38157
30
0.0
11
5.10076
21
9.26450
31
0.0
0
LINE
8
SCORE
10
5.08509
20
9.14743
30
0.0
11
5.06942
21
9.03037
31
0.0
0
LINE
8
SCORE
10
5.05375
20
8.91330
30
0.0
11
5.03809
21
8.79623
31
0.0
0
LINE
8
SCORE
10
5.02242
20
8.67917
30
0.0
11
5.00675
21
8.56210
31
0.0
0
LINE
8
SCORE
10
4.99108
20
8.44504
30
0.0
11
4.97541
21
8.32797
31
0.0
0
LINE
8
SCORE
10
4.95974
20
8.21090
30
0.0
11
4.94408
21
8.09384
31
0.0
0
LINE
8
SCORE
10
4.92841
20
7.97677
30
0.0
11
4.91274
21
7.85970
31
0.0
0
LINE
8
SCORE
10
4.89707
20
7.74264
30
0.0
11
4.88140
21
7.62557
31
0.0
0
LINE
8
SCORE
10
4.86573
20
7.50851
30
0.0
11
4.85007
21
7.39144
31
0.0
0
LINE
8
SCORE
10
4.83440
20
7.27437
30
0.0
11
4.81873
21
7.15731
31
0.0
0
LINE
8
SCORE
10
4.80306
20
7.04024
30
0.0
11
4.78739
21
6.92317
31
0.0
0
LINE
8
SCORE
10
4.77172
20
6.80611
30
0.0
11
4.75605
21
6.68904
31
0.0
0
LINE
8
SCORE
10
4.74039
20
6.57197
30
0.0
11
4.72472
21
6.45491
31
0.0
0
LINE
8
SCORE
10
4.70905
20
6.33784
30
0.0
11
4.69338
21
6.22078
31
0.0
0
LINE
8
SCORE
10
4.67771
20
6.10371
30
0.0
11
4.66204
21
5.98664
31
0.0
0
LINE
8
SCORE
10
4.64638
20
5.86958
30
0.0
11
4.63071
21
5.75251
31
0.0
0
LINE
8
SCORE
10
4.61504
20
5.63544
30
0.0
11
4.59937
21
5.51838
31
0.0
0
LINE
8
SCORE
10
4.58370
20
5.40131
30
0.0
11
4.56803
21
5.28424
31
0.0
0
LINE
8
SCORE
10
4.55237
20
5.16718
30
0.0
11
4.53670
21
5.05011
31
0.0
0
LINE
8
SCORE
10
4.52103
20
4.93305
30
0.0
11
4.50536
21
4.81598
31
0.0
0
LINE
8
SCORE
10
4.48969
20
4.69891
30
0.0
11
4.47402
21
4.58185
31
0.0
0
LINE
8
SCORE
10
4.45836
20
4.46478
30
0.0
11
4.44269
21
4.34771
31
0.0
0
LINE
8
SCORE
10
4.42702
20
4.23065
30
0.0
11
4.41135
21
4.11358
31
0.0
0
LINE
8
SCORE
10
4.39568
20
3.99651
30
0.0
11
4.38001
21
3.87945
31
0.0
0
LINE
8
SCORE
10
4.36434
20
3.76238
30
0.0
11
4.34868
21
3.64532
31
0.0
0
LINE
8
SCORE
10
4.33301
20
3.52825
30
0.0
11
4.31734
21
3.41118
31
0.0
0
LINE
8
SCORE
10
4.30167
20
3.29412
30
0.0
11
4.28600
21
3.17705
31
0.0
0
LINE
8
SCORE
10
4.27033
20
3.05998
30
0.0
11
4.25467
21
2.94292
31
0.0
0
LINE
8
SCORE
10
4.23900
20
2.82585
30
0.0
11
4.22333
21
2.70879
31
0.0
0
LINE
8
SCORE
10
4.20766
20
2.59172
30
0.0
11
4.19199
21
2.47465
31
0.0
0
LINE
8
SCORE
10
15.12967
20
8.05375
30
0.0
11
15.02105
21
8.10013
31
0.0
0
LINE
8
SCORE
10
14.91243
20
8.14651
30
0.0
11
14.80380
21
8.19289
31
0.0
0
LINE
8
SCORE
10
14.69518
20
8.23928
30
0.0
11
14.58656
21
8.28566
31
0.0
0
LINE
8
SCORE
10
14.47793
20
8.33204
30
0.0
11
14.36931
21
8.37842
31
0.0
0
LINE
8
SCORE
10
14.26069
20
8.42480
30
0.0
11
14.15207
21
8.47118
31
0.0
0
LINE
8
SCORE
10
14.04344
20
8.51756
30
0.0
11
13.93482
21
8.56394
31
0.0
0
LINE
8
SCORE
10
13.82620
20
8.61032
30
0.0
11
13.71758
21
8.65670
31
0.0
0
LINE
8
SCORE
10
13.60895
20
8.70308
30
0.0
11
13.50033
21
8.74946
31
0.0
0
LINE
8
SCORE
10
13.39171
20
8.79584
30
0.0
11
13.28308
21
8.84222
31
0.0
0
LINE
8
SCORE
10
13.17446
20
8.88860
30
0.0
11
13.06584
21
8.93498
31
0.0
0
LINE
8
SCORE
10
12.95722
20
8.98136
30
0.0
11
12.84859
21
9.02774
31
0.0
0
LINE
8
SCORE
10
12.73997
20
9.07412
30
0.0
11
12.63135
21
9.12050
31
0.0
0
LINE
8
SCORE
10
12.52273
20
9.16688
30
0.0
11
12.41410
21
9.21326
31
0.0
0
LINE
8
SCORE
10
12.30548
20
9.25964
30
0.0
11
12.19686
21
9.30602
31
0.0
0
LINE
8
SCORE
10
12.08823
20
9.35240
30
0.0
11
11.97961
21
9.39878
31
0.0
0
LINE
8
SCORE
10
11.87099
20
9.44516
30
0.0
11
11.76237
21
9.49154
31
0.0
0
LINE
8
SCORE
10
11.65374
20
9.53792
30
0.0
11
11.54512
21
9.58430
31
0.0
0
LINE
8
SCORE
10
11.43650
20
9.63068
30
0.0
11
11.32788
21
9.67706
31
0.0
0
LINE
8
SCORE
10
11.21925
20
9.72344
30
0.0
11
11.11063
21
9.76982
31
0.0
0
LINE
8
SCORE
10
11.00201
20
9.81620
30
0.0
11
10.89338
21
9.86258
31
0.0
0
LINE
8
SCORE
10
10.78476
20
9.90897
30
0.0
11
10.67614
21
9.95535
31
0.0
0
LINE
8
SCORE2
10
10.62883
20
9.97555
30
0.0
11
6.96394
21
1.39238
31
0.0
0
LINE
8
SCORE2
10
5.21044
20
10.08396
30
0.0
11
4.17854
21
2.37411
31
0.0
0
LINE
8
SCORE2
10
15.12967
20
8.05375
30
0.0
11
10.65987
21
9.96229
31
0.0
0
ENDSEC
0
EOF
