0
SECTION
2
ENTITIES
0
POLYLINE
8
CUT
66
1
70
1
0
VERTEX
8
CUT
10
10.00000
20
10.00000
30
0.0
0
VERTEX
8
CUT
10
38.00000
20
10.00000
30
0.0
0
VERTEX
8
CUT
10
38.00000
20
46.00000
30
0.0
0
VERTEX
8
CUT
10
10.00000
20
46.00000
30
0.0
0
SEQEND
0
POLYLINE
8
CUT
66
1
70
1
0
VERTEX
8
CUT
10
46.00000
20
10.00000
30
0.0
0
VERTEX
8
CUT
10
74.00000
20
10.00000
30
0.0
0
VERTEX
8
CUT
10
74.00000
20
46.00000
30
0.0
0
VERTEX
8
CUT
10
46.00000
20
46.00000
30
0.0
0
SEQEND
0
POLYLINE
8
CUT
66
1
70
1
0
VERTEX
8
CUT
10
82.00000
20
10.00000
30
0.0
0
VERTEX
8
CUT
10
110.00000
20
10.00000
30
0.0
0
VERTEX
8
CUT
10
110.00000
20
46.00000
30
0.0
0
VERTEX
8
CUT
10
82.00000
20
46.00000
30
0.0
0
SEQEND
0
POLYLINE
8
CUT
66
1
70
1
0
VERTEX
8
CUT
10
10.00000
20
54.00000
30
0.0
0
VERTEX
8
CUT
10
38.00000
20
54.00000
30
0.0
0
VERTEX
8
CUT
10
38.00000
20
90.00000
30
0.0
0
VERTEX
8
CUT
10
10.00000
20
90.00000
30
0.0
0
SEQEND
0
POLYLINE
8
CUT
66
1
70
1
0
VERTEX
8
CUT
10
46.00000
20
54.00000
30
0.0
0
VERTEX
8
CUT
10
74.00000
20
54.00000
30
0.0
0
VERTEX
8
CUT
10
74.00000
20
90.00000
30
0.0
0
VERTEX
8
CUT
10
46.00000
20
90.00000
30
0.0
0
SEQEND
0
POLYLINE
8
CUT
66
1
70
1
0
VERTEX
8
CUT
10
82.00000
20
54.00000
30
0.0
0
VERTEX
8
CUT
10
110.00000
20
54.00000
30
0.0
0
VERTEX
8
CUT
10
110.00000
20
90.00000
30
0.0
0
VERTEX
8
CUT
10
82.00000
20
90.00000
30
0.0
0
SEQEND
0
POLYLINE
8
CUT
66
1
70
1
0
VERTEX
8
CUT
10
10.00000
20
98.00000
30
0.0
0
VERTEX
8
CUT
10
38.00000
20
98.00000
30
0.0
0
VERTEX
8
CUT
10
38.00000
20
134.00000
30
0.0
0
VERTEX
8
CUT
10
10.00000
20
134.00000
30
0.0
0
SEQEND
0
POLYLINE
8
CUT
66
1
70
1
0
VERTEX
8
CUT
10
46.00000
20
98.00000
30
0.0
0
VERTEX
8
CUT
10
74.00000
20
98.00000
30
0.0
0
VERTEX
8
CUT
10
74.00000
20
134.00000
30
0.0
0
VERTEX
8
CUT
10
46.00000
20
134.00000
30
0.0
0
SEQEND
0
POLYLINE
8
CUT
66
1
70
1
0
VERTEX
8
CUT
10
82.00000
20
98.00000
30
0.0
0
VERTEX
8
CUT
10
110.00000
20
98.00000
30
0.0
0
VERTEX
8
CUT
10
110.00000
20
134.00000
30
0.0
0
VERTEX
8
CUT
10
82.00000
20
134.00000
30
0.0
0
SEQEND
0
LINE
8
SCORE
10
11.50000
20
28.00000
30
0.0
11
12.50000
21
28.00000
31
0.0
0
LINE
8
SCORE
10
13.00000
20
28.00000
30
0.0
11
14.00000
21
28.00000
31
0.0
0
LINE
8
SCORE
10
14.50000
20
28.00000
30
0.0
11
15.50000
21
28.00000
31
0.0
0
LINE
8
SCORE
10
16.00000
20
28.00000
30
0.0
11
17.00000
21
28.00000
31
0.0
0
LINE
8
SCORE
10
17.50000
20
28.00000
30
0.0
11
18.50000
21
28.00000
31
0.0
0
LINE
8
SCORE
10
19.00000
20
28.00000
30
0.0
11
20.00000
21
28.00000
31
0.0
0
LINE
8
SCORE
10
20.50000
20
28.00000
30
0.0
11
21.50000
21
28.00000
31
0.0
0
LINE
8
SCORE
10
22.00000
20
28.00000
30
0.0
11
23.00000
21
28.00000
31
0.0
0
LINE
8
SCORE
10
23.50000
20
28.00000
30
0.0
11
24.50000
21
28.00000
31
0.0
0
LINE
8
SCORE
10
25.00000
20
28.00000
30
0.0
11
26.00000
21
28.00000
31
0.0
0
LINE
8
SCORE
10
26.50000
20
28.00000
30
0.0
11
27.50000
21
28.00000
31
0.0
0
LINE
8
SCORE
10
28.00000
20
28.00000
30
0.0
11
29.00000
21
28.00000
31
0.0
0
LINE
8
SCORE
10
29.50000
20
28.00000
30
0.0
11
30.50000
21
28.00000
31
0.0
0
LINE
8
SCORE
10
31.00000
20
28.00000
30
0.0
11
32.00000
21
28.00000
31
0.0
0
LINE
8
SCORE
10
32.50000
20
28.00000
30
0.0
11
33.50000
21
28.00000
31
0.0
0
LINE
8
SCORE
10
34.00000
20
28.00000
30
0.0
11
35.00000
21
28.00000
31
0.0
0
LINE
8
SCORE
10
35.50000
20
28.00000
30
0.0
11
36.50000
21
28.00000
31
0.0
0
LINE
8
SCORE
10
47.50000
20
28.00000
30
0.0
11
48.50000
21
28.00000
31
0.0
0
LINE
8
SCORE
10
49.75000
20
28.00000
30
0.0
11
50.75000
21
28.00000
31
0.0
0
LINE
8
SCORE
10
52.00000
20
28.00000
30
0.0
11
53.00000
21
28.00000
31
0.0
0
LINE
8
SCORE
10
54.25000
20
28.00000
30
0.0
11
55.25000
21
28.00000
31
0.0
0
LINE
8
SCORE
10
56.50000
20
28.00000
30
0.0
11
57.50000
21
28.00000
31
0.0
0
LINE
8
SCORE
10
58.75000
20
28.00000
30
0.0
11
59.75000
21
28.00000
31
0.0
0
LINE
8
SCORE
10
61.00000
20
28.00000
30
0.0
11
62.00000
21
28.00000
31
0.0
0
LINE
8
SCORE
10
63.25000
20
28.00000
30
0.0
11
64.25000
21
28.00000
31
0.0
0
LINE
8
SCORE
10
65.50000
20
28.00000
30
0.0
11
66.50000
21
28.00000
31
0.0
0
LINE
8
SCORE
10
67.75000
20
28.00000
30
0.0
11
68.75000
21
28.00000
31
0.0
0
LINE
8
SCORE
10
70.00000
20
28.00000
30
0.0
11
71.00000
21
28.00000
31
0.0
0
LINE
8
SCORE
10
72.25000
20
28.00000
30
0.0
11
72.50000
21
28.00000
31
0.0
0
LINE
8
SCORE
10
83.50000
20
28.00000
30
0.0
11
108.50000
21
28.00000
31
0.0
0
LINE
8
SCORE
10
11.50000
20
72.00000
30
0.0
11
14.00000
21
72.00000
31
0.0
0
LINE
8
SCORE
10
14.50000
20
72.00000
30
0.0
11
17.00000
21
72.00000
31
0.0
0
LINE
8
SCORE
10
17.50000
20
72.00000
30
0.0
11
20.00000
21
72.00000
31
0.0
0
LINE
8
SCORE
10
20.50000
20
72.00000
30
0.0
11
23.00000
21
72.00000
31
0.0
0
LINE
8
SCORE
10
23.50000
20
72.00000
30
0.0
11
26.00000
21
72.00000
31
0.0
0
LINE
8
SCORE
10
26.50000
20
72.00000
30
0.0
11
29.00000
21
72.00000
31
0.0
0
LINE
8
SCORE
10
29.50000
20
72.00000
30
0.0
11
32.00000
21
72.00000
31
0.0
0
LINE
8
SCORE
10
32.50000
20
72.00000
30
0.0
11
35.00000
21
72.00000
31
0.0
0
LINE
8
SCORE
10
35.50000
20
72.00000
30
0.0
11
36.50000
21
72.00000
31
0.0
0
LINE
8
SCORE
10
47.50000
20
72.00000
30
0.0
11
50.00000
21
72.00000
31
0.0
0
LINE
8
SCORE
10
51.25000
20
72.00000
30
0.0
11
53.75000
21
72.00000
31
0.0
0
LINE
8
SCORE
10
55.00000
20
72.00000
30
0.0
11
57.50000
21
72.00000
31
0.0
0
LINE
8
SCORE
10
58.75000
20
72.00000
30
0.0
11
61.25000
21
72.00000
31
0.0
0
LINE
8
SCORE
10
62.50000
20
72.00000
30
0.0
11
65.00000
21
72.00000
31
0.0
0
LINE
8
SCORE
10
66.25000
20
72.00000
30
0.0
11
68.75000
21
72.00000
31
0.0
0
LINE
8
SCORE
10
70.00000
20
72.00000
30
0.0
11
72.50000
21
72.00000
31
0.0
0
LINE
8
SCORE
10
83.50000
20
72.00000
30
0.0
11
108.50000
21
72.00000
31
0.0
0
LINE
8
SCORE
10
11.50000
20
116.00000
30
0.0
11
15.50000
21
116.00000
31
0.0
0
LINE
8
SCORE
10
16.00000
20
116.00000
30
0.0
11
20.00000
21
116.00000
31
0.0
0
LINE
8
SCORE
10
20.50000
20
116.00000
30
0.0
11
24.50000
21
116.00000
31
0.0
0
LINE
8
SCORE
10
25.00000
20
116.00000
30
0.0
11
29.00000
21
116.00000
31
0.0
0
LINE
8
SCORE
10
29.50000
20
116.00000
30
0.0
11
33.50000
21
116.00000
31
0.0
0
LINE
8
SCORE
10
34.00000
20
116.00000
30
0.0
11
36.50000
21
116.00000
31
0.0
0
LINE
8
SCORE
10
47.50000
20
116.00000
30
0.0
11
51.50000
21
116.00000
31
0.0
0
LINE
8
SCORE
10
52.75000
20
116.00000
30
0.0
11
56.75000
21
116.00000
31
0.0
0
LINE
8
SCORE
10
58.00000
20
116.00000
30
0.0
11
62.00000
21
116.00000
31
0.0
0
LINE
8
SCORE
10
63.25000
20
116.00000
30
0.0
11
67.25000
21
116.00000
31
0.0
0
LINE
8
SCORE
10
68.50000
20
116.00000
30
0.0
11
72.50000
21
116.00000
31
0.0
0
LINE
8
SCORE
10
83.50000
20
116.00000
30
0.0
11
108.50000
21
116.00000
31
0.0
0
LINE
8
SCORE2
10
11.50000
20
28.00000
30
0.0
11
36.50000
21
28.00000
31
0.0
0
LINE
8
SCORE2
10
47.50000
20
28.00000
30
0.0
11
72.50000
21
28.00000
31
0.0
0
LINE
8
SCORE2
10
11.50000
20
72.00000
30
0.0
11
36.50000
21
72.00000
31
0.0
0
LINE
8
SCORE2
10
47.50000
20
72.00000
30
0.0
11
72.50000
21
72.00000
31
0.0
0
LINE
8
SCORE2
10
11.50000
20
116.00000
30
0.0
11
36.50000
21
116.00000
31
0.0
0
LINE
8
SCORE2
10
47.50000
20
116.00000
30
0.0
11
72.50000
21
116.00000
31
0.0
0
ENDSEC
0
EOF
