0
SECTION
2
ENTITIES
0
POLYLINE
8
CUT
66
1
70
1
0
VERTEX
8
CUT
10
-0.09843
20
358.09969
30
0.0
0
VERTEX
8
CUT
10
87.32818
20
153.34632
30
0.0
0
VERTEX
8
CUT
10
123.52471
20
124.12778
30
0.0
0
VERTEX
8
CUT
10
176.56647
20
-0.09617
30
0.0
0
VERTEX
8
CUT
10
177.51732
20
0.27299
30
0.0
0
VERTEX
8
CUT
10
179.28391
20
0.95838
30
0.0
0
VERTEX
8
CUT
10
181.05070
20
1.64323
30
0.0
0
VERTEX
8
CUT
10
181.93417
20
1.98545
30
0.0
0
VERTEX
8
CUT
10
183.70128
20
2.66947
30
0.0
0
VERTEX
8
CUT
10
184.58492
20
3.01127
30
0.0
0
VERTEX
8
CUT
10
186.35235
20
3.69444
30
0.0
0
VERTEX
8
CUT
10
187.23615
20
4.03580
30
0.0
0
VERTEX
8
CUT
10
189.00391
20
4.71810
30
0.0
0
VERTEX
8
CUT
10
189.88787
20
5.05902
30
0.0
0
VERTEX
8
CUT
10
191.65597
20
5.74043
30
0.0
0
VERTEX
8
CUT
10
192.54011
20
6.08091
30
0.0
0
VERTEX
8
CUT
10
194.30855
20
6.76141
30
0.0
0
VERTEX
8
CUT
10
195.19286
20
7.10142
30
0.0
0
VERTEX
8
CUT
10
196.96295
20
7.78149
30
0.0
0
VERTEX
8
CUT
10
249.18937
20
30.08139
30
0.0
0
VERTEX
8
CUT
10
260.95464
20
35.47159
30
0.0
0
VERTEX
8
CUT
10
273.10056
20
39.92580
30
0.0
0
VERTEX
8
CUT
10
285.55701
20
43.41868
30
0.0
0
VERTEX
8
CUT
10
298.24803
20
45.92892
30
0.0
0
VERTEX
8
CUT
10
311.09623
20
47.44122
30
0.0
0
VERTEX
8
CUT
10
324.02472
20
47.94640
30
0.0
0
VERTEX
8
CUT
10
402.66232
20
47.94640
30
0.0
0
VERTEX
8
CUT
10
402.66232
20
155.00535
30
0.0
0
VERTEX
8
CUT
10
424.47755
20
192.79043
30
0.0
0
VERTEX
8
CUT
10
424.47755
20
246.63954
30
0.0
0
VERTEX
8
CUT
10
307.95432
20
246.63954
30
0.0
0
VERTEX
8
CUT
10
303.75432
20
250.83954
30
0.0
0
VERTEX
8
CUT
10
288.73891
20
250.83954
30
0.0
0
VERTEX
8
CUT
10
284.53891
20
246.63954
30
0.0
0
VERTEX
8
CUT
10
280.40105
20
246.63954
30
0.0
0
VERTEX
8
CUT
10
276.20105
20
250.83954
30
0.0
0
VERTEX
8
CUT
10
265.44511
20
250.83954
30
0.0
0
VERTEX
8
CUT
10
261.24511
20
246.63954
30
0.0
0
VERTEX
8
CUT
10
257.10724
20
246.63954
30
0.0
0
VERTEX
8
CUT
10
252.90724
20
250.83954
30
0.0
0
VERTEX
8
CUT
10
247.49573
20
250.83954
30
0.0
0
VERTEX
8
CUT
10
243.29573
20
246.63954
30
0.0
0
VERTEX
8
CUT
10
239.15786
20
246.63954
30
0.0
0
VERTEX
8
CUT
10
234.95786
20
250.83954
30
0.0
0
VERTEX
8
CUT
10
219.49573
20
250.83954
30
0.0
0
VERTEX
8
CUT
10
215.29573
20
246.63954
30
0.0
0
VERTEX
8
CUT
10
211.15786
20
246.63954
30
0.0
0
VERTEX
8
CUT
10
206.95786
20
250.83954
30
0.0
0
VERTEX
8
CUT
10
197.36254
20
250.83954
30
0.0
0
VERTEX
8
CUT
10
193.16254
20
246.63954
30
0.0
0
VERTEX
8
CUT
10
189.02467
20
246.63954
30
0.0
0
VERTEX
8
CUT
10
184.82467
20
250.83954
30
0.0
0
VERTEX
8
CUT
10
175.22934
20
250.83954
30
0.0
0
VERTEX
8
CUT
10
171.02934
20
246.63954
30
0.0
0
VERTEX
8
CUT
10
156.80327
20
246.63954
30
0.0
0
VERTEX
8
CUT
10
151.17524
20
259.82041
30
0.0
0
VERTEX
8
CUT
10
149.51982
20
259.11357
30
0.0
0
VERTEX
8
CUT
10
142.53661
20
275.46829
30
0.0
0
VERTEX
8
CUT
10
144.19202
20
276.17512
30
0.0
0
VERTEX
8
CUT
10
142.48383
20
280.17570
30
0.0
0
VERTEX
8
CUT
10
140.82842
20
279.46886
30
0.0
0
VERTEX
8
CUT
10
133.84520
20
295.82358
30
0.0
0
VERTEX
8
CUT
10
135.50061
20
296.53042
30
0.0
0
VERTEX
8
CUT
10
133.79243
20
300.53099
30
0.0
0
VERTEX
8
CUT
10
132.13702
20
299.82416
30
0.0
0
VERTEX
8
CUT
10
122.84999
20
321.57441
30
0.0
0
VERTEX
8
CUT
10
124.50540
20
322.28124
30
0.0
0
VERTEX
8
CUT
10
122.79721
20
326.28182
30
0.0
0
VERTEX
8
CUT
10
121.14180
20
325.57498
30
0.0
0
VERTEX
8
CUT
10
115.80151
20
338.08196
30
0.0
0
VERTEX
8
CUT
10
117.45692
20
338.78880
30
0.0
0
VERTEX
8
CUT
10
115.74874
20
342.78937
30
0.0
0
VERTEX
8
CUT
10
114.09333
20
342.08254
30
0.0
0
VERTEX
8
CUT
10
106.65435
20
359.50463
30
0.0
0
VERTEX
8
CUT
10
108.30976
20
360.21146
30
0.0
0
VERTEX
8
CUT
10
106.60158
20
364.21204
30
0.0
0
VERTEX
8
CUT
10
104.94617
20
363.50520
30
0.0
0
VERTEX
8
CUT
10
95.83456
20
384.84462
30
0.0
0
VERTEX
8
CUT
10
97.48997
20
385.55145
30
0.0
0
VERTEX
8
CUT
10
92.35560
20
397.57617
30
0.0
0
VERTEX
8
CUT
10
67.15949
20
386.81781
30
0.0
0
VERTEX
8
CUT
10
66.56159
20
390.01484
30
0.0
0
VERTEX
8
CUT
10
53.97404
20
384.64014
30
0.0
0
VERTEX
8
CUT
10
55.86970
20
381.99724
30
0.0
0
VERTEX
8
CUT
10
36.38747
20
373.67862
30
0.0
0
VERTEX
8
CUT
10
35.78957
20
376.87565
30
0.0
0
VERTEX
8
CUT
10
23.20202
20
371.50095
30
0.0
0
VERTEX
8
CUT
10
25.09768
20
368.85805
30
0.0
0
VERTEX
8
CUT
10
-0.09843
20
358.09969
30
0.0
0
SEQEND
0
POLYLINE
8
CUT
66
1
70
1
0
VERTEX
8
CUT
10
351.45802
20
240.18954
30
0.0
0
VERTEX
8
CUT
10
363.50802
20
240.18954
30
0.0
0
VERTEX
8
CUT
10
363.50802
20
243.41454
30
0.0
0
VERTEX
8
CUT
10
351.45802
20
243.41454
30
0.0
0
VERTEX
8
CUT
10
351.45802
20
240.18954
30
0.0
0
SEQEND
0
POLYLINE
8
CUT
66
1
70
1
0
VERTEX
8
CUT
10
384.91779
20
240.18954
30
0.0
0
VERTEX
8
CUT
10
396.96779
20
240.18954
30
0.0
0
VERTEX
8
CUT
10
396.96779
20
243.41454
30
0.0
0
VERTEX
8
CUT
10
384.91779
20
243.41454
30
0.0
0
VERTEX
8
CUT
10
384.91779
20
240.18954
30
0.0
0
SEQEND
0
LINE
8
SCORE
10
156.75374
20
246.56454
30
0.0
11
158.71717
21
241.96617
31
0.0
0
LINE
8
SCORE
10
160.68061
20
237.36781
30
0.0
11
162.64404
21
232.76945
31
0.0
0
LINE
8
SCORE
10
164.60747
20
228.17109
30
0.0
11
166.57090
21
223.57272
31
0.0
0
LINE
8
SCORE
10
168.53433
20
218.97436
30
0.0
11
170.49776
21
214.37600
31
0.0
0
LINE
8
SCORE
10
172.46119
20
209.77764
30
0.0
11
174.42463
21
205.17927
31
0.0
0
LINE
8
SCORE
10
176.38806
20
200.58091
30
0.0
11
178.35149
21
195.98255
31
0.0
0
LINE
8
SCORE
10
180.31492
20
191.38419
30
0.0
11
182.27835
21
186.78583
31
0.0
0
LINE
8
SCORE
10
184.24178
20
182.18746
30
0.0
11
186.20522
21
177.58910
31
0.0
0
LINE
8
SCORE
10
188.16865
20
172.99074
30
0.0
11
190.13208
21
168.39238
31
0.0
0
LINE
8
SCORE
10
192.09551
20
163.79401
30
0.0
11
194.05894
21
159.19565
31
0.0
0
LINE
8
SCORE
10
196.02237
20
154.59729
30
0.0
11
197.98581
21
149.99893
31
0.0
0
LINE
8
SCORE
10
199.94924
20
145.40056
30
0.0
11
201.91267
21
140.80220
31
0.0
0
LINE
8
SCORE
10
203.87610
20
136.20384
30
0.0
11
205.83953
21
131.60548
31
0.0
0
LINE
8
SCORE
10
207.80296
20
127.00711
30
0.0
11
209.76639
21
122.40875
31
0.0
0
LINE
8
SCORE
10
211.72983
20
117.81039
30
0.0
11
213.69326
21
113.21203
31
0.0
0
LINE
8
SCORE
10
215.65669
20
108.61367
30
0.0
11
217.62012
21
104.01530
31
0.0
0
LINE
8
SCORE
10
219.58355
20
99.41694
30
0.0
11
221.54698
21
94.81858
31
0.0
0
LINE
8
SCORE
10
223.51042
20
90.22022
30
0.0
11
225.47385
21
85.62185
31
0.0
0
LINE
8
SCORE
10
227.43728
20
81.02349
30
0.0
11
229.40071
21
76.42513
31
0.0
0
LINE
8
SCORE
10
231.36414
20
71.82677
30
0.0
11
233.32757
21
67.22840
31
0.0
0
LINE
8
SCORE
10
235.29101
20
62.63004
30
0.0
11
237.25444
21
58.03168
31
0.0
0
LINE
8
SCORE
10
239.21787
20
53.43332
30
0.0
11
241.18130
21
48.83495
31
0.0
0
LINE
8
SCORE
10
243.14473
20
44.23659
30
0.0
11
245.10816
21
39.63823
31
0.0
0
LINE
8
SCORE
10
247.07159
20
35.03987
30
0.0
11
249.03503
21
30.44151
31
0.0
0
LINE
8
SCORE
10
324.02326
20
48.02140
30
0.0
11
324.02326
21
53.02140
31
0.0
0
LINE
8
SCORE
10
324.02326
20
58.02140
30
0.0
11
324.02326
21
63.02140
31
0.0
0
LINE
8
SCORE
10
324.02326
20
68.02140
30
0.0
11
324.02326
21
73.02140
31
0.0
0
LINE
8
SCORE
10
324.02326
20
78.02140
30
0.0
11
324.02326
21
83.02140
31
0.0
0
LINE
8
SCORE
10
324.02326
20
88.02140
30
0.0
11
324.02326
21
93.02140
31
0.0
0
LINE
8
SCORE
10
324.02326
20
98.02140
30
0.0
11
324.02326
21
103.02140
31
0.0
0
LINE
8
SCORE
10
324.02326
20
108.02140
30
0.0
11
324.02326
21
113.02140
31
0.0
0
LINE
8
SCORE
10
324.02326
20
118.02140
30
0.0
11
324.02326
21
123.02140
31
0.0
0
LINE
8
SCORE
10
324.02326
20
128.02140
30
0.0
11
324.02326
21
133.02140
31
0.0
0
LINE
8
SCORE
10
324.02326
20
138.02140
30
0.0
11
324.02326
21
143.02140
31
0.0
0
LINE
8
SCORE
10
324.02326
20
148.02140
30
0.0
11
324.02326
21
153.02140
31
0.0
0
LINE
8
SCORE
10
324.02326
20
158.02140
30
0.0
11
324.02326
21
163.02140
31
0.0
0
LINE
8
SCORE
10
324.02326
20
168.02140
30
0.0
11
324.02326
21
173.02140
31
0.0
0
LINE
8
SCORE
10
324.02326
20
178.02140
30
0.0
11
324.02326
21
183.02140
31
0.0
0
LINE
8
SCORE
10
324.02326
20
188.02140
30
0.0
11
324.02326
21
193.02140
31
0.0
0
LINE
8
SCORE
10
324.02326
20
198.02140
30
0.0
11
324.02326
21
203.02140
31
0.0
0
LINE
8
SCORE
10
324.02326
20
208.02140
30
0.0
11
324.02326
21
213.02140
31
0.0
0
LINE
8
SCORE
10
324.02326
20
218.02140
30
0.0
11
324.02326
21
223.02140
31
0.0
0
LINE
8
SCORE
10
324.02326
20
228.02140
30
0.0
11
324.02326
21
233.02140
31
0.0
0
LINE
8
SCORE
10
324.02326
20
238.02140
30
0.0
11
324.02326
21
243.02140
31
0.0
0
LINE
8
SCORE
10
64.43767
20
207.14696
30
0.0
11
69.03603
21
209.11039
31
0.0
0
LINE
8
SCORE
10
73.63440
20
211.07383
30
0.0
11
78.23276
21
213.03726
31
0.0
0
LINE
8
SCORE
10
82.83112
20
215.00069
30
0.0
11
87.42948
21
216.96412
31
0.0
0
LINE
8
SCORE
10
92.02785
20
218.92755
30
0.0
11
96.62621
21
220.89098
31
0.0
0
LINE
8
SCORE
10
101.22457
20
222.85441
30
0.0
11
105.82293
21
224.81785
31
0.0
0
LINE
8
SCORE
10
110.42129
20
226.78128
30
0.0
11
115.01966
21
228.74471
31
0.0
0
LINE
8
SCORE
10
119.61802
20
230.70814
30
0.0
11
124.21638
21
232.67157
31
0.0
0
LINE
8
SCORE
10
128.81474
20
234.63500
30
0.0
11
133.41311
21
236.59844
31
0.0
0
LINE
8
SCORE
10
138.01147
20
238.56187
30
0.0
11
142.60983
21
240.52530
31
0.0
0
LINE
8
SCORE
10
147.20819
20
242.48873
30
0.0
11
151.80656
21
244.45216
31
0.0
0
LINE
8
SCORE
10
156.40492
20
246.41559
30
0.0
11
156.75374
21
246.56454
31
0.0
0
LINE
8
SCORE2
10
156.75374
20
246.56454
30
0.0
11
249.15943
21
30.15016
31
0.0
0
LINE
8
SCORE2
10
324.02326
20
48.02140
30
0.0
11
324.02326
21
246.56454
31
0.0
0
LINE
8
SCORE2
10
64.43767
20
207.14696
30
0.0
11
156.75374
21
246.56454
31
0.0
0
ENDSEC
0
EOF
