0
SECTION
2
ENTITIES
0
POLYLINE
8
CUT
66
1
70
1
0
VERTEX
8
CUT
10
-0.09843
20
358.09969
30
0.0
0
VERTEX
8
CUT
10
87.32818
20
153.34632
30
0.0
0
VERTEX
8
CUT
10
123.52471
20
124.12778
30
0.0
0
VERTEX
8
CUT
10
176.56647
20
-0.09617
30
0.0
0
VERTEX
8
CUT
10
177.51732
20
0.27299
30
0.0
0
VERTEX
8
CUT
10
179.28391
20
0.95838
30
0.0
0
VERTEX
8
CUT
10
181.05070
20
1.64323
30
0.0
0
VERTEX
8
CUT
10
181.93417
20
1.98545
30
0.0
0
VERTEX
8
CUT
10
183.70128
20
2.66947
30
0.0
0
VERTEX
8
CUT
10
184.58492
20
3.01127
30
0.0
0
VERTEX
8
CUT
10
186.35235
20
3.69444
30
0.0
0
VERTEX
8
CUT
10
187.23615
20
4.03580
30
0.0
0
VERTEX
8
CUT
10
189.00391
20
4.71810
30
0.0
0
VERTEX
8
CUT
10
189.88787
20
5.05902
30
0.0
0
VERTEX
8
CUT
10
191.65597
20
5.74043
30
0.0
0
VERTEX
8
CUT
10
192.54011
20
6.08091
30
0.0
0
VERTEX
8
CUT
10
194.30855
20
6.76141
30
0.0
0
VERTEX
8
CUT
10
195.19286
20
7.10142
30
0.0
0
VERTEX
8
CUT
10
196.96295
20
7.78149
30
0.0
0
VERTEX
8
CUT
10
249.18937
20
30.08139
30
0.0
0
VERTEX
8
CUT
10
260.95464
20
35.47159
30
0.0
0
VERTEX
8
CUT
10
273.10056
20
39.92580
30
0.0
0
VERTEX
8
CUT
10
285.55701
20
43.41868
30
0.0
0
VERTEX
8
CUT
10
298.24803
20
45.92892
30
0.0
0
VERTEX
8
CUT
10
311.09623
20
47.44122
30
0.0
0
VERTEX
8
CUT
10
324.02472
20
47.94640
30
0.0
0
VERTEX
8
CUT
10
402.66232
20
47.94640
30
0.0
0
VERTEX
8
CUT
10
402.66232
20
155.00535
30
0.0
0
VERTEX
8
CUT
10
424.47755
20
192.79043
30
0.0
0
VERTEX
8
CUT
10
424.47755
20
246.63954
30
0.0
0
VERTEX
8
CUT
10
307.95432
20
246.63954
30
0.0
0
VERTEX
8
CUT
10
303.75432
20
250.83954
30
0.0
0
VERTEX
8
CUT
10
288.73891
20
250.83954
30
0.0
0
VERTEX
8
CUT
10
284.53891
20
246.63954
30
0.0
0
VERTEX
8
CUT
10
280.40105
20
246.63954
30
0.0
0
VERTEX
8
CUT
10
276.20105
20
250.83954
30
0.0
0
VERTEX
8
CUT
10
265.44511
20
250.83954
30
0.0
0
VERTEX
8
CUT
10
261.24511
20
246.63954
30
0.0
0
VERTEX
8
CUT
10
257.10724
20
246.63954
30
0.0
0
VERTEX
8
CUT
10
252.90724
20
250.83954
30
0.0
0
VERTEX
8
CUT
10
247.49573
20
250.83954
30
0.0
0
VERTEX
8
CUT
10
243.29573
20
246.63954
30
0.0
0
VERTEX
8
CUT
10
239.15786
20
246.63954
30
0.0
0
VERTEX
8
CUT
10
234.95786
20
250.83954
30
0.0
0
VERTEX
8
CUT
10
219.49573
20
250.83954
30
0.0
0
VERTEX
8
CUT
10
215.29573
20
246.63954
30
0.0
0
VERTEX
8
CUT
10
211.15786
20
246.63954
30
0.0
0
VERTEX
8
CUT
10
206.95786
20
250.83954
30
0.0
0
VERTEX
8
CUT
10
197.36254
20
250.83954
30
0.0
0
VERTEX
8
CUT
10
193.16254
20
246.63954
30
0.0
0
VERTEX
8
CUT
10
189.02467
20
246.63954
30
0.0
0
VERTEX
8
CUT
10
184.82467
20
250.83954
30
0.0
0
VERTEX
8
CUT
10
175.22934
20
250.83954
30
0.0
0
VERTEX
8
CUT
10
171.02934
20
246.63954
30
0.0
0
VERTEX
8
CUT
10
156.80327
20
246.63954
30
0.0
0
VERTEX
8
CUT
10
151.17524
20
259.82041
30
0.0
0
VERTEX
8
CUT
10
149.51982
20
259.11357
30
0.0
0
VERTEX
8
CUT
10
142.53661
20
275.46829
30
0.0
0
VERTEX
8
CUT
10
144.19202
20
276.17512
30
0.0
0
VERTEX
8
CUT
10
142.48383
20
280.17570
30
0.0
0
VERTEX
8
CUT
10
140.82842
20
279.46886
30
0.0
0
VERTEX
8
CUT
10
133.84520
20
295.82358
30
0.0
0
VERTEX
8
CUT
10
135.50061
20
296.53042
30
0.0
0
VERTEX
8
CUT
10
133.79243
20
300.53099
30
0.0
0
VERTEX
8
CUT
10
132.13702
20
299.82416
30
0.0
0
VERTEX
8
CUT
10
122.84999
20
321.57441
30
0.0
0
VERTEX
8
CUT
10
124.50540
20
322.28124
30
0.0
0
VERTEX
8
CUT
10
122.79721
20
326.28182
30
0.0
0
VERTEX
8
CUT
10
121.14180
20
325.57498
30
0.0
0
VERTEX
8
CUT
10
115.80151
20
338.08196
30
0.0
0
VERTEX
8
CUT
10
117.45692
20
338.78880
30
0.0
0
VERTEX
8
CUT
10
115.74874
20
342.78937
30
0.0
0
VERTEX
8
CUT
10
114.09333
20
342.08254
30
0.0
0
VERTEX
8
CUT
10
106.65435
20
359.50463
30
0.0
0
VERTEX
8
CUT
10
108.30976
20
360.21146
30
0.0
0
VERTEX
8
CUT
10
106.60158
20
364.21204
30
0.0
0
VERTEX
8
CUT
10
104.94617
20
363.50520
30
0.0
0
VERTEX
8
CUT
10
95.83456
20
384.84462
30
0.0
0
VERTEX
8
CUT
10
97.48997
20
385.55145
30
0.0
0
VERTEX
8
CUT
10
92.35560
20
397.57617
30
0.0
0
VERTEX
8
CUT
10
67.14765
20
386.81276
30
0.0
0
VERTEX
8
CUT
10
66.41997
20
389.95437
30
0.0
0
VERTEX
8
CUT
10
54.11566
20
384.70061
30
0.0
0
VERTEX
8
CUT
10
55.88154
20
382.00230
30
0.0
0
VERTEX
8
CUT
10
36.37563
20
373.67357
30
0.0
0
VERTEX
8
CUT
10
35.64795
20
376.81518
30
0.0
0
VERTEX
8
CUT
10
23.34364
20
371.56142
30
0.0
0
VERTEX
8
CUT
10
25.10952
20
368.86311
30
0.0
0
VERTEX
8
CUT
10
-0.09843
20
358.09969
30
0.0
0
SEQEND
0
POLYLINE
8
CUT
66
1
70
1
0
VERTEX
8
CUT
10
351.45802
20
240.18954
30
0.0
0
VERTEX
8
CUT
10
363.50802
20
240.18954
30
0.0
0
VERTEX
8
CUT
10
363.50802
20
243.41454
30
0.0
0
VERTEX
8
CUT
10
351.45802
20
243.41454
30
0.0
0
VERTEX
8
CUT
10
351.45802
20
240.18954
30
0.0
0
SEQEND
0
POLYLINE
8
CUT
66
1
70
1
0
VERTEX
8
CUT
10
384.91779
20
240.18954
30
0.0
0
VERTEX
8
CUT
10
396.96779
20
240.18954
30
0.0
0
VERTEX
8
CUT
10
396.96779
20
243.41454
30
0.0
0
VERTEX
8
CUT
10
384.91779
20
243.41454
30
0.0
0
VERTEX
8
CUT
10
384.91779
20
240.18954
30
0.0
0
SEQEND
0
LINE
8
SCORE
10
156.75374
20
246.56454
30
0.0
11
157.93180
21
243.80552
31
0.0
0
LINE
8
SCORE
10
159.10986
20
241.04650
30
0.0
11
160.28792
21
238.28748
31
0.0
0
LINE
8
SCORE
10
161.46598
20
235.52847
30
0.0
11
162.64404
21
232.76945
31
0.0
0
LINE
8
SCORE
10
163.82210
20
230.01043
30
0.0
11
165.00015
21
227.25141
31
0.0
0
LINE
8
SCORE
10
166.17821
20
224.49240
30
0.0
11
167.35627
21
221.73338
31
0.0
0
LINE
8
SCORE
10
168.53433
20
218.97436
30
0.0
11
169.71239
21
216.21534
31
0.0
0
LINE
8
SCORE
10
170.89045
20
213.45633
30
0.0
11
172.06851
21
210.69731
31
0.0
0
LINE
8
SCORE
10
173.24657
20
207.93829
30
0.0
11
174.42463
21
205.17927
31
0.0
0
LINE
8
SCORE
10
175.60269
20
202.42026
30
0.0
11
176.78074
21
199.66124
31
0.0
0
LINE
8
SCORE
10
177.95880
20
196.90222
30
0.0
11
179.13686
21
194.14321
31
0.0
0
LINE
8
SCORE
10
180.31492
20
191.38419
30
0.0
11
181.49298
21
188.62517
31
0.0
0
LINE
8
SCORE
10
182.67104
20
185.86615
30
0.0
11
183.84910
21
183.10714
31
0.0
0
LINE
8
SCORE
10
185.02716
20
180.34812
30
0.0
11
186.20522
21
177.58910
31
0.0
0
LINE
8
SCORE
10
187.38327
20
174.83008
30
0.0
11
188.56133
21
172.07107
31
0.0
0
LINE
8
SCORE
10
189.73939
20
169.31205
30
0.0
11
190.91745
21
166.55303
31
0.0
0
LINE
8
SCORE
10
192.09551
20
163.79401
30
0.0
11
193.27357
21
161.03500
31
0.0
0
LINE
8
SCORE
10
194.45163
20
158.27598
30
0.0
11
195.62969
21
155.51696
31
0.0
0
LINE
8
SCORE
10
196.80775
20
152.75794
30
0.0
11
197.98581
21
149.99893
31
0.0
0
LINE
8
SCORE
10
199.16386
20
147.23991
30
0.0
11
200.34192
21
144.48089
31
0.0
0
LINE
8
SCORE
10
201.51998
20
141.72187
30
0.0
11
202.69804
21
138.96286
31
0.0
0
LINE
8
SCORE
10
203.87610
20
136.20384
30
0.0
11
205.05416
21
133.44482
31
0.0
0
LINE
8
SCORE
10
206.23222
20
130.68580
30
0.0
11
207.41028
21
127.92679
31
0.0
0
LINE
8
SCORE
10
208.58834
20
125.16777
30
0.0
11
209.76639
21
122.40875
31
0.0
0
LINE
8
SCORE
10
210.94445
20
119.64973
30
0.0
11
212.12251
21
116.89072
31
0.0
0
LINE
8
SCORE
10
213.30057
20
114.13170
30
0.0
11
214.47863
21
111.37268
31
0.0
0
LINE
8
SCORE
10
215.65669
20
108.61367
30
0.0
11
216.83475
21
105.85465
31
0.0
0
LINE
8
SCORE
10
218.01281
20
103.09563
30
0.0
11
219.19087
21
100.33661
31
0.0
0
LINE
8
SCORE
10
220.36893
20
97.57760
30
0.0
11
221.54698
21
94.81858
31
0.0
0
LINE
8
SCORE
10
222.72504
20
92.05956
30
0.0
11
223.90310
21
89.30054
31
0.0
0
LINE
8
SCORE
10
225.08116
20
86.54153
30
0.0
11
226.25922
21
83.78251
31
0.0
0
LINE
8
SCORE
10
227.43728
20
81.02349
30
0.0
11
228.61534
21
78.26447
31
0.0
0
LINE
8
SCORE
10
229.79340
20
75.50546
30
0.0
11
230.97146
21
72.74644
31
0.0
0
LINE
8
SCORE
10
232.14951
20
69.98742
30
0.0
11
233.32757
21
67.22840
31
0.0
0
LINE
8
SCORE
10
234.50563
20
64.46939
30
0.0
11
235.68369
21
61.71037
31
0.0
0
LINE
8
SCORE
10
236.86175
20
58.95135
30
0.0
11
238.03981
21
56.19233
31
0.0
0
LINE
8
SCORE
10
239.21787
20
53.43332
30
0.0
11
240.39593
21
50.67430
31
0.0
0
LINE
8
SCORE
10
241.57399
20
47.91528
30
0.0
11
242.75205
21
45.15626
31
0.0
0
LINE
8
SCORE
10
243.93010
20
42.39725
30
0.0
11
245.10816
21
39.63823
31
0.0
0
LINE
8
SCORE
10
246.28622
20
36.87921
30
0.0
11
247.46428
21
34.12019
31
0.0
0
LINE
8
SCORE
10
248.64234
20
31.36118
30
0.0
11
249.15943
21
30.15016
31
0.0
0
LINE
8
SCORE
10
324.02326
20
48.02140
30
0.0
11
324.02326
21
51.02140
31
0.0
0
LINE
8
SCORE
10
324.02326
20
54.02140
30
0.0
11
324.02326
21
57.02140
31
0.0
0
LINE
8
SCORE
10
324.02326
20
60.02140
30
0.0
11
324.02326
21
63.02140
31
0.0
0
LINE
8
SCORE
10
324.02326
20
66.02140
30
0.0
11
324.02326
21
69.02140
31
0.0
0
LINE
8
SCORE
10
324.02326
20
72.02140
30
0.0
11
324.02326
21
75.02140
31
0.0
0
LINE
8
SCORE
10
324.02326
20
78.02140
30
0.0
11
324.02326
21
81.02140
31
0.0
0
LINE
8
SCORE
10
324.02326
20
84.02140
30
0.0
11
324.02326
21
87.02140
31
0.0
0
LINE
8
SCORE
10
324.02326
20
90.02140
30
0.0
11
324.02326
21
93.02140
31
0.0
0
LINE
8
SCORE
10
324.02326
20
96.02140
30
0.0
11
324.02326
21
99.02140
31
0.0
0
LINE
8
SCORE
10
324.02326
20
102.02140
30
0.0
11
324.02326
21
105.02140
31
0.0
0
LINE
8
SCORE
10
324.02326
20
108.02140
30
0.0
11
324.02326
21
111.02140
31
0.0
0
LINE
8
SCORE
10
324.02326
20
114.02140
30
0.0
11
324.02326
21
117.02140
31
0.0
0
LINE
8
SCORE
10
324.02326
20
120.02140
30
0.0
11
324.02326
21
123.02140
31
0.0
0
LINE
8
SCORE
10
324.02326
20
126.02140
30
0.0
11
324.02326
21
129.02140
31
0.0
0
LINE
8
SCORE
10
324.02326
20
132.02140
30
0.0
11
324.02326
21
135.02140
31
0.0
0
LINE
8
SCORE
10
324.02326
20
138.02140
30
0.0
11
324.02326
21
141.02140
31
0.0
0
LINE
8
SCORE
10
324.02326
20
144.02140
30
0.0
11
324.02326
21
147.02140
31
0.0
0
LINE
8
SCORE
10
324.02326
20
150.02140
30
0.0
11
324.02326
21
153.02140
31
0.0
0
LINE
8
SCORE
10
324.02326
20
156.02140
30
0.0
11
324.02326
21
159.02140
31
0.0
0
LINE
8
SCORE
10
324.02326
20
162.02140
30
0.0
11
324.02326
21
165.02140
31
0.0
0
LINE
8
SCORE
10
324.02326
20
168.02140
30
0.0
11
324.02326
21
171.02140
31
0.0
0
LINE
8
SCORE
10
324.02326
20
174.02140
30
0.0
11
324.02326
21
177.02140
31
0.0
0
LINE
8
SCORE
10
324.02326
20
180.02140
30
0.0
11
324.02326
21
183.02140
31
0.0
0
LINE
8
SCORE
10
324.02326
20
186.02140
30
0.0
11
324.02326
21
189.02140
31
0.0
0
LINE
8
SCORE
10
324.02326
20
192.02140
30
0.0
11
324.02326
21
195.02140
31
0.0
0
LINE
8
SCORE
10
324.02326
20
198.02140
30
0.0
11
324.02326
21
201.02140
31
0.0
0
LINE
8
SCORE
10
324.02326
20
204.02140
30
0.0
11
324.02326
21
207.02140
31
0.0
0
LINE
8
SCORE
10
324.02326
20
210.02140
30
0.0
11
324.02326
21
213.02140
31
0.0
0
LINE
8
SCORE
10
324.02326
20
216.02140
30
0.0
11
324.02326
21
219.02140
31
0.0
0
LINE
8
SCORE
10
324.02326
20
222.02140
30
0.0
11
324.02326
21
225.02140
31
0.0
0
LINE
8
SCORE
10
324.02326
20
228.02140
30
0.0
11
324.02326
21
231.02140
31
0.0
0
LINE
8
SCORE
10
324.02326
20
234.02140
30
0.0
11
324.02326
21
237.02140
31
0.0
0
LINE
8
SCORE
10
324.02326
20
240.02140
30
0.0
11
324.02326
21
243.02140
31
0.0
0
LINE
8
SCORE
10
324.02326
20
246.02140
30
0.0
11
324.02326
21
246.56454
31
0.0
0
LINE
8
SCORE
10
64.43767
20
207.14696
30
0.0
11
67.19669
21
208.32502
31
0.0
0
LINE
8
SCORE
10
69.95571
20
209.50308
30
0.0
11
72.71472
21
210.68114
31
0.0
0
LINE
8
SCORE
10
75.47374
20
211.85920
30
0.0
11
78.23276
21
213.03726
31
0.0
0
LINE
8
SCORE
10
80.99178
20
214.21532
30
0.0
11
83.75079
21
215.39337
31
0.0
0
LINE
8
SCORE
10
86.50981
20
216.57143
30
0.0
11
89.26883
21
217.74949
31
0.0
0
LINE
8
SCORE
10
92.02785
20
218.92755
30
0.0
11
94.78686
21
220.10561
31
0.0
0
LINE
8
SCORE
10
97.54588
20
221.28367
30
0.0
11
100.30490
21
222.46173
31
0.0
0
LINE
8
SCORE
10
103.06391
20
223.63979
30
0.0
11
105.82293
21
224.81785
31
0.0
0
LINE
8
SCORE
10
108.58195
20
225.99591
30
0.0
11
111.34097
21
227.17396
31
0.0
0
LINE
8
SCORE
10
114.09998
20
228.35202
30
0.0
11
116.85900
21
229.53008
31
0.0
0
LINE
8
SCORE
10
119.61802
20
230.70814
30
0.0
11
122.37704
21
231.88620
31
0.0
0
LINE
8
SCORE
10
125.13605
20
233.06426
30
0.0
11
127.89507
21
234.24232
31
0.0
0
LINE
8
SCORE
10
130.65409
20
235.42038
30
0.0
11
133.41311
21
236.59844
31
0.0
0
LINE
8
SCORE
10
136.17212
20
237.77649
30
0.0
11
138.93114
21
238.95455
31
0.0
0
LINE
8
SCORE
10
141.69016
20
240.13261
30
0.0
11
144.44918
21
241.31067
31
0.0
0
LINE
8
SCORE
10
147.20819
20
242.48873
30
0.0
11
149.96721
21
243.66679
31
0.0
0
LINE
8
SCORE
10
152.72623
20
244.84485
30
0.0
11
155.48525
21
246.02291
31
0.0
0
LINE
8
SCORE2
10
156.75374
20
246.56454
30
0.0
11
249.15943
21
30.15016
31
0.0
0
LINE
8
SCORE2
10
324.02326
20
48.02140
30
0.0
11
324.02326
21
246.56454
31
0.0
0
LINE
8
SCORE2
10
64.43767
20
207.14696
30
0.0
11
156.75374
21
246.56454
31
0.0
0
ENDSEC
0
EOF
