0
SECTION
2
ENTITIES
0
POLYLINE
8
CUT
66
1
70
1
0
VERTEX
8
CUT
10
-0.07546
20
215.36181
30
0.0
0
VERTEX
8
CUT
10
5.47448
20
2.41284
30
0.0
0
VERTEX
8
CUT
10
32.27508
20
3.11132
30
0.0
0
VERTEX
8
CUT
10
31.79354
20
-0.07731
30
0.0
0
VERTEX
8
CUT
10
45.16802
20
0.27126
30
0.0
0
VERTEX
8
CUT
10
44.52105
20
3.43048
30
0.0
0
VERTEX
8
CUT
10
65.12368
20
3.96743
30
0.0
0
VERTEX
8
CUT
10
64.64215
20
0.77880
30
0.0
0
VERTEX
8
CUT
10
78.01663
20
1.12737
30
0.0
0
VERTEX
8
CUT
10
77.36966
20
4.28659
30
0.0
0
VERTEX
8
CUT
10
102.79572
20
4.94925
30
0.0
0
VERTEX
8
CUT
10
98.85402
20
156.19073
30
0.0
0
VERTEX
8
CUT
10
102.69893
20
157.95226
30
0.0
0
VERTEX
8
CUT
10
104.76792
20
163.51996
30
0.0
0
VERTEX
8
CUT
10
108.52978
20
165.24344
30
0.0
0
VERTEX
8
CUT
10
114.09748
20
163.17445
30
0.0
0
VERTEX
8
CUT
10
122.82087
20
167.17104
30
0.0
0
VERTEX
8
CUT
10
124.88986
20
172.73874
30
0.0
0
VERTEX
8
CUT
10
128.65172
20
174.46222
30
0.0
0
VERTEX
8
CUT
10
134.21942
20
172.39323
30
0.0
0
VERTEX
8
CUT
10
142.94282
20
176.38982
30
0.0
0
VERTEX
8
CUT
10
145.01180
20
181.95752
30
0.0
0
VERTEX
8
CUT
10
148.77366
20
183.68100
30
0.0
0
VERTEX
8
CUT
10
154.34136
20
181.61201
30
0.0
0
VERTEX
8
CUT
10
168.39844
20
188.05220
30
0.0
0
VERTEX
8
CUT
10
170.46743
20
193.61990
30
0.0
0
VERTEX
8
CUT
10
174.22928
20
195.34338
30
0.0
0
VERTEX
8
CUT
10
179.79699
20
193.27439
30
0.0
0
VERTEX
8
CUT
10
184.71675
20
195.52836
30
0.0
0
VERTEX
8
CUT
10
186.78574
20
201.09606
30
0.0
0
VERTEX
8
CUT
10
190.54760
20
202.81954
30
0.0
0
VERTEX
8
CUT
10
196.11530
20
200.75055
30
0.0
0
VERTEX
8
CUT
10
205.89383
20
205.23055
30
0.0
0
VERTEX
8
CUT
10
207.96282
20
210.79825
30
0.0
0
VERTEX
8
CUT
10
211.72468
20
212.52173
30
0.0
0
VERTEX
8
CUT
10
217.29238
20
210.45274
30
0.0
0
VERTEX
8
CUT
10
230.94333
20
216.70686
30
0.0
0
VERTEX
8
CUT
10
233.01232
20
222.27457
30
0.0
0
VERTEX
8
CUT
10
236.77417
20
223.99804
30
0.0
0
VERTEX
8
CUT
10
242.34187
20
221.92906
30
0.0
0
VERTEX
8
CUT
10
246.55211
20
223.85796
30
0.0
0
VERTEX
8
CUT
10
244.80275
20
227.67630
30
0.0
0
VERTEX
8
CUT
10
333.17404
20
268.16322
30
0.0
0
VERTEX
8
CUT
10
310.74515
20
317.11903
30
0.0
0
VERTEX
8
CUT
10
275.17428
20
342.38422
30
0.0
0
VERTEX
8
CUT
10
230.58277
20
439.71466
30
0.0
0
VERTEX
8
CUT
10
164.04077
20
409.22874
30
0.0
0
VERTEX
8
CUT
10
164.02667
20
409.26117
30
0.0
0
VERTEX
8
CUT
10
152.89989
20
404.68027
30
0.0
0
VERTEX
8
CUT
10
140.58932
20
400.70369
30
0.0
0
VERTEX
8
CUT
10
128.00599
20
397.69984
30
0.0
0
VERTEX
8
CUT
10
115.22664
20
395.68704
30
0.0
0
VERTEX
8
CUT
10
102.32919
20
394.67756
30
0.0
0
VERTEX
8
CUT
10
92.63851
20
394.67756
30
0.0
0
VERTEX
8
CUT
10
92.63630
20
394.76221
30
0.0
0
VERTEX
8
CUT
10
38.96699
20
393.36347
30
0.0
0
VERTEX
8
CUT
10
37.07449
20
393.24447
30
0.0
0
VERTEX
8
CUT
10
36.12892
20
393.18526
30
0.0
0
VERTEX
8
CUT
10
34.23774
20
393.06734
30
0.0
0
VERTEX
8
CUT
10
33.29213
20
393.00863
30
0.0
0
VERTEX
8
CUT
10
31.40089
20
392.89168
30
0.0
0
VERTEX
8
CUT
10
30.45525
20
392.83344
30
0.0
0
VERTEX
8
CUT
10
28.56394
20
392.71744
30
0.0
0
VERTEX
8
CUT
10
27.61827
20
392.65967
30
0.0
0
VERTEX
8
CUT
10
25.72690
20
392.54460
30
0.0
0
VERTEX
8
CUT
10
24.78120
20
392.48729
30
0.0
0
VERTEX
8
CUT
10
22.88976
20
392.37313
30
0.0
0
VERTEX
8
CUT
10
21.94403
20
392.31627
30
0.0
0
VERTEX
8
CUT
10
20.05254
20
392.20299
30
0.0
0
VERTEX
8
CUT
10
18.16101
20
392.09030
30
0.0
0
VERTEX
8
CUT
10
17.14280
20
392.02987
30
0.0
0
VERTEX
8
CUT
10
20.66195
20
257.00160
30
0.0
0
VERTEX
8
CUT
10
-0.07546
20
215.36181
30
0.0
0
SEQEND
0
POLYLINE
8
CUT
66
1
70
1
0
VERTEX
8
CUT
10
265.19428
20
244.11329
30
0.0
0
VERTEX
8
CUT
10
266.53754
20
241.18135
30
0.0
0
VERTEX
8
CUT
10
277.49255
20
246.20034
30
0.0
0
VERTEX
8
CUT
10
276.14929
20
249.13228
30
0.0
0
VERTEX
8
CUT
10
265.19428
20
244.11329
30
0.0
0
SEQEND
0
POLYLINE
8
CUT
66
1
70
1
0
VERTEX
8
CUT
10
295.06806
20
257.79983
30
0.0
0
VERTEX
8
CUT
10
296.41131
20
254.86789
30
0.0
0
VERTEX
8
CUT
10
307.36632
20
259.88688
30
0.0
0
VERTEX
8
CUT
10
306.02307
20
262.81882
30
0.0
0
VERTEX
8
CUT
10
295.06806
20
257.79983
30
0.0
0
SEQEND
0
LINE
8
SCORE
10
98.81308
20
154.88307
30
0.0
11
98.73492
21
157.88205
31
0.0
0
LINE
8
SCORE
10
98.65676
20
160.88103
30
0.0
11
98.57860
21
163.88001
31
0.0
0
LINE
8
SCORE
10
98.50044
20
166.87900
30
0.0
11
98.42228
21
169.87798
31
0.0
0
LINE
8
SCORE
10
98.34412
20
172.87696
30
0.0
11
98.26596
21
175.87594
31
0.0
0
LINE
8
SCORE
10
98.18779
20
178.87492
30
0.0
11
98.10963
21
181.87390
31
0.0
0
LINE
8
SCORE
10
98.03147
20
184.87289
30
0.0
11
97.95331
21
187.87187
31
0.0
0
LINE
8
SCORE
10
97.87515
20
190.87085
30
0.0
11
97.79699
21
193.86983
31
0.0
0
LINE
8
SCORE
10
97.71883
20
196.86881
30
0.0
11
97.64067
21
199.86779
31
0.0
0
LINE
8
SCORE
10
97.56251
20
202.86678
30
0.0
11
97.48435
21
205.86576
31
0.0
0
LINE
8
SCORE
10
97.40619
20
208.86474
30
0.0
11
97.32803
21
211.86372
31
0.0
0
LINE
8
SCORE
10
97.24987
20
214.86270
30
0.0
11
97.17171
21
217.86168
31
0.0
0
LINE
8
SCORE
10
97.09355
20
220.86067
30
0.0
11
97.01539
21
223.85965
31
0.0
0
LINE
8
SCORE
10
96.93723
20
226.85863
30
0.0
11
96.85907
21
229.85761
31
0.0
0
LINE
8
SCORE
10
96.78091
20
232.85659
30
0.0
11
96.70275
21
235.85557
31
0.0
0
LINE
8
SCORE
10
96.62459
20
238.85456
30
0.0
11
96.54643
21
241.85354
31
0.0
0
LINE
8
SCORE
10
96.46827
20
244.85252
30
0.0
11
96.39011
21
247.85150
31
0.0
0
LINE
8
SCORE
10
96.31195
20
250.85048
30
0.0
11
96.23379
21
253.84946
31
0.0
0
LINE
8
SCORE
10
96.15563
20
256.84845
30
0.0
11
96.07747
21
259.84743
31
0.0
0
LINE
8
SCORE
10
95.99931
20
262.84641
30
0.0
11
95.92115
21
265.84539
31
0.0
0
LINE
8
SCORE
10
95.84299
20
268.84437
30
0.0
11
95.76482
21
271.84335
31
0.0
0
LINE
8
SCORE
10
95.68666
20
274.84234
30
0.0
11
95.60850
21
277.84132
31
0.0
0
LINE
8
SCORE
10
95.53034
20
280.84030
30
0.0
11
95.45218
21
283.83928
31
0.0
0
LINE
8
SCORE
10
95.37402
20
286.83826
30
0.0
11
95.29586
21
289.83724
31
0.0
0
LINE
8
SCORE
10
95.21770
20
292.83623
30
0.0
11
95.13954
21
295.83521
31
0.0
0
LINE
8
SCORE
10
95.06138
20
298.83419
30
0.0
11
94.98322
21
301.83317
31
0.0
0
LINE
8
SCORE
10
94.90506
20
304.83215
30
0.0
11
94.82690
21
307.83113
31
0.0
0
LINE
8
SCORE
10
94.74874
20
310.83012
30
0.0
11
94.67058
21
313.82910
31
0.0
0
LINE
8
SCORE
10
94.59242
20
316.82808
30
0.0
11
94.51426
21
319.82706
31
0.0
0
LINE
8
SCORE
10
94.43610
20
322.82604
30
0.0
11
94.35794
21
325.82502
31
0.0
0
LINE
8
SCORE
10
94.27978
20
328.82401
30
0.0
11
94.20162
21
331.82299
31
0.0
0
LINE
8
SCORE
10
94.12346
20
334.82197
30
0.0
11
94.04530
21
337.82095
31
0.0
0
LINE
8
SCORE
10
93.96714
20
340.81993
30
0.0
11
93.88898
21
343.81891
31
0.0
0
LINE
8
SCORE
10
93.81082
20
346.81790
30
0.0
11
93.73266
21
349.81688
31
0.0
0
LINE
8
SCORE
10
93.65450
20
352.81586
30
0.0
11
93.57634
21
355.81484
31
0.0
0
LINE
8
SCORE
10
93.49818
20
358.81382
30
0.0
11
93.42001
21
361.81280
31
0.0
0
LINE
8
SCORE
10
93.34185
20
364.81179
30
0.0
11
93.26369
21
367.81077
31
0.0
0
LINE
8
SCORE
10
93.18553
20
370.80975
30
0.0
11
93.10737
21
373.80873
31
0.0
0
LINE
8
SCORE
10
93.02921
20
376.80771
30
0.0
11
92.95105
21
379.80669
31
0.0
0
LINE
8
SCORE
10
92.87289
20
382.80568
30
0.0
11
92.79473
21
385.80466
31
0.0
0
LINE
8
SCORE
10
92.71657
20
388.80364
30
0.0
11
92.63841
21
391.80262
31
0.0
0
LINE
8
SCORE
10
1.39753
20
161.72222
30
0.0
11
4.39652
21
161.80038
31
0.0
0
LINE
8
SCORE
10
7.39550
20
161.87854
30
0.0
11
10.39448
21
161.95670
31
0.0
0
LINE
8
SCORE
10
13.39346
20
162.03486
30
0.0
11
16.39244
21
162.11302
31
0.0
0
LINE
8
SCORE
10
19.39142
20
162.19118
30
0.0
11
22.39041
21
162.26934
31
0.0
0
LINE
8
SCORE
10
25.38939
20
162.34750
30
0.0
11
28.38837
21
162.42566
31
0.0
0
LINE
8
SCORE
10
31.38735
20
162.50382
30
0.0
11
34.38633
21
162.58198
31
0.0
0
LINE
8
SCORE
10
37.38531
20
162.66014
30
0.0
11
40.38430
21
162.73830
31
0.0
0
LINE
8
SCORE
10
43.38328
20
162.81646
30
0.0
11
46.38226
21
162.89462
31
0.0
0
LINE
8
SCORE
10
49.38124
20
162.97278
30
0.0
11
52.38022
21
163.05094
31
0.0
0
LINE
8
SCORE
10
55.37920
20
163.12910
30
0.0
11
58.37819
21
163.20726
31
0.0
0
LINE
8
SCORE
10
61.37717
20
163.28542
30
0.0
11
64.37615
21
163.36358
31
0.0
0
LINE
8
SCORE
10
67.37513
20
163.44175
30
0.0
11
70.37411
21
163.51991
31
0.0
0
LINE
8
SCORE
10
73.37309
20
163.59807
30
0.0
11
76.37208
21
163.67623
31
0.0
0
LINE
8
SCORE
10
79.37106
20
163.75439
30
0.0
11
82.37004
21
163.83255
31
0.0
0
LINE
8
SCORE
10
85.36902
20
163.91071
30
0.0
11
88.36800
21
163.98887
31
0.0
0
LINE
8
SCORE
10
91.36698
20
164.06703
30
0.0
11
94.36597
21
164.14519
31
0.0
0
LINE
8
SCORE
10
97.36495
20
164.22335
30
0.0
11
99.94336
21
164.29055
31
0.0
0
LINE
8
SCORE
10
162.00740
20
408.21467
30
0.0
11
163.25694
21
405.48728
31
0.0
0
LINE
8
SCORE
10
164.50649
20
402.75989
30
0.0
11
165.75603
21
400.03250
31
0.0
0
LINE
8
SCORE
10
167.00557
20
397.30511
30
0.0
11
168.25511
21
394.57772
31
0.0
0
LINE
8
SCORE
10
169.50465
20
391.85034
30
0.0
11
170.75419
21
389.12295
31
0.0
0
LINE
8
SCORE
10
172.00373
20
386.39556
30
0.0
11
173.25327
21
383.66817
31
0.0
0
LINE
8
SCORE
10
174.50281
20
380.94078
30
0.0
11
175.75235
21
378.21339
31
0.0
0
LINE
8
SCORE
10
177.00190
20
375.48601
30
0.0
11
178.25144
21
372.75862
31
0.0
0
LINE
8
SCORE
10
179.50098
20
370.03123
30
0.0
11
180.75052
21
367.30384
31
0.0
0
LINE
8
SCORE
10
182.00006
20
364.57645
30
0.0
11
183.24960
21
361.84906
31
0.0
0
LINE
8
SCORE
10
184.49914
20
359.12168
30
0.0
11
185.74868
21
356.39429
31
0.0
0
LINE
8
SCORE
10
186.99822
20
353.66690
30
0.0
11
188.24776
21
350.93951
31
0.0
0
LINE
8
SCORE
10
189.49730
20
348.21212
30
0.0
11
190.74685
21
345.48473
31
0.0
0
LINE
8
SCORE
10
191.99639
20
342.75735
30
0.0
11
193.24593
21
340.02996
31
0.0
0
LINE
8
SCORE
10
194.49547
20
337.30257
30
0.0
11
195.74501
21
334.57518
31
0.0
0
LINE
8
SCORE
10
196.99455
20
331.84779
30
0.0
11
198.24409
21
329.12040
31
0.0
0
LINE
8
SCORE
10
199.49363
20
326.39301
30
0.0
11
200.74317
21
323.66563
31
0.0
0
LINE
8
SCORE
10
201.99271
20
320.93824
30
0.0
11
203.24226
21
318.21085
31
0.0
0
LINE
8
SCORE
10
204.49180
20
315.48346
30
0.0
11
205.74134
21
312.75607
31
0.0
0
LINE
8
SCORE
10
206.99088
20
310.02868
30
0.0
11
208.24042
21
307.30130
31
0.0
0
LINE
8
SCORE
10
209.48996
20
304.57391
30
0.0
11
210.73950
21
301.84652
31
0.0
0
LINE
8
SCORE
10
211.98904
20
299.11913
30
0.0
11
213.23858
21
296.39174
31
0.0
0
LINE
8
SCORE
10
214.48812
20
293.66435
30
0.0
11
215.73766
21
290.93697
31
0.0
0
LINE
8
SCORE
10
216.98721
20
288.20958
30
0.0
11
218.23675
21
285.48219
31
0.0
0
LINE
8
SCORE
10
219.48629
20
282.75480
30
0.0
11
220.73583
21
280.02741
31
0.0
0
LINE
8
SCORE
10
221.98537
20
277.30002
30
0.0
11
223.23491
21
274.57264
31
0.0
0
LINE
8
SCORE
10
224.48445
20
271.84525
30
0.0
11
225.73399
21
269.11786
31
0.0
0
LINE
8
SCORE
10
226.98353
20
266.39047
30
0.0
11
228.23307
21
263.66308
31
0.0
0
LINE
8
SCORE
10
229.48262
20
260.93569
30
0.0
11
230.73216
21
258.20831
31
0.0
0
LINE
8
SCORE
10
231.98170
20
255.48092
30
0.0
11
233.23124
21
252.75353
31
0.0
0
LINE
8
SCORE
10
234.48078
20
250.02614
30
0.0
11
235.73032
21
247.29875
31
0.0
0
LINE
8
SCORE
10
236.97986
20
244.57136
30
0.0
11
238.22940
21
241.84398
31
0.0
0
LINE
8
SCORE
10
239.47894
20
239.11659
30
0.0
11
240.72848
21
236.38920
31
0.0
0
LINE
8
SCORE
10
241.97803
20
233.66181
30
0.0
11
243.22757
21
230.93442
31
0.0
0
LINE
8
SCORE
10
244.47711
20
228.20703
30
0.0
11
245.72665
21
225.47964
31
0.0
0
LINE
8
SCORE2
10
98.81308
20
154.88307
30
0.0
11
92.56328
21
394.68528
31
0.0
0
LINE
8
SCORE2
10
1.39753
20
161.72222
30
0.0
11
99.94336
21
164.29055
31
0.0
0
LINE
8
SCORE2
10
162.00740
20
408.21467
30
0.0
11
246.45269
21
223.89491
31
0.0
0
ENDSEC
0
EOF
