0
SECTION
2
ENTITIES
0
POLYLINE
8
CUT
66
1
70
1
0
VERTEX
8
CUT
10
-0.07500
20
190.29687
30
0.0
0
VERTEX
8
CUT
10
21.74023
20
152.51179
30
0.0
0
VERTEX
8
CUT
10
21.74023
20
45.45284
30
0.0
0
VERTEX
8
CUT
10
94.93332
20
45.45284
30
0.0
0
VERTEX
8
CUT
10
94.93263
20
45.41748
30
0.0
0
VERTEX
8
CUT
10
106.95632
20
44.94766
30
0.0
0
VERTEX
8
CUT
10
119.80452
20
43.43536
30
0.0
0
VERTEX
8
CUT
10
132.49554
20
40.92512
30
0.0
0
VERTEX
8
CUT
10
144.95199
20
37.43225
30
0.0
0
VERTEX
8
CUT
10
157.09790
20
32.97803
30
0.0
0
VERTEX
8
CUT
10
165.90799
20
28.94173
30
0.0
0
VERTEX
8
CUT
10
165.87473
20
28.86385
30
0.0
0
VERTEX
8
CUT
10
215.24968
20
7.78149
30
0.0
0
VERTEX
8
CUT
10
217.01977
20
7.10142
30
0.0
0
VERTEX
8
CUT
10
217.90408
20
6.76141
30
0.0
0
VERTEX
8
CUT
10
219.67252
20
6.08091
30
0.0
0
VERTEX
8
CUT
10
220.55666
20
5.74043
30
0.0
0
VERTEX
8
CUT
10
222.32476
20
5.05902
30
0.0
0
VERTEX
8
CUT
10
223.20872
20
4.71810
30
0.0
0
VERTEX
8
CUT
10
224.97648
20
4.03580
30
0.0
0
VERTEX
8
CUT
10
225.86028
20
3.69444
30
0.0
0
VERTEX
8
CUT
10
227.62771
20
3.01127
30
0.0
0
VERTEX
8
CUT
10
228.51135
20
2.66947
30
0.0
0
VERTEX
8
CUT
10
230.27845
20
1.98545
30
0.0
0
VERTEX
8
CUT
10
231.16193
20
1.64323
30
0.0
0
VERTEX
8
CUT
10
232.92872
20
0.95838
30
0.0
0
VERTEX
8
CUT
10
234.69531
20
0.27299
30
0.0
0
VERTEX
8
CUT
10
235.64616
20
-0.09617
30
0.0
0
VERTEX
8
CUT
10
288.68792
20
124.12778
30
0.0
0
VERTEX
8
CUT
10
324.88445
20
153.34632
30
0.0
0
VERTEX
8
CUT
10
408.53499
20
349.25614
30
0.0
0
VERTEX
8
CUT
10
383.32704
20
360.01955
30
0.0
0
VERTEX
8
CUT
10
385.09293
20
362.71786
30
0.0
0
VERTEX
8
CUT
10
372.78861
20
367.97162
30
0.0
0
VERTEX
8
CUT
10
372.06094
20
364.83001
30
0.0
0
VERTEX
8
CUT
10
352.55502
20
373.15874
30
0.0
0
VERTEX
8
CUT
10
354.32090
20
375.85705
30
0.0
0
VERTEX
8
CUT
10
342.01659
20
381.11081
30
0.0
0
VERTEX
8
CUT
10
341.28891
20
377.96920
30
0.0
0
VERTEX
8
CUT
10
319.00093
20
387.48583
30
0.0
0
VERTEX
8
CUT
10
257.79696
20
244.14598
30
0.0
0
VERTEX
8
CUT
10
247.02321
20
244.14598
30
0.0
0
VERTEX
8
CUT
10
242.82321
20
248.34598
30
0.0
0
VERTEX
8
CUT
10
233.22788
20
248.34598
30
0.0
0
VERTEX
8
CUT
10
229.02788
20
244.14598
30
0.0
0
VERTEX
8
CUT
10
224.89001
20
244.14598
30
0.0
0
VERTEX
8
CUT
10
220.69001
20
248.34598
30
0.0
0
VERTEX
8
CUT
10
211.09468
20
248.34598
30
0.0
0
VERTEX
8
CUT
10
206.89468
20
244.14598
30
0.0
0
VERTEX
8
CUT
10
202.75682
20
244.14598
30
0.0
0
VERTEX
8
CUT
10
198.55682
20
248.34598
30
0.0
0
VERTEX
8
CUT
10
183.09468
20
248.34598
30
0.0
0
VERTEX
8
CUT
10
178.89468
20
244.14598
30
0.0
0
VERTEX
8
CUT
10
174.75682
20
244.14598
30
0.0
0
VERTEX
8
CUT
10
170.55682
20
248.34598
30
0.0
0
VERTEX
8
CUT
10
165.14530
20
248.34598
30
0.0
0
VERTEX
8
CUT
10
160.94530
20
244.14598
30
0.0
0
VERTEX
8
CUT
10
156.80744
20
244.14598
30
0.0
0
VERTEX
8
CUT
10
152.60744
20
248.34598
30
0.0
0
VERTEX
8
CUT
10
141.85150
20
248.34598
30
0.0
0
VERTEX
8
CUT
10
137.65150
20
244.14598
30
0.0
0
VERTEX
8
CUT
10
133.51363
20
244.14598
30
0.0
0
VERTEX
8
CUT
10
129.31363
20
248.34598
30
0.0
0
VERTEX
8
CUT
10
114.29823
20
248.34598
30
0.0
0
VERTEX
8
CUT
10
110.09823
20
244.14598
30
0.0
0
VERTEX
8
CUT
10
-0.07500
20
244.14598
30
0.0
0
VERTEX
8
CUT
10
-0.07500
20
190.29687
30
0.0
0
SEQEND
0
POLYLINE
8
CUT
66
1
70
1
0
VERTEX
8
CUT
10
27.43476
20
237.69598
30
0.0
0
VERTEX
8
CUT
10
39.48476
20
237.69598
30
0.0
0
VERTEX
8
CUT
10
39.48476
20
240.92098
30
0.0
0
VERTEX
8
CUT
10
27.43476
20
240.92098
30
0.0
0
VERTEX
8
CUT
10
27.43476
20
237.69598
30
0.0
0
SEQEND
0
POLYLINE
8
CUT
66
1
70
1
0
VERTEX
8
CUT
10
60.89453
20
237.69598
30
0.0
0
VERTEX
8
CUT
10
72.94453
20
237.69598
30
0.0
0
VERTEX
8
CUT
10
72.94453
20
240.92098
30
0.0
0
VERTEX
8
CUT
10
60.89453
20
240.92098
30
0.0
0
VERTEX
8
CUT
10
60.89453
20
237.69598
30
0.0
0
SEQEND
0
LINE
8
SCORE
10
258.37885
20
245.31776
30
0.0
11
257.20079
21
242.55874
31
0.0
0
LINE
8
SCORE
10
256.02273
20
239.79972
30
0.0
11
254.84467
21
237.04070
31
0.0
0
LINE
8
SCORE
10
253.66661
20
234.28169
30
0.0
11
252.48855
21
231.52267
31
0.0
0
LINE
8
SCORE
10
251.31049
20
228.76365
30
0.0
11
250.13243
21
226.00464
31
0.0
0
LINE
8
SCORE
10
248.95438
20
223.24562
30
0.0
11
247.77632
21
220.48660
31
0.0
0
LINE
8
SCORE
10
246.59826
20
217.72758
30
0.0
11
245.42020
21
214.96857
31
0.0
0
LINE
8
SCORE
10
244.24214
20
212.20955
30
0.0
11
243.06408
21
209.45053
31
0.0
0
LINE
8
SCORE
10
241.88602
20
206.69151
30
0.0
11
240.70796
21
203.93250
31
0.0
0
LINE
8
SCORE
10
239.52990
20
201.17348
30
0.0
11
238.35184
21
198.41446
31
0.0
0
LINE
8
SCORE
10
237.17379
20
195.65544
30
0.0
11
235.99573
21
192.89643
31
0.0
0
LINE
8
SCORE
10
234.81767
20
190.13741
30
0.0
11
233.63961
21
187.37839
31
0.0
0
LINE
8
SCORE
10
232.46155
20
184.61937
30
0.0
11
231.28349
21
181.86036
31
0.0
0
LINE
8
SCORE
10
230.10543
20
179.10134
30
0.0
11
228.92737
21
176.34232
31
0.0
0
LINE
8
SCORE
10
227.74931
20
173.58330
30
0.0
11
226.57126
21
170.82429
31
0.0
0
LINE
8
SCORE
10
225.39320
20
168.06527
30
0.0
11
224.21514
21
165.30625
31
0.0
0
LINE
8
SCORE
10
223.03708
20
162.54723
30
0.0
11
221.85902
21
159.78822
31
0.0
0
LINE
8
SCORE
10
220.68096
20
157.02920
30
0.0
11
219.50290
21
154.27018
31
0.0
0
LINE
8
SCORE
10
218.32484
20
151.51116
30
0.0
11
217.14678
21
148.75215
31
0.0
0
LINE
8
SCORE
10
215.96872
20
145.99313
30
0.0
11
214.79067
21
143.23411
31
0.0
0
LINE
8
SCORE
10
213.61261
20
140.47510
30
0.0
11
212.43455
21
137.71608
31
0.0
0
LINE
8
SCORE
10
211.25649
20
134.95706
30
0.0
11
210.07843
21
132.19804
31
0.0
0
LINE
8
SCORE
10
208.90037
20
129.43903
30
0.0
11
207.72231
21
126.68001
31
0.0
0
LINE
8
SCORE
10
206.54425
20
123.92099
30
0.0
11
205.36619
21
121.16197
31
0.0
0
LINE
8
SCORE
10
204.18814
20
118.40296
30
0.0
11
203.01008
21
115.64394
31
0.0
0
LINE
8
SCORE
10
201.83202
20
112.88492
30
0.0
11
200.65396
21
110.12590
31
0.0
0
LINE
8
SCORE
10
199.47590
20
107.36689
30
0.0
11
198.29784
21
104.60787
31
0.0
0
LINE
8
SCORE
10
197.11978
20
101.84885
30
0.0
11
195.94172
21
99.08983
31
0.0
0
LINE
8
SCORE
10
194.76366
20
96.33082
30
0.0
11
193.58560
21
93.57180
31
0.0
0
LINE
8
SCORE
10
192.40755
20
90.81278
30
0.0
11
191.22949
21
88.05376
31
0.0
0
LINE
8
SCORE
10
190.05143
20
85.29475
30
0.0
11
188.87337
21
82.53573
31
0.0
0
LINE
8
SCORE
10
187.69531
20
79.77671
30
0.0
11
186.51725
21
77.01769
31
0.0
0
LINE
8
SCORE
10
185.33919
20
74.25868
30
0.0
11
184.16113
21
71.49966
31
0.0
0
LINE
8
SCORE
10
182.98307
20
68.74064
30
0.0
11
181.80502
21
65.98162
31
0.0
0
LINE
8
SCORE
10
180.62696
20
63.22261
30
0.0
11
179.44890
21
60.46359
31
0.0
0
LINE
8
SCORE
10
178.27084
20
57.70457
30
0.0
11
177.09278
21
54.94556
31
0.0
0
LINE
8
SCORE
10
175.91472
20
52.18654
30
0.0
11
174.73666
21
49.42752
31
0.0
0
LINE
8
SCORE
10
173.55860
20
46.66850
30
0.0
11
172.38054
21
43.90949
31
0.0
0
LINE
8
SCORE
10
171.20248
20
41.15047
30
0.0
11
170.02443
21
38.39145
31
0.0
0
LINE
8
SCORE
10
168.84637
20
35.63243
30
0.0
11
167.66831
21
32.87342
31
0.0
0
LINE
8
SCORE
10
166.49025
20
30.11440
30
0.0
11
165.97316
21
28.90338
31
0.0
0
LINE
8
SCORE
10
97.20429
20
45.52784
30
0.0
11
97.20429
21
48.52784
31
0.0
0
LINE
8
SCORE
10
97.20429
20
51.52784
30
0.0
11
97.20429
21
54.52784
31
0.0
0
LINE
8
SCORE
10
97.20429
20
57.52784
30
0.0
11
97.20429
21
60.52784
31
0.0
0
LINE
8
SCORE
10
97.20429
20
63.52784
30
0.0
11
97.20429
21
66.52784
31
0.0
0
LINE
8
SCORE
10
97.20429
20
69.52784
30
0.0
11
97.20429
21
72.52784
31
0.0
0
LINE
8
SCORE
10
97.20429
20
75.52784
30
0.0
11
97.20429
21
78.52784
31
0.0
0
LINE
8
SCORE
10
97.20429
20
81.52784
30
0.0
11
97.20429
21
84.52784
31
0.0
0
LINE
8
SCORE
10
97.20429
20
87.52784
30
0.0
11
97.20429
21
90.52784
31
0.0
0
LINE
8
SCORE
10
97.20429
20
93.52784
30
0.0
11
97.20429
21
96.52784
31
0.0
0
LINE
8
SCORE
10
97.20429
20
99.52784
30
0.0
11
97.20429
21
102.52784
31
0.0
0
LINE
8
SCORE
10
97.20429
20
105.52784
30
0.0
11
97.20429
21
108.52784
31
0.0
0
LINE
8
SCORE
10
97.20429
20
111.52784
30
0.0
11
97.20429
21
114.52784
31
0.0
0
LINE
8
SCORE
10
97.20429
20
117.52784
30
0.0
11
97.20429
21
120.52784
31
0.0
0
LINE
8
SCORE
10
97.20429
20
123.52784
30
0.0
11
97.20429
21
126.52784
31
0.0
0
LINE
8
SCORE
10
97.20429
20
129.52784
30
0.0
11
97.20429
21
132.52784
31
0.0
0
LINE
8
SCORE
10
97.20429
20
135.52784
30
0.0
11
97.20429
21
138.52784
31
0.0
0
LINE
8
SCORE
10
97.20429
20
141.52784
30
0.0
11
97.20429
21
144.52784
31
0.0
0
LINE
8
SCORE
10
97.20429
20
147.52784
30
0.0
11
97.20429
21
150.52784
31
0.0
0
LINE
8
SCORE
10
97.20429
20
153.52784
30
0.0
11
97.20429
21
156.52784
31
0.0
0
LINE
8
SCORE
10
97.20429
20
159.52784
30
0.0
11
97.20429
21
162.52784
31
0.0
0
LINE
8
SCORE
10
97.20429
20
165.52784
30
0.0
11
97.20429
21
168.52784
31
0.0
0
LINE
8
SCORE
10
97.20429
20
171.52784
30
0.0
11
97.20429
21
174.52784
31
0.0
0
LINE
8
SCORE
10
97.20429
20
177.52784
30
0.0
11
97.20429
21
180.52784
31
0.0
0
LINE
8
SCORE
10
97.20429
20
183.52784
30
0.0
11
97.20429
21
186.52784
31
0.0
0
LINE
8
SCORE
10
97.20429
20
189.52784
30
0.0
11
97.20429
21
192.52784
31
0.0
0
LINE
8
SCORE
10
97.20429
20
195.52784
30
0.0
11
97.20429
21
198.52784
31
0.0
0
LINE
8
SCORE
10
97.20429
20
201.52784
30
0.0
11
97.20429
21
204.52784
31
0.0
0
LINE
8
SCORE
10
97.20429
20
207.52784
30
0.0
11
97.20429
21
210.52784
31
0.0
0
LINE
8
SCORE
10
97.20429
20
213.52784
30
0.0
11
97.20429
21
216.52784
31
0.0
0
LINE
8
SCORE
10
97.20429
20
219.52784
30
0.0
11
97.20429
21
222.52784
31
0.0
0
LINE
8
SCORE
10
97.20429
20
225.52784
30
0.0
11
97.20429
21
228.52784
31
0.0
0
LINE
8
SCORE
10
97.20429
20
231.52784
30
0.0
11
97.20429
21
234.52784
31
0.0
0
LINE
8
SCORE
10
97.20429
20
237.52784
30
0.0
11
97.20429
21
240.52784
31
0.0
0
LINE
8
SCORE
10
97.20429
20
243.52784
30
0.0
11
97.20429
21
244.07098
31
0.0
0
LINE
8
SCORE
10
345.88693
20
202.72518
30
0.0
11
343.12791
21
203.90324
31
0.0
0
LINE
8
SCORE
10
340.36889
20
205.08130
30
0.0
11
337.60987
21
206.25936
31
0.0
0
LINE
8
SCORE
10
334.85086
20
207.43742
30
0.0
11
332.09184
21
208.61548
31
0.0
0
LINE
8
SCORE
10
329.33282
20
209.79354
30
0.0
11
326.57380
21
210.97160
31
0.0
0
LINE
8
SCORE
10
323.81479
20
212.14965
30
0.0
11
321.05577
21
213.32771
31
0.0
0
LINE
8
SCORE
10
318.29675
20
214.50577
30
0.0
11
315.53773
21
215.68383
31
0.0
0
LINE
8
SCORE
10
312.77872
20
216.86189
30
0.0
11
310.01970
21
218.03995
31
0.0
0
LINE
8
SCORE
10
307.26068
20
219.21801
30
0.0
11
304.50166
21
220.39607
31
0.0
0
LINE
8
SCORE
10
301.74265
20
221.57413
30
0.0
11
298.98363
21
222.75219
31
0.0
0
LINE
8
SCORE
10
296.22461
20
223.93024
30
0.0
11
293.46559
21
225.10830
31
0.0
0
LINE
8
SCORE
10
290.70658
20
226.28636
30
0.0
11
287.94756
21
227.46442
31
0.0
0
LINE
8
SCORE
10
285.18854
20
228.64248
30
0.0
11
282.42952
21
229.82054
31
0.0
0
LINE
8
SCORE
10
279.67051
20
230.99860
30
0.0
11
276.91149
21
232.17666
31
0.0
0
LINE
8
SCORE
10
274.15247
20
233.35472
30
0.0
11
271.39345
21
234.53277
31
0.0
0
LINE
8
SCORE
10
268.63444
20
235.71083
30
0.0
11
265.87542
21
236.88889
31
0.0
0
LINE
8
SCORE
10
263.11640
20
238.06695
30
0.0
11
260.35739
21
239.24501
31
0.0
0
LINE
8
SCORE
10
257.59837
20
240.42307
30
0.0
11
254.83935
21
241.60113
31
0.0
0
LINE
8
SCORE2
10
258.37885
20
245.31776
30
0.0
11
165.97316
21
28.90338
31
0.0
0
LINE
8
SCORE2
10
97.20429
20
45.52784
30
0.0
11
97.20429
21
244.07098
31
0.0
0
LINE
8
SCORE2
10
345.88693
20
202.72518
30
0.0
11
253.57085
21
242.14276
31
0.0
0
ENDSEC
0
EOF
