<?xml version="1.0" encoding="UTF-8"?>
<svg xmlns="http://www.w3.org/2000/svg" version="1.1" width="333.0746mm" height="439.6152mm" viewBox="0 0 333.0746 439.6152">
<title>bin flat pattern</title>
<g id="cut" stroke="#ff0000" fill="none" stroke-width="0.1000">
  <path d="M -0.0755,215.3618 L 5.4745,2.4128 L 32.2751,3.1113 L 31.7935,-0.0773 L 45.1680,0.2713 L 44.5210,3.4305 L 65.1237,3.9674 L 64.6422,0.7788 L 78.0166,1.1274 L 77.3697,4.2866 L 102.7957,4.9493 L 98.8540,156.1907 L 102.6989,157.9523 L 104.7679,163.5200 L 108.5298,165.2434 L 114.0975,163.1745 L 122.8209,167.1710 L 124.8899,172.7387 L 128.6517,174.4622 L 134.2194,172.3932 L 142.9428,176.3898 L 145.0118,181.9575 L 148.7737,183.6810 L 154.3414,181.6120 L 168.3984,188.0522 L 170.4674,193.6199 L 174.2293,195.3434 L 179.7970,193.2744 L 184.7168,195.5284 L 186.7857,201.0961 L 190.5476,202.8195 L 196.1153,200.7506 L 205.8938,205.2305 L 207.9628,210.7982 L 211.7247,212.5217 L 217.2924,210.4527 L 230.9433,216.7069 L 233.0123,222.2746 L 236.7742,223.9980 L 242.3419,221.9291 L 246.5521,223.8580 L 244.8028,227.6763 L 333.1740,268.1632 L 310.7452,317.1190 L 275.1743,342.3842 L 230.5828,439.7147 L 164.0408,409.2287 L 164.0267,409.2612 L 152.8999,404.6803 L 140.5893,400.7037 L 128.0060,397.6998 L 115.2266,395.6870 L 102.3292,394.6776 L 92.6385,394.6776 L 92.6363,394.7622 L 38.9670,393.3635 L 37.0745,393.2445 L 36.1289,393.1853 L 34.2377,393.0673 L 33.2921,393.0086 L 31.4009,392.8917 L 30.4552,392.8334 L 28.5639,392.7174 L 27.6183,392.6597 L 25.7269,392.5446 L 24.7812,392.4873 L 22.8898,392.3731 L 21.9440,392.3163 L 20.0525,392.2030 L 18.1610,392.0903 L 17.1428,392.0299 L 20.6619,257.0016 L -0.0755,215.3618 Z"/>
  <path d="M 265.1943,244.1133 L 266.5375,241.1813 L 277.4925,246.2003 L 276.1493,249.1323 L 265.1943,244.1133 Z"/>
  <path d="M 295.0681,257.7998 L 296.4113,254.8679 L 307.3663,259.8869 L 306.0231,262.8188 L 295.0681,257.7998 Z"/>
</g>
<g id="score" stroke="#0000ff" fill="none" stroke-width="0.1000">
  <line x1="98.8131" y1="154.8831" x2="98.7349" y2="157.8821"/>
  <line x1="98.6568" y1="160.8810" x2="98.5786" y2="163.8800"/>
  <line x1="98.5004" y1="166.8790" x2="98.4223" y2="169.8780"/>
  <line x1="98.3441" y1="172.8770" x2="98.2660" y2="175.8759"/>
  <line x1="98.1878" y1="178.8749" x2="98.1096" y2="181.8739"/>
  <line x1="98.0315" y1="184.8729" x2="97.9533" y2="187.8719"/>
  <line x1="97.8752" y1="190.8708" x2="97.7970" y2="193.8698"/>
  <line x1="97.7188" y1="196.8688" x2="97.6407" y2="199.8678"/>
  <line x1="97.5625" y1="202.8668" x2="97.4844" y2="205.8658"/>
  <line x1="97.4062" y1="208.8647" x2="97.3280" y2="211.8637"/>
  <line x1="97.2499" y1="214.8627" x2="97.1717" y2="217.8617"/>
  <line x1="97.0936" y1="220.8607" x2="97.0154" y2="223.8596"/>
  <line x1="96.9372" y1="226.8586" x2="96.8591" y2="229.8576"/>
  <line x1="96.7809" y1="232.8566" x2="96.7027" y2="235.8556"/>
  <line x1="96.6246" y1="238.8546" x2="96.5464" y2="241.8535"/>
  <line x1="96.4683" y1="244.8525" x2="96.3901" y2="247.8515"/>
  <line x1="96.3119" y1="250.8505" x2="96.2338" y2="253.8495"/>
  <line x1="96.1556" y1="256.8484" x2="96.0775" y2="259.8474"/>
  <line x1="95.9993" y1="262.8464" x2="95.9211" y2="265.8454"/>
  <line x1="95.8430" y1="268.8444" x2="95.7648" y2="271.8434"/>
  <line x1="95.6867" y1="274.8423" x2="95.6085" y2="277.8413"/>
  <line x1="95.5303" y1="280.8403" x2="95.4522" y2="283.8393"/>
  <line x1="95.3740" y1="286.8383" x2="95.2959" y2="289.8372"/>
  <line x1="95.2177" y1="292.8362" x2="95.1395" y2="295.8352"/>
  <line x1="95.0614" y1="298.8342" x2="94.9832" y2="301.8332"/>
  <line x1="94.9051" y1="304.8322" x2="94.8269" y2="307.8311"/>
  <line x1="94.7487" y1="310.8301" x2="94.6706" y2="313.8291"/>
  <line x1="94.5924" y1="316.8281" x2="94.5143" y2="319.8271"/>
  <line x1="94.4361" y1="322.8260" x2="94.3579" y2="325.8250"/>
  <line x1="94.2798" y1="328.8240" x2="94.2016" y2="331.8230"/>
  <line x1="94.1235" y1="334.8220" x2="94.0453" y2="337.8210"/>
  <line x1="93.9671" y1="340.8199" x2="93.8890" y2="343.8189"/>
  <line x1="93.8108" y1="346.8179" x2="93.7327" y2="349.8169"/>
  <line x1="93.6545" y1="352.8159" x2="93.5763" y2="355.8148"/>
  <line x1="93.4982" y1="358.8138" x2="93.4200" y2="361.8128"/>
  <line x1="93.3419" y1="364.8118" x2="93.2637" y2="367.8108"/>
  <line x1="93.1855" y1="370.8097" x2="93.1074" y2="373.8087"/>
  <line x1="93.0292" y1="376.8077" x2="92.9511" y2="379.8067"/>
  <line x1="92.8729" y1="382.8057" x2="92.7947" y2="385.8047"/>
  <line x1="92.7166" y1="388.8036" x2="92.6384" y2="391.8026"/>
  <line x1="1.3975" y1="161.7222" x2="4.3965" y2="161.8004"/>
  <line x1="7.3955" y1="161.8785" x2="10.3945" y2="161.9567"/>
  <line x1="13.3935" y1="162.0349" x2="16.3924" y2="162.1130"/>
  <line x1="19.3914" y1="162.1912" x2="22.3904" y2="162.2693"/>
  <line x1="25.3894" y1="162.3475" x2="28.3884" y2="162.4257"/>
  <line x1="31.3874" y1="162.5038" x2="34.3863" y2="162.5820"/>
  <line x1="37.3853" y1="162.6601" x2="40.3843" y2="162.7383"/>
  <line x1="43.3833" y1="162.8165" x2="46.3823" y2="162.8946"/>
  <line x1="49.3812" y1="162.9728" x2="52.3802" y2="163.0509"/>
  <line x1="55.3792" y1="163.1291" x2="58.3782" y2="163.2073"/>
  <line x1="61.3772" y1="163.2854" x2="64.3761" y2="163.3636"/>
  <line x1="67.3751" y1="163.4417" x2="70.3741" y2="163.5199"/>
  <line x1="73.3731" y1="163.5981" x2="76.3721" y2="163.6762"/>
  <line x1="79.3711" y1="163.7544" x2="82.3700" y2="163.8325"/>
  <line x1="85.3690" y1="163.9107" x2="88.3680" y2="163.9889"/>
  <line x1="91.3670" y1="164.0670" x2="94.3660" y2="164.1452"/>
  <line x1="97.3649" y1="164.2233" x2="99.9434" y2="164.2905"/>
  <line x1="162.0074" y1="408.2147" x2="163.2569" y2="405.4873"/>
  <line x1="164.5065" y1="402.7599" x2="165.7560" y2="400.0325"/>
  <line x1="167.0056" y1="397.3051" x2="168.2551" y2="394.5777"/>
  <line x1="169.5046" y1="391.8503" x2="170.7542" y2="389.1229"/>
  <line x1="172.0037" y1="386.3956" x2="173.2533" y2="383.6682"/>
  <line x1="174.5028" y1="380.9408" x2="175.7524" y2="378.2134"/>
  <line x1="177.0019" y1="375.4860" x2="178.2514" y2="372.7586"/>
  <line x1="179.5010" y1="370.0312" x2="180.7505" y2="367.3038"/>
  <line x1="182.0001" y1="364.5765" x2="183.2496" y2="361.8491"/>
  <line x1="184.4991" y1="359.1217" x2="185.7487" y2="356.3943"/>
  <line x1="186.9982" y1="353.6669" x2="188.2478" y2="350.9395"/>
  <line x1="189.4973" y1="348.2121" x2="190.7468" y2="345.4847"/>
  <line x1="191.9964" y1="342.7573" x2="193.2459" y2="340.0300"/>
  <line x1="194.4955" y1="337.3026" x2="195.7450" y2="334.5752"/>
  <line x1="196.9946" y1="331.8478" x2="198.2441" y2="329.1204"/>
  <line x1="199.4936" y1="326.3930" x2="200.7432" y2="323.6656"/>
  <line x1="201.9927" y1="320.9382" x2="203.2423" y2="318.2108"/>
  <line x1="204.4918" y1="315.4835" x2="205.7413" y2="312.7561"/>
  <line x1="206.9909" y1="310.0287" x2="208.2404" y2="307.3013"/>
  <line x1="209.4900" y1="304.5739" x2="210.7395" y2="301.8465"/>
  <line x1="211.9890" y1="299.1191" x2="213.2386" y2="296.3917"/>
  <line x1="214.4881" y1="293.6644" x2="215.7377" y2="290.9370"/>
  <line x1="216.9872" y1="288.2096" x2="218.2367" y2="285.4822"/>
  <line x1="219.4863" y1="282.7548" x2="220.7358" y2="280.0274"/>
  <line x1="221.9854" y1="277.3000" x2="223.2349" y2="274.5726"/>
  <line x1="224.4845" y1="271.8452" x2="225.7340" y2="269.1179"/>
  <line x1="226.9835" y1="266.3905" x2="228.2331" y2="263.6631"/>
  <line x1="229.4826" y1="260.9357" x2="230.7322" y2="258.2083"/>
  <line x1="231.9817" y1="255.4809" x2="233.2312" y2="252.7535"/>
  <line x1="234.4808" y1="250.0261" x2="235.7303" y2="247.2988"/>
  <line x1="236.9799" y1="244.5714" x2="238.2294" y2="241.8440"/>
  <line x1="239.4789" y1="239.1166" x2="240.7285" y2="236.3892"/>
  <line x1="241.9780" y1="233.6618" x2="243.2276" y2="230.9344"/>
  <line x1="244.4771" y1="228.2070" x2="245.7266" y2="225.4796"/>
</g>
<g id="score2" stroke="#00a650" fill="none" stroke-width="0.1000">
  <line x1="98.8131" y1="154.8831" x2="92.5633" y2="394.6853"/>
  <line x1="1.3975" y1="161.7222" x2="99.9434" y2="164.2905"/>
  <line x1="162.0074" y1="408.2147" x2="246.4527" y2="223.8949"/>
</g>
</svg>