<svg xmlns="http://www.w3.org/2000/svg" viewBox="0 0 178.0 222.0" width="100%" preserveAspectRatio="xMidYMid meet">
<rect x="0" y="0" width="178.0" height="222.0" fill="#0d1117"/>
<path d="M 24.00,28.00 L 56.00,28.00 L 56.00,70.00 L 24.00,70.00 Z" fill="#161b22" stroke="#ff0000" stroke-width="0.5"/>
<path d="M 62.00,28.00 L 94.00,28.00 L 94.00,70.00 L 62.00,70.00 Z" fill="#161b22" stroke="#ff0000" stroke-width="0.5"/>
<path d="M 100.00,28.00 L 132.00,28.00 L 132.00,70.00 L 100.00,70.00 Z" fill="#161b22" stroke="#ff0000" stroke-width="0.5"/>
<path d="M 138.00,28.00 L 170.00,28.00 L 170.00,70.00 L 138.00,70.00 Z" fill="#161b22" stroke="#ff0000" stroke-width="0.5"/>
<path d="M 24.00,76.00 L 56.00,76.00 L 56.00,118.00 L 24.00,118.00 Z" fill="#161b22" stroke="#ff0000" stroke-width="0.5"/>
<path d="M 62.00,76.00 L 94.00,76.00 L 94.00,118.00 L 62.00,118.00 Z" fill="#161b22" stroke="#ff0000" stroke-width="0.5"/>
<path d="M 100.00,76.00 L 132.00,76.00 L 132.00,118.00 L 100.00,118.00 Z" fill="#161b22" stroke="#ff0000" stroke-width="0.5"/>
<path d="M 138.00,76.00 L 170.00,76.00 L 170.00,118.00 L 138.00,118.00 Z" fill="#161b22" stroke="#ff0000" stroke-width="0.5"/>
<path d="M 24.00,124.00 L 56.00,124.00 L 56.00,166.00 L 24.00,166.00 Z" fill="#161b22" stroke="#ff0000" stroke-width="0.5"/>
<path d="M 62.00,124.00 L 94.00,124.00 L 94.00,166.00 L 62.00,166.00 Z" fill="#161b22" stroke="#ff0000" stroke-width="0.5"/>
<path d="M 100.00,124.00 L 132.00,124.00 L 132.00,166.00 L 100.00,166.00 Z" fill="#161b22" stroke="#ff0000" stroke-width="0.5"/>
<path d="M 138.00,124.00 L 170.00,124.00 L 170.00,166.00 L 138.00,166.00 Z" fill="#161b22" stroke="#ff0000" stroke-width="0.5"/>
<path d="M 24.00,172.00 L 56.00,172.00 L 56.00,214.00 L 24.00,214.00 Z" fill="#161b22" stroke="#ff0000" stroke-width="0.5"/>
<path d="M 62.00,172.00 L 94.00,172.00 L 94.00,214.00 L 62.00,214.00 Z" fill="#161b22" stroke="#ff0000" stroke-width="0.5"/>
<path d="M 100.00,172.00 L 132.00,172.00 L 132.00,214.00 L 100.00,214.00 Z" fill="#161b22" stroke="#ff0000" stroke-width="0.5"/>
<path d="M 138.00,172.00 L 170.00,172.00 L 170.00,214.00 L 138.00,214.00 Z" fill="#161b22" stroke="#ff0000" stroke-width="0.5"/>
<line x1="24.00" y1="49.00" x2="25.00" y2="49.00" stroke="#0000ff" stroke-width="0.7"/>
<line x1="25.50" y1="49.00" x2="26.50" y2="49.00" stroke="#0000ff" stroke-width="0.7"/>
<line x1="27.00" y1="49.00" x2="28.00" y2="49.00" stroke="#0000ff" stroke-width="0.7"/>
<line x1="28.50" y1="49.00" x2="29.50" y2="49.00" stroke="#0000ff" stroke-width="0.7"/>
<line x1="30.00" y1="49.00" x2="31.00" y2="49.00" stroke="#0000ff" stroke-width="0.7"/>
<line x1="31.50" y1="49.00" x2="32.50" y2="49.00" stroke="#0000ff" stroke-width="0.7"/>
<line x1="33.00" y1="49.00" x2="34.00" y2="49.00" stroke="#0000ff" stroke-width="0.7"/>
<line x1="34.50" y1="49.00" x2="35.50" y2="49.00" stroke="#0000ff" stroke-width="0.7"/>
<line x1="36.00" y1="49.00" x2="37.00" y2="49.00" stroke="#0000ff" stroke-width="0.7"/>
<line x1="37.50" y1="49.00" x2="38.50" y2="49.00" stroke="#0000ff" stroke-width="0.7"/>
<line x1="39.00" y1="49.00" x2="40.00" y2="49.00" stroke="#0000ff" stroke-width="0.7"/>
<line x1="40.50" y1="49.00" x2="41.50" y2="49.00" stroke="#0000ff" stroke-width="0.7"/>
<line x1="42.00" y1="49.00" x2="43.00" y2="49.00" stroke="#0000ff" stroke-width="0.7"/>
<line x1="43.50" y1="49.00" x2="44.50" y2="49.00" stroke="#0000ff" stroke-width="0.7"/>
<line x1="45.00" y1="49.00" x2="46.00" y2="49.00" stroke="#0000ff" stroke-width="0.7"/>
<line x1="46.50" y1="49.00" x2="47.50" y2="49.00" stroke="#0000ff" stroke-width="0.7"/>
<line x1="48.00" y1="49.00" x2="49.00" y2="49.00" stroke="#0000ff" stroke-width="0.7"/>
<line x1="49.50" y1="49.00" x2="50.50" y2="49.00" stroke="#0000ff" stroke-width="0.7"/>
<line x1="51.00" y1="49.00" x2="52.00" y2="49.00" stroke="#0000ff" stroke-width="0.7"/>
<line x1="52.50" y1="49.00" x2="53.50" y2="49.00" stroke="#0000ff" stroke-width="0.7"/>
<line x1="54.00" y1="49.00" x2="55.00" y2="49.00" stroke="#0000ff" stroke-width="0.7"/>
<line x1="55.50" y1="49.00" x2="56.00" y2="49.00" stroke="#0000ff" stroke-width="0.7"/>
<line x1="62.00" y1="49.00" x2="63.00" y2="49.00" stroke="#0000ff" stroke-width="0.7"/>
<line x1="64.00" y1="49.00" x2="65.00" y2="49.00" stroke="#0000ff" stroke-width="0.7"/>
<line x1="66.00" y1="49.00" x2="67.00" y2="49.00" stroke="#0000ff" stroke-width="0.7"/>
<line x1="68.00" y1="49.00" x2="69.00" y2="49.00" stroke="#0000ff" stroke-width="0.7"/>
<line x1="70.00" y1="49.00" x2="71.00" y2="49.00" stroke="#0000ff" stroke-width="0.7"/>
<line x1="72.00" y1="49.00" x2="73.00" y2="49.00" stroke="#0000ff" stroke-width="0.7"/>
<line x1="74.00" y1="49.00" x2="75.00" y2="49.00" stroke="#0000ff" stroke-width="0.7"/>
<line x1="76.00" y1="49.00" x2="77.00" y2="49.00" stroke="#0000ff" stroke-width="0.7"/>
<line x1="78.00" y1="49.00" x2="79.00" y2="49.00" stroke="#0000ff" stroke-width="0.7"/>
<line x1="80.00" y1="49.00" x2="81.00" y2="49.00" stroke="#0000ff" stroke-width="0.7"/>
<line x1="82.00" y1="49.00" x2="83.00" y2="49.00" stroke="#0000ff" stroke-width="0.7"/>
<line x1="84.00" y1="49.00" x2="85.00" y2="49.00" stroke="#0000ff" stroke-width="0.7"/>
<line x1="86.00" y1="49.00" x2="87.00" y2="49.00" stroke="#0000ff" stroke-width="0.7"/>
<line x1="88.00" y1="49.00" x2="89.00" y2="49.00" stroke="#0000ff" stroke-width="0.7"/>
<line x1="90.00" y1="49.00" x2="91.00" y2="49.00" stroke="#0000ff" stroke-width="0.7"/>
<line x1="92.00" y1="49.00" x2="93.00" y2="49.00" stroke="#0000ff" stroke-width="0.7"/>
<line x1="100.00" y1="49.00" x2="101.00" y2="49.00" stroke="#0000ff" stroke-width="0.7"/>
<line x1="102.50" y1="49.00" x2="103.50" y2="49.00" stroke="#0000ff" stroke-width="0.7"/>
<line x1="105.00" y1="49.00" x2="106.00" y2="49.00" stroke="#0000ff" stroke-width="0.7"/>
<line x1="107.50" y1="49.00" x2="108.50" y2="49.00" stroke="#0000ff" stroke-width="0.7"/>
<line x1="110.00" y1="49.00" x2="111.00" y2="49.00" stroke="#0000ff" stroke-width="0.7"/>
<line x1="112.50" y1="49.00" x2="113.50" y2="49.00" stroke="#0000ff" stroke-width="0.7"/>
<line x1="115.00" y1="49.00" x2="116.00" y2="49.00" stroke="#0000ff" stroke-width="0.7"/>
<line x1="117.50" y1="49.00" x2="118.50" y2="49.00" stroke="#0000ff" stroke-width="0.7"/>
<line x1="120.00" y1="49.00" x2="121.00" y2="49.00" stroke="#0000ff" stroke-width="0.7"/>
<line x1="122.50" y1="49.00" x2="123.50" y2="49.00" stroke="#0000ff" stroke-width="0.7"/>
<line x1="125.00" y1="49.00" x2="126.00" y2="49.00" stroke="#0000ff" stroke-width="0.7"/>
<line x1="127.50" y1="49.00" x2="128.50" y2="49.00" stroke="#0000ff" stroke-width="0.7"/>
<line x1="130.00" y1="49.00" x2="131.00" y2="49.00" stroke="#0000ff" stroke-width="0.7"/>
<line x1="138.00" y1="49.00" x2="139.00" y2="49.00" stroke="#0000ff" stroke-width="0.7"/>
<line x1="141.00" y1="49.00" x2="142.00" y2="49.00" stroke="#0000ff" stroke-width="0.7"/>
<line x1="144.00" y1="49.00" x2="145.00" y2="49.00" stroke="#0000ff" stroke-width="0.7"/>
<line x1="147.00" y1="49.00" x2="148.00" y2="49.00" stroke="#0000ff" stroke-width="0.7"/>
<line x1="150.00" y1="49.00" x2="151.00" y2="49.00" stroke="#0000ff" stroke-width="0.7"/>
<line x1="153.00" y1="49.00" x2="154.00" y2="49.00" stroke="#0000ff" stroke-width="0.7"/>
<line x1="156.00" y1="49.00" x2="157.00" y2="49.00" stroke="#0000ff" stroke-width="0.7"/>
<line x1="159.00" y1="49.00" x2="160.00" y2="49.00" stroke="#0000ff" stroke-width="0.7"/>
<line x1="162.00" y1="49.00" x2="163.00" y2="49.00" stroke="#0000ff" stroke-width="0.7"/>
<line x1="165.00" y1="49.00" x2="166.00" y2="49.00" stroke="#0000ff" stroke-width="0.7"/>
<line x1="168.00" y1="49.00" x2="169.00" y2="49.00" stroke="#0000ff" stroke-width="0.7"/>
<line x1="24.00" y1="97.00" x2="26.00" y2="97.00" stroke="#0000ff" stroke-width="0.7"/>
<line x1="26.50" y1="97.00" x2="28.50" y2="97.00" stroke="#0000ff" stroke-width="0.7"/>
<line x1="29.00" y1="97.00" x2="31.00" y2="97.00" stroke="#0000ff" stroke-width="0.7"/>
<line x1="31.50" y1="97.00" x2="33.50" y2="97.00" stroke="#0000ff" stroke-width="0.7"/>
<line x1="34.00" y1="97.00" x2="36.00" y2="97.00" stroke="#0000ff" stroke-width="0.7"/>
<line x1="36.50" y1="97.00" x2="38.50" y2="97.00" stroke="#0000ff" stroke-width="0.7"/>
<line x1="39.00" y1="97.00" x2="41.00" y2="97.00" stroke="#0000ff" stroke-width="0.7"/>
<line x1="41.50" y1="97.00" x2="43.50" y2="97.00" stroke="#0000ff" stroke-width="0.7"/>
<line x1="44.00" y1="97.00" x2="46.00" y2="97.00" stroke="#0000ff" stroke-width="0.7"/>
<line x1="46.50" y1="97.00" x2="48.50" y2="97.00" stroke="#0000ff" stroke-width="0.7"/>
<line x1="49.00" y1="97.00" x2="51.00" y2="97.00" stroke="#0000ff" stroke-width="0.7"/>
<line x1="51.50" y1="97.00" x2="53.50" y2="97.00" stroke="#0000ff" stroke-width="0.7"/>
<line x1="54.00" y1="97.00" x2="56.00" y2="97.00" stroke="#0000ff" stroke-width="0.7"/>
<line x1="62.00" y1="97.00" x2="64.00" y2="97.00" stroke="#0000ff" stroke-width="0.7"/>
<line x1="65.00" y1="97.00" x2="67.00" y2="97.00" stroke="#0000ff" stroke-width="0.7"/>
<line x1="68.00" y1="97.00" x2="70.00" y2="97.00" stroke="#0000ff" stroke-width="0.7"/>
<line x1="71.00" y1="97.00" x2="73.00" y2="97.00" stroke="#0000ff" stroke-width="0.7"/>
<line x1="74.00" y1="97.00" x2="76.00" y2="97.00" stroke="#0000ff" stroke-width="0.7"/>
<line x1="77.00" y1="97.00" x2="79.00" y2="97.00" stroke="#0000ff" stroke-width="0.7"/>
<line x1="80.00" y1="97.00" x2="82.00" y2="97.00" stroke="#0000ff" stroke-width="0.7"/>
<line x1="83.00" y1="97.00" x2="85.00" y2="97.00" stroke="#0000ff" stroke-width="0.7"/>
<line x1="86.00" y1="97.00" x2="88.00" y2="97.00" stroke="#0000ff" stroke-width="0.7"/>
<line x1="89.00" y1="97.00" x2="91.00" y2="97.00" stroke="#0000ff" stroke-width="0.7"/>
<line x1="92.00" y1="97.00" x2="94.00" y2="97.00" stroke="#0000ff" stroke-width="0.7"/>
<line x1="100.00" y1="97.00" x2="102.00" y2="97.00" stroke="#0000ff" stroke-width="0.7"/>
<line x1="103.50" y1="97.00" x2="105.50" y2="97.00" stroke="#0000ff" stroke-width="0.7"/>
<line x1="107.00" y1="97.00" x2="109.00" y2="97.00" stroke="#0000ff" stroke-width="0.7"/>
<line x1="110.50" y1="97.00" x2="112.50" y2="97.00" stroke="#0000ff" stroke-width="0.7"/>
<line x1="114.00" y1="97.00" x2="116.00" y2="97.00" stroke="#0000ff" stroke-width="0.7"/>
<line x1="117.50" y1="97.00" x2="119.50" y2="97.00" stroke="#0000ff" stroke-width="0.7"/>
<line x1="121.00" y1="97.00" x2="123.00" y2="97.00" stroke="#0000ff" stroke-width="0.7"/>
<line x1="124.50" y1="97.00" x2="126.50" y2="97.00" stroke="#0000ff" stroke-width="0.7"/>
<line x1="128.00" y1="97.00" x2="130.00" y2="97.00" stroke="#0000ff" stroke-width="0.7"/>
<line x1="131.50" y1="97.00" x2="132.00" y2="97.00" stroke="#0000ff" stroke-width="0.7"/>
<line x1="138.00" y1="97.00" x2="140.00" y2="97.00" stroke="#0000ff" stroke-width="0.7"/>
<line x1="142.00" y1="97.00" x2="144.00" y2="97.00" stroke="#0000ff" stroke-width="0.7"/>
<line x1="146.00" y1="97.00" x2="148.00" y2="97.00" stroke="#0000ff" stroke-width="0.7"/>
<line x1="150.00" y1="97.00" x2="152.00" y2="97.00" stroke="#0000ff" stroke-width="0.7"/>
<line x1="154.00" y1="97.00" x2="156.00" y2="97.00" stroke="#0000ff" stroke-width="0.7"/>
<line x1="158.00" y1="97.00" x2="160.00" y2="97.00" stroke="#0000ff" stroke-width="0.7"/>
<line x1="162.00" y1="97.00" x2="164.00" y2="97.00" stroke="#0000ff" stroke-width="0.7"/>
<line x1="166.00" y1="97.00" x2="168.00" y2="97.00" stroke="#0000ff" stroke-width="0.7"/>
<line x1="24.00" y1="145.00" x2="27.00" y2="145.00" stroke="#0000ff" stroke-width="0.7"/>
<line x1="27.50" y1="145.00" x2="30.50" y2="145.00" stroke="#0000ff" stroke-width="0.7"/>
<line x1="31.00" y1="145.00" x2="34.00" y2="145.00" stroke="#0000ff" stroke-width="0.7"/>
<line x1="34.50" y1="145.00" x2="37.50" y2="145.00" stroke="#0000ff" stroke-width="0.7"/>
<line x1="38.00" y1="145.00" x2="41.00" y2="145.00" stroke="#0000ff" stroke-width="0.7"/>
<line x1="41.50" y1="145.00" x2="44.50" y2="145.00" stroke="#0000ff" stroke-width="0.7"/>
<line x1="45.00" y1="145.00" x2="48.00" y2="145.00" stroke="#0000ff" stroke-width="0.7"/>
<line x1="48.50" y1="145.00" x2="51.50" y2="145.00" stroke="#0000ff" stroke-width="0.7"/>
<line x1="52.00" y1="145.00" x2="55.00" y2="145.00" stroke="#0000ff" stroke-width="0.7"/>
<line x1="55.50" y1="145.00" x2="56.00" y2="145.00" stroke="#0000ff" stroke-width="0.7"/>
<line x1="62.00" y1="145.00" x2="65.00" y2="145.00" stroke="#0000ff" stroke-width="0.7"/>
<line x1="66.00" y1="145.00" x2="69.00" y2="145.00" stroke="#0000ff" stroke-width="0.7"/>
<line x1="70.00" y1="145.00" x2="73.00" y2="145.00" stroke="#0000ff" stroke-width="0.7"/>
<line x1="74.00" y1="145.00" x2="77.00" y2="145.00" stroke="#0000ff" stroke-width="0.7"/>
<line x1="78.00" y1="145.00" x2="81.00" y2="145.00" stroke="#0000ff" stroke-width="0.7"/>
<line x1="82.00" y1="145.00" x2="85.00" y2="145.00" stroke="#0000ff" stroke-width="0.7"/>
<line x1="86.00" y1="145.00" x2="89.00" y2="145.00" stroke="#0000ff" stroke-width="0.7"/>
<line x1="90.00" y1="145.00" x2="93.00" y2="145.00" stroke="#0000ff" stroke-width="0.7"/>
<line x1="100.00" y1="145.00" x2="103.00" y2="145.00" stroke="#0000ff" stroke-width="0.7"/>
<line x1="104.50" y1="145.00" x2="107.50" y2="145.00" stroke="#0000ff" stroke-width="0.7"/>
<line x1="109.00" y1="145.00" x2="112.00" y2="145.00" stroke="#0000ff" stroke-width="0.7"/>
<line x1="113.50" y1="145.00" x2="116.50" y2="145.00" stroke="#0000ff" stroke-width="0.7"/>
<line x1="118.00" y1="145.00" x2="121.00" y2="145.00" stroke="#0000ff" stroke-width="0.7"/>
<line x1="122.50" y1="145.00" x2="125.50" y2="145.00" stroke="#0000ff" stroke-width="0.7"/>
<line x1="127.00" y1="145.00" x2="130.00" y2="145.00" stroke="#0000ff" stroke-width="0.7"/>
<line x1="131.50" y1="145.00" x2="132.00" y2="145.00" stroke="#0000ff" stroke-width="0.7"/>
<line x1="138.00" y1="145.00" x2="141.00" y2="145.00" stroke="#0000ff" stroke-width="0.7"/>
<line x1="143.00" y1="145.00" x2="146.00" y2="145.00" stroke="#0000ff" stroke-width="0.7"/>
<line x1="148.00" y1="145.00" x2="151.00" y2="145.00" stroke="#0000ff" stroke-width="0.7"/>
<line x1="153.00" y1="145.00" x2="156.00" y2="145.00" stroke="#0000ff" stroke-width="0.7"/>
<line x1="158.00" y1="145.00" x2="161.00" y2="145.00" stroke="#0000ff" stroke-width="0.7"/>
<line x1="163.00" y1="145.00" x2="166.00" y2="145.00" stroke="#0000ff" stroke-width="0.7"/>
<line x1="168.00" y1="145.00" x2="170.00" y2="145.00" stroke="#0000ff" stroke-width="0.7"/>
<line x1="24.00" y1="193.00" x2="29.00" y2="193.00" stroke="#0000ff" stroke-width="0.7"/>
<line x1="29.50" y1="193.00" x2="34.50" y2="193.00" stroke="#0000ff" stroke-width="0.7"/>
<line x1="35.00" y1="193.00" x2="40.00" y2="193.00" stroke="#0000ff" stroke-width="0.7"/>
<line x1="40.50" y1="193.00" x2="45.50" y2="193.00" stroke="#0000ff" stroke-width="0.7"/>
<line x1="46.00" y1="193.00" x2="51.00" y2="193.00" stroke="#0000ff" stroke-width="0.7"/>
<line x1="51.50" y1="193.00" x2="56.00" y2="193.00" stroke="#0000ff" stroke-width="0.7"/>
<line x1="62.00" y1="193.00" x2="67.00" y2="193.00" stroke="#0000ff" stroke-width="0.7"/>
<line x1="68.00" y1="193.00" x2="73.00" y2="193.00" stroke="#0000ff" stroke-width="0.7"/>
<line x1="74.00" y1="193.00" x2="79.00" y2="193.00" stroke="#0000ff" stroke-width="0.7"/>
<line x1="80.00" y1="193.00" x2="85.00" y2="193.00" stroke="#0000ff" stroke-width="0.7"/>
<line x1="86.00" y1="193.00" x2="91.00" y2="193.00" stroke="#0000ff" stroke-width="0.7"/>
<line x1="92.00" y1="193.00" x2="94.00" y2="193.00" stroke="#0000ff" stroke-width="0.7"/>
<line x1="100.00" y1="193.00" x2="105.00" y2="193.00" stroke="#0000ff" stroke-width="0.7"/>
<line x1="106.50" y1="193.00" x2="111.50" y2="193.00" stroke="#0000ff" stroke-width="0.7"/>
<line x1="113.00" y1="193.00" x2="118.00" y2="193.00" stroke="#0000ff" stroke-width="0.7"/>
<line x1="119.50" y1="193.00" x2="124.50" y2="193.00" stroke="#0000ff" stroke-width="0.7"/>
<line x1="126.00" y1="193.00" x2="131.00" y2="193.00" stroke="#0000ff" stroke-width="0.7"/>
<line x1="138.00" y1="193.00" x2="143.00" y2="193.00" stroke="#0000ff" stroke-width="0.7"/>
<line x1="145.00" y1="193.00" x2="150.00" y2="193.00" stroke="#0000ff" stroke-width="0.7"/>
<line x1="152.00" y1="193.00" x2="157.00" y2="193.00" stroke="#0000ff" stroke-width="0.7"/>
<line x1="159.00" y1="193.00" x2="164.00" y2="193.00" stroke="#0000ff" stroke-width="0.7"/>
<line x1="166.00" y1="193.00" x2="170.00" y2="193.00" stroke="#0000ff" stroke-width="0.7"/>
<text x="24.0" y="13.5" fill="#ff9500" font-size="3.6" text-anchor="middle" font-family="monospace">FOLD / SCORE TEST  -  3.17 mm stock  -  rows=dash(mm)  cols=gap(mm)</text>
<text x="40.0" y="25.5" fill="#ff9500" font-size="3.6" text-anchor="middle" font-family="monospace">gap 0.5</text>
<text x="78.0" y="25.5" fill="#ff9500" font-size="3.6" text-anchor="middle" font-family="monospace">gap 1</text>
<text x="116.0" y="25.5" fill="#ff9500" font-size="3.6" text-anchor="middle" font-family="monospace">gap 1.5</text>
<text x="154.0" y="25.5" fill="#ff9500" font-size="3.6" text-anchor="middle" font-family="monospace">gap 2</text>
<text x="16.0" y="49.0" fill="#ff9500" font-size="3.6" text-anchor="middle" font-family="monospace">dash 1</text>
<text x="40.0" y="61.6" fill="#ff9500" font-size="3.6" text-anchor="middle" font-family="monospace">1/0.5</text>
<text x="78.0" y="61.6" fill="#ff9500" font-size="3.6" text-anchor="middle" font-family="monospace">1/1</text>
<text x="116.0" y="61.6" fill="#ff9500" font-size="3.6" text-anchor="middle" font-family="monospace">1/1.5</text>
<text x="154.0" y="61.6" fill="#ff9500" font-size="3.6" text-anchor="middle" font-family="monospace">1/2</text>
<text x="16.0" y="97.0" fill="#ff9500" font-size="3.6" text-anchor="middle" font-family="monospace">dash 2</text>
<text x="40.0" y="109.6" fill="#ff9500" font-size="3.6" text-anchor="middle" font-family="monospace">2/0.5</text>
<text x="78.0" y="109.6" fill="#ff9500" font-size="3.6" text-anchor="middle" font-family="monospace">2/1</text>
<text x="116.0" y="109.6" fill="#ff9500" font-size="3.6" text-anchor="middle" font-family="monospace">2/1.5</text>
<text x="154.0" y="109.6" fill="#ff9500" font-size="3.6" text-anchor="middle" font-family="monospace">2/2</text>
<text x="16.0" y="145.0" fill="#ff9500" font-size="3.6" text-anchor="middle" font-family="monospace">dash 3</text>
<text x="40.0" y="157.6" fill="#ff9500" font-size="3.6" text-anchor="middle" font-family="monospace">3/0.5</text>
<text x="78.0" y="157.6" fill="#ff9500" font-size="3.6" text-anchor="middle" font-family="monospace">3/1</text>
<text x="116.0" y="157.6" fill="#ff9500" font-size="3.6" text-anchor="middle" font-family="monospace">3/1.5</text>
<text x="154.0" y="157.6" fill="#ff9500" font-size="3.6" text-anchor="middle" font-family="monospace">3/2</text>
<text x="16.0" y="193.0" fill="#ff9500" font-size="3.6" text-anchor="middle" font-family="monospace">dash 5</text>
<text x="40.0" y="205.6" fill="#ff9500" font-size="3.6" text-anchor="middle" font-family="monospace">5/0.5</text>
<text x="78.0" y="205.6" fill="#ff9500" font-size="3.6" text-anchor="middle" font-family="monospace">5/1</text>
<text x="116.0" y="205.6" fill="#ff9500" font-size="3.6" text-anchor="middle" font-family="monospace">5/1.5</text>
<text x="154.0" y="205.6" fill="#ff9500" font-size="3.6" text-anchor="middle" font-family="monospace">5/2</text>
</svg>