<?xml version="1.0" encoding="UTF-8"?>
<svg xmlns="http://www.w3.org/2000/svg" version="1.1" width="341.4808mm" height="296.3615mm" viewBox="0 0 341.4808 296.3615">
<title>bin flat pattern</title>
<g id="cut" stroke="#ff0000" fill="none" stroke-width="0.1000">
  <path d="M -0.0770,160.1908 L 16.4882,119.5117 L 8.0946,56.7993 L 80.0164,47.1731 L 80.0128,47.1522 L 95.4544,43.8643 L 110.8308,39.2136 L 125.7633,33.2904 L 137.2386,27.5829 L 137.1646,27.4095 L 152.2921,20.9502 L 154.6981,20.0479 L 157.1021,19.1449 L 159.5056,18.2407 L 161.9087,17.3353 L 164.3113,16.4287 L 166.7134,15.5210 L 169.1152,14.6122 L 171.5165,13.7022 L 173.9174,12.7911 L 176.3178,11.8789 L 178.7179,10.9657 L 181.1176,10.0514 L 183.5169,9.1361 L 185.9158,8.2198 L 188.3143,7.3025 L 190.7124,6.3842 L 193.1102,5.4649 L 195.5076,4.5447 L 197.9046,3.6235 L 200.3014,2.7015 L 202.6977,1.7785 L 205.0938,0.8547 L 207.5571,-0.0960 L 242.4134,81.5376 L 278.6099,110.7562 L 341.5793,258.2305 L 252.0451,296.4599 L 211.5224,201.5558 L 200.7487,201.5558 L 196.5487,205.7558 L 186.9534,205.7558 L 182.7534,201.5558 L 178.6155,201.5558 L 174.4155,205.7558 L 164.8202,205.7558 L 160.6202,201.5558 L 156.4823,201.5558 L 152.2823,205.7558 L 136.8202,205.7558 L 132.6202,201.5558 L 128.4823,201.5558 L 124.2823,205.7558 L 118.8708,205.7558 L 114.6708,201.5558 L 100.3989,201.5558 L 100.3989,201.5557 L 7.1302,214.0389 L -0.0770,160.1908 Z"/>
</g>
<g id="score" stroke="#0000ff" fill="none" stroke-width="0.1000">
  <line x1="212.1043" y1="202.7276" x2="210.1409" y2="198.1292"/>
  <line x1="208.1775" y1="193.5309" x2="206.2140" y2="188.9325"/>
  <line x1="204.2506" y1="184.3341" x2="202.2872" y2="179.7358"/>
  <line x1="200.3237" y1="175.1374" x2="198.3603" y2="170.5391"/>
  <line x1="196.3969" y1="165.9407" x2="194.4334" y2="161.3423"/>
  <line x1="192.4700" y1="156.7440" x2="190.5066" y2="152.1456"/>
  <line x1="188.5431" y1="147.5472" x2="186.5797" y2="142.9489"/>
  <line x1="184.6163" y1="138.3505" x2="182.6529" y2="133.7522"/>
  <line x1="180.6894" y1="129.1538" x2="178.7260" y2="124.5554"/>
  <line x1="176.7626" y1="119.9571" x2="174.7991" y2="115.3587"/>
  <line x1="172.8357" y1="110.7603" x2="170.8723" y2="106.1620"/>
  <line x1="168.9088" y1="101.5636" x2="166.9454" y2="96.9653"/>
  <line x1="164.9820" y1="92.3669" x2="163.0185" y2="87.7685"/>
  <line x1="161.0551" y1="83.1702" x2="159.0917" y2="78.5718"/>
  <line x1="157.1282" y1="73.9734" x2="155.1648" y2="69.3751"/>
  <line x1="153.2014" y1="64.7767" x2="151.2379" y2="60.1784"/>
  <line x1="149.2745" y1="55.5800" x2="147.3111" y2="50.9816"/>
  <line x1="145.3477" y1="46.3833" x2="143.3842" y2="41.7849"/>
  <line x1="141.4208" y1="37.1865" x2="139.4574" y2="32.5882"/>
  <line x1="137.4939" y1="27.9898" x2="137.2630" y2="27.4490"/>
  <line x1="103.5397" y1="201.0596" x2="102.8764" y2="196.1038"/>
  <line x1="102.2131" y1="191.1480" x2="101.5499" y2="186.1922"/>
  <line x1="100.8866" y1="181.2364" x2="100.2233" y2="176.2806"/>
  <line x1="99.5600" y1="171.3248" x2="98.8967" y2="166.3690"/>
  <line x1="98.2334" y1="161.4132" x2="97.5701" y2="156.4573"/>
  <line x1="96.9068" y1="151.5015" x2="96.2435" y2="146.5457"/>
  <line x1="95.5802" y1="141.5899" x2="94.9169" y2="136.6341"/>
  <line x1="94.2536" y1="131.6783" x2="93.5903" y2="126.7225"/>
  <line x1="92.9270" y1="121.7667" x2="92.2637" y2="116.8109"/>
  <line x1="91.6004" y1="111.8551" x2="90.9371" y2="106.8993"/>
  <line x1="90.2738" y1="101.9435" x2="89.6105" y2="96.9876"/>
  <line x1="88.9472" y1="92.0318" x2="88.2839" y2="87.0760"/>
  <line x1="87.6206" y1="82.1202" x2="86.9574" y2="77.1644"/>
  <line x1="86.2941" y1="72.2086" x2="85.6308" y2="67.2528"/>
  <line x1="84.9675" y1="62.2970" x2="84.3042" y2="57.3412"/>
  <line x1="83.6409" y1="52.3854" x2="82.9776" y2="47.4296"/>
  <line x1="299.6124" y1="160.1350" x2="295.0140" y2="162.0985"/>
  <line x1="290.4157" y1="164.0619" x2="285.8173" y2="166.0253"/>
  <line x1="281.2190" y1="167.9887" x2="276.6206" y2="169.9522"/>
  <line x1="272.0222" y1="171.9156" x2="267.4239" y2="173.8790"/>
  <line x1="262.8255" y1="175.8425" x2="258.2271" y2="177.8059"/>
  <line x1="253.6288" y1="179.7693" x2="249.0304" y2="181.7328"/>
  <line x1="244.4321" y1="183.6962" x2="239.8337" y2="185.6596"/>
  <line x1="235.2353" y1="187.6231" x2="230.6370" y2="189.5865"/>
  <line x1="226.0386" y1="191.5499" x2="221.4402" y2="193.5134"/>
  <line x1="216.8419" y1="195.4768" x2="212.2435" y2="197.4402"/>
  <line x1="207.6452" y1="199.4037" x2="207.2963" y2="199.5526"/>
</g>
<g id="score2" stroke="#00a650" fill="none" stroke-width="0.1000">
  <line x1="212.1043" y1="202.7276" x2="137.2630" y2="27.4490"/>
  <line x1="103.5397" y1="201.0596" x2="82.9017" y2="46.8626"/>
  <line x1="299.6124" y1="160.1350" x2="207.2963" y2="199.5526"/>
</g>
<g id="labels" fill="#ff9500" font-size="3.000" font-family="sans-serif">
  <text x="137.629" y="112.051" text-anchor="middle">bin_third_left</text>
  <text x="137.629" y="116.851" text-anchor="middle"><TIMESTAMP></text>
  <text x="137.629" y="121.651" text-anchor="middle">t=3.175mm</text>
  <text x="137.629" y="126.451" text-anchor="middle">perf 5/5</text>
  <text x="137.629" y="131.251" text-anchor="middle">+score overlay</text>
  <text x="137.629" y="136.051" text-anchor="middle">kerf 0.15</text>
  <text x="137.629" y="140.851" text-anchor="middle">comp 1</text>
  <text x="137.629" y="145.651" text-anchor="middle">clear 1</text>
</g>
</svg>