0
SECTION
2
ENTITIES
0
POLYLINE
8
CUT
66
1
70
1
0
VERTEX
8
CUT
10
-0.19685
20
337.53214
30
0.0
0
VERTEX
8
CUT
10
78.46763
20
153.29970
30
0.0
0
VERTEX
8
CUT
10
114.66416
20
124.08115
30
0.0
0
VERTEX
8
CUT
10
167.72707
20
-0.19235
30
0.0
0
VERTEX
8
CUT
10
169.62881
20
0.54583
30
0.0
0
VERTEX
8
CUT
10
171.39547
20
1.23095
30
0.0
0
VERTEX
8
CUT
10
172.27888
20
1.57330
30
0.0
0
VERTEX
8
CUT
10
174.04586
20
2.25759
30
0.0
0
VERTEX
8
CUT
10
174.92943
20
2.59952
30
0.0
0
VERTEX
8
CUT
10
176.69673
20
3.28297
30
0.0
0
VERTEX
8
CUT
10
177.58047
20
3.62448
30
0.0
0
VERTEX
8
CUT
10
179.34809
20
4.30705
30
0.0
0
VERTEX
8
CUT
10
180.23199
20
4.64812
30
0.0
0
VERTEX
8
CUT
10
181.99995
20
5.32982
30
0.0
0
VERTEX
8
CUT
10
182.88402
20
5.67044
30
0.0
0
VERTEX
8
CUT
10
184.65232
20
6.35124
30
0.0
0
VERTEX
8
CUT
10
185.53656
20
6.69140
30
0.0
0
VERTEX
8
CUT
10
187.30521
20
7.37128
30
0.0
0
VERTEX
8
CUT
10
188.19222
20
7.71198
30
0.0
0
VERTEX
8
CUT
10
234.71745
20
27.57755
30
0.0
0
VERTEX
8
CUT
10
234.65095
20
27.73330
30
0.0
0
VERTEX
8
CUT
10
240.50447
20
30.41506
30
0.0
0
VERTEX
8
CUT
10
252.64488
20
34.86726
30
0.0
0
VERTEX
8
CUT
10
265.09568
20
38.35856
30
0.0
0
VERTEX
8
CUT
10
277.78095
20
40.86766
30
0.0
0
VERTEX
8
CUT
10
290.62333
20
42.37927
30
0.0
0
VERTEX
8
CUT
10
303.01742
20
42.86357
30
0.0
0
VERTEX
8
CUT
10
303.01701
20
42.88428
30
0.0
0
VERTEX
8
CUT
10
369.55857
20
42.88428
30
0.0
0
VERTEX
8
CUT
10
369.55857
20
149.99814
30
0.0
0
VERTEX
8
CUT
10
391.37380
20
187.78322
30
0.0
0
VERTEX
8
CUT
10
391.37380
20
241.72742
30
0.0
0
VERTEX
8
CUT
10
287.50664
20
241.72742
30
0.0
0
VERTEX
8
CUT
10
283.30664
20
245.92742
30
0.0
0
VERTEX
8
CUT
10
268.22910
20
245.92742
30
0.0
0
VERTEX
8
CUT
10
264.02910
20
241.72742
30
0.0
0
VERTEX
8
CUT
10
259.95336
20
241.72742
30
0.0
0
VERTEX
8
CUT
10
255.75336
20
245.92742
30
0.0
0
VERTEX
8
CUT
10
244.93529
20
245.92742
30
0.0
0
VERTEX
8
CUT
10
240.73529
20
241.72742
30
0.0
0
VERTEX
8
CUT
10
236.65956
20
241.72742
30
0.0
0
VERTEX
8
CUT
10
232.45956
20
245.92742
30
0.0
0
VERTEX
8
CUT
10
226.98591
20
245.92742
30
0.0
0
VERTEX
8
CUT
10
222.78591
20
241.72742
30
0.0
0
VERTEX
8
CUT
10
218.71018
20
241.72742
30
0.0
0
VERTEX
8
CUT
10
214.51018
20
245.92742
30
0.0
0
VERTEX
8
CUT
10
198.98591
20
245.92742
30
0.0
0
VERTEX
8
CUT
10
194.78591
20
241.72742
30
0.0
0
VERTEX
8
CUT
10
190.71018
20
241.72742
30
0.0
0
VERTEX
8
CUT
10
186.51018
20
245.92742
30
0.0
0
VERTEX
8
CUT
10
176.85272
20
245.92742
30
0.0
0
VERTEX
8
CUT
10
172.65272
20
241.72742
30
0.0
0
VERTEX
8
CUT
10
168.57698
20
241.72742
30
0.0
0
VERTEX
8
CUT
10
164.37698
20
245.92742
30
0.0
0
VERTEX
8
CUT
10
154.71952
20
245.92742
30
0.0
0
VERTEX
8
CUT
10
150.51952
20
241.72742
30
0.0
0
VERTEX
8
CUT
10
143.27868
20
241.72742
30
0.0
0
VERTEX
8
CUT
10
86.55520
20
374.57396
30
0.0
0
VERTEX
8
CUT
10
73.05606
20
368.81003
30
0.0
0
VERTEX
8
CUT
10
71.63241
20
375.10679
30
0.0
0
VERTEX
8
CUT
10
61.73678
20
370.88150
30
0.0
0
VERTEX
8
CUT
10
65.30024
20
365.49842
30
0.0
0
VERTEX
8
CUT
10
49.97704
20
358.95564
30
0.0
0
VERTEX
8
CUT
10
48.55339
20
365.25240
30
0.0
0
VERTEX
8
CUT
10
38.65776
20
361.02711
30
0.0
0
VERTEX
8
CUT
10
42.22122
20
355.64402
30
0.0
0
VERTEX
8
CUT
10
26.89802
20
349.10125
30
0.0
0
VERTEX
8
CUT
10
25.47437
20
355.39800
30
0.0
0
VERTEX
8
CUT
10
15.57874
20
351.17272
30
0.0
0
VERTEX
8
CUT
10
19.14221
20
345.78963
30
0.0
0
VERTEX
8
CUT
10
-0.19685
20
337.53214
30
0.0
0
SEQEND
0
POLYLINE
8
CUT
66
1
70
1
0
VERTEX
8
CUT
10
311.88933
20
228.82742
30
0.0
0
VERTEX
8
CUT
10
319.98933
20
228.82742
30
0.0
0
VERTEX
8
CUT
10
319.98933
20
235.27742
30
0.0
0
VERTEX
8
CUT
10
311.88933
20
235.27742
30
0.0
0
VERTEX
8
CUT
10
311.88933
20
228.82742
30
0.0
0
SEQEND
0
POLYLINE
8
CUT
66
1
70
1
0
VERTEX
8
CUT
10
336.98415
20
228.82742
30
0.0
0
VERTEX
8
CUT
10
345.08415
20
228.82742
30
0.0
0
VERTEX
8
CUT
10
345.08415
20
235.27742
30
0.0
0
VERTEX
8
CUT
10
336.98415
20
235.27742
30
0.0
0
VERTEX
8
CUT
10
336.98415
20
228.82742
30
0.0
0
SEQEND
0
POLYLINE
8
CUT
66
1
70
1
0
VERTEX
8
CUT
10
362.07897
20
228.82742
30
0.0
0
VERTEX
8
CUT
10
370.17897
20
228.82742
30
0.0
0
VERTEX
8
CUT
10
370.17897
20
235.27742
30
0.0
0
VERTEX
8
CUT
10
362.07897
20
235.27742
30
0.0
0
VERTEX
8
CUT
10
362.07897
20
228.82742
30
0.0
0
SEQEND
0
LINE
8
SCORE
10
142.11491
20
244.07098
30
0.0
11
144.07834
21
239.47262
31
0.0
0
LINE
8
SCORE
10
146.04177
20
234.87425
30
0.0
11
148.00520
21
230.27589
31
0.0
0
LINE
8
SCORE
10
149.96864
20
225.67753
30
0.0
11
151.93207
21
221.07917
31
0.0
0
LINE
8
SCORE
10
153.89550
20
216.48080
30
0.0
11
155.85893
21
211.88244
31
0.0
0
LINE
8
SCORE
10
157.82236
20
207.28408
30
0.0
11
159.78579
21
202.68572
31
0.0
0
LINE
8
SCORE
10
161.74923
20
198.08735
30
0.0
11
163.71266
21
193.48899
31
0.0
0
LINE
8
SCORE
10
165.67609
20
188.89063
30
0.0
11
167.63952
21
184.29227
31
0.0
0
LINE
8
SCORE
10
169.60295
20
179.69390
30
0.0
11
171.56638
21
175.09554
31
0.0
0
LINE
8
SCORE
10
173.52982
20
170.49718
30
0.0
11
175.49325
21
165.89882
31
0.0
0
LINE
8
SCORE
10
177.45668
20
161.30046
30
0.0
11
179.42011
21
156.70209
31
0.0
0
LINE
8
SCORE
10
181.38354
20
152.10373
30
0.0
11
183.34697
21
147.50537
31
0.0
0
LINE
8
SCORE
10
185.31041
20
142.90701
30
0.0
11
187.27384
21
138.30864
31
0.0
0
LINE
8
SCORE
10
189.23727
20
133.71028
30
0.0
11
191.20070
21
129.11192
31
0.0
0
LINE
8
SCORE
10
193.16413
20
124.51356
30
0.0
11
195.12756
21
119.91519
31
0.0
0
LINE
8
SCORE
10
197.09099
20
115.31683
30
0.0
11
199.05443
21
110.71847
31
0.0
0
LINE
8
SCORE
10
201.01786
20
106.12011
30
0.0
11
202.98129
21
101.52174
31
0.0
0
LINE
8
SCORE
10
204.94472
20
96.92338
30
0.0
11
206.90815
21
92.32502
31
0.0
0
LINE
8
SCORE
10
208.87158
20
87.72666
30
0.0
11
210.83502
21
83.12830
31
0.0
0
LINE
8
SCORE
10
212.79845
20
78.52993
30
0.0
11
214.76188
21
73.93157
31
0.0
0
LINE
8
SCORE
10
216.72531
20
69.33321
30
0.0
11
218.68874
21
64.73485
31
0.0
0
LINE
8
SCORE
10
220.65217
20
60.13648
30
0.0
11
222.61561
21
55.53812
31
0.0
0
LINE
8
SCORE
10
224.57904
20
50.93976
30
0.0
11
226.54247
21
46.34140
31
0.0
0
LINE
8
SCORE
10
228.50590
20
41.74303
30
0.0
11
230.46933
21
37.14467
31
0.0
0
LINE
8
SCORE
10
232.43276
20
32.54631
30
0.0
11
234.39619
21
27.94795
31
0.0
0
LINE
8
SCORE
10
297.19451
20
43.03428
30
0.0
11
297.19451
21
48.03428
31
0.0
0
LINE
8
SCORE
10
297.19451
20
53.03428
30
0.0
11
297.19451
21
58.03428
31
0.0
0
LINE
8
SCORE
10
297.19451
20
63.03428
30
0.0
11
297.19451
21
68.03428
31
0.0
0
LINE
8
SCORE
10
297.19451
20
73.03428
30
0.0
11
297.19451
21
78.03428
31
0.0
0
LINE
8
SCORE
10
297.19451
20
83.03428
30
0.0
11
297.19451
21
88.03428
31
0.0
0
LINE
8
SCORE
10
297.19451
20
93.03428
30
0.0
11
297.19451
21
98.03428
31
0.0
0
LINE
8
SCORE
10
297.19451
20
103.03428
30
0.0
11
297.19451
21
108.03428
31
0.0
0
LINE
8
SCORE
10
297.19451
20
113.03428
30
0.0
11
297.19451
21
118.03428
31
0.0
0
LINE
8
SCORE
10
297.19451
20
123.03428
30
0.0
11
297.19451
21
128.03428
31
0.0
0
LINE
8
SCORE
10
297.19451
20
133.03428
30
0.0
11
297.19451
21
138.03428
31
0.0
0
LINE
8
SCORE
10
297.19451
20
143.03428
30
0.0
11
297.19451
21
148.03428
31
0.0
0
LINE
8
SCORE
10
297.19451
20
153.03428
30
0.0
11
297.19451
21
158.03428
31
0.0
0
LINE
8
SCORE
10
297.19451
20
163.03428
30
0.0
11
297.19451
21
168.03428
31
0.0
0
LINE
8
SCORE
10
297.19451
20
173.03428
30
0.0
11
297.19451
21
178.03428
31
0.0
0
LINE
8
SCORE
10
297.19451
20
183.03428
30
0.0
11
297.19451
21
188.03428
31
0.0
0
LINE
8
SCORE
10
297.19451
20
193.03428
30
0.0
11
297.19451
21
198.03428
31
0.0
0
LINE
8
SCORE
10
297.19451
20
203.03428
30
0.0
11
297.19451
21
208.03428
31
0.0
0
LINE
8
SCORE
10
297.19451
20
213.03428
30
0.0
11
297.19451
21
218.03428
31
0.0
0
LINE
8
SCORE
10
297.19451
20
223.03428
30
0.0
11
297.19451
21
228.03428
31
0.0
0
LINE
8
SCORE
10
297.19451
20
233.03428
30
0.0
11
297.19451
21
238.03428
31
0.0
0
LINE
8
SCORE
10
59.41483
20
198.30340
30
0.0
11
64.01319
21
200.26684
31
0.0
0
LINE
8
SCORE
10
68.61155
20
202.23027
30
0.0
11
73.20991
21
204.19370
31
0.0
0
LINE
8
SCORE
10
77.80827
20
206.15713
30
0.0
11
82.40664
21
208.12056
31
0.0
0
LINE
8
SCORE
10
87.00500
20
210.08399
30
0.0
11
91.60336
21
212.04742
31
0.0
0
LINE
8
SCORE
10
96.20172
20
214.01086
30
0.0
11
100.80009
21
215.97429
31
0.0
0
LINE
8
SCORE
10
105.39845
20
217.93772
30
0.0
11
109.99681
21
219.90115
31
0.0
0
LINE
8
SCORE
10
114.59517
20
221.86458
30
0.0
11
119.19354
21
223.82801
31
0.0
0
LINE
8
SCORE
10
123.79190
20
225.79145
30
0.0
11
128.39026
21
227.75488
31
0.0
0
LINE
8
SCORE
10
132.98862
20
229.71831
30
0.0
11
137.58699
21
231.68174
31
0.0
0
LINE
8
SCORE
10
142.18535
20
233.64517
30
0.0
11
146.78371
21
235.60860
31
0.0
0
LINE
8
SCORE
10
151.38207
20
237.57204
30
0.0
11
151.73090
21
237.72098
31
0.0
0
LINE
8
SCORE2
10
142.11491
20
244.07098
30
0.0
11
234.52060
21
27.65660
31
0.0
0
LINE
8
SCORE2
10
297.19451
20
43.03428
30
0.0
11
297.19451
21
241.57742
31
0.0
0
LINE
8
SCORE2
10
59.41483
20
198.30340
30
0.0
11
151.73090
21
237.72098
31
0.0
0
ENDSEC
0
EOF
