0
SECTION
2
ENTITIES
0
POLYLINE
8
CUT
66
1
70
1
0
VERTEX
8
CUT
10
-0.19685
20
337.53214
30
0.0
0
VERTEX
8
CUT
10
78.46763
20
153.29970
30
0.0
0
VERTEX
8
CUT
10
114.66416
20
124.08115
30
0.0
0
VERTEX
8
CUT
10
167.72707
20
-0.19235
30
0.0
0
VERTEX
8
CUT
10
169.62881
20
0.54583
30
0.0
0
VERTEX
8
CUT
10
171.39547
20
1.23095
30
0.0
0
VERTEX
8
CUT
10
172.27888
20
1.57330
30
0.0
0
VERTEX
8
CUT
10
174.04586
20
2.25759
30
0.0
0
VERTEX
8
CUT
10
174.92943
20
2.59952
30
0.0
0
VERTEX
8
CUT
10
176.69673
20
3.28297
30
0.0
0
VERTEX
8
CUT
10
177.58047
20
3.62448
30
0.0
0
VERTEX
8
CUT
10
179.34809
20
4.30705
30
0.0
0
VERTEX
8
CUT
10
180.23199
20
4.64812
30
0.0
0
VERTEX
8
CUT
10
181.99995
20
5.32982
30
0.0
0
VERTEX
8
CUT
10
182.88402
20
5.67044
30
0.0
0
VERTEX
8
CUT
10
184.65232
20
6.35124
30
0.0
0
VERTEX
8
CUT
10
185.53656
20
6.69140
30
0.0
0
VERTEX
8
CUT
10
187.30521
20
7.37128
30
0.0
0
VERTEX
8
CUT
10
188.19222
20
7.71198
30
0.0
0
VERTEX
8
CUT
10
234.71745
20
27.57755
30
0.0
0
VERTEX
8
CUT
10
234.65095
20
27.73330
30
0.0
0
VERTEX
8
CUT
10
240.50447
20
30.41506
30
0.0
0
VERTEX
8
CUT
10
252.64488
20
34.86726
30
0.0
0
VERTEX
8
CUT
10
265.09568
20
38.35856
30
0.0
0
VERTEX
8
CUT
10
277.78095
20
40.86766
30
0.0
0
VERTEX
8
CUT
10
290.62333
20
42.37927
30
0.0
0
VERTEX
8
CUT
10
303.01742
20
42.86357
30
0.0
0
VERTEX
8
CUT
10
303.01701
20
42.88428
30
0.0
0
VERTEX
8
CUT
10
369.55857
20
42.88428
30
0.0
0
VERTEX
8
CUT
10
369.55857
20
149.99814
30
0.0
0
VERTEX
8
CUT
10
391.37380
20
187.78322
30
0.0
0
VERTEX
8
CUT
10
391.37380
20
241.72742
30
0.0
0
VERTEX
8
CUT
10
287.50664
20
241.72742
30
0.0
0
VERTEX
8
CUT
10
283.30664
20
245.92742
30
0.0
0
VERTEX
8
CUT
10
268.22910
20
245.92742
30
0.0
0
VERTEX
8
CUT
10
264.02910
20
241.72742
30
0.0
0
VERTEX
8
CUT
10
259.95336
20
241.72742
30
0.0
0
VERTEX
8
CUT
10
255.75336
20
245.92742
30
0.0
0
VERTEX
8
CUT
10
244.93529
20
245.92742
30
0.0
0
VERTEX
8
CUT
10
240.73529
20
241.72742
30
0.0
0
VERTEX
8
CUT
10
236.65956
20
241.72742
30
0.0
0
VERTEX
8
CUT
10
232.45956
20
245.92742
30
0.0
0
VERTEX
8
CUT
10
226.98591
20
245.92742
30
0.0
0
VERTEX
8
CUT
10
222.78591
20
241.72742
30
0.0
0
VERTEX
8
CUT
10
218.71018
20
241.72742
30
0.0
0
VERTEX
8
CUT
10
214.51018
20
245.92742
30
0.0
0
VERTEX
8
CUT
10
198.98591
20
245.92742
30
0.0
0
VERTEX
8
CUT
10
194.78591
20
241.72742
30
0.0
0
VERTEX
8
CUT
10
190.71018
20
241.72742
30
0.0
0
VERTEX
8
CUT
10
186.51018
20
245.92742
30
0.0
0
VERTEX
8
CUT
10
176.85272
20
245.92742
30
0.0
0
VERTEX
8
CUT
10
172.65272
20
241.72742
30
0.0
0
VERTEX
8
CUT
10
168.57698
20
241.72742
30
0.0
0
VERTEX
8
CUT
10
164.37698
20
245.92742
30
0.0
0
VERTEX
8
CUT
10
154.71952
20
245.92742
30
0.0
0
VERTEX
8
CUT
10
150.51952
20
241.72742
30
0.0
0
VERTEX
8
CUT
10
143.27868
20
241.72742
30
0.0
0
VERTEX
8
CUT
10
86.55520
20
374.57396
30
0.0
0
VERTEX
8
CUT
10
73.05606
20
368.81003
30
0.0
0
VERTEX
8
CUT
10
71.63241
20
375.10679
30
0.0
0
VERTEX
8
CUT
10
61.73678
20
370.88150
30
0.0
0
VERTEX
8
CUT
10
65.30024
20
365.49842
30
0.0
0
VERTEX
8
CUT
10
49.97704
20
358.95564
30
0.0
0
VERTEX
8
CUT
10
48.55339
20
365.25240
30
0.0
0
VERTEX
8
CUT
10
38.65776
20
361.02711
30
0.0
0
VERTEX
8
CUT
10
42.22122
20
355.64402
30
0.0
0
VERTEX
8
CUT
10
26.89802
20
349.10125
30
0.0
0
VERTEX
8
CUT
10
25.47437
20
355.39800
30
0.0
0
VERTEX
8
CUT
10
15.57874
20
351.17272
30
0.0
0
VERTEX
8
CUT
10
19.14221
20
345.78963
30
0.0
0
VERTEX
8
CUT
10
-0.19685
20
337.53214
30
0.0
0
SEQEND
0
POLYLINE
8
CUT
66
1
70
1
0
VERTEX
8
CUT
10
311.88933
20
228.82742
30
0.0
0
VERTEX
8
CUT
10
319.98933
20
228.82742
30
0.0
0
VERTEX
8
CUT
10
319.98933
20
235.27742
30
0.0
0
VERTEX
8
CUT
10
311.88933
20
235.27742
30
0.0
0
VERTEX
8
CUT
10
311.88933
20
228.82742
30
0.0
0
SEQEND
0
POLYLINE
8
CUT
66
1
70
1
0
VERTEX
8
CUT
10
336.98415
20
228.82742
30
0.0
0
VERTEX
8
CUT
10
345.08415
20
228.82742
30
0.0
0
VERTEX
8
CUT
10
345.08415
20
235.27742
30
0.0
0
VERTEX
8
CUT
10
336.98415
20
235.27742
30
0.0
0
VERTEX
8
CUT
10
336.98415
20
228.82742
30
0.0
0
SEQEND
0
POLYLINE
8
CUT
66
1
70
1
0
VERTEX
8
CUT
10
362.07897
20
228.82742
30
0.0
0
VERTEX
8
CUT
10
370.17897
20
228.82742
30
0.0
0
VERTEX
8
CUT
10
370.17897
20
235.27742
30
0.0
0
VERTEX
8
CUT
10
362.07897
20
235.27742
30
0.0
0
VERTEX
8
CUT
10
362.07897
20
228.82742
30
0.0
0
SEQEND
0
LINE
8
SCORE
10
142.11491
20
244.07098
30
0.0
11
143.29297
21
241.31196
31
0.0
0
LINE
8
SCORE
10
144.47103
20
238.55294
30
0.0
11
145.64909
21
235.79393
31
0.0
0
LINE
8
SCORE
10
146.82715
20
233.03491
30
0.0
11
148.00520
21
230.27589
31
0.0
0
LINE
8
SCORE
10
149.18326
20
227.51687
30
0.0
11
150.36132
21
224.75786
31
0.0
0
LINE
8
SCORE
10
151.53938
20
221.99884
30
0.0
11
152.71744
21
219.23982
31
0.0
0
LINE
8
SCORE
10
153.89550
20
216.48080
30
0.0
11
155.07356
21
213.72179
31
0.0
0
LINE
8
SCORE
10
156.25162
20
210.96277
30
0.0
11
157.42968
21
208.20375
31
0.0
0
LINE
8
SCORE
10
158.60774
20
205.44473
30
0.0
11
159.78579
21
202.68572
31
0.0
0
LINE
8
SCORE
10
160.96385
20
199.92670
30
0.0
11
162.14191
21
197.16768
31
0.0
0
LINE
8
SCORE
10
163.31997
20
194.40866
30
0.0
11
164.49803
21
191.64965
31
0.0
0
LINE
8
SCORE
10
165.67609
20
188.89063
30
0.0
11
166.85415
21
186.13161
31
0.0
0
LINE
8
SCORE
10
168.03221
20
183.37259
30
0.0
11
169.21027
21
180.61358
31
0.0
0
LINE
8
SCORE
10
170.38833
20
177.85456
30
0.0
11
171.56638
21
175.09554
31
0.0
0
LINE
8
SCORE
10
172.74444
20
172.33653
30
0.0
11
173.92250
21
169.57751
31
0.0
0
LINE
8
SCORE
10
175.10056
20
166.81849
30
0.0
11
176.27862
21
164.05947
31
0.0
0
LINE
8
SCORE
10
177.45668
20
161.30046
30
0.0
11
178.63474
21
158.54144
31
0.0
0
LINE
8
SCORE
10
179.81280
20
155.78242
30
0.0
11
180.99086
21
153.02340
31
0.0
0
LINE
8
SCORE
10
182.16891
20
150.26439
30
0.0
11
183.34697
21
147.50537
31
0.0
0
LINE
8
SCORE
10
184.52503
20
144.74635
30
0.0
11
185.70309
21
141.98733
31
0.0
0
LINE
8
SCORE
10
186.88115
20
139.22832
30
0.0
11
188.05921
21
136.46930
31
0.0
0
LINE
8
SCORE
10
189.23727
20
133.71028
30
0.0
11
190.41533
21
130.95126
31
0.0
0
LINE
8
SCORE
10
191.59339
20
128.19225
30
0.0
11
192.77145
21
125.43323
31
0.0
0
LINE
8
SCORE
10
193.94950
20
122.67421
30
0.0
11
195.12756
21
119.91519
31
0.0
0
LINE
8
SCORE
10
196.30562
20
117.15618
30
0.0
11
197.48368
21
114.39716
31
0.0
0
LINE
8
SCORE
10
198.66174
20
111.63814
30
0.0
11
199.83980
21
108.87912
31
0.0
0
LINE
8
SCORE
10
201.01786
20
106.12011
30
0.0
11
202.19592
21
103.36109
31
0.0
0
LINE
8
SCORE
10
203.37398
20
100.60207
30
0.0
11
204.55203
21
97.84305
31
0.0
0
LINE
8
SCORE
10
205.73009
20
95.08404
30
0.0
11
206.90815
21
92.32502
31
0.0
0
LINE
8
SCORE
10
208.08621
20
89.56600
30
0.0
11
209.26427
21
86.80699
31
0.0
0
LINE
8
SCORE
10
210.44233
20
84.04797
30
0.0
11
211.62039
21
81.28895
31
0.0
0
LINE
8
SCORE
10
212.79845
20
78.52993
30
0.0
11
213.97651
21
75.77092
31
0.0
0
LINE
8
SCORE
10
215.15457
20
73.01190
30
0.0
11
216.33262
21
70.25288
31
0.0
0
LINE
8
SCORE
10
217.51068
20
67.49386
30
0.0
11
218.68874
21
64.73485
31
0.0
0
LINE
8
SCORE
10
219.86680
20
61.97583
30
0.0
11
221.04486
21
59.21681
31
0.0
0
LINE
8
SCORE
10
222.22292
20
56.45779
30
0.0
11
223.40098
21
53.69878
31
0.0
0
LINE
8
SCORE
10
224.57904
20
50.93976
30
0.0
11
225.75710
21
48.18074
31
0.0
0
LINE
8
SCORE
10
226.93515
20
45.42172
30
0.0
11
228.11321
21
42.66271
31
0.0
0
LINE
8
SCORE
10
229.29127
20
39.90369
30
0.0
11
230.46933
21
37.14467
31
0.0
0
LINE
8
SCORE
10
231.64739
20
34.38565
30
0.0
11
232.82545
21
31.62664
31
0.0
0
LINE
8
SCORE
10
234.00351
20
28.86762
30
0.0
11
234.52060
21
27.65660
31
0.0
0
LINE
8
SCORE
10
297.19451
20
43.03428
30
0.0
11
297.19451
21
46.03428
31
0.0
0
LINE
8
SCORE
10
297.19451
20
49.03428
30
0.0
11
297.19451
21
52.03428
31
0.0
0
LINE
8
SCORE
10
297.19451
20
55.03428
30
0.0
11
297.19451
21
58.03428
31
0.0
0
LINE
8
SCORE
10
297.19451
20
61.03428
30
0.0
11
297.19451
21
64.03428
31
0.0
0
LINE
8
SCORE
10
297.19451
20
67.03428
30
0.0
11
297.19451
21
70.03428
31
0.0
0
LINE
8
SCORE
10
297.19451
20
73.03428
30
0.0
11
297.19451
21
76.03428
31
0.0
0
LINE
8
SCORE
10
297.19451
20
79.03428
30
0.0
11
297.19451
21
82.03428
31
0.0
0
LINE
8
SCORE
10
297.19451
20
85.03428
30
0.0
11
297.19451
21
88.03428
31
0.0
0
LINE
8
SCORE
10
297.19451
20
91.03428
30
0.0
11
297.19451
21
94.03428
31
0.0
0
LINE
8
SCORE
10
297.19451
20
97.03428
30
0.0
11
297.19451
21
100.03428
31
0.0
0
LINE
8
SCORE
10
297.19451
20
103.03428
30
0.0
11
297.19451
21
106.03428
31
0.0
0
LINE
8
SCORE
10
297.19451
20
109.03428
30
0.0
11
297.19451
21
112.03428
31
0.0
0
LINE
8
SCORE
10
297.19451
20
115.03428
30
0.0
11
297.19451
21
118.03428
31
0.0
0
LINE
8
SCORE
10
297.19451
20
121.03428
30
0.0
11
297.19451
21
124.03428
31
0.0
0
LINE
8
SCORE
10
297.19451
20
127.03428
30
0.0
11
297.19451
21
130.03428
31
0.0
0
LINE
8
SCORE
10
297.19451
20
133.03428
30
0.0
11
297.19451
21
136.03428
31
0.0
0
LINE
8
SCORE
10
297.19451
20
139.03428
30
0.0
11
297.19451
21
142.03428
31
0.0
0
LINE
8
SCORE
10
297.19451
20
145.03428
30
0.0
11
297.19451
21
148.03428
31
0.0
0
LINE
8
SCORE
10
297.19451
20
151.03428
30
0.0
11
297.19451
21
154.03428
31
0.0
0
LINE
8
SCORE
10
297.19451
20
157.03428
30
0.0
11
297.19451
21
160.03428
31
0.0
0
LINE
8
SCORE
10
297.19451
20
163.03428
30
0.0
11
297.19451
21
166.03428
31
0.0
0
LINE
8
SCORE
10
297.19451
20
169.03428
30
0.0
11
297.19451
21
172.03428
31
0.0
0
LINE
8
SCORE
10
297.19451
20
175.03428
30
0.0
11
297.19451
21
178.03428
31
0.0
0
LINE
8
SCORE
10
297.19451
20
181.03428
30
0.0
11
297.19451
21
184.03428
31
0.0
0
LINE
8
SCORE
10
297.19451
20
187.03428
30
0.0
11
297.19451
21
190.03428
31
0.0
0
LINE
8
SCORE
10
297.19451
20
193.03428
30
0.0
11
297.19451
21
196.03428
31
0.0
0
LINE
8
SCORE
10
297.19451
20
199.03428
30
0.0
11
297.19451
21
202.03428
31
0.0
0
LINE
8
SCORE
10
297.19451
20
205.03428
30
0.0
11
297.19451
21
208.03428
31
0.0
0
LINE
8
SCORE
10
297.19451
20
211.03428
30
0.0
11
297.19451
21
214.03428
31
0.0
0
LINE
8
SCORE
10
297.19451
20
217.03428
30
0.0
11
297.19451
21
220.03428
31
0.0
0
LINE
8
SCORE
10
297.19451
20
223.03428
30
0.0
11
297.19451
21
226.03428
31
0.0
0
LINE
8
SCORE
10
297.19451
20
229.03428
30
0.0
11
297.19451
21
232.03428
31
0.0
0
LINE
8
SCORE
10
297.19451
20
235.03428
30
0.0
11
297.19451
21
238.03428
31
0.0
0
LINE
8
SCORE
10
297.19451
20
241.03428
30
0.0
11
297.19451
21
241.57742
31
0.0
0
LINE
8
SCORE
10
59.41483
20
198.30340
30
0.0
11
62.17384
21
199.48146
31
0.0
0
LINE
8
SCORE
10
64.93286
20
200.65952
30
0.0
11
67.69188
21
201.83758
31
0.0
0
LINE
8
SCORE
10
70.45090
20
203.01564
30
0.0
11
73.20991
21
204.19370
31
0.0
0
LINE
8
SCORE
10
75.96893
20
205.37176
30
0.0
11
78.72795
21
206.54982
31
0.0
0
LINE
8
SCORE
10
81.48696
20
207.72788
30
0.0
11
84.24598
21
208.90593
31
0.0
0
LINE
8
SCORE
10
87.00500
20
210.08399
30
0.0
11
89.76402
21
211.26205
31
0.0
0
LINE
8
SCORE
10
92.52303
20
212.44011
30
0.0
11
95.28205
21
213.61817
31
0.0
0
LINE
8
SCORE
10
98.04107
20
214.79623
30
0.0
11
100.80009
21
215.97429
31
0.0
0
LINE
8
SCORE
10
103.55910
20
217.15235
30
0.0
11
106.31812
21
218.33041
31
0.0
0
LINE
8
SCORE
10
109.07714
20
219.50846
30
0.0
11
111.83616
21
220.68652
31
0.0
0
LINE
8
SCORE
10
114.59517
20
221.86458
30
0.0
11
117.35419
21
223.04264
31
0.0
0
LINE
8
SCORE
10
120.11321
20
224.22070
30
0.0
11
122.87223
21
225.39876
31
0.0
0
LINE
8
SCORE
10
125.63124
20
226.57682
30
0.0
11
128.39026
21
227.75488
31
0.0
0
LINE
8
SCORE
10
131.14928
20
228.93294
30
0.0
11
133.90830
21
230.11100
31
0.0
0
LINE
8
SCORE
10
136.66731
20
231.28905
30
0.0
11
139.42633
21
232.46711
31
0.0
0
LINE
8
SCORE
10
142.18535
20
233.64517
30
0.0
11
144.94437
21
234.82323
31
0.0
0
LINE
8
SCORE
10
147.70338
20
236.00129
30
0.0
11
150.46240
21
237.17935
31
0.0
0
LINE
8
SCORE2
10
142.11491
20
244.07098
30
0.0
11
234.52060
21
27.65660
31
0.0
0
LINE
8
SCORE2
10
297.19451
20
43.03428
30
0.0
11
297.19451
21
241.57742
31
0.0
0
LINE
8
SCORE2
10
59.41483
20
198.30340
30
0.0
11
151.73090
21
237.72098
31
0.0
0
ENDSEC
0
EOF
