0
SECTION
2
ENTITIES
0
POLYLINE
8
CUT
66
1
70
1
0
VERTEX
8
CUT
10
-0.09843
20
162.79632
30
0.0
0
VERTEX
8
CUT
10
22.12194
20
110.75616
30
0.0
0
VERTEX
8
CUT
10
58.31847
20
81.53762
30
0.0
0
VERTEX
8
CUT
10
93.17481
20
-0.09604
30
0.0
0
VERTEX
8
CUT
10
95.63809
20
0.85472
30
0.0
0
VERTEX
8
CUT
10
98.03413
20
1.77854
30
0.0
0
VERTEX
8
CUT
10
100.43050
20
2.70149
30
0.0
0
VERTEX
8
CUT
10
102.82722
20
3.62354
30
0.0
0
VERTEX
8
CUT
10
105.22428
20
4.54468
30
0.0
0
VERTEX
8
CUT
10
107.62169
20
5.46489
30
0.0
0
VERTEX
8
CUT
10
110.01946
20
6.38416
30
0.0
0
VERTEX
8
CUT
10
112.41760
20
7.30247
30
0.0
0
VERTEX
8
CUT
10
114.81611
20
8.21979
30
0.0
0
VERTEX
8
CUT
10
117.21501
20
9.13612
30
0.0
0
VERTEX
8
CUT
10
119.61428
20
10.05143
30
0.0
0
VERTEX
8
CUT
10
122.01395
20
10.96571
30
0.0
0
VERTEX
8
CUT
10
124.41402
20
11.87894
30
0.0
0
VERTEX
8
CUT
10
126.81450
20
12.79110
30
0.0
0
VERTEX
8
CUT
10
129.21539
20
13.70218
30
0.0
0
VERTEX
8
CUT
10
131.61670
20
14.61215
30
0.0
0
VERTEX
8
CUT
10
134.01843
20
15.52101
30
0.0
0
VERTEX
8
CUT
10
136.42060
20
16.42873
30
0.0
0
VERTEX
8
CUT
10
138.82320
20
17.33529
30
0.0
0
VERTEX
8
CUT
10
141.22625
20
18.24068
30
0.0
0
VERTEX
8
CUT
10
143.62976
20
19.14488
30
0.0
0
VERTEX
8
CUT
10
146.03372
20
20.04788
30
0.0
0
VERTEX
8
CUT
10
148.43974
20
20.95024
30
0.0
0
VERTEX
8
CUT
10
166.42027
20
28.62766
30
0.0
0
VERTEX
8
CUT
10
180.80852
20
35.78398
30
0.0
0
VERTEX
8
CUT
10
195.74101
20
41.70715
30
0.0
0
VERTEX
8
CUT
10
211.11743
20
46.35785
30
0.0
0
VERTEX
8
CUT
10
226.82982
20
49.70342
30
0.0
0
VERTEX
8
CUT
10
304.77099
20
60.13523
30
0.0
0
VERTEX
8
CUT
10
296.37743
20
122.84766
30
0.0
0
VERTEX
8
CUT
10
312.94262
20
163.52672
30
0.0
0
VERTEX
8
CUT
10
305.97639
20
215.57484
30
0.0
0
VERTEX
8
CUT
10
206.41489
20
202.24937
30
0.0
0
VERTEX
8
CUT
10
92.30073
20
202.24937
30
0.0
0
VERTEX
8
CUT
10
-0.09843
20
162.79632
30
0.0
0
SEQEND
0
LINE
8
SCORE
10
206.41989
20
202.17437
30
0.0
11
206.81787
21
199.20089
31
0.0
0
LINE
8
SCORE
10
207.21584
20
196.22740
30
0.0
11
207.61382
21
193.25392
31
0.0
0
LINE
8
SCORE
10
208.01180
20
190.28043
30
0.0
11
208.40977
21
187.30695
31
0.0
0
LINE
8
SCORE
10
208.80775
20
184.33346
30
0.0
11
209.20573
21
181.35998
31
0.0
0
LINE
8
SCORE
10
209.60371
20
178.38649
30
0.0
11
210.00168
21
175.41301
31
0.0
0
LINE
8
SCORE
10
210.39966
20
172.43952
30
0.0
11
210.79764
21
169.46604
31
0.0
0
LINE
8
SCORE
10
211.19562
20
166.49255
30
0.0
11
211.59359
21
163.51907
31
0.0
0
LINE
8
SCORE
10
211.99157
20
160.54558
30
0.0
11
212.38955
21
157.57210
31
0.0
0
LINE
8
SCORE
10
212.78753
20
154.59861
30
0.0
11
213.18550
21
151.62513
31
0.0
0
LINE
8
SCORE
10
213.58348
20
148.65164
30
0.0
11
213.98146
21
145.67815
31
0.0
0
LINE
8
SCORE
10
214.37943
20
142.70467
30
0.0
11
214.77741
21
139.73118
31
0.0
0
LINE
8
SCORE
10
215.17539
20
136.75770
30
0.0
11
215.57337
21
133.78421
31
0.0
0
LINE
8
SCORE
10
215.97134
20
130.81073
30
0.0
11
216.36932
21
127.83724
31
0.0
0
LINE
8
SCORE
10
216.76730
20
124.86376
30
0.0
11
217.16528
21
121.89027
31
0.0
0
LINE
8
SCORE
10
217.56325
20
118.91679
30
0.0
11
217.96123
21
115.94330
31
0.0
0
LINE
8
SCORE
10
218.35921
20
112.96982
30
0.0
11
218.75719
21
109.99633
31
0.0
0
LINE
8
SCORE
10
219.15516
20
107.02285
30
0.0
11
219.55314
21
104.04936
31
0.0
0
LINE
8
SCORE
10
219.95112
20
101.07588
30
0.0
11
220.34909
21
98.10239
31
0.0
0
LINE
8
SCORE
10
220.74707
20
95.12891
30
0.0
11
221.14505
21
92.15542
31
0.0
0
LINE
8
SCORE
10
221.54303
20
89.18194
30
0.0
11
221.94100
21
86.20845
31
0.0
0
LINE
8
SCORE
10
222.33898
20
83.23497
30
0.0
11
222.73696
21
80.26148
31
0.0
0
LINE
8
SCORE
10
223.13494
20
77.28800
30
0.0
11
223.53291
21
74.31451
31
0.0
0
LINE
8
SCORE
10
223.93089
20
71.34103
30
0.0
11
224.32887
21
68.36754
31
0.0
0
LINE
8
SCORE
10
224.72685
20
65.39406
30
0.0
11
225.12482
21
62.42057
31
0.0
0
LINE
8
SCORE
10
225.52280
20
59.44708
30
0.0
11
225.92078
21
56.47360
31
0.0
0
LINE
8
SCORE
10
226.31875
20
53.50011
30
0.0
11
226.71673
21
50.52663
31
0.0
0
LINE
8
SCORE
10
92.31607
20
202.17437
30
0.0
11
93.49413
21
199.41536
31
0.0
0
LINE
8
SCORE
10
94.67219
20
196.65634
30
0.0
11
95.85025
21
193.89732
31
0.0
0
LINE
8
SCORE
10
97.02831
20
191.13830
30
0.0
11
98.20637
21
188.37929
31
0.0
0
LINE
8
SCORE
10
99.38442
20
185.62027
30
0.0
11
100.56248
21
182.86125
31
0.0
0
LINE
8
SCORE
10
101.74054
20
180.10223
30
0.0
11
102.91860
21
177.34322
31
0.0
0
LINE
8
SCORE
10
104.09666
20
174.58420
30
0.0
11
105.27472
21
171.82518
31
0.0
0
LINE
8
SCORE
10
106.45278
20
169.06616
30
0.0
11
107.63084
21
166.30715
31
0.0
0
LINE
8
SCORE
10
108.80890
20
163.54813
30
0.0
11
109.98696
21
160.78911
31
0.0
0
LINE
8
SCORE
10
111.16501
20
158.03009
30
0.0
11
112.34307
21
155.27108
31
0.0
0
LINE
8
SCORE
10
113.52113
20
152.51206
30
0.0
11
114.69919
21
149.75304
31
0.0
0
LINE
8
SCORE
10
115.87725
20
146.99402
30
0.0
11
117.05531
21
144.23501
31
0.0
0
LINE
8
SCORE
10
118.23337
20
141.47599
30
0.0
11
119.41143
21
138.71697
31
0.0
0
LINE
8
SCORE
10
120.58949
20
135.95796
30
0.0
11
121.76754
21
133.19894
31
0.0
0
LINE
8
SCORE
10
122.94560
20
130.43992
30
0.0
11
124.12366
21
127.68090
31
0.0
0
LINE
8
SCORE
10
125.30172
20
124.92189
30
0.0
11
126.47978
21
122.16287
31
0.0
0
LINE
8
SCORE
10
127.65784
20
119.40385
30
0.0
11
128.83590
21
116.64483
31
0.0
0
LINE
8
SCORE
10
130.01396
20
113.88582
30
0.0
11
131.19202
21
111.12680
31
0.0
0
LINE
8
SCORE
10
132.37008
20
108.36778
30
0.0
11
133.54813
21
105.60876
31
0.0
0
LINE
8
SCORE
10
134.72619
20
102.84975
30
0.0
11
135.90425
21
100.09073
31
0.0
0
LINE
8
SCORE
10
137.08231
20
97.33171
30
0.0
11
138.26037
21
94.57269
31
0.0
0
LINE
8
SCORE
10
139.43843
20
91.81368
30
0.0
11
140.61649
21
89.05466
31
0.0
0
LINE
8
SCORE
10
141.79455
20
86.29564
30
0.0
11
142.97261
21
83.53662
31
0.0
0
LINE
8
SCORE
10
144.15067
20
80.77761
30
0.0
11
145.32872
21
78.01859
31
0.0
0
LINE
8
SCORE
10
146.50678
20
75.25957
30
0.0
11
147.68484
21
72.50055
31
0.0
0
LINE
8
SCORE
10
148.86290
20
69.74154
30
0.0
11
150.04096
21
66.98252
31
0.0
0
LINE
8
SCORE
10
151.21902
20
64.22350
30
0.0
11
152.39708
21
61.46448
31
0.0
0
LINE
8
SCORE
10
153.57514
20
58.70547
30
0.0
11
154.75320
21
55.94645
31
0.0
0
LINE
8
SCORE
10
155.93125
20
53.18743
30
0.0
11
157.10931
21
50.42842
31
0.0
0
LINE
8
SCORE
10
158.28737
20
47.66940
30
0.0
11
159.46543
21
44.91038
31
0.0
0
LINE
8
SCORE
10
160.64349
20
42.15136
30
0.0
11
161.82155
21
39.39235
31
0.0
0
LINE
8
SCORE
10
162.99961
20
36.63333
30
0.0
11
164.17767
21
33.87431
31
0.0
0
LINE
8
SCORE
10
165.35573
20
31.11529
30
0.0
11
166.38882
21
28.69578
31
0.0
0
LINE
8
SCORE2
10
206.41989
20
202.17437
30
0.0
11
226.81701
21
49.77737
31
0.0
0
LINE
8
SCORE2
10
92.31607
20
202.17437
30
0.0
11
166.38882
21
28.69578
31
0.0
0
ENDSEC
0
EOF
