0
SECTION
2
ENTITIES
0
POLYLINE
8
CUT
66
1
70
1
0
VERTEX
8
CUT
10
-0.08429
20
245.34473
30
0.0
0
VERTEX
8
CUT
10
12.99550
20
147.62247
30
0.0
0
VERTEX
8
CUT
10
19.70144
20
97.51922
30
0.0
0
VERTEX
8
CUT
10
46.38108
20
62.62814
30
0.0
0
VERTEX
8
CUT
10
54.77464
20
-0.08429
30
0.0
0
VERTEX
8
CUT
10
129.49739
20
9.91675
30
0.0
0
VERTEX
8
CUT
10
129.50034
20
9.89470
30
0.0
0
VERTEX
8
CUT
10
142.36462
20
11.52260
30
0.0
0
VERTEX
8
CUT
10
158.41483
20
12.19644
30
0.0
0
VERTEX
8
CUT
10
174.46504
20
11.52260
30
0.0
0
VERTEX
8
CUT
10
187.32931
20
9.89470
30
0.0
0
VERTEX
8
CUT
10
187.33226
20
9.91675
30
0.0
0
VERTEX
8
CUT
10
262.05501
20
-0.08429
30
0.0
0
VERTEX
8
CUT
10
270.44857
20
62.62814
30
0.0
0
VERTEX
8
CUT
10
297.12822
20
97.51922
30
0.0
0
VERTEX
8
CUT
10
304.33536
20
151.36734
30
0.0
0
VERTEX
8
CUT
10
207.84153
20
164.28232
30
0.0
0
VERTEX
8
CUT
10
207.78391
20
163.85184
30
0.0
0
VERTEX
8
CUT
10
197.89917
20
163.85184
30
0.0
0
VERTEX
8
CUT
10
193.69917
20
168.05184
30
0.0
0
VERTEX
8
CUT
10
178.68376
20
168.05184
30
0.0
0
VERTEX
8
CUT
10
174.48376
20
163.85184
30
0.0
0
VERTEX
8
CUT
10
170.34589
20
163.85184
30
0.0
0
VERTEX
8
CUT
10
166.14589
20
168.05184
30
0.0
0
VERTEX
8
CUT
10
150.68376
20
168.05184
30
0.0
0
VERTEX
8
CUT
10
146.48376
20
163.85184
30
0.0
0
VERTEX
8
CUT
10
142.34589
20
163.85184
30
0.0
0
VERTEX
8
CUT
10
138.14589
20
168.05184
30
0.0
0
VERTEX
8
CUT
10
123.13048
20
168.05184
30
0.0
0
VERTEX
8
CUT
10
118.93048
20
163.85184
30
0.0
0
VERTEX
8
CUT
10
109.04572
20
163.85184
30
0.0
0
VERTEX
8
CUT
10
96.40945
20
258.26048
30
0.0
0
VERTEX
8
CUT
10
-0.08429
20
245.34473
30
0.0
0
SEQEND
0
LINE
8
SCORE
10
108.92373
20
164.19803
30
0.0
11
109.32171
21
161.22455
31
0.0
0
LINE
8
SCORE
10
109.71969
20
158.25106
30
0.0
11
110.11767
21
155.27758
31
0.0
0
LINE
8
SCORE
10
110.51564
20
152.30409
30
0.0
11
110.91362
21
149.33061
31
0.0
0
LINE
8
SCORE
10
111.31160
20
146.35712
30
0.0
11
111.70958
21
143.38364
31
0.0
0
LINE
8
SCORE
10
112.10755
20
140.41015
30
0.0
11
112.50553
21
137.43667
31
0.0
0
LINE
8
SCORE
10
112.90351
20
134.46318
30
0.0
11
113.30149
21
131.48970
31
0.0
0
LINE
8
SCORE
10
113.69946
20
128.51621
30
0.0
11
114.09744
21
125.54273
31
0.0
0
LINE
8
SCORE
10
114.49542
20
122.56924
30
0.0
11
114.89339
21
119.59576
31
0.0
0
LINE
8
SCORE
10
115.29137
20
116.62227
30
0.0
11
115.68935
21
113.64879
31
0.0
0
LINE
8
SCORE
10
116.08733
20
110.67530
30
0.0
11
116.48530
21
107.70182
31
0.0
0
LINE
8
SCORE
10
116.88328
20
104.72833
30
0.0
11
117.28126
21
101.75485
31
0.0
0
LINE
8
SCORE
10
117.67924
20
98.78136
30
0.0
11
118.07721
21
95.80788
31
0.0
0
LINE
8
SCORE
10
118.47519
20
92.83439
30
0.0
11
118.87317
21
89.86090
31
0.0
0
LINE
8
SCORE
10
119.27115
20
86.88742
30
0.0
11
119.66912
21
83.91393
31
0.0
0
LINE
8
SCORE
10
120.06710
20
80.94045
30
0.0
11
120.46508
21
77.96696
31
0.0
0
LINE
8
SCORE
10
120.86305
20
74.99348
30
0.0
11
121.26103
21
72.01999
31
0.0
0
LINE
8
SCORE
10
121.65901
20
69.04651
30
0.0
11
122.05699
21
66.07302
31
0.0
0
LINE
8
SCORE
10
122.45496
20
63.09954
30
0.0
11
122.85294
21
60.12605
31
0.0
0
LINE
8
SCORE
10
123.25092
20
57.15257
30
0.0
11
123.64890
21
54.17908
31
0.0
0
LINE
8
SCORE
10
124.04687
20
51.20560
30
0.0
11
124.44485
21
48.23211
31
0.0
0
LINE
8
SCORE
10
124.84283
20
45.25863
30
0.0
11
125.24081
21
42.28514
31
0.0
0
LINE
8
SCORE
10
125.63878
20
39.31166
30
0.0
11
126.03676
21
36.33817
31
0.0
0
LINE
8
SCORE
10
126.43474
20
33.36469
30
0.0
11
126.83271
21
30.39120
31
0.0
0
LINE
8
SCORE
10
127.23069
20
27.41772
30
0.0
11
127.62867
21
24.44423
31
0.0
0
LINE
8
SCORE
10
128.02665
20
21.47075
30
0.0
11
128.42462
21
18.49726
31
0.0
0
LINE
8
SCORE
10
128.82260
20
15.52378
30
0.0
11
129.22058
21
12.55029
31
0.0
0
LINE
8
SCORE
10
207.90592
20
164.19803
30
0.0
11
207.50794
21
161.22455
31
0.0
0
LINE
8
SCORE
10
207.10996
20
158.25106
30
0.0
11
206.71198
21
155.27758
31
0.0
0
LINE
8
SCORE
10
206.31401
20
152.30409
30
0.0
11
205.91603
21
149.33061
31
0.0
0
LINE
8
SCORE
10
205.51805
20
146.35712
30
0.0
11
205.12007
21
143.38364
31
0.0
0
LINE
8
SCORE
10
204.72210
20
140.41015
30
0.0
11
204.32412
21
137.43667
31
0.0
0
LINE
8
SCORE
10
203.92614
20
134.46318
30
0.0
11
203.52817
21
131.48970
31
0.0
0
LINE
8
SCORE
10
203.13019
20
128.51621
30
0.0
11
202.73221
21
125.54273
31
0.0
0
LINE
8
SCORE
10
202.33423
20
122.56924
30
0.0
11
201.93626
21
119.59576
31
0.0
0
LINE
8
SCORE
10
201.53828
20
116.62227
30
0.0
11
201.14030
21
113.64879
31
0.0
0
LINE
8
SCORE
10
200.74232
20
110.67530
30
0.0
11
200.34435
21
107.70182
31
0.0
0
LINE
8
SCORE
10
199.94637
20
104.72833
30
0.0
11
199.54839
21
101.75485
31
0.0
0
LINE
8
SCORE
10
199.15041
20
98.78136
30
0.0
11
198.75244
21
95.80788
31
0.0
0
LINE
8
SCORE
10
198.35446
20
92.83439
30
0.0
11
197.95648
21
89.86090
31
0.0
0
LINE
8
SCORE
10
197.55851
20
86.88742
30
0.0
11
197.16053
21
83.91393
31
0.0
0
LINE
8
SCORE
10
196.76255
20
80.94045
30
0.0
11
196.36457
21
77.96696
31
0.0
0
LINE
8
SCORE
10
195.96660
20
74.99348
30
0.0
11
195.56862
21
72.01999
31
0.0
0
LINE
8
SCORE
10
195.17064
20
69.04651
30
0.0
11
194.77266
21
66.07302
31
0.0
0
LINE
8
SCORE
10
194.37469
20
63.09954
30
0.0
11
193.97671
21
60.12605
31
0.0
0
LINE
8
SCORE
10
193.57873
20
57.15257
30
0.0
11
193.18076
21
54.17908
31
0.0
0
LINE
8
SCORE
10
192.78278
20
51.20560
30
0.0
11
192.38480
21
48.23211
31
0.0
0
LINE
8
SCORE
10
191.98682
20
45.25863
30
0.0
11
191.58885
21
42.28514
31
0.0
0
LINE
8
SCORE
10
191.19087
20
39.31166
30
0.0
11
190.79289
21
36.33817
31
0.0
0
LINE
8
SCORE
10
190.39491
20
33.36469
30
0.0
11
189.99694
21
30.39120
31
0.0
0
LINE
8
SCORE
10
189.59896
20
27.41772
30
0.0
11
189.20098
21
24.44423
31
0.0
0
LINE
8
SCORE
10
188.80300
20
21.47075
30
0.0
11
188.40503
21
18.49726
31
0.0
0
LINE
8
SCORE
10
188.00705
20
15.52378
30
0.0
11
187.60907
21
12.55029
31
0.0
0
LINE
8
SCORE
10
112.55201
20
161.02304
30
0.0
11
109.57852
21
160.62506
31
0.0
0
LINE
8
SCORE
10
106.60504
20
160.22708
30
0.0
11
103.63155
21
159.82910
31
0.0
0
LINE
8
SCORE
10
100.65807
20
159.43112
30
0.0
11
97.68458
21
159.03314
31
0.0
0
LINE
8
SCORE
10
94.71110
20
158.63516
30
0.0
11
91.73761
21
158.23718
31
0.0
0
LINE
8
SCORE
10
88.76413
20
157.83920
30
0.0
11
85.79064
21
157.44123
31
0.0
0
LINE
8
SCORE
10
82.81716
20
157.04325
30
0.0
11
79.84367
21
156.64527
31
0.0
0
LINE
8
SCORE
10
76.87019
20
156.24729
30
0.0
11
73.89670
21
155.84931
31
0.0
0
LINE
8
SCORE
10
70.92322
20
155.45133
30
0.0
11
67.94973
21
155.05335
31
0.0
0
LINE
8
SCORE
10
64.97625
20
154.65537
30
0.0
11
62.00276
21
154.25740
31
0.0
0
LINE
8
SCORE
10
59.02928
20
153.85942
30
0.0
11
56.05579
21
153.46144
31
0.0
0
LINE
8
SCORE
10
53.08231
20
153.06346
30
0.0
11
50.10882
21
152.66548
31
0.0
0
LINE
8
SCORE
10
47.13534
20
152.26750
30
0.0
11
44.16185
21
151.86952
31
0.0
0
LINE
8
SCORE
10
41.18837
20
151.47154
30
0.0
11
38.21488
21
151.07356
31
0.0
0
LINE
8
SCORE
10
35.24140
20
150.67559
30
0.0
11
32.26791
21
150.27761
31
0.0
0
LINE
8
SCORE
10
29.29443
20
149.87963
30
0.0
11
26.32095
21
149.48165
31
0.0
0
LINE
8
SCORE
10
23.34746
20
149.08367
30
0.0
11
20.37398
21
148.68569
31
0.0
0
LINE
8
SCORE
10
17.40049
20
148.28771
30
0.0
11
14.42701
21
147.88973
31
0.0
0
LINE
8
SCORE2
10
108.92373
20
164.19803
30
0.0
11
129.56178
21
10.00103
31
0.0
0
LINE
8
SCORE2
10
207.90592
20
164.19803
30
0.0
11
187.26787
21
10.00103
31
0.0
0
LINE
8
SCORE2
10
112.55201
20
161.02304
30
0.0
11
13.05990
21
147.70676
31
0.0
0
ENDSEC
0
EOF
