0
SECTION
2
ENTITIES
0
POLYLINE
8
CUT
66
1
70
1
0
VERTEX
8
CUT
10
-0.07546
20
212.87205
30
0.0
0
VERTEX
8
CUT
10
5.47448
20
-0.07693
30
0.0
0
VERTEX
8
CUT
10
102.79572
20
2.45949
30
0.0
0
VERTEX
8
CUT
10
98.85402
20
153.70097
30
0.0
0
VERTEX
8
CUT
10
102.69893
20
155.46250
30
0.0
0
VERTEX
8
CUT
10
104.76792
20
161.03020
30
0.0
0
VERTEX
8
CUT
10
108.52978
20
162.75367
30
0.0
0
VERTEX
8
CUT
10
114.09748
20
160.68469
30
0.0
0
VERTEX
8
CUT
10
122.82087
20
164.68127
30
0.0
0
VERTEX
8
CUT
10
124.88986
20
170.24897
30
0.0
0
VERTEX
8
CUT
10
128.65172
20
171.97245
30
0.0
0
VERTEX
8
CUT
10
134.21942
20
169.90347
30
0.0
0
VERTEX
8
CUT
10
142.94282
20
173.90005
30
0.0
0
VERTEX
8
CUT
10
145.01180
20
179.46775
30
0.0
0
VERTEX
8
CUT
10
148.77366
20
181.19123
30
0.0
0
VERTEX
8
CUT
10
154.34136
20
179.12225
30
0.0
0
VERTEX
8
CUT
10
168.39844
20
185.56243
30
0.0
0
VERTEX
8
CUT
10
170.46743
20
191.13014
30
0.0
0
VERTEX
8
CUT
10
174.22928
20
192.85361
30
0.0
0
VERTEX
8
CUT
10
179.79699
20
190.78463
30
0.0
0
VERTEX
8
CUT
10
184.71675
20
193.03860
30
0.0
0
VERTEX
8
CUT
10
186.78574
20
198.60630
30
0.0
0
VERTEX
8
CUT
10
190.54760
20
200.32978
30
0.0
0
VERTEX
8
CUT
10
196.11530
20
198.26079
30
0.0
0
VERTEX
8
CUT
10
205.89383
20
202.74078
30
0.0
0
VERTEX
8
CUT
10
207.96282
20
208.30848
30
0.0
0
VERTEX
8
CUT
10
211.72468
20
210.03196
30
0.0
0
VERTEX
8
CUT
10
217.29238
20
207.96298
30
0.0
0
VERTEX
8
CUT
10
230.94333
20
214.21710
30
0.0
0
VERTEX
8
CUT
10
233.01232
20
219.78480
30
0.0
0
VERTEX
8
CUT
10
236.77417
20
221.50828
30
0.0
0
VERTEX
8
CUT
10
242.34187
20
219.43929
30
0.0
0
VERTEX
8
CUT
10
246.55211
20
221.36819
30
0.0
0
VERTEX
8
CUT
10
244.80275
20
225.18654
30
0.0
0
VERTEX
8
CUT
10
333.17404
20
265.67345
30
0.0
0
VERTEX
8
CUT
10
310.74515
20
314.62926
30
0.0
0
VERTEX
8
CUT
10
275.17428
20
339.89445
30
0.0
0
VERTEX
8
CUT
10
230.58277
20
437.22490
30
0.0
0
VERTEX
8
CUT
10
164.04077
20
406.73898
30
0.0
0
VERTEX
8
CUT
10
164.02667
20
406.77141
30
0.0
0
VERTEX
8
CUT
10
152.89989
20
402.19051
30
0.0
0
VERTEX
8
CUT
10
140.58932
20
398.21393
30
0.0
0
VERTEX
8
CUT
10
128.00599
20
395.21008
30
0.0
0
VERTEX
8
CUT
10
115.22664
20
393.19728
30
0.0
0
VERTEX
8
CUT
10
102.32919
20
392.18780
30
0.0
0
VERTEX
8
CUT
10
92.63851
20
392.18780
30
0.0
0
VERTEX
8
CUT
10
92.63630
20
392.27245
30
0.0
0
VERTEX
8
CUT
10
38.96699
20
390.87370
30
0.0
0
VERTEX
8
CUT
10
37.07449
20
390.75470
30
0.0
0
VERTEX
8
CUT
10
36.12892
20
390.69550
30
0.0
0
VERTEX
8
CUT
10
34.23774
20
390.57758
30
0.0
0
VERTEX
8
CUT
10
33.29213
20
390.51886
30
0.0
0
VERTEX
8
CUT
10
31.40089
20
390.40191
30
0.0
0
VERTEX
8
CUT
10
30.45525
20
390.34367
30
0.0
0
VERTEX
8
CUT
10
28.56394
20
390.22767
30
0.0
0
VERTEX
8
CUT
10
27.61827
20
390.16990
30
0.0
0
VERTEX
8
CUT
10
25.72690
20
390.05483
30
0.0
0
VERTEX
8
CUT
10
24.78120
20
389.99752
30
0.0
0
VERTEX
8
CUT
10
22.88976
20
389.88336
30
0.0
0
VERTEX
8
CUT
10
21.94403
20
389.82650
30
0.0
0
VERTEX
8
CUT
10
20.05254
20
389.71323
30
0.0
0
VERTEX
8
CUT
10
18.16101
20
389.60054
30
0.0
0
VERTEX
8
CUT
10
17.14280
20
389.54011
30
0.0
0
VERTEX
8
CUT
10
20.66195
20
254.51183
30
0.0
0
VERTEX
8
CUT
10
-0.07546
20
212.87205
30
0.0
0
SEQEND
0
LINE
8
SCORE
10
98.81308
20
152.39330
30
0.0
11
98.73492
21
155.39229
31
0.0
0
LINE
8
SCORE
10
98.65676
20
158.39127
30
0.0
11
98.57860
21
161.39025
31
0.0
0
LINE
8
SCORE
10
98.50044
20
164.38923
30
0.0
11
98.42228
21
167.38821
31
0.0
0
LINE
8
SCORE
10
98.34412
20
170.38719
30
0.0
11
98.26596
21
173.38618
31
0.0
0
LINE
8
SCORE
10
98.18779
20
176.38516
30
0.0
11
98.10963
21
179.38414
31
0.0
0
LINE
8
SCORE
10
98.03147
20
182.38312
30
0.0
11
97.95331
21
185.38210
31
0.0
0
LINE
8
SCORE
10
97.87515
20
188.38108
30
0.0
11
97.79699
21
191.38007
31
0.0
0
LINE
8
SCORE
10
97.71883
20
194.37905
30
0.0
11
97.64067
21
197.37803
31
0.0
0
LINE
8
SCORE
10
97.56251
20
200.37701
30
0.0
11
97.48435
21
203.37599
31
0.0
0
LINE
8
SCORE
10
97.40619
20
206.37497
30
0.0
11
97.32803
21
209.37396
31
0.0
0
LINE
8
SCORE
10
97.24987
20
212.37294
30
0.0
11
97.17171
21
215.37192
31
0.0
0
LINE
8
SCORE
10
97.09355
20
218.37090
30
0.0
11
97.01539
21
221.36988
31
0.0
0
LINE
8
SCORE
10
96.93723
20
224.36886
30
0.0
11
96.85907
21
227.36785
31
0.0
0
LINE
8
SCORE
10
96.78091
20
230.36683
30
0.0
11
96.70275
21
233.36581
31
0.0
0
LINE
8
SCORE
10
96.62459
20
236.36479
30
0.0
11
96.54643
21
239.36377
31
0.0
0
LINE
8
SCORE
10
96.46827
20
242.36275
30
0.0
11
96.39011
21
245.36174
31
0.0
0
LINE
8
SCORE
10
96.31195
20
248.36072
30
0.0
11
96.23379
21
251.35970
31
0.0
0
LINE
8
SCORE
10
96.15563
20
254.35868
30
0.0
11
96.07747
21
257.35766
31
0.0
0
LINE
8
SCORE
10
95.99931
20
260.35664
30
0.0
11
95.92115
21
263.35563
31
0.0
0
LINE
8
SCORE
10
95.84299
20
266.35461
30
0.0
11
95.76482
21
269.35359
31
0.0
0
LINE
8
SCORE
10
95.68666
20
272.35257
30
0.0
11
95.60850
21
275.35155
31
0.0
0
LINE
8
SCORE
10
95.53034
20
278.35053
30
0.0
11
95.45218
21
281.34952
31
0.0
0
LINE
8
SCORE
10
95.37402
20
284.34850
30
0.0
11
95.29586
21
287.34748
31
0.0
0
LINE
8
SCORE
10
95.21770
20
290.34646
30
0.0
11
95.13954
21
293.34544
31
0.0
0
LINE
8
SCORE
10
95.06138
20
296.34442
30
0.0
11
94.98322
21
299.34341
31
0.0
0
LINE
8
SCORE
10
94.90506
20
302.34239
30
0.0
11
94.82690
21
305.34137
31
0.0
0
LINE
8
SCORE
10
94.74874
20
308.34035
30
0.0
11
94.67058
21
311.33933
31
0.0
0
LINE
8
SCORE
10
94.59242
20
314.33831
30
0.0
11
94.51426
21
317.33730
31
0.0
0
LINE
8
SCORE
10
94.43610
20
320.33628
30
0.0
11
94.35794
21
323.33526
31
0.0
0
LINE
8
SCORE
10
94.27978
20
326.33424
30
0.0
11
94.20162
21
329.33322
31
0.0
0
LINE
8
SCORE
10
94.12346
20
332.33220
30
0.0
11
94.04530
21
335.33119
31
0.0
0
LINE
8
SCORE
10
93.96714
20
338.33017
30
0.0
11
93.88898
21
341.32915
31
0.0
0
LINE
8
SCORE
10
93.81082
20
344.32813
30
0.0
11
93.73266
21
347.32711
31
0.0
0
LINE
8
SCORE
10
93.65450
20
350.32609
30
0.0
11
93.57634
21
353.32508
31
0.0
0
LINE
8
SCORE
10
93.49818
20
356.32406
30
0.0
11
93.42001
21
359.32304
31
0.0
0
LINE
8
SCORE
10
93.34185
20
362.32202
30
0.0
11
93.26369
21
365.32100
31
0.0
0
LINE
8
SCORE
10
93.18553
20
368.31998
30
0.0
11
93.10737
21
371.31897
31
0.0
0
LINE
8
SCORE
10
93.02921
20
374.31795
30
0.0
11
92.95105
21
377.31693
31
0.0
0
LINE
8
SCORE
10
92.87289
20
380.31591
30
0.0
11
92.79473
21
383.31489
31
0.0
0
LINE
8
SCORE
10
92.71657
20
386.31387
30
0.0
11
92.63841
21
389.31286
31
0.0
0
LINE
8
SCORE
10
1.39753
20
159.23245
30
0.0
11
4.39652
21
159.31061
31
0.0
0
LINE
8
SCORE
10
7.39550
20
159.38877
30
0.0
11
10.39448
21
159.46693
31
0.0
0
LINE
8
SCORE
10
13.39346
20
159.54509
30
0.0
11
16.39244
21
159.62325
31
0.0
0
LINE
8
SCORE
10
19.39142
20
159.70141
30
0.0
11
22.39041
21
159.77958
31
0.0
0
LINE
8
SCORE
10
25.38939
20
159.85774
30
0.0
11
28.38837
21
159.93590
31
0.0
0
LINE
8
SCORE
10
31.38735
20
160.01406
30
0.0
11
34.38633
21
160.09222
31
0.0
0
LINE
8
SCORE
10
37.38531
20
160.17038
30
0.0
11
40.38430
21
160.24854
31
0.0
0
LINE
8
SCORE
10
43.38328
20
160.32670
30
0.0
11
46.38226
21
160.40486
31
0.0
0
LINE
8
SCORE
10
49.38124
20
160.48302
30
0.0
11
52.38022
21
160.56118
31
0.0
0
LINE
8
SCORE
10
55.37920
20
160.63934
30
0.0
11
58.37819
21
160.71750
31
0.0
0
LINE
8
SCORE
10
61.37717
20
160.79566
30
0.0
11
64.37615
21
160.87382
31
0.0
0
LINE
8
SCORE
10
67.37513
20
160.95198
30
0.0
11
70.37411
21
161.03014
31
0.0
0
LINE
8
SCORE
10
73.37309
20
161.10830
30
0.0
11
76.37208
21
161.18646
31
0.0
0
LINE
8
SCORE
10
79.37106
20
161.26462
30
0.0
11
82.37004
21
161.34278
31
0.0
0
LINE
8
SCORE
10
85.36902
20
161.42094
30
0.0
11
88.36800
21
161.49910
31
0.0
0
LINE
8
SCORE
10
91.36698
20
161.57726
30
0.0
11
94.36597
21
161.65542
31
0.0
0
LINE
8
SCORE
10
97.36495
20
161.73358
30
0.0
11
99.94336
21
161.80078
31
0.0
0
LINE
8
SCORE
10
162.00740
20
405.72490
30
0.0
11
163.25694
21
402.99751
31
0.0
0
LINE
8
SCORE
10
164.50649
20
400.27012
30
0.0
11
165.75603
21
397.54274
31
0.0
0
LINE
8
SCORE
10
167.00557
20
394.81535
30
0.0
11
168.25511
21
392.08796
31
0.0
0
LINE
8
SCORE
10
169.50465
20
389.36057
30
0.0
11
170.75419
21
386.63318
31
0.0
0
LINE
8
SCORE
10
172.00373
20
383.90579
30
0.0
11
173.25327
21
381.17841
31
0.0
0
LINE
8
SCORE
10
174.50281
20
378.45102
30
0.0
11
175.75235
21
375.72363
31
0.0
0
LINE
8
SCORE
10
177.00190
20
372.99624
30
0.0
11
178.25144
21
370.26885
31
0.0
0
LINE
8
SCORE
10
179.50098
20
367.54146
30
0.0
11
180.75052
21
364.81408
31
0.0
0
LINE
8
SCORE
10
182.00006
20
362.08669
30
0.0
11
183.24960
21
359.35930
31
0.0
0
LINE
8
SCORE
10
184.49914
20
356.63191
30
0.0
11
185.74868
21
353.90452
31
0.0
0
LINE
8
SCORE
10
186.99822
20
351.17713
30
0.0
11
188.24776
21
348.44975
31
0.0
0
LINE
8
SCORE
10
189.49730
20
345.72236
30
0.0
11
190.74685
21
342.99497
31
0.0
0
LINE
8
SCORE
10
191.99639
20
340.26758
30
0.0
11
193.24593
21
337.54019
31
0.0
0
LINE
8
SCORE
10
194.49547
20
334.81280
30
0.0
11
195.74501
21
332.08542
31
0.0
0
LINE
8
SCORE
10
196.99455
20
329.35803
30
0.0
11
198.24409
21
326.63064
31
0.0
0
LINE
8
SCORE
10
199.49363
20
323.90325
30
0.0
11
200.74317
21
321.17586
31
0.0
0
LINE
8
SCORE
10
201.99271
20
318.44847
30
0.0
11
203.24226
21
315.72108
31
0.0
0
LINE
8
SCORE
10
204.49180
20
312.99370
30
0.0
11
205.74134
21
310.26631
31
0.0
0
LINE
8
SCORE
10
206.99088
20
307.53892
30
0.0
11
208.24042
21
304.81153
31
0.0
0
LINE
8
SCORE
10
209.48996
20
302.08414
30
0.0
11
210.73950
21
299.35675
31
0.0
0
LINE
8
SCORE
10
211.98904
20
296.62937
30
0.0
11
213.23858
21
293.90198
31
0.0
0
LINE
8
SCORE
10
214.48812
20
291.17459
30
0.0
11
215.73766
21
288.44720
31
0.0
0
LINE
8
SCORE
10
216.98721
20
285.71981
30
0.0
11
218.23675
21
282.99242
31
0.0
0
LINE
8
SCORE
10
219.48629
20
280.26504
30
0.0
11
220.73583
21
277.53765
31
0.0
0
LINE
8
SCORE
10
221.98537
20
274.81026
30
0.0
11
223.23491
21
272.08287
31
0.0
0
LINE
8
SCORE
10
224.48445
20
269.35548
30
0.0
11
225.73399
21
266.62809
31
0.0
0
LINE
8
SCORE
10
226.98353
20
263.90071
30
0.0
11
228.23307
21
261.17332
31
0.0
0
LINE
8
SCORE
10
229.48262
20
258.44593
30
0.0
11
230.73216
21
255.71854
31
0.0
0
LINE
8
SCORE
10
231.98170
20
252.99115
30
0.0
11
233.23124
21
250.26376
31
0.0
0
LINE
8
SCORE
10
234.48078
20
247.53638
30
0.0
11
235.73032
21
244.80899
31
0.0
0
LINE
8
SCORE
10
236.97986
20
242.08160
30
0.0
11
238.22940
21
239.35421
31
0.0
0
LINE
8
SCORE
10
239.47894
20
236.62682
30
0.0
11
240.72848
21
233.89943
31
0.0
0
LINE
8
SCORE
10
241.97803
20
231.17204
30
0.0
11
243.22757
21
228.44466
31
0.0
0
LINE
8
SCORE
10
244.47711
20
225.71727
30
0.0
11
245.72665
21
222.98988
31
0.0
0
LINE
8
SCORE2
10
98.81308
20
152.39330
30
0.0
11
92.56328
21
392.19552
31
0.0
0
LINE
8
SCORE2
10
1.39753
20
159.23245
30
0.0
11
99.94336
21
161.80078
31
0.0
0
LINE
8
SCORE2
10
162.00740
20
405.72490
30
0.0
11
246.45269
21
221.40514
31
0.0
0
ENDSEC
0
EOF
