0
SECTION
2
ENTITIES
0
POLYLINE
8
CUT
66
1
70
1
0
VERTEX
8
CUT
10
-0.19685
20
162.83585
30
0.0
0
VERTEX
8
CUT
10
22.06030
20
110.70953
30
0.0
0
VERTEX
8
CUT
10
58.25682
20
81.49099
30
0.0
0
VERTEX
8
CUT
10
93.13427
20
-0.19208
30
0.0
0
VERTEX
8
CUT
10
95.66508
20
0.78474
30
0.0
0
VERTEX
8
CUT
10
98.06110
20
1.70856
30
0.0
0
VERTEX
8
CUT
10
100.45744
20
2.63149
30
0.0
0
VERTEX
8
CUT
10
102.85413
20
3.55353
30
0.0
0
VERTEX
8
CUT
10
105.25117
20
4.47467
30
0.0
0
VERTEX
8
CUT
10
107.64855
20
5.39487
30
0.0
0
VERTEX
8
CUT
10
110.04630
20
6.31413
30
0.0
0
VERTEX
8
CUT
10
112.44441
20
7.23242
30
0.0
0
VERTEX
8
CUT
10
114.84289
20
8.14974
30
0.0
0
VERTEX
8
CUT
10
117.24175
20
9.06605
30
0.0
0
VERTEX
8
CUT
10
119.64100
20
9.98135
30
0.0
0
VERTEX
8
CUT
10
122.04064
20
10.89562
30
0.0
0
VERTEX
8
CUT
10
124.44068
20
11.80884
30
0.0
0
VERTEX
8
CUT
10
126.84112
20
12.72099
30
0.0
0
VERTEX
8
CUT
10
129.24198
20
13.63205
30
0.0
0
VERTEX
8
CUT
10
131.64326
20
14.54202
30
0.0
0
VERTEX
8
CUT
10
134.04496
20
15.45086
30
0.0
0
VERTEX
8
CUT
10
136.44709
20
16.35856
30
0.0
0
VERTEX
8
CUT
10
138.84966
20
17.26511
30
0.0
0
VERTEX
8
CUT
10
141.25268
20
18.17049
30
0.0
0
VERTEX
8
CUT
10
143.65615
20
19.07468
30
0.0
0
VERTEX
8
CUT
10
146.06008
20
19.97766
30
0.0
0
VERTEX
8
CUT
10
148.46765
20
20.88061
30
0.0
0
VERTEX
8
CUT
10
160.74575
20
26.12318
30
0.0
0
VERTEX
8
CUT
10
160.59766
20
26.47001
30
0.0
0
VERTEX
8
CUT
10
169.15926
20
30.72831
30
0.0
0
VERTEX
8
CUT
10
184.08590
20
36.64915
30
0.0
0
VERTEX
8
CUT
10
199.45629
20
41.29803
30
0.0
0
VERTEX
8
CUT
10
215.16280
20
44.64235
30
0.0
0
VERTEX
8
CUT
10
280.58773
20
53.39897
30
0.0
0
VERTEX
8
CUT
10
272.18687
20
116.16597
30
0.0
0
VERTEX
8
CUT
10
288.75206
20
156.84502
30
0.0
0
VERTEX
8
CUT
10
281.77324
20
208.98724
30
0.0
0
VERTEX
8
CUT
10
194.73010
20
197.33726
30
0.0
0
VERTEX
8
CUT
10
87.63992
20
197.33726
30
0.0
0
VERTEX
8
CUT
10
86.55520
20
199.87767
30
0.0
0
VERTEX
8
CUT
10
-0.19685
20
162.83585
30
0.0
0
SEQEND
0
LINE
8
SCORE
10
188.44620
20
196.34487
30
0.0
11
189.10949
21
191.38907
31
0.0
0
LINE
8
SCORE
10
189.77279
20
186.43326
30
0.0
11
190.43608
21
181.47745
31
0.0
0
LINE
8
SCORE
10
191.09938
20
176.52164
30
0.0
11
191.76267
21
171.56583
31
0.0
0
LINE
8
SCORE
10
192.42597
20
166.61002
30
0.0
11
193.08926
21
161.65421
31
0.0
0
LINE
8
SCORE
10
193.75256
20
156.69841
30
0.0
11
194.41586
21
151.74260
31
0.0
0
LINE
8
SCORE
10
195.07915
20
146.78679
30
0.0
11
195.74245
21
141.83098
31
0.0
0
LINE
8
SCORE
10
196.40574
20
136.87517
30
0.0
11
197.06904
21
131.91936
31
0.0
0
LINE
8
SCORE
10
197.73233
20
126.96355
30
0.0
11
198.39563
21
122.00775
31
0.0
0
LINE
8
SCORE
10
199.05892
20
117.05194
30
0.0
11
199.72222
21
112.09613
31
0.0
0
LINE
8
SCORE
10
200.38552
20
107.14032
30
0.0
11
201.04881
21
102.18451
31
0.0
0
LINE
8
SCORE
10
201.71211
20
97.22870
30
0.0
11
202.37540
21
92.27289
31
0.0
0
LINE
8
SCORE
10
203.03870
20
87.31709
30
0.0
11
203.70199
21
82.36128
31
0.0
0
LINE
8
SCORE
10
204.36529
20
77.40547
30
0.0
11
205.02858
21
72.44966
31
0.0
0
LINE
8
SCORE
10
205.69188
20
67.49385
30
0.0
11
206.35518
21
62.53804
31
0.0
0
LINE
8
SCORE
10
207.01847
20
57.58223
30
0.0
11
207.68177
21
52.62642
31
0.0
0
LINE
8
SCORE
10
208.34506
20
47.67062
30
0.0
11
208.84332
21
43.94787
31
0.0
0
LINE
8
SCORE
10
86.47615
20
199.68081
30
0.0
11
88.43958
21
195.08245
31
0.0
0
LINE
8
SCORE
10
90.40301
20
190.48409
30
0.0
11
92.36645
21
185.88573
31
0.0
0
LINE
8
SCORE
10
94.32988
20
181.28737
30
0.0
11
96.29331
21
176.68900
31
0.0
0
LINE
8
SCORE
10
98.25674
20
172.09064
30
0.0
11
100.22017
21
167.49228
31
0.0
0
LINE
8
SCORE
10
102.18360
20
162.89392
30
0.0
11
104.14704
21
158.29555
31
0.0
0
LINE
8
SCORE
10
106.11047
20
153.69719
30
0.0
11
108.07390
21
149.09883
31
0.0
0
LINE
8
SCORE
10
110.03733
20
144.50047
30
0.0
11
112.00076
21
139.90210
31
0.0
0
LINE
8
SCORE
10
113.96419
20
135.30374
30
0.0
11
115.92762
21
130.70538
31
0.0
0
LINE
8
SCORE
10
117.89106
20
126.10702
30
0.0
11
119.85449
21
121.50865
31
0.0
0
LINE
8
SCORE
10
121.81792
20
116.91029
30
0.0
11
123.78135
21
112.31193
31
0.0
0
LINE
8
SCORE
10
125.74478
20
107.71357
30
0.0
11
127.70821
21
103.11521
31
0.0
0
LINE
8
SCORE
10
129.67165
20
98.51684
30
0.0
11
131.63508
21
93.91848
31
0.0
0
LINE
8
SCORE
10
133.59851
20
89.32012
30
0.0
11
135.56194
21
84.72176
31
0.0
0
LINE
8
SCORE
10
137.52537
20
80.12339
30
0.0
11
139.48880
21
75.52503
31
0.0
0
LINE
8
SCORE
10
141.45224
20
70.92667
30
0.0
11
143.41567
21
66.32831
31
0.0
0
LINE
8
SCORE
10
145.37910
20
61.72994
30
0.0
11
147.34253
21
57.13158
31
0.0
0
LINE
8
SCORE
10
149.30596
20
52.53322
30
0.0
11
151.26939
21
47.93486
31
0.0
0
LINE
8
SCORE
10
153.23282
20
43.33649
30
0.0
11
155.19626
21
38.73813
31
0.0
0
LINE
8
SCORE
10
157.15969
20
34.13977
30
0.0
11
159.12312
21
29.54141
31
0.0
0
LINE
8
SCORE2
10
188.44620
20
196.34487
30
0.0
11
208.84332
21
43.94787
31
0.0
0
LINE
8
SCORE2
10
86.47615
20
199.68081
30
0.0
11
160.54890
21
26.20222
31
0.0
0
ENDSEC
0
EOF
