<?xml version="1.0" encoding="UTF-8"?>
<svg xmlns="http://www.w3.org/2000/svg" version="1.1" width="288.5981mm" height="208.8187mm" viewBox="0 0 288.5981 208.8187">
<title>bin flat pattern</title>
<g id="cut" stroke="#ff0000" fill="none" stroke-width="0.1000">
  <path d="M -0.1969,162.8358 L 22.0603,110.7095 L 58.2568,81.4910 L 93.1343,-0.1921 L 95.6651,0.7847 L 98.0611,1.7086 L 100.4574,2.6315 L 102.8541,3.5535 L 105.2512,4.4747 L 107.6486,5.3949 L 110.0463,6.3141 L 112.4444,7.2324 L 114.8429,8.1497 L 117.2418,9.0661 L 119.6410,9.9814 L 122.0406,10.8956 L 124.4407,11.8088 L 126.8411,12.7210 L 129.2420,13.6321 L 131.6433,14.5420 L 134.0450,15.4509 L 136.4471,16.3586 L 138.8497,17.2651 L 141.2527,18.1705 L 143.6561,19.0747 L 146.0601,19.9777 L 148.4676,20.8806 L 160.7458,26.1232 L 160.5977,26.4700 L 169.1593,30.7283 L 184.0859,36.6492 L 199.4563,41.2980 L 215.1628,44.6424 L 280.5877,53.3990 L 272.1869,116.1660 L 288.7521,156.8450 L 281.7732,208.9872 L 194.7301,197.3373 L 87.6399,197.3373 L 86.5552,199.8777 L -0.1969,162.8358 Z"/>
</g>
<g id="score" stroke="#0000ff" fill="none" stroke-width="0.1000">
  <line x1="188.4462" y1="196.3449" x2="188.8442" y2="193.3714"/>
  <line x1="189.2421" y1="190.3979" x2="189.6401" y2="187.4244"/>
  <line x1="190.0381" y1="184.4509" x2="190.4361" y2="181.4774"/>
  <line x1="190.8341" y1="178.5040" x2="191.2320" y2="175.5305"/>
  <line x1="191.6300" y1="172.5570" x2="192.0280" y2="169.5835"/>
  <line x1="192.4260" y1="166.6100" x2="192.8239" y2="163.6365"/>
  <line x1="193.2219" y1="160.6631" x2="193.6199" y2="157.6896"/>
  <line x1="194.0179" y1="154.7161" x2="194.4159" y2="151.7426"/>
  <line x1="194.8138" y1="148.7691" x2="195.2118" y2="145.7956"/>
  <line x1="195.6098" y1="142.8221" x2="196.0078" y2="139.8487"/>
  <line x1="196.4057" y1="136.8752" x2="196.8037" y2="133.9017"/>
  <line x1="197.2017" y1="130.9282" x2="197.5997" y2="127.9547"/>
  <line x1="197.9977" y1="124.9812" x2="198.3956" y2="122.0077"/>
  <line x1="198.7936" y1="119.0343" x2="199.1916" y2="116.0608"/>
  <line x1="199.5896" y1="113.0873" x2="199.9875" y2="110.1138"/>
  <line x1="200.3855" y1="107.1403" x2="200.7835" y2="104.1668"/>
  <line x1="201.1815" y1="101.1933" x2="201.5794" y2="98.2199"/>
  <line x1="201.9774" y1="95.2464" x2="202.3754" y2="92.2729"/>
  <line x1="202.7734" y1="89.2994" x2="203.1714" y2="86.3259"/>
  <line x1="203.5693" y1="83.3524" x2="203.9673" y2="80.3790"/>
  <line x1="204.3653" y1="77.4055" x2="204.7633" y2="74.4320"/>
  <line x1="205.1612" y1="71.4585" x2="205.5592" y2="68.4850"/>
  <line x1="205.9572" y1="65.5115" x2="206.3552" y2="62.5380"/>
  <line x1="206.7532" y1="59.5646" x2="207.1511" y2="56.5911"/>
  <line x1="207.5491" y1="53.6176" x2="207.9471" y2="50.6441"/>
  <line x1="208.3451" y1="47.6706" x2="208.7430" y2="44.6971"/>
  <line x1="86.4762" y1="199.6808" x2="87.6542" y2="196.9218"/>
  <line x1="88.8323" y1="194.1628" x2="90.0103" y2="191.4038"/>
  <line x1="91.1884" y1="188.6447" x2="92.3664" y2="185.8857"/>
  <line x1="93.5445" y1="183.1267" x2="94.7226" y2="180.3677"/>
  <line x1="95.9006" y1="177.6087" x2="97.0787" y2="174.8497"/>
  <line x1="98.2567" y1="172.0906" x2="99.4348" y2="169.3316"/>
  <line x1="100.6129" y1="166.5726" x2="101.7909" y2="163.8136"/>
  <line x1="102.9690" y1="161.0546" x2="104.1470" y2="158.2956"/>
  <line x1="105.3251" y1="155.5365" x2="106.5032" y2="152.7775"/>
  <line x1="107.6812" y1="150.0185" x2="108.8593" y2="147.2595"/>
  <line x1="110.0373" y1="144.5005" x2="111.2154" y2="141.7414"/>
  <line x1="112.3934" y1="138.9824" x2="113.5715" y2="136.2234"/>
  <line x1="114.7496" y1="133.4644" x2="115.9276" y2="130.7054"/>
  <line x1="117.1057" y1="127.9464" x2="118.2837" y2="125.1873"/>
  <line x1="119.4618" y1="122.4283" x2="120.6399" y2="119.6693"/>
  <line x1="121.8179" y1="116.9103" x2="122.9960" y2="114.1513"/>
  <line x1="124.1740" y1="111.3923" x2="125.3521" y2="108.6332"/>
  <line x1="126.5302" y1="105.8742" x2="127.7082" y2="103.1152"/>
  <line x1="128.8863" y1="100.3562" x2="130.0643" y2="97.5972"/>
  <line x1="131.2424" y1="94.8382" x2="132.4205" y2="92.0791"/>
  <line x1="133.5985" y1="89.3201" x2="134.7766" y2="86.5611"/>
  <line x1="135.9546" y1="83.8021" x2="137.1327" y2="81.0431"/>
  <line x1="138.3107" y1="78.2840" x2="139.4888" y2="75.5250"/>
  <line x1="140.6669" y1="72.7660" x2="141.8449" y2="70.0070"/>
  <line x1="143.0230" y1="67.2480" x2="144.2010" y2="64.4890"/>
  <line x1="145.3791" y1="61.7299" x2="146.5572" y2="58.9709"/>
  <line x1="147.7352" y1="56.2119" x2="148.9133" y2="53.4529"/>
  <line x1="150.0913" y1="50.6939" x2="151.2694" y2="47.9349"/>
  <line x1="152.4475" y1="45.1758" x2="153.6255" y2="42.4168"/>
  <line x1="154.8036" y1="39.6578" x2="155.9816" y2="36.8988"/>
  <line x1="157.1597" y1="34.1398" x2="158.3377" y2="31.3808"/>
  <line x1="159.5158" y1="28.6217" x2="160.5489" y2="26.2022"/>
</g>
<g id="score2" stroke="#00a650" fill="none" stroke-width="0.1000">
  <line x1="188.4462" y1="196.3449" x2="208.8433" y2="43.9479"/>
  <line x1="86.4762" y1="199.6808" x2="160.5489" y2="26.2022"/>
</g>
</svg>