0
SECTION
2
ENTITIES
0
POLYLINE
8
CUT
66
1
70
1
0
VERTEX
8
CUT
10
-0.07787
20
155.59215
30
0.0
0
VERTEX
8
CUT
10
97.05230
20
151.79678
30
0.0
0
VERTEX
8
CUT
10
96.88831
20
147.59998
30
0.0
0
VERTEX
8
CUT
10
101.51584
20
147.41916
30
0.0
0
VERTEX
8
CUT
10
105.87663
20
151.45197
30
0.0
0
VERTEX
8
CUT
10
110.01134
20
151.29040
30
0.0
0
VERTEX
8
CUT
10
114.04415
20
146.92962
30
0.0
0
VERTEX
8
CUT
10
129.04811
20
146.34334
30
0.0
0
VERTEX
8
CUT
10
133.40889
20
150.37614
30
0.0
0
VERTEX
8
CUT
10
137.54361
20
150.21458
30
0.0
0
VERTEX
8
CUT
10
141.57641
20
145.85379
30
0.0
0
VERTEX
8
CUT
10
152.32415
20
145.43382
30
0.0
0
VERTEX
8
CUT
10
156.68493
20
149.46663
30
0.0
0
VERTEX
8
CUT
10
160.81965
20
149.30507
30
0.0
0
VERTEX
8
CUT
10
164.85245
20
144.94428
30
0.0
0
VERTEX
8
CUT
10
170.25984
20
144.73299
30
0.0
0
VERTEX
8
CUT
10
174.62063
20
148.76579
30
0.0
0
VERTEX
8
CUT
10
178.75534
20
148.60423
30
0.0
0
VERTEX
8
CUT
10
182.78815
20
144.24344
30
0.0
0
VERTEX
8
CUT
10
198.23849
20
143.63972
30
0.0
0
VERTEX
8
CUT
10
202.59927
20
147.67253
30
0.0
0
VERTEX
8
CUT
10
206.73399
20
147.51096
30
0.0
0
VERTEX
8
CUT
10
210.76679
20
143.15017
30
0.0
0
VERTEX
8
CUT
10
220.35481
20
142.77552
30
0.0
0
VERTEX
8
CUT
10
224.71559
20
146.80833
30
0.0
0
VERTEX
8
CUT
10
228.85031
20
146.64676
30
0.0
0
VERTEX
8
CUT
10
232.88311
20
142.28598
30
0.0
0
VERTEX
8
CUT
10
242.47112
20
141.91133
30
0.0
0
VERTEX
8
CUT
10
246.83191
20
145.94413
30
0.0
0
VERTEX
8
CUT
10
250.96662
20
145.78257
30
0.0
0
VERTEX
8
CUT
10
254.99943
20
141.42178
30
0.0
0
VERTEX
8
CUT
10
259.22543
20
141.25665
30
0.0
0
VERTEX
8
CUT
10
313.15800
20
-0.09681
30
0.0
0
VERTEX
8
CUT
10
336.92173
20
8.97010
30
0.0
0
VERTEX
8
CUT
10
337.52619
20
5.80248
30
0.0
0
VERTEX
8
CUT
10
350.02626
20
10.57180
30
0.0
0
VERTEX
8
CUT
10
348.36708
20
13.33700
30
0.0
0
VERTEX
8
CUT
10
367.62273
20
20.68389
30
0.0
0
VERTEX
8
CUT
10
368.22719
20
17.51626
30
0.0
0
VERTEX
8
CUT
10
380.72726
20
22.28559
30
0.0
0
VERTEX
8
CUT
10
379.06807
20
25.05079
30
0.0
0
VERTEX
8
CUT
10
404.11648
20
34.60786
30
0.0
0
VERTEX
8
CUT
10
328.17907
20
233.63444
30
0.0
0
VERTEX
8
CUT
10
293.15099
20
264.24400
30
0.0
0
VERTEX
8
CUT
10
245.00004
20
390.44425
30
0.0
0
VERTEX
8
CUT
10
244.03550
20
390.11250
30
0.0
0
VERTEX
8
CUT
10
242.24350
20
389.49661
30
0.0
0
VERTEX
8
CUT
10
240.45131
20
388.88126
30
0.0
0
VERTEX
8
CUT
10
239.55515
20
388.57380
30
0.0
0
VERTEX
8
CUT
10
237.76268
20
387.95930
30
0.0
0
VERTEX
8
CUT
10
236.86637
20
387.65226
30
0.0
0
VERTEX
8
CUT
10
235.07362
20
387.03863
30
0.0
0
VERTEX
8
CUT
10
234.17716
20
386.73203
30
0.0
0
VERTEX
8
CUT
10
232.38411
20
386.11928
30
0.0
0
VERTEX
8
CUT
10
231.48751
20
385.81313
30
0.0
0
VERTEX
8
CUT
10
229.69415
20
385.20128
30
0.0
0
VERTEX
8
CUT
10
228.79740
20
384.89558
30
0.0
0
VERTEX
8
CUT
10
227.00373
20
384.28465
30
0.0
0
VERTEX
8
CUT
10
226.10682
20
383.97942
30
0.0
0
VERTEX
8
CUT
10
224.31153
20
383.36898
30
0.0
0
VERTEX
8
CUT
10
174.15106
20
364.23056
30
0.0
0
VERTEX
8
CUT
10
174.18125
20
364.15144
30
0.0
0
VERTEX
8
CUT
10
165.22029
20
360.46221
30
0.0
0
VERTEX
8
CUT
10
152.90972
20
356.48563
30
0.0
0
VERTEX
8
CUT
10
140.32639
20
353.48178
30
0.0
0
VERTEX
8
CUT
10
127.54704
20
351.46898
30
0.0
0
VERTEX
8
CUT
10
114.64959
20
350.45950
30
0.0
0
VERTEX
8
CUT
10
102.61672
20
350.45950
30
0.0
0
VERTEX
8
CUT
10
102.61603
20
350.42415
30
0.0
0
VERTEX
8
CUT
10
29.47875
20
353.28199
30
0.0
0
VERTEX
8
CUT
10
25.29860
20
246.30468
30
0.0
0
VERTEX
8
CUT
10
2.02468
20
209.40019
30
0.0
0
VERTEX
8
CUT
10
-0.07787
20
155.59215
30
0.0
0
SEQEND
0
POLYLINE
8
CUT
66
1
70
1
0
VERTEX
8
CUT
10
26.93729
20
157.76399
30
0.0
0
VERTEX
8
CUT
10
38.97810
20
157.29349
30
0.0
0
VERTEX
8
CUT
10
39.10403
20
160.51603
30
0.0
0
VERTEX
8
CUT
10
27.06321
20
160.98653
30
0.0
0
VERTEX
8
CUT
10
26.93729
20
157.76399
30
0.0
0
SEQEND
0
POLYLINE
8
CUT
66
1
70
1
0
VERTEX
8
CUT
10
59.77200
20
156.48097
30
0.0
0
VERTEX
8
CUT
10
71.81281
20
156.01048
30
0.0
0
VERTEX
8
CUT
10
71.93873
20
159.23302
30
0.0
0
VERTEX
8
CUT
10
59.89792
20
159.70351
30
0.0
0
VERTEX
8
CUT
10
59.77200
20
156.48097
30
0.0
0
SEQEND
0
LINE
8
SCORE
10
259.04816
20
141.93165
30
0.0
11
257.97873
21
144.73456
31
0.0
0
LINE
8
SCORE
10
257.80049
20
145.20171
30
0.0
11
256.73105
21
148.00463
31
0.0
0
LINE
8
SCORE
10
256.55281
20
148.47178
30
0.0
11
255.48338
21
151.27469
31
0.0
0
LINE
8
SCORE
10
255.30514
20
151.74184
30
0.0
11
254.23571
21
154.54475
31
0.0
0
LINE
8
SCORE
10
254.05747
20
155.01190
30
0.0
11
252.98803
21
157.81481
31
0.0
0
LINE
8
SCORE
10
252.80980
20
158.28197
30
0.0
11
251.74036
21
161.08488
31
0.0
0
LINE
8
SCORE
10
251.56212
20
161.55203
30
0.0
11
250.49269
21
164.35494
31
0.0
0
LINE
8
SCORE
10
250.31445
20
164.82209
30
0.0
11
249.24502
21
167.62500
31
0.0
0
LINE
8
SCORE
10
249.06678
20
168.09216
30
0.0
11
247.99734
21
170.89507
31
0.0
0
LINE
8
SCORE
10
247.81910
20
171.36222
30
0.0
11
246.74967
21
174.16513
31
0.0
0
LINE
8
SCORE
10
246.57143
20
174.63228
30
0.0
11
245.50200
21
177.43519
31
0.0
0
LINE
8
SCORE
10
245.32376
20
177.90234
30
0.0
11
244.25432
21
180.70526
31
0.0
0
LINE
8
SCORE
10
244.07608
20
181.17241
30
0.0
11
243.00665
21
183.97532
31
0.0
0
LINE
8
SCORE
10
242.82841
20
184.44247
30
0.0
11
241.75898
21
187.24538
31
0.0
0
LINE
8
SCORE
10
241.58074
20
187.71253
30
0.0
11
240.51130
21
190.51544
31
0.0
0
LINE
8
SCORE
10
240.33307
20
190.98260
30
0.0
11
239.26363
21
193.78551
31
0.0
0
LINE
8
SCORE
10
239.08539
20
194.25266
30
0.0
11
238.01596
21
197.05557
31
0.0
0
LINE
8
SCORE
10
237.83772
20
197.52272
30
0.0
11
236.76828
21
200.32563
31
0.0
0
LINE
8
SCORE
10
236.59005
20
200.79279
30
0.0
11
235.52061
21
203.59570
31
0.0
0
LINE
8
SCORE
10
235.34237
20
204.06285
30
0.0
11
234.27294
21
206.86576
31
0.0
0
LINE
8
SCORE
10
234.09470
20
207.33291
30
0.0
11
233.02527
21
210.13582
31
0.0
0
LINE
8
SCORE
10
232.84703
20
210.60297
30
0.0
11
231.77759
21
213.40589
31
0.0
0
LINE
8
SCORE
10
231.59935
20
213.87304
30
0.0
11
230.52992
21
216.67595
31
0.0
0
LINE
8
SCORE
10
230.35168
20
217.14310
30
0.0
11
229.28225
21
219.94601
31
0.0
0
LINE
8
SCORE
10
229.10401
20
220.41316
30
0.0
11
228.03457
21
223.21607
31
0.0
0
LINE
8
SCORE
10
227.85633
20
223.68323
30
0.0
11
226.78690
21
226.48614
31
0.0
0
LINE
8
SCORE
10
226.60866
20
226.95329
30
0.0
11
225.53923
21
229.75620
31
0.0
0
LINE
8
SCORE
10
225.36099
20
230.22335
30
0.0
11
224.29155
21
233.02626
31
0.0
0
LINE
8
SCORE
10
224.11332
20
233.49342
30
0.0
11
223.04388
21
236.29633
31
0.0
0
LINE
8
SCORE
10
222.86564
20
236.76348
30
0.0
11
221.79621
21
239.56639
31
0.0
0
LINE
8
SCORE
10
221.61797
20
240.03354
30
0.0
11
220.54854
21
242.83645
31
0.0
0
LINE
8
SCORE
10
220.37030
20
243.30360
30
0.0
11
219.30086
21
246.10652
31
0.0
0
LINE
8
SCORE
10
219.12262
20
246.57367
30
0.0
11
218.05319
21
249.37658
31
0.0
0
LINE
8
SCORE
10
217.87495
20
249.84373
30
0.0
11
216.80552
21
252.64664
31
0.0
0
LINE
8
SCORE
10
216.62728
20
253.11379
30
0.0
11
215.55784
21
255.91670
31
0.0
0
LINE
8
SCORE
10
215.37960
20
256.38386
30
0.0
11
214.31017
21
259.18677
31
0.0
0
LINE
8
SCORE
10
214.13193
20
259.65392
30
0.0
11
213.06250
21
262.45683
31
0.0
0
LINE
8
SCORE
10
212.88426
20
262.92398
30
0.0
11
211.81482
21
265.72689
31
0.0
0
LINE
8
SCORE
10
211.63658
20
266.19405
30
0.0
11
210.56715
21
268.99696
31
0.0
0
LINE
8
SCORE
10
210.38891
20
269.46411
30
0.0
11
209.31948
21
272.26702
31
0.0
0
LINE
8
SCORE
10
209.14124
20
272.73417
30
0.0
11
208.07180
21
275.53708
31
0.0
0
LINE
8
SCORE
10
207.89357
20
276.00423
30
0.0
11
206.82413
21
278.80715
31
0.0
0
LINE
8
SCORE
10
206.64589
20
279.27430
30
0.0
11
205.57646
21
282.07721
31
0.0
0
LINE
8
SCORE
10
205.39822
20
282.54436
30
0.0
11
204.32879
21
285.34727
31
0.0
0
LINE
8
SCORE
10
204.15055
20
285.81442
30
0.0
11
203.08111
21
288.61733
31
0.0
0
LINE
8
SCORE
10
202.90287
20
289.08449
30
0.0
11
201.83344
21
291.88740
31
0.0
0
LINE
8
SCORE
10
201.65520
20
292.35455
30
0.0
11
200.58577
21
295.15746
31
0.0
0
LINE
8
SCORE
10
200.40753
20
295.62461
30
0.0
11
199.33809
21
298.42752
31
0.0
0
LINE
8
SCORE
10
199.15985
20
298.89468
30
0.0
11
198.09042
21
301.69759
31
0.0
0
LINE
8
SCORE
10
197.91218
20
302.16474
30
0.0
11
196.84275
21
304.96765
31
0.0
0
LINE
8
SCORE
10
196.66451
20
305.43480
30
0.0
11
195.59507
21
308.23771
31
0.0
0
LINE
8
SCORE
10
195.41684
20
308.70486
30
0.0
11
194.34740
21
311.50778
31
0.0
0
LINE
8
SCORE
10
194.16916
20
311.97493
30
0.0
11
193.09973
21
314.77784
31
0.0
0
LINE
8
SCORE
10
192.92149
20
315.24499
30
0.0
11
191.85205
21
318.04790
31
0.0
0
LINE
8
SCORE
10
191.67382
20
318.51505
30
0.0
11
190.60438
21
321.31796
31
0.0
0
LINE
8
SCORE
10
190.42614
20
321.78512
30
0.0
11
189.35671
21
324.58803
31
0.0
0
LINE
8
SCORE
10
189.17847
20
325.05518
30
0.0
11
188.10904
21
327.85809
31
0.0
0
LINE
8
SCORE
10
187.93080
20
328.32524
30
0.0
11
186.86136
21
331.12815
31
0.0
0
LINE
8
SCORE
10
186.68312
20
331.59531
30
0.0
11
185.61369
21
334.39822
31
0.0
0
LINE
8
SCORE
10
185.43545
20
334.86537
30
0.0
11
184.36602
21
337.66828
31
0.0
0
LINE
8
SCORE
10
184.18778
20
338.13543
30
0.0
11
183.11834
21
340.93834
31
0.0
0
LINE
8
SCORE
10
182.94010
20
341.40549
30
0.0
11
181.87067
21
344.20841
31
0.0
0
LINE
8
SCORE
10
181.69243
20
344.67556
30
0.0
11
180.62300
21
347.47847
31
0.0
0
LINE
8
SCORE
10
180.44476
20
347.94562
30
0.0
11
179.37532
21
350.74853
31
0.0
0
LINE
8
SCORE
10
179.19709
20
351.21568
30
0.0
11
178.12765
21
354.01859
31
0.0
0
LINE
8
SCORE
10
177.94941
20
354.48575
30
0.0
11
176.87998
21
357.28866
31
0.0
0
LINE
8
SCORE
10
176.70174
20
357.75581
30
0.0
11
175.63231
21
360.55872
31
0.0
0
LINE
8
SCORE
10
175.45407
20
361.02587
30
0.0
11
174.96083
21
362.31861
31
0.0
0
LINE
8
SCORE
10
345.36892
20
182.76023
30
0.0
11
342.56601
21
181.69079
31
0.0
0
LINE
8
SCORE
10
342.09885
20
181.51255
30
0.0
11
339.29594
21
180.44312
31
0.0
0
LINE
8
SCORE
10
338.82879
20
180.26488
30
0.0
11
336.02588
21
179.19545
31
0.0
0
LINE
8
SCORE
10
335.55873
20
179.01721
30
0.0
11
332.75582
21
177.94777
31
0.0
0
LINE
8
SCORE
10
332.28866
20
177.76953
30
0.0
11
329.48575
21
176.70010
31
0.0
0
LINE
8
SCORE
10
329.01860
20
176.52186
30
0.0
11
326.21569
21
175.45243
31
0.0
0
LINE
8
SCORE
10
325.74854
20
175.27419
30
0.0
11
322.94563
21
174.20475
31
0.0
0
LINE
8
SCORE
10
322.47848
20
174.02651
30
0.0
11
319.67556
21
172.95708
31
0.0
0
LINE
8
SCORE
10
319.20841
20
172.77884
30
0.0
11
316.40550
21
171.70941
31
0.0
0
LINE
8
SCORE
10
315.93835
20
171.53117
30
0.0
11
313.13544
21
170.46173
31
0.0
0
LINE
8
SCORE
10
312.66829
20
170.28350
30
0.0
11
309.86538
21
169.21406
31
0.0
0
LINE
8
SCORE
10
309.39822
20
169.03582
30
0.0
11
306.59531
21
167.96639
31
0.0
0
LINE
8
SCORE
10
306.12816
20
167.78815
30
0.0
11
303.32525
21
166.71872
31
0.0
0
LINE
8
SCORE
10
302.85810
20
166.54048
30
0.0
11
300.05519
21
165.47104
31
0.0
0
LINE
8
SCORE
10
299.58803
20
165.29280
30
0.0
11
296.78512
21
164.22337
31
0.0
0
LINE
8
SCORE
10
296.31797
20
164.04513
30
0.0
11
293.51506
21
162.97570
31
0.0
0
LINE
8
SCORE
10
293.04791
20
162.79746
30
0.0
11
290.24500
21
161.72802
31
0.0
0
LINE
8
SCORE
10
289.77785
20
161.54978
30
0.0
11
286.97493
21
160.48035
31
0.0
0
LINE
8
SCORE
10
286.50778
20
160.30211
30
0.0
11
283.70487
21
159.23268
31
0.0
0
LINE
8
SCORE
10
283.23772
20
159.05444
30
0.0
11
280.43481
21
157.98500
31
0.0
0
LINE
8
SCORE
10
279.96766
20
157.80676
30
0.0
11
277.16475
21
156.73733
31
0.0
0
LINE
8
SCORE
10
276.69759
20
156.55909
30
0.0
11
273.89468
21
155.48966
31
0.0
0
LINE
8
SCORE
10
273.42753
20
155.31142
30
0.0
11
270.62462
21
154.24198
31
0.0
0
LINE
8
SCORE
10
270.15747
20
154.06375
30
0.0
11
267.35456
21
152.99431
31
0.0
0
LINE
8
SCORE
10
266.88740
20
152.81607
30
0.0
11
264.08449
21
151.74664
31
0.0
0
LINE
8
SCORE
10
263.61734
20
151.56840
30
0.0
11
260.81443
21
150.49897
31
0.0
0
LINE
8
SCORE
10
260.34728
20
150.32073
30
0.0
11
257.54437
21
149.25129
31
0.0
0
LINE
8
SCORE
10
257.07722
20
149.07305
30
0.0
11
257.00313
21
149.04479
31
0.0
0
LINE
8
SCORE
10
104.80425
20
348.26206
30
0.0
11
104.68711
21
345.26435
31
0.0
0
LINE
8
SCORE
10
104.66759
20
344.76473
30
0.0
11
104.55045
21
341.76701
31
0.0
0
LINE
8
SCORE
10
104.53093
20
341.26740
30
0.0
11
104.41379
21
338.26968
31
0.0
0
LINE
8
SCORE
10
104.39427
20
337.77007
30
0.0
11
104.27714
21
334.77235
31
0.0
0
LINE
8
SCORE
10
104.25761
20
334.27273
30
0.0
11
104.14048
21
331.27502
31
0.0
0
LINE
8
SCORE
10
104.12095
20
330.77540
30
0.0
11
104.00382
21
327.77769
31
0.0
0
LINE
8
SCORE
10
103.98430
20
327.27807
30
0.0
11
103.86716
21
324.28036
31
0.0
0
LINE
8
SCORE
10
103.84764
20
323.78074
30
0.0
11
103.73050
21
320.78303
31
0.0
0
LINE
8
SCORE
10
103.71098
20
320.28341
30
0.0
11
103.59384
21
317.28570
31
0.0
0
LINE
8
SCORE
10
103.57432
20
316.78608
30
0.0
11
103.45718
21
313.78837
31
0.0
0
LINE
8
SCORE
10
103.43766
20
313.28875
30
0.0
11
103.32053
21
310.29104
31
0.0
0
LINE
8
SCORE
10
103.30100
20
309.79142
30
0.0
11
103.18387
21
306.79370
31
0.0
0
LINE
8
SCORE
10
103.16435
20
306.29409
30
0.0
11
103.04721
21
303.29637
31
0.0
0
LINE
8
SCORE
10
103.02769
20
302.79675
30
0.0
11
102.91055
21
299.79904
31
0.0
0
LINE
8
SCORE
10
102.89103
20
299.29942
30
0.0
11
102.77389
21
296.30171
31
0.0
0
LINE
8
SCORE
10
102.75437
20
295.80209
30
0.0
11
102.63723
21
292.80438
31
0.0
0
LINE
8
SCORE
10
102.61771
20
292.30476
30
0.0
11
102.50058
21
289.30705
31
0.0
0
LINE
8
SCORE
10
102.48105
20
288.80743
30
0.0
11
102.36392
21
285.80972
31
0.0
0
LINE
8
SCORE
10
102.34439
20
285.31010
30
0.0
11
102.22726
21
282.31239
31
0.0
0
LINE
8
SCORE
10
102.20774
20
281.81277
30
0.0
11
102.09060
21
278.81506
31
0.0
0
LINE
8
SCORE
10
102.07108
20
278.31544
30
0.0
11
101.95394
21
275.31772
31
0.0
0
LINE
8
SCORE
10
101.93442
20
274.81811
30
0.0
11
101.81728
21
271.82039
31
0.0
0
LINE
8
SCORE
10
101.79776
20
271.32078
30
0.0
11
101.68063
21
268.32306
31
0.0
0
LINE
8
SCORE
10
101.66110
20
267.82344
30
0.0
11
101.54397
21
264.82573
31
0.0
0
LINE
8
SCORE
10
101.52444
20
264.32611
30
0.0
11
101.40731
21
261.32840
31
0.0
0
LINE
8
SCORE
10
101.38779
20
260.82878
30
0.0
11
101.27065
21
257.83107
31
0.0
0
LINE
8
SCORE
10
101.25113
20
257.33145
30
0.0
11
101.13399
21
254.33374
31
0.0
0
LINE
8
SCORE
10
101.11447
20
253.83412
30
0.0
11
100.99733
21
250.83641
31
0.0
0
LINE
8
SCORE
10
100.97781
20
250.33679
30
0.0
11
100.86067
21
247.33908
31
0.0
0
LINE
8
SCORE
10
100.84115
20
246.83946
30
0.0
11
100.72402
21
243.84175
31
0.0
0
LINE
8
SCORE
10
100.70449
20
243.34213
30
0.0
11
100.58736
21
240.34441
31
0.0
0
LINE
8
SCORE
10
100.56784
20
239.84480
30
0.0
11
100.45070
21
236.84708
31
0.0
0
LINE
8
SCORE
10
100.43118
20
236.34746
30
0.0
11
100.31404
21
233.34975
31
0.0
0
LINE
8
SCORE
10
100.29452
20
232.85013
30
0.0
11
100.17738
21
229.85242
31
0.0
0
LINE
8
SCORE
10
100.15786
20
229.35280
30
0.0
11
100.04072
21
226.35509
31
0.0
0
LINE
8
SCORE
10
100.02120
20
225.85547
30
0.0
11
99.90407
21
222.85776
31
0.0
0
LINE
8
SCORE
10
99.88454
20
222.35814
30
0.0
11
99.76741
21
219.36043
31
0.0
0
LINE
8
SCORE
10
99.74788
20
218.86081
30
0.0
11
99.63075
21
215.86310
31
0.0
0
LINE
8
SCORE
10
99.61123
20
215.36348
30
0.0
11
99.49409
21
212.36577
31
0.0
0
LINE
8
SCORE
10
99.47457
20
211.86615
30
0.0
11
99.35743
21
208.86843
31
0.0
0
LINE
8
SCORE
10
99.33791
20
208.36882
30
0.0
11
99.22077
21
205.37110
31
0.0
0
LINE
8
SCORE
10
99.20125
20
204.87149
30
0.0
11
99.08412
21
201.87377
31
0.0
0
LINE
8
SCORE
10
99.06459
20
201.37415
30
0.0
11
98.94746
21
198.37644
31
0.0
0
LINE
8
SCORE
10
98.92793
20
197.87682
30
0.0
11
98.81080
21
194.87911
31
0.0
0
LINE
8
SCORE
10
98.79128
20
194.37949
30
0.0
11
98.67414
21
191.38178
31
0.0
0
LINE
8
SCORE
10
98.65462
20
190.88216
30
0.0
11
98.53748
21
187.88445
31
0.0
0
LINE
8
SCORE
10
98.51796
20
187.38483
30
0.0
11
98.40082
21
184.38712
31
0.0
0
LINE
8
SCORE
10
98.38130
20
183.88750
30
0.0
11
98.26416
21
180.88979
31
0.0
0
LINE
8
SCORE
10
98.24464
20
180.39017
30
0.0
11
98.12751
21
177.39246
31
0.0
0
LINE
8
SCORE
10
98.10798
20
176.89284
30
0.0
11
97.99085
21
173.89512
31
0.0
0
LINE
8
SCORE
10
97.97133
20
173.39551
30
0.0
11
97.85419
21
170.39779
31
0.0
0
LINE
8
SCORE
10
97.83467
20
169.89817
30
0.0
11
97.71753
21
166.90046
31
0.0
0
LINE
8
SCORE
10
97.69801
20
166.40084
30
0.0
11
97.58087
21
163.40313
31
0.0
0
LINE
8
SCORE
10
97.56135
20
162.90351
30
0.0
11
97.44421
21
159.90580
31
0.0
0
LINE
8
SCORE
10
97.42469
20
159.40618
30
0.0
11
97.30756
21
156.40847
31
0.0
0
LINE
8
SCORE
10
97.28803
20
155.90885
30
0.0
11
97.17090
21
152.91114
31
0.0
0
LINE
8
SCORE
10
97.15137
20
152.41152
30
0.0
11
97.04427
21
149.67047
31
0.0
0
LINE
8
SCORE2
10
259.04816
20
141.93165
30
0.0
11
174.96083
21
362.31861
31
0.0
0
LINE
8
SCORE2
10
345.36892
20
182.76023
30
0.0
11
257.00313
21
149.04479
31
0.0
0
LINE
8
SCORE2
10
104.80425
20
348.26206
30
0.0
11
97.04427
21
149.67047
31
0.0
0
ENDSEC
0
EOF
