0
SECTION
2
ENTITIES
0
POLYLINE
8
CUT
66
1
70
1
0
VERTEX
8
CUT
10
-0.16857
20
235.04174
30
0.0
0
VERTEX
8
CUT
10
12.02482
20
143.94199
30
0.0
0
VERTEX
8
CUT
10
18.24213
20
97.48951
30
0.0
0
VERTEX
8
CUT
10
44.92178
20
62.59843
30
0.0
0
VERTEX
8
CUT
10
53.32265
20
-0.16857
30
0.0
0
VERTEX
8
CUT
10
124.89844
20
9.41127
30
0.0
0
VERTEX
8
CUT
10
124.90434
20
9.36716
30
0.0
0
VERTEX
8
CUT
10
134.68940
20
10.60541
30
0.0
0
VERTEX
8
CUT
10
150.73331
20
11.27898
30
0.0
0
VERTEX
8
CUT
10
166.77723
20
10.60541
30
0.0
0
VERTEX
8
CUT
10
176.56229
20
9.36716
30
0.0
0
VERTEX
8
CUT
10
176.56819
20
9.41127
30
0.0
0
VERTEX
8
CUT
10
248.14398
20
-0.16857
30
0.0
0
VERTEX
8
CUT
10
256.54485
20
62.59843
30
0.0
0
VERTEX
8
CUT
10
283.22449
20
97.48951
30
0.0
0
VERTEX
8
CUT
10
290.44423
20
151.43172
30
0.0
0
VERTEX
8
CUT
10
196.94868
20
163.94541
30
0.0
0
VERTEX
8
CUT
10
196.83345
20
163.08445
30
0.0
0
VERTEX
8
CUT
10
190.24872
20
163.08445
30
0.0
0
VERTEX
8
CUT
10
186.04872
20
167.28445
30
0.0
0
VERTEX
8
CUT
10
170.97118
20
167.28445
30
0.0
0
VERTEX
8
CUT
10
166.77118
20
163.08445
30
0.0
0
VERTEX
8
CUT
10
162.69545
20
163.08445
30
0.0
0
VERTEX
8
CUT
10
158.49545
20
167.28445
30
0.0
0
VERTEX
8
CUT
10
142.97118
20
167.28445
30
0.0
0
VERTEX
8
CUT
10
138.77118
20
163.08445
30
0.0
0
VERTEX
8
CUT
10
134.69545
20
163.08445
30
0.0
0
VERTEX
8
CUT
10
130.49545
20
167.28445
30
0.0
0
VERTEX
8
CUT
10
115.41790
20
167.28445
30
0.0
0
VERTEX
8
CUT
10
111.21790
20
163.08445
30
0.0
0
VERTEX
8
CUT
10
104.63315
20
163.08445
30
0.0
0
VERTEX
8
CUT
10
93.32690
20
247.55616
30
0.0
0
VERTEX
8
CUT
10
78.77847
20
245.60884
30
0.0
0
VERTEX
8
CUT
10
79.08911
20
252.05705
30
0.0
0
VERTEX
8
CUT
10
68.42427
20
250.62956
30
0.0
0
VERTEX
8
CUT
10
70.41978
20
244.49003
30
0.0
0
VERTEX
8
CUT
10
53.90547
20
242.27958
30
0.0
0
VERTEX
8
CUT
10
54.21611
20
248.72779
30
0.0
0
VERTEX
8
CUT
10
43.55127
20
247.30029
30
0.0
0
VERTEX
8
CUT
10
45.54678
20
241.16076
30
0.0
0
VERTEX
8
CUT
10
29.03247
20
238.95031
30
0.0
0
VERTEX
8
CUT
10
29.34311
20
245.39852
30
0.0
0
VERTEX
8
CUT
10
18.67827
20
243.97103
30
0.0
0
VERTEX
8
CUT
10
20.67378
20
237.83150
30
0.0
0
VERTEX
8
CUT
10
-0.16857
20
235.04174
30
0.0
0
SEQEND
0
POLYLINE
8
CUT
66
1
70
1
0
VERTEX
8
CUT
10
209.95096
20
149.19012
30
0.0
0
VERTEX
8
CUT
10
217.97937
20
148.11558
30
0.0
0
VERTEX
8
CUT
10
218.83503
20
154.50857
30
0.0
0
VERTEX
8
CUT
10
210.80662
20
155.58311
30
0.0
0
VERTEX
8
CUT
10
209.95096
20
149.19012
30
0.0
0
SEQEND
0
POLYLINE
8
CUT
66
1
70
1
0
VERTEX
8
CUT
10
234.82399
20
145.86105
30
0.0
0
VERTEX
8
CUT
10
242.85240
20
144.78651
30
0.0
0
VERTEX
8
CUT
10
243.70805
20
151.17950
30
0.0
0
VERTEX
8
CUT
10
235.67964
20
152.25404
30
0.0
0
VERTEX
8
CUT
10
234.82399
20
145.86105
30
0.0
0
SEQEND
0
POLYLINE
8
CUT
66
1
70
1
0
VERTEX
8
CUT
10
259.69702
20
142.53198
30
0.0
0
VERTEX
8
CUT
10
267.72543
20
141.45744
30
0.0
0
VERTEX
8
CUT
10
268.58108
20
147.85043
30
0.0
0
VERTEX
8
CUT
10
260.55267
20
148.92497
30
0.0
0
VERTEX
8
CUT
10
259.69702
20
142.53198
30
0.0
0
SEQEND
0
LINE
8
SCORE
10
104.38917
20
163.77684
30
0.0
11
105.05247
21
158.82103
31
0.0
0
LINE
8
SCORE
10
105.71577
20
153.86522
30
0.0
11
106.37906
21
148.90941
31
0.0
0
LINE
8
SCORE
10
107.04236
20
143.95361
30
0.0
11
107.70565
21
138.99780
31
0.0
0
LINE
8
SCORE
10
108.36895
20
134.04199
30
0.0
11
109.03224
21
129.08618
31
0.0
0
LINE
8
SCORE
10
109.69554
20
124.13037
30
0.0
11
110.35883
21
119.17456
31
0.0
0
LINE
8
SCORE
10
111.02213
20
114.21875
30
0.0
11
111.68543
21
109.26294
31
0.0
0
LINE
8
SCORE
10
112.34872
20
104.30714
30
0.0
11
113.01202
21
99.35133
31
0.0
0
LINE
8
SCORE
10
113.67531
20
94.39552
30
0.0
11
114.33861
21
89.43971
31
0.0
0
LINE
8
SCORE
10
115.00190
20
84.48390
30
0.0
11
115.66520
21
79.52809
31
0.0
0
LINE
8
SCORE
10
116.32849
20
74.57228
30
0.0
11
116.99179
21
69.61648
31
0.0
0
LINE
8
SCORE
10
117.65508
20
64.66067
30
0.0
11
118.31838
21
59.70486
31
0.0
0
LINE
8
SCORE
10
118.98168
20
54.74905
30
0.0
11
119.64497
21
49.79324
31
0.0
0
LINE
8
SCORE
10
120.30827
20
44.83743
30
0.0
11
120.97156
21
39.88162
31
0.0
0
LINE
8
SCORE
10
121.63486
20
34.92582
30
0.0
11
122.29815
21
29.97001
31
0.0
0
LINE
8
SCORE
10
122.96145
20
25.01420
30
0.0
11
123.62474
21
20.05839
31
0.0
0
LINE
8
SCORE
10
124.28804
20
15.10258
30
0.0
11
124.95134
21
10.14677
31
0.0
0
LINE
8
SCORE
10
197.07745
20
163.77684
30
0.0
11
196.41416
21
158.82103
31
0.0
0
LINE
8
SCORE
10
195.75086
20
153.86522
30
0.0
11
195.08757
21
148.90941
31
0.0
0
LINE
8
SCORE
10
194.42427
20
143.95361
30
0.0
11
193.76098
21
138.99780
31
0.0
0
LINE
8
SCORE
10
193.09768
20
134.04199
30
0.0
11
192.43439
21
129.08618
31
0.0
0
LINE
8
SCORE
10
191.77109
20
124.13037
30
0.0
11
191.10779
21
119.17456
31
0.0
0
LINE
8
SCORE
10
190.44450
20
114.21875
30
0.0
11
189.78120
21
109.26294
31
0.0
0
LINE
8
SCORE
10
189.11791
20
104.30714
30
0.0
11
188.45461
21
99.35133
31
0.0
0
LINE
8
SCORE
10
187.79132
20
94.39552
30
0.0
11
187.12802
21
89.43971
31
0.0
0
LINE
8
SCORE
10
186.46473
20
84.48390
30
0.0
11
185.80143
21
79.52809
31
0.0
0
LINE
8
SCORE
10
185.13813
20
74.57228
30
0.0
11
184.47484
21
69.61648
31
0.0
0
LINE
8
SCORE
10
183.81154
20
64.66067
30
0.0
11
183.14825
21
59.70486
31
0.0
0
LINE
8
SCORE
10
182.48495
20
54.74905
30
0.0
11
181.82166
21
49.79324
31
0.0
0
LINE
8
SCORE
10
181.15836
20
44.83743
30
0.0
11
180.49507
21
39.88162
31
0.0
0
LINE
8
SCORE
10
179.83177
20
34.92582
30
0.0
11
179.16847
21
29.97001
31
0.0
0
LINE
8
SCORE
10
178.50518
20
25.01420
30
0.0
11
177.84188
21
20.05839
31
0.0
0
LINE
8
SCORE
10
177.17859
20
15.10258
30
0.0
11
176.51529
21
10.14677
31
0.0
0
LINE
8
SCORE
10
111.64572
20
157.42684
30
0.0
11
106.68991
21
156.76355
31
0.0
0
LINE
8
SCORE
10
101.73411
20
156.10025
30
0.0
11
96.77830
21
155.43695
31
0.0
0
LINE
8
SCORE
10
91.82249
20
154.77365
30
0.0
11
86.86668
21
154.11035
31
0.0
0
LINE
8
SCORE
10
81.91087
20
153.44705
30
0.0
11
76.95506
21
152.78376
31
0.0
0
LINE
8
SCORE
10
71.99926
20
152.12046
30
0.0
11
67.04345
21
151.45716
31
0.0
0
LINE
8
SCORE
10
62.08764
20
150.79386
30
0.0
11
57.13183
21
150.13056
31
0.0
0
LINE
8
SCORE
10
52.17602
20
149.46727
30
0.0
11
47.22022
21
148.80397
31
0.0
0
LINE
8
SCORE
10
42.26441
20
148.14067
30
0.0
11
37.30860
21
147.47737
31
0.0
0
LINE
8
SCORE
10
32.35279
20
146.81407
30
0.0
11
27.39698
21
146.15078
31
0.0
0
LINE
8
SCORE
10
22.44117
20
145.48748
30
0.0
11
17.48537
21
144.82418
31
0.0
0
LINE
8
SCORE
10
12.52956
20
144.16088
30
0.0
11
12.15362
21
144.11056
31
0.0
0
LINE
8
SCORE2
10
104.38917
20
163.77684
30
0.0
11
125.02722
21
9.57984
31
0.0
0
LINE
8
SCORE2
10
197.07745
20
163.77684
30
0.0
11
176.43941
21
9.57984
31
0.0
0
LINE
8
SCORE2
10
111.64572
20
157.42684
30
0.0
11
12.15362
21
144.11056
31
0.0
0
ENDSEC
0
EOF
