0
SECTION
2
ENTITIES
0
POLYLINE
8
CUT
66
1
70
1
0
VERTEX
8
CUT
10
-0.09843
20
349.25614
30
0.0
0
VERTEX
8
CUT
10
83.55212
20
153.34632
30
0.0
0
VERTEX
8
CUT
10
119.74864
20
124.12778
30
0.0
0
VERTEX
8
CUT
10
172.79040
20
-0.09617
30
0.0
0
VERTEX
8
CUT
10
173.74126
20
0.27299
30
0.0
0
VERTEX
8
CUT
10
175.50784
20
0.95838
30
0.0
0
VERTEX
8
CUT
10
177.27463
20
1.64323
30
0.0
0
VERTEX
8
CUT
10
178.15811
20
1.98545
30
0.0
0
VERTEX
8
CUT
10
179.92522
20
2.66947
30
0.0
0
VERTEX
8
CUT
10
180.80885
20
3.01127
30
0.0
0
VERTEX
8
CUT
10
182.57628
20
3.69444
30
0.0
0
VERTEX
8
CUT
10
184.34393
20
4.37702
30
0.0
0
VERTEX
8
CUT
10
185.22784
20
4.71810
30
0.0
0
VERTEX
8
CUT
10
186.99583
20
5.39980
30
0.0
0
VERTEX
8
CUT
10
187.87990
20
5.74043
30
0.0
0
VERTEX
8
CUT
10
189.64823
20
6.42123
30
0.0
0
VERTEX
8
CUT
10
190.53248
20
6.76141
30
0.0
0
VERTEX
8
CUT
10
192.30116
20
7.44129
30
0.0
0
VERTEX
8
CUT
10
193.18688
20
7.78149
30
0.0
0
VERTEX
8
CUT
10
242.56183
20
28.86385
30
0.0
0
VERTEX
8
CUT
10
242.52858
20
28.94173
30
0.0
0
VERTEX
8
CUT
10
251.33866
20
32.97803
30
0.0
0
VERTEX
8
CUT
10
263.48457
20
37.43225
30
0.0
0
VERTEX
8
CUT
10
275.94102
20
40.92512
30
0.0
0
VERTEX
8
CUT
10
288.63204
20
43.43536
30
0.0
0
VERTEX
8
CUT
10
301.48024
20
44.94766
30
0.0
0
VERTEX
8
CUT
10
313.50393
20
45.41748
30
0.0
0
VERTEX
8
CUT
10
313.50324
20
45.45284
30
0.0
0
VERTEX
8
CUT
10
386.69634
20
45.45284
30
0.0
0
VERTEX
8
CUT
10
386.69634
20
152.51179
30
0.0
0
VERTEX
8
CUT
10
408.51156
20
190.29687
30
0.0
0
VERTEX
8
CUT
10
408.51156
20
244.14598
30
0.0
0
VERTEX
8
CUT
10
298.33834
20
244.14598
30
0.0
0
VERTEX
8
CUT
10
294.13834
20
248.34598
30
0.0
0
VERTEX
8
CUT
10
279.12293
20
248.34598
30
0.0
0
VERTEX
8
CUT
10
274.92293
20
244.14598
30
0.0
0
VERTEX
8
CUT
10
270.78506
20
244.14598
30
0.0
0
VERTEX
8
CUT
10
266.58506
20
248.34598
30
0.0
0
VERTEX
8
CUT
10
255.82913
20
248.34598
30
0.0
0
VERTEX
8
CUT
10
251.62913
20
244.14598
30
0.0
0
VERTEX
8
CUT
10
247.49126
20
244.14598
30
0.0
0
VERTEX
8
CUT
10
243.29126
20
248.34598
30
0.0
0
VERTEX
8
CUT
10
237.87975
20
248.34598
30
0.0
0
VERTEX
8
CUT
10
233.67975
20
244.14598
30
0.0
0
VERTEX
8
CUT
10
229.54188
20
244.14598
30
0.0
0
VERTEX
8
CUT
10
225.34188
20
248.34598
30
0.0
0
VERTEX
8
CUT
10
209.87975
20
248.34598
30
0.0
0
VERTEX
8
CUT
10
205.67975
20
244.14598
30
0.0
0
VERTEX
8
CUT
10
201.54188
20
244.14598
30
0.0
0
VERTEX
8
CUT
10
197.34188
20
248.34598
30
0.0
0
VERTEX
8
CUT
10
187.74655
20
248.34598
30
0.0
0
VERTEX
8
CUT
10
183.54655
20
244.14598
30
0.0
0
VERTEX
8
CUT
10
179.40868
20
244.14598
30
0.0
0
VERTEX
8
CUT
10
175.20868
20
248.34598
30
0.0
0
VERTEX
8
CUT
10
165.61335
20
248.34598
30
0.0
0
VERTEX
8
CUT
10
161.41335
20
244.14598
30
0.0
0
VERTEX
8
CUT
10
150.63960
20
244.14598
30
0.0
0
VERTEX
8
CUT
10
89.43564
20
387.48583
30
0.0
0
VERTEX
8
CUT
10
67.14765
20
377.96920
30
0.0
0
VERTEX
8
CUT
10
66.41997
20
381.11081
30
0.0
0
VERTEX
8
CUT
10
54.11566
20
375.85705
30
0.0
0
VERTEX
8
CUT
10
55.88154
20
373.15874
30
0.0
0
VERTEX
8
CUT
10
36.37563
20
364.83001
30
0.0
0
VERTEX
8
CUT
10
35.64795
20
367.97162
30
0.0
0
VERTEX
8
CUT
10
23.34364
20
362.71786
30
0.0
0
VERTEX
8
CUT
10
25.10952
20
360.01955
30
0.0
0
VERTEX
8
CUT
10
-0.09843
20
349.25614
30
0.0
0
SEQEND
0
POLYLINE
8
CUT
66
1
70
1
0
VERTEX
8
CUT
10
335.49204
20
237.69598
30
0.0
0
VERTEX
8
CUT
10
347.54204
20
237.69598
30
0.0
0
VERTEX
8
CUT
10
347.54204
20
240.92098
30
0.0
0
VERTEX
8
CUT
10
335.49204
20
240.92098
30
0.0
0
VERTEX
8
CUT
10
335.49204
20
237.69598
30
0.0
0
SEQEND
0
POLYLINE
8
CUT
66
1
70
1
0
VERTEX
8
CUT
10
368.95180
20
237.69598
30
0.0
0
VERTEX
8
CUT
10
381.00180
20
237.69598
30
0.0
0
VERTEX
8
CUT
10
381.00180
20
240.92098
30
0.0
0
VERTEX
8
CUT
10
368.95180
20
240.92098
30
0.0
0
VERTEX
8
CUT
10
368.95180
20
237.69598
30
0.0
0
SEQEND
0
LINE
8
SCORE
10
150.84309
20
243.47841
30
0.0
11
152.02115
21
240.71939
31
0.0
0
LINE
8
SCORE
10
152.21749
20
240.25956
30
0.0
11
153.39555
21
237.50054
31
0.0
0
LINE
8
SCORE
10
153.59189
20
237.04070
30
0.0
11
154.76995
21
234.28169
31
0.0
0
LINE
8
SCORE
10
154.96629
20
233.82185
30
0.0
11
156.14435
21
231.06283
31
0.0
0
LINE
8
SCORE
10
156.34070
20
230.60300
30
0.0
11
157.51876
21
227.84398
31
0.0
0
LINE
8
SCORE
10
157.71510
20
227.38414
30
0.0
11
158.89316
21
224.62513
31
0.0
0
LINE
8
SCORE
10
159.08950
20
224.16529
30
0.0
11
160.26756
21
221.40627
31
0.0
0
LINE
8
SCORE
10
160.46390
20
220.94644
30
0.0
11
161.64196
21
218.18742
31
0.0
0
LINE
8
SCORE
10
161.83831
20
217.72758
30
0.0
11
163.01636
21
214.96857
31
0.0
0
LINE
8
SCORE
10
163.21271
20
214.50873
30
0.0
11
164.39077
21
211.74971
31
0.0
0
LINE
8
SCORE
10
164.58711
20
211.28988
30
0.0
11
165.76517
21
208.53086
31
0.0
0
LINE
8
SCORE
10
165.96151
20
208.07102
30
0.0
11
167.13957
21
205.31200
31
0.0
0
LINE
8
SCORE
10
167.33591
20
204.85217
30
0.0
11
168.51397
21
202.09315
31
0.0
0
LINE
8
SCORE
10
168.71032
20
201.63331
30
0.0
11
169.88837
21
198.87430
31
0.0
0
LINE
8
SCORE
10
170.08472
20
198.41446
30
0.0
11
171.26278
21
195.65544
31
0.0
0
LINE
8
SCORE
10
171.45912
20
195.19561
30
0.0
11
172.63718
21
192.43659
31
0.0
0
LINE
8
SCORE
10
172.83352
20
191.97675
30
0.0
11
174.01158
21
189.21774
31
0.0
0
LINE
8
SCORE
10
174.20792
20
188.75790
30
0.0
11
175.38598
21
185.99888
31
0.0
0
LINE
8
SCORE
10
175.58233
20
185.53905
30
0.0
11
176.76039
21
182.78003
31
0.0
0
LINE
8
SCORE
10
176.95673
20
182.32019
30
0.0
11
178.13479
21
179.56118
31
0.0
0
LINE
8
SCORE
10
178.33113
20
179.10134
30
0.0
11
179.50919
21
176.34232
31
0.0
0
LINE
8
SCORE
10
179.70553
20
175.88249
30
0.0
11
180.88359
21
173.12347
31
0.0
0
LINE
8
SCORE
10
181.07993
20
172.66363
30
0.0
11
182.25799
21
169.90461
31
0.0
0
LINE
8
SCORE
10
182.45434
20
169.44478
30
0.0
11
183.63240
21
166.68576
31
0.0
0
LINE
8
SCORE
10
183.82874
20
166.22592
30
0.0
11
185.00680
21
163.46691
31
0.0
0
LINE
8
SCORE
10
185.20314
20
163.00707
30
0.0
11
186.38120
21
160.24805
31
0.0
0
LINE
8
SCORE
10
186.57754
20
159.78822
30
0.0
11
187.75560
21
157.02920
31
0.0
0
LINE
8
SCORE
10
187.95195
20
156.56936
30
0.0
11
189.13000
21
153.81035
31
0.0
0
LINE
8
SCORE
10
189.32635
20
153.35051
30
0.0
11
190.50441
21
150.59149
31
0.0
0
LINE
8
SCORE
10
190.70075
20
150.13166
30
0.0
11
191.87881
21
147.37264
31
0.0
0
LINE
8
SCORE
10
192.07515
20
146.91280
30
0.0
11
193.25321
21
144.15379
31
0.0
0
LINE
8
SCORE
10
193.44955
20
143.69395
30
0.0
11
194.62761
21
140.93493
31
0.0
0
LINE
8
SCORE
10
194.82396
20
140.47510
30
0.0
11
196.00201
21
137.71608
31
0.0
0
LINE
8
SCORE
10
196.19836
20
137.25624
30
0.0
11
197.37642
21
134.49722
31
0.0
0
LINE
8
SCORE
10
197.57276
20
134.03739
30
0.0
11
198.75082
21
131.27837
31
0.0
0
LINE
8
SCORE
10
198.94716
20
130.81853
30
0.0
11
200.12522
21
128.05952
31
0.0
0
LINE
8
SCORE
10
200.32156
20
127.59968
30
0.0
11
201.49962
21
124.84066
31
0.0
0
LINE
8
SCORE
10
201.69597
20
124.38083
30
0.0
11
202.87403
21
121.62181
31
0.0
0
LINE
8
SCORE
10
203.07037
20
121.16197
30
0.0
11
204.24843
21
118.40296
31
0.0
0
LINE
8
SCORE
10
204.44477
20
117.94312
30
0.0
11
205.62283
21
115.18410
31
0.0
0
LINE
8
SCORE
10
205.81917
20
114.72427
30
0.0
11
206.99723
21
111.96525
31
0.0
0
LINE
8
SCORE
10
207.19357
20
111.50541
30
0.0
11
208.37163
21
108.74639
31
0.0
0
LINE
8
SCORE
10
208.56798
20
108.28656
30
0.0
11
209.74604
21
105.52754
31
0.0
0
LINE
8
SCORE
10
209.94238
20
105.06771
30
0.0
11
211.12044
21
102.30869
31
0.0
0
LINE
8
SCORE
10
211.31678
20
101.84885
30
0.0
11
212.49484
21
99.08983
31
0.0
0
LINE
8
SCORE
10
212.69118
20
98.63000
30
0.0
11
213.86924
21
95.87098
31
0.0
0
LINE
8
SCORE
10
214.06559
20
95.41114
30
0.0
11
215.24364
21
92.65213
31
0.0
0
LINE
8
SCORE
10
215.43999
20
92.19229
30
0.0
11
216.61805
21
89.43327
31
0.0
0
LINE
8
SCORE
10
216.81439
20
88.97344
30
0.0
11
217.99245
21
86.21442
31
0.0
0
LINE
8
SCORE
10
218.18879
20
85.75458
30
0.0
11
219.36685
21
82.99557
31
0.0
0
LINE
8
SCORE
10
219.56319
20
82.53573
30
0.0
11
220.74125
21
79.77671
31
0.0
0
LINE
8
SCORE
10
220.93760
20
79.31688
30
0.0
11
222.11565
21
76.55786
31
0.0
0
LINE
8
SCORE
10
222.31200
20
76.09802
30
0.0
11
223.49006
21
73.33900
31
0.0
0
LINE
8
SCORE
10
223.68640
20
72.87917
30
0.0
11
224.86446
21
70.12015
31
0.0
0
LINE
8
SCORE
10
225.06080
20
69.66031
30
0.0
11
226.23886
21
66.90130
31
0.0
0
LINE
8
SCORE
10
226.43520
20
66.44146
30
0.0
11
227.61326
21
63.68244
31
0.0
0
LINE
8
SCORE
10
227.80961
20
63.22261
30
0.0
11
228.98767
21
60.46359
31
0.0
0
LINE
8
SCORE
10
229.18401
20
60.00375
30
0.0
11
230.36207
21
57.24474
31
0.0
0
LINE
8
SCORE
10
230.55841
20
56.78490
30
0.0
11
231.73647
21
54.02588
31
0.0
0
LINE
8
SCORE
10
231.93281
20
53.56605
30
0.0
11
233.11087
21
50.80703
31
0.0
0
LINE
8
SCORE
10
233.30721
20
50.34719
30
0.0
11
234.48527
21
47.58818
31
0.0
0
LINE
8
SCORE
10
234.68162
20
47.12834
30
0.0
11
235.85968
21
44.36932
31
0.0
0
LINE
8
SCORE
10
236.05602
20
43.90949
30
0.0
11
237.23408
21
41.15047
31
0.0
0
LINE
8
SCORE
10
237.43042
20
40.69063
30
0.0
11
238.60848
21
37.93161
31
0.0
0
LINE
8
SCORE
10
238.80482
20
37.47178
30
0.0
11
239.98288
21
34.71276
31
0.0
0
LINE
8
SCORE
10
240.17923
20
34.25292
30
0.0
11
241.35728
21
31.49391
31
0.0
0
LINE
8
SCORE
10
241.55363
20
31.03407
30
0.0
11
241.67803
21
30.74272
31
0.0
0
LINE
8
SCORE
10
311.23227
20
47.52784
30
0.0
11
311.23227
21
50.52784
31
0.0
0
LINE
8
SCORE
10
311.23227
20
51.02784
30
0.0
11
311.23227
21
54.02784
31
0.0
0
LINE
8
SCORE
10
311.23227
20
54.52784
30
0.0
11
311.23227
21
57.52784
31
0.0
0
LINE
8
SCORE
10
311.23227
20
58.02784
30
0.0
11
311.23227
21
61.02784
31
0.0
0
LINE
8
SCORE
10
311.23227
20
61.52784
30
0.0
11
311.23227
21
64.52784
31
0.0
0
LINE
8
SCORE
10
311.23227
20
65.02784
30
0.0
11
311.23227
21
68.02784
31
0.0
0
LINE
8
SCORE
10
311.23227
20
68.52784
30
0.0
11
311.23227
21
71.52784
31
0.0
0
LINE
8
SCORE
10
311.23227
20
72.02784
30
0.0
11
311.23227
21
75.02784
31
0.0
0
LINE
8
SCORE
10
311.23227
20
75.52784
30
0.0
11
311.23227
21
78.52784
31
0.0
0
LINE
8
SCORE
10
311.23227
20
79.02784
30
0.0
11
311.23227
21
82.02784
31
0.0
0
LINE
8
SCORE
10
311.23227
20
82.52784
30
0.0
11
311.23227
21
85.52784
31
0.0
0
LINE
8
SCORE
10
311.23227
20
86.02784
30
0.0
11
311.23227
21
89.02784
31
0.0
0
LINE
8
SCORE
10
311.23227
20
89.52784
30
0.0
11
311.23227
21
92.52784
31
0.0
0
LINE
8
SCORE
10
311.23227
20
93.02784
30
0.0
11
311.23227
21
96.02784
31
0.0
0
LINE
8
SCORE
10
311.23227
20
96.52784
30
0.0
11
311.23227
21
99.52784
31
0.0
0
LINE
8
SCORE
10
311.23227
20
100.02784
30
0.0
11
311.23227
21
103.02784
31
0.0
0
LINE
8
SCORE
10
311.23227
20
103.52784
30
0.0
11
311.23227
21
106.52784
31
0.0
0
LINE
8
SCORE
10
311.23227
20
107.02784
30
0.0
11
311.23227
21
110.02784
31
0.0
0
LINE
8
SCORE
10
311.23227
20
110.52784
30
0.0
11
311.23227
21
113.52784
31
0.0
0
LINE
8
SCORE
10
311.23227
20
114.02784
30
0.0
11
311.23227
21
117.02784
31
0.0
0
LINE
8
SCORE
10
311.23227
20
117.52784
30
0.0
11
311.23227
21
120.52784
31
0.0
0
LINE
8
SCORE
10
311.23227
20
121.02784
30
0.0
11
311.23227
21
124.02784
31
0.0
0
LINE
8
SCORE
10
311.23227
20
124.52784
30
0.0
11
311.23227
21
127.52784
31
0.0
0
LINE
8
SCORE
10
311.23227
20
128.02784
30
0.0
11
311.23227
21
131.02784
31
0.0
0
LINE
8
SCORE
10
311.23227
20
131.52784
30
0.0
11
311.23227
21
134.52784
31
0.0
0
LINE
8
SCORE
10
311.23227
20
135.02784
30
0.0
11
311.23227
21
138.02784
31
0.0
0
LINE
8
SCORE
10
311.23227
20
138.52784
30
0.0
11
311.23227
21
141.52784
31
0.0
0
LINE
8
SCORE
10
311.23227
20
142.02784
30
0.0
11
311.23227
21
145.02784
31
0.0
0
LINE
8
SCORE
10
311.23227
20
145.52784
30
0.0
11
311.23227
21
148.52784
31
0.0
0
LINE
8
SCORE
10
311.23227
20
149.02784
30
0.0
11
311.23227
21
152.02784
31
0.0
0
LINE
8
SCORE
10
311.23227
20
152.52784
30
0.0
11
311.23227
21
155.52784
31
0.0
0
LINE
8
SCORE
10
311.23227
20
156.02784
30
0.0
11
311.23227
21
159.02784
31
0.0
0
LINE
8
SCORE
10
311.23227
20
159.52784
30
0.0
11
311.23227
21
162.52784
31
0.0
0
LINE
8
SCORE
10
311.23227
20
163.02784
30
0.0
11
311.23227
21
166.02784
31
0.0
0
LINE
8
SCORE
10
311.23227
20
166.52784
30
0.0
11
311.23227
21
169.52784
31
0.0
0
LINE
8
SCORE
10
311.23227
20
170.02784
30
0.0
11
311.23227
21
173.02784
31
0.0
0
LINE
8
SCORE
10
311.23227
20
173.52784
30
0.0
11
311.23227
21
176.52784
31
0.0
0
LINE
8
SCORE
10
311.23227
20
177.02784
30
0.0
11
311.23227
21
180.02784
31
0.0
0
LINE
8
SCORE
10
311.23227
20
180.52784
30
0.0
11
311.23227
21
183.52784
31
0.0
0
LINE
8
SCORE
10
311.23227
20
184.02784
30
0.0
11
311.23227
21
187.02784
31
0.0
0
LINE
8
SCORE
10
311.23227
20
187.52784
30
0.0
11
311.23227
21
190.52784
31
0.0
0
LINE
8
SCORE
10
311.23227
20
191.02784
30
0.0
11
311.23227
21
194.02784
31
0.0
0
LINE
8
SCORE
10
311.23227
20
194.52784
30
0.0
11
311.23227
21
197.52784
31
0.0
0
LINE
8
SCORE
10
311.23227
20
198.02784
30
0.0
11
311.23227
21
201.02784
31
0.0
0
LINE
8
SCORE
10
311.23227
20
201.52784
30
0.0
11
311.23227
21
204.52784
31
0.0
0
LINE
8
SCORE
10
311.23227
20
205.02784
30
0.0
11
311.23227
21
208.02784
31
0.0
0
LINE
8
SCORE
10
311.23227
20
208.52784
30
0.0
11
311.23227
21
211.52784
31
0.0
0
LINE
8
SCORE
10
311.23227
20
212.02784
30
0.0
11
311.23227
21
215.02784
31
0.0
0
LINE
8
SCORE
10
311.23227
20
215.52784
30
0.0
11
311.23227
21
218.52784
31
0.0
0
LINE
8
SCORE
10
311.23227
20
219.02784
30
0.0
11
311.23227
21
222.02784
31
0.0
0
LINE
8
SCORE
10
311.23227
20
222.52784
30
0.0
11
311.23227
21
225.52784
31
0.0
0
LINE
8
SCORE
10
311.23227
20
226.02784
30
0.0
11
311.23227
21
229.02784
31
0.0
0
LINE
8
SCORE
10
311.23227
20
229.52784
30
0.0
11
311.23227
21
232.52784
31
0.0
0
LINE
8
SCORE
10
311.23227
20
233.02784
30
0.0
11
311.23227
21
236.02784
31
0.0
0
LINE
8
SCORE
10
311.23227
20
236.52784
30
0.0
11
311.23227
21
239.52784
31
0.0
0
LINE
8
SCORE
10
311.23227
20
240.02784
30
0.0
11
311.23227
21
242.07098
31
0.0
0
LINE
8
SCORE
10
64.38898
20
203.51056
30
0.0
11
67.14800
21
204.68861
31
0.0
0
LINE
8
SCORE
10
67.60784
20
204.88496
30
0.0
11
70.36685
21
206.06302
31
0.0
0
LINE
8
SCORE
10
70.82669
20
206.25936
30
0.0
11
73.58571
21
207.43742
31
0.0
0
LINE
8
SCORE
10
74.04554
20
207.63376
30
0.0
11
76.80456
21
208.81182
31
0.0
0
LINE
8
SCORE
10
77.26440
20
209.00816
30
0.0
11
80.02341
21
210.18622
31
0.0
0
LINE
8
SCORE
10
80.48325
20
210.38257
30
0.0
11
83.24227
21
211.56062
31
0.0
0
LINE
8
SCORE
10
83.70210
20
211.75697
30
0.0
11
86.46112
21
212.93503
31
0.0
0
LINE
8
SCORE
10
86.92096
20
213.13137
30
0.0
11
89.67998
21
214.30943
31
0.0
0
LINE
8
SCORE
10
90.13981
20
214.50577
30
0.0
11
92.89883
21
215.68383
31
0.0
0
LINE
8
SCORE
10
93.35867
20
215.88017
30
0.0
11
96.11768
21
217.05823
31
0.0
0
LINE
8
SCORE
10
96.57752
20
217.25458
30
0.0
11
99.33654
21
218.43264
31
0.0
0
LINE
8
SCORE
10
99.79637
20
218.62898
30
0.0
11
102.55539
21
219.80704
31
0.0
0
LINE
8
SCORE
10
103.01523
20
220.00338
30
0.0
11
105.77424
21
221.18144
31
0.0
0
LINE
8
SCORE
10
106.23408
20
221.37778
30
0.0
11
108.99310
21
222.55584
31
0.0
0
LINE
8
SCORE
10
109.45293
20
222.75219
30
0.0
11
112.21195
21
223.93024
31
0.0
0
LINE
8
SCORE
10
112.67179
20
224.12659
30
0.0
11
115.43080
21
225.30465
31
0.0
0
LINE
8
SCORE
10
115.89064
20
225.50099
30
0.0
11
118.64966
21
226.67905
31
0.0
0
LINE
8
SCORE
10
119.10949
20
226.87539
30
0.0
11
121.86851
21
228.05345
31
0.0
0
LINE
8
SCORE
10
122.32835
20
228.24979
30
0.0
11
125.08737
21
229.42785
31
0.0
0
LINE
8
SCORE
10
125.54720
20
229.62420
30
0.0
11
128.30622
21
230.80225
31
0.0
0
LINE
8
SCORE
10
128.76606
20
230.99860
30
0.0
11
131.52507
21
232.17666
31
0.0
0
LINE
8
SCORE
10
131.98491
20
232.37300
30
0.0
11
134.74393
21
233.55106
31
0.0
0
LINE
8
SCORE
10
135.20376
20
233.74740
30
0.0
11
137.96278
21
234.92546
31
0.0
0
LINE
8
SCORE
10
138.42262
20
235.12180
30
0.0
11
141.18163
21
236.29986
31
0.0
0
LINE
8
SCORE
10
141.64147
20
236.49621
30
0.0
11
144.40049
21
237.67427
31
0.0
0
LINE
8
SCORE
10
144.86032
20
237.87061
30
0.0
11
147.61934
21
239.04867
31
0.0
0
LINE
8
SCORE
10
148.07918
20
239.24501
30
0.0
11
150.83820
21
240.42307
31
0.0
0
LINE
8
SCORE
10
151.29803
20
240.61941
30
0.0
11
153.02636
21
241.35738
31
0.0
0
LINE
8
SCORE2
10
150.84309
20
243.47841
30
0.0
11
241.67803
21
30.74272
31
0.0
0
LINE
8
SCORE2
10
311.23227
20
47.52784
30
0.0
11
311.23227
21
242.07098
31
0.0
0
LINE
8
SCORE2
10
64.38898
20
203.51056
30
0.0
11
153.02636
21
241.35738
31
0.0
0
ENDSEC
0
EOF
