0
SECTION
2
ENTITIES
0
POLYLINE
8
CUT
66
1
70
1
0
VERTEX
8
CUT
10
-0.07787
20
155.59215
30
0.0
0
VERTEX
8
CUT
10
97.05230
20
151.79678
30
0.0
0
VERTEX
8
CUT
10
96.88831
20
147.59998
30
0.0
0
VERTEX
8
CUT
10
101.51584
20
147.41916
30
0.0
0
VERTEX
8
CUT
10
105.87663
20
151.45197
30
0.0
0
VERTEX
8
CUT
10
110.01134
20
151.29040
30
0.0
0
VERTEX
8
CUT
10
114.04415
20
146.92962
30
0.0
0
VERTEX
8
CUT
10
129.04811
20
146.34334
30
0.0
0
VERTEX
8
CUT
10
133.40889
20
150.37614
30
0.0
0
VERTEX
8
CUT
10
137.54361
20
150.21458
30
0.0
0
VERTEX
8
CUT
10
141.57641
20
145.85379
30
0.0
0
VERTEX
8
CUT
10
152.32415
20
145.43382
30
0.0
0
VERTEX
8
CUT
10
156.68493
20
149.46663
30
0.0
0
VERTEX
8
CUT
10
160.81965
20
149.30507
30
0.0
0
VERTEX
8
CUT
10
164.85245
20
144.94428
30
0.0
0
VERTEX
8
CUT
10
170.25984
20
144.73299
30
0.0
0
VERTEX
8
CUT
10
174.62063
20
148.76579
30
0.0
0
VERTEX
8
CUT
10
178.75534
20
148.60423
30
0.0
0
VERTEX
8
CUT
10
182.78815
20
144.24344
30
0.0
0
VERTEX
8
CUT
10
198.23849
20
143.63972
30
0.0
0
VERTEX
8
CUT
10
202.59927
20
147.67253
30
0.0
0
VERTEX
8
CUT
10
206.73399
20
147.51096
30
0.0
0
VERTEX
8
CUT
10
210.76679
20
143.15017
30
0.0
0
VERTEX
8
CUT
10
220.35481
20
142.77552
30
0.0
0
VERTEX
8
CUT
10
224.71559
20
146.80833
30
0.0
0
VERTEX
8
CUT
10
228.85031
20
146.64676
30
0.0
0
VERTEX
8
CUT
10
232.88311
20
142.28598
30
0.0
0
VERTEX
8
CUT
10
242.47112
20
141.91133
30
0.0
0
VERTEX
8
CUT
10
246.83191
20
145.94413
30
0.0
0
VERTEX
8
CUT
10
250.96662
20
145.78257
30
0.0
0
VERTEX
8
CUT
10
254.99943
20
141.42178
30
0.0
0
VERTEX
8
CUT
10
259.22543
20
141.25665
30
0.0
0
VERTEX
8
CUT
10
313.15800
20
-0.09681
30
0.0
0
VERTEX
8
CUT
10
404.11648
20
34.60786
30
0.0
0
VERTEX
8
CUT
10
328.17907
20
233.63444
30
0.0
0
VERTEX
8
CUT
10
293.15099
20
264.24400
30
0.0
0
VERTEX
8
CUT
10
245.00004
20
390.44425
30
0.0
0
VERTEX
8
CUT
10
244.03550
20
390.11250
30
0.0
0
VERTEX
8
CUT
10
242.24350
20
389.49661
30
0.0
0
VERTEX
8
CUT
10
240.45131
20
388.88126
30
0.0
0
VERTEX
8
CUT
10
239.55515
20
388.57380
30
0.0
0
VERTEX
8
CUT
10
237.76268
20
387.95930
30
0.0
0
VERTEX
8
CUT
10
236.86637
20
387.65226
30
0.0
0
VERTEX
8
CUT
10
235.07362
20
387.03863
30
0.0
0
VERTEX
8
CUT
10
234.17716
20
386.73203
30
0.0
0
VERTEX
8
CUT
10
232.38411
20
386.11928
30
0.0
0
VERTEX
8
CUT
10
231.48751
20
385.81313
30
0.0
0
VERTEX
8
CUT
10
229.69415
20
385.20128
30
0.0
0
VERTEX
8
CUT
10
228.79740
20
384.89558
30
0.0
0
VERTEX
8
CUT
10
227.00373
20
384.28465
30
0.0
0
VERTEX
8
CUT
10
226.10682
20
383.97942
30
0.0
0
VERTEX
8
CUT
10
224.31153
20
383.36898
30
0.0
0
VERTEX
8
CUT
10
174.15106
20
364.23056
30
0.0
0
VERTEX
8
CUT
10
174.18125
20
364.15144
30
0.0
0
VERTEX
8
CUT
10
165.22029
20
360.46221
30
0.0
0
VERTEX
8
CUT
10
152.90972
20
356.48563
30
0.0
0
VERTEX
8
CUT
10
140.32639
20
353.48178
30
0.0
0
VERTEX
8
CUT
10
127.54704
20
351.46898
30
0.0
0
VERTEX
8
CUT
10
114.64959
20
350.45950
30
0.0
0
VERTEX
8
CUT
10
102.61672
20
350.45950
30
0.0
0
VERTEX
8
CUT
10
102.61603
20
350.42415
30
0.0
0
VERTEX
8
CUT
10
29.47875
20
353.28199
30
0.0
0
VERTEX
8
CUT
10
25.29860
20
246.30468
30
0.0
0
VERTEX
8
CUT
10
2.02468
20
209.40019
30
0.0
0
VERTEX
8
CUT
10
-0.07787
20
155.59215
30
0.0
0
SEQEND
0
LINE
8
SCORE
10
259.76112
20
140.06304
30
0.0
11
258.69168
21
142.86596
31
0.0
0
LINE
8
SCORE
10
257.62225
20
145.66887
30
0.0
11
256.55281
21
148.47178
31
0.0
0
LINE
8
SCORE
10
255.48338
20
151.27469
30
0.0
11
254.41395
21
154.07760
31
0.0
0
LINE
8
SCORE
10
253.34451
20
156.88051
30
0.0
11
252.27508
21
159.68342
31
0.0
0
LINE
8
SCORE
10
251.20564
20
162.48633
30
0.0
11
250.13621
21
165.28924
31
0.0
0
LINE
8
SCORE
10
249.06678
20
168.09216
30
0.0
11
247.99734
21
170.89507
31
0.0
0
LINE
8
SCORE
10
246.92791
20
173.69798
30
0.0
11
245.85847
21
176.50089
31
0.0
0
LINE
8
SCORE
10
244.78904
20
179.30380
30
0.0
11
243.71961
21
182.10671
31
0.0
0
LINE
8
SCORE
10
242.65017
20
184.90962
30
0.0
11
241.58074
21
187.71253
31
0.0
0
LINE
8
SCORE
10
240.51130
20
190.51544
30
0.0
11
239.44187
21
193.31836
31
0.0
0
LINE
8
SCORE
10
238.37244
20
196.12127
30
0.0
11
237.30300
21
198.92418
31
0.0
0
LINE
8
SCORE
10
236.23357
20
201.72709
30
0.0
11
235.16413
21
204.53000
31
0.0
0
LINE
8
SCORE
10
234.09470
20
207.33291
30
0.0
11
233.02527
21
210.13582
31
0.0
0
LINE
8
SCORE
10
231.95583
20
212.93873
30
0.0
11
230.88640
21
215.74165
31
0.0
0
LINE
8
SCORE
10
229.81696
20
218.54456
30
0.0
11
228.74753
21
221.34747
31
0.0
0
LINE
8
SCORE
10
227.67810
20
224.15038
30
0.0
11
226.60866
21
226.95329
31
0.0
0
LINE
8
SCORE
10
225.53923
20
229.75620
30
0.0
11
224.46979
21
232.55911
31
0.0
0
LINE
8
SCORE
10
223.40036
20
235.36202
30
0.0
11
222.33093
21
238.16493
31
0.0
0
LINE
8
SCORE
10
221.26149
20
240.96785
30
0.0
11
220.19206
21
243.77076
31
0.0
0
LINE
8
SCORE
10
219.12262
20
246.57367
30
0.0
11
218.05319
21
249.37658
31
0.0
0
LINE
8
SCORE
10
216.98375
20
252.17949
30
0.0
11
215.91432
21
254.98240
31
0.0
0
LINE
8
SCORE
10
214.84489
20
257.78531
30
0.0
11
213.77545
21
260.58822
31
0.0
0
LINE
8
SCORE
10
212.70602
20
263.39113
30
0.0
11
211.63658
21
266.19405
31
0.0
0
LINE
8
SCORE
10
210.56715
20
268.99696
30
0.0
11
209.49772
21
271.79987
31
0.0
0
LINE
8
SCORE
10
208.42828
20
274.60278
30
0.0
11
207.35885
21
277.40569
31
0.0
0
LINE
8
SCORE
10
206.28941
20
280.20860
30
0.0
11
205.21998
21
283.01151
31
0.0
0
LINE
8
SCORE
10
204.15055
20
285.81442
30
0.0
11
203.08111
21
288.61733
31
0.0
0
LINE
8
SCORE
10
202.01168
20
291.42025
30
0.0
11
200.94224
21
294.22316
31
0.0
0
LINE
8
SCORE
10
199.87281
20
297.02607
30
0.0
11
198.80338
21
299.82898
31
0.0
0
LINE
8
SCORE
10
197.73394
20
302.63189
30
0.0
11
196.66451
21
305.43480
31
0.0
0
LINE
8
SCORE
10
195.59507
20
308.23771
30
0.0
11
194.52564
21
311.04062
31
0.0
0
LINE
8
SCORE
10
193.45621
20
313.84353
30
0.0
11
192.38677
21
316.64645
31
0.0
0
LINE
8
SCORE
10
191.31734
20
319.44936
30
0.0
11
190.24790
21
322.25227
31
0.0
0
LINE
8
SCORE
10
189.17847
20
325.05518
30
0.0
11
188.10904
21
327.85809
31
0.0
0
LINE
8
SCORE
10
187.03960
20
330.66100
30
0.0
11
185.97017
21
333.46391
31
0.0
0
LINE
8
SCORE
10
184.90073
20
336.26682
30
0.0
11
183.83130
21
339.06973
31
0.0
0
LINE
8
SCORE
10
182.76187
20
341.87265
30
0.0
11
181.69243
21
344.67556
31
0.0
0
LINE
8
SCORE
10
180.62300
20
347.47847
30
0.0
11
179.55356
21
350.28138
31
0.0
0
LINE
8
SCORE
10
178.48413
20
353.08429
30
0.0
11
177.41470
21
355.88720
31
0.0
0
LINE
8
SCORE
10
176.34526
20
358.69011
30
0.0
11
175.27583
21
361.49302
31
0.0
0
LINE
8
SCORE
10
347.23752
20
183.47318
30
0.0
11
344.43461
21
182.40375
31
0.0
0
LINE
8
SCORE
10
341.63170
20
181.33431
30
0.0
11
338.82879
21
180.26488
31
0.0
0
LINE
8
SCORE
10
336.02588
20
179.19545
30
0.0
11
333.22297
21
178.12601
31
0.0
0
LINE
8
SCORE
10
330.42006
20
177.05658
30
0.0
11
327.61715
21
175.98714
31
0.0
0
LINE
8
SCORE
10
324.81423
20
174.91771
30
0.0
11
322.01132
21
173.84828
31
0.0
0
LINE
8
SCORE
10
319.20841
20
172.77884
30
0.0
11
316.40550
21
171.70941
31
0.0
0
LINE
8
SCORE
10
313.60259
20
170.63997
30
0.0
11
310.79968
21
169.57054
31
0.0
0
LINE
8
SCORE
10
307.99677
20
168.50111
30
0.0
11
305.19386
21
167.43167
31
0.0
0
LINE
8
SCORE
10
302.39095
20
166.36224
30
0.0
11
299.58803
21
165.29280
31
0.0
0
LINE
8
SCORE
10
296.78512
20
164.22337
30
0.0
11
293.98221
21
163.15394
31
0.0
0
LINE
8
SCORE
10
291.17930
20
162.08450
30
0.0
11
288.37639
21
161.01507
31
0.0
0
LINE
8
SCORE
10
285.57348
20
159.94563
30
0.0
11
282.77057
21
158.87620
31
0.0
0
LINE
8
SCORE
10
279.96766
20
157.80676
30
0.0
11
277.16475
21
156.73733
31
0.0
0
LINE
8
SCORE
10
274.36183
20
155.66790
30
0.0
11
271.55892
21
154.59846
31
0.0
0
LINE
8
SCORE
10
268.75601
20
153.52903
30
0.0
11
265.95310
21
152.45959
31
0.0
0
LINE
8
SCORE
10
263.15019
20
151.39016
30
0.0
11
260.34728
21
150.32073
31
0.0
0
LINE
8
SCORE
10
257.54437
20
149.25129
30
0.0
11
255.13453
21
148.33183
31
0.0
0
LINE
8
SCORE
10
104.88234
20
350.26053
30
0.0
11
104.76520
21
347.26282
31
0.0
0
LINE
8
SCORE
10
104.64807
20
344.26511
30
0.0
11
104.53093
21
341.26740
31
0.0
0
LINE
8
SCORE
10
104.41379
20
338.26968
30
0.0
11
104.29666
21
335.27197
31
0.0
0
LINE
8
SCORE
10
104.17952
20
332.27426
30
0.0
11
104.06239
21
329.27655
31
0.0
0
LINE
8
SCORE
10
103.94525
20
326.27883
30
0.0
11
103.82811
21
323.28112
31
0.0
0
LINE
8
SCORE
10
103.71098
20
320.28341
30
0.0
11
103.59384
21
317.28570
31
0.0
0
LINE
8
SCORE
10
103.47671
20
314.28799
30
0.0
11
103.35957
21
311.29027
31
0.0
0
LINE
8
SCORE
10
103.24244
20
308.29256
30
0.0
11
103.12530
21
305.29485
31
0.0
0
LINE
8
SCORE
10
103.00816
20
302.29714
30
0.0
11
102.89103
21
299.29942
31
0.0
0
LINE
8
SCORE
10
102.77389
20
296.30171
30
0.0
11
102.65676
21
293.30400
31
0.0
0
LINE
8
SCORE
10
102.53962
20
290.30629
30
0.0
11
102.42249
21
287.30857
31
0.0
0
LINE
8
SCORE
10
102.30535
20
284.31086
30
0.0
11
102.18821
21
281.31315
31
0.0
0
LINE
8
SCORE
10
102.07108
20
278.31544
30
0.0
11
101.95394
21
275.31772
31
0.0
0
LINE
8
SCORE
10
101.83681
20
272.32001
30
0.0
11
101.71967
21
269.32230
31
0.0
0
LINE
8
SCORE
10
101.60253
20
266.32459
30
0.0
11
101.48540
21
263.32688
31
0.0
0
LINE
8
SCORE
10
101.36826
20
260.32916
30
0.0
11
101.25113
21
257.33145
31
0.0
0
LINE
8
SCORE
10
101.13399
20
254.33374
30
0.0
11
101.01686
21
251.33603
31
0.0
0
LINE
8
SCORE
10
100.89972
20
248.33831
30
0.0
11
100.78258
21
245.34060
31
0.0
0
LINE
8
SCORE
10
100.66545
20
242.34289
30
0.0
11
100.54831
21
239.34518
31
0.0
0
LINE
8
SCORE
10
100.43118
20
236.34746
30
0.0
11
100.31404
21
233.34975
31
0.0
0
LINE
8
SCORE
10
100.19691
20
230.35204
30
0.0
11
100.07977
21
227.35433
31
0.0
0
LINE
8
SCORE
10
99.96263
20
224.35662
30
0.0
11
99.84550
21
221.35890
31
0.0
0
LINE
8
SCORE
10
99.72836
20
218.36119
30
0.0
11
99.61123
21
215.36348
31
0.0
0
LINE
8
SCORE
10
99.49409
20
212.36577
30
0.0
11
99.37695
21
209.36805
31
0.0
0
LINE
8
SCORE
10
99.25982
20
206.37034
30
0.0
11
99.14268
21
203.37263
31
0.0
0
LINE
8
SCORE
10
99.02555
20
200.37492
30
0.0
11
98.90841
21
197.37720
31
0.0
0
LINE
8
SCORE
10
98.79128
20
194.37949
30
0.0
11
98.67414
21
191.38178
31
0.0
0
LINE
8
SCORE
10
98.55700
20
188.38407
30
0.0
11
98.43987
21
185.38636
31
0.0
0
LINE
8
SCORE
10
98.32273
20
182.38864
30
0.0
11
98.20560
21
179.39093
31
0.0
0
LINE
8
SCORE
10
98.08846
20
176.39322
30
0.0
11
97.97133
21
173.39551
31
0.0
0
LINE
8
SCORE
10
97.85419
20
170.39779
30
0.0
11
97.73705
21
167.40008
31
0.0
0
LINE
8
SCORE
10
97.61992
20
164.40237
30
0.0
11
97.50278
21
161.40466
31
0.0
0
LINE
8
SCORE
10
97.38565
20
158.40694
30
0.0
11
97.26851
21
155.40923
31
0.0
0
LINE
8
SCORE
10
97.15137
20
152.41152
30
0.0
11
97.03424
21
149.41381
31
0.0
0
LINE
8
SCORE2
10
259.76112
20
140.06304
30
0.0
11
174.24787
21
364.18722
31
0.0
0
LINE
8
SCORE2
10
347.23752
20
183.47318
30
0.0
11
255.13453
21
148.33183
31
0.0
0
LINE
8
SCORE2
10
104.88234
20
350.26053
30
0.0
11
96.96618
21
147.67200
31
0.0
0
ENDSEC
0
EOF
