0
SECTION
2
ENTITIES
0
POLYLINE
8
CUT
66
1
70
1
0
VERTEX
8
CUT
10
0.00000
20
12.37422
30
0.0
0
VERTEX
8
CUT
10
0.66263
20
7.42357
30
0.0
0
VERTEX
8
CUT
10
1.00341
20
4.87745
30
0.0
0
VERTEX
8
CUT
10
2.33739
20
3.13289
30
0.0
0
VERTEX
8
CUT
10
2.75670
20
-0.00000
30
0.0
0
VERTEX
8
CUT
10
6.52629
20
0.50453
30
0.0
0
VERTEX
8
CUT
10
6.52641
20
0.50364
30
0.0
0
VERTEX
8
CUT
10
7.19957
20
0.58882
30
0.0
0
VERTEX
8
CUT
10
8.00240
20
0.62253
30
0.0
0
VERTEX
8
CUT
10
8.80522
20
0.58882
30
0.0
0
VERTEX
8
CUT
10
9.47838
20
0.50364
30
0.0
0
VERTEX
8
CUT
10
9.47850
20
0.50453
30
0.0
0
VERTEX
8
CUT
10
13.24809
20
0.00000
30
0.0
0
VERTEX
8
CUT
10
13.66740
20
3.13289
30
0.0
0
VERTEX
8
CUT
10
15.00138
20
4.87745
30
0.0
0
VERTEX
8
CUT
10
15.36111
20
7.56515
30
0.0
0
VERTEX
8
CUT
10
10.51040
20
8.21438
30
0.0
0
VERTEX
8
CUT
10
10.50818
20
8.19780
30
0.0
0
VERTEX
8
CUT
10
9.97506
20
8.19780
30
0.0
0
VERTEX
8
CUT
10
9.76506
20
8.40780
30
0.0
0
VERTEX
8
CUT
10
9.01740
20
8.40780
30
0.0
0
VERTEX
8
CUT
10
8.80740
20
8.19780
30
0.0
0
VERTEX
8
CUT
10
8.59740
20
8.19780
30
0.0
0
VERTEX
8
CUT
10
8.38740
20
8.40780
30
0.0
0
VERTEX
8
CUT
10
7.61740
20
8.40780
30
0.0
0
VERTEX
8
CUT
10
7.40740
20
8.19780
30
0.0
0
VERTEX
8
CUT
10
7.19740
20
8.19780
30
0.0
0
VERTEX
8
CUT
10
6.98740
20
8.40780
30
0.0
0
VERTEX
8
CUT
10
6.23973
20
8.40780
30
0.0
0
VERTEX
8
CUT
10
6.02973
20
8.19780
30
0.0
0
VERTEX
8
CUT
10
5.49661
20
8.19780
30
0.0
0
VERTEX
8
CUT
10
5.51334
20
8.07280
30
0.0
0
VERTEX
8
CUT
10
5.47989
20
8.06832
30
0.0
0
VERTEX
8
CUT
10
4.81725
20
13.01901
30
0.0
0
VERTEX
8
CUT
10
3.55227
20
12.84969
30
0.0
0
VERTEX
8
CUT
10
3.56322
20
12.97728
30
0.0
0
VERTEX
8
CUT
10
3.03642
20
12.90676
30
0.0
0
VERTEX
8
CUT
10
3.08053
20
12.78655
30
0.0
0
VERTEX
8
CUT
10
1.89407
20
12.62774
30
0.0
0
VERTEX
8
CUT
10
1.90502
20
12.75532
30
0.0
0
VERTEX
8
CUT
10
1.37822
20
12.68481
30
0.0
0
VERTEX
8
CUT
10
1.42233
20
12.56460
30
0.0
0
VERTEX
8
CUT
10
0.00000
20
12.37422
30
0.0
0
SEQEND
0
POLYLINE
8
CUT
66
1
70
1
0
VERTEX
8
CUT
10
11.77299
20
7.78919
30
0.0
0
VERTEX
8
CUT
10
12.24906
20
7.72547
30
0.0
0
VERTEX
8
CUT
10
12.26668
20
7.85717
30
0.0
0
VERTEX
8
CUT
10
11.79061
20
7.92089
30
0.0
0
VERTEX
8
CUT
10
11.77299
20
7.78919
30
0.0
0
SEQEND
0
POLYLINE
8
CUT
66
1
70
1
0
VERTEX
8
CUT
10
13.43119
20
7.56725
30
0.0
0
VERTEX
8
CUT
10
13.90726
20
7.50353
30
0.0
0
VERTEX
8
CUT
10
13.92488
20
7.63523
30
0.0
0
VERTEX
8
CUT
10
13.44881
20
7.69895
30
0.0
0
VERTEX
8
CUT
10
13.43119
20
7.56725
30
0.0
0
SEQEND
0
LINE
8
SCORE
10
5.49661
20
8.19780
30
0.0
11
5.52272
21
8.00269
31
0.0
0
LINE
8
SCORE
10
5.54884
20
7.80758
30
0.0
11
5.57495
21
7.61246
31
0.0
0
LINE
8
SCORE
10
5.60106
20
7.41735
30
0.0
11
5.62718
21
7.22224
31
0.0
0
LINE
8
SCORE
10
5.65329
20
7.02713
30
0.0
11
5.67941
21
6.83202
31
0.0
0
LINE
8
SCORE
10
5.70552
20
6.63691
30
0.0
11
5.73163
21
6.44180
31
0.0
0
LINE
8
SCORE
10
5.75775
20
6.24669
30
0.0
11
5.78386
21
6.05158
31
0.0
0
LINE
8
SCORE
10
5.80998
20
5.85647
30
0.0
11
5.83609
21
5.66136
31
0.0
0
LINE
8
SCORE
10
5.86220
20
5.46625
30
0.0
11
5.88832
21
5.27114
31
0.0
0
LINE
8
SCORE
10
5.91443
20
5.07603
30
0.0
11
5.94055
21
4.88092
31
0.0
0
LINE
8
SCORE
10
5.96666
20
4.68581
30
0.0
11
5.99277
21
4.49070
31
0.0
0
LINE
8
SCORE
10
6.01889
20
4.29559
30
0.0
11
6.04500
21
4.10047
31
0.0
0
LINE
8
SCORE
10
6.07112
20
3.90536
30
0.0
11
6.09723
21
3.71025
31
0.0
0
LINE
8
SCORE
10
6.12334
20
3.51514
30
0.0
11
6.14946
21
3.32003
31
0.0
0
LINE
8
SCORE
10
6.17557
20
3.12492
30
0.0
11
6.20169
21
2.92981
31
0.0
0
LINE
8
SCORE
10
6.22780
20
2.73470
30
0.0
11
6.25391
21
2.53959
31
0.0
0
LINE
8
SCORE
10
6.28003
20
2.34448
30
0.0
11
6.30614
21
2.14937
31
0.0
0
LINE
8
SCORE
10
6.33226
20
1.95426
30
0.0
11
6.35837
21
1.75915
31
0.0
0
LINE
8
SCORE
10
6.38448
20
1.56404
30
0.0
11
6.41060
21
1.36893
31
0.0
0
LINE
8
SCORE
10
6.43671
20
1.17382
30
0.0
11
6.46283
21
0.97871
31
0.0
0
LINE
8
SCORE
10
6.48894
20
0.78359
30
0.0
11
6.51505
21
0.58848
31
0.0
0
LINE
8
SCORE
10
10.50818
20
8.19780
30
0.0
11
10.48207
21
8.00269
31
0.0
0
LINE
8
SCORE
10
10.45595
20
7.80758
30
0.0
11
10.42984
21
7.61246
31
0.0
0
LINE
8
SCORE
10
10.40373
20
7.41735
30
0.0
11
10.37761
21
7.22224
31
0.0
0
LINE
8
SCORE
10
10.35150
20
7.02713
30
0.0
11
10.32538
21
6.83202
31
0.0
0
LINE
8
SCORE
10
10.29927
20
6.63691
30
0.0
11
10.27316
21
6.44180
31
0.0
0
LINE
8
SCORE
10
10.24704
20
6.24669
30
0.0
11
10.22093
21
6.05158
31
0.0
0
LINE
8
SCORE
10
10.19481
20
5.85647
30
0.0
11
10.16870
21
5.66136
31
0.0
0
LINE
8
SCORE
10
10.14259
20
5.46625
30
0.0
11
10.11647
21
5.27114
31
0.0
0
LINE
8
SCORE
10
10.09036
20
5.07603
30
0.0
11
10.06424
21
4.88092
31
0.0
0
LINE
8
SCORE
10
10.03813
20
4.68581
30
0.0
11
10.01202
21
4.49070
31
0.0
0
LINE
8
SCORE
10
9.98590
20
4.29559
30
0.0
11
9.95979
21
4.10047
31
0.0
0
LINE
8
SCORE
10
9.93367
20
3.90536
30
0.0
11
9.90756
21
3.71025
31
0.0
0
LINE
8
SCORE
10
9.88145
20
3.51514
30
0.0
11
9.85533
21
3.32003
31
0.0
0
LINE
8
SCORE
10
9.82922
20
3.12492
30
0.0
11
9.80310
21
2.92981
31
0.0
0
LINE
8
SCORE
10
9.77699
20
2.73470
30
0.0
11
9.75088
21
2.53959
31
0.0
0
LINE
8
SCORE
10
9.72476
20
2.34448
30
0.0
11
9.69865
21
2.14937
31
0.0
0
LINE
8
SCORE
10
9.67253
20
1.95426
30
0.0
11
9.64642
21
1.75915
31
0.0
0
LINE
8
SCORE
10
9.62031
20
1.56404
30
0.0
11
9.59419
21
1.36893
31
0.0
0
LINE
8
SCORE
10
9.56808
20
1.17382
30
0.0
11
9.54196
21
0.97871
31
0.0
0
LINE
8
SCORE
10
9.51585
20
0.78359
30
0.0
11
9.48974
21
0.58848
31
0.0
0
LINE
8
SCORE
10
5.63723
20
8.08938
30
0.0
11
5.44212
21
8.06326
31
0.0
0
LINE
8
SCORE
10
5.24701
20
8.03715
30
0.0
11
5.05190
21
8.01104
31
0.0
0
LINE
8
SCORE
10
4.85679
20
7.98492
30
0.0
11
4.66168
21
7.95881
31
0.0
0
LINE
8
SCORE
10
4.46657
20
7.93269
30
0.0
11
4.27146
21
7.90658
31
0.0
0
LINE
8
SCORE
10
4.07635
20
7.88047
30
0.0
11
3.88124
21
7.85435
31
0.0
0
LINE
8
SCORE
10
3.68613
20
7.82824
30
0.0
11
3.49102
21
7.80212
31
0.0
0
LINE
8
SCORE
10
3.29591
20
7.77601
30
0.0
11
3.10080
21
7.74990
31
0.0
0
LINE
8
SCORE
10
2.90569
20
7.72378
30
0.0
11
2.71058
21
7.69767
31
0.0
0
LINE
8
SCORE
10
2.51547
20
7.67155
30
0.0
11
2.32035
21
7.64544
31
0.0
0
LINE
8
SCORE
10
2.12524
20
7.61933
30
0.0
11
1.93013
21
7.59321
31
0.0
0
LINE
8
SCORE
10
1.73502
20
7.56710
30
0.0
11
1.53991
21
7.54098
31
0.0
0
LINE
8
SCORE
10
1.34480
20
7.51487
30
0.0
11
1.14969
21
7.48875
31
0.0
0
LINE
8
SCORE
10
0.95458
20
7.46264
30
0.0
11
0.75947
21
7.43653
31
0.0
0
LINE
8
SCORE2
10
5.49661
20
8.19780
30
0.0
11
6.52629
21
0.50453
31
0.0
0
LINE
8
SCORE2
10
10.50818
20
8.19780
30
0.0
11
9.47850
21
0.50453
31
0.0
0
LINE
8
SCORE2
10
5.63723
20
8.08938
30
0.0
11
0.66263
21
7.42357
31
0.0
0
ENDSEC
0
EOF
