0
SECTION
2
ENTITIES
0
POLYLINE
8
CUT
66
1
70
1
0
VERTEX
8
CUT
10
0.00000
20
12.37422
30
0.0
0
VERTEX
8
CUT
10
0.66263
20
7.42357
30
0.0
0
VERTEX
8
CUT
10
1.00341
20
4.87745
30
0.0
0
VERTEX
8
CUT
10
2.33739
20
3.13289
30
0.0
0
VERTEX
8
CUT
10
2.75670
20
-0.00000
30
0.0
0
VERTEX
8
CUT
10
6.52629
20
0.50453
30
0.0
0
VERTEX
8
CUT
10
6.52641
20
0.50364
30
0.0
0
VERTEX
8
CUT
10
7.19957
20
0.58882
30
0.0
0
VERTEX
8
CUT
10
8.00240
20
0.62253
30
0.0
0
VERTEX
8
CUT
10
8.80522
20
0.58882
30
0.0
0
VERTEX
8
CUT
10
9.47838
20
0.50364
30
0.0
0
VERTEX
8
CUT
10
9.47850
20
0.50453
30
0.0
0
VERTEX
8
CUT
10
13.24809
20
0.00000
30
0.0
0
VERTEX
8
CUT
10
13.66740
20
3.13289
30
0.0
0
VERTEX
8
CUT
10
15.00138
20
4.87745
30
0.0
0
VERTEX
8
CUT
10
15.36111
20
7.56515
30
0.0
0
VERTEX
8
CUT
10
10.51040
20
8.21438
30
0.0
0
VERTEX
8
CUT
10
10.50818
20
8.19780
30
0.0
0
VERTEX
8
CUT
10
9.97506
20
8.19780
30
0.0
0
VERTEX
8
CUT
10
9.76506
20
8.40780
30
0.0
0
VERTEX
8
CUT
10
9.01740
20
8.40780
30
0.0
0
VERTEX
8
CUT
10
8.80740
20
8.19780
30
0.0
0
VERTEX
8
CUT
10
8.59740
20
8.19780
30
0.0
0
VERTEX
8
CUT
10
8.38740
20
8.40780
30
0.0
0
VERTEX
8
CUT
10
7.61740
20
8.40780
30
0.0
0
VERTEX
8
CUT
10
7.40740
20
8.19780
30
0.0
0
VERTEX
8
CUT
10
7.19740
20
8.19780
30
0.0
0
VERTEX
8
CUT
10
6.98740
20
8.40780
30
0.0
0
VERTEX
8
CUT
10
6.23973
20
8.40780
30
0.0
0
VERTEX
8
CUT
10
6.02973
20
8.19780
30
0.0
0
VERTEX
8
CUT
10
5.49661
20
8.19780
30
0.0
0
VERTEX
8
CUT
10
5.51334
20
8.07280
30
0.0
0
VERTEX
8
CUT
10
5.47989
20
8.06832
30
0.0
0
VERTEX
8
CUT
10
4.81725
20
13.01901
30
0.0
0
VERTEX
8
CUT
10
3.55192
20
12.84965
30
0.0
0
VERTEX
8
CUT
10
3.55736
20
12.97649
30
0.0
0
VERTEX
8
CUT
10
3.04227
20
12.90755
30
0.0
0
VERTEX
8
CUT
10
3.08088
20
12.78660
30
0.0
0
VERTEX
8
CUT
10
1.89372
20
12.62770
30
0.0
0
VERTEX
8
CUT
10
1.89916
20
12.75454
30
0.0
0
VERTEX
8
CUT
10
1.38407
20
12.68560
30
0.0
0
VERTEX
8
CUT
10
1.42268
20
12.56465
30
0.0
0
VERTEX
8
CUT
10
0.00000
20
12.37422
30
0.0
0
SEQEND
0
POLYLINE
8
CUT
66
1
70
1
0
VERTEX
8
CUT
10
11.77299
20
7.78919
30
0.0
0
VERTEX
8
CUT
10
12.24906
20
7.72547
30
0.0
0
VERTEX
8
CUT
10
12.26668
20
7.85717
30
0.0
0
VERTEX
8
CUT
10
11.79061
20
7.92089
30
0.0
0
VERTEX
8
CUT
10
11.77299
20
7.78919
30
0.0
0
SEQEND
0
POLYLINE
8
CUT
66
1
70
1
0
VERTEX
8
CUT
10
13.43119
20
7.56725
30
0.0
0
VERTEX
8
CUT
10
13.90726
20
7.50353
30
0.0
0
VERTEX
8
CUT
10
13.92488
20
7.63523
30
0.0
0
VERTEX
8
CUT
10
13.44881
20
7.69895
30
0.0
0
VERTEX
8
CUT
10
13.43119
20
7.56725
30
0.0
0
SEQEND
0
LINE
8
SCORE
10
5.49661
20
8.19780
30
0.0
11
5.51228
21
8.08073
31
0.0
0
LINE
8
SCORE
10
5.52794
20
7.96366
30
0.0
11
5.54361
21
7.84660
31
0.0
0
LINE
8
SCORE
10
5.55928
20
7.72953
30
0.0
11
5.57495
21
7.61246
31
0.0
0
LINE
8
SCORE
10
5.59062
20
7.49540
30
0.0
11
5.60629
21
7.37833
31
0.0
0
LINE
8
SCORE
10
5.62196
20
7.26127
30
0.0
11
5.63762
21
7.14420
31
0.0
0
LINE
8
SCORE
10
5.65329
20
7.02713
30
0.0
11
5.66896
21
6.91007
31
0.0
0
LINE
8
SCORE
10
5.68463
20
6.79300
30
0.0
11
5.70030
21
6.67593
31
0.0
0
LINE
8
SCORE
10
5.71597
20
6.55887
30
0.0
11
5.73163
21
6.44180
31
0.0
0
LINE
8
SCORE
10
5.74730
20
6.32473
30
0.0
11
5.76297
21
6.20767
31
0.0
0
LINE
8
SCORE
10
5.77864
20
6.09060
30
0.0
11
5.79431
21
5.97354
31
0.0
0
LINE
8
SCORE
10
5.80998
20
5.85647
30
0.0
11
5.82564
21
5.73940
31
0.0
0
LINE
8
SCORE
10
5.84131
20
5.62234
30
0.0
11
5.85698
21
5.50527
31
0.0
0
LINE
8
SCORE
10
5.87265
20
5.38820
30
0.0
11
5.88832
21
5.27114
31
0.0
0
LINE
8
SCORE
10
5.90399
20
5.15407
30
0.0
11
5.91965
21
5.03701
31
0.0
0
LINE
8
SCORE
10
5.93532
20
4.91994
30
0.0
11
5.95099
21
4.80287
31
0.0
0
LINE
8
SCORE
10
5.96666
20
4.68581
30
0.0
11
5.98233
21
4.56874
31
0.0
0
LINE
8
SCORE
10
5.99800
20
4.45167
30
0.0
11
6.01367
21
4.33461
31
0.0
0
LINE
8
SCORE
10
6.02933
20
4.21754
30
0.0
11
6.04500
21
4.10047
31
0.0
0
LINE
8
SCORE
10
6.06067
20
3.98341
30
0.0
11
6.07634
21
3.86634
31
0.0
0
LINE
8
SCORE
10
6.09201
20
3.74928
30
0.0
11
6.10768
21
3.63221
31
0.0
0
LINE
8
SCORE
10
6.12334
20
3.51514
30
0.0
11
6.13901
21
3.39808
31
0.0
0
LINE
8
SCORE
10
6.15468
20
3.28101
30
0.0
11
6.17035
21
3.16394
31
0.0
0
LINE
8
SCORE
10
6.18602
20
3.04688
30
0.0
11
6.20169
21
2.92981
31
0.0
0
LINE
8
SCORE
10
6.21735
20
2.81274
30
0.0
11
6.23302
21
2.69568
31
0.0
0
LINE
8
SCORE
10
6.24869
20
2.57861
30
0.0
11
6.26436
21
2.46155
31
0.0
0
LINE
8
SCORE
10
6.28003
20
2.34448
30
0.0
11
6.29570
21
2.22741
31
0.0
0
LINE
8
SCORE
10
6.31136
20
2.11035
30
0.0
11
6.32703
21
1.99328
31
0.0
0
LINE
8
SCORE
10
6.34270
20
1.87621
30
0.0
11
6.35837
21
1.75915
31
0.0
0
LINE
8
SCORE
10
6.37404
20
1.64208
30
0.0
11
6.38971
21
1.52501
31
0.0
0
LINE
8
SCORE
10
6.40538
20
1.40795
30
0.0
11
6.42104
21
1.29088
31
0.0
0
LINE
8
SCORE
10
6.43671
20
1.17382
30
0.0
11
6.45238
21
1.05675
31
0.0
0
LINE
8
SCORE
10
6.46805
20
0.93968
30
0.0
11
6.48372
21
0.82262
31
0.0
0
LINE
8
SCORE
10
6.49939
20
0.70555
30
0.0
11
6.51505
21
0.58848
31
0.0
0
LINE
8
SCORE
10
10.50818
20
8.19780
30
0.0
11
10.49251
21
8.08073
31
0.0
0
LINE
8
SCORE
10
10.47685
20
7.96366
30
0.0
11
10.46118
21
7.84660
31
0.0
0
LINE
8
SCORE
10
10.44551
20
7.72953
30
0.0
11
10.42984
21
7.61246
31
0.0
0
LINE
8
SCORE
10
10.41417
20
7.49540
30
0.0
11
10.39850
21
7.37833
31
0.0
0
LINE
8
SCORE
10
10.38283
20
7.26127
30
0.0
11
10.36717
21
7.14420
31
0.0
0
LINE
8
SCORE
10
10.35150
20
7.02713
30
0.0
11
10.33583
21
6.91007
31
0.0
0
LINE
8
SCORE
10
10.32016
20
6.79300
30
0.0
11
10.30449
21
6.67593
31
0.0
0
LINE
8
SCORE
10
10.28882
20
6.55887
30
0.0
11
10.27316
21
6.44180
31
0.0
0
LINE
8
SCORE
10
10.25749
20
6.32473
30
0.0
11
10.24182
21
6.20767
31
0.0
0
LINE
8
SCORE
10
10.22615
20
6.09060
30
0.0
11
10.21048
21
5.97354
31
0.0
0
LINE
8
SCORE
10
10.19481
20
5.85647
30
0.0
11
10.17915
21
5.73940
31
0.0
0
LINE
8
SCORE
10
10.16348
20
5.62234
30
0.0
11
10.14781
21
5.50527
31
0.0
0
LINE
8
SCORE
10
10.13214
20
5.38820
30
0.0
11
10.11647
21
5.27114
31
0.0
0
LINE
8
SCORE
10
10.10080
20
5.15407
30
0.0
11
10.08514
21
5.03701
31
0.0
0
LINE
8
SCORE
10
10.06947
20
4.91994
30
0.0
11
10.05380
21
4.80287
31
0.0
0
LINE
8
SCORE
10
10.03813
20
4.68581
30
0.0
11
10.02246
21
4.56874
31
0.0
0
LINE
8
SCORE
10
10.00679
20
4.45167
30
0.0
11
9.99112
21
4.33461
31
0.0
0
LINE
8
SCORE
10
9.97546
20
4.21754
30
0.0
11
9.95979
21
4.10047
31
0.0
0
LINE
8
SCORE
10
9.94412
20
3.98341
30
0.0
11
9.92845
21
3.86634
31
0.0
0
LINE
8
SCORE
10
9.91278
20
3.74928
30
0.0
11
9.89711
21
3.63221
31
0.0
0
LINE
8
SCORE
10
9.88145
20
3.51514
30
0.0
11
9.86578
21
3.39808
31
0.0
0
LINE
8
SCORE
10
9.85011
20
3.28101
30
0.0
11
9.83444
21
3.16394
31
0.0
0
LINE
8
SCORE
10
9.81877
20
3.04688
30
0.0
11
9.80310
21
2.92981
31
0.0
0
LINE
8
SCORE
10
9.78744
20
2.81274
30
0.0
11
9.77177
21
2.69568
31
0.0
0
LINE
8
SCORE
10
9.75610
20
2.57861
30
0.0
11
9.74043
21
2.46155
31
0.0
0
LINE
8
SCORE
10
9.72476
20
2.34448
30
0.0
11
9.70909
21
2.22741
31
0.0
0
LINE
8
SCORE
10
9.69343
20
2.11035
30
0.0
11
9.67776
21
1.99328
31
0.0
0
LINE
8
SCORE
10
9.66209
20
1.87621
30
0.0
11
9.64642
21
1.75915
31
0.0
0
LINE
8
SCORE
10
9.63075
20
1.64208
30
0.0
11
9.61508
21
1.52501
31
0.0
0
LINE
8
SCORE
10
9.59941
20
1.40795
30
0.0
11
9.58375
21
1.29088
31
0.0
0
LINE
8
SCORE
10
9.56808
20
1.17382
30
0.0
11
9.55241
21
1.05675
31
0.0
0
LINE
8
SCORE
10
9.53674
20
0.93968
30
0.0
11
9.52107
21
0.82262
31
0.0
0
LINE
8
SCORE
10
9.50540
20
0.70555
30
0.0
11
9.48974
21
0.58848
31
0.0
0
LINE
8
SCORE
10
5.63723
20
8.08938
30
0.0
11
5.52017
21
8.07371
31
0.0
0
LINE
8
SCORE
10
5.40310
20
8.05804
30
0.0
11
5.28604
21
8.04237
31
0.0
0
LINE
8
SCORE
10
5.16897
20
8.02671
30
0.0
11
5.05190
21
8.01104
31
0.0
0
LINE
8
SCORE
10
4.93484
20
7.99537
30
0.0
11
4.81777
21
7.97970
31
0.0
0
LINE
8
SCORE
10
4.70070
20
7.96403
30
0.0
11
4.58364
21
7.94836
31
0.0
0
LINE
8
SCORE
10
4.46657
20
7.93269
30
0.0
11
4.34950
21
7.91703
31
0.0
0
LINE
8
SCORE
10
4.23244
20
7.90136
30
0.0
11
4.11537
21
7.88569
31
0.0
0
LINE
8
SCORE
10
3.99831
20
7.87002
30
0.0
11
3.88124
21
7.85435
31
0.0
0
LINE
8
SCORE
10
3.76417
20
7.83868
30
0.0
11
3.64711
21
7.82302
31
0.0
0
LINE
8
SCORE
10
3.53004
20
7.80735
30
0.0
11
3.41297
21
7.79168
31
0.0
0
LINE
8
SCORE
10
3.29591
20
7.77601
30
0.0
11
3.17884
21
7.76034
31
0.0
0
LINE
8
SCORE
10
3.06177
20
7.74467
30
0.0
11
2.94471
21
7.72900
31
0.0
0
LINE
8
SCORE
10
2.82764
20
7.71334
30
0.0
11
2.71058
21
7.69767
31
0.0
0
LINE
8
SCORE
10
2.59351
20
7.68200
30
0.0
11
2.47644
21
7.66633
31
0.0
0
LINE
8
SCORE
10
2.35938
20
7.65066
30
0.0
11
2.24231
21
7.63499
31
0.0
0
LINE
8
SCORE
10
2.12524
20
7.61933
30
0.0
11
2.00818
21
7.60366
31
0.0
0
LINE
8
SCORE
10
1.89111
20
7.58799
30
0.0
11
1.77405
21
7.57232
31
0.0
0
LINE
8
SCORE
10
1.65698
20
7.55665
30
0.0
11
1.53991
21
7.54098
31
0.0
0
LINE
8
SCORE
10
1.42285
20
7.52531
30
0.0
11
1.30578
21
7.50965
31
0.0
0
LINE
8
SCORE
10
1.18871
20
7.49398
30
0.0
11
1.07165
21
7.47831
31
0.0
0
LINE
8
SCORE
10
0.95458
20
7.46264
30
0.0
11
0.83751
21
7.44697
31
0.0
0
LINE
8
SCORE
10
0.72045
20
7.43130
30
0.0
11
0.66263
21
7.42357
31
0.0
0
LINE
8
SCORE2
10
5.49661
20
8.19780
30
0.0
11
6.52629
21
0.50453
31
0.0
0
LINE
8
SCORE2
10
10.50818
20
8.19780
30
0.0
11
9.47850
21
0.50453
31
0.0
0
LINE
8
SCORE2
10
5.63723
20
8.08938
30
0.0
11
0.66263
21
7.42357
31
0.0
0
ENDSEC
0
EOF
