<?xml version="1.0" encoding="UTF-8"?>
<svg xmlns="http://www.w3.org/2000/svg" version="1.1" width="15.3611in" height="13.0190in" viewBox="0 0 15.3611 13.0190">
<title>bin flat pattern</title>
<g id="cut" stroke="#ff0000" fill="none" stroke-width="0.0039">
  <path d="M 0.0000,12.3742 L 0.6626,7.4236 L 1.0034,4.8774 L 2.3374,3.1329 L 2.7567,-0.0000 L 6.5263,0.5045 L 6.5264,0.5036 L 7.1996,0.5888 L 8.0024,0.6225 L 8.8052,0.5888 L 9.4784,0.5036 L 9.4785,0.5045 L 13.2481,0.0000 L 13.6674,3.1329 L 15.0014,4.8774 L 15.3611,7.5651 L 10.5104,8.2144 L 10.5082,8.1978 L 9.9751,8.1978 L 9.7651,8.4078 L 9.0174,8.4078 L 8.8074,8.1978 L 8.5974,8.1978 L 8.3874,8.4078 L 7.6174,8.4078 L 7.4074,8.1978 L 7.1974,8.1978 L 6.9874,8.4078 L 6.2397,8.4078 L 6.0297,8.1978 L 5.4966,8.1978 L 5.5133,8.0728 L 5.4799,8.0683 L 4.8173,13.0190 L 3.5519,12.8496 L 3.5574,12.9765 L 3.0423,12.9075 L 3.0809,12.7866 L 1.8937,12.6277 L 1.8992,12.7545 L 1.3841,12.6856 L 1.4227,12.5646 L 0.0000,12.3742 Z"/>
  <path d="M 11.7730,7.7892 L 12.2491,7.7255 L 12.2667,7.8572 L 11.7906,7.9209 L 11.7730,7.7892 Z"/>
  <path d="M 13.4312,7.5673 L 13.9073,7.5035 L 13.9249,7.6352 L 13.4488,7.6990 L 13.4312,7.5673 Z"/>
</g>
<g id="score" stroke="#0000ff" fill="none" stroke-width="0.0039">
  <line x1="5.4966" y1="8.1978" x2="5.5123" y2="8.0807"/>
  <line x1="5.5279" y1="7.9637" x2="5.5436" y2="7.8466"/>
  <line x1="5.5593" y1="7.7295" x2="5.5750" y2="7.6125"/>
  <line x1="5.5906" y1="7.4954" x2="5.6063" y2="7.3783"/>
  <line x1="5.6220" y1="7.2613" x2="5.6376" y2="7.1442"/>
  <line x1="5.6533" y1="7.0271" x2="5.6690" y2="6.9101"/>
  <line x1="5.6846" y1="6.7930" x2="5.7003" y2="6.6759"/>
  <line x1="5.7160" y1="6.5589" x2="5.7316" y2="6.4418"/>
  <line x1="5.7473" y1="6.3247" x2="5.7630" y2="6.2077"/>
  <line x1="5.7786" y1="6.0906" x2="5.7943" y2="5.9735"/>
  <line x1="5.8100" y1="5.8565" x2="5.8256" y2="5.7394"/>
  <line x1="5.8413" y1="5.6223" x2="5.8570" y2="5.5053"/>
  <line x1="5.8726" y1="5.3882" x2="5.8883" y2="5.2711"/>
  <line x1="5.9040" y1="5.1541" x2="5.9197" y2="5.0370"/>
  <line x1="5.9353" y1="4.9199" x2="5.9510" y2="4.8029"/>
  <line x1="5.9667" y1="4.6858" x2="5.9823" y2="4.5687"/>
  <line x1="5.9980" y1="4.4517" x2="6.0137" y2="4.3346"/>
  <line x1="6.0293" y1="4.2175" x2="6.0450" y2="4.1005"/>
  <line x1="6.0607" y1="3.9834" x2="6.0763" y2="3.8663"/>
  <line x1="6.0920" y1="3.7493" x2="6.1077" y2="3.6322"/>
  <line x1="6.1233" y1="3.5151" x2="6.1390" y2="3.3981"/>
  <line x1="6.1547" y1="3.2810" x2="6.1703" y2="3.1639"/>
  <line x1="6.1860" y1="3.0469" x2="6.2017" y2="2.9298"/>
  <line x1="6.2174" y1="2.8127" x2="6.2330" y2="2.6957"/>
  <line x1="6.2487" y1="2.5786" x2="6.2644" y2="2.4615"/>
  <line x1="6.2800" y1="2.3445" x2="6.2957" y2="2.2274"/>
  <line x1="6.3114" y1="2.1103" x2="6.3270" y2="1.9933"/>
  <line x1="6.3427" y1="1.8762" x2="6.3584" y2="1.7591"/>
  <line x1="6.3740" y1="1.6421" x2="6.3897" y2="1.5250"/>
  <line x1="6.4054" y1="1.4079" x2="6.4210" y2="1.2909"/>
  <line x1="6.4367" y1="1.1738" x2="6.4524" y2="1.0567"/>
  <line x1="6.4680" y1="0.9397" x2="6.4837" y2="0.8226"/>
  <line x1="6.4994" y1="0.7056" x2="6.5151" y2="0.5885"/>
  <line x1="10.5082" y1="8.1978" x2="10.4925" y2="8.0807"/>
  <line x1="10.4768" y1="7.9637" x2="10.4612" y2="7.8466"/>
  <line x1="10.4455" y1="7.7295" x2="10.4298" y2="7.6125"/>
  <line x1="10.4142" y1="7.4954" x2="10.3985" y2="7.3783"/>
  <line x1="10.3828" y1="7.2613" x2="10.3672" y2="7.1442"/>
  <line x1="10.3515" y1="7.0271" x2="10.3358" y2="6.9101"/>
  <line x1="10.3202" y1="6.7930" x2="10.3045" y2="6.6759"/>
  <line x1="10.2888" y1="6.5589" x2="10.2732" y2="6.4418"/>
  <line x1="10.2575" y1="6.3247" x2="10.2418" y2="6.2077"/>
  <line x1="10.2262" y1="6.0906" x2="10.2105" y2="5.9735"/>
  <line x1="10.1948" y1="5.8565" x2="10.1791" y2="5.7394"/>
  <line x1="10.1635" y1="5.6223" x2="10.1478" y2="5.5053"/>
  <line x1="10.1321" y1="5.3882" x2="10.1165" y2="5.2711"/>
  <line x1="10.1008" y1="5.1541" x2="10.0851" y2="5.0370"/>
  <line x1="10.0695" y1="4.9199" x2="10.0538" y2="4.8029"/>
  <line x1="10.0381" y1="4.6858" x2="10.0225" y2="4.5687"/>
  <line x1="10.0068" y1="4.4517" x2="9.9911" y2="4.3346"/>
  <line x1="9.9755" y1="4.2175" x2="9.9598" y2="4.1005"/>
  <line x1="9.9441" y1="3.9834" x2="9.9285" y2="3.8663"/>
  <line x1="9.9128" y1="3.7493" x2="9.8971" y2="3.6322"/>
  <line x1="9.8814" y1="3.5151" x2="9.8658" y2="3.3981"/>
  <line x1="9.8501" y1="3.2810" x2="9.8344" y2="3.1639"/>
  <line x1="9.8188" y1="3.0469" x2="9.8031" y2="2.9298"/>
  <line x1="9.7874" y1="2.8127" x2="9.7718" y2="2.6957"/>
  <line x1="9.7561" y1="2.5786" x2="9.7404" y2="2.4615"/>
  <line x1="9.7248" y1="2.3445" x2="9.7091" y2="2.2274"/>
  <line x1="9.6934" y1="2.1103" x2="9.6778" y2="1.9933"/>
  <line x1="9.6621" y1="1.8762" x2="9.6464" y2="1.7591"/>
  <line x1="9.6308" y1="1.6421" x2="9.6151" y2="1.5250"/>
  <line x1="9.5994" y1="1.4079" x2="9.5837" y2="1.2909"/>
  <line x1="9.5681" y1="1.1738" x2="9.5524" y2="1.0567"/>
  <line x1="9.5367" y1="0.9397" x2="9.5211" y2="0.8226"/>
  <line x1="9.5054" y1="0.7056" x2="9.4897" y2="0.5885"/>
  <line x1="5.6372" y1="8.0894" x2="5.5202" y2="8.0737"/>
  <line x1="5.4031" y1="8.0580" x2="5.2860" y2="8.0424"/>
  <line x1="5.1690" y1="8.0267" x2="5.0519" y2="8.0110"/>
  <line x1="4.9348" y1="7.9954" x2="4.8178" y2="7.9797"/>
  <line x1="4.7007" y1="7.9640" x2="4.5836" y2="7.9484"/>
  <line x1="4.4666" y1="7.9327" x2="4.3495" y2="7.9170"/>
  <line x1="4.2324" y1="7.9014" x2="4.1154" y2="7.8857"/>
  <line x1="3.9983" y1="7.8700" x2="3.8812" y2="7.8544"/>
  <line x1="3.7642" y1="7.8387" x2="3.6471" y2="7.8230"/>
  <line x1="3.5300" y1="7.8073" x2="3.4130" y2="7.7917"/>
  <line x1="3.2959" y1="7.7760" x2="3.1788" y2="7.7603"/>
  <line x1="3.0618" y1="7.7447" x2="2.9447" y2="7.7290"/>
  <line x1="2.8276" y1="7.7133" x2="2.7106" y2="7.6977"/>
  <line x1="2.5935" y1="7.6820" x2="2.4764" y2="7.6663"/>
  <line x1="2.3594" y1="7.6507" x2="2.2423" y2="7.6350"/>
  <line x1="2.1252" y1="7.6193" x2="2.0082" y2="7.6037"/>
  <line x1="1.8911" y1="7.5880" x2="1.7740" y2="7.5723"/>
  <line x1="1.6570" y1="7.5567" x2="1.5399" y2="7.5410"/>
  <line x1="1.4228" y1="7.5253" x2="1.3058" y2="7.5096"/>
  <line x1="1.1887" y1="7.4940" x2="1.0716" y2="7.4783"/>
  <line x1="0.9546" y1="7.4626" x2="0.8375" y2="7.4470"/>
  <line x1="0.7204" y1="7.4313" x2="0.6626" y2="7.4236"/>
</g>
<g id="score2" stroke="#00a650" fill="none" stroke-width="0.0039">
  <line x1="5.4966" y1="8.1978" x2="6.5263" y2="0.5045"/>
  <line x1="10.5082" y1="8.1978" x2="9.4785" y2="0.5045"/>
  <line x1="5.6372" y1="8.0894" x2="0.6626" y2="7.4236"/>
</g>
</svg>