0
SECTION
2
ENTITIES
0
POLYLINE
8
CUT
66
1
70
1
0
VERTEX
8
CUT
10
0.00000
20
9.54235
30
0.0
0
VERTEX
8
CUT
10
1.09076
20
7.65310
30
0.0
0
VERTEX
8
CUT
10
1.09076
20
2.30290
30
0.0
0
VERTEX
8
CUT
10
4.89396
20
2.30290
30
0.0
0
VERTEX
8
CUT
10
4.89396
20
2.30093
30
0.0
0
VERTEX
8
CUT
10
4.81934
20
2.30093
30
0.0
0
VERTEX
8
CUT
10
5.41561
20
2.27763
30
0.0
0
VERTEX
8
CUT
10
6.05831
20
2.20198
30
0.0
0
VERTEX
8
CUT
10
6.69315
20
2.07641
30
0.0
0
VERTEX
8
CUT
10
7.31625
20
1.90169
30
0.0
0
VERTEX
8
CUT
10
7.92382
20
1.67888
30
0.0
0
VERTEX
8
CUT
10
8.39848
20
1.46142
30
0.0
0
VERTEX
8
CUT
10
8.39720
20
1.45842
30
0.0
0
VERTEX
8
CUT
10
10.89347
20
0.39255
30
0.0
0
VERTEX
8
CUT
10
10.93769
20
0.37556
30
0.0
0
VERTEX
8
CUT
10
10.98191
20
0.35857
30
0.0
0
VERTEX
8
CUT
10
11.02613
20
0.34157
30
0.0
0
VERTEX
8
CUT
10
11.07034
20
0.32456
30
0.0
0
VERTEX
8
CUT
10
11.11455
20
0.30754
30
0.0
0
VERTEX
8
CUT
10
11.15876
20
0.29052
30
0.0
0
VERTEX
8
CUT
10
11.20296
20
0.27349
30
0.0
0
VERTEX
8
CUT
10
11.24716
20
0.25645
30
0.0
0
VERTEX
8
CUT
10
11.29136
20
0.23940
30
0.0
0
VERTEX
8
CUT
10
11.37975
20
0.20529
30
0.0
0
VERTEX
8
CUT
10
11.42394
20
0.18822
30
0.0
0
VERTEX
8
CUT
10
11.51232
20
0.15406
30
0.0
0
VERTEX
8
CUT
10
11.55650
20
0.13697
30
0.0
0
VERTEX
8
CUT
10
11.64485
20
0.10277
30
0.0
0
VERTEX
8
CUT
10
11.68903
20
0.08566
30
0.0
0
VERTEX
8
CUT
10
11.77737
20
0.05142
30
0.0
0
VERTEX
8
CUT
10
11.82154
20
0.03428
30
0.0
0
VERTEX
8
CUT
10
11.90986
20
0.00000
30
0.0
0
VERTEX
8
CUT
10
14.56089
20
6.20872
30
0.0
0
VERTEX
8
CUT
10
16.37072
20
7.66965
30
0.0
0
VERTEX
8
CUT
10
20.60480
20
17.58588
30
0.0
0
VERTEX
8
CUT
10
19.28505
20
18.14939
30
0.0
0
VERTEX
8
CUT
10
19.35968
20
18.25344
30
0.0
0
VERTEX
8
CUT
10
18.87088
20
18.46215
30
0.0
0
VERTEX
8
CUT
10
18.84734
20
18.33628
30
0.0
0
VERTEX
8
CUT
10
17.74645
20
18.80635
30
0.0
0
VERTEX
8
CUT
10
17.82108
20
18.91040
30
0.0
0
VERTEX
8
CUT
10
17.33228
20
19.11911
30
0.0
0
VERTEX
8
CUT
10
17.30874
20
18.99324
30
0.0
0
VERTEX
8
CUT
10
16.13499
20
19.49442
30
0.0
0
VERTEX
8
CUT
10
12.97419
20
12.09180
30
0.0
0
VERTEX
8
CUT
10
12.94315
20
12.10506
30
0.0
0
VERTEX
8
CUT
10
12.99652
20
12.23006
30
0.0
0
VERTEX
8
CUT
10
12.41711
20
12.23006
30
0.0
0
VERTEX
8
CUT
10
12.20711
20
12.44006
30
0.0
0
VERTEX
8
CUT
10
11.73045
20
12.44006
30
0.0
0
VERTEX
8
CUT
10
11.52045
20
12.23006
30
0.0
0
VERTEX
8
CUT
10
11.31045
20
12.23006
30
0.0
0
VERTEX
8
CUT
10
11.10045
20
12.44006
30
0.0
0
VERTEX
8
CUT
10
10.62379
20
12.44006
30
0.0
0
VERTEX
8
CUT
10
10.41379
20
12.23006
30
0.0
0
VERTEX
8
CUT
10
10.20379
20
12.23006
30
0.0
0
VERTEX
8
CUT
10
9.99379
20
12.44006
30
0.0
0
VERTEX
8
CUT
10
9.22379
20
12.44006
30
0.0
0
VERTEX
8
CUT
10
9.01379
20
12.23006
30
0.0
0
VERTEX
8
CUT
10
8.80379
20
12.23006
30
0.0
0
VERTEX
8
CUT
10
8.59379
20
12.44006
30
0.0
0
VERTEX
8
CUT
10
8.32632
20
12.44006
30
0.0
0
VERTEX
8
CUT
10
8.11632
20
12.23006
30
0.0
0
VERTEX
8
CUT
10
7.90632
20
12.23006
30
0.0
0
VERTEX
8
CUT
10
7.69632
20
12.44006
30
0.0
0
VERTEX
8
CUT
10
7.16163
20
12.44006
30
0.0
0
VERTEX
8
CUT
10
6.95163
20
12.23006
30
0.0
0
VERTEX
8
CUT
10
6.74163
20
12.23006
30
0.0
0
VERTEX
8
CUT
10
6.53163
20
12.44006
30
0.0
0
VERTEX
8
CUT
10
5.78396
20
12.44006
30
0.0
0
VERTEX
8
CUT
10
5.57396
20
12.23006
30
0.0
0
VERTEX
8
CUT
10
0.00000
20
12.23006
30
0.0
0
VERTEX
8
CUT
10
0.00000
20
9.54235
30
0.0
0
SEQEND
0
POLYLINE
8
CUT
66
1
70
1
0
VERTEX
8
CUT
10
1.43283
20
11.97612
30
0.0
0
VERTEX
8
CUT
10
1.91315
20
11.97612
30
0.0
0
VERTEX
8
CUT
10
1.91315
20
12.10899
30
0.0
0
VERTEX
8
CUT
10
1.43283
20
12.10899
30
0.0
0
VERTEX
8
CUT
10
1.43283
20
11.97612
30
0.0
0
SEQEND
0
POLYLINE
8
CUT
66
1
70
1
0
VERTEX
8
CUT
10
3.10582
20
11.97612
30
0.0
0
VERTEX
8
CUT
10
3.58613
20
11.97612
30
0.0
0
VERTEX
8
CUT
10
3.58613
20
12.10899
30
0.0
0
VERTEX
8
CUT
10
3.10582
20
12.10899
30
0.0
0
VERTEX
8
CUT
10
3.10582
20
11.97612
30
0.0
0
SEQEND
0
LINE
8
SCORE
10
12.94315
20
12.10506
30
0.0
11
12.86585
21
11.92402
31
0.0
0
LINE
8
SCORE
10
12.78855
20
11.74298
30
0.0
11
12.71125
21
11.56194
31
0.0
0
LINE
8
SCORE
10
12.63395
20
11.38090
30
0.0
11
12.55665
21
11.19987
31
0.0
0
LINE
8
SCORE
10
12.47935
20
11.01883
30
0.0
11
12.40205
21
10.83779
31
0.0
0
LINE
8
SCORE
10
12.32475
20
10.65675
30
0.0
11
12.24745
21
10.47571
31
0.0
0
LINE
8
SCORE
10
12.17014
20
10.29468
30
0.0
11
12.09284
21
10.11364
31
0.0
0
LINE
8
SCORE
10
12.01554
20
9.93260
30
0.0
11
11.93824
21
9.75156
31
0.0
0
LINE
8
SCORE
10
11.86094
20
9.57052
30
0.0
11
11.78364
21
9.38949
31
0.0
0
LINE
8
SCORE
10
11.70634
20
9.20845
30
0.0
11
11.62904
21
9.02741
31
0.0
0
LINE
8
SCORE
10
11.55174
20
8.84637
30
0.0
11
11.47444
21
8.66534
31
0.0
0
LINE
8
SCORE
10
11.39714
20
8.48430
30
0.0
11
11.31984
21
8.30326
31
0.0
0
LINE
8
SCORE
10
11.24254
20
8.12222
30
0.0
11
11.16524
21
7.94118
31
0.0
0
LINE
8
SCORE
10
11.08794
20
7.76015
30
0.0
11
11.01064
21
7.57911
31
0.0
0
LINE
8
SCORE
10
10.93334
20
7.39807
30
0.0
11
10.85604
21
7.21703
31
0.0
0
LINE
8
SCORE
10
10.77874
20
7.03599
30
0.0
11
10.70144
21
6.85496
31
0.0
0
LINE
8
SCORE
10
10.62414
20
6.67392
30
0.0
11
10.54684
21
6.49288
31
0.0
0
LINE
8
SCORE
10
10.46953
20
6.31184
30
0.0
11
10.39223
21
6.13080
31
0.0
0
LINE
8
SCORE
10
10.31493
20
5.94977
30
0.0
11
10.23763
21
5.76873
31
0.0
0
LINE
8
SCORE
10
10.16033
20
5.58769
30
0.0
11
10.08303
21
5.40665
31
0.0
0
LINE
8
SCORE
10
10.00573
20
5.22562
30
0.0
11
9.92843
21
5.04458
31
0.0
0
LINE
8
SCORE
10
9.85113
20
4.86354
30
0.0
11
9.77383
21
4.68250
31
0.0
0
LINE
8
SCORE
10
9.69653
20
4.50146
30
0.0
11
9.61923
21
4.32043
31
0.0
0
LINE
8
SCORE
10
9.54193
20
4.13939
30
0.0
11
9.46463
21
3.95835
31
0.0
0
LINE
8
SCORE
10
9.38733
20
3.77731
30
0.0
11
9.31003
21
3.59627
31
0.0
0
LINE
8
SCORE
10
9.23273
20
3.41524
30
0.0
11
9.15543
21
3.23420
31
0.0
0
LINE
8
SCORE
10
9.07813
20
3.05316
30
0.0
11
9.00083
21
2.87212
31
0.0
0
LINE
8
SCORE
10
8.92353
20
2.69109
30
0.0
11
8.84623
21
2.51005
31
0.0
0
LINE
8
SCORE
10
8.76892
20
2.32901
30
0.0
11
8.69162
21
2.14797
31
0.0
0
LINE
8
SCORE
10
8.61432
20
1.96693
30
0.0
11
8.53702
21
1.78590
31
0.0
0
LINE
8
SCORE
10
8.45972
20
1.60486
30
0.0
11
8.39848
21
1.46142
31
0.0
0
LINE
8
SCORE
10
4.89396
20
2.30290
30
0.0
11
4.89396
21
2.49975
31
0.0
0
LINE
8
SCORE
10
4.89396
20
2.69660
30
0.0
11
4.89396
21
2.89345
31
0.0
0
LINE
8
SCORE
10
4.89396
20
3.09030
30
0.0
11
4.89396
21
3.28715
31
0.0
0
LINE
8
SCORE
10
4.89396
20
3.48400
30
0.0
11
4.89396
21
3.68085
31
0.0
0
LINE
8
SCORE
10
4.89396
20
3.87770
30
0.0
11
4.89396
21
4.07455
31
0.0
0
LINE
8
SCORE
10
4.89396
20
4.27140
30
0.0
11
4.89396
21
4.46825
31
0.0
0
LINE
8
SCORE
10
4.89396
20
4.66510
30
0.0
11
4.89396
21
4.86195
31
0.0
0
LINE
8
SCORE
10
4.89396
20
5.05880
30
0.0
11
4.89396
21
5.25565
31
0.0
0
LINE
8
SCORE
10
4.89396
20
5.45250
30
0.0
11
4.89396
21
5.64935
31
0.0
0
LINE
8
SCORE
10
4.89396
20
5.84621
30
0.0
11
4.89396
21
6.04306
31
0.0
0
LINE
8
SCORE
10
4.89396
20
6.23991
30
0.0
11
4.89396
21
6.43676
31
0.0
0
LINE
8
SCORE
10
4.89396
20
6.63361
30
0.0
11
4.89396
21
6.83046
31
0.0
0
LINE
8
SCORE
10
4.89396
20
7.02731
30
0.0
11
4.89396
21
7.22416
31
0.0
0
LINE
8
SCORE
10
4.89396
20
7.42101
30
0.0
11
4.89396
21
7.61786
31
0.0
0
LINE
8
SCORE
10
4.89396
20
7.81471
30
0.0
11
4.89396
21
8.01156
31
0.0
0
LINE
8
SCORE
10
4.89396
20
8.20841
30
0.0
11
4.89396
21
8.40526
31
0.0
0
LINE
8
SCORE
10
4.89396
20
8.60211
30
0.0
11
4.89396
21
8.79896
31
0.0
0
LINE
8
SCORE
10
4.89396
20
8.99581
30
0.0
11
4.89396
21
9.19266
31
0.0
0
LINE
8
SCORE
10
4.89396
20
9.38951
30
0.0
11
4.89396
21
9.58636
31
0.0
0
LINE
8
SCORE
10
4.89396
20
9.78321
30
0.0
11
4.89396
21
9.98006
31
0.0
0
LINE
8
SCORE
10
4.89396
20
10.17691
30
0.0
11
4.89396
21
10.37376
31
0.0
0
LINE
8
SCORE
10
4.89396
20
10.57061
30
0.0
11
4.89396
21
10.76747
31
0.0
0
LINE
8
SCORE
10
4.89396
20
10.96432
30
0.0
11
4.89396
21
11.16117
31
0.0
0
LINE
8
SCORE
10
4.89396
20
11.35802
30
0.0
11
4.89396
21
11.55487
31
0.0
0
LINE
8
SCORE
10
4.89396
20
11.75172
30
0.0
11
4.89396
21
11.94857
31
0.0
0
LINE
8
SCORE
10
4.89396
20
12.14542
30
0.0
11
4.89396
21
12.23006
31
0.0
0
LINE
8
SCORE
10
17.44399
20
10.18326
30
0.0
11
17.26296
21
10.26056
31
0.0
0
LINE
8
SCORE
10
17.08192
20
10.33786
30
0.0
11
16.90088
21
10.41516
31
0.0
0
LINE
8
SCORE
10
16.71984
20
10.49246
30
0.0
11
16.53880
21
10.56976
31
0.0
0
LINE
8
SCORE
10
16.35777
20
10.64707
30
0.0
11
16.17673
21
10.72437
31
0.0
0
LINE
8
SCORE
10
15.99569
20
10.80167
30
0.0
11
15.81465
21
10.87897
31
0.0
0
LINE
8
SCORE
10
15.63361
20
10.95627
30
0.0
11
15.45258
21
11.03357
31
0.0
0
LINE
8
SCORE
10
15.27154
20
11.11087
30
0.0
11
15.09050
21
11.18817
31
0.0
0
LINE
8
SCORE
10
14.90946
20
11.26547
30
0.0
11
14.72843
21
11.34277
31
0.0
0
LINE
8
SCORE
10
14.54739
20
11.42007
30
0.0
11
14.36635
21
11.49737
31
0.0
0
LINE
8
SCORE
10
14.18531
20
11.57467
30
0.0
11
14.00427
21
11.65197
31
0.0
0
LINE
8
SCORE
10
13.82324
20
11.72927
30
0.0
11
13.64220
21
11.80657
31
0.0
0
LINE
8
SCORE
10
13.46116
20
11.88387
30
0.0
11
13.28012
21
11.96117
31
0.0
0
LINE
8
SCORE
10
13.09908
20
12.03847
30
0.0
11
12.95064
21
12.10186
31
0.0
0
LINE
8
SCORE2
10
12.94315
20
12.10506
30
0.0
11
8.39848
21
1.46142
31
0.0
0
LINE
8
SCORE2
10
4.89396
20
2.30290
30
0.0
11
4.89396
21
12.23006
31
0.0
0
LINE
8
SCORE2
10
17.44399
20
10.18326
30
0.0
11
12.95064
21
12.10186
31
0.0
0
ENDSEC
0
EOF
