0
SECTION
2
ENTITIES
0
POLYLINE
8
CUT
66
1
70
1
0
VERTEX
8
CUT
10
0.00000
20
8.13784
30
0.0
0
VERTEX
8
CUT
10
1.10918
20
5.54014
30
0.0
0
VERTEX
8
CUT
10
2.91901
20
4.07921
30
0.0
0
VERTEX
8
CUT
10
4.66077
20
-0.00000
30
0.0
0
VERTEX
8
CUT
10
4.78055
20
0.04623
30
0.0
0
VERTEX
8
CUT
10
4.90036
20
0.09243
30
0.0
0
VERTEX
8
CUT
10
5.02018
20
0.13857
30
0.0
0
VERTEX
8
CUT
10
5.14001
20
0.18468
30
0.0
0
VERTEX
8
CUT
10
5.25987
20
0.23073
30
0.0
0
VERTEX
8
CUT
10
5.37974
20
0.27675
30
0.0
0
VERTEX
8
CUT
10
5.49963
20
0.32271
30
0.0
0
VERTEX
8
CUT
10
5.61954
20
0.36863
30
0.0
0
VERTEX
8
CUT
10
5.73947
20
0.41449
30
0.0
0
VERTEX
8
CUT
10
5.85941
20
0.46031
30
0.0
0
VERTEX
8
CUT
10
5.97938
20
0.50608
30
0.0
0
VERTEX
8
CUT
10
6.09936
20
0.55179
30
0.0
0
VERTEX
8
CUT
10
6.21937
20
0.59745
30
0.0
0
VERTEX
8
CUT
10
6.33939
20
0.64306
30
0.0
0
VERTEX
8
CUT
10
6.45944
20
0.68862
30
0.0
0
VERTEX
8
CUT
10
6.57951
20
0.73411
30
0.0
0
VERTEX
8
CUT
10
6.69960
20
0.77956
30
0.0
0
VERTEX
8
CUT
10
6.81971
20
0.82494
30
0.0
0
VERTEX
8
CUT
10
6.93984
20
0.87027
30
0.0
0
VERTEX
8
CUT
10
7.05999
20
0.91554
30
0.0
0
VERTEX
8
CUT
10
7.18017
20
0.96075
30
0.0
0
VERTEX
8
CUT
10
7.30037
20
1.00590
30
0.0
0
VERTEX
8
CUT
10
7.42059
20
1.05099
30
0.0
0
VERTEX
8
CUT
10
8.20448
20
1.38570
30
0.0
0
VERTEX
8
CUT
10
8.20163
20
1.39238
30
0.0
0
VERTEX
8
CUT
10
8.80898
20
1.69446
30
0.0
0
VERTEX
8
CUT
10
9.55590
20
1.99073
30
0.0
0
VERTEX
8
CUT
10
10.32502
20
2.22336
30
0.0
0
VERTEX
8
CUT
10
11.08582
20
2.38535
30
0.0
0
VERTEX
8
CUT
10
10.98730
20
2.37216
30
0.0
0
VERTEX
8
CUT
10
10.98704
20
2.37411
30
0.0
0
VERTEX
8
CUT
10
14.75663
20
2.87864
30
0.0
0
VERTEX
8
CUT
10
14.33731
20
6.01154
30
0.0
0
VERTEX
8
CUT
10
15.16557
20
8.04549
30
0.0
0
VERTEX
8
CUT
10
14.81789
20
10.64319
30
0.0
0
VERTEX
8
CUT
10
9.96718
20
9.99396
30
0.0
0
VERTEX
8
CUT
10
9.96692
20
9.99592
30
0.0
0
VERTEX
8
CUT
10
10.07624
20
10.01055
30
0.0
0
VERTEX
8
CUT
10
4.52180
20
10.01055
30
0.0
0
VERTEX
8
CUT
10
4.50084
20
10.05963
30
0.0
0
VERTEX
8
CUT
10
0.00000
20
8.13784
30
0.0
0
SEQEND
0
LINE
8
SCORE
10
9.96718
20
9.99396
30
0.0
11
9.98285
21
9.87690
31
0.0
0
LINE
8
SCORE
10
9.99852
20
9.75983
30
0.0
11
10.01419
21
9.64277
31
0.0
0
LINE
8
SCORE
10
10.02986
20
9.52570
30
0.0
11
10.04552
21
9.40863
31
0.0
0
LINE
8
SCORE
10
10.06119
20
9.29157
30
0.0
11
10.07686
21
9.17450
31
0.0
0
LINE
8
SCORE
10
10.09253
20
9.05743
30
0.0
11
10.10820
21
8.94037
31
0.0
0
LINE
8
SCORE
10
10.12387
20
8.82330
30
0.0
11
10.13953
21
8.70623
31
0.0
0
LINE
8
SCORE
10
10.15520
20
8.58917
30
0.0
11
10.17087
21
8.47210
31
0.0
0
LINE
8
SCORE
10
10.18654
20
8.35504
30
0.0
11
10.20221
21
8.23797
31
0.0
0
LINE
8
SCORE
10
10.21788
20
8.12090
30
0.0
11
10.23354
21
8.00384
31
0.0
0
LINE
8
SCORE
10
10.24921
20
7.88677
30
0.0
11
10.26488
21
7.76970
31
0.0
0
LINE
8
SCORE
10
10.28055
20
7.65264
30
0.0
11
10.29622
21
7.53557
31
0.0
0
LINE
8
SCORE
10
10.31189
20
7.41851
30
0.0
11
10.32755
21
7.30144
31
0.0
0
LINE
8
SCORE
10
10.34322
20
7.18437
30
0.0
11
10.35889
21
7.06731
31
0.0
0
LINE
8
SCORE
10
10.37456
20
6.95024
30
0.0
11
10.39023
21
6.83317
31
0.0
0
LINE
8
SCORE
10
10.40590
20
6.71611
30
0.0
11
10.42157
21
6.59904
31
0.0
0
LINE
8
SCORE
10
10.43723
20
6.48197
30
0.0
11
10.45290
21
6.36491
31
0.0
0
LINE
8
SCORE
10
10.46857
20
6.24784
30
0.0
11
10.48424
21
6.13078
31
0.0
0
LINE
8
SCORE
10
10.49991
20
6.01371
30
0.0
11
10.51558
21
5.89664
31
0.0
0
LINE
8
SCORE
10
10.53124
20
5.77958
30
0.0
11
10.54691
21
5.66251
31
0.0
0
LINE
8
SCORE
10
10.56258
20
5.54544
30
0.0
11
10.57825
21
5.42838
31
0.0
0
LINE
8
SCORE
10
10.59392
20
5.31131
30
0.0
11
10.60959
21
5.19424
31
0.0
0
LINE
8
SCORE
10
10.62525
20
5.07718
30
0.0
11
10.64092
21
4.96011
31
0.0
0
LINE
8
SCORE
10
10.65659
20
4.84305
30
0.0
11
10.67226
21
4.72598
31
0.0
0
LINE
8
SCORE
10
10.68793
20
4.60891
30
0.0
11
10.70360
21
4.49185
31
0.0
0
LINE
8
SCORE
10
10.71926
20
4.37478
30
0.0
11
10.73493
21
4.25771
31
0.0
0
LINE
8
SCORE
10
10.75060
20
4.14065
30
0.0
11
10.76627
21
4.02358
31
0.0
0
LINE
8
SCORE
10
10.78194
20
3.90651
30
0.0
11
10.79761
21
3.78945
31
0.0
0
LINE
8
SCORE
10
10.81328
20
3.67238
30
0.0
11
10.82894
21
3.55532
31
0.0
0
LINE
8
SCORE
10
10.84461
20
3.43825
30
0.0
11
10.86028
21
3.32118
31
0.0
0
LINE
8
SCORE
10
10.87595
20
3.20412
30
0.0
11
10.89162
21
3.08705
31
0.0
0
LINE
8
SCORE
10
10.90729
20
2.96998
30
0.0
11
10.92295
21
2.85292
31
0.0
0
LINE
8
SCORE
10
10.93862
20
2.73585
30
0.0
11
10.95429
21
2.61878
31
0.0
0
LINE
8
SCORE
10
10.96996
20
2.50172
30
0.0
11
10.98563
21
2.38465
31
0.0
0
LINE
8
SCORE
10
4.52180
20
10.01055
30
0.0
11
4.56818
21
9.90192
31
0.0
0
LINE
8
SCORE
10
4.61456
20
9.79330
30
0.0
11
4.66094
21
9.68468
31
0.0
0
LINE
8
SCORE
10
4.70732
20
9.57606
30
0.0
11
4.75370
21
9.46743
31
0.0
0
LINE
8
SCORE
10
4.80009
20
9.35881
30
0.0
11
4.84647
21
9.25019
31
0.0
0
LINE
8
SCORE
10
4.89285
20
9.14157
30
0.0
11
4.93923
21
9.03294
31
0.0
0
LINE
8
SCORE
10
4.98561
20
8.92432
30
0.0
11
5.03199
21
8.81570
31
0.0
0
LINE
8
SCORE
10
5.07837
20
8.70707
30
0.0
11
5.12475
21
8.59845
31
0.0
0
LINE
8
SCORE
10
5.17113
20
8.48983
30
0.0
11
5.21751
21
8.38121
31
0.0
0
LINE
8
SCORE
10
5.26389
20
8.27258
30
0.0
11
5.31027
21
8.16396
31
0.0
0
LINE
8
SCORE
10
5.35665
20
8.05534
30
0.0
11
5.40303
21
7.94672
31
0.0
0
LINE
8
SCORE
10
5.44941
20
7.83809
30
0.0
11
5.49579
21
7.72947
31
0.0
0
LINE
8
SCORE
10
5.54217
20
7.62085
30
0.0
11
5.58855
21
7.51222
31
0.0
0
LINE
8
SCORE
10
5.63493
20
7.40360
30
0.0
11
5.68131
21
7.29498
31
0.0
0
LINE
8
SCORE
10
5.72769
20
7.18636
30
0.0
11
5.77407
21
7.07773
31
0.0
0
LINE
8
SCORE
10
5.82045
20
6.96911
30
0.0
11
5.86683
21
6.86049
31
0.0
0
LINE
8
SCORE
10
5.91321
20
6.75187
30
0.0
11
5.95959
21
6.64324
31
0.0
0
LINE
8
SCORE
10
6.00597
20
6.53462
30
0.0
11
6.05235
21
6.42600
31
0.0
0
LINE
8
SCORE
10
6.09873
20
6.31737
30
0.0
11
6.14511
21
6.20875
31
0.0
0
LINE
8
SCORE
10
6.19149
20
6.10013
30
0.0
11
6.23787
21
5.99151
31
0.0
0
LINE
8
SCORE
10
6.28425
20
5.88288
30
0.0
11
6.33063
21
5.77426
31
0.0
0
LINE
8
SCORE
10
6.37701
20
5.66564
30
0.0
11
6.42339
21
5.55702
31
0.0
0
LINE
8
SCORE
10
6.46977
20
5.44839
30
0.0
11
6.51616
21
5.33977
31
0.0
0
LINE
8
SCORE
10
6.56254
20
5.23115
30
0.0
11
6.60892
21
5.12252
31
0.0
0
LINE
8
SCORE
10
6.65530
20
5.01390
30
0.0
11
6.70168
21
4.90528
31
0.0
0
LINE
8
SCORE
10
6.74806
20
4.79666
30
0.0
11
6.79444
21
4.68803
31
0.0
0
LINE
8
SCORE
10
6.84082
20
4.57941
30
0.0
11
6.88720
21
4.47079
31
0.0
0
LINE
8
SCORE
10
6.93358
20
4.36216
30
0.0
11
6.97996
21
4.25354
31
0.0
0
LINE
8
SCORE
10
7.02634
20
4.14492
30
0.0
11
7.07272
21
4.03630
31
0.0
0
LINE
8
SCORE
10
7.11910
20
3.92767
30
0.0
11
7.16548
21
3.81905
31
0.0
0
LINE
8
SCORE
10
7.21186
20
3.71043
30
0.0
11
7.25824
21
3.60181
31
0.0
0
LINE
8
SCORE
10
7.30462
20
3.49318
30
0.0
11
7.35100
21
3.38456
31
0.0
0
LINE
8
SCORE
10
7.39738
20
3.27594
30
0.0
11
7.44376
21
3.16731
31
0.0
0
LINE
8
SCORE
10
7.49014
20
3.05869
30
0.0
11
7.53652
21
2.95007
31
0.0
0
LINE
8
SCORE
10
7.58290
20
2.84145
30
0.0
11
7.62928
21
2.73282
31
0.0
0
LINE
8
SCORE
10
7.67566
20
2.62420
30
0.0
11
7.72204
21
2.51558
31
0.0
0
LINE
8
SCORE
10
7.76842
20
2.40696
30
0.0
11
7.81480
21
2.29833
31
0.0
0
LINE
8
SCORE
10
7.86118
20
2.18971
30
0.0
11
7.90756
21
2.08109
31
0.0
0
LINE
8
SCORE
10
7.95394
20
1.97246
30
0.0
11
8.00032
21
1.86384
31
0.0
0
LINE
8
SCORE
10
8.04670
20
1.75522
30
0.0
11
8.09308
21
1.64660
31
0.0
0
LINE
8
SCORE
10
8.13946
20
1.53797
30
0.0
11
8.18585
21
1.42935
31
0.0
0
LINE
8
SCORE2
10
9.96718
20
9.99396
30
0.0
11
10.98704
21
2.37411
31
0.0
0
LINE
8
SCORE2
10
4.52180
20
10.01055
30
0.0
11
8.20163
21
1.39238
31
0.0
0
ENDSEC
0
EOF
