<?xml version="1.0" encoding="UTF-8"?>
<svg xmlns="http://www.w3.org/2000/svg" version="1.1" width="15.1656in" height="10.6432in" viewBox="0 0 15.1656 10.6432">
<title>bin flat pattern</title>
<g id="cut" stroke="#ff0000" fill="none" stroke-width="0.0039">
  <path d="M 0.0000,8.1378 L 1.1092,5.5401 L 2.9190,4.0792 L 4.6608,-0.0000 L 4.7806,0.0462 L 4.9004,0.0924 L 5.0202,0.1386 L 5.1400,0.1847 L 5.2599,0.2307 L 5.3797,0.2767 L 5.4996,0.3227 L 5.6195,0.3686 L 5.7395,0.4145 L 5.8594,0.4603 L 5.9794,0.5061 L 6.0994,0.5518 L 6.2194,0.5975 L 6.3394,0.6431 L 6.4594,0.6886 L 6.5795,0.7341 L 6.6996,0.7796 L 6.8197,0.8249 L 6.9398,0.8703 L 7.0600,0.9155 L 7.1802,0.9608 L 7.3004,1.0059 L 7.4206,1.0510 L 8.2045,1.3857 L 8.2016,1.3924 L 8.8090,1.6945 L 9.5559,1.9907 L 10.3250,2.2234 L 11.0858,2.3853 L 10.9873,2.3722 L 10.9870,2.3741 L 14.7566,2.8786 L 14.3373,6.0115 L 15.1656,8.0455 L 14.8179,10.6432 L 9.9672,9.9940 L 9.9669,9.9959 L 10.0762,10.0105 L 4.5218,10.0105 L 4.5008,10.0596 L 0.0000,8.1378 Z"/>
</g>
<g id="score" stroke="#0000ff" fill="none" stroke-width="0.0039">
  <line x1="9.9672" y1="9.9940" x2="9.9828" y2="9.8769"/>
  <line x1="9.9985" y1="9.7598" x2="10.0142" y2="9.6428"/>
  <line x1="10.0299" y1="9.5257" x2="10.0455" y2="9.4086"/>
  <line x1="10.0612" y1="9.2916" x2="10.0769" y2="9.1745"/>
  <line x1="10.0925" y1="9.0574" x2="10.1082" y2="8.9404"/>
  <line x1="10.1239" y1="8.8233" x2="10.1395" y2="8.7062"/>
  <line x1="10.1552" y1="8.5892" x2="10.1709" y2="8.4721"/>
  <line x1="10.1865" y1="8.3550" x2="10.2022" y2="8.2380"/>
  <line x1="10.2179" y1="8.1209" x2="10.2335" y2="8.0038"/>
  <line x1="10.2492" y1="7.8868" x2="10.2649" y2="7.7697"/>
  <line x1="10.2805" y1="7.6526" x2="10.2962" y2="7.5356"/>
  <line x1="10.3119" y1="7.4185" x2="10.3276" y2="7.3014"/>
  <line x1="10.3432" y1="7.1844" x2="10.3589" y2="7.0673"/>
  <line x1="10.3746" y1="6.9502" x2="10.3902" y2="6.8332"/>
  <line x1="10.4059" y1="6.7161" x2="10.4216" y2="6.5990"/>
  <line x1="10.4372" y1="6.4820" x2="10.4529" y2="6.3649"/>
  <line x1="10.4686" y1="6.2478" x2="10.4842" y2="6.1308"/>
  <line x1="10.4999" y1="6.0137" x2="10.5156" y2="5.8966"/>
  <line x1="10.5312" y1="5.7796" x2="10.5469" y2="5.6625"/>
  <line x1="10.5626" y1="5.5454" x2="10.5782" y2="5.4284"/>
  <line x1="10.5939" y1="5.3113" x2="10.6096" y2="5.1942"/>
  <line x1="10.6253" y1="5.0772" x2="10.6409" y2="4.9601"/>
  <line x1="10.6566" y1="4.8430" x2="10.6723" y2="4.7260"/>
  <line x1="10.6879" y1="4.6089" x2="10.7036" y2="4.4918"/>
  <line x1="10.7193" y1="4.3748" x2="10.7349" y2="4.2577"/>
  <line x1="10.7506" y1="4.1406" x2="10.7663" y2="4.0236"/>
  <line x1="10.7819" y1="3.9065" x2="10.7976" y2="3.7894"/>
  <line x1="10.8133" y1="3.6724" x2="10.8289" y2="3.5553"/>
  <line x1="10.8446" y1="3.4382" x2="10.8603" y2="3.3212"/>
  <line x1="10.8759" y1="3.2041" x2="10.8916" y2="3.0871"/>
  <line x1="10.9073" y1="2.9700" x2="10.9230" y2="2.8529"/>
  <line x1="10.9386" y1="2.7359" x2="10.9543" y2="2.6188"/>
  <line x1="10.9700" y1="2.5017" x2="10.9856" y2="2.3847"/>
  <line x1="4.5218" y1="10.0105" x2="4.5682" y2="9.9019"/>
  <line x1="4.6146" y1="9.7933" x2="4.6609" y2="9.6847"/>
  <line x1="4.7073" y1="9.5761" x2="4.7537" y2="9.4674"/>
  <line x1="4.8001" y1="9.3588" x2="4.8465" y2="9.2502"/>
  <line x1="4.8928" y1="9.1416" x2="4.9392" y2="9.0329"/>
  <line x1="4.9856" y1="8.9243" x2="5.0320" y2="8.8157"/>
  <line x1="5.0784" y1="8.7071" x2="5.1247" y2="8.5985"/>
  <line x1="5.1711" y1="8.4898" x2="5.2175" y2="8.3812"/>
  <line x1="5.2639" y1="8.2726" x2="5.3103" y2="8.1640"/>
  <line x1="5.3566" y1="8.0553" x2="5.4030" y2="7.9467"/>
  <line x1="5.4494" y1="7.8381" x2="5.4958" y2="7.7295"/>
  <line x1="5.5422" y1="7.6208" x2="5.5885" y2="7.5122"/>
  <line x1="5.6349" y1="7.4036" x2="5.6813" y2="7.2950"/>
  <line x1="5.7277" y1="7.1864" x2="5.7741" y2="7.0777"/>
  <line x1="5.8205" y1="6.9691" x2="5.8668" y2="6.8605"/>
  <line x1="5.9132" y1="6.7519" x2="5.9596" y2="6.6432"/>
  <line x1="6.0060" y1="6.5346" x2="6.0524" y2="6.4260"/>
  <line x1="6.0987" y1="6.3174" x2="6.1451" y2="6.2088"/>
  <line x1="6.1915" y1="6.1001" x2="6.2379" y2="5.9915"/>
  <line x1="6.2843" y1="5.8829" x2="6.3306" y2="5.7743"/>
  <line x1="6.3770" y1="5.6656" x2="6.4234" y2="5.5570"/>
  <line x1="6.4698" y1="5.4484" x2="6.5162" y2="5.3398"/>
  <line x1="6.5625" y1="5.2311" x2="6.6089" y2="5.1225"/>
  <line x1="6.6553" y1="5.0139" x2="6.7017" y2="4.9053"/>
  <line x1="6.7481" y1="4.7967" x2="6.7944" y2="4.6880"/>
  <line x1="6.8408" y1="4.5794" x2="6.8872" y2="4.4708"/>
  <line x1="6.9336" y1="4.3622" x2="6.9800" y2="4.2535"/>
  <line x1="7.0263" y1="4.1449" x2="7.0727" y2="4.0363"/>
  <line x1="7.1191" y1="3.9277" x2="7.1655" y2="3.8191"/>
  <line x1="7.2119" y1="3.7104" x2="7.2582" y2="3.6018"/>
  <line x1="7.3046" y1="3.4932" x2="7.3510" y2="3.3846"/>
  <line x1="7.3974" y1="3.2759" x2="7.4438" y2="3.1673"/>
  <line x1="7.4901" y1="3.0587" x2="7.5365" y2="2.9501"/>
  <line x1="7.5829" y1="2.8414" x2="7.6293" y2="2.7328"/>
  <line x1="7.6757" y1="2.6242" x2="7.7220" y2="2.5156"/>
  <line x1="7.7684" y1="2.4070" x2="7.8148" y2="2.2983"/>
  <line x1="7.8612" y1="2.1897" x2="7.9076" y2="2.0811"/>
  <line x1="7.9539" y1="1.9725" x2="8.0003" y2="1.8638"/>
  <line x1="8.0467" y1="1.7552" x2="8.0931" y2="1.6466"/>
  <line x1="8.1395" y1="1.5380" x2="8.1858" y2="1.4294"/>
</g>
<g id="score2" stroke="#00a650" fill="none" stroke-width="0.0039">
  <line x1="9.9672" y1="9.9940" x2="10.9870" y2="2.3741"/>
  <line x1="4.5218" y1="10.0105" x2="8.2016" y2="1.3924"/>
</g>
</svg>