0
SECTION
2
ENTITIES
0
POLYLINE
8
CUT
66
1
70
1
0
VERTEX
8
CUT
10
-0.08429
20
245.34473
30
0.0
0
VERTEX
8
CUT
10
12.99550
20
147.62247
30
0.0
0
VERTEX
8
CUT
10
19.70144
20
97.51922
30
0.0
0
VERTEX
8
CUT
10
46.38108
20
62.62814
30
0.0
0
VERTEX
8
CUT
10
54.77464
20
-0.08429
30
0.0
0
VERTEX
8
CUT
10
129.49739
20
9.91675
30
0.0
0
VERTEX
8
CUT
10
129.50034
20
9.89470
30
0.0
0
VERTEX
8
CUT
10
142.36462
20
11.52260
30
0.0
0
VERTEX
8
CUT
10
158.41483
20
12.19644
30
0.0
0
VERTEX
8
CUT
10
174.46504
20
11.52260
30
0.0
0
VERTEX
8
CUT
10
187.32931
20
9.89470
30
0.0
0
VERTEX
8
CUT
10
187.33226
20
9.91675
30
0.0
0
VERTEX
8
CUT
10
262.05501
20
-0.08429
30
0.0
0
VERTEX
8
CUT
10
270.44857
20
62.62814
30
0.0
0
VERTEX
8
CUT
10
297.12822
20
97.51922
30
0.0
0
VERTEX
8
CUT
10
304.33536
20
151.36734
30
0.0
0
VERTEX
8
CUT
10
207.84153
20
164.28232
30
0.0
0
VERTEX
8
CUT
10
207.78391
20
163.85184
30
0.0
0
VERTEX
8
CUT
10
197.89917
20
163.85184
30
0.0
0
VERTEX
8
CUT
10
193.69917
20
168.05184
30
0.0
0
VERTEX
8
CUT
10
178.68376
20
168.05184
30
0.0
0
VERTEX
8
CUT
10
174.48376
20
163.85184
30
0.0
0
VERTEX
8
CUT
10
170.34589
20
163.85184
30
0.0
0
VERTEX
8
CUT
10
166.14589
20
168.05184
30
0.0
0
VERTEX
8
CUT
10
150.68376
20
168.05184
30
0.0
0
VERTEX
8
CUT
10
146.48376
20
163.85184
30
0.0
0
VERTEX
8
CUT
10
142.34589
20
163.85184
30
0.0
0
VERTEX
8
CUT
10
138.14589
20
168.05184
30
0.0
0
VERTEX
8
CUT
10
123.13048
20
168.05184
30
0.0
0
VERTEX
8
CUT
10
118.93048
20
163.85184
30
0.0
0
VERTEX
8
CUT
10
109.04572
20
163.85184
30
0.0
0
VERTEX
8
CUT
10
96.40945
20
258.26048
30
0.0
0
VERTEX
8
CUT
10
72.38899
20
255.04532
30
0.0
0
VERTEX
8
CUT
10
72.52722
20
258.26714
30
0.0
0
VERTEX
8
CUT
10
59.26647
20
256.49218
30
0.0
0
VERTEX
8
CUT
10
60.24714
20
253.42013
30
0.0
0
VERTEX
8
CUT
10
39.22499
20
250.60630
30
0.0
0
VERTEX
8
CUT
10
39.36322
20
253.82812
30
0.0
0
VERTEX
8
CUT
10
26.10247
20
252.05316
30
0.0
0
VERTEX
8
CUT
10
27.08314
20
248.98111
30
0.0
0
VERTEX
8
CUT
10
-0.08429
20
245.34473
30
0.0
0
SEQEND
0
POLYLINE
8
CUT
66
1
70
1
0
VERTEX
8
CUT
10
231.10555
20
154.66109
30
0.0
0
VERTEX
8
CUT
10
243.04904
20
153.06254
30
0.0
0
VERTEX
8
CUT
10
243.47687
20
156.25904
30
0.0
0
VERTEX
8
CUT
10
231.53337
20
157.85758
30
0.0
0
VERTEX
8
CUT
10
231.10555
20
154.66109
30
0.0
0
SEQEND
0
POLYLINE
8
CUT
66
1
70
1
0
VERTEX
8
CUT
10
264.26958
20
150.22233
30
0.0
0
VERTEX
8
CUT
10
276.21308
20
148.62378
30
0.0
0
VERTEX
8
CUT
10
276.64091
20
151.82028
30
0.0
0
VERTEX
8
CUT
10
264.69741
20
153.41882
30
0.0
0
VERTEX
8
CUT
10
264.26958
20
150.22233
30
0.0
0
SEQEND
0
LINE
8
SCORE
10
108.92373
20
164.19803
30
0.0
11
109.18905
21
162.21571
31
0.0
0
LINE
8
SCORE
10
109.32171
20
161.22455
30
0.0
11
109.58703
21
159.24223
31
0.0
0
LINE
8
SCORE
10
109.71969
20
158.25106
30
0.0
11
109.98501
21
156.26874
31
0.0
0
LINE
8
SCORE
10
110.11767
20
155.27758
30
0.0
11
110.38298
21
153.29526
31
0.0
0
LINE
8
SCORE
10
110.51564
20
152.30409
30
0.0
11
110.78096
21
150.32177
31
0.0
0
LINE
8
SCORE
10
110.91362
20
149.33061
30
0.0
11
111.17894
21
147.34828
31
0.0
0
LINE
8
SCORE
10
111.31160
20
146.35712
30
0.0
11
111.57692
21
144.37480
31
0.0
0
LINE
8
SCORE
10
111.70958
20
143.38364
30
0.0
11
111.97489
21
141.40131
31
0.0
0
LINE
8
SCORE
10
112.10755
20
140.41015
30
0.0
11
112.37287
21
138.42783
31
0.0
0
LINE
8
SCORE
10
112.50553
20
137.43667
30
0.0
11
112.77085
21
135.45434
31
0.0
0
LINE
8
SCORE
10
112.90351
20
134.46318
30
0.0
11
113.16883
21
132.48086
31
0.0
0
LINE
8
SCORE
10
113.30149
20
131.48970
30
0.0
11
113.56680
21
129.50737
31
0.0
0
LINE
8
SCORE
10
113.69946
20
128.51621
30
0.0
11
113.96478
21
126.53389
31
0.0
0
LINE
8
SCORE
10
114.09744
20
125.54273
30
0.0
11
114.36276
21
123.56040
31
0.0
0
LINE
8
SCORE
10
114.49542
20
122.56924
30
0.0
11
114.76074
21
120.58692
31
0.0
0
LINE
8
SCORE
10
114.89339
20
119.59576
30
0.0
11
115.15871
21
117.61343
31
0.0
0
LINE
8
SCORE
10
115.29137
20
116.62227
30
0.0
11
115.55669
21
114.63995
31
0.0
0
LINE
8
SCORE
10
115.68935
20
113.64879
30
0.0
11
115.95467
21
111.66646
31
0.0
0
LINE
8
SCORE
10
116.08733
20
110.67530
30
0.0
11
116.35264
21
108.69298
31
0.0
0
LINE
8
SCORE
10
116.48530
20
107.70182
30
0.0
11
116.75062
21
105.71949
31
0.0
0
LINE
8
SCORE
10
116.88328
20
104.72833
30
0.0
11
117.14860
21
102.74601
31
0.0
0
LINE
8
SCORE
10
117.28126
20
101.75485
30
0.0
11
117.54658
21
99.77252
31
0.0
0
LINE
8
SCORE
10
117.67924
20
98.78136
30
0.0
11
117.94455
21
96.79904
31
0.0
0
LINE
8
SCORE
10
118.07721
20
95.80788
30
0.0
11
118.34253
21
93.82555
31
0.0
0
LINE
8
SCORE
10
118.47519
20
92.83439
30
0.0
11
118.74051
21
90.85207
31
0.0
0
LINE
8
SCORE
10
118.87317
20
89.86090
30
0.0
11
119.13849
21
87.87858
31
0.0
0
LINE
8
SCORE
10
119.27115
20
86.88742
30
0.0
11
119.53646
21
84.90510
31
0.0
0
LINE
8
SCORE
10
119.66912
20
83.91393
30
0.0
11
119.93444
21
81.93161
31
0.0
0
LINE
8
SCORE
10
120.06710
20
80.94045
30
0.0
11
120.33242
21
78.95813
31
0.0
0
LINE
8
SCORE
10
120.46508
20
77.96696
30
0.0
11
120.73040
21
75.98464
31
0.0
0
LINE
8
SCORE
10
120.86305
20
74.99348
30
0.0
11
121.12837
21
73.01116
31
0.0
0
LINE
8
SCORE
10
121.26103
20
72.01999
30
0.0
11
121.52635
21
70.03767
31
0.0
0
LINE
8
SCORE
10
121.65901
20
69.04651
30
0.0
11
121.92433
21
67.06419
31
0.0
0
LINE
8
SCORE
10
122.05699
20
66.07302
30
0.0
11
122.32230
21
64.09070
31
0.0
0
LINE
8
SCORE
10
122.45496
20
63.09954
30
0.0
11
122.72028
21
61.11721
31
0.0
0
LINE
8
SCORE
10
122.85294
20
60.12605
30
0.0
11
123.11826
21
58.14373
31
0.0
0
LINE
8
SCORE
10
123.25092
20
57.15257
30
0.0
11
123.51624
21
55.17024
31
0.0
0
LINE
8
SCORE
10
123.64890
20
54.17908
30
0.0
11
123.91421
21
52.19676
31
0.0
0
LINE
8
SCORE
10
124.04687
20
51.20560
30
0.0
11
124.31219
21
49.22327
31
0.0
0
LINE
8
SCORE
10
124.44485
20
48.23211
30
0.0
11
124.71017
21
46.24979
31
0.0
0
LINE
8
SCORE
10
124.84283
20
45.25863
30
0.0
11
125.10815
21
43.27630
31
0.0
0
LINE
8
SCORE
10
125.24081
20
42.28514
30
0.0
11
125.50612
21
40.30282
31
0.0
0
LINE
8
SCORE
10
125.63878
20
39.31166
30
0.0
11
125.90410
21
37.32933
31
0.0
0
LINE
8
SCORE
10
126.03676
20
36.33817
30
0.0
11
126.30208
21
34.35585
31
0.0
0
LINE
8
SCORE
10
126.43474
20
33.36469
30
0.0
11
126.70006
21
31.38236
31
0.0
0
LINE
8
SCORE
10
126.83271
20
30.39120
30
0.0
11
127.09803
21
28.40888
31
0.0
0
LINE
8
SCORE
10
127.23069
20
27.41772
30
0.0
11
127.49601
21
25.43539
31
0.0
0
LINE
8
SCORE
10
127.62867
20
24.44423
30
0.0
11
127.89399
21
22.46191
31
0.0
0
LINE
8
SCORE
10
128.02665
20
21.47075
30
0.0
11
128.29196
21
19.48842
31
0.0
0
LINE
8
SCORE
10
128.42462
20
18.49726
30
0.0
11
128.68994
21
16.51494
31
0.0
0
LINE
8
SCORE
10
128.82260
20
15.52378
30
0.0
11
129.08792
21
13.54145
31
0.0
0
LINE
8
SCORE
10
129.22058
20
12.55029
30
0.0
11
129.48590
21
10.56797
31
0.0
0
LINE
8
SCORE
10
207.90592
20
164.19803
30
0.0
11
207.64060
21
162.21571
31
0.0
0
LINE
8
SCORE
10
207.50794
20
161.22455
30
0.0
11
207.24262
21
159.24223
31
0.0
0
LINE
8
SCORE
10
207.10996
20
158.25106
30
0.0
11
206.84464
21
156.26874
31
0.0
0
LINE
8
SCORE
10
206.71198
20
155.27758
30
0.0
11
206.44667
21
153.29526
31
0.0
0
LINE
8
SCORE
10
206.31401
20
152.30409
30
0.0
11
206.04869
21
150.32177
31
0.0
0
LINE
8
SCORE
10
205.91603
20
149.33061
30
0.0
11
205.65071
21
147.34828
31
0.0
0
LINE
8
SCORE
10
205.51805
20
146.35712
30
0.0
11
205.25273
21
144.37480
31
0.0
0
LINE
8
SCORE
10
205.12007
20
143.38364
30
0.0
11
204.85476
21
141.40131
31
0.0
0
LINE
8
SCORE
10
204.72210
20
140.41015
30
0.0
11
204.45678
21
138.42783
31
0.0
0
LINE
8
SCORE
10
204.32412
20
137.43667
30
0.0
11
204.05880
21
135.45434
31
0.0
0
LINE
8
SCORE
10
203.92614
20
134.46318
30
0.0
11
203.66082
21
132.48086
31
0.0
0
LINE
8
SCORE
10
203.52817
20
131.48970
30
0.0
11
203.26285
21
129.50737
31
0.0
0
LINE
8
SCORE
10
203.13019
20
128.51621
30
0.0
11
202.86487
21
126.53389
31
0.0
0
LINE
8
SCORE
10
202.73221
20
125.54273
30
0.0
11
202.46689
21
123.56040
31
0.0
0
LINE
8
SCORE
10
202.33423
20
122.56924
30
0.0
11
202.06892
21
120.58692
31
0.0
0
LINE
8
SCORE
10
201.93626
20
119.59576
30
0.0
11
201.67094
21
117.61343
31
0.0
0
LINE
8
SCORE
10
201.53828
20
116.62227
30
0.0
11
201.27296
21
114.63995
31
0.0
0
LINE
8
SCORE
10
201.14030
20
113.64879
30
0.0
11
200.87498
21
111.66646
31
0.0
0
LINE
8
SCORE
10
200.74232
20
110.67530
30
0.0
11
200.47701
21
108.69298
31
0.0
0
LINE
8
SCORE
10
200.34435
20
107.70182
30
0.0
11
200.07903
21
105.71949
31
0.0
0
LINE
8
SCORE
10
199.94637
20
104.72833
30
0.0
11
199.68105
21
102.74601
31
0.0
0
LINE
8
SCORE
10
199.54839
20
101.75485
30
0.0
11
199.28307
21
99.77252
31
0.0
0
LINE
8
SCORE
10
199.15041
20
98.78136
30
0.0
11
198.88510
21
96.79904
31
0.0
0
LINE
8
SCORE
10
198.75244
20
95.80788
30
0.0
11
198.48712
21
93.82555
31
0.0
0
LINE
8
SCORE
10
198.35446
20
92.83439
30
0.0
11
198.08914
21
90.85207
31
0.0
0
LINE
8
SCORE
10
197.95648
20
89.86090
30
0.0
11
197.69116
21
87.87858
31
0.0
0
LINE
8
SCORE
10
197.55851
20
86.88742
30
0.0
11
197.29319
21
84.90510
31
0.0
0
LINE
8
SCORE
10
197.16053
20
83.91393
30
0.0
11
196.89521
21
81.93161
31
0.0
0
LINE
8
SCORE
10
196.76255
20
80.94045
30
0.0
11
196.49723
21
78.95813
31
0.0
0
LINE
8
SCORE
10
196.36457
20
77.96696
30
0.0
11
196.09926
21
75.98464
31
0.0
0
LINE
8
SCORE
10
195.96660
20
74.99348
30
0.0
11
195.70128
21
73.01116
31
0.0
0
LINE
8
SCORE
10
195.56862
20
72.01999
30
0.0
11
195.30330
21
70.03767
31
0.0
0
LINE
8
SCORE
10
195.17064
20
69.04651
30
0.0
11
194.90532
21
67.06419
31
0.0
0
LINE
8
SCORE
10
194.77266
20
66.07302
30
0.0
11
194.50735
21
64.09070
31
0.0
0
LINE
8
SCORE
10
194.37469
20
63.09954
30
0.0
11
194.10937
21
61.11721
31
0.0
0
LINE
8
SCORE
10
193.97671
20
60.12605
30
0.0
11
193.71139
21
58.14373
31
0.0
0
LINE
8
SCORE
10
193.57873
20
57.15257
30
0.0
11
193.31341
21
55.17024
31
0.0
0
LINE
8
SCORE
10
193.18076
20
54.17908
30
0.0
11
192.91544
21
52.19676
31
0.0
0
LINE
8
SCORE
10
192.78278
20
51.20560
30
0.0
11
192.51746
21
49.22327
31
0.0
0
LINE
8
SCORE
10
192.38480
20
48.23211
30
0.0
11
192.11948
21
46.24979
31
0.0
0
LINE
8
SCORE
10
191.98682
20
45.25863
30
0.0
11
191.72150
21
43.27630
31
0.0
0
LINE
8
SCORE
10
191.58885
20
42.28514
30
0.0
11
191.32353
21
40.30282
31
0.0
0
LINE
8
SCORE
10
191.19087
20
39.31166
30
0.0
11
190.92555
21
37.32933
31
0.0
0
LINE
8
SCORE
10
190.79289
20
36.33817
30
0.0
11
190.52757
21
34.35585
31
0.0
0
LINE
8
SCORE
10
190.39491
20
33.36469
30
0.0
11
190.12960
21
31.38236
31
0.0
0
LINE
8
SCORE
10
189.99694
20
30.39120
30
0.0
11
189.73162
21
28.40888
31
0.0
0
LINE
8
SCORE
10
189.59896
20
27.41772
30
0.0
11
189.33364
21
25.43539
31
0.0
0
LINE
8
SCORE
10
189.20098
20
24.44423
30
0.0
11
188.93566
21
22.46191
31
0.0
0
LINE
8
SCORE
10
188.80300
20
21.47075
30
0.0
11
188.53769
21
19.48842
31
0.0
0
LINE
8
SCORE
10
188.40503
20
18.49726
30
0.0
11
188.13971
21
16.51494
31
0.0
0
LINE
8
SCORE
10
188.00705
20
15.52378
30
0.0
11
187.74173
21
13.54145
31
0.0
0
LINE
8
SCORE
10
187.60907
20
12.55029
30
0.0
11
187.34375
21
10.56797
31
0.0
0
LINE
8
SCORE
10
112.55201
20
161.02304
30
0.0
11
110.56969
21
160.75772
31
0.0
0
LINE
8
SCORE
10
109.57852
20
160.62506
30
0.0
11
107.59620
21
160.35974
31
0.0
0
LINE
8
SCORE
10
106.60504
20
160.22708
30
0.0
11
104.62272
21
159.96176
31
0.0
0
LINE
8
SCORE
10
103.63155
20
159.82910
30
0.0
11
101.64923
21
159.56378
31
0.0
0
LINE
8
SCORE
10
100.65807
20
159.43112
30
0.0
11
98.67575
21
159.16580
31
0.0
0
LINE
8
SCORE
10
97.68458
20
159.03314
30
0.0
11
95.70226
21
158.76782
31
0.0
0
LINE
8
SCORE
10
94.71110
20
158.63516
30
0.0
11
92.72878
21
158.36984
31
0.0
0
LINE
8
SCORE
10
91.73761
20
158.23718
30
0.0
11
89.75529
21
157.97186
31
0.0
0
LINE
8
SCORE
10
88.76413
20
157.83920
30
0.0
11
86.78181
21
157.57389
31
0.0
0
LINE
8
SCORE
10
85.79064
20
157.44123
30
0.0
11
83.80832
21
157.17591
31
0.0
0
LINE
8
SCORE
10
82.81716
20
157.04325
30
0.0
11
80.83484
21
156.77793
31
0.0
0
LINE
8
SCORE
10
79.84367
20
156.64527
30
0.0
11
77.86135
21
156.37995
31
0.0
0
LINE
8
SCORE
10
76.87019
20
156.24729
30
0.0
11
74.88787
21
155.98197
31
0.0
0
LINE
8
SCORE
10
73.89670
20
155.84931
30
0.0
11
71.91438
21
155.58399
31
0.0
0
LINE
8
SCORE
10
70.92322
20
155.45133
30
0.0
11
68.94090
21
155.18601
31
0.0
0
LINE
8
SCORE
10
67.94973
20
155.05335
30
0.0
11
65.96741
21
154.78803
31
0.0
0
LINE
8
SCORE
10
64.97625
20
154.65537
30
0.0
11
62.99393
21
154.39005
31
0.0
0
LINE
8
SCORE
10
62.00276
20
154.25740
30
0.0
11
60.02044
21
153.99208
31
0.0
0
LINE
8
SCORE
10
59.02928
20
153.85942
30
0.0
11
57.04696
21
153.59410
31
0.0
0
LINE
8
SCORE
10
56.05579
20
153.46144
30
0.0
11
54.07347
21
153.19612
31
0.0
0
LINE
8
SCORE
10
53.08231
20
153.06346
30
0.0
11
51.09999
21
152.79814
31
0.0
0
LINE
8
SCORE
10
50.10882
20
152.66548
30
0.0
11
48.12650
21
152.40016
31
0.0
0
LINE
8
SCORE
10
47.13534
20
152.26750
30
0.0
11
45.15302
21
152.00218
31
0.0
0
LINE
8
SCORE
10
44.16185
20
151.86952
30
0.0
11
42.17953
21
151.60420
31
0.0
0
LINE
8
SCORE
10
41.18837
20
151.47154
30
0.0
11
39.20605
21
151.20622
31
0.0
0
LINE
8
SCORE
10
38.21488
20
151.07356
30
0.0
11
36.23256
21
150.80824
31
0.0
0
LINE
8
SCORE
10
35.24140
20
150.67559
30
0.0
11
33.25908
21
150.41027
31
0.0
0
LINE
8
SCORE
10
32.26791
20
150.27761
30
0.0
11
30.28559
21
150.01229
31
0.0
0
LINE
8
SCORE
10
29.29443
20
149.87963
30
0.0
11
27.31211
21
149.61431
31
0.0
0
LINE
8
SCORE
10
26.32095
20
149.48165
30
0.0
11
24.33862
21
149.21633
31
0.0
0
LINE
8
SCORE
10
23.34746
20
149.08367
30
0.0
11
21.36514
21
148.81835
31
0.0
0
LINE
8
SCORE
10
20.37398
20
148.68569
30
0.0
11
18.39165
21
148.42037
31
0.0
0
LINE
8
SCORE
10
17.40049
20
148.28771
30
0.0
11
15.41817
21
148.02239
31
0.0
0
LINE
8
SCORE
10
14.42701
20
147.88973
30
0.0
11
13.05990
21
147.70676
31
0.0
0
LINE
8
SCORE2
10
108.92373
20
164.19803
30
0.0
11
129.56178
21
10.00103
31
0.0
0
LINE
8
SCORE2
10
207.90592
20
164.19803
30
0.0
11
187.26787
21
10.00103
31
0.0
0
LINE
8
SCORE2
10
112.55201
20
161.02304
30
0.0
11
13.05990
21
147.70676
31
0.0
0
ENDSEC
0
EOF
