0
SECTION
2
ENTITIES
0
POLYLINE
8
CUT
66
1
70
1
0
VERTEX
8
CUT
10
-0.07500
20
192.79043
30
0.0
0
VERTEX
8
CUT
10
21.74023
20
155.00535
30
0.0
0
VERTEX
8
CUT
10
21.74023
20
47.94640
30
0.0
0
VERTEX
8
CUT
10
100.37783
20
47.94640
30
0.0
0
VERTEX
8
CUT
10
113.30632
20
47.44122
30
0.0
0
VERTEX
8
CUT
10
126.15452
20
45.92892
30
0.0
0
VERTEX
8
CUT
10
138.84554
20
43.41868
30
0.0
0
VERTEX
8
CUT
10
151.30199
20
39.92580
30
0.0
0
VERTEX
8
CUT
10
163.44790
20
35.47159
30
0.0
0
VERTEX
8
CUT
10
175.21152
20
30.08214
30
0.0
0
VERTEX
8
CUT
10
227.43960
20
7.78149
30
0.0
0
VERTEX
8
CUT
10
229.20969
20
7.10142
30
0.0
0
VERTEX
8
CUT
10
230.09400
20
6.76141
30
0.0
0
VERTEX
8
CUT
10
231.86244
20
6.08091
30
0.0
0
VERTEX
8
CUT
10
232.74658
20
5.74043
30
0.0
0
VERTEX
8
CUT
10
234.51468
20
5.05902
30
0.0
0
VERTEX
8
CUT
10
235.39864
20
4.71810
30
0.0
0
VERTEX
8
CUT
10
237.16640
20
4.03580
30
0.0
0
VERTEX
8
CUT
10
238.05020
20
3.69444
30
0.0
0
VERTEX
8
CUT
10
239.81763
20
3.01127
30
0.0
0
VERTEX
8
CUT
10
240.70127
20
2.66947
30
0.0
0
VERTEX
8
CUT
10
242.46838
20
1.98545
30
0.0
0
VERTEX
8
CUT
10
243.35185
20
1.64323
30
0.0
0
VERTEX
8
CUT
10
245.11864
20
0.95838
30
0.0
0
VERTEX
8
CUT
10
246.88523
20
0.27299
30
0.0
0
VERTEX
8
CUT
10
247.83608
20
-0.09617
30
0.0
0
VERTEX
8
CUT
10
300.87784
20
124.12778
30
0.0
0
VERTEX
8
CUT
10
337.07437
20
153.34632
30
0.0
0
VERTEX
8
CUT
10
424.50098
20
358.09969
30
0.0
0
VERTEX
8
CUT
10
399.30487
20
368.85805
30
0.0
0
VERTEX
8
CUT
10
401.20053
20
371.50095
30
0.0
0
VERTEX
8
CUT
10
388.61298
20
376.87565
30
0.0
0
VERTEX
8
CUT
10
388.01508
20
373.67862
30
0.0
0
VERTEX
8
CUT
10
368.53285
20
381.99724
30
0.0
0
VERTEX
8
CUT
10
370.42851
20
384.64014
30
0.0
0
VERTEX
8
CUT
10
357.84096
20
390.01484
30
0.0
0
VERTEX
8
CUT
10
357.24306
20
386.81781
30
0.0
0
VERTEX
8
CUT
10
332.04695
20
397.57617
30
0.0
0
VERTEX
8
CUT
10
326.91258
20
385.55145
30
0.0
0
VERTEX
8
CUT
10
328.56799
20
384.84462
30
0.0
0
VERTEX
8
CUT
10
319.45638
20
363.50520
30
0.0
0
VERTEX
8
CUT
10
317.80097
20
364.21204
30
0.0
0
VERTEX
8
CUT
10
316.09279
20
360.21146
30
0.0
0
VERTEX
8
CUT
10
317.74820
20
359.50463
30
0.0
0
VERTEX
8
CUT
10
310.30922
20
342.08254
30
0.0
0
VERTEX
8
CUT
10
308.65381
20
342.78937
30
0.0
0
VERTEX
8
CUT
10
306.94563
20
338.78880
30
0.0
0
VERTEX
8
CUT
10
308.60104
20
338.08196
30
0.0
0
VERTEX
8
CUT
10
303.26075
20
325.57498
30
0.0
0
VERTEX
8
CUT
10
301.60534
20
326.28182
30
0.0
0
VERTEX
8
CUT
10
299.89715
20
322.28124
30
0.0
0
VERTEX
8
CUT
10
301.55256
20
321.57441
30
0.0
0
VERTEX
8
CUT
10
292.26553
20
299.82416
30
0.0
0
VERTEX
8
CUT
10
290.61012
20
300.53099
30
0.0
0
VERTEX
8
CUT
10
288.90194
20
296.53042
30
0.0
0
VERTEX
8
CUT
10
290.55735
20
295.82358
30
0.0
0
VERTEX
8
CUT
10
283.57413
20
279.46886
30
0.0
0
VERTEX
8
CUT
10
281.91872
20
280.17570
30
0.0
0
VERTEX
8
CUT
10
280.21053
20
276.17512
30
0.0
0
VERTEX
8
CUT
10
281.86594
20
275.46829
30
0.0
0
VERTEX
8
CUT
10
274.88272
20
259.11357
30
0.0
0
VERTEX
8
CUT
10
273.22731
20
259.82041
30
0.0
0
VERTEX
8
CUT
10
267.59914
20
246.63954
30
0.0
0
VERTEX
8
CUT
10
253.37321
20
246.63954
30
0.0
0
VERTEX
8
CUT
10
249.17321
20
250.83954
30
0.0
0
VERTEX
8
CUT
10
239.57788
20
250.83954
30
0.0
0
VERTEX
8
CUT
10
235.37788
20
246.63954
30
0.0
0
VERTEX
8
CUT
10
231.24001
20
246.63954
30
0.0
0
VERTEX
8
CUT
10
227.04001
20
250.83954
30
0.0
0
VERTEX
8
CUT
10
217.44468
20
250.83954
30
0.0
0
VERTEX
8
CUT
10
213.24468
20
246.63954
30
0.0
0
VERTEX
8
CUT
10
209.10682
20
246.63954
30
0.0
0
VERTEX
8
CUT
10
204.90682
20
250.83954
30
0.0
0
VERTEX
8
CUT
10
189.44468
20
250.83954
30
0.0
0
VERTEX
8
CUT
10
185.24468
20
246.63954
30
0.0
0
VERTEX
8
CUT
10
181.10682
20
246.63954
30
0.0
0
VERTEX
8
CUT
10
176.90682
20
250.83954
30
0.0
0
VERTEX
8
CUT
10
171.49530
20
250.83954
30
0.0
0
VERTEX
8
CUT
10
167.29530
20
246.63954
30
0.0
0
VERTEX
8
CUT
10
163.15744
20
246.63954
30
0.0
0
VERTEX
8
CUT
10
158.95744
20
250.83954
30
0.0
0
VERTEX
8
CUT
10
148.20150
20
250.83954
30
0.0
0
VERTEX
8
CUT
10
144.00150
20
246.63954
30
0.0
0
VERTEX
8
CUT
10
139.86363
20
246.63954
30
0.0
0
VERTEX
8
CUT
10
135.66363
20
250.83954
30
0.0
0
VERTEX
8
CUT
10
120.64823
20
250.83954
30
0.0
0
VERTEX
8
CUT
10
116.44823
20
246.63954
30
0.0
0
VERTEX
8
CUT
10
-0.07500
20
246.63954
30
0.0
0
VERTEX
8
CUT
10
-0.07500
20
192.79043
30
0.0
0
SEQEND
0
POLYLINE
8
CUT
66
1
70
1
0
VERTEX
8
CUT
10
27.43476
20
240.18954
30
0.0
0
VERTEX
8
CUT
10
39.48476
20
240.18954
30
0.0
0
VERTEX
8
CUT
10
39.48476
20
243.41454
30
0.0
0
VERTEX
8
CUT
10
27.43476
20
243.41454
30
0.0
0
VERTEX
8
CUT
10
27.43476
20
240.18954
30
0.0
0
SEQEND
0
POLYLINE
8
CUT
66
1
70
1
0
VERTEX
8
CUT
10
60.89453
20
240.18954
30
0.0
0
VERTEX
8
CUT
10
72.94453
20
240.18954
30
0.0
0
VERTEX
8
CUT
10
72.94453
20
243.41454
30
0.0
0
VERTEX
8
CUT
10
60.89453
20
243.41454
30
0.0
0
VERTEX
8
CUT
10
60.89453
20
240.18954
30
0.0
0
SEQEND
0
LINE
8
SCORE
10
267.64881
20
246.56454
30
0.0
11
265.68538
21
241.96617
31
0.0
0
LINE
8
SCORE
10
263.72194
20
237.36781
30
0.0
11
261.75851
21
232.76945
31
0.0
0
LINE
8
SCORE
10
259.79508
20
228.17109
30
0.0
11
257.83165
21
223.57272
31
0.0
0
LINE
8
SCORE
10
255.86822
20
218.97436
30
0.0
11
253.90479
21
214.37600
31
0.0
0
LINE
8
SCORE
10
251.94135
20
209.77764
30
0.0
11
249.97792
21
205.17927
31
0.0
0
LINE
8
SCORE
10
248.01449
20
200.58091
30
0.0
11
246.05106
21
195.98255
31
0.0
0
LINE
8
SCORE
10
244.08763
20
191.38419
30
0.0
11
242.12420
21
186.78583
31
0.0
0
LINE
8
SCORE
10
240.16077
20
182.18746
30
0.0
11
238.19733
21
177.58910
31
0.0
0
LINE
8
SCORE
10
236.23390
20
172.99074
30
0.0
11
234.27047
21
168.39238
31
0.0
0
LINE
8
SCORE
10
232.30704
20
163.79401
30
0.0
11
230.34361
21
159.19565
31
0.0
0
LINE
8
SCORE
10
228.38018
20
154.59729
30
0.0
11
226.41674
21
149.99893
31
0.0
0
LINE
8
SCORE
10
224.45331
20
145.40056
30
0.0
11
222.48988
21
140.80220
31
0.0
0
LINE
8
SCORE
10
220.52645
20
136.20384
30
0.0
11
218.56302
21
131.60548
31
0.0
0
LINE
8
SCORE
10
216.59959
20
127.00711
30
0.0
11
214.63615
21
122.40875
31
0.0
0
LINE
8
SCORE
10
212.67272
20
117.81039
30
0.0
11
210.70929
21
113.21203
31
0.0
0
LINE
8
SCORE
10
208.74586
20
108.61367
30
0.0
11
206.78243
21
104.01530
31
0.0
0
LINE
8
SCORE
10
204.81900
20
99.41694
30
0.0
11
202.85556
21
94.81858
31
0.0
0
LINE
8
SCORE
10
200.89213
20
90.22022
30
0.0
11
198.92870
21
85.62185
31
0.0
0
LINE
8
SCORE
10
196.96527
20
81.02349
30
0.0
11
195.00184
21
76.42513
31
0.0
0
LINE
8
SCORE
10
193.03841
20
71.82677
30
0.0
11
191.07498
21
67.22840
31
0.0
0
LINE
8
SCORE
10
189.11154
20
62.63004
30
0.0
11
187.14811
21
58.03168
31
0.0
0
LINE
8
SCORE
10
185.18468
20
53.43332
30
0.0
11
183.22125
21
48.83495
31
0.0
0
LINE
8
SCORE
10
181.25782
20
44.23659
30
0.0
11
179.29439
21
39.63823
31
0.0
0
LINE
8
SCORE
10
177.33095
20
35.03987
30
0.0
11
175.36752
21
30.44151
31
0.0
0
LINE
8
SCORE
10
100.37929
20
48.02140
30
0.0
11
100.37929
21
53.02140
31
0.0
0
LINE
8
SCORE
10
100.37929
20
58.02140
30
0.0
11
100.37929
21
63.02140
31
0.0
0
LINE
8
SCORE
10
100.37929
20
68.02140
30
0.0
11
100.37929
21
73.02140
31
0.0
0
LINE
8
SCORE
10
100.37929
20
78.02140
30
0.0
11
100.37929
21
83.02140
31
0.0
0
LINE
8
SCORE
10
100.37929
20
88.02140
30
0.0
11
100.37929
21
93.02140
31
0.0
0
LINE
8
SCORE
10
100.37929
20
98.02140
30
0.0
11
100.37929
21
103.02140
31
0.0
0
LINE
8
SCORE
10
100.37929
20
108.02140
30
0.0
11
100.37929
21
113.02140
31
0.0
0
LINE
8
SCORE
10
100.37929
20
118.02140
30
0.0
11
100.37929
21
123.02140
31
0.0
0
LINE
8
SCORE
10
100.37929
20
128.02140
30
0.0
11
100.37929
21
133.02140
31
0.0
0
LINE
8
SCORE
10
100.37929
20
138.02140
30
0.0
11
100.37929
21
143.02140
31
0.0
0
LINE
8
SCORE
10
100.37929
20
148.02140
30
0.0
11
100.37929
21
153.02140
31
0.0
0
LINE
8
SCORE
10
100.37929
20
158.02140
30
0.0
11
100.37929
21
163.02140
31
0.0
0
LINE
8
SCORE
10
100.37929
20
168.02140
30
0.0
11
100.37929
21
173.02140
31
0.0
0
LINE
8
SCORE
10
100.37929
20
178.02140
30
0.0
11
100.37929
21
183.02140
31
0.0
0
LINE
8
SCORE
10
100.37929
20
188.02140
30
0.0
11
100.37929
21
193.02140
31
0.0
0
LINE
8
SCORE
10
100.37929
20
198.02140
30
0.0
11
100.37929
21
203.02140
31
0.0
0
LINE
8
SCORE
10
100.37929
20
208.02140
30
0.0
11
100.37929
21
213.02140
31
0.0
0
LINE
8
SCORE
10
100.37929
20
218.02140
30
0.0
11
100.37929
21
223.02140
31
0.0
0
LINE
8
SCORE
10
100.37929
20
228.02140
30
0.0
11
100.37929
21
233.02140
31
0.0
0
LINE
8
SCORE
10
100.37929
20
238.02140
30
0.0
11
100.37929
21
243.02140
31
0.0
0
LINE
8
SCORE
10
359.96488
20
207.14696
30
0.0
11
355.36652
21
209.11039
31
0.0
0
LINE
8
SCORE
10
350.76815
20
211.07383
30
0.0
11
346.16979
21
213.03726
31
0.0
0
LINE
8
SCORE
10
341.57143
20
215.00069
30
0.0
11
336.97307
21
216.96412
31
0.0
0
LINE
8
SCORE
10
332.37470
20
218.92755
30
0.0
11
327.77634
21
220.89098
31
0.0
0
LINE
8
SCORE
10
323.17798
20
222.85441
30
0.0
11
318.57962
21
224.81785
31
0.0
0
LINE
8
SCORE
10
313.98125
20
226.78128
30
0.0
11
309.38289
21
228.74471
31
0.0
0
LINE
8
SCORE
10
304.78453
20
230.70814
30
0.0
11
300.18617
21
232.67157
31
0.0
0
LINE
8
SCORE
10
295.58781
20
234.63500
30
0.0
11
290.98944
21
236.59844
31
0.0
0
LINE
8
SCORE
10
286.39108
20
238.56187
30
0.0
11
281.79272
21
240.52530
31
0.0
0
LINE
8
SCORE
10
277.19436
20
242.48873
30
0.0
11
272.59599
21
244.45216
31
0.0
0
LINE
8
SCORE
10
267.99763
20
246.41559
30
0.0
11
267.64881
21
246.56454
31
0.0
0
LINE
8
SCORE2
10
267.64881
20
246.56454
30
0.0
11
175.24312
21
30.15016
31
0.0
0
LINE
8
SCORE2
10
100.37929
20
48.02140
30
0.0
11
100.37929
21
246.56454
31
0.0
0
LINE
8
SCORE2
10
359.96488
20
207.14696
30
0.0
11
267.64881
21
246.56454
31
0.0
0
ENDSEC
0
EOF
