0
SECTION
2
ENTITIES
0
POLYLINE
8
CUT
66
1
70
1
0
VERTEX
8
CUT
10
0.00000
20
10.86761
30
0.0
0
VERTEX
8
CUT
10
0.28092
20
0.08892
30
0.0
0
VERTEX
8
CUT
10
1.68581
20
0.12554
30
0.0
0
VERTEX
8
CUT
10
1.66685
20
-0.00000
30
0.0
0
VERTEX
8
CUT
10
2.18636
20
0.01354
30
0.0
0
VERTEX
8
CUT
10
2.16089
20
0.13792
30
0.0
0
VERTEX
8
CUT
10
3.32824
20
0.16834
30
0.0
0
VERTEX
8
CUT
10
3.30928
20
0.04281
30
0.0
0
VERTEX
8
CUT
10
3.82879
20
0.05635
30
0.0
0
VERTEX
8
CUT
10
3.80332
20
0.18072
30
0.0
0
VERTEX
8
CUT
10
5.13948
20
0.21555
30
0.0
0
VERTEX
8
CUT
10
4.92977
20
8.26200
30
0.0
0
VERTEX
8
CUT
10
4.96351
20
8.26288
30
0.0
0
VERTEX
8
CUT
10
4.97300
20
7.89874
30
0.0
0
VERTEX
8
CUT
10
5.19945
20
8.00249
30
0.0
0
VERTEX
8
CUT
10
5.30290
20
8.28087
30
0.0
0
VERTEX
8
CUT
10
5.49382
20
8.36834
30
0.0
0
VERTEX
8
CUT
10
5.77220
20
8.26489
30
0.0
0
VERTEX
8
CUT
10
6.20555
20
8.46343
30
0.0
0
VERTEX
8
CUT
10
6.30900
20
8.74181
30
0.0
0
VERTEX
8
CUT
10
6.49991
20
8.82928
30
0.0
0
VERTEX
8
CUT
10
6.77830
20
8.72583
30
0.0
0
VERTEX
8
CUT
10
7.21164
20
8.92437
30
0.0
0
VERTEX
8
CUT
10
7.31509
20
9.20275
30
0.0
0
VERTEX
8
CUT
10
7.50601
20
9.29022
30
0.0
0
VERTEX
8
CUT
10
7.78440
20
9.18677
30
0.0
0
VERTEX
8
CUT
10
8.48443
20
9.50749
30
0.0
0
VERTEX
8
CUT
10
8.58787
20
9.78587
30
0.0
0
VERTEX
8
CUT
10
8.77879
20
9.87334
30
0.0
0
VERTEX
8
CUT
10
9.05718
20
9.76989
30
0.0
0
VERTEX
8
CUT
10
9.30034
20
9.88129
30
0.0
0
VERTEX
8
CUT
10
9.40379
20
10.15968
30
0.0
0
VERTEX
8
CUT
10
9.59471
20
10.24715
30
0.0
0
VERTEX
8
CUT
10
9.87309
20
10.14370
30
0.0
0
VERTEX
8
CUT
10
10.35919
20
10.36640
30
0.0
0
VERTEX
8
CUT
10
10.46264
20
10.64479
30
0.0
0
VERTEX
8
CUT
10
10.65356
20
10.73226
30
0.0
0
VERTEX
8
CUT
10
10.93195
20
10.62881
30
0.0
0
VERTEX
8
CUT
10
11.61167
20
10.94022
30
0.0
0
VERTEX
8
CUT
10
11.71512
20
11.21860
30
0.0
0
VERTEX
8
CUT
10
11.90604
20
11.30607
30
0.0
0
VERTEX
8
CUT
10
12.18442
20
11.20262
30
0.0
0
VERTEX
8
CUT
10
12.42079
20
11.31092
30
0.0
0
VERTEX
8
CUT
10
12.33333
20
11.50183
30
0.0
0
VERTEX
8
CUT
10
16.78257
20
13.54024
30
0.0
0
VERTEX
8
CUT
10
15.66311
20
15.98370
30
0.0
0
VERTEX
8
CUT
10
13.88457
20
17.24696
30
0.0
0
VERTEX
8
CUT
10
11.65613
20
22.11099
30
0.0
0
VERTEX
8
CUT
10
8.19853
20
20.52690
30
0.0
0
VERTEX
8
CUT
10
8.19771
20
20.52869
30
0.0
0
VERTEX
8
CUT
10
8.26555
20
20.55977
30
0.0
0
VERTEX
8
CUT
10
7.71376
20
20.33260
30
0.0
0
VERTEX
8
CUT
10
7.09796
20
20.13368
30
0.0
0
VERTEX
8
CUT
10
6.46850
20
19.98342
30
0.0
0
VERTEX
8
CUT
10
5.82925
20
19.88274
30
0.0
0
VERTEX
8
CUT
10
5.18408
20
19.83224
30
0.0
0
VERTEX
8
CUT
10
4.66199
20
19.83224
30
0.0
0
VERTEX
8
CUT
10
4.66190
20
19.83550
30
0.0
0
VERTEX
8
CUT
10
1.94852
20
19.76478
30
0.0
0
VERTEX
8
CUT
10
1.90124
20
19.76180
30
0.0
0
VERTEX
8
CUT
10
1.85396
20
19.75884
30
0.0
0
VERTEX
8
CUT
10
1.80668
20
19.75588
30
0.0
0
VERTEX
8
CUT
10
1.75940
20
19.75292
30
0.0
0
VERTEX
8
CUT
10
1.71212
20
19.74998
30
0.0
0
VERTEX
8
CUT
10
1.66484
20
19.74704
30
0.0
0
VERTEX
8
CUT
10
1.61756
20
19.74412
30
0.0
0
VERTEX
8
CUT
10
1.57028
20
19.74120
30
0.0
0
VERTEX
8
CUT
10
1.52299
20
19.73828
30
0.0
0
VERTEX
8
CUT
10
1.42843
20
19.73248
30
0.0
0
VERTEX
8
CUT
10
1.38114
20
19.72960
30
0.0
0
VERTEX
8
CUT
10
1.28657
20
19.72384
30
0.0
0
VERTEX
8
CUT
10
1.23929
20
19.72098
30
0.0
0
VERTEX
8
CUT
10
1.14471
20
19.71527
30
0.0
0
VERTEX
8
CUT
10
1.09743
20
19.71242
30
0.0
0
VERTEX
8
CUT
10
1.00285
20
19.70676
30
0.0
0
VERTEX
8
CUT
10
0.95556
20
19.70394
30
0.0
0
VERTEX
8
CUT
10
0.86098
20
19.69832
30
0.0
0
VERTEX
8
CUT
10
1.03687
20
12.94960
30
0.0
0
VERTEX
8
CUT
10
0.00000
20
10.86761
30
0.0
0
SEQEND
0
POLYLINE
8
CUT
66
1
70
1
0
VERTEX
8
CUT
10
13.47109
20
12.30241
30
0.0
0
VERTEX
8
CUT
10
13.52644
20
12.18162
30
0.0
0
VERTEX
8
CUT
10
13.96311
20
12.38167
30
0.0
0
VERTEX
8
CUT
10
13.90776
20
12.50247
30
0.0
0
VERTEX
8
CUT
10
13.47109
20
12.30241
30
0.0
0
SEQEND
0
POLYLINE
8
CUT
66
1
70
1
0
VERTEX
8
CUT
10
14.96478
20
12.98674
30
0.0
0
VERTEX
8
CUT
10
15.02013
20
12.86594
30
0.0
0
VERTEX
8
CUT
10
15.45680
20
13.06600
30
0.0
0
VERTEX
8
CUT
10
15.40145
20
13.18680
30
0.0
0
VERTEX
8
CUT
10
14.96478
20
12.98674
30
0.0
0
SEQEND
0
LINE
8
SCORE
10
4.96351
20
8.26288
30
0.0
11
4.96043
21
8.38095
31
0.0
0
LINE
8
SCORE
10
4.95736
20
8.49902
30
0.0
11
4.95428
21
8.61709
31
0.0
0
LINE
8
SCORE
10
4.95120
20
8.73516
30
0.0
11
4.94813
21
8.85323
31
0.0
0
LINE
8
SCORE
10
4.94505
20
8.97130
30
0.0
11
4.94197
21
9.08937
31
0.0
0
LINE
8
SCORE
10
4.93889
20
9.20744
30
0.0
11
4.93582
21
9.32551
31
0.0
0
LINE
8
SCORE
10
4.93274
20
9.44358
30
0.0
11
4.92966
21
9.56165
31
0.0
0
LINE
8
SCORE
10
4.92659
20
9.67972
30
0.0
11
4.92351
21
9.79779
31
0.0
0
LINE
8
SCORE
10
4.92043
20
9.91586
30
0.0
11
4.91735
21
10.03393
31
0.0
0
LINE
8
SCORE
10
4.91428
20
10.15200
30
0.0
11
4.91120
21
10.27007
31
0.0
0
LINE
8
SCORE
10
4.90812
20
10.38814
30
0.0
11
4.90505
21
10.50621
31
0.0
0
LINE
8
SCORE
10
4.90197
20
10.62428
30
0.0
11
4.89889
21
10.74235
31
0.0
0
LINE
8
SCORE
10
4.89581
20
10.86042
30
0.0
11
4.89274
21
10.97849
31
0.0
0
LINE
8
SCORE
10
4.88966
20
11.09656
30
0.0
11
4.88658
21
11.21463
31
0.0
0
LINE
8
SCORE
10
4.88350
20
11.33270
30
0.0
11
4.88043
21
11.45077
31
0.0
0
LINE
8
SCORE
10
4.87735
20
11.56884
30
0.0
11
4.87427
21
11.68691
31
0.0
0
LINE
8
SCORE
10
4.87120
20
11.80498
30
0.0
11
4.86812
21
11.92305
31
0.0
0
LINE
8
SCORE
10
4.86504
20
12.04112
30
0.0
11
4.86196
21
12.15919
31
0.0
0
LINE
8
SCORE
10
4.85889
20
12.27726
30
0.0
11
4.85581
21
12.39533
31
0.0
0
LINE
8
SCORE
10
4.85273
20
12.51340
30
0.0
11
4.84966
21
12.63147
31
0.0
0
LINE
8
SCORE
10
4.84658
20
12.74954
30
0.0
11
4.84350
21
12.86761
31
0.0
0
LINE
8
SCORE
10
4.84042
20
12.98568
30
0.0
11
4.83735
21
13.10375
31
0.0
0
LINE
8
SCORE
10
4.83427
20
13.22182
30
0.0
11
4.83119
21
13.33990
31
0.0
0
LINE
8
SCORE
10
4.82812
20
13.45797
30
0.0
11
4.82504
21
13.57604
31
0.0
0
LINE
8
SCORE
10
4.82196
20
13.69411
30
0.0
11
4.81888
21
13.81218
31
0.0
0
LINE
8
SCORE
10
4.81581
20
13.93025
30
0.0
11
4.81273
21
14.04832
31
0.0
0
LINE
8
SCORE
10
4.80965
20
14.16639
30
0.0
11
4.80658
21
14.28446
31
0.0
0
LINE
8
SCORE
10
4.80350
20
14.40253
30
0.0
11
4.80042
21
14.52060
31
0.0
0
LINE
8
SCORE
10
4.79734
20
14.63867
30
0.0
11
4.79427
21
14.75674
31
0.0
0
LINE
8
SCORE
10
4.79119
20
14.87481
30
0.0
11
4.78811
21
14.99288
31
0.0
0
LINE
8
SCORE
10
4.78504
20
15.11095
30
0.0
11
4.78196
21
15.22902
31
0.0
0
LINE
8
SCORE
10
4.77888
20
15.34709
30
0.0
11
4.77580
21
15.46516
31
0.0
0
LINE
8
SCORE
10
4.77273
20
15.58323
30
0.0
11
4.76965
21
15.70130
31
0.0
0
LINE
8
SCORE
10
4.76657
20
15.81937
30
0.0
11
4.76350
21
15.93744
31
0.0
0
LINE
8
SCORE
10
4.76042
20
16.05551
30
0.0
11
4.75734
21
16.17358
31
0.0
0
LINE
8
SCORE
10
4.75426
20
16.29165
30
0.0
11
4.75119
21
16.40972
31
0.0
0
LINE
8
SCORE
10
4.74811
20
16.52779
30
0.0
11
4.74503
21
16.64586
31
0.0
0
LINE
8
SCORE
10
4.74195
20
16.76393
30
0.0
11
4.73888
21
16.88200
31
0.0
0
LINE
8
SCORE
10
4.73580
20
17.00007
30
0.0
11
4.73272
21
17.11814
31
0.0
0
LINE
8
SCORE
10
4.72965
20
17.23621
30
0.0
11
4.72657
21
17.35428
31
0.0
0
LINE
8
SCORE
10
4.72349
20
17.47235
30
0.0
11
4.72041
21
17.59042
31
0.0
0
LINE
8
SCORE
10
4.71734
20
17.70849
30
0.0
11
4.71426
21
17.82656
31
0.0
0
LINE
8
SCORE
10
4.71118
20
17.94463
30
0.0
11
4.70811
21
18.06270
31
0.0
0
LINE
8
SCORE
10
4.70503
20
18.18077
30
0.0
11
4.70195
21
18.29884
31
0.0
0
LINE
8
SCORE
10
4.69887
20
18.41691
30
0.0
11
4.69580
21
18.53498
31
0.0
0
LINE
8
SCORE
10
4.69272
20
18.65305
30
0.0
11
4.68964
21
18.77112
31
0.0
0
LINE
8
SCORE
10
4.68657
20
18.88919
30
0.0
11
4.68349
21
19.00726
31
0.0
0
LINE
8
SCORE
10
4.68041
20
19.12533
30
0.0
11
4.67733
21
19.24340
31
0.0
0
LINE
8
SCORE
10
4.67426
20
19.36147
30
0.0
11
4.67118
21
19.47954
31
0.0
0
LINE
8
SCORE
10
4.66810
20
19.59761
30
0.0
11
4.66503
21
19.71568
31
0.0
0
LINE
8
SCORE
10
4.66195
20
19.83375
30
0.0
11
4.66190
21
19.83550
31
0.0
0
LINE
8
SCORE
10
0.07121
20
8.13537
30
0.0
11
0.18928
21
8.13845
31
0.0
0
LINE
8
SCORE
10
0.30735
20
8.14153
30
0.0
11
0.42542
21
8.14461
31
0.0
0
LINE
8
SCORE
10
0.54349
20
8.14768
30
0.0
11
0.66156
21
8.15076
31
0.0
0
LINE
8
SCORE
10
0.77963
20
8.15384
30
0.0
11
0.89770
21
8.15691
31
0.0
0
LINE
8
SCORE
10
1.01577
20
8.15999
30
0.0
11
1.13384
21
8.16307
31
0.0
0
LINE
8
SCORE
10
1.25191
20
8.16615
30
0.0
11
1.36998
21
8.16922
31
0.0
0
LINE
8
SCORE
10
1.48805
20
8.17230
30
0.0
11
1.60612
21
8.17538
31
0.0
0
LINE
8
SCORE
10
1.72419
20
8.17845
30
0.0
11
1.84226
21
8.18153
31
0.0
0
LINE
8
SCORE
10
1.96033
20
8.18461
30
0.0
11
2.07840
21
8.18769
31
0.0
0
LINE
8
SCORE
10
2.19647
20
8.19076
30
0.0
11
2.31454
21
8.19384
31
0.0
0
LINE
8
SCORE
10
2.43261
20
8.19692
30
0.0
11
2.55068
21
8.20000
31
0.0
0
LINE
8
SCORE
10
2.66875
20
8.20307
30
0.0
11
2.78682
21
8.20615
31
0.0
0
LINE
8
SCORE
10
2.90489
20
8.20923
30
0.0
11
3.02296
21
8.21230
31
0.0
0
LINE
8
SCORE
10
3.14103
20
8.21538
30
0.0
11
3.25910
21
8.21846
31
0.0
0
LINE
8
SCORE
10
3.37717
20
8.22154
30
0.0
11
3.49524
21
8.22461
31
0.0
0
LINE
8
SCORE
10
3.61331
20
8.22769
30
0.0
11
3.73138
21
8.23077
31
0.0
0
LINE
8
SCORE
10
3.84945
20
8.23384
30
0.0
11
3.96752
21
8.23692
31
0.0
0
LINE
8
SCORE
10
4.08559
20
8.24000
30
0.0
11
4.20366
21
8.24308
31
0.0
0
LINE
8
SCORE
10
4.32173
20
8.24615
30
0.0
11
4.43980
21
8.24923
31
0.0
0
LINE
8
SCORE
10
4.55787
20
8.25231
30
0.0
11
4.67594
21
8.25538
31
0.0
0
LINE
8
SCORE
10
4.79401
20
8.25846
30
0.0
11
4.91208
21
8.26154
31
0.0
0
LINE
8
SCORE
10
8.19853
20
20.52690
30
0.0
11
8.24772
21
20.41953
31
0.0
0
LINE
8
SCORE
10
8.29692
20
20.31215
30
0.0
11
8.34611
21
20.20477
31
0.0
0
LINE
8
SCORE
10
8.39531
20
20.09739
30
0.0
11
8.44450
21
19.99002
31
0.0
0
LINE
8
SCORE
10
8.49370
20
19.88264
30
0.0
11
8.54289
21
19.77526
31
0.0
0
LINE
8
SCORE
10
8.59209
20
19.66788
30
0.0
11
8.64128
21
19.56051
31
0.0
0
LINE
8
SCORE
10
8.69048
20
19.45313
30
0.0
11
8.73967
21
19.34575
31
0.0
0
LINE
8
SCORE
10
8.78886
20
19.23837
30
0.0
11
8.83806
21
19.13100
31
0.0
0
LINE
8
SCORE
10
8.88725
20
19.02362
30
0.0
11
8.93645
21
18.91624
31
0.0
0
LINE
8
SCORE
10
8.98564
20
18.80886
30
0.0
11
9.03484
21
18.70149
31
0.0
0
LINE
8
SCORE
10
9.08403
20
18.59411
30
0.0
11
9.13323
21
18.48673
31
0.0
0
LINE
8
SCORE
10
9.18242
20
18.37935
30
0.0
11
9.23162
21
18.27198
31
0.0
0
LINE
8
SCORE
10
9.28081
20
18.16460
30
0.0
11
9.33000
21
18.05722
31
0.0
0
LINE
8
SCORE
10
9.37920
20
17.94984
30
0.0
11
9.42839
21
17.84247
31
0.0
0
LINE
8
SCORE
10
9.47759
20
17.73509
30
0.0
11
9.52678
21
17.62771
31
0.0
0
LINE
8
SCORE
10
9.57598
20
17.52033
30
0.0
11
9.62517
21
17.41296
31
0.0
0
LINE
8
SCORE
10
9.67437
20
17.30558
30
0.0
11
9.72356
21
17.19820
31
0.0
0
LINE
8
SCORE
10
9.77276
20
17.09082
30
0.0
11
9.82195
21
16.98345
31
0.0
0
LINE
8
SCORE
10
9.87114
20
16.87607
30
0.0
11
9.92034
21
16.76869
31
0.0
0
LINE
8
SCORE
10
9.96953
20
16.66131
30
0.0
11
10.01873
21
16.55394
31
0.0
0
LINE
8
SCORE
10
10.06792
20
16.44656
30
0.0
11
10.11712
21
16.33918
31
0.0
0
LINE
8
SCORE
10
10.16631
20
16.23180
30
0.0
11
10.21551
21
16.12443
31
0.0
0
LINE
8
SCORE
10
10.26470
20
16.01705
30
0.0
11
10.31390
21
15.90967
31
0.0
0
LINE
8
SCORE
10
10.36309
20
15.80229
30
0.0
11
10.41228
21
15.69492
31
0.0
0
LINE
8
SCORE
10
10.46148
20
15.58754
30
0.0
11
10.51067
21
15.48016
31
0.0
0
LINE
8
SCORE
10
10.55987
20
15.37278
30
0.0
11
10.60906
21
15.26541
31
0.0
0
LINE
8
SCORE
10
10.65826
20
15.15803
30
0.0
11
10.70745
21
15.05065
31
0.0
0
LINE
8
SCORE
10
10.75665
20
14.94327
30
0.0
11
10.80584
21
14.83590
31
0.0
0
LINE
8
SCORE
10
10.85503
20
14.72852
30
0.0
11
10.90423
21
14.62114
31
0.0
0
LINE
8
SCORE
10
10.95342
20
14.51376
30
0.0
11
11.00262
21
14.40639
31
0.0
0
LINE
8
SCORE
10
11.05181
20
14.29901
30
0.0
11
11.10101
21
14.19163
31
0.0
0
LINE
8
SCORE
10
11.15020
20
14.08425
30
0.0
11
11.19940
21
13.97688
31
0.0
0
LINE
8
SCORE
10
11.24859
20
13.86950
30
0.0
11
11.29779
21
13.76212
31
0.0
0
LINE
8
SCORE
10
11.34698
20
13.65474
30
0.0
11
11.39617
21
13.54737
31
0.0
0
LINE
8
SCORE
10
11.44537
20
13.43999
30
0.0
11
11.49456
21
13.33261
31
0.0
0
LINE
8
SCORE
10
11.54376
20
13.22523
30
0.0
11
11.59295
21
13.11786
31
0.0
0
LINE
8
SCORE
10
11.64215
20
13.01048
30
0.0
11
11.69134
21
12.90310
31
0.0
0
LINE
8
SCORE
10
11.74054
20
12.79572
30
0.0
11
11.78973
21
12.68835
31
0.0
0
LINE
8
SCORE
10
11.83893
20
12.58097
30
0.0
11
11.88812
21
12.47359
31
0.0
0
LINE
8
SCORE
10
11.93731
20
12.36621
30
0.0
11
11.98651
21
12.25884
31
0.0
0
LINE
8
SCORE
10
12.03570
20
12.15146
30
0.0
11
12.08490
21
12.04408
31
0.0
0
LINE
8
SCORE
10
12.13409
20
11.93670
30
0.0
11
12.18329
21
11.82933
31
0.0
0
LINE
8
SCORE
10
12.23248
20
11.72195
30
0.0
11
12.28168
21
11.61457
31
0.0
0
LINE
8
SCORE
10
12.33087
20
11.50719
30
0.0
11
12.33333
21
11.50183
31
0.0
0
LINE
8
SCORE2
10
4.96351
20
8.26288
30
0.0
11
4.66190
21
19.83550
31
0.0
0
LINE
8
SCORE2
10
0.07121
20
8.13537
30
0.0
11
4.99850
21
8.26379
31
0.0
0
LINE
8
SCORE2
10
8.19853
20
20.52690
30
0.0
11
12.33333
21
11.50183
31
0.0
0
ENDSEC
0
EOF
