0
SECTION
2
ENTITIES
0
POLYLINE
8
CUT
66
1
70
1
0
VERTEX
8
CUT
10
0.00000
20
9.54235
30
0.0
0
VERTEX
8
CUT
10
1.09076
20
7.65310
30
0.0
0
VERTEX
8
CUT
10
1.09076
20
2.30290
30
0.0
0
VERTEX
8
CUT
10
4.89396
20
2.30290
30
0.0
0
VERTEX
8
CUT
10
4.89396
20
2.30093
30
0.0
0
VERTEX
8
CUT
10
4.81934
20
2.30093
30
0.0
0
VERTEX
8
CUT
10
5.41561
20
2.27763
30
0.0
0
VERTEX
8
CUT
10
6.05831
20
2.20198
30
0.0
0
VERTEX
8
CUT
10
6.69315
20
2.07641
30
0.0
0
VERTEX
8
CUT
10
7.31625
20
1.90169
30
0.0
0
VERTEX
8
CUT
10
7.92382
20
1.67888
30
0.0
0
VERTEX
8
CUT
10
8.39848
20
1.46142
30
0.0
0
VERTEX
8
CUT
10
8.39720
20
1.45842
30
0.0
0
VERTEX
8
CUT
10
10.89347
20
0.39255
30
0.0
0
VERTEX
8
CUT
10
10.93769
20
0.37556
30
0.0
0
VERTEX
8
CUT
10
10.98191
20
0.35857
30
0.0
0
VERTEX
8
CUT
10
11.02613
20
0.34157
30
0.0
0
VERTEX
8
CUT
10
11.07034
20
0.32456
30
0.0
0
VERTEX
8
CUT
10
11.11455
20
0.30754
30
0.0
0
VERTEX
8
CUT
10
11.15876
20
0.29052
30
0.0
0
VERTEX
8
CUT
10
11.20296
20
0.27349
30
0.0
0
VERTEX
8
CUT
10
11.24716
20
0.25645
30
0.0
0
VERTEX
8
CUT
10
11.29136
20
0.23940
30
0.0
0
VERTEX
8
CUT
10
11.37975
20
0.20529
30
0.0
0
VERTEX
8
CUT
10
11.42394
20
0.18822
30
0.0
0
VERTEX
8
CUT
10
11.51232
20
0.15406
30
0.0
0
VERTEX
8
CUT
10
11.55650
20
0.13697
30
0.0
0
VERTEX
8
CUT
10
11.64485
20
0.10277
30
0.0
0
VERTEX
8
CUT
10
11.68903
20
0.08566
30
0.0
0
VERTEX
8
CUT
10
11.77737
20
0.05142
30
0.0
0
VERTEX
8
CUT
10
11.82154
20
0.03428
30
0.0
0
VERTEX
8
CUT
10
11.90986
20
0.00000
30
0.0
0
VERTEX
8
CUT
10
14.56089
20
6.20872
30
0.0
0
VERTEX
8
CUT
10
16.37072
20
7.66965
30
0.0
0
VERTEX
8
CUT
10
20.60480
20
17.58588
30
0.0
0
VERTEX
8
CUT
10
19.28473
20
18.14953
30
0.0
0
VERTEX
8
CUT
10
19.35425
20
18.25576
30
0.0
0
VERTEX
8
CUT
10
18.87631
20
18.45983
30
0.0
0
VERTEX
8
CUT
10
18.84766
20
18.33615
30
0.0
0
VERTEX
8
CUT
10
17.74613
20
18.80648
30
0.0
0
VERTEX
8
CUT
10
17.81565
20
18.91272
30
0.0
0
VERTEX
8
CUT
10
17.33771
20
19.11679
30
0.0
0
VERTEX
8
CUT
10
17.30906
20
18.99311
30
0.0
0
VERTEX
8
CUT
10
16.13499
20
19.49442
30
0.0
0
VERTEX
8
CUT
10
12.97419
20
12.09180
30
0.0
0
VERTEX
8
CUT
10
12.94315
20
12.10506
30
0.0
0
VERTEX
8
CUT
10
12.99652
20
12.23006
30
0.0
0
VERTEX
8
CUT
10
12.41711
20
12.23006
30
0.0
0
VERTEX
8
CUT
10
12.20711
20
12.44006
30
0.0
0
VERTEX
8
CUT
10
11.73045
20
12.44006
30
0.0
0
VERTEX
8
CUT
10
11.52045
20
12.23006
30
0.0
0
VERTEX
8
CUT
10
11.31045
20
12.23006
30
0.0
0
VERTEX
8
CUT
10
11.10045
20
12.44006
30
0.0
0
VERTEX
8
CUT
10
10.62379
20
12.44006
30
0.0
0
VERTEX
8
CUT
10
10.41379
20
12.23006
30
0.0
0
VERTEX
8
CUT
10
10.20379
20
12.23006
30
0.0
0
VERTEX
8
CUT
10
9.99379
20
12.44006
30
0.0
0
VERTEX
8
CUT
10
9.22379
20
12.44006
30
0.0
0
VERTEX
8
CUT
10
9.01379
20
12.23006
30
0.0
0
VERTEX
8
CUT
10
8.80379
20
12.23006
30
0.0
0
VERTEX
8
CUT
10
8.59379
20
12.44006
30
0.0
0
VERTEX
8
CUT
10
8.32632
20
12.44006
30
0.0
0
VERTEX
8
CUT
10
8.11632
20
12.23006
30
0.0
0
VERTEX
8
CUT
10
7.90632
20
12.23006
30
0.0
0
VERTEX
8
CUT
10
7.69632
20
12.44006
30
0.0
0
VERTEX
8
CUT
10
7.16163
20
12.44006
30
0.0
0
VERTEX
8
CUT
10
6.95163
20
12.23006
30
0.0
0
VERTEX
8
CUT
10
6.74163
20
12.23006
30
0.0
0
VERTEX
8
CUT
10
6.53163
20
12.44006
30
0.0
0
VERTEX
8
CUT
10
5.78396
20
12.44006
30
0.0
0
VERTEX
8
CUT
10
5.57396
20
12.23006
30
0.0
0
VERTEX
8
CUT
10
0.00000
20
12.23006
30
0.0
0
VERTEX
8
CUT
10
0.00000
20
9.54235
30
0.0
0
SEQEND
0
POLYLINE
8
CUT
66
1
70
1
0
VERTEX
8
CUT
10
1.43283
20
11.97612
30
0.0
0
VERTEX
8
CUT
10
1.91315
20
11.97612
30
0.0
0
VERTEX
8
CUT
10
1.91315
20
12.10899
30
0.0
0
VERTEX
8
CUT
10
1.43283
20
12.10899
30
0.0
0
VERTEX
8
CUT
10
1.43283
20
11.97612
30
0.0
0
SEQEND
0
POLYLINE
8
CUT
66
1
70
1
0
VERTEX
8
CUT
10
3.10582
20
11.97612
30
0.0
0
VERTEX
8
CUT
10
3.58613
20
11.97612
30
0.0
0
VERTEX
8
CUT
10
3.58613
20
12.10899
30
0.0
0
VERTEX
8
CUT
10
3.10582
20
12.10899
30
0.0
0
VERTEX
8
CUT
10
3.10582
20
11.97612
30
0.0
0
SEQEND
0
LINE
8
SCORE
10
12.94315
20
12.10506
30
0.0
11
12.89677
21
11.99643
31
0.0
0
LINE
8
SCORE
10
12.85039
20
11.88781
30
0.0
11
12.80401
21
11.77919
31
0.0
0
LINE
8
SCORE
10
12.75763
20
11.67056
30
0.0
11
12.71125
21
11.56194
31
0.0
0
LINE
8
SCORE
10
12.66487
20
11.45332
30
0.0
11
12.61849
21
11.34470
31
0.0
0
LINE
8
SCORE
10
12.57211
20
11.23607
30
0.0
11
12.52573
21
11.12745
31
0.0
0
LINE
8
SCORE
10
12.47935
20
11.01883
30
0.0
11
12.43297
21
10.91021
31
0.0
0
LINE
8
SCORE
10
12.38659
20
10.80158
30
0.0
11
12.34021
21
10.69296
31
0.0
0
LINE
8
SCORE
10
12.29383
20
10.58434
30
0.0
11
12.24745
21
10.47571
31
0.0
0
LINE
8
SCORE
10
12.20106
20
10.36709
30
0.0
11
12.15468
21
10.25847
31
0.0
0
LINE
8
SCORE
10
12.10830
20
10.14985
30
0.0
11
12.06192
21
10.04122
31
0.0
0
LINE
8
SCORE
10
12.01554
20
9.93260
30
0.0
11
11.96916
21
9.82398
31
0.0
0
LINE
8
SCORE
10
11.92278
20
9.71536
30
0.0
11
11.87640
21
9.60673
31
0.0
0
LINE
8
SCORE
10
11.83002
20
9.49811
30
0.0
11
11.78364
21
9.38949
31
0.0
0
LINE
8
SCORE
10
11.73726
20
9.28086
30
0.0
11
11.69088
21
9.17224
31
0.0
0
LINE
8
SCORE
10
11.64450
20
9.06362
30
0.0
11
11.59812
21
8.95500
31
0.0
0
LINE
8
SCORE
10
11.55174
20
8.84637
30
0.0
11
11.50536
21
8.73775
31
0.0
0
LINE
8
SCORE
10
11.45898
20
8.62913
30
0.0
11
11.41260
21
8.52051
31
0.0
0
LINE
8
SCORE
10
11.36622
20
8.41188
30
0.0
11
11.31984
21
8.30326
31
0.0
0
LINE
8
SCORE
10
11.27346
20
8.19464
30
0.0
11
11.22708
21
8.08601
31
0.0
0
LINE
8
SCORE
10
11.18070
20
7.97739
30
0.0
11
11.13432
21
7.86877
31
0.0
0
LINE
8
SCORE
10
11.08794
20
7.76015
30
0.0
11
11.04156
21
7.65152
31
0.0
0
LINE
8
SCORE
10
10.99518
20
7.54290
30
0.0
11
10.94880
21
7.43428
31
0.0
0
LINE
8
SCORE
10
10.90242
20
7.32565
30
0.0
11
10.85604
21
7.21703
31
0.0
0
LINE
8
SCORE
10
10.80966
20
7.10841
30
0.0
11
10.76328
21
6.99979
31
0.0
0
LINE
8
SCORE
10
10.71690
20
6.89116
30
0.0
11
10.67052
21
6.78254
31
0.0
0
LINE
8
SCORE
10
10.62414
20
6.67392
30
0.0
11
10.57776
21
6.56530
31
0.0
0
LINE
8
SCORE
10
10.53138
20
6.45667
30
0.0
11
10.48499
21
6.34805
31
0.0
0
LINE
8
SCORE
10
10.43861
20
6.23943
30
0.0
11
10.39223
21
6.13080
31
0.0
0
LINE
8
SCORE
10
10.34585
20
6.02218
30
0.0
11
10.29947
21
5.91356
31
0.0
0
LINE
8
SCORE
10
10.25309
20
5.80494
30
0.0
11
10.20671
21
5.69631
31
0.0
0
LINE
8
SCORE
10
10.16033
20
5.58769
30
0.0
11
10.11395
21
5.47907
31
0.0
0
LINE
8
SCORE
10
10.06757
20
5.37045
30
0.0
11
10.02119
21
5.26182
31
0.0
0
LINE
8
SCORE
10
9.97481
20
5.15320
30
0.0
11
9.92843
21
5.04458
31
0.0
0
LINE
8
SCORE
10
9.88205
20
4.93595
30
0.0
11
9.83567
21
4.82733
31
0.0
0
LINE
8
SCORE
10
9.78929
20
4.71871
30
0.0
11
9.74291
21
4.61009
31
0.0
0
LINE
8
SCORE
10
9.69653
20
4.50146
30
0.0
11
9.65015
21
4.39284
31
0.0
0
LINE
8
SCORE
10
9.60377
20
4.28422
30
0.0
11
9.55739
21
4.17560
31
0.0
0
LINE
8
SCORE
10
9.51101
20
4.06697
30
0.0
11
9.46463
21
3.95835
31
0.0
0
LINE
8
SCORE
10
9.41825
20
3.84973
30
0.0
11
9.37187
21
3.74110
31
0.0
0
LINE
8
SCORE
10
9.32549
20
3.63248
30
0.0
11
9.27911
21
3.52386
31
0.0
0
LINE
8
SCORE
10
9.23273
20
3.41524
30
0.0
11
9.18635
21
3.30661
31
0.0
0
LINE
8
SCORE
10
9.13997
20
3.19799
30
0.0
11
9.09359
21
3.08937
31
0.0
0
LINE
8
SCORE
10
9.04721
20
2.98075
30
0.0
11
9.00083
21
2.87212
31
0.0
0
LINE
8
SCORE
10
8.95445
20
2.76350
30
0.0
11
8.90807
21
2.65488
31
0.0
0
LINE
8
SCORE
10
8.86169
20
2.54625
30
0.0
11
8.81530
21
2.43763
31
0.0
0
LINE
8
SCORE
10
8.76892
20
2.32901
30
0.0
11
8.72254
21
2.22039
31
0.0
0
LINE
8
SCORE
10
8.67616
20
2.11176
30
0.0
11
8.62978
21
2.00314
31
0.0
0
LINE
8
SCORE
10
8.58340
20
1.89452
30
0.0
11
8.53702
21
1.78590
31
0.0
0
LINE
8
SCORE
10
8.49064
20
1.67727
30
0.0
11
8.44426
21
1.56865
31
0.0
0
LINE
8
SCORE
10
4.89396
20
2.30290
30
0.0
11
4.89396
21
2.42101
31
0.0
0
LINE
8
SCORE
10
4.89396
20
2.53912
30
0.0
11
4.89396
21
2.65723
31
0.0
0
LINE
8
SCORE
10
4.89396
20
2.77534
30
0.0
11
4.89396
21
2.89345
31
0.0
0
LINE
8
SCORE
10
4.89396
20
3.01156
30
0.0
11
4.89396
21
3.12967
31
0.0
0
LINE
8
SCORE
10
4.89396
20
3.24778
30
0.0
11
4.89396
21
3.36589
31
0.0
0
LINE
8
SCORE
10
4.89396
20
3.48400
30
0.0
11
4.89396
21
3.60211
31
0.0
0
LINE
8
SCORE
10
4.89396
20
3.72022
30
0.0
11
4.89396
21
3.83833
31
0.0
0
LINE
8
SCORE
10
4.89396
20
3.95644
30
0.0
11
4.89396
21
4.07455
31
0.0
0
LINE
8
SCORE
10
4.89396
20
4.19266
30
0.0
11
4.89396
21
4.31077
31
0.0
0
LINE
8
SCORE
10
4.89396
20
4.42888
30
0.0
11
4.89396
21
4.54699
31
0.0
0
LINE
8
SCORE
10
4.89396
20
4.66510
30
0.0
11
4.89396
21
4.78321
31
0.0
0
LINE
8
SCORE
10
4.89396
20
4.90132
30
0.0
11
4.89396
21
5.01943
31
0.0
0
LINE
8
SCORE
10
4.89396
20
5.13754
30
0.0
11
4.89396
21
5.25565
31
0.0
0
LINE
8
SCORE
10
4.89396
20
5.37376
30
0.0
11
4.89396
21
5.49187
31
0.0
0
LINE
8
SCORE
10
4.89396
20
5.60998
30
0.0
11
4.89396
21
5.72810
31
0.0
0
LINE
8
SCORE
10
4.89396
20
5.84621
30
0.0
11
4.89396
21
5.96432
31
0.0
0
LINE
8
SCORE
10
4.89396
20
6.08243
30
0.0
11
4.89396
21
6.20054
31
0.0
0
LINE
8
SCORE
10
4.89396
20
6.31865
30
0.0
11
4.89396
21
6.43676
31
0.0
0
LINE
8
SCORE
10
4.89396
20
6.55487
30
0.0
11
4.89396
21
6.67298
31
0.0
0
LINE
8
SCORE
10
4.89396
20
6.79109
30
0.0
11
4.89396
21
6.90920
31
0.0
0
LINE
8
SCORE
10
4.89396
20
7.02731
30
0.0
11
4.89396
21
7.14542
31
0.0
0
LINE
8
SCORE
10
4.89396
20
7.26353
30
0.0
11
4.89396
21
7.38164
31
0.0
0
LINE
8
SCORE
10
4.89396
20
7.49975
30
0.0
11
4.89396
21
7.61786
31
0.0
0
LINE
8
SCORE
10
4.89396
20
7.73597
30
0.0
11
4.89396
21
7.85408
31
0.0
0
LINE
8
SCORE
10
4.89396
20
7.97219
30
0.0
11
4.89396
21
8.09030
31
0.0
0
LINE
8
SCORE
10
4.89396
20
8.20841
30
0.0
11
4.89396
21
8.32652
31
0.0
0
LINE
8
SCORE
10
4.89396
20
8.44463
30
0.0
11
4.89396
21
8.56274
31
0.0
0
LINE
8
SCORE
10
4.89396
20
8.68085
30
0.0
11
4.89396
21
8.79896
31
0.0
0
LINE
8
SCORE
10
4.89396
20
8.91707
30
0.0
11
4.89396
21
9.03518
31
0.0
0
LINE
8
SCORE
10
4.89396
20
9.15329
30
0.0
11
4.89396
21
9.27140
31
0.0
0
LINE
8
SCORE
10
4.89396
20
9.38951
30
0.0
11
4.89396
21
9.50762
31
0.0
0
LINE
8
SCORE
10
4.89396
20
9.62573
30
0.0
11
4.89396
21
9.74384
31
0.0
0
LINE
8
SCORE
10
4.89396
20
9.86195
30
0.0
11
4.89396
21
9.98006
31
0.0
0
LINE
8
SCORE
10
4.89396
20
10.09817
30
0.0
11
4.89396
21
10.21628
31
0.0
0
LINE
8
SCORE
10
4.89396
20
10.33439
30
0.0
11
4.89396
21
10.45250
31
0.0
0
LINE
8
SCORE
10
4.89396
20
10.57061
30
0.0
11
4.89396
21
10.68873
31
0.0
0
LINE
8
SCORE
10
4.89396
20
10.80684
30
0.0
11
4.89396
21
10.92495
31
0.0
0
LINE
8
SCORE
10
4.89396
20
11.04306
30
0.0
11
4.89396
21
11.16117
31
0.0
0
LINE
8
SCORE
10
4.89396
20
11.27928
30
0.0
11
4.89396
21
11.39739
31
0.0
0
LINE
8
SCORE
10
4.89396
20
11.51550
30
0.0
11
4.89396
21
11.63361
31
0.0
0
LINE
8
SCORE
10
4.89396
20
11.75172
30
0.0
11
4.89396
21
11.86983
31
0.0
0
LINE
8
SCORE
10
4.89396
20
11.98794
30
0.0
11
4.89396
21
12.10605
31
0.0
0
LINE
8
SCORE
10
4.89396
20
12.22416
30
0.0
11
4.89396
21
12.23006
31
0.0
0
LINE
8
SCORE
10
17.44399
20
10.18326
30
0.0
11
17.33537
21
10.22964
31
0.0
0
LINE
8
SCORE
10
17.22675
20
10.27602
30
0.0
11
17.11813
21
10.32240
31
0.0
0
LINE
8
SCORE
10
17.00950
20
10.36878
30
0.0
11
16.90088
21
10.41516
31
0.0
0
LINE
8
SCORE
10
16.79226
20
10.46154
30
0.0
11
16.68363
21
10.50792
31
0.0
0
LINE
8
SCORE
10
16.57501
20
10.55430
30
0.0
11
16.46639
21
10.60068
31
0.0
0
LINE
8
SCORE
10
16.35777
20
10.64707
30
0.0
11
16.24914
21
10.69345
31
0.0
0
LINE
8
SCORE
10
16.14052
20
10.73983
30
0.0
11
16.03190
21
10.78621
31
0.0
0
LINE
8
SCORE
10
15.92328
20
10.83259
30
0.0
11
15.81465
21
10.87897
31
0.0
0
LINE
8
SCORE
10
15.70603
20
10.92535
30
0.0
11
15.59741
21
10.97173
31
0.0
0
LINE
8
SCORE
10
15.48878
20
11.01811
30
0.0
11
15.38016
21
11.06449
31
0.0
0
LINE
8
SCORE
10
15.27154
20
11.11087
30
0.0
11
15.16292
21
11.15725
31
0.0
0
LINE
8
SCORE
10
15.05429
20
11.20363
30
0.0
11
14.94567
21
11.25001
31
0.0
0
LINE
8
SCORE
10
14.83705
20
11.29639
30
0.0
11
14.72843
21
11.34277
31
0.0
0
LINE
8
SCORE
10
14.61980
20
11.38915
30
0.0
11
14.51118
21
11.43553
31
0.0
0
LINE
8
SCORE
10
14.40256
20
11.48191
30
0.0
11
14.29393
21
11.52829
31
0.0
0
LINE
8
SCORE
10
14.18531
20
11.57467
30
0.0
11
14.07669
21
11.62105
31
0.0
0
LINE
8
SCORE
10
13.96807
20
11.66743
30
0.0
11
13.85944
21
11.71381
31
0.0
0
LINE
8
SCORE
10
13.75082
20
11.76019
30
0.0
11
13.64220
21
11.80657
31
0.0
0
LINE
8
SCORE
10
13.53358
20
11.85295
30
0.0
11
13.42495
21
11.89933
31
0.0
0
LINE
8
SCORE
10
13.31633
20
11.94571
30
0.0
11
13.20771
21
11.99209
31
0.0
0
LINE
8
SCORE
10
13.09908
20
12.03847
30
0.0
11
12.99046
21
12.08485
31
0.0
0
LINE
8
SCORE2
10
12.94315
20
12.10506
30
0.0
11
8.39848
21
1.46142
31
0.0
0
LINE
8
SCORE2
10
4.89396
20
2.30290
30
0.0
11
4.89396
21
12.23006
31
0.0
0
LINE
8
SCORE2
10
17.44399
20
10.18326
30
0.0
11
12.95064
21
12.10186
31
0.0
0
ENDSEC
0
EOF
