0
SECTION
2
ENTITIES
0
POLYLINE
8
CUT
66
1
70
1
0
VERTEX
8
CUT
10
-0.09843
20
162.79632
30
0.0
0
VERTEX
8
CUT
10
22.12194
20
110.75616
30
0.0
0
VERTEX
8
CUT
10
58.31847
20
81.53762
30
0.0
0
VERTEX
8
CUT
10
93.17481
20
-0.09604
30
0.0
0
VERTEX
8
CUT
10
95.63809
20
0.85472
30
0.0
0
VERTEX
8
CUT
10
98.03413
20
1.77854
30
0.0
0
VERTEX
8
CUT
10
100.43050
20
2.70149
30
0.0
0
VERTEX
8
CUT
10
102.82722
20
3.62354
30
0.0
0
VERTEX
8
CUT
10
105.22428
20
4.54468
30
0.0
0
VERTEX
8
CUT
10
107.62169
20
5.46489
30
0.0
0
VERTEX
8
CUT
10
110.01946
20
6.38416
30
0.0
0
VERTEX
8
CUT
10
112.41760
20
7.30247
30
0.0
0
VERTEX
8
CUT
10
114.81611
20
8.21979
30
0.0
0
VERTEX
8
CUT
10
117.21501
20
9.13612
30
0.0
0
VERTEX
8
CUT
10
119.61428
20
10.05143
30
0.0
0
VERTEX
8
CUT
10
122.01395
20
10.96571
30
0.0
0
VERTEX
8
CUT
10
124.41402
20
11.87894
30
0.0
0
VERTEX
8
CUT
10
126.81450
20
12.79110
30
0.0
0
VERTEX
8
CUT
10
129.21539
20
13.70218
30
0.0
0
VERTEX
8
CUT
10
131.61670
20
14.61215
30
0.0
0
VERTEX
8
CUT
10
134.01843
20
15.52101
30
0.0
0
VERTEX
8
CUT
10
136.42060
20
16.42873
30
0.0
0
VERTEX
8
CUT
10
138.82320
20
17.33529
30
0.0
0
VERTEX
8
CUT
10
141.22625
20
18.24068
30
0.0
0
VERTEX
8
CUT
10
143.62976
20
19.14488
30
0.0
0
VERTEX
8
CUT
10
146.03372
20
20.04788
30
0.0
0
VERTEX
8
CUT
10
148.43974
20
20.95024
30
0.0
0
VERTEX
8
CUT
10
163.56729
20
27.40948
30
0.0
0
VERTEX
8
CUT
10
163.49324
20
27.58289
30
0.0
0
VERTEX
8
CUT
10
174.96860
20
33.29042
30
0.0
0
VERTEX
8
CUT
10
189.90109
20
39.21359
30
0.0
0
VERTEX
8
CUT
10
205.27751
20
43.86429
30
0.0
0
VERTEX
8
CUT
10
220.71906
20
47.15219
30
0.0
0
VERTEX
8
CUT
10
220.71544
20
47.17313
30
0.0
0
VERTEX
8
CUT
10
292.63722
20
56.79929
30
0.0
0
VERTEX
8
CUT
10
284.24366
20
119.51172
30
0.0
0
VERTEX
8
CUT
10
300.80885
20
160.19078
30
0.0
0
VERTEX
8
CUT
10
293.84262
20
212.23890
30
0.0
0
VERTEX
8
CUT
10
200.57391
20
199.75567
30
0.0
0
VERTEX
8
CUT
10
200.57390
20
199.75581
30
0.0
0
VERTEX
8
CUT
10
89.97799
20
199.75581
30
0.0
0
VERTEX
8
CUT
10
89.43564
20
201.02602
30
0.0
0
VERTEX
8
CUT
10
-0.09843
20
162.79632
30
0.0
0
SEQEND
0
LINE
8
SCORE
10
197.69836
20
197.27730
30
0.0
11
198.09634
21
194.30382
31
0.0
0
LINE
8
SCORE
10
198.16267
20
193.80823
30
0.0
11
198.56064
21
190.83475
31
0.0
0
LINE
8
SCORE
10
198.62697
20
190.33917
30
0.0
11
199.02495
21
187.36568
31
0.0
0
LINE
8
SCORE
10
199.09128
20
186.87010
30
0.0
11
199.48926
21
183.89662
31
0.0
0
LINE
8
SCORE
10
199.55559
20
183.40104
30
0.0
11
199.95356
21
180.42755
31
0.0
0
LINE
8
SCORE
10
200.01989
20
179.93197
30
0.0
11
200.41787
21
176.95849
31
0.0
0
LINE
8
SCORE
10
200.48420
20
176.46290
30
0.0
11
200.88218
21
173.48942
31
0.0
0
LINE
8
SCORE
10
200.94851
20
172.99384
30
0.0
11
201.34649
21
170.02035
31
0.0
0
LINE
8
SCORE
10
201.41281
20
169.52477
30
0.0
11
201.81079
21
166.55129
31
0.0
0
LINE
8
SCORE
10
201.87712
20
166.05571
30
0.0
11
202.27510
21
163.08222
31
0.0
0
LINE
8
SCORE
10
202.34143
20
162.58664
30
0.0
11
202.73941
21
159.61316
31
0.0
0
LINE
8
SCORE
10
202.80574
20
159.11757
30
0.0
11
203.20371
21
156.14409
31
0.0
0
LINE
8
SCORE
10
203.27004
20
155.64851
30
0.0
11
203.66802
21
152.67502
31
0.0
0
LINE
8
SCORE
10
203.73435
20
152.17944
30
0.0
11
204.13233
21
149.20596
31
0.0
0
LINE
8
SCORE
10
204.19866
20
148.71038
30
0.0
11
204.59663
21
145.73689
31
0.0
0
LINE
8
SCORE
10
204.66296
20
145.24131
30
0.0
11
205.06094
21
142.26782
31
0.0
0
LINE
8
SCORE
10
205.12727
20
141.77224
30
0.0
11
205.52525
21
138.79876
31
0.0
0
LINE
8
SCORE
10
205.59158
20
138.30318
30
0.0
11
205.98955
21
135.32969
31
0.0
0
LINE
8
SCORE
10
206.05588
20
134.83411
30
0.0
11
206.45386
21
131.86063
31
0.0
0
LINE
8
SCORE
10
206.52019
20
131.36505
30
0.0
11
206.91817
21
128.39156
31
0.0
0
LINE
8
SCORE
10
206.98450
20
127.89598
30
0.0
11
207.38247
21
124.92249
31
0.0
0
LINE
8
SCORE
10
207.44880
20
124.42691
30
0.0
11
207.84678
21
121.45343
31
0.0
0
LINE
8
SCORE
10
207.91311
20
120.95785
30
0.0
11
208.31109
21
117.98436
31
0.0
0
LINE
8
SCORE
10
208.37742
20
117.48878
30
0.0
11
208.77540
21
114.51530
31
0.0
0
LINE
8
SCORE
10
208.84173
20
114.01972
30
0.0
11
209.23970
21
111.04623
31
0.0
0
LINE
8
SCORE
10
209.30603
20
110.55065
30
0.0
11
209.70401
21
107.57716
31
0.0
0
LINE
8
SCORE
10
209.77034
20
107.08158
30
0.0
11
210.16832
21
104.10810
31
0.0
0
LINE
8
SCORE
10
210.23465
20
103.61252
30
0.0
11
210.63262
21
100.63903
31
0.0
0
LINE
8
SCORE
10
210.69895
20
100.14345
30
0.0
11
211.09693
21
97.16997
31
0.0
0
LINE
8
SCORE
10
211.16326
20
96.67439
30
0.0
11
211.56124
21
93.70090
31
0.0
0
LINE
8
SCORE
10
211.62757
20
93.20532
30
0.0
11
212.02554
21
90.23183
31
0.0
0
LINE
8
SCORE
10
212.09187
20
89.73625
30
0.0
11
212.48985
21
86.76277
31
0.0
0
LINE
8
SCORE
10
212.55618
20
86.26719
30
0.0
11
212.95416
21
83.29370
31
0.0
0
LINE
8
SCORE
10
213.02049
20
82.79812
30
0.0
11
213.41846
21
79.82464
31
0.0
0
LINE
8
SCORE
10
213.48479
20
79.32906
30
0.0
11
213.88277
21
76.35557
31
0.0
0
LINE
8
SCORE
10
213.94910
20
75.85999
30
0.0
11
214.34708
21
72.88650
31
0.0
0
LINE
8
SCORE
10
214.41341
20
72.39092
30
0.0
11
214.81139
21
69.41744
31
0.0
0
LINE
8
SCORE
10
214.87771
20
68.92186
30
0.0
11
215.27569
21
65.94837
31
0.0
0
LINE
8
SCORE
10
215.34202
20
65.45279
30
0.0
11
215.74000
21
62.47931
31
0.0
0
LINE
8
SCORE
10
215.80633
20
61.98373
30
0.0
11
216.20431
21
59.01024
31
0.0
0
LINE
8
SCORE
10
216.27064
20
58.51466
30
0.0
11
216.66861
21
55.54117
31
0.0
0
LINE
8
SCORE
10
216.73494
20
55.04559
30
0.0
11
217.13292
21
52.07211
31
0.0
0
LINE
8
SCORE
10
217.19925
20
51.57653
30
0.0
11
217.56485
21
48.84495
31
0.0
0
LINE
8
SCORE
10
90.18148
20
199.08825
30
0.0
11
91.35954
21
196.32923
31
0.0
0
LINE
8
SCORE
10
91.55589
20
195.86940
30
0.0
11
92.73394
21
193.11038
31
0.0
0
LINE
8
SCORE
10
92.93029
20
192.65054
30
0.0
11
94.10835
21
189.89152
31
0.0
0
LINE
8
SCORE
10
94.30469
20
189.43169
30
0.0
11
95.48275
21
186.67267
31
0.0
0
LINE
8
SCORE
10
95.67909
20
186.21283
30
0.0
11
96.85715
21
183.45382
31
0.0
0
LINE
8
SCORE
10
97.05349
20
182.99398
30
0.0
11
98.23155
21
180.23496
31
0.0
0
LINE
8
SCORE
10
98.42790
20
179.77513
30
0.0
11
99.60596
21
177.01611
31
0.0
0
LINE
8
SCORE
10
99.80230
20
176.55627
30
0.0
11
100.98036
21
173.79726
31
0.0
0
LINE
8
SCORE
10
101.17670
20
173.33742
30
0.0
11
102.35476
21
170.57840
31
0.0
0
LINE
8
SCORE
10
102.55110
20
170.11857
30
0.0
11
103.72916
21
167.35955
31
0.0
0
LINE
8
SCORE
10
103.92550
20
166.89971
30
0.0
11
105.10356
21
164.14070
31
0.0
0
LINE
8
SCORE
10
105.29991
20
163.68086
30
0.0
11
106.47797
21
160.92184
31
0.0
0
LINE
8
SCORE
10
106.67431
20
160.46201
30
0.0
11
107.85237
21
157.70299
31
0.0
0
LINE
8
SCORE
10
108.04871
20
157.24315
30
0.0
11
109.22677
21
154.48413
31
0.0
0
LINE
8
SCORE
10
109.42311
20
154.02430
30
0.0
11
110.60117
21
151.26528
31
0.0
0
LINE
8
SCORE
10
110.79752
20
150.80544
30
0.0
11
111.97557
21
148.04643
31
0.0
0
LINE
8
SCORE
10
112.17192
20
147.58659
30
0.0
11
113.34998
21
144.82757
31
0.0
0
LINE
8
SCORE
10
113.54632
20
144.36774
30
0.0
11
114.72438
21
141.60872
31
0.0
0
LINE
8
SCORE
10
114.92072
20
141.14888
30
0.0
11
116.09878
21
138.38987
31
0.0
0
LINE
8
SCORE
10
116.29512
20
137.93003
30
0.0
11
117.47318
21
135.17101
31
0.0
0
LINE
8
SCORE
10
117.66953
20
134.71118
30
0.0
11
118.84758
21
131.95216
31
0.0
0
LINE
8
SCORE
10
119.04393
20
131.49232
30
0.0
11
120.22199
21
128.73330
31
0.0
0
LINE
8
SCORE
10
120.41833
20
128.27347
30
0.0
11
121.59639
21
125.51445
31
0.0
0
LINE
8
SCORE
10
121.79273
20
125.05462
30
0.0
11
122.97079
21
122.29560
31
0.0
0
LINE
8
SCORE
10
123.16713
20
121.83576
30
0.0
11
124.34519
21
119.07674
31
0.0
0
LINE
8
SCORE
10
124.54154
20
118.61691
30
0.0
11
125.71960
21
115.85789
31
0.0
0
LINE
8
SCORE
10
125.91594
20
115.39805
30
0.0
11
127.09400
21
112.63904
31
0.0
0
LINE
8
SCORE
10
127.29034
20
112.17920
30
0.0
11
128.46840
21
109.42018
31
0.0
0
LINE
8
SCORE
10
128.66474
20
108.96035
30
0.0
11
129.84280
21
106.20133
31
0.0
0
LINE
8
SCORE
10
130.03914
20
105.74149
30
0.0
11
131.21720
21
102.98248
31
0.0
0
LINE
8
SCORE
10
131.41355
20
102.52264
30
0.0
11
132.59161
21
99.76362
31
0.0
0
LINE
8
SCORE
10
132.78795
20
99.30379
30
0.0
11
133.96601
21
96.54477
31
0.0
0
LINE
8
SCORE
10
134.16235
20
96.08493
30
0.0
11
135.34041
21
93.32591
31
0.0
0
LINE
8
SCORE
10
135.53675
20
92.86608
30
0.0
11
136.71481
21
90.10706
31
0.0
0
LINE
8
SCORE
10
136.91116
20
89.64722
30
0.0
11
138.08921
21
86.88821
31
0.0
0
LINE
8
SCORE
10
138.28556
20
86.42837
30
0.0
11
139.46362
21
83.66935
31
0.0
0
LINE
8
SCORE
10
139.65996
20
83.20952
30
0.0
11
140.83802
21
80.45050
31
0.0
0
LINE
8
SCORE
10
141.03436
20
79.99066
30
0.0
11
142.21242
21
77.23165
31
0.0
0
LINE
8
SCORE
10
142.40876
20
76.77181
30
0.0
11
143.58682
21
74.01279
31
0.0
0
LINE
8
SCORE
10
143.78317
20
73.55296
30
0.0
11
144.96122
21
70.79394
31
0.0
0
LINE
8
SCORE
10
145.15757
20
70.33410
30
0.0
11
146.33563
21
67.57509
31
0.0
0
LINE
8
SCORE
10
146.53197
20
67.11525
30
0.0
11
147.71003
21
64.35623
31
0.0
0
LINE
8
SCORE
10
147.90637
20
63.89640
30
0.0
11
149.08443
21
61.13738
31
0.0
0
LINE
8
SCORE
10
149.28077
20
60.67754
30
0.0
11
150.45883
21
57.91852
31
0.0
0
LINE
8
SCORE
10
150.65518
20
57.45869
30
0.0
11
151.83324
21
54.69967
31
0.0
0
LINE
8
SCORE
10
152.02958
20
54.23983
30
0.0
11
153.20764
21
51.48082
31
0.0
0
LINE
8
SCORE
10
153.40398
20
51.02098
30
0.0
11
154.58204
21
48.26196
31
0.0
0
LINE
8
SCORE
10
154.77838
20
47.80213
30
0.0
11
155.95644
21
45.04311
31
0.0
0
LINE
8
SCORE
10
156.15278
20
44.58327
30
0.0
11
157.33084
21
41.82426
31
0.0
0
LINE
8
SCORE
10
157.52719
20
41.36442
30
0.0
11
158.70525
21
38.60540
31
0.0
0
LINE
8
SCORE
10
158.90159
20
38.14557
30
0.0
11
160.07965
21
35.38655
31
0.0
0
LINE
8
SCORE
10
160.27599
20
34.92671
30
0.0
11
161.45405
21
32.16770
31
0.0
0
LINE
8
SCORE
10
161.65039
20
31.70786
30
0.0
11
162.68349
21
29.28835
31
0.0
0
LINE
8
SCORE2
10
197.69836
20
197.27730
30
0.0
11
217.56485
21
48.84495
31
0.0
0
LINE
8
SCORE2
10
90.18148
20
199.08825
30
0.0
11
162.68349
21
29.28835
31
0.0
0
ENDSEC
0
EOF
