0
SECTION
2
ENTITIES
0
POLYLINE
8
CUT
66
1
70
1
0
VERTEX
8
CUT
10
-0.09843
20
349.25614
30
0.0
0
VERTEX
8
CUT
10
83.55212
20
153.34632
30
0.0
0
VERTEX
8
CUT
10
119.74864
20
124.12778
30
0.0
0
VERTEX
8
CUT
10
172.79040
20
-0.09617
30
0.0
0
VERTEX
8
CUT
10
173.74126
20
0.27299
30
0.0
0
VERTEX
8
CUT
10
175.50784
20
0.95838
30
0.0
0
VERTEX
8
CUT
10
177.27463
20
1.64323
30
0.0
0
VERTEX
8
CUT
10
178.15811
20
1.98545
30
0.0
0
VERTEX
8
CUT
10
179.92522
20
2.66947
30
0.0
0
VERTEX
8
CUT
10
180.80885
20
3.01127
30
0.0
0
VERTEX
8
CUT
10
182.57628
20
3.69444
30
0.0
0
VERTEX
8
CUT
10
184.34393
20
4.37702
30
0.0
0
VERTEX
8
CUT
10
185.22784
20
4.71810
30
0.0
0
VERTEX
8
CUT
10
186.99583
20
5.39980
30
0.0
0
VERTEX
8
CUT
10
187.87990
20
5.74043
30
0.0
0
VERTEX
8
CUT
10
189.64823
20
6.42123
30
0.0
0
VERTEX
8
CUT
10
190.53248
20
6.76141
30
0.0
0
VERTEX
8
CUT
10
192.30116
20
7.44129
30
0.0
0
VERTEX
8
CUT
10
193.18688
20
7.78149
30
0.0
0
VERTEX
8
CUT
10
242.56183
20
28.86385
30
0.0
0
VERTEX
8
CUT
10
242.52858
20
28.94173
30
0.0
0
VERTEX
8
CUT
10
251.33866
20
32.97803
30
0.0
0
VERTEX
8
CUT
10
263.48457
20
37.43225
30
0.0
0
VERTEX
8
CUT
10
275.94102
20
40.92512
30
0.0
0
VERTEX
8
CUT
10
288.63204
20
43.43536
30
0.0
0
VERTEX
8
CUT
10
301.48024
20
44.94766
30
0.0
0
VERTEX
8
CUT
10
313.50393
20
45.41748
30
0.0
0
VERTEX
8
CUT
10
313.50324
20
45.45284
30
0.0
0
VERTEX
8
CUT
10
386.69634
20
45.45284
30
0.0
0
VERTEX
8
CUT
10
386.69634
20
152.51179
30
0.0
0
VERTEX
8
CUT
10
408.51156
20
190.29687
30
0.0
0
VERTEX
8
CUT
10
408.51156
20
244.14598
30
0.0
0
VERTEX
8
CUT
10
298.33834
20
244.14598
30
0.0
0
VERTEX
8
CUT
10
294.13834
20
248.34598
30
0.0
0
VERTEX
8
CUT
10
279.12293
20
248.34598
30
0.0
0
VERTEX
8
CUT
10
274.92293
20
244.14598
30
0.0
0
VERTEX
8
CUT
10
270.78506
20
244.14598
30
0.0
0
VERTEX
8
CUT
10
266.58506
20
248.34598
30
0.0
0
VERTEX
8
CUT
10
255.82913
20
248.34598
30
0.0
0
VERTEX
8
CUT
10
251.62913
20
244.14598
30
0.0
0
VERTEX
8
CUT
10
247.49126
20
244.14598
30
0.0
0
VERTEX
8
CUT
10
243.29126
20
248.34598
30
0.0
0
VERTEX
8
CUT
10
237.87975
20
248.34598
30
0.0
0
VERTEX
8
CUT
10
233.67975
20
244.14598
30
0.0
0
VERTEX
8
CUT
10
229.54188
20
244.14598
30
0.0
0
VERTEX
8
CUT
10
225.34188
20
248.34598
30
0.0
0
VERTEX
8
CUT
10
209.87975
20
248.34598
30
0.0
0
VERTEX
8
CUT
10
205.67975
20
244.14598
30
0.0
0
VERTEX
8
CUT
10
201.54188
20
244.14598
30
0.0
0
VERTEX
8
CUT
10
197.34188
20
248.34598
30
0.0
0
VERTEX
8
CUT
10
187.74655
20
248.34598
30
0.0
0
VERTEX
8
CUT
10
183.54655
20
244.14598
30
0.0
0
VERTEX
8
CUT
10
179.40868
20
244.14598
30
0.0
0
VERTEX
8
CUT
10
175.20868
20
248.34598
30
0.0
0
VERTEX
8
CUT
10
165.61335
20
248.34598
30
0.0
0
VERTEX
8
CUT
10
161.41335
20
244.14598
30
0.0
0
VERTEX
8
CUT
10
150.63960
20
244.14598
30
0.0
0
VERTEX
8
CUT
10
89.43564
20
387.48583
30
0.0
0
VERTEX
8
CUT
10
67.14765
20
377.96920
30
0.0
0
VERTEX
8
CUT
10
66.41997
20
381.11081
30
0.0
0
VERTEX
8
CUT
10
54.11566
20
375.85705
30
0.0
0
VERTEX
8
CUT
10
55.88154
20
373.15874
30
0.0
0
VERTEX
8
CUT
10
36.37563
20
364.83001
30
0.0
0
VERTEX
8
CUT
10
35.64795
20
367.97162
30
0.0
0
VERTEX
8
CUT
10
23.34364
20
362.71786
30
0.0
0
VERTEX
8
CUT
10
25.10952
20
360.01955
30
0.0
0
VERTEX
8
CUT
10
-0.09843
20
349.25614
30
0.0
0
SEQEND
0
POLYLINE
8
CUT
66
1
70
1
0
VERTEX
8
CUT
10
335.49204
20
237.69598
30
0.0
0
VERTEX
8
CUT
10
347.54204
20
237.69598
30
0.0
0
VERTEX
8
CUT
10
347.54204
20
240.92098
30
0.0
0
VERTEX
8
CUT
10
335.49204
20
240.92098
30
0.0
0
VERTEX
8
CUT
10
335.49204
20
237.69598
30
0.0
0
SEQEND
0
POLYLINE
8
CUT
66
1
70
1
0
VERTEX
8
CUT
10
368.95180
20
237.69598
30
0.0
0
VERTEX
8
CUT
10
381.00180
20
237.69598
30
0.0
0
VERTEX
8
CUT
10
381.00180
20
240.92098
30
0.0
0
VERTEX
8
CUT
10
368.95180
20
240.92098
30
0.0
0
VERTEX
8
CUT
10
368.95180
20
237.69598
30
0.0
0
SEQEND
0
LINE
8
SCORE
10
150.05772
20
245.31776
30
0.0
11
151.23577
21
242.55874
31
0.0
0
LINE
8
SCORE
10
152.41383
20
239.79972
30
0.0
11
153.59189
21
237.04070
31
0.0
0
LINE
8
SCORE
10
154.76995
20
234.28169
30
0.0
11
155.94801
21
231.52267
31
0.0
0
LINE
8
SCORE
10
157.12607
20
228.76365
30
0.0
11
158.30413
21
226.00464
31
0.0
0
LINE
8
SCORE
10
159.48219
20
223.24562
30
0.0
11
160.66025
21
220.48660
31
0.0
0
LINE
8
SCORE
10
161.83831
20
217.72758
30
0.0
11
163.01636
21
214.96857
31
0.0
0
LINE
8
SCORE
10
164.19442
20
212.20955
30
0.0
11
165.37248
21
209.45053
31
0.0
0
LINE
8
SCORE
10
166.55054
20
206.69151
30
0.0
11
167.72860
21
203.93250
31
0.0
0
LINE
8
SCORE
10
168.90666
20
201.17348
30
0.0
11
170.08472
21
198.41446
31
0.0
0
LINE
8
SCORE
10
171.26278
20
195.65544
30
0.0
11
172.44084
21
192.89643
31
0.0
0
LINE
8
SCORE
10
173.61889
20
190.13741
30
0.0
11
174.79695
21
187.37839
31
0.0
0
LINE
8
SCORE
10
175.97501
20
184.61937
30
0.0
11
177.15307
21
181.86036
31
0.0
0
LINE
8
SCORE
10
178.33113
20
179.10134
30
0.0
11
179.50919
21
176.34232
31
0.0
0
LINE
8
SCORE
10
180.68725
20
173.58330
30
0.0
11
181.86531
21
170.82429
31
0.0
0
LINE
8
SCORE
10
183.04337
20
168.06527
30
0.0
11
184.22143
21
165.30625
31
0.0
0
LINE
8
SCORE
10
185.39948
20
162.54723
30
0.0
11
186.57754
21
159.78822
31
0.0
0
LINE
8
SCORE
10
187.75560
20
157.02920
30
0.0
11
188.93366
21
154.27018
31
0.0
0
LINE
8
SCORE
10
190.11172
20
151.51116
30
0.0
11
191.28978
21
148.75215
31
0.0
0
LINE
8
SCORE
10
192.46784
20
145.99313
30
0.0
11
193.64590
21
143.23411
31
0.0
0
LINE
8
SCORE
10
194.82396
20
140.47510
30
0.0
11
196.00201
21
137.71608
31
0.0
0
LINE
8
SCORE
10
197.18007
20
134.95706
30
0.0
11
198.35813
21
132.19804
31
0.0
0
LINE
8
SCORE
10
199.53619
20
129.43903
30
0.0
11
200.71425
21
126.68001
31
0.0
0
LINE
8
SCORE
10
201.89231
20
123.92099
30
0.0
11
203.07037
21
121.16197
31
0.0
0
LINE
8
SCORE
10
204.24843
20
118.40296
30
0.0
11
205.42649
21
115.64394
31
0.0
0
LINE
8
SCORE
10
206.60455
20
112.88492
30
0.0
11
207.78260
21
110.12590
31
0.0
0
LINE
8
SCORE
10
208.96066
20
107.36689
30
0.0
11
210.13872
21
104.60787
31
0.0
0
LINE
8
SCORE
10
211.31678
20
101.84885
30
0.0
11
212.49484
21
99.08983
31
0.0
0
LINE
8
SCORE
10
213.67290
20
96.33082
30
0.0
11
214.85096
21
93.57180
31
0.0
0
LINE
8
SCORE
10
216.02902
20
90.81278
30
0.0
11
217.20708
21
88.05376
31
0.0
0
LINE
8
SCORE
10
218.38513
20
85.29475
30
0.0
11
219.56319
21
82.53573
31
0.0
0
LINE
8
SCORE
10
220.74125
20
79.77671
30
0.0
11
221.91931
21
77.01769
31
0.0
0
LINE
8
SCORE
10
223.09737
20
74.25868
30
0.0
11
224.27543
21
71.49966
31
0.0
0
LINE
8
SCORE
10
225.45349
20
68.74064
30
0.0
11
226.63155
21
65.98162
31
0.0
0
LINE
8
SCORE
10
227.80961
20
63.22261
30
0.0
11
228.98767
21
60.46359
31
0.0
0
LINE
8
SCORE
10
230.16572
20
57.70457
30
0.0
11
231.34378
21
54.94556
31
0.0
0
LINE
8
SCORE
10
232.52184
20
52.18654
30
0.0
11
233.69990
21
49.42752
31
0.0
0
LINE
8
SCORE
10
234.87796
20
46.66850
30
0.0
11
236.05602
21
43.90949
31
0.0
0
LINE
8
SCORE
10
237.23408
20
41.15047
30
0.0
11
238.41214
21
38.39145
31
0.0
0
LINE
8
SCORE
10
239.59020
20
35.63243
30
0.0
11
240.76825
21
32.87342
31
0.0
0
LINE
8
SCORE
10
241.94631
20
30.11440
30
0.0
11
242.46340
21
28.90338
31
0.0
0
LINE
8
SCORE
10
311.23227
20
45.52784
30
0.0
11
311.23227
21
48.52784
31
0.0
0
LINE
8
SCORE
10
311.23227
20
51.52784
30
0.0
11
311.23227
21
54.52784
31
0.0
0
LINE
8
SCORE
10
311.23227
20
57.52784
30
0.0
11
311.23227
21
60.52784
31
0.0
0
LINE
8
SCORE
10
311.23227
20
63.52784
30
0.0
11
311.23227
21
66.52784
31
0.0
0
LINE
8
SCORE
10
311.23227
20
69.52784
30
0.0
11
311.23227
21
72.52784
31
0.0
0
LINE
8
SCORE
10
311.23227
20
75.52784
30
0.0
11
311.23227
21
78.52784
31
0.0
0
LINE
8
SCORE
10
311.23227
20
81.52784
30
0.0
11
311.23227
21
84.52784
31
0.0
0
LINE
8
SCORE
10
311.23227
20
87.52784
30
0.0
11
311.23227
21
90.52784
31
0.0
0
LINE
8
SCORE
10
311.23227
20
93.52784
30
0.0
11
311.23227
21
96.52784
31
0.0
0
LINE
8
SCORE
10
311.23227
20
99.52784
30
0.0
11
311.23227
21
102.52784
31
0.0
0
LINE
8
SCORE
10
311.23227
20
105.52784
30
0.0
11
311.23227
21
108.52784
31
0.0
0
LINE
8
SCORE
10
311.23227
20
111.52784
30
0.0
11
311.23227
21
114.52784
31
0.0
0
LINE
8
SCORE
10
311.23227
20
117.52784
30
0.0
11
311.23227
21
120.52784
31
0.0
0
LINE
8
SCORE
10
311.23227
20
123.52784
30
0.0
11
311.23227
21
126.52784
31
0.0
0
LINE
8
SCORE
10
311.23227
20
129.52784
30
0.0
11
311.23227
21
132.52784
31
0.0
0
LINE
8
SCORE
10
311.23227
20
135.52784
30
0.0
11
311.23227
21
138.52784
31
0.0
0
LINE
8
SCORE
10
311.23227
20
141.52784
30
0.0
11
311.23227
21
144.52784
31
0.0
0
LINE
8
SCORE
10
311.23227
20
147.52784
30
0.0
11
311.23227
21
150.52784
31
0.0
0
LINE
8
SCORE
10
311.23227
20
153.52784
30
0.0
11
311.23227
21
156.52784
31
0.0
0
LINE
8
SCORE
10
311.23227
20
159.52784
30
0.0
11
311.23227
21
162.52784
31
0.0
0
LINE
8
SCORE
10
311.23227
20
165.52784
30
0.0
11
311.23227
21
168.52784
31
0.0
0
LINE
8
SCORE
10
311.23227
20
171.52784
30
0.0
11
311.23227
21
174.52784
31
0.0
0
LINE
8
SCORE
10
311.23227
20
177.52784
30
0.0
11
311.23227
21
180.52784
31
0.0
0
LINE
8
SCORE
10
311.23227
20
183.52784
30
0.0
11
311.23227
21
186.52784
31
0.0
0
LINE
8
SCORE
10
311.23227
20
189.52784
30
0.0
11
311.23227
21
192.52784
31
0.0
0
LINE
8
SCORE
10
311.23227
20
195.52784
30
0.0
11
311.23227
21
198.52784
31
0.0
0
LINE
8
SCORE
10
311.23227
20
201.52784
30
0.0
11
311.23227
21
204.52784
31
0.0
0
LINE
8
SCORE
10
311.23227
20
207.52784
30
0.0
11
311.23227
21
210.52784
31
0.0
0
LINE
8
SCORE
10
311.23227
20
213.52784
30
0.0
11
311.23227
21
216.52784
31
0.0
0
LINE
8
SCORE
10
311.23227
20
219.52784
30
0.0
11
311.23227
21
222.52784
31
0.0
0
LINE
8
SCORE
10
311.23227
20
225.52784
30
0.0
11
311.23227
21
228.52784
31
0.0
0
LINE
8
SCORE
10
311.23227
20
231.52784
30
0.0
11
311.23227
21
234.52784
31
0.0
0
LINE
8
SCORE
10
311.23227
20
237.52784
30
0.0
11
311.23227
21
240.52784
31
0.0
0
LINE
8
SCORE
10
311.23227
20
243.52784
30
0.0
11
311.23227
21
244.07098
31
0.0
0
LINE
8
SCORE
10
62.54964
20
202.72518
30
0.0
11
65.30866
21
203.90324
31
0.0
0
LINE
8
SCORE
10
68.06767
20
205.08130
30
0.0
11
70.82669
21
206.25936
31
0.0
0
LINE
8
SCORE
10
73.58571
20
207.43742
30
0.0
11
76.34472
21
208.61548
31
0.0
0
LINE
8
SCORE
10
79.10374
20
209.79354
30
0.0
11
81.86276
21
210.97160
31
0.0
0
LINE
8
SCORE
10
84.62178
20
212.14965
30
0.0
11
87.38079
21
213.32771
31
0.0
0
LINE
8
SCORE
10
90.13981
20
214.50577
30
0.0
11
92.89883
21
215.68383
31
0.0
0
LINE
8
SCORE
10
95.65785
20
216.86189
30
0.0
11
98.41686
21
218.03995
31
0.0
0
LINE
8
SCORE
10
101.17588
20
219.21801
30
0.0
11
103.93490
21
220.39607
31
0.0
0
LINE
8
SCORE
10
106.69392
20
221.57413
30
0.0
11
109.45293
21
222.75219
31
0.0
0
LINE
8
SCORE
10
112.21195
20
223.93024
30
0.0
11
114.97097
21
225.10830
31
0.0
0
LINE
8
SCORE
10
117.72999
20
226.28636
30
0.0
11
120.48900
21
227.46442
31
0.0
0
LINE
8
SCORE
10
123.24802
20
228.64248
30
0.0
11
126.00704
21
229.82054
31
0.0
0
LINE
8
SCORE
10
128.76606
20
230.99860
30
0.0
11
131.52507
21
232.17666
31
0.0
0
LINE
8
SCORE
10
134.28409
20
233.35472
30
0.0
11
137.04311
21
234.53277
31
0.0
0
LINE
8
SCORE
10
139.80213
20
235.71083
30
0.0
11
142.56114
21
236.88889
31
0.0
0
LINE
8
SCORE
10
145.32016
20
238.06695
30
0.0
11
148.07918
21
239.24501
31
0.0
0
LINE
8
SCORE
10
150.83820
20
240.42307
30
0.0
11
153.59721
21
241.60113
31
0.0
0
LINE
8
SCORE2
10
150.05772
20
245.31776
30
0.0
11
242.46340
21
28.90338
31
0.0
0
LINE
8
SCORE2
10
311.23227
20
45.52784
30
0.0
11
311.23227
21
244.07098
31
0.0
0
LINE
8
SCORE2
10
62.54964
20
202.72518
30
0.0
11
154.86571
21
242.14276
31
0.0
0
ENDSEC
0
EOF
