0
SECTION
2
ENTITIES
0
POLYLINE
8
CUT
66
1
70
1
0
VERTEX
8
CUT
10
-0.09843
20
162.79632
30
0.0
0
VERTEX
8
CUT
10
22.12194
20
110.75616
30
0.0
0
VERTEX
8
CUT
10
58.31847
20
81.53762
30
0.0
0
VERTEX
8
CUT
10
93.17481
20
-0.09604
30
0.0
0
VERTEX
8
CUT
10
95.63809
20
0.85472
30
0.0
0
VERTEX
8
CUT
10
98.03413
20
1.77854
30
0.0
0
VERTEX
8
CUT
10
100.43050
20
2.70149
30
0.0
0
VERTEX
8
CUT
10
102.82722
20
3.62354
30
0.0
0
VERTEX
8
CUT
10
105.22428
20
4.54468
30
0.0
0
VERTEX
8
CUT
10
107.62169
20
5.46489
30
0.0
0
VERTEX
8
CUT
10
110.01946
20
6.38416
30
0.0
0
VERTEX
8
CUT
10
112.41760
20
7.30247
30
0.0
0
VERTEX
8
CUT
10
114.81611
20
8.21979
30
0.0
0
VERTEX
8
CUT
10
117.21501
20
9.13612
30
0.0
0
VERTEX
8
CUT
10
119.61428
20
10.05143
30
0.0
0
VERTEX
8
CUT
10
122.01395
20
10.96571
30
0.0
0
VERTEX
8
CUT
10
124.41402
20
11.87894
30
0.0
0
VERTEX
8
CUT
10
126.81450
20
12.79110
30
0.0
0
VERTEX
8
CUT
10
129.21539
20
13.70218
30
0.0
0
VERTEX
8
CUT
10
131.61670
20
14.61215
30
0.0
0
VERTEX
8
CUT
10
134.01843
20
15.52101
30
0.0
0
VERTEX
8
CUT
10
136.42060
20
16.42873
30
0.0
0
VERTEX
8
CUT
10
138.82320
20
17.33529
30
0.0
0
VERTEX
8
CUT
10
141.22625
20
18.24068
30
0.0
0
VERTEX
8
CUT
10
143.62976
20
19.14488
30
0.0
0
VERTEX
8
CUT
10
146.03372
20
20.04788
30
0.0
0
VERTEX
8
CUT
10
148.43974
20
20.95024
30
0.0
0
VERTEX
8
CUT
10
163.56729
20
27.40948
30
0.0
0
VERTEX
8
CUT
10
163.49324
20
27.58289
30
0.0
0
VERTEX
8
CUT
10
174.96860
20
33.29042
30
0.0
0
VERTEX
8
CUT
10
189.90109
20
39.21359
30
0.0
0
VERTEX
8
CUT
10
205.27751
20
43.86429
30
0.0
0
VERTEX
8
CUT
10
220.71906
20
47.15219
30
0.0
0
VERTEX
8
CUT
10
220.71544
20
47.17313
30
0.0
0
VERTEX
8
CUT
10
292.63722
20
56.79929
30
0.0
0
VERTEX
8
CUT
10
284.24366
20
119.51172
30
0.0
0
VERTEX
8
CUT
10
300.80885
20
160.19078
30
0.0
0
VERTEX
8
CUT
10
293.84262
20
212.23890
30
0.0
0
VERTEX
8
CUT
10
200.57391
20
199.75567
30
0.0
0
VERTEX
8
CUT
10
200.57390
20
199.75581
30
0.0
0
VERTEX
8
CUT
10
89.97799
20
199.75581
30
0.0
0
VERTEX
8
CUT
10
89.43564
20
201.02602
30
0.0
0
VERTEX
8
CUT
10
-0.09843
20
162.79632
30
0.0
0
SEQEND
0
LINE
8
SCORE
10
197.43304
20
199.25962
30
0.0
11
197.83102
21
196.28614
31
0.0
0
LINE
8
SCORE
10
198.22900
20
193.31265
30
0.0
11
198.62697
21
190.33917
31
0.0
0
LINE
8
SCORE
10
199.02495
20
187.36568
30
0.0
11
199.42293
21
184.39220
31
0.0
0
LINE
8
SCORE
10
199.82091
20
181.41871
30
0.0
11
200.21888
21
178.44523
31
0.0
0
LINE
8
SCORE
10
200.61686
20
175.47174
30
0.0
11
201.01484
21
172.49826
31
0.0
0
LINE
8
SCORE
10
201.41281
20
169.52477
30
0.0
11
201.81079
21
166.55129
31
0.0
0
LINE
8
SCORE
10
202.20877
20
163.57780
30
0.0
11
202.60675
21
160.60432
31
0.0
0
LINE
8
SCORE
10
203.00472
20
157.63083
30
0.0
11
203.40270
21
154.65735
31
0.0
0
LINE
8
SCORE
10
203.80068
20
151.68386
30
0.0
11
204.19866
21
148.71038
31
0.0
0
LINE
8
SCORE
10
204.59663
20
145.73689
30
0.0
11
204.99461
21
142.76341
31
0.0
0
LINE
8
SCORE
10
205.39259
20
139.78992
30
0.0
11
205.79057
21
136.81644
31
0.0
0
LINE
8
SCORE
10
206.18854
20
133.84295
30
0.0
11
206.58652
21
130.86947
31
0.0
0
LINE
8
SCORE
10
206.98450
20
127.89598
30
0.0
11
207.38247
21
124.92249
31
0.0
0
LINE
8
SCORE
10
207.78045
20
121.94901
30
0.0
11
208.17843
21
118.97552
31
0.0
0
LINE
8
SCORE
10
208.57641
20
116.00204
30
0.0
11
208.97438
21
113.02855
31
0.0
0
LINE
8
SCORE
10
209.37236
20
110.05507
30
0.0
11
209.77034
21
107.08158
31
0.0
0
LINE
8
SCORE
10
210.16832
20
104.10810
30
0.0
11
210.56629
21
101.13461
31
0.0
0
LINE
8
SCORE
10
210.96427
20
98.16113
30
0.0
11
211.36225
21
95.18764
31
0.0
0
LINE
8
SCORE
10
211.76023
20
92.21416
30
0.0
11
212.15820
21
89.24067
31
0.0
0
LINE
8
SCORE
10
212.55618
20
86.26719
30
0.0
11
212.95416
21
83.29370
31
0.0
0
LINE
8
SCORE
10
213.35213
20
80.32022
30
0.0
11
213.75011
21
77.34673
31
0.0
0
LINE
8
SCORE
10
214.14809
20
74.37325
30
0.0
11
214.54607
21
71.39976
31
0.0
0
LINE
8
SCORE
10
214.94404
20
68.42628
30
0.0
11
215.34202
21
65.45279
31
0.0
0
LINE
8
SCORE
10
215.74000
20
62.47931
30
0.0
11
216.13798
21
59.50582
31
0.0
0
LINE
8
SCORE
10
216.53595
20
56.53234
30
0.0
11
216.93393
21
53.55885
31
0.0
0
LINE
8
SCORE
10
217.33191
20
50.58537
30
0.0
11
217.72989
21
47.61188
31
0.0
0
LINE
8
SCORE
10
89.39611
20
200.92759
30
0.0
11
90.57417
21
198.16858
31
0.0
0
LINE
8
SCORE
10
91.75223
20
195.40956
30
0.0
11
92.93029
21
192.65054
31
0.0
0
LINE
8
SCORE
10
94.10835
20
189.89152
30
0.0
11
95.28641
21
187.13251
31
0.0
0
LINE
8
SCORE
10
96.46446
20
184.37349
30
0.0
11
97.64252
21
181.61447
31
0.0
0
LINE
8
SCORE
10
98.82058
20
178.85545
30
0.0
11
99.99864
21
176.09644
31
0.0
0
LINE
8
SCORE
10
101.17670
20
173.33742
30
0.0
11
102.35476
21
170.57840
31
0.0
0
LINE
8
SCORE
10
103.53282
20
167.81938
30
0.0
11
104.71088
21
165.06037
31
0.0
0
LINE
8
SCORE
10
105.88894
20
162.30135
30
0.0
11
107.06700
21
159.54233
31
0.0
0
LINE
8
SCORE
10
108.24505
20
156.78332
30
0.0
11
109.42311
21
154.02430
31
0.0
0
LINE
8
SCORE
10
110.60117
20
151.26528
30
0.0
11
111.77923
21
148.50626
31
0.0
0
LINE
8
SCORE
10
112.95729
20
145.74725
30
0.0
11
114.13535
21
142.98823
31
0.0
0
LINE
8
SCORE
10
115.31341
20
140.22921
30
0.0
11
116.49147
21
137.47019
31
0.0
0
LINE
8
SCORE
10
117.66953
20
134.71118
30
0.0
11
118.84758
21
131.95216
31
0.0
0
LINE
8
SCORE
10
120.02564
20
129.19314
30
0.0
11
121.20370
21
126.43412
31
0.0
0
LINE
8
SCORE
10
122.38176
20
123.67511
30
0.0
11
123.55982
21
120.91609
31
0.0
0
LINE
8
SCORE
10
124.73788
20
118.15707
30
0.0
11
125.91594
21
115.39805
31
0.0
0
LINE
8
SCORE
10
127.09400
20
112.63904
30
0.0
11
128.27206
21
109.88002
31
0.0
0
LINE
8
SCORE
10
129.45012
20
107.12100
30
0.0
11
130.62817
21
104.36198
31
0.0
0
LINE
8
SCORE
10
131.80623
20
101.60297
30
0.0
11
132.98429
21
98.84395
31
0.0
0
LINE
8
SCORE
10
134.16235
20
96.08493
30
0.0
11
135.34041
21
93.32591
31
0.0
0
LINE
8
SCORE
10
136.51847
20
90.56690
30
0.0
11
137.69653
21
87.80788
31
0.0
0
LINE
8
SCORE
10
138.87459
20
85.04886
30
0.0
11
140.05265
21
82.28985
31
0.0
0
LINE
8
SCORE
10
141.23070
20
79.53083
30
0.0
11
142.40876
21
76.77181
31
0.0
0
LINE
8
SCORE
10
143.58682
20
74.01279
30
0.0
11
144.76488
21
71.25378
31
0.0
0
LINE
8
SCORE
10
145.94294
20
68.49476
30
0.0
11
147.12100
21
65.73574
31
0.0
0
LINE
8
SCORE
10
148.29906
20
62.97672
30
0.0
11
149.47712
21
60.21771
31
0.0
0
LINE
8
SCORE
10
150.65518
20
57.45869
30
0.0
11
151.83324
21
54.69967
31
0.0
0
LINE
8
SCORE
10
153.01129
20
51.94065
30
0.0
11
154.18935
21
49.18164
31
0.0
0
LINE
8
SCORE
10
155.36741
20
46.42262
30
0.0
11
156.54547
21
43.66360
31
0.0
0
LINE
8
SCORE
10
157.72353
20
40.90458
30
0.0
11
158.90159
21
38.14557
31
0.0
0
LINE
8
SCORE
10
160.07965
20
35.38655
30
0.0
11
161.25771
21
32.62753
31
0.0
0
LINE
8
SCORE
10
162.43577
20
29.86851
30
0.0
11
163.46886
21
27.44900
31
0.0
0
LINE
8
SCORE2
10
197.43304
20
199.25962
30
0.0
11
217.83017
21
46.86262
31
0.0
0
LINE
8
SCORE2
10
89.39611
20
200.92759
30
0.0
11
163.46886
21
27.44900
31
0.0
0
ENDSEC
0
EOF
