0
SECTION
2
ENTITIES
0
POLYLINE
8
CUT
66
1
70
1
0
VERTEX
8
CUT
10
-0.09843
20
162.79632
30
0.0
0
VERTEX
8
CUT
10
22.12194
20
110.75616
30
0.0
0
VERTEX
8
CUT
10
58.31847
20
81.53762
30
0.0
0
VERTEX
8
CUT
10
93.17481
20
-0.09604
30
0.0
0
VERTEX
8
CUT
10
95.63809
20
0.85472
30
0.0
0
VERTEX
8
CUT
10
98.03413
20
1.77854
30
0.0
0
VERTEX
8
CUT
10
100.43050
20
2.70149
30
0.0
0
VERTEX
8
CUT
10
102.82722
20
3.62354
30
0.0
0
VERTEX
8
CUT
10
105.22428
20
4.54468
30
0.0
0
VERTEX
8
CUT
10
107.62169
20
5.46489
30
0.0
0
VERTEX
8
CUT
10
110.01946
20
6.38416
30
0.0
0
VERTEX
8
CUT
10
112.41760
20
7.30247
30
0.0
0
VERTEX
8
CUT
10
114.81611
20
8.21979
30
0.0
0
VERTEX
8
CUT
10
117.21501
20
9.13612
30
0.0
0
VERTEX
8
CUT
10
119.61428
20
10.05143
30
0.0
0
VERTEX
8
CUT
10
122.01395
20
10.96571
30
0.0
0
VERTEX
8
CUT
10
124.41402
20
11.87894
30
0.0
0
VERTEX
8
CUT
10
126.81450
20
12.79110
30
0.0
0
VERTEX
8
CUT
10
129.21539
20
13.70218
30
0.0
0
VERTEX
8
CUT
10
131.61670
20
14.61215
30
0.0
0
VERTEX
8
CUT
10
134.01843
20
15.52101
30
0.0
0
VERTEX
8
CUT
10
136.42060
20
16.42873
30
0.0
0
VERTEX
8
CUT
10
138.82320
20
17.33529
30
0.0
0
VERTEX
8
CUT
10
141.22625
20
18.24068
30
0.0
0
VERTEX
8
CUT
10
143.62976
20
19.14488
30
0.0
0
VERTEX
8
CUT
10
146.03372
20
20.04788
30
0.0
0
VERTEX
8
CUT
10
148.43974
20
20.95024
30
0.0
0
VERTEX
8
CUT
10
163.56729
20
27.40948
30
0.0
0
VERTEX
8
CUT
10
163.49324
20
27.58289
30
0.0
0
VERTEX
8
CUT
10
174.96860
20
33.29042
30
0.0
0
VERTEX
8
CUT
10
189.90109
20
39.21359
30
0.0
0
VERTEX
8
CUT
10
205.27751
20
43.86429
30
0.0
0
VERTEX
8
CUT
10
220.71906
20
47.15219
30
0.0
0
VERTEX
8
CUT
10
220.71544
20
47.17313
30
0.0
0
VERTEX
8
CUT
10
292.63722
20
56.79929
30
0.0
0
VERTEX
8
CUT
10
284.24366
20
119.51172
30
0.0
0
VERTEX
8
CUT
10
300.80885
20
160.19078
30
0.0
0
VERTEX
8
CUT
10
293.84262
20
212.23890
30
0.0
0
VERTEX
8
CUT
10
200.57391
20
199.75567
30
0.0
0
VERTEX
8
CUT
10
200.57390
20
199.75581
30
0.0
0
VERTEX
8
CUT
10
89.97799
20
199.75581
30
0.0
0
VERTEX
8
CUT
10
89.43564
20
201.02602
30
0.0
0
VERTEX
8
CUT
10
-0.09843
20
162.79632
30
0.0
0
SEQEND
0
LINE
8
SCORE
10
197.43304
20
199.25962
30
0.0
11
197.69836
21
197.27730
31
0.0
0
LINE
8
SCORE
10
197.83102
20
196.28614
30
0.0
11
198.09634
21
194.30382
31
0.0
0
LINE
8
SCORE
10
198.22900
20
193.31265
30
0.0
11
198.49431
21
191.33033
31
0.0
0
LINE
8
SCORE
10
198.62697
20
190.33917
30
0.0
11
198.89229
21
188.35684
31
0.0
0
LINE
8
SCORE
10
199.02495
20
187.36568
30
0.0
11
199.29027
21
185.38336
31
0.0
0
LINE
8
SCORE
10
199.42293
20
184.39220
30
0.0
11
199.68825
21
182.40987
31
0.0
0
LINE
8
SCORE
10
199.82091
20
181.41871
30
0.0
11
200.08622
21
179.43639
31
0.0
0
LINE
8
SCORE
10
200.21888
20
178.44523
30
0.0
11
200.48420
21
176.46290
31
0.0
0
LINE
8
SCORE
10
200.61686
20
175.47174
30
0.0
11
200.88218
21
173.48942
31
0.0
0
LINE
8
SCORE
10
201.01484
20
172.49826
30
0.0
11
201.28016
21
170.51593
31
0.0
0
LINE
8
SCORE
10
201.41281
20
169.52477
30
0.0
11
201.67813
21
167.54245
31
0.0
0
LINE
8
SCORE
10
201.81079
20
166.55129
30
0.0
11
202.07611
21
164.56896
31
0.0
0
LINE
8
SCORE
10
202.20877
20
163.57780
30
0.0
11
202.47409
21
161.59548
31
0.0
0
LINE
8
SCORE
10
202.60675
20
160.60432
30
0.0
11
202.87207
21
158.62199
31
0.0
0
LINE
8
SCORE
10
203.00472
20
157.63083
30
0.0
11
203.27004
21
155.64851
31
0.0
0
LINE
8
SCORE
10
203.40270
20
154.65735
30
0.0
11
203.66802
21
152.67502
31
0.0
0
LINE
8
SCORE
10
203.80068
20
151.68386
30
0.0
11
204.06600
21
149.70154
31
0.0
0
LINE
8
SCORE
10
204.19866
20
148.71038
30
0.0
11
204.46397
21
146.72805
31
0.0
0
LINE
8
SCORE
10
204.59663
20
145.73689
30
0.0
11
204.86195
21
143.75457
31
0.0
0
LINE
8
SCORE
10
204.99461
20
142.76341
30
0.0
11
205.25993
21
140.78108
31
0.0
0
LINE
8
SCORE
10
205.39259
20
139.78992
30
0.0
11
205.65791
21
137.80760
31
0.0
0
LINE
8
SCORE
10
205.79057
20
136.81644
30
0.0
11
206.05588
21
134.83411
31
0.0
0
LINE
8
SCORE
10
206.18854
20
133.84295
30
0.0
11
206.45386
21
131.86063
31
0.0
0
LINE
8
SCORE
10
206.58652
20
130.86947
30
0.0
11
206.85184
21
128.88714
31
0.0
0
LINE
8
SCORE
10
206.98450
20
127.89598
30
0.0
11
207.24982
21
125.91366
31
0.0
0
LINE
8
SCORE
10
207.38247
20
124.92249
30
0.0
11
207.64779
21
122.94017
31
0.0
0
LINE
8
SCORE
10
207.78045
20
121.94901
30
0.0
11
208.04577
21
119.96669
31
0.0
0
LINE
8
SCORE
10
208.17843
20
118.97552
30
0.0
11
208.44375
21
116.99320
31
0.0
0
LINE
8
SCORE
10
208.57641
20
116.00204
30
0.0
11
208.84173
21
114.01972
31
0.0
0
LINE
8
SCORE
10
208.97438
20
113.02855
30
0.0
11
209.23970
21
111.04623
31
0.0
0
LINE
8
SCORE
10
209.37236
20
110.05507
30
0.0
11
209.63768
21
108.07275
31
0.0
0
LINE
8
SCORE
10
209.77034
20
107.08158
30
0.0
11
210.03566
21
105.09926
31
0.0
0
LINE
8
SCORE
10
210.16832
20
104.10810
30
0.0
11
210.43363
21
102.12578
31
0.0
0
LINE
8
SCORE
10
210.56629
20
101.13461
30
0.0
11
210.83161
21
99.15229
31
0.0
0
LINE
8
SCORE
10
210.96427
20
98.16113
30
0.0
11
211.22959
21
96.17880
31
0.0
0
LINE
8
SCORE
10
211.36225
20
95.18764
30
0.0
11
211.62757
21
93.20532
31
0.0
0
LINE
8
SCORE
10
211.76023
20
92.21416
30
0.0
11
212.02554
21
90.23183
31
0.0
0
LINE
8
SCORE
10
212.15820
20
89.24067
30
0.0
11
212.42352
21
87.25835
31
0.0
0
LINE
8
SCORE
10
212.55618
20
86.26719
30
0.0
11
212.82150
21
84.28486
31
0.0
0
LINE
8
SCORE
10
212.95416
20
83.29370
30
0.0
11
213.21948
21
81.31138
31
0.0
0
LINE
8
SCORE
10
213.35213
20
80.32022
30
0.0
11
213.61745
21
78.33789
31
0.0
0
LINE
8
SCORE
10
213.75011
20
77.34673
30
0.0
11
214.01543
21
75.36441
31
0.0
0
LINE
8
SCORE
10
214.14809
20
74.37325
30
0.0
11
214.41341
21
72.39092
31
0.0
0
LINE
8
SCORE
10
214.54607
20
71.39976
30
0.0
11
214.81139
21
69.41744
31
0.0
0
LINE
8
SCORE
10
214.94404
20
68.42628
30
0.0
11
215.20936
21
66.44395
31
0.0
0
LINE
8
SCORE
10
215.34202
20
65.45279
30
0.0
11
215.60734
21
63.47047
31
0.0
0
LINE
8
SCORE
10
215.74000
20
62.47931
30
0.0
11
216.00532
21
60.49698
31
0.0
0
LINE
8
SCORE
10
216.13798
20
59.50582
30
0.0
11
216.40329
21
57.52350
31
0.0
0
LINE
8
SCORE
10
216.53595
20
56.53234
30
0.0
11
216.80127
21
54.55001
31
0.0
0
LINE
8
SCORE
10
216.93393
20
53.55885
30
0.0
11
217.19925
21
51.57653
31
0.0
0
LINE
8
SCORE
10
217.33191
20
50.58537
30
0.0
11
217.59723
21
48.60304
31
0.0
0
LINE
8
SCORE
10
217.72989
20
47.61188
30
0.0
11
217.83017
21
46.86262
31
0.0
0
LINE
8
SCORE
10
89.39611
20
200.92759
30
0.0
11
90.18148
21
199.08825
31
0.0
0
LINE
8
SCORE
10
90.57417
20
198.16858
30
0.0
11
91.35954
21
196.32923
31
0.0
0
LINE
8
SCORE
10
91.75223
20
195.40956
30
0.0
11
92.53760
21
193.57021
31
0.0
0
LINE
8
SCORE
10
92.93029
20
192.65054
30
0.0
11
93.71566
21
190.81120
31
0.0
0
LINE
8
SCORE
10
94.10835
20
189.89152
30
0.0
11
94.89372
21
188.05218
31
0.0
0
LINE
8
SCORE
10
95.28641
20
187.13251
30
0.0
11
96.07178
21
185.29316
31
0.0
0
LINE
8
SCORE
10
96.46446
20
184.37349
30
0.0
11
97.24984
21
182.53414
31
0.0
0
LINE
8
SCORE
10
97.64252
20
181.61447
30
0.0
11
98.42790
21
179.77513
31
0.0
0
LINE
8
SCORE
10
98.82058
20
178.85545
30
0.0
11
99.60596
21
177.01611
31
0.0
0
LINE
8
SCORE
10
99.99864
20
176.09644
30
0.0
11
100.78401
21
174.25709
31
0.0
0
LINE
8
SCORE
10
101.17670
20
173.33742
30
0.0
11
101.96207
21
171.49807
31
0.0
0
LINE
8
SCORE
10
102.35476
20
170.57840
30
0.0
11
103.14013
21
168.73906
31
0.0
0
LINE
8
SCORE
10
103.53282
20
167.81938
30
0.0
11
104.31819
21
165.98004
31
0.0
0
LINE
8
SCORE
10
104.71088
20
165.06037
30
0.0
11
105.49625
21
163.22102
31
0.0
0
LINE
8
SCORE
10
105.88894
20
162.30135
30
0.0
11
106.67431
21
160.46201
31
0.0
0
LINE
8
SCORE
10
107.06700
20
159.54233
30
0.0
11
107.85237
21
157.70299
31
0.0
0
LINE
8
SCORE
10
108.24505
20
156.78332
30
0.0
11
109.03043
21
154.94397
31
0.0
0
LINE
8
SCORE
10
109.42311
20
154.02430
30
0.0
11
110.20849
21
152.18495
31
0.0
0
LINE
8
SCORE
10
110.60117
20
151.26528
30
0.0
11
111.38654
21
149.42594
31
0.0
0
LINE
8
SCORE
10
111.77923
20
148.50626
30
0.0
11
112.56460
21
146.66692
31
0.0
0
LINE
8
SCORE
10
112.95729
20
145.74725
30
0.0
11
113.74266
21
143.90790
31
0.0
0
LINE
8
SCORE
10
114.13535
20
142.98823
30
0.0
11
114.92072
21
141.14888
31
0.0
0
LINE
8
SCORE
10
115.31341
20
140.22921
30
0.0
11
116.09878
21
138.38987
31
0.0
0
LINE
8
SCORE
10
116.49147
20
137.47019
30
0.0
11
117.27684
21
135.63085
31
0.0
0
LINE
8
SCORE
10
117.66953
20
134.71118
30
0.0
11
118.45490
21
132.87183
31
0.0
0
LINE
8
SCORE
10
118.84758
20
131.95216
30
0.0
11
119.63296
21
130.11281
31
0.0
0
LINE
8
SCORE
10
120.02564
20
129.19314
30
0.0
11
120.81102
21
127.35380
31
0.0
0
LINE
8
SCORE
10
121.20370
20
126.43412
30
0.0
11
121.98908
21
124.59478
31
0.0
0
LINE
8
SCORE
10
122.38176
20
123.67511
30
0.0
11
123.16713
21
121.83576
31
0.0
0
LINE
8
SCORE
10
123.55982
20
120.91609
30
0.0
11
124.34519
21
119.07674
31
0.0
0
LINE
8
SCORE
10
124.73788
20
118.15707
30
0.0
11
125.52325
21
116.31773
31
0.0
0
LINE
8
SCORE
10
125.91594
20
115.39805
30
0.0
11
126.70131
21
113.55871
31
0.0
0
LINE
8
SCORE
10
127.09400
20
112.63904
30
0.0
11
127.87937
21
110.79969
31
0.0
0
LINE
8
SCORE
10
128.27206
20
109.88002
30
0.0
11
129.05743
21
108.04067
31
0.0
0
LINE
8
SCORE
10
129.45012
20
107.12100
30
0.0
11
130.23549
21
105.28166
31
0.0
0
LINE
8
SCORE
10
130.62817
20
104.36198
30
0.0
11
131.41355
21
102.52264
31
0.0
0
LINE
8
SCORE
10
131.80623
20
101.60297
30
0.0
11
132.59161
21
99.76362
31
0.0
0
LINE
8
SCORE
10
132.98429
20
98.84395
30
0.0
11
133.76966
21
97.00460
31
0.0
0
LINE
8
SCORE
10
134.16235
20
96.08493
30
0.0
11
134.94772
21
94.24559
31
0.0
0
LINE
8
SCORE
10
135.34041
20
93.32591
30
0.0
11
136.12578
21
91.48657
31
0.0
0
LINE
8
SCORE
10
136.51847
20
90.56690
30
0.0
11
137.30384
21
88.72755
31
0.0
0
LINE
8
SCORE
10
137.69653
20
87.80788
30
0.0
11
138.48190
21
85.96853
31
0.0
0
LINE
8
SCORE
10
138.87459
20
85.04886
30
0.0
11
139.65996
21
83.20952
31
0.0
0
LINE
8
SCORE
10
140.05265
20
82.28985
30
0.0
11
140.83802
21
80.45050
31
0.0
0
LINE
8
SCORE
10
141.23070
20
79.53083
30
0.0
11
142.01608
21
77.69148
31
0.0
0
LINE
8
SCORE
10
142.40876
20
76.77181
30
0.0
11
143.19414
21
74.93247
31
0.0
0
LINE
8
SCORE
10
143.58682
20
74.01279
30
0.0
11
144.37220
21
72.17345
31
0.0
0
LINE
8
SCORE
10
144.76488
20
71.25378
30
0.0
11
145.55025
21
69.41443
31
0.0
0
LINE
8
SCORE
10
145.94294
20
68.49476
30
0.0
11
146.72831
21
66.65541
31
0.0
0
LINE
8
SCORE
10
147.12100
20
65.73574
30
0.0
11
147.90637
21
63.89640
31
0.0
0
LINE
8
SCORE
10
148.29906
20
62.97672
30
0.0
11
149.08443
21
61.13738
31
0.0
0
LINE
8
SCORE
10
149.47712
20
60.21771
30
0.0
11
150.26249
21
58.37836
31
0.0
0
LINE
8
SCORE
10
150.65518
20
57.45869
30
0.0
11
151.44055
21
55.61934
31
0.0
0
LINE
8
SCORE
10
151.83324
20
54.69967
30
0.0
11
152.61861
21
52.86033
31
0.0
0
LINE
8
SCORE
10
153.01129
20
51.94065
30
0.0
11
153.79667
21
50.10131
31
0.0
0
LINE
8
SCORE
10
154.18935
20
49.18164
30
0.0
11
154.97473
21
47.34229
31
0.0
0
LINE
8
SCORE
10
155.36741
20
46.42262
30
0.0
11
156.15278
21
44.58327
31
0.0
0
LINE
8
SCORE
10
156.54547
20
43.66360
30
0.0
11
157.33084
21
41.82426
31
0.0
0
LINE
8
SCORE
10
157.72353
20
40.90458
30
0.0
11
158.50890
21
39.06524
31
0.0
0
LINE
8
SCORE
10
158.90159
20
38.14557
30
0.0
11
159.68696
21
36.30622
31
0.0
0
LINE
8
SCORE
10
160.07965
20
35.38655
30
0.0
11
160.86502
21
33.54720
31
0.0
0
LINE
8
SCORE
10
161.25771
20
32.62753
30
0.0
11
162.04308
21
30.78819
31
0.0
0
LINE
8
SCORE
10
162.43577
20
29.86851
30
0.0
11
163.22114
21
28.02917
31
0.0
0
LINE
8
SCORE2
10
197.43304
20
199.25962
30
0.0
11
217.83017
21
46.86262
31
0.0
0
LINE
8
SCORE2
10
89.39611
20
200.92759
30
0.0
11
163.46886
21
27.44900
31
0.0
0
ENDSEC
0
EOF
