0
SECTION
2
ENTITIES
0
POLYLINE
8
CUT
66
1
70
1
0
VERTEX
8
CUT
10
-0.07698
20
160.19078
30
0.0
0
VERTEX
8
CUT
10
16.48820
20
119.51172
30
0.0
0
VERTEX
8
CUT
10
8.09464
20
56.79929
30
0.0
0
VERTEX
8
CUT
10
80.01643
20
47.17313
30
0.0
0
VERTEX
8
CUT
10
80.01280
20
47.15219
30
0.0
0
VERTEX
8
CUT
10
95.45436
20
43.86429
30
0.0
0
VERTEX
8
CUT
10
110.83077
20
39.21359
30
0.0
0
VERTEX
8
CUT
10
125.76327
20
33.29042
30
0.0
0
VERTEX
8
CUT
10
137.23862
20
27.58289
30
0.0
0
VERTEX
8
CUT
10
137.16458
20
27.40948
30
0.0
0
VERTEX
8
CUT
10
152.29212
20
20.95024
30
0.0
0
VERTEX
8
CUT
10
154.69814
20
20.04788
30
0.0
0
VERTEX
8
CUT
10
157.10211
20
19.14488
30
0.0
0
VERTEX
8
CUT
10
159.50561
20
18.24068
30
0.0
0
VERTEX
8
CUT
10
161.90866
20
17.33529
30
0.0
0
VERTEX
8
CUT
10
164.31127
20
16.42873
30
0.0
0
VERTEX
8
CUT
10
166.71343
20
15.52101
30
0.0
0
VERTEX
8
CUT
10
169.11517
20
14.61215
30
0.0
0
VERTEX
8
CUT
10
171.51648
20
13.70218
30
0.0
0
VERTEX
8
CUT
10
173.91737
20
12.79110
30
0.0
0
VERTEX
8
CUT
10
176.31784
20
11.87894
30
0.0
0
VERTEX
8
CUT
10
178.71791
20
10.96571
30
0.0
0
VERTEX
8
CUT
10
181.11758
20
10.05143
30
0.0
0
VERTEX
8
CUT
10
183.51686
20
9.13612
30
0.0
0
VERTEX
8
CUT
10
185.91575
20
8.21979
30
0.0
0
VERTEX
8
CUT
10
188.31426
20
7.30247
30
0.0
0
VERTEX
8
CUT
10
190.71240
20
6.38416
30
0.0
0
VERTEX
8
CUT
10
193.11018
20
5.46489
30
0.0
0
VERTEX
8
CUT
10
195.50759
20
4.54468
30
0.0
0
VERTEX
8
CUT
10
197.90465
20
3.62354
30
0.0
0
VERTEX
8
CUT
10
200.30136
20
2.70149
30
0.0
0
VERTEX
8
CUT
10
202.69774
20
1.77854
30
0.0
0
VERTEX
8
CUT
10
205.09378
20
0.85472
30
0.0
0
VERTEX
8
CUT
10
207.55705
20
-0.09604
30
0.0
0
VERTEX
8
CUT
10
242.41340
20
81.53762
30
0.0
0
VERTEX
8
CUT
10
278.60992
20
110.75616
30
0.0
0
VERTEX
8
CUT
10
341.57927
20
258.23054
30
0.0
0
VERTEX
8
CUT
10
316.38313
20
268.98879
30
0.0
0
VERTEX
8
CUT
10
318.27878
20
271.63170
30
0.0
0
VERTEX
8
CUT
10
305.69121
20
277.00635
30
0.0
0
VERTEX
8
CUT
10
305.09332
20
273.80932
30
0.0
0
VERTEX
8
CUT
10
285.61106
20
282.12787
30
0.0
0
VERTEX
8
CUT
10
287.50671
20
284.77077
30
0.0
0
VERTEX
8
CUT
10
274.91913
20
290.14542
30
0.0
0
VERTEX
8
CUT
10
274.32125
20
286.94839
30
0.0
0
VERTEX
8
CUT
10
252.04506
20
296.45989
30
0.0
0
VERTEX
8
CUT
10
211.52244
20
201.55581
30
0.0
0
VERTEX
8
CUT
10
200.74869
20
201.55581
30
0.0
0
VERTEX
8
CUT
10
196.54869
20
205.75581
30
0.0
0
VERTEX
8
CUT
10
186.95336
20
205.75581
30
0.0
0
VERTEX
8
CUT
10
182.75336
20
201.55581
30
0.0
0
VERTEX
8
CUT
10
178.61549
20
201.55581
30
0.0
0
VERTEX
8
CUT
10
174.41549
20
205.75581
30
0.0
0
VERTEX
8
CUT
10
164.82016
20
205.75581
30
0.0
0
VERTEX
8
CUT
10
160.62016
20
201.55581
30
0.0
0
VERTEX
8
CUT
10
156.48230
20
201.55581
30
0.0
0
VERTEX
8
CUT
10
152.28230
20
205.75581
30
0.0
0
VERTEX
8
CUT
10
136.82016
20
205.75581
30
0.0
0
VERTEX
8
CUT
10
132.62016
20
201.55581
30
0.0
0
VERTEX
8
CUT
10
128.48230
20
201.55581
30
0.0
0
VERTEX
8
CUT
10
124.28230
20
205.75581
30
0.0
0
VERTEX
8
CUT
10
118.87078
20
205.75581
30
0.0
0
VERTEX
8
CUT
10
114.67078
20
201.55581
30
0.0
0
VERTEX
8
CUT
10
100.39888
20
201.55581
30
0.0
0
VERTEX
8
CUT
10
100.39887
20
201.55567
30
0.0
0
VERTEX
8
CUT
10
7.13016
20
214.03890
30
0.0
0
VERTEX
8
CUT
10
-0.07698
20
160.19078
30
0.0
0
SEQEND
0
POLYLINE
8
CUT
66
1
70
1
0
VERTEX
8
CUT
10
33.54114
20
203.99649
30
0.0
0
VERTEX
8
CUT
10
45.48464
20
202.39796
30
0.0
0
VERTEX
8
CUT
10
45.91246
20
205.59446
30
0.0
0
VERTEX
8
CUT
10
33.96896
20
207.19299
30
0.0
0
VERTEX
8
CUT
10
33.54114
20
203.99649
30
0.0
0
SEQEND
0
POLYLINE
8
CUT
66
1
70
1
0
VERTEX
8
CUT
10
66.70518
20
199.55777
30
0.0
0
VERTEX
8
CUT
10
78.64868
20
197.95923
30
0.0
0
VERTEX
8
CUT
10
79.07650
20
201.15573
30
0.0
0
VERTEX
8
CUT
10
67.13300
20
202.75427
30
0.0
0
VERTEX
8
CUT
10
66.70518
20
199.55777
30
0.0
0
SEQEND
0
LINE
8
SCORE
10
211.31895
20
200.88825
30
0.0
11
210.14090
21
198.12923
31
0.0
0
LINE
8
SCORE
10
209.94455
20
197.66940
30
0.0
11
208.76649
21
194.91038
31
0.0
0
LINE
8
SCORE
10
208.57015
20
194.45054
30
0.0
11
207.39209
21
191.69152
31
0.0
0
LINE
8
SCORE
10
207.19575
20
191.23169
30
0.0
11
206.01769
21
188.47267
31
0.0
0
LINE
8
SCORE
10
205.82135
20
188.01283
30
0.0
11
204.64329
21
185.25382
31
0.0
0
LINE
8
SCORE
10
204.44694
20
184.79398
30
0.0
11
203.26888
21
182.03496
31
0.0
0
LINE
8
SCORE
10
203.07254
20
181.57513
30
0.0
11
201.89448
21
178.81611
31
0.0
0
LINE
8
SCORE
10
201.69814
20
178.35627
30
0.0
11
200.52008
21
175.59726
31
0.0
0
LINE
8
SCORE
10
200.32374
20
175.13742
30
0.0
11
199.14568
21
172.37840
31
0.0
0
LINE
8
SCORE
10
198.94934
20
171.91857
30
0.0
11
197.77128
21
169.15955
31
0.0
0
LINE
8
SCORE
10
197.57493
20
168.69971
30
0.0
11
196.39687
21
165.94070
31
0.0
0
LINE
8
SCORE
10
196.20053
20
165.48086
30
0.0
11
195.02247
21
162.72184
31
0.0
0
LINE
8
SCORE
10
194.82613
20
162.26201
30
0.0
11
193.64807
21
159.50299
31
0.0
0
LINE
8
SCORE
10
193.45173
20
159.04315
30
0.0
11
192.27367
21
156.28413
31
0.0
0
LINE
8
SCORE
10
192.07732
20
155.82430
30
0.0
11
190.89927
21
153.06528
31
0.0
0
LINE
8
SCORE
10
190.70292
20
152.60544
30
0.0
11
189.52486
21
149.84643
31
0.0
0
LINE
8
SCORE
10
189.32852
20
149.38659
30
0.0
11
188.15046
21
146.62757
31
0.0
0
LINE
8
SCORE
10
187.95412
20
146.16774
30
0.0
11
186.77606
21
143.40872
31
0.0
0
LINE
8
SCORE
10
186.57972
20
142.94888
30
0.0
11
185.40166
21
140.18987
31
0.0
0
LINE
8
SCORE
10
185.20531
20
139.73003
30
0.0
11
184.02726
21
136.97101
31
0.0
0
LINE
8
SCORE
10
183.83091
20
136.51118
30
0.0
11
182.65285
21
133.75216
31
0.0
0
LINE
8
SCORE
10
182.45651
20
133.29232
30
0.0
11
181.27845
21
130.53330
31
0.0
0
LINE
8
SCORE
10
181.08211
20
130.07347
30
0.0
11
179.90405
21
127.31445
31
0.0
0
LINE
8
SCORE
10
179.70771
20
126.85462
30
0.0
11
178.52965
21
124.09560
31
0.0
0
LINE
8
SCORE
10
178.33330
20
123.63576
30
0.0
11
177.15524
21
120.87674
31
0.0
0
LINE
8
SCORE
10
176.95890
20
120.41691
30
0.0
11
175.78084
21
117.65789
31
0.0
0
LINE
8
SCORE
10
175.58450
20
117.19805
30
0.0
11
174.40644
21
114.43904
31
0.0
0
LINE
8
SCORE
10
174.21010
20
113.97920
30
0.0
11
173.03204
21
111.22018
31
0.0
0
LINE
8
SCORE
10
172.83570
20
110.76035
30
0.0
11
171.65764
21
108.00133
31
0.0
0
LINE
8
SCORE
10
171.46129
20
107.54149
30
0.0
11
170.28323
21
104.78248
31
0.0
0
LINE
8
SCORE
10
170.08689
20
104.32264
30
0.0
11
168.90883
21
101.56362
31
0.0
0
LINE
8
SCORE
10
168.71249
20
101.10379
30
0.0
11
167.53443
21
98.34477
31
0.0
0
LINE
8
SCORE
10
167.33809
20
97.88493
30
0.0
11
166.16003
21
95.12591
31
0.0
0
LINE
8
SCORE
10
165.96368
20
94.66608
30
0.0
11
164.78563
21
91.90706
31
0.0
0
LINE
8
SCORE
10
164.58928
20
91.44722
30
0.0
11
163.41122
21
88.68821
31
0.0
0
LINE
8
SCORE
10
163.21488
20
88.22837
30
0.0
11
162.03682
21
85.46935
31
0.0
0
LINE
8
SCORE
10
161.84048
20
85.00952
30
0.0
11
160.66242
21
82.25050
31
0.0
0
LINE
8
SCORE
10
160.46608
20
81.79066
30
0.0
11
159.28802
21
79.03165
31
0.0
0
LINE
8
SCORE
10
159.09167
20
78.57181
30
0.0
11
157.91362
21
75.81279
31
0.0
0
LINE
8
SCORE
10
157.71727
20
75.35296
30
0.0
11
156.53921
21
72.59394
31
0.0
0
LINE
8
SCORE
10
156.34287
20
72.13410
30
0.0
11
155.16481
21
69.37509
31
0.0
0
LINE
8
SCORE
10
154.96847
20
68.91525
30
0.0
11
153.79041
21
66.15623
31
0.0
0
LINE
8
SCORE
10
153.59407
20
65.69640
30
0.0
11
152.41601
21
62.93738
31
0.0
0
LINE
8
SCORE
10
152.21966
20
62.47754
30
0.0
11
151.04160
21
59.71852
31
0.0
0
LINE
8
SCORE
10
150.84526
20
59.25869
30
0.0
11
149.66720
21
56.49967
31
0.0
0
LINE
8
SCORE
10
149.47086
20
56.03983
30
0.0
11
148.29280
21
53.28082
31
0.0
0
LINE
8
SCORE
10
148.09646
20
52.82098
30
0.0
11
146.91840
21
50.06196
31
0.0
0
LINE
8
SCORE
10
146.72205
20
49.60213
30
0.0
11
145.54400
21
46.84311
31
0.0
0
LINE
8
SCORE
10
145.34765
20
46.38327
30
0.0
11
144.16959
21
43.62426
31
0.0
0
LINE
8
SCORE
10
143.97325
20
43.16442
30
0.0
11
142.79519
21
40.40540
31
0.0
0
LINE
8
SCORE
10
142.59885
20
39.94557
30
0.0
11
141.42079
21
37.18655
31
0.0
0
LINE
8
SCORE
10
141.22445
20
36.72671
30
0.0
11
140.04639
21
33.96770
31
0.0
0
LINE
8
SCORE
10
139.85004
20
33.50786
30
0.0
11
138.67199
21
30.74884
31
0.0
0
LINE
8
SCORE
10
138.47564
20
30.28901
30
0.0
11
138.04838
21
29.28835
31
0.0
0
LINE
8
SCORE
10
103.27442
20
199.07730
30
0.0
11
102.87644
21
196.10382
31
0.0
0
LINE
8
SCORE
10
102.81011
20
195.60823
30
0.0
11
102.41214
21
192.63475
31
0.0
0
LINE
8
SCORE
10
102.34581
20
192.13917
30
0.0
11
101.94783
21
189.16568
31
0.0
0
LINE
8
SCORE
10
101.88150
20
188.67010
30
0.0
11
101.48352
21
185.69662
31
0.0
0
LINE
8
SCORE
10
101.41719
20
185.20104
30
0.0
11
101.01922
21
182.22755
31
0.0
0
LINE
8
SCORE
10
100.95289
20
181.73197
30
0.0
11
100.55491
21
178.75849
31
0.0
0
LINE
8
SCORE
10
100.48858
20
178.26290
30
0.0
11
100.09060
21
175.28942
31
0.0
0
LINE
8
SCORE
10
100.02427
20
174.79384
30
0.0
11
99.62630
21
171.82035
31
0.0
0
LINE
8
SCORE
10
99.55997
20
171.32477
30
0.0
11
99.16199
21
168.35129
31
0.0
0
LINE
8
SCORE
10
99.09566
20
167.85571
30
0.0
11
98.69768
21
164.88222
31
0.0
0
LINE
8
SCORE
10
98.63135
20
164.38664
30
0.0
11
98.23337
21
161.41316
31
0.0
0
LINE
8
SCORE
10
98.16704
20
160.91757
30
0.0
11
97.76907
21
157.94409
31
0.0
0
LINE
8
SCORE
10
97.70274
20
157.44851
30
0.0
11
97.30476
21
154.47502
31
0.0
0
LINE
8
SCORE
10
97.23843
20
153.97944
30
0.0
11
96.84045
21
151.00596
31
0.0
0
LINE
8
SCORE
10
96.77412
20
150.51038
30
0.0
11
96.37615
21
147.53689
31
0.0
0
LINE
8
SCORE
10
96.30982
20
147.04131
30
0.0
11
95.91184
21
144.06782
31
0.0
0
LINE
8
SCORE
10
95.84551
20
143.57224
30
0.0
11
95.44753
21
140.59876
31
0.0
0
LINE
8
SCORE
10
95.38120
20
140.10318
30
0.0
11
94.98323
21
137.12969
31
0.0
0
LINE
8
SCORE
10
94.91690
20
136.63411
30
0.0
11
94.51892
21
133.66063
31
0.0
0
LINE
8
SCORE
10
94.45259
20
133.16505
30
0.0
11
94.05461
21
130.19156
31
0.0
0
LINE
8
SCORE
10
93.98828
20
129.69598
30
0.0
11
93.59031
21
126.72249
31
0.0
0
LINE
8
SCORE
10
93.52398
20
126.22691
30
0.0
11
93.12600
21
123.25343
31
0.0
0
LINE
8
SCORE
10
93.05967
20
122.75785
30
0.0
11
92.66169
21
119.78436
31
0.0
0
LINE
8
SCORE
10
92.59536
20
119.28878
30
0.0
11
92.19738
21
116.31530
31
0.0
0
LINE
8
SCORE
10
92.13106
20
115.81972
30
0.0
11
91.73308
21
112.84623
31
0.0
0
LINE
8
SCORE
10
91.66675
20
112.35065
30
0.0
11
91.26877
21
109.37716
31
0.0
0
LINE
8
SCORE
10
91.20244
20
108.88158
30
0.0
11
90.80446
21
105.90810
31
0.0
0
LINE
8
SCORE
10
90.73813
20
105.41252
30
0.0
11
90.34016
21
102.43903
31
0.0
0
LINE
8
SCORE
10
90.27383
20
101.94345
30
0.0
11
89.87585
21
98.96997
31
0.0
0
LINE
8
SCORE
10
89.80952
20
98.47439
30
0.0
11
89.41154
21
95.50090
31
0.0
0
LINE
8
SCORE
10
89.34521
20
95.00532
30
0.0
11
88.94724
21
92.03183
31
0.0
0
LINE
8
SCORE
10
88.88091
20
91.53625
30
0.0
11
88.48293
21
88.56277
31
0.0
0
LINE
8
SCORE
10
88.41660
20
88.06719
30
0.0
11
88.01862
21
85.09370
31
0.0
0
LINE
8
SCORE
10
87.95229
20
84.59812
30
0.0
11
87.55432
21
81.62464
31
0.0
0
LINE
8
SCORE
10
87.48799
20
81.12906
30
0.0
11
87.09001
21
78.15557
31
0.0
0
LINE
8
SCORE
10
87.02368
20
77.65999
30
0.0
11
86.62570
21
74.68650
31
0.0
0
LINE
8
SCORE
10
86.55937
20
74.19092
30
0.0
11
86.16140
21
71.21744
31
0.0
0
LINE
8
SCORE
10
86.09507
20
70.72186
30
0.0
11
85.69709
21
67.74837
31
0.0
0
LINE
8
SCORE
10
85.63076
20
67.25279
30
0.0
11
85.23278
21
64.27931
31
0.0
0
LINE
8
SCORE
10
85.16645
20
63.78373
30
0.0
11
84.76847
21
60.81024
31
0.0
0
LINE
8
SCORE
10
84.70215
20
60.31466
30
0.0
11
84.30417
21
57.34117
31
0.0
0
LINE
8
SCORE
10
84.23784
20
56.84559
30
0.0
11
83.83986
21
53.87211
31
0.0
0
LINE
8
SCORE
10
83.77353
20
53.37653
30
0.0
11
83.37555
21
50.40304
31
0.0
0
LINE
8
SCORE
10
83.30922
20
49.90746
30
0.0
11
83.16702
21
48.84495
31
0.0
0
LINE
8
SCORE
10
297.77306
20
160.92039
30
0.0
11
295.01404
21
162.09845
31
0.0
0
LINE
8
SCORE
10
294.55421
20
162.29479
30
0.0
11
291.79519
21
163.47285
31
0.0
0
LINE
8
SCORE
10
291.33535
20
163.66920
30
0.0
11
288.57633
21
164.84726
31
0.0
0
LINE
8
SCORE
10
288.11650
20
165.04360
30
0.0
11
285.35748
21
166.22166
31
0.0
0
LINE
8
SCORE
10
284.89765
20
166.41800
30
0.0
11
282.13863
21
167.59606
31
0.0
0
LINE
8
SCORE
10
281.67879
20
167.79240
30
0.0
11
278.91977
21
168.97046
31
0.0
0
LINE
8
SCORE
10
278.45994
20
169.16681
30
0.0
11
275.70092
21
170.34486
31
0.0
0
LINE
8
SCORE
10
275.24108
20
170.54121
30
0.0
11
272.48207
21
171.71927
31
0.0
0
LINE
8
SCORE
10
272.02223
20
171.91561
30
0.0
11
269.26321
21
173.09367
31
0.0
0
LINE
8
SCORE
10
268.80338
20
173.29001
30
0.0
11
266.04436
21
174.46807
31
0.0
0
LINE
8
SCORE
10
265.58452
20
174.66441
30
0.0
11
262.82551
21
175.84247
31
0.0
0
LINE
8
SCORE
10
262.36567
20
176.03882
30
0.0
11
259.60665
21
177.21687
31
0.0
0
LINE
8
SCORE
10
259.14682
20
177.41322
30
0.0
11
256.38780
21
178.59128
31
0.0
0
LINE
8
SCORE
10
255.92796
20
178.78762
30
0.0
11
253.16894
21
179.96568
31
0.0
0
LINE
8
SCORE
10
252.70911
20
180.16202
30
0.0
11
249.95009
21
181.34008
31
0.0
0
LINE
8
SCORE
10
249.49025
20
181.53642
30
0.0
11
246.73124
21
182.71448
31
0.0
0
LINE
8
SCORE
10
246.27140
20
182.91083
30
0.0
11
243.51238
21
184.08889
31
0.0
0
LINE
8
SCORE
10
243.05255
20
184.28523
30
0.0
11
240.29353
21
185.46329
31
0.0
0
LINE
8
SCORE
10
239.83369
20
185.65963
30
0.0
11
237.07468
21
186.83769
31
0.0
0
LINE
8
SCORE
10
236.61484
20
187.03403
30
0.0
11
233.85582
21
188.21209
31
0.0
0
LINE
8
SCORE
10
233.39599
20
188.40843
30
0.0
11
230.63697
21
189.58649
31
0.0
0
LINE
8
SCORE
10
230.17713
20
189.78284
30
0.0
11
227.41812
21
190.96090
31
0.0
0
LINE
8
SCORE
10
226.95828
20
191.15724
30
0.0
11
224.19926
21
192.33530
31
0.0
0
LINE
8
SCORE
10
223.73943
20
192.53164
30
0.0
11
220.98041
21
193.70970
31
0.0
0
LINE
8
SCORE
10
220.52057
20
193.90604
30
0.0
11
217.76155
21
195.08410
31
0.0
0
LINE
8
SCORE
10
217.30172
20
195.28045
30
0.0
11
214.54270
21
196.45850
31
0.0
0
LINE
8
SCORE
10
214.08286
20
196.65485
30
0.0
11
211.32385
21
197.83291
31
0.0
0
LINE
8
SCORE
10
210.86401
20
198.02925
30
0.0
11
209.13568
21
198.76722
31
0.0
0
LINE
8
SCORE2
10
211.31895
20
200.88825
30
0.0
11
138.04838
21
29.28835
31
0.0
0
LINE
8
SCORE2
10
103.27442
20
199.07730
30
0.0
11
83.16702
21
48.84495
31
0.0
0
LINE
8
SCORE2
10
297.77306
20
160.92039
30
0.0
11
209.13568
21
198.76722
31
0.0
0
ENDSEC
0
EOF
