<svg xmlns="http://www.w3.org/2000/svg" viewBox="0 0 341.48084073104377 296.36146098268955" width="100%" preserveAspectRatio="xMidYMid meet">
<rect x="0" y="0" width="341.48084073104377" height="296.36146098268955" fill="#0d1117"/>
<polygon points="137.34,27.62 125.79,33.36 110.86,39.28 95.47,43.94 80.39,47.15 82.90,46.81 103.55,201.11 100.77,201.48 114.70,201.48 118.90,205.68 124.25,205.68 128.45,201.48 132.65,201.48 136.85,205.68 152.25,205.68 156.45,201.48 160.65,201.48 164.85,205.68 174.38,205.68 178.58,201.48 182.78,201.48 186.98,205.68 196.52,205.68 200.72,201.48 211.57,201.48" fill="#1f3a5f" fill-opacity="0.55" stroke="none"/>
<polygon points="278.55,110.80 242.35,81.58 207.52,0.00 205.12,0.92 202.72,1.85 200.33,2.77 197.93,3.69 195.53,4.61 193.14,5.53 190.74,6.45 188.34,7.37 185.94,8.29 183.54,9.21 181.14,10.12 178.74,11.04 176.34,11.95 173.94,12.86 171.54,13.77 169.14,14.68 166.74,15.59 164.34,16.50 161.94,17.41 159.53,18.31 157.13,19.22 154.72,20.12 152.32,21.02 137.26,27.45 210.22,198.31 299.61,160.14" fill="#3a2f1f" fill-opacity="0.55" stroke="none"/>
<polygon points="82.66,46.89 79.28,47.35 75.89,47.80 72.51,48.25 69.12,48.71 65.73,49.16 62.35,49.61 58.96,50.07 55.58,50.52 52.19,50.97 48.81,51.43 45.42,51.88 42.04,52.33 38.65,52.79 35.26,53.24 31.88,53.69 28.49,54.14 25.11,54.60 21.72,55.05 18.34,55.50 14.95,55.96 11.56,56.41 8.18,56.86 16.57,119.52 0.00,160.20 7.19,213.95 103.54,201.06 82.90,46.86" fill="#3a2f1f" fill-opacity="0.55" stroke="none"/>
<polygon points="252.08,296.36 274.38,286.84 274.98,290.04 287.39,284.74 285.50,282.10 305.15,273.70 305.75,276.90 318.16,271.60 316.27,268.96 341.48,258.19 299.61,160.14 210.22,198.31" fill="#3a2f1f" fill-opacity="0.55" stroke="none"/>
<path d="M -0.08,160.19 L 16.49,119.51 L 8.09,56.80 L 80.02,47.17 L 80.01,47.15 L 95.45,43.86 L 110.83,39.21 L 125.76,33.29 L 137.24,27.58 L 137.16,27.41 L 152.29,20.95 L 154.70,20.05 L 157.10,19.14 L 159.51,18.24 L 161.91,17.34 L 164.31,16.43 L 166.71,15.52 L 169.12,14.61 L 171.52,13.70 L 173.92,12.79 L 176.32,11.88 L 178.72,10.97 L 181.12,10.05 L 183.52,9.14 L 185.92,8.22 L 188.31,7.30 L 190.71,6.38 L 193.11,5.46 L 195.51,4.54 L 197.90,3.62 L 200.30,2.70 L 202.70,1.78 L 205.09,0.85 L 207.56,-0.10 L 242.41,81.54 L 278.61,110.76 L 341.58,258.23 L 316.38,268.99 L 318.28,271.63 L 305.69,277.01 L 305.09,273.81 L 285.61,282.13 L 287.51,284.77 L 274.92,290.15 L 274.32,286.95 L 252.05,296.46 L 211.52,201.56 L 200.75,201.56 L 196.55,205.76 L 186.95,205.76 L 182.75,201.56 L 178.62,201.56 L 174.42,205.76 L 164.82,205.76 L 160.62,201.56 L 156.48,201.56 L 152.28,205.76 L 136.82,205.76 L 132.62,201.56 L 128.48,201.56 L 124.28,205.76 L 118.87,205.76 L 114.67,201.56 L 100.40,201.56 L 100.40,201.56 L 7.13,214.04 L -0.08,160.19 Z" fill="none" stroke="#ff0000" stroke-width="0.6"/>
<path d="M 33.54,204.00 L 45.48,202.40 L 45.91,205.59 L 33.97,207.19 L 33.54,204.00 Z" fill="none" stroke="#ff0000" stroke-width="0.6"/>
<path d="M 66.71,199.56 L 78.65,197.96 L 79.08,201.16 L 67.13,202.75 L 66.71,199.56 Z" fill="none" stroke="#ff0000" stroke-width="0.6"/>
<line x1="211.32" y1="200.89" x2="138.05" y2="29.29" stroke="#00a650" stroke-width="1.6" stroke-opacity="0.8"/>
<line x1="103.27" y1="199.08" x2="83.17" y2="48.84" stroke="#00a650" stroke-width="1.6" stroke-opacity="0.8"/>
<line x1="297.77" y1="160.92" x2="209.14" y2="198.77" stroke="#00a650" stroke-width="1.6" stroke-opacity="0.8"/>
<line x1="211.32" y1="200.89" x2="138.05" y2="29.29" stroke="#0000ff" stroke-width="0.8" stroke-dasharray="2 1.5"/>
<line x1="103.27" y1="199.08" x2="83.17" y2="48.84" stroke="#0000ff" stroke-width="0.8" stroke-dasharray="2 1.5"/>
<line x1="297.77" y1="160.92" x2="209.14" y2="198.77" stroke="#0000ff" stroke-width="0.8" stroke-dasharray="2 1.5"/>
<text x="174.7" y="115.1" fill="#9ad" font-size="5" text-anchor="middle">90°</text>
<text x="93.2" y="124.0" fill="#9ad" font-size="5" text-anchor="middle">90°</text>
<text x="253.5" y="179.8" fill="#9ad" font-size="5" text-anchor="middle">113°</text>
</svg>