0
SECTION
2
ENTITIES
0
POLYLINE
8
CUT
66
1
70
1
0
VERTEX
8
CUT
10
-0.16857
20
235.04174
30
0.0
0
VERTEX
8
CUT
10
12.02482
20
143.94199
30
0.0
0
VERTEX
8
CUT
10
18.24213
20
97.48951
30
0.0
0
VERTEX
8
CUT
10
44.92178
20
62.59843
30
0.0
0
VERTEX
8
CUT
10
53.32265
20
-0.16857
30
0.0
0
VERTEX
8
CUT
10
124.89844
20
9.41127
30
0.0
0
VERTEX
8
CUT
10
124.90434
20
9.36716
30
0.0
0
VERTEX
8
CUT
10
134.68940
20
10.60541
30
0.0
0
VERTEX
8
CUT
10
150.73331
20
11.27898
30
0.0
0
VERTEX
8
CUT
10
166.77723
20
10.60541
30
0.0
0
VERTEX
8
CUT
10
176.56229
20
9.36716
30
0.0
0
VERTEX
8
CUT
10
176.56819
20
9.41127
30
0.0
0
VERTEX
8
CUT
10
248.14398
20
-0.16857
30
0.0
0
VERTEX
8
CUT
10
256.54485
20
62.59843
30
0.0
0
VERTEX
8
CUT
10
283.22449
20
97.48951
30
0.0
0
VERTEX
8
CUT
10
290.44423
20
151.43172
30
0.0
0
VERTEX
8
CUT
10
196.94868
20
163.94541
30
0.0
0
VERTEX
8
CUT
10
196.83345
20
163.08445
30
0.0
0
VERTEX
8
CUT
10
190.24872
20
163.08445
30
0.0
0
VERTEX
8
CUT
10
186.04872
20
167.28445
30
0.0
0
VERTEX
8
CUT
10
170.97118
20
167.28445
30
0.0
0
VERTEX
8
CUT
10
166.77118
20
163.08445
30
0.0
0
VERTEX
8
CUT
10
162.69545
20
163.08445
30
0.0
0
VERTEX
8
CUT
10
158.49545
20
167.28445
30
0.0
0
VERTEX
8
CUT
10
142.97118
20
167.28445
30
0.0
0
VERTEX
8
CUT
10
138.77118
20
163.08445
30
0.0
0
VERTEX
8
CUT
10
134.69545
20
163.08445
30
0.0
0
VERTEX
8
CUT
10
130.49545
20
167.28445
30
0.0
0
VERTEX
8
CUT
10
115.41790
20
167.28445
30
0.0
0
VERTEX
8
CUT
10
111.21790
20
163.08445
30
0.0
0
VERTEX
8
CUT
10
104.63315
20
163.08445
30
0.0
0
VERTEX
8
CUT
10
93.32690
20
247.55616
30
0.0
0
VERTEX
8
CUT
10
78.77847
20
245.60884
30
0.0
0
VERTEX
8
CUT
10
79.08911
20
252.05705
30
0.0
0
VERTEX
8
CUT
10
68.42427
20
250.62956
30
0.0
0
VERTEX
8
CUT
10
70.41978
20
244.49003
30
0.0
0
VERTEX
8
CUT
10
53.90547
20
242.27958
30
0.0
0
VERTEX
8
CUT
10
54.21611
20
248.72779
30
0.0
0
VERTEX
8
CUT
10
43.55127
20
247.30029
30
0.0
0
VERTEX
8
CUT
10
45.54678
20
241.16076
30
0.0
0
VERTEX
8
CUT
10
29.03247
20
238.95031
30
0.0
0
VERTEX
8
CUT
10
29.34311
20
245.39852
30
0.0
0
VERTEX
8
CUT
10
18.67827
20
243.97103
30
0.0
0
VERTEX
8
CUT
10
20.67378
20
237.83150
30
0.0
0
VERTEX
8
CUT
10
-0.16857
20
235.04174
30
0.0
0
SEQEND
0
POLYLINE
8
CUT
66
1
70
1
0
VERTEX
8
CUT
10
209.95096
20
149.19012
30
0.0
0
VERTEX
8
CUT
10
217.97937
20
148.11558
30
0.0
0
VERTEX
8
CUT
10
218.83503
20
154.50857
30
0.0
0
VERTEX
8
CUT
10
210.80662
20
155.58311
30
0.0
0
VERTEX
8
CUT
10
209.95096
20
149.19012
30
0.0
0
SEQEND
0
POLYLINE
8
CUT
66
1
70
1
0
VERTEX
8
CUT
10
234.82399
20
145.86105
30
0.0
0
VERTEX
8
CUT
10
242.85240
20
144.78651
30
0.0
0
VERTEX
8
CUT
10
243.70805
20
151.17950
30
0.0
0
VERTEX
8
CUT
10
235.67964
20
152.25404
30
0.0
0
VERTEX
8
CUT
10
234.82399
20
145.86105
30
0.0
0
SEQEND
0
POLYLINE
8
CUT
66
1
70
1
0
VERTEX
8
CUT
10
259.69702
20
142.53198
30
0.0
0
VERTEX
8
CUT
10
267.72543
20
141.45744
30
0.0
0
VERTEX
8
CUT
10
268.58108
20
147.85043
30
0.0
0
VERTEX
8
CUT
10
260.55267
20
148.92497
30
0.0
0
VERTEX
8
CUT
10
259.69702
20
142.53198
30
0.0
0
SEQEND
0
LINE
8
SCORE
10
104.38917
20
163.77684
30
0.0
11
104.78715
21
160.80335
31
0.0
0
LINE
8
SCORE
10
105.18513
20
157.82987
30
0.0
11
105.58311
21
154.85638
31
0.0
0
LINE
8
SCORE
10
105.98108
20
151.88290
30
0.0
11
106.37906
21
148.90941
31
0.0
0
LINE
8
SCORE
10
106.77704
20
145.93593
30
0.0
11
107.17502
21
142.96244
31
0.0
0
LINE
8
SCORE
10
107.57299
20
139.98896
30
0.0
11
107.97097
21
137.01547
31
0.0
0
LINE
8
SCORE
10
108.36895
20
134.04199
30
0.0
11
108.76692
21
131.06850
31
0.0
0
LINE
8
SCORE
10
109.16490
20
128.09502
30
0.0
11
109.56288
21
125.12153
31
0.0
0
LINE
8
SCORE
10
109.96086
20
122.14805
30
0.0
11
110.35883
21
119.17456
31
0.0
0
LINE
8
SCORE
10
110.75681
20
116.20108
30
0.0
11
111.15479
21
113.22759
31
0.0
0
LINE
8
SCORE
10
111.55277
20
110.25411
30
0.0
11
111.95074
21
107.28062
31
0.0
0
LINE
8
SCORE
10
112.34872
20
104.30714
30
0.0
11
112.74670
21
101.33365
31
0.0
0
LINE
8
SCORE
10
113.14468
20
98.36017
30
0.0
11
113.54265
21
95.38668
31
0.0
0
LINE
8
SCORE
10
113.94063
20
92.41320
30
0.0
11
114.33861
21
89.43971
31
0.0
0
LINE
8
SCORE
10
114.73658
20
86.46623
30
0.0
11
115.13456
21
83.49274
31
0.0
0
LINE
8
SCORE
10
115.53254
20
80.51926
30
0.0
11
115.93052
21
77.54577
31
0.0
0
LINE
8
SCORE
10
116.32849
20
74.57228
30
0.0
11
116.72647
21
71.59880
31
0.0
0
LINE
8
SCORE
10
117.12445
20
68.62531
30
0.0
11
117.52243
21
65.65183
31
0.0
0
LINE
8
SCORE
10
117.92040
20
62.67834
30
0.0
11
118.31838
21
59.70486
31
0.0
0
LINE
8
SCORE
10
118.71636
20
56.73137
30
0.0
11
119.11434
21
53.75789
31
0.0
0
LINE
8
SCORE
10
119.51231
20
50.78440
30
0.0
11
119.91029
21
47.81092
31
0.0
0
LINE
8
SCORE
10
120.30827
20
44.83743
30
0.0
11
120.70624
21
41.86395
31
0.0
0
LINE
8
SCORE
10
121.10422
20
38.89046
30
0.0
11
121.50220
21
35.91698
31
0.0
0
LINE
8
SCORE
10
121.90018
20
32.94349
30
0.0
11
122.29815
21
29.97001
31
0.0
0
LINE
8
SCORE
10
122.69613
20
26.99652
30
0.0
11
123.09411
21
24.02304
31
0.0
0
LINE
8
SCORE
10
123.49209
20
21.04955
30
0.0
11
123.89006
21
18.07607
31
0.0
0
LINE
8
SCORE
10
124.28804
20
15.10258
30
0.0
11
124.68602
21
12.12910
31
0.0
0
LINE
8
SCORE
10
197.07745
20
163.77684
30
0.0
11
196.67948
21
160.80335
31
0.0
0
LINE
8
SCORE
10
196.28150
20
157.82987
30
0.0
11
195.88352
21
154.85638
31
0.0
0
LINE
8
SCORE
10
195.48554
20
151.88290
30
0.0
11
195.08757
21
148.90941
31
0.0
0
LINE
8
SCORE
10
194.68959
20
145.93593
30
0.0
11
194.29161
21
142.96244
31
0.0
0
LINE
8
SCORE
10
193.89364
20
139.98896
30
0.0
11
193.49566
21
137.01547
31
0.0
0
LINE
8
SCORE
10
193.09768
20
134.04199
30
0.0
11
192.69970
21
131.06850
31
0.0
0
LINE
8
SCORE
10
192.30173
20
128.09502
30
0.0
11
191.90375
21
125.12153
31
0.0
0
LINE
8
SCORE
10
191.50577
20
122.14805
30
0.0
11
191.10779
21
119.17456
31
0.0
0
LINE
8
SCORE
10
190.70982
20
116.20108
30
0.0
11
190.31184
21
113.22759
31
0.0
0
LINE
8
SCORE
10
189.91386
20
110.25411
30
0.0
11
189.51588
21
107.28062
31
0.0
0
LINE
8
SCORE
10
189.11791
20
104.30714
30
0.0
11
188.71993
21
101.33365
31
0.0
0
LINE
8
SCORE
10
188.32195
20
98.36017
30
0.0
11
187.92398
21
95.38668
31
0.0
0
LINE
8
SCORE
10
187.52600
20
92.41320
30
0.0
11
187.12802
21
89.43971
31
0.0
0
LINE
8
SCORE
10
186.73004
20
86.46623
30
0.0
11
186.33207
21
83.49274
31
0.0
0
LINE
8
SCORE
10
185.93409
20
80.51926
30
0.0
11
185.53611
21
77.54577
31
0.0
0
LINE
8
SCORE
10
185.13813
20
74.57228
30
0.0
11
184.74016
21
71.59880
31
0.0
0
LINE
8
SCORE
10
184.34218
20
68.62531
30
0.0
11
183.94420
21
65.65183
31
0.0
0
LINE
8
SCORE
10
183.54623
20
62.67834
30
0.0
11
183.14825
21
59.70486
31
0.0
0
LINE
8
SCORE
10
182.75027
20
56.73137
30
0.0
11
182.35229
21
53.75789
31
0.0
0
LINE
8
SCORE
10
181.95432
20
50.78440
30
0.0
11
181.55634
21
47.81092
31
0.0
0
LINE
8
SCORE
10
181.15836
20
44.83743
30
0.0
11
180.76038
21
41.86395
31
0.0
0
LINE
8
SCORE
10
180.36241
20
38.89046
30
0.0
11
179.96443
21
35.91698
31
0.0
0
LINE
8
SCORE
10
179.56645
20
32.94349
30
0.0
11
179.16847
21
29.97001
31
0.0
0
LINE
8
SCORE
10
178.77050
20
26.99652
30
0.0
11
178.37252
21
24.02304
31
0.0
0
LINE
8
SCORE
10
177.97454
20
21.04955
30
0.0
11
177.57657
21
18.07607
31
0.0
0
LINE
8
SCORE
10
177.17859
20
15.10258
30
0.0
11
176.78061
21
12.12910
31
0.0
0
LINE
8
SCORE
10
111.64572
20
157.42684
30
0.0
11
108.67224
21
157.02886
31
0.0
0
LINE
8
SCORE
10
105.69875
20
156.63089
30
0.0
11
102.72527
21
156.23291
31
0.0
0
LINE
8
SCORE
10
99.75178
20
155.83493
30
0.0
11
96.77830
21
155.43695
31
0.0
0
LINE
8
SCORE
10
93.80481
20
155.03897
30
0.0
11
90.83133
21
154.64099
31
0.0
0
LINE
8
SCORE
10
87.85784
20
154.24301
30
0.0
11
84.88436
21
153.84503
31
0.0
0
LINE
8
SCORE
10
81.91087
20
153.44705
30
0.0
11
78.93739
21
153.04908
31
0.0
0
LINE
8
SCORE
10
75.96390
20
152.65110
30
0.0
11
72.99042
21
152.25312
31
0.0
0
LINE
8
SCORE
10
70.01693
20
151.85514
30
0.0
11
67.04345
21
151.45716
31
0.0
0
LINE
8
SCORE
10
64.06996
20
151.05918
30
0.0
11
61.09648
21
150.66120
31
0.0
0
LINE
8
SCORE
10
58.12299
20
150.26322
30
0.0
11
55.14951
21
149.86524
31
0.0
0
LINE
8
SCORE
10
52.17602
20
149.46727
30
0.0
11
49.20254
21
149.06929
31
0.0
0
LINE
8
SCORE
10
46.22905
20
148.67131
30
0.0
11
43.25557
21
148.27333
31
0.0
0
LINE
8
SCORE
10
40.28208
20
147.87535
30
0.0
11
37.30860
21
147.47737
31
0.0
0
LINE
8
SCORE
10
34.33511
20
147.07939
30
0.0
11
31.36163
21
146.68141
31
0.0
0
LINE
8
SCORE
10
28.38814
20
146.28343
30
0.0
11
25.41466
21
145.88546
31
0.0
0
LINE
8
SCORE
10
22.44117
20
145.48748
30
0.0
11
19.46769
21
145.08950
31
0.0
0
LINE
8
SCORE
10
16.49420
20
144.69152
30
0.0
11
13.52072
21
144.29354
31
0.0
0
LINE
8
SCORE2
10
104.38917
20
163.77684
30
0.0
11
125.02722
21
9.57984
31
0.0
0
LINE
8
SCORE2
10
197.07745
20
163.77684
30
0.0
11
176.43941
21
9.57984
31
0.0
0
LINE
8
SCORE2
10
111.64572
20
157.42684
30
0.0
11
12.15362
21
144.11056
31
0.0
0
ENDSEC
0
EOF
