0
SECTION
2
ENTITIES
0
POLYLINE
8
CUT
66
1
70
1
0
VERTEX
8
CUT
10
-0.07787
20
163.05086
30
0.0
0
VERTEX
8
CUT
10
98.42625
20
159.20180
30
0.0
0
VERTEX
8
CUT
10
98.26226
20
155.00501
30
0.0
0
VERTEX
8
CUT
10
107.86100
20
154.62994
30
0.0
0
VERTEX
8
CUT
10
112.22179
20
158.66274
30
0.0
0
VERTEX
8
CUT
10
116.35650
20
158.50118
30
0.0
0
VERTEX
8
CUT
10
120.38931
20
154.14039
30
0.0
0
VERTEX
8
CUT
10
135.39326
20
153.55411
30
0.0
0
VERTEX
8
CUT
10
139.75405
20
157.58692
30
0.0
0
VERTEX
8
CUT
10
143.88876
20
157.42535
30
0.0
0
VERTEX
8
CUT
10
147.92157
20
153.06457
30
0.0
0
VERTEX
8
CUT
10
158.66930
20
152.64460
30
0.0
0
VERTEX
8
CUT
10
163.03009
20
156.67740
30
0.0
0
VERTEX
8
CUT
10
167.16480
20
156.51584
30
0.0
0
VERTEX
8
CUT
10
171.19761
20
152.15505
30
0.0
0
VERTEX
8
CUT
10
176.60500
20
151.94376
30
0.0
0
VERTEX
8
CUT
10
180.96578
20
155.97657
30
0.0
0
VERTEX
8
CUT
10
185.10050
20
155.81500
30
0.0
0
VERTEX
8
CUT
10
189.13330
20
151.45422
30
0.0
0
VERTEX
8
CUT
10
204.58365
20
150.85049
30
0.0
0
VERTEX
8
CUT
10
208.94443
20
154.88330
30
0.0
0
VERTEX
8
CUT
10
213.07915
20
154.72174
30
0.0
0
VERTEX
8
CUT
10
217.11195
20
150.36095
30
0.0
0
VERTEX
8
CUT
10
226.69996
20
149.98630
30
0.0
0
VERTEX
8
CUT
10
231.06075
20
154.01910
30
0.0
0
VERTEX
8
CUT
10
235.19546
20
153.85754
30
0.0
0
VERTEX
8
CUT
10
239.22827
20
149.49675
30
0.0
0
VERTEX
8
CUT
10
248.81628
20
149.12210
30
0.0
0
VERTEX
8
CUT
10
253.17707
20
153.15491
30
0.0
0
VERTEX
8
CUT
10
257.31178
20
152.99334
30
0.0
0
VERTEX
8
CUT
10
261.34459
20
148.63255
30
0.0
0
VERTEX
8
CUT
10
269.08509
20
148.33009
30
0.0
0
VERTEX
8
CUT
10
270.71110
20
148.95049
30
0.0
0
VERTEX
8
CUT
10
272.63245
20
143.91476
30
0.0
0
VERTEX
8
CUT
10
270.95070
20
143.27310
30
0.0
0
VERTEX
8
CUT
10
272.50138
20
139.20888
30
0.0
0
VERTEX
8
CUT
10
274.18313
20
139.85054
30
0.0
0
VERTEX
8
CUT
10
280.52245
20
123.23563
30
0.0
0
VERTEX
8
CUT
10
278.84070
20
122.59397
30
0.0
0
VERTEX
8
CUT
10
280.39138
20
118.52975
30
0.0
0
VERTEX
8
CUT
10
282.07313
20
119.17141
30
0.0
0
VERTEX
8
CUT
10
288.41245
20
102.55650
30
0.0
0
VERTEX
8
CUT
10
286.73070
20
101.91484
30
0.0
0
VERTEX
8
CUT
10
288.28138
20
97.85062
30
0.0
0
VERTEX
8
CUT
10
289.96313
20
98.49228
30
0.0
0
VERTEX
8
CUT
10
298.39383
20
76.39600
30
0.0
0
VERTEX
8
CUT
10
296.71208
20
75.75434
30
0.0
0
VERTEX
8
CUT
10
298.26276
20
71.69012
30
0.0
0
VERTEX
8
CUT
10
299.94451
20
72.33178
30
0.0
0
VERTEX
8
CUT
10
304.79239
20
59.62583
30
0.0
0
VERTEX
8
CUT
10
303.11064
20
58.98417
30
0.0
0
VERTEX
8
CUT
10
304.66132
20
54.91995
30
0.0
0
VERTEX
8
CUT
10
306.34307
20
55.56161
30
0.0
0
VERTEX
8
CUT
10
313.09612
20
37.86234
30
0.0
0
VERTEX
8
CUT
10
311.41437
20
37.22068
30
0.0
0
VERTEX
8
CUT
10
312.96505
20
33.15646
30
0.0
0
VERTEX
8
CUT
10
314.64680
20
33.79812
30
0.0
0
VERTEX
8
CUT
10
322.91826
20
12.11921
30
0.0
0
VERTEX
8
CUT
10
321.23651
20
11.47755
30
0.0
0
VERTEX
8
CUT
10
322.78719
20
7.41333
30
0.0
0
VERTEX
8
CUT
10
324.46894
20
8.05499
30
0.0
0
VERTEX
8
CUT
10
327.57921
20
-0.09681
30
0.0
0
VERTEX
8
CUT
10
352.62761
20
9.46026
30
0.0
0
VERTEX
8
CUT
10
353.23206
20
6.29263
30
0.0
0
VERTEX
8
CUT
10
365.73213
20
11.06196
30
0.0
0
VERTEX
8
CUT
10
364.07295
20
13.82716
30
0.0
0
VERTEX
8
CUT
10
383.32861
20
21.17404
30
0.0
0
VERTEX
8
CUT
10
383.93306
20
18.00642
30
0.0
0
VERTEX
8
CUT
10
396.43313
20
22.77574
30
0.0
0
VERTEX
8
CUT
10
394.77395
20
25.54095
30
0.0
0
VERTEX
8
CUT
10
419.82235
20
35.09801
30
0.0
0
VERTEX
8
CUT
10
340.45706
20
243.10884
30
0.0
0
VERTEX
8
CUT
10
305.42898
20
273.71841
30
0.0
0
VERTEX
8
CUT
10
257.27802
20
399.91866
30
0.0
0
VERTEX
8
CUT
10
256.31348
20
399.58691
30
0.0
0
VERTEX
8
CUT
10
254.52148
20
398.97101
30
0.0
0
VERTEX
8
CUT
10
252.72930
20
398.35567
30
0.0
0
VERTEX
8
CUT
10
251.83313
20
398.04821
30
0.0
0
VERTEX
8
CUT
10
250.04067
20
397.43371
30
0.0
0
VERTEX
8
CUT
10
249.14436
20
397.12667
30
0.0
0
VERTEX
8
CUT
10
247.35160
20
396.51304
30
0.0
0
VERTEX
8
CUT
10
246.45515
20
396.20644
30
0.0
0
VERTEX
8
CUT
10
244.66210
20
395.59369
30
0.0
0
VERTEX
8
CUT
10
243.76549
20
395.28754
30
0.0
0
VERTEX
8
CUT
10
241.97214
20
394.67568
30
0.0
0
VERTEX
8
CUT
10
241.07538
20
394.36999
30
0.0
0
VERTEX
8
CUT
10
239.28172
20
393.75906
30
0.0
0
VERTEX
8
CUT
10
238.38481
20
393.45383
30
0.0
0
VERTEX
8
CUT
10
236.58951
20
392.84339
30
0.0
0
VERTEX
8
CUT
10
183.53180
20
372.59954
30
0.0
0
VERTEX
8
CUT
10
171.56545
20
367.67299
30
0.0
0
VERTEX
8
CUT
10
159.25488
20
363.69641
30
0.0
0
VERTEX
8
CUT
10
146.67155
20
360.69256
30
0.0
0
VERTEX
8
CUT
10
133.89219
20
358.67975
30
0.0
0
VERTEX
8
CUT
10
120.99474
20
357.67028
30
0.0
0
VERTEX
8
CUT
10
108.05638
20
357.67028
30
0.0
0
VERTEX
8
CUT
10
29.47875
20
360.74070
30
0.0
0
VERTEX
8
CUT
10
25.29860
20
253.76339
30
0.0
0
VERTEX
8
CUT
10
2.02468
20
216.85890
30
0.0
0
VERTEX
8
CUT
10
-0.07787
20
163.05086
30
0.0
0
SEQEND
0
POLYLINE
8
CUT
66
1
70
1
0
VERTEX
8
CUT
10
26.93729
20
165.22270
30
0.0
0
VERTEX
8
CUT
10
38.97810
20
164.75221
30
0.0
0
VERTEX
8
CUT
10
39.10403
20
167.97475
30
0.0
0
VERTEX
8
CUT
10
27.06321
20
168.44524
30
0.0
0
VERTEX
8
CUT
10
26.93729
20
165.22270
30
0.0
0
SEQEND
0
POLYLINE
8
CUT
66
1
70
1
0
VERTEX
8
CUT
10
59.77200
20
163.93968
30
0.0
0
VERTEX
8
CUT
10
71.81281
20
163.46919
30
0.0
0
VERTEX
8
CUT
10
71.93873
20
166.69173
30
0.0
0
VERTEX
8
CUT
10
59.89792
20
167.16222
30
0.0
0
VERTEX
8
CUT
10
59.77200
20
163.93968
30
0.0
0
SEQEND
0
LINE
8
SCORE
10
269.07269
20
148.40564
30
0.0
11
268.00325
21
151.20855
31
0.0
0
LINE
8
SCORE
10
266.93382
20
154.01146
30
0.0
11
265.86439
21
156.81437
31
0.0
0
LINE
8
SCORE
10
264.79495
20
159.61728
30
0.0
11
263.72552
21
162.42019
31
0.0
0
LINE
8
SCORE
10
262.65608
20
165.22310
30
0.0
11
261.58665
21
168.02601
31
0.0
0
LINE
8
SCORE
10
260.51722
20
170.82893
30
0.0
11
259.44778
21
173.63184
31
0.0
0
LINE
8
SCORE
10
258.37835
20
176.43475
30
0.0
11
257.30891
21
179.23766
31
0.0
0
LINE
8
SCORE
10
256.23948
20
182.04057
30
0.0
11
255.17005
21
184.84348
31
0.0
0
LINE
8
SCORE
10
254.10061
20
187.64639
30
0.0
11
253.03118
21
190.44930
31
0.0
0
LINE
8
SCORE
10
251.96174
20
193.25221
30
0.0
11
250.89231
21
196.05513
31
0.0
0
LINE
8
SCORE
10
249.82288
20
198.85804
30
0.0
11
248.75344
21
201.66095
31
0.0
0
LINE
8
SCORE
10
247.68401
20
204.46386
30
0.0
11
246.61457
21
207.26677
31
0.0
0
LINE
8
SCORE
10
245.54514
20
210.06968
30
0.0
11
244.47571
21
212.87259
31
0.0
0
LINE
8
SCORE
10
243.40627
20
215.67550
30
0.0
11
242.33684
21
218.47841
31
0.0
0
LINE
8
SCORE
10
241.26740
20
221.28133
30
0.0
11
240.19797
21
224.08424
31
0.0
0
LINE
8
SCORE
10
239.12854
20
226.88715
30
0.0
11
238.05910
21
229.69006
31
0.0
0
LINE
8
SCORE
10
236.98967
20
232.49297
30
0.0
11
235.92023
21
235.29588
31
0.0
0
LINE
8
SCORE
10
234.85080
20
238.09879
30
0.0
11
233.78137
21
240.90170
31
0.0
0
LINE
8
SCORE
10
232.71193
20
243.70461
30
0.0
11
231.64250
21
246.50753
31
0.0
0
LINE
8
SCORE
10
230.57306
20
249.31044
30
0.0
11
229.50363
21
252.11335
31
0.0
0
LINE
8
SCORE
10
228.43420
20
254.91626
30
0.0
11
227.36476
21
257.71917
31
0.0
0
LINE
8
SCORE
10
226.29533
20
260.52208
30
0.0
11
225.22589
21
263.32499
31
0.0
0
LINE
8
SCORE
10
224.15646
20
266.12790
30
0.0
11
223.08702
21
268.93081
31
0.0
0
LINE
8
SCORE
10
222.01759
20
271.73373
30
0.0
11
220.94816
21
274.53664
31
0.0
0
LINE
8
SCORE
10
219.87872
20
277.33955
30
0.0
11
218.80929
21
280.14246
31
0.0
0
LINE
8
SCORE
10
217.73985
20
282.94537
30
0.0
11
216.67042
21
285.74828
31
0.0
0
LINE
8
SCORE
10
215.60099
20
288.55119
30
0.0
11
214.53155
21
291.35410
31
0.0
0
LINE
8
SCORE
10
213.46212
20
294.15701
30
0.0
11
212.39268
21
296.95993
31
0.0
0
LINE
8
SCORE
10
211.32325
20
299.76284
30
0.0
11
210.25382
21
302.56575
31
0.0
0
LINE
8
SCORE
10
209.18438
20
305.36866
30
0.0
11
208.11495
21
308.17157
31
0.0
0
LINE
8
SCORE
10
207.04551
20
310.97448
30
0.0
11
205.97608
21
313.77739
31
0.0
0
LINE
8
SCORE
10
204.90665
20
316.58030
30
0.0
11
203.83721
21
319.38322
31
0.0
0
LINE
8
SCORE
10
202.76778
20
322.18613
30
0.0
11
201.69834
21
324.98904
31
0.0
0
LINE
8
SCORE
10
200.62891
20
327.79195
30
0.0
11
199.55948
21
330.59486
31
0.0
0
LINE
8
SCORE
10
198.49004
20
333.39777
30
0.0
11
197.42061
21
336.20068
31
0.0
0
LINE
8
SCORE
10
196.35117
20
339.00359
30
0.0
11
195.28174
21
341.80650
31
0.0
0
LINE
8
SCORE
10
194.21231
20
344.60942
30
0.0
11
193.14287
21
347.41233
31
0.0
0
LINE
8
SCORE
10
192.07344
20
350.21524
30
0.0
11
191.00400
21
353.01815
31
0.0
0
LINE
8
SCORE
10
189.93457
20
355.82106
30
0.0
11
188.86514
21
358.62397
31
0.0
0
LINE
8
SCORE
10
187.79570
20
361.42688
30
0.0
11
186.72627
21
364.22979
31
0.0
0
LINE
8
SCORE
10
185.65683
20
367.03270
30
0.0
11
184.58740
21
369.83562
31
0.0
0
LINE
8
SCORE
10
361.22945
20
188.45547
30
0.0
11
358.42654
21
187.38603
31
0.0
0
LINE
8
SCORE
10
355.62363
20
186.31660
30
0.0
11
352.82072
21
185.24716
31
0.0
0
LINE
8
SCORE
10
350.01781
20
184.17773
30
0.0
11
347.21490
21
183.10829
31
0.0
0
LINE
8
SCORE
10
344.41199
20
182.03886
30
0.0
11
341.60908
21
180.96943
31
0.0
0
LINE
8
SCORE
10
338.80617
20
179.89999
30
0.0
11
336.00325
21
178.83056
31
0.0
0
LINE
8
SCORE
10
333.20034
20
177.76112
30
0.0
11
330.39743
21
176.69169
31
0.0
0
LINE
8
SCORE
10
327.59452
20
175.62226
30
0.0
11
324.79161
21
174.55282
31
0.0
0
LINE
8
SCORE
10
321.98870
20
173.48339
30
0.0
11
319.18579
21
172.41395
31
0.0
0
LINE
8
SCORE
10
316.38288
20
171.34452
30
0.0
11
313.57997
21
170.27509
31
0.0
0
LINE
8
SCORE
10
310.77705
20
169.20565
30
0.0
11
307.97414
21
168.13622
31
0.0
0
LINE
8
SCORE
10
305.17123
20
167.06678
30
0.0
11
302.36832
21
165.99735
31
0.0
0
LINE
8
SCORE
10
299.56541
20
164.92792
30
0.0
11
296.76250
21
163.85848
31
0.0
0
LINE
8
SCORE
10
293.95959
20
162.78905
30
0.0
11
291.15668
21
161.71961
31
0.0
0
LINE
8
SCORE
10
288.35376
20
160.65018
30
0.0
11
285.55085
21
159.58075
31
0.0
0
LINE
8
SCORE
10
282.74794
20
158.51131
30
0.0
11
279.94503
21
157.44188
31
0.0
0
LINE
8
SCORE
10
277.14212
20
156.37244
30
0.0
11
274.33921
21
155.30301
31
0.0
0
LINE
8
SCORE
10
271.53630
20
154.23358
30
0.0
11
269.12646
21
153.31411
31
0.0
0
LINE
8
SCORE
10
108.05492
20
357.59528
30
0.0
11
107.93778
21
354.59756
31
0.0
0
LINE
8
SCORE
10
107.82064
20
351.59985
30
0.0
11
107.70351
21
348.60214
31
0.0
0
LINE
8
SCORE
10
107.58637
20
345.60443
30
0.0
11
107.46924
21
342.60671
31
0.0
0
LINE
8
SCORE
10
107.35210
20
339.60900
30
0.0
11
107.23497
21
336.61129
31
0.0
0
LINE
8
SCORE
10
107.11783
20
333.61358
30
0.0
11
107.00069
21
330.61586
31
0.0
0
LINE
8
SCORE
10
106.88356
20
327.61815
30
0.0
11
106.76642
21
324.62044
31
0.0
0
LINE
8
SCORE
10
106.64929
20
321.62273
30
0.0
11
106.53215
21
318.62502
31
0.0
0
LINE
8
SCORE
10
106.41501
20
315.62730
30
0.0
11
106.29788
21
312.62959
31
0.0
0
LINE
8
SCORE
10
106.18074
20
309.63188
30
0.0
11
106.06361
21
306.63417
31
0.0
0
LINE
8
SCORE
10
105.94647
20
303.63645
30
0.0
11
105.82934
21
300.63874
31
0.0
0
LINE
8
SCORE
10
105.71220
20
297.64103
30
0.0
11
105.59506
21
294.64332
31
0.0
0
LINE
8
SCORE
10
105.47793
20
291.64560
30
0.0
11
105.36079
21
288.64789
31
0.0
0
LINE
8
SCORE
10
105.24366
20
285.65018
30
0.0
11
105.12652
21
282.65247
31
0.0
0
LINE
8
SCORE
10
105.00939
20
279.65476
30
0.0
11
104.89225
21
276.65704
31
0.0
0
LINE
8
SCORE
10
104.77511
20
273.65933
30
0.0
11
104.65798
21
270.66162
31
0.0
0
LINE
8
SCORE
10
104.54084
20
267.66391
30
0.0
11
104.42371
21
264.66619
31
0.0
0
LINE
8
SCORE
10
104.30657
20
261.66848
30
0.0
11
104.18943
21
258.67077
31
0.0
0
LINE
8
SCORE
10
104.07230
20
255.67306
30
0.0
11
103.95516
21
252.67534
31
0.0
0
LINE
8
SCORE
10
103.83803
20
249.67763
30
0.0
11
103.72089
21
246.67992
31
0.0
0
LINE
8
SCORE
10
103.60376
20
243.68221
30
0.0
11
103.48662
21
240.68449
31
0.0
0
LINE
8
SCORE
10
103.36948
20
237.68678
30
0.0
11
103.25235
21
234.68907
31
0.0
0
LINE
8
SCORE
10
103.13521
20
231.69136
30
0.0
11
103.01808
21
228.69365
31
0.0
0
LINE
8
SCORE
10
102.90094
20
225.69593
30
0.0
11
102.78381
21
222.69822
31
0.0
0
LINE
8
SCORE
10
102.66667
20
219.70051
30
0.0
11
102.54953
21
216.70280
31
0.0
0
LINE
8
SCORE
10
102.43240
20
213.70508
30
0.0
11
102.31526
21
210.70737
31
0.0
0
LINE
8
SCORE
10
102.19813
20
207.70966
30
0.0
11
102.08099
21
204.71195
31
0.0
0
LINE
8
SCORE
10
101.96385
20
201.71423
30
0.0
11
101.84672
21
198.71652
31
0.0
0
LINE
8
SCORE
10
101.72958
20
195.71881
30
0.0
11
101.61245
21
192.72110
31
0.0
0
LINE
8
SCORE
10
101.49531
20
189.72339
30
0.0
11
101.37818
21
186.72567
31
0.0
0
LINE
8
SCORE
10
101.26104
20
183.72796
30
0.0
11
101.14390
21
180.73025
31
0.0
0
LINE
8
SCORE
10
101.02677
20
177.73254
30
0.0
11
100.90963
21
174.73482
31
0.0
0
LINE
8
SCORE
10
100.79250
20
171.73711
30
0.0
11
100.67536
21
168.73940
31
0.0
0
LINE
8
SCORE
10
100.55823
20
165.74169
30
0.0
11
100.44109
21
162.74397
31
0.0
0
LINE
8
SCORE
10
100.32395
20
159.74626
30
0.0
11
100.20682
21
156.74855
31
0.0
0
LINE
8
SCORE2
10
269.07269
20
148.40564
30
0.0
11
183.55944
21
372.52981
31
0.0
0
LINE
8
SCORE2
10
361.22945
20
188.45547
30
0.0
11
269.12646
21
153.31411
31
0.0
0
LINE
8
SCORE2
10
108.05492
20
357.59528
30
0.0
11
100.13876
21
155.00674
31
0.0
0
ENDSEC
0
EOF
