<svg xmlns="http://www.w3.org/2000/svg" viewBox="0 0 419.7255416143778 399.82414516599613" width="100%" preserveAspectRatio="xMidYMid meet">
<rect x="0" y="0" width="419.7255416143778" height="399.82414516599613" fill="#0d1117"/>
<polygon points="108.05,357.60 121.00,357.60 133.90,358.61 146.69,360.62 159.28,363.62 171.59,367.60 183.56,372.53 269.07,148.41 261.38,148.71 257.35,153.07 253.15,153.23 248.79,149.20 239.26,149.57 235.23,153.93 231.03,154.10 226.67,150.06 217.15,150.43 213.11,154.80 208.92,154.96 204.56,150.93 189.17,151.53 185.13,155.89 180.94,156.05 176.58,152.02 171.23,152.23 167.20,156.59 163.00,156.75 158.64,152.72 147.96,153.14 143.92,157.50 139.73,157.66 135.37,153.63 120.42,154.21 116.39,158.57 112.19,158.74 107.83,154.71 100.14,155.01" fill="#1f3a5f" fill-opacity="0.55" stroke="none"/>
<polygon points="269.07,148.41 183.56,372.53 236.61,392.77 237.51,393.08 238.41,393.38 239.31,393.69 240.20,393.99 241.10,394.30 242.00,394.60 242.89,394.91 243.79,395.22 244.69,395.52 245.58,395.83 246.48,396.14 247.38,396.44 248.27,396.75 249.17,397.06 250.06,397.36 250.96,397.67 251.86,397.98 252.75,398.28 253.65,398.59 254.55,398.90 255.44,399.21 256.34,399.52 257.23,399.82 305.37,273.67 340.39,243.06 361.23,188.46 269.13,153.31 270.75,149.05" fill="#3a2f1f" fill-opacity="0.55" stroke="none"/>
<polygon points="396.32,22.81 383.99,18.11 383.39,21.28 363.96,13.87 365.62,11.10 353.29,6.39 352.68,9.56 327.62,0.00 324.51,8.15 322.83,7.51 321.33,11.43 323.02,12.08 314.69,33.89 313.01,33.25 311.51,37.18 313.19,37.82 306.39,55.66 304.70,55.02 303.21,58.94 304.89,59.58 299.99,72.43 298.31,71.79 296.81,75.71 298.49,76.35 290.01,98.59 288.32,97.95 286.83,101.87 288.51,102.51 282.12,119.27 280.43,118.63 278.94,122.55 280.62,123.19 274.23,139.95 272.54,139.31 271.05,143.23 272.73,143.87 269.13,153.31 361.23,188.46 419.73,35.14 394.66,25.58" fill="#3a2f1f" fill-opacity="0.55" stroke="none"/>
<polygon points="100.14,155.01 98.34,155.08 98.50,159.27 0.00,163.12 2.10,216.84 25.37,253.74 29.55,360.66 108.05,357.60" fill="#3a2f1f" fill-opacity="0.55" stroke="none"/>
<path d="M -0.08,163.05 L 98.43,159.20 L 98.26,155.01 L 107.86,154.63 L 112.22,158.66 L 116.36,158.50 L 120.39,154.14 L 135.39,153.55 L 139.75,157.59 L 143.89,157.43 L 147.92,153.06 L 158.67,152.64 L 163.03,156.68 L 167.16,156.52 L 171.20,152.16 L 176.60,151.94 L 180.97,155.98 L 185.10,155.82 L 189.13,151.45 L 204.58,150.85 L 208.94,154.88 L 213.08,154.72 L 217.11,150.36 L 226.70,149.99 L 231.06,154.02 L 235.20,153.86 L 239.23,149.50 L 248.82,149.12 L 253.18,153.15 L 257.31,152.99 L 261.34,148.63 L 269.09,148.33 L 270.71,148.95 L 272.63,143.91 L 270.95,143.27 L 272.50,139.21 L 274.18,139.85 L 280.52,123.24 L 278.84,122.59 L 280.39,118.53 L 282.07,119.17 L 288.41,102.56 L 286.73,101.91 L 288.28,97.85 L 289.96,98.49 L 298.39,76.40 L 296.71,75.75 L 298.26,71.69 L 299.94,72.33 L 304.79,59.63 L 303.11,58.98 L 304.66,54.92 L 306.34,55.56 L 313.10,37.86 L 311.41,37.22 L 312.97,33.16 L 314.65,33.80 L 322.92,12.12 L 321.24,11.48 L 322.79,7.41 L 324.47,8.05 L 327.58,-0.10 L 352.63,9.46 L 353.23,6.29 L 365.73,11.06 L 364.07,13.83 L 383.33,21.17 L 383.93,18.01 L 396.43,22.78 L 394.77,25.54 L 419.82,35.10 L 340.46,243.11 L 305.43,273.72 L 257.28,399.92 L 256.31,399.59 L 254.52,398.97 L 252.73,398.36 L 251.83,398.05 L 250.04,397.43 L 249.14,397.13 L 247.35,396.51 L 246.46,396.21 L 244.66,395.59 L 243.77,395.29 L 241.97,394.68 L 241.08,394.37 L 239.28,393.76 L 238.38,393.45 L 236.59,392.84 L 183.53,372.60 L 171.57,367.67 L 159.25,363.70 L 146.67,360.69 L 133.89,358.68 L 120.99,357.67 L 108.06,357.67 L 29.48,360.74 L 25.30,253.76 L 2.02,216.86 L -0.08,163.05 Z" fill="none" stroke="#ff0000" stroke-width="0.6"/>
<path d="M 26.94,165.22 L 38.98,164.75 L 39.10,167.97 L 27.06,168.45 L 26.94,165.22 Z" fill="none" stroke="#ff0000" stroke-width="0.6"/>
<path d="M 59.77,163.94 L 71.81,163.47 L 71.94,166.69 L 59.90,167.16 L 59.77,163.94 Z" fill="none" stroke="#ff0000" stroke-width="0.6"/>
<line x1="269.07" y1="148.41" x2="183.56" y2="372.53" stroke="#00a650" stroke-width="1.6" stroke-opacity="0.8"/>
<line x1="361.23" y1="188.46" x2="269.13" y2="153.31" stroke="#00a650" stroke-width="1.6" stroke-opacity="0.8"/>
<line x1="108.05" y1="357.60" x2="100.14" y2="155.01" stroke="#00a650" stroke-width="1.6" stroke-opacity="0.8"/>
<line x1="269.07" y1="148.41" x2="183.56" y2="372.53" stroke="#0000ff" stroke-width="0.8" stroke-dasharray="2 1.5"/>
<line x1="361.23" y1="188.46" x2="269.13" y2="153.31" stroke="#0000ff" stroke-width="0.8" stroke-dasharray="2 1.5"/>
<line x1="108.05" y1="357.60" x2="100.14" y2="155.01" stroke="#0000ff" stroke-width="0.8" stroke-dasharray="2 1.5"/>
<text x="226.3" y="260.5" fill="#9ad" font-size="5" text-anchor="middle">90°</text>
<text x="315.2" y="170.9" fill="#9ad" font-size="5" text-anchor="middle">113°</text>
<text x="104.1" y="256.3" fill="#9ad" font-size="5" text-anchor="middle">90°</text>
</svg>