0
SECTION
2
ENTITIES
0
POLYLINE
8
CUT
66
1
70
1
0
VERTEX
8
CUT
10
0.00000
20
7.88882
30
0.0
0
VERTEX
8
CUT
10
4.89023
20
7.69773
30
0.0
0
VERTEX
8
CUT
10
4.88203
20
7.48789
30
0.0
0
VERTEX
8
CUT
10
5.14183
20
7.47774
30
0.0
0
VERTEX
8
CUT
10
5.35987
20
7.67938
30
0.0
0
VERTEX
8
CUT
10
5.56971
20
7.67118
30
0.0
0
VERTEX
8
CUT
10
5.77135
20
7.45314
30
0.0
0
VERTEX
8
CUT
10
6.51845
20
7.42395
30
0.0
0
VERTEX
8
CUT
10
6.73649
20
7.62559
30
0.0
0
VERTEX
8
CUT
10
6.94633
20
7.61739
30
0.0
0
VERTEX
8
CUT
10
7.14797
20
7.39935
30
0.0
0
VERTEX
8
CUT
10
7.68225
20
7.37847
30
0.0
0
VERTEX
8
CUT
10
7.90029
20
7.58011
30
0.0
0
VERTEX
8
CUT
10
8.11013
20
7.57191
30
0.0
0
VERTEX
8
CUT
10
8.31177
20
7.35387
30
0.0
0
VERTEX
8
CUT
10
8.57903
20
7.34343
30
0.0
0
VERTEX
8
CUT
10
8.79707
20
7.54507
30
0.0
0
VERTEX
8
CUT
10
9.00691
20
7.53687
30
0.0
0
VERTEX
8
CUT
10
9.20855
20
7.31883
30
0.0
0
VERTEX
8
CUT
10
9.97797
20
7.28877
30
0.0
0
VERTEX
8
CUT
10
10.19601
20
7.49041
30
0.0
0
VERTEX
8
CUT
10
10.40585
20
7.48221
30
0.0
0
VERTEX
8
CUT
10
10.60749
20
7.26417
30
0.0
0
VERTEX
8
CUT
10
11.08378
20
7.24556
30
0.0
0
VERTEX
8
CUT
10
11.30182
20
7.44720
30
0.0
0
VERTEX
8
CUT
10
11.51166
20
7.43900
30
0.0
0
VERTEX
8
CUT
10
11.71330
20
7.22096
30
0.0
0
VERTEX
8
CUT
10
12.18960
20
7.20235
30
0.0
0
VERTEX
8
CUT
10
12.40764
20
7.40399
30
0.0
0
VERTEX
8
CUT
10
12.61748
20
7.39579
30
0.0
0
VERTEX
8
CUT
10
12.81912
20
7.17775
30
0.0
0
VERTEX
8
CUT
10
13.06801
20
7.16802
30
0.0
0
VERTEX
8
CUT
10
12.93816
20
7.50835
30
0.0
0
VERTEX
8
CUT
10
12.96969
20
7.52038
30
0.0
0
VERTEX
8
CUT
10
15.83905
20
0.00000
30
0.0
0
VERTEX
8
CUT
10
17.08786
20
0.47647
30
0.0
0
VERTEX
8
CUT
10
17.11165
20
0.35177
30
0.0
0
VERTEX
8
CUT
10
17.59720
20
0.53702
30
0.0
0
VERTEX
8
CUT
10
17.53188
20
0.64589
30
0.0
0
VERTEX
8
CUT
10
18.62291
20
1.06216
30
0.0
0
VERTEX
8
CUT
10
18.64670
20
0.93745
30
0.0
0
VERTEX
8
CUT
10
19.13225
20
1.12271
30
0.0
0
VERTEX
8
CUT
10
19.06693
20
1.23158
30
0.0
0
VERTEX
8
CUT
10
20.37997
20
1.73256
30
0.0
0
VERTEX
8
CUT
10
16.53630
20
11.80655
30
0.0
0
VERTEX
8
CUT
10
14.78489
20
13.33703
30
0.0
0
VERTEX
8
CUT
10
12.37831
20
19.64452
30
0.0
0
VERTEX
8
CUT
10
12.28871
20
19.61371
30
0.0
0
VERTEX
8
CUT
10
12.24391
20
19.59832
30
0.0
0
VERTEX
8
CUT
10
12.15430
20
19.56755
30
0.0
0
VERTEX
8
CUT
10
12.10949
20
19.55218
30
0.0
0
VERTEX
8
CUT
10
12.01986
20
19.52145
30
0.0
0
VERTEX
8
CUT
10
11.97505
20
19.50610
30
0.0
0
VERTEX
8
CUT
10
11.88541
20
19.47542
30
0.0
0
VERTEX
8
CUT
10
11.84059
20
19.46009
30
0.0
0
VERTEX
8
CUT
10
11.75093
20
19.42945
30
0.0
0
VERTEX
8
CUT
10
11.70610
20
19.41414
30
0.0
0
VERTEX
8
CUT
10
11.66127
20
19.39884
30
0.0
0
VERTEX
8
CUT
10
11.61643
20
19.38355
30
0.0
0
VERTEX
8
CUT
10
11.57159
20
19.36826
30
0.0
0
VERTEX
8
CUT
10
11.52675
20
19.35299
30
0.0
0
VERTEX
8
CUT
10
11.48191
20
19.33772
30
0.0
0
VERTEX
8
CUT
10
11.43706
20
19.32246
30
0.0
0
VERTEX
8
CUT
10
11.39221
20
19.30720
30
0.0
0
VERTEX
8
CUT
10
11.34736
20
19.29196
30
0.0
0
VERTEX
8
CUT
10
8.81137
20
18.32436
30
0.0
0
VERTEX
8
CUT
10
8.81254
20
18.32132
30
0.0
0
VERTEX
8
CUT
10
8.32976
20
18.12256
30
0.0
0
VERTEX
8
CUT
10
7.71395
20
17.92364
30
0.0
0
VERTEX
8
CUT
10
7.08450
20
17.77338
30
0.0
0
VERTEX
8
CUT
10
6.44524
20
17.67269
30
0.0
0
VERTEX
8
CUT
10
5.80007
20
17.62220
30
0.0
0
VERTEX
8
CUT
10
5.20335
20
17.62220
30
0.0
0
VERTEX
8
CUT
10
5.27792
20
17.61928
30
0.0
0
VERTEX
8
CUT
10
5.27784
20
17.61732
30
0.0
0
VERTEX
8
CUT
10
1.47754
20
17.76581
30
0.0
0
VERTEX
8
CUT
10
1.26864
20
12.41969
30
0.0
0
VERTEX
8
CUT
10
0.10494
20
10.57447
30
0.0
0
VERTEX
8
CUT
10
0.00000
20
7.88882
30
0.0
0
SEQEND
0
POLYLINE
8
CUT
66
1
70
1
0
VERTEX
8
CUT
10
1.40649
20
7.95501
30
0.0
0
VERTEX
8
CUT
10
1.88644
20
7.93626
30
0.0
0
VERTEX
8
CUT
10
1.89162
20
8.06903
30
0.0
0
VERTEX
8
CUT
10
1.41168
20
8.08779
30
0.0
0
VERTEX
8
CUT
10
1.40649
20
7.95501
30
0.0
0
SEQEND
0
POLYLINE
8
CUT
66
1
70
1
0
VERTEX
8
CUT
10
3.04822
20
7.89086
30
0.0
0
VERTEX
8
CUT
10
3.52817
20
7.87211
30
0.0
0
VERTEX
8
CUT
10
3.53336
20
8.00488
30
0.0
0
VERTEX
8
CUT
10
3.05341
20
8.02363
30
0.0
0
VERTEX
8
CUT
10
3.04822
20
7.89086
30
0.0
0
SEQEND
0
LINE
8
SCORE
10
13.06801
20
7.16802
30
0.0
11
13.02591
21
7.27837
31
0.0
0
LINE
8
SCORE
10
12.98380
20
7.38872
30
0.0
11
12.94170
21
7.49907
31
0.0
0
LINE
8
SCORE
10
12.89960
20
7.60943
30
0.0
11
12.85749
21
7.71978
31
0.0
0
LINE
8
SCORE
10
12.81539
20
7.83013
30
0.0
11
12.77328
21
7.94048
31
0.0
0
LINE
8
SCORE
10
12.73118
20
8.05083
30
0.0
11
12.68908
21
8.16118
31
0.0
0
LINE
8
SCORE
10
12.64697
20
8.27153
30
0.0
11
12.60487
21
8.38188
31
0.0
0
LINE
8
SCORE
10
12.56277
20
8.49223
30
0.0
11
12.52066
21
8.60258
31
0.0
0
LINE
8
SCORE
10
12.47856
20
8.71293
30
0.0
11
12.43646
21
8.82328
31
0.0
0
LINE
8
SCORE
10
12.39435
20
8.93364
30
0.0
11
12.35225
21
9.04399
31
0.0
0
LINE
8
SCORE
10
12.31014
20
9.15434
30
0.0
11
12.26804
21
9.26469
31
0.0
0
LINE
8
SCORE
10
12.22594
20
9.37504
30
0.0
11
12.18383
21
9.48539
31
0.0
0
LINE
8
SCORE
10
12.14173
20
9.59574
30
0.0
11
12.09963
21
9.70609
31
0.0
0
LINE
8
SCORE
10
12.05752
20
9.81644
30
0.0
11
12.01542
21
9.92679
31
0.0
0
LINE
8
SCORE
10
11.97331
20
10.03714
30
0.0
11
11.93121
21
10.14749
31
0.0
0
LINE
8
SCORE
10
11.88911
20
10.25785
30
0.0
11
11.84700
21
10.36820
31
0.0
0
LINE
8
SCORE
10
11.80490
20
10.47855
30
0.0
11
11.76280
21
10.58890
31
0.0
0
LINE
8
SCORE
10
11.72069
20
10.69925
30
0.0
11
11.67859
21
10.80960
31
0.0
0
LINE
8
SCORE
10
11.63648
20
10.91995
30
0.0
11
11.59438
21
11.03030
31
0.0
0
LINE
8
SCORE
10
11.55228
20
11.14065
30
0.0
11
11.51017
21
11.25100
31
0.0
0
LINE
8
SCORE
10
11.46807
20
11.36135
30
0.0
11
11.42597
21
11.47170
31
0.0
0
LINE
8
SCORE
10
11.38386
20
11.58206
30
0.0
11
11.34176
21
11.69241
31
0.0
0
LINE
8
SCORE
10
11.29966
20
11.80276
30
0.0
11
11.25755
21
11.91311
31
0.0
0
LINE
8
SCORE
10
11.21545
20
12.02346
30
0.0
11
11.17334
21
12.13381
31
0.0
0
LINE
8
SCORE
10
11.13124
20
12.24416
30
0.0
11
11.08914
21
12.35451
31
0.0
0
LINE
8
SCORE
10
11.04703
20
12.46486
30
0.0
11
11.00493
21
12.57521
31
0.0
0
LINE
8
SCORE
10
10.96283
20
12.68556
30
0.0
11
10.92072
21
12.79591
31
0.0
0
LINE
8
SCORE
10
10.87862
20
12.90627
30
0.0
11
10.83651
21
13.01662
31
0.0
0
LINE
8
SCORE
10
10.79441
20
13.12697
30
0.0
11
10.75231
21
13.23732
31
0.0
0
LINE
8
SCORE
10
10.71020
20
13.34767
30
0.0
11
10.66810
21
13.45802
31
0.0
0
LINE
8
SCORE
10
10.62600
20
13.56837
30
0.0
11
10.58389
21
13.67872
31
0.0
0
LINE
8
SCORE
10
10.54179
20
13.78907
30
0.0
11
10.49968
21
13.89942
31
0.0
0
LINE
8
SCORE
10
10.45758
20
14.00977
30
0.0
11
10.41548
21
14.12012
31
0.0
0
LINE
8
SCORE
10
10.37337
20
14.23048
30
0.0
11
10.33127
21
14.34083
31
0.0
0
LINE
8
SCORE
10
10.28917
20
14.45118
30
0.0
11
10.24706
21
14.56153
31
0.0
0
LINE
8
SCORE
10
10.20496
20
14.67188
30
0.0
11
10.16286
21
14.78223
31
0.0
0
LINE
8
SCORE
10
10.12075
20
14.89258
30
0.0
11
10.07865
21
15.00293
31
0.0
0
LINE
8
SCORE
10
10.03654
20
15.11328
30
0.0
11
9.99444
21
15.22363
31
0.0
0
LINE
8
SCORE
10
9.95234
20
15.33398
30
0.0
11
9.91023
21
15.44433
31
0.0
0
LINE
8
SCORE
10
9.86813
20
15.55469
30
0.0
11
9.82603
21
15.66504
31
0.0
0
LINE
8
SCORE
10
9.78392
20
15.77539
30
0.0
11
9.74182
21
15.88574
31
0.0
0
LINE
8
SCORE
10
9.69971
20
15.99609
30
0.0
11
9.65761
21
16.10644
31
0.0
0
LINE
8
SCORE
10
9.61551
20
16.21679
30
0.0
11
9.57340
21
16.32714
31
0.0
0
LINE
8
SCORE
10
9.53130
20
16.43749
30
0.0
11
9.48920
21
16.54784
31
0.0
0
LINE
8
SCORE
10
9.44709
20
16.65819
30
0.0
11
9.40499
21
16.76854
31
0.0
0
LINE
8
SCORE
10
9.36288
20
16.87890
30
0.0
11
9.32078
21
16.98925
31
0.0
0
LINE
8
SCORE
10
9.27868
20
17.09960
30
0.0
11
9.23657
21
17.20995
31
0.0
0
LINE
8
SCORE
10
9.19447
20
17.32030
30
0.0
11
9.15237
21
17.43065
31
0.0
0
LINE
8
SCORE
10
9.11026
20
17.54100
30
0.0
11
9.06816
21
17.65135
31
0.0
0
LINE
8
SCORE
10
9.02606
20
17.76170
30
0.0
11
8.98395
21
17.87205
31
0.0
0
LINE
8
SCORE
10
8.94185
20
17.98240
30
0.0
11
8.89974
21
18.09275
31
0.0
0
LINE
8
SCORE
10
8.85764
20
18.20311
30
0.0
11
8.81554
21
18.31346
31
0.0
0
LINE
8
SCORE
10
17.51061
20
9.25294
30
0.0
11
17.40026
21
9.21084
31
0.0
0
LINE
8
SCORE
10
17.28991
20
9.16874
30
0.0
11
17.17956
21
9.12663
31
0.0
0
LINE
8
SCORE
10
17.06921
20
9.08453
30
0.0
11
16.95886
21
9.04242
31
0.0
0
LINE
8
SCORE
10
16.84850
20
9.00032
30
0.0
11
16.73815
21
8.95822
31
0.0
0
LINE
8
SCORE
10
16.62780
20
8.91611
30
0.0
11
16.51745
21
8.87401
31
0.0
0
LINE
8
SCORE
10
16.40710
20
8.83191
30
0.0
11
16.29675
21
8.78980
31
0.0
0
LINE
8
SCORE
10
16.18640
20
8.74770
30
0.0
11
16.07605
21
8.70559
31
0.0
0
LINE
8
SCORE
10
15.96570
20
8.66349
30
0.0
11
15.85535
21
8.62139
31
0.0
0
LINE
8
SCORE
10
15.74500
20
8.57928
30
0.0
11
15.63465
21
8.53718
31
0.0
0
LINE
8
SCORE
10
15.52429
20
8.49508
30
0.0
11
15.41394
21
8.45297
31
0.0
0
LINE
8
SCORE
10
15.30359
20
8.41087
30
0.0
11
15.19324
21
8.36877
31
0.0
0
LINE
8
SCORE
10
15.08289
20
8.32666
30
0.0
11
14.97254
21
8.28456
31
0.0
0
LINE
8
SCORE
10
14.86219
20
8.24245
30
0.0
11
14.75184
21
8.20035
31
0.0
0
LINE
8
SCORE
10
14.64149
20
8.15825
30
0.0
11
14.53114
21
8.11614
31
0.0
0
LINE
8
SCORE
10
14.42079
20
8.07404
30
0.0
11
14.31044
21
8.03194
31
0.0
0
LINE
8
SCORE
10
14.20008
20
7.98983
30
0.0
11
14.08973
21
7.94773
31
0.0
0
LINE
8
SCORE
10
13.97938
20
7.90562
30
0.0
11
13.86903
21
7.86352
31
0.0
0
LINE
8
SCORE
10
13.75868
20
7.82142
30
0.0
11
13.64833
21
7.77931
31
0.0
0
LINE
8
SCORE
10
13.53798
20
7.73721
30
0.0
11
13.42763
21
7.69511
31
0.0
0
LINE
8
SCORE
10
13.31728
20
7.65300
30
0.0
11
13.20693
21
7.61090
31
0.0
0
LINE
8
SCORE
10
13.09658
20
7.56879
30
0.0
11
12.98623
21
7.52669
31
0.0
0
LINE
8
SCORE
10
5.27784
20
17.61732
30
0.0
11
5.27323
21
17.49930
31
0.0
0
LINE
8
SCORE
10
5.26862
20
17.38128
30
0.0
11
5.26401
21
17.26326
31
0.0
0
LINE
8
SCORE
10
5.25939
20
17.14524
30
0.0
11
5.25478
21
17.02722
31
0.0
0
LINE
8
SCORE
10
5.25017
20
16.90920
30
0.0
11
5.24556
21
16.79118
31
0.0
0
LINE
8
SCORE
10
5.24095
20
16.67316
30
0.0
11
5.23634
21
16.55514
31
0.0
0
LINE
8
SCORE
10
5.23172
20
16.43712
30
0.0
11
5.22711
21
16.31909
31
0.0
0
LINE
8
SCORE
10
5.22250
20
16.20107
30
0.0
11
5.21789
21
16.08305
31
0.0
0
LINE
8
SCORE
10
5.21328
20
15.96503
30
0.0
11
5.20867
21
15.84701
31
0.0
0
LINE
8
SCORE
10
5.20405
20
15.72899
30
0.0
11
5.19944
21
15.61097
31
0.0
0
LINE
8
SCORE
10
5.19483
20
15.49295
30
0.0
11
5.19022
21
15.37493
31
0.0
0
LINE
8
SCORE
10
5.18561
20
15.25691
30
0.0
11
5.18100
21
15.13889
31
0.0
0
LINE
8
SCORE
10
5.17638
20
15.02087
30
0.0
11
5.17177
21
14.90285
31
0.0
0
LINE
8
SCORE
10
5.16716
20
14.78483
30
0.0
11
5.16255
21
14.66681
31
0.0
0
LINE
8
SCORE
10
5.15794
20
14.54879
30
0.0
11
5.15333
21
14.43077
31
0.0
0
LINE
8
SCORE
10
5.14872
20
14.31275
30
0.0
11
5.14410
21
14.19473
31
0.0
0
LINE
8
SCORE
10
5.13949
20
14.07671
30
0.0
11
5.13488
21
13.95869
31
0.0
0
LINE
8
SCORE
10
5.13027
20
13.84067
30
0.0
11
5.12566
21
13.72265
31
0.0
0
LINE
8
SCORE
10
5.12105
20
13.60463
30
0.0
11
5.11643
21
13.48661
31
0.0
0
LINE
8
SCORE
10
5.11182
20
13.36859
30
0.0
11
5.10721
21
13.25057
31
0.0
0
LINE
8
SCORE
10
5.10260
20
13.13255
30
0.0
11
5.09799
21
13.01453
31
0.0
0
LINE
8
SCORE
10
5.09338
20
12.89651
30
0.0
11
5.08876
21
12.77849
31
0.0
0
LINE
8
SCORE
10
5.08415
20
12.66047
30
0.0
11
5.07954
21
12.54245
31
0.0
0
LINE
8
SCORE
10
5.07493
20
12.42443
30
0.0
11
5.07032
21
12.30641
31
0.0
0
LINE
8
SCORE
10
5.06571
20
12.18839
30
0.0
11
5.06109
21
12.07037
31
0.0
0
LINE
8
SCORE
10
5.05648
20
11.95235
30
0.0
11
5.05187
21
11.83433
31
0.0
0
LINE
8
SCORE
10
5.04726
20
11.71631
30
0.0
11
5.04265
21
11.59829
31
0.0
0
LINE
8
SCORE
10
5.03804
20
11.48027
30
0.0
11
5.03342
21
11.36225
31
0.0
0
LINE
8
SCORE
10
5.02881
20
11.24423
30
0.0
11
5.02420
21
11.12621
31
0.0
0
LINE
8
SCORE
10
5.01959
20
11.00819
30
0.0
11
5.01498
21
10.89017
31
0.0
0
LINE
8
SCORE
10
5.01037
20
10.77215
30
0.0
11
5.00575
21
10.65413
31
0.0
0
LINE
8
SCORE
10
5.00114
20
10.53611
30
0.0
11
4.99653
21
10.41809
31
0.0
0
LINE
8
SCORE
10
4.99192
20
10.30007
30
0.0
11
4.98731
21
10.18205
31
0.0
0
LINE
8
SCORE
10
4.98270
20
10.06403
30
0.0
11
4.97808
21
9.94601
31
0.0
0
LINE
8
SCORE
10
4.97347
20
9.82799
30
0.0
11
4.96886
21
9.70997
31
0.0
0
LINE
8
SCORE
10
4.96425
20
9.59195
30
0.0
11
4.95964
21
9.47393
31
0.0
0
LINE
8
SCORE
10
4.95503
20
9.35590
30
0.0
11
4.95041
21
9.23788
31
0.0
0
LINE
8
SCORE
10
4.94580
20
9.11986
30
0.0
11
4.94119
21
9.00184
31
0.0
0
LINE
8
SCORE
10
4.93658
20
8.88382
30
0.0
11
4.93197
21
8.76580
31
0.0
0
LINE
8
SCORE
10
4.92736
20
8.64778
30
0.0
11
4.92274
21
8.52976
31
0.0
0
LINE
8
SCORE
10
4.91813
20
8.41174
30
0.0
11
4.91352
21
8.29372
31
0.0
0
LINE
8
SCORE
10
4.90891
20
8.17570
30
0.0
11
4.90430
21
8.05768
31
0.0
0
LINE
8
SCORE
10
4.89969
20
7.93966
30
0.0
11
4.89507
21
7.82164
31
0.0
0
LINE
8
SCORE
10
4.89046
20
7.70362
30
0.0
11
4.88585
21
7.58560
31
0.0
0
LINE
8
SCORE2
10
13.06801
20
7.16802
30
0.0
11
8.81254
21
18.32132
31
0.0
0
LINE
8
SCORE2
10
17.51061
20
9.25294
30
0.0
11
12.90546
21
7.49588
31
0.0
0
LINE
8
SCORE2
10
5.27784
20
17.61732
30
0.0
11
4.88203
21
7.48789
31
0.0
0
ENDSEC
0
EOF
