0
SECTION
2
ENTITIES
0
POLYLINE
8
CUT
66
1
70
1
0
VERTEX
8
CUT
10
-0.08429
20
245.34473
30
0.0
0
VERTEX
8
CUT
10
12.99550
20
147.62247
30
0.0
0
VERTEX
8
CUT
10
19.70144
20
97.51922
30
0.0
0
VERTEX
8
CUT
10
46.38108
20
62.62814
30
0.0
0
VERTEX
8
CUT
10
54.77464
20
-0.08429
30
0.0
0
VERTEX
8
CUT
10
129.49739
20
9.91675
30
0.0
0
VERTEX
8
CUT
10
129.50034
20
9.89470
30
0.0
0
VERTEX
8
CUT
10
142.36462
20
11.52260
30
0.0
0
VERTEX
8
CUT
10
158.41483
20
12.19644
30
0.0
0
VERTEX
8
CUT
10
174.46504
20
11.52260
30
0.0
0
VERTEX
8
CUT
10
187.32931
20
9.89470
30
0.0
0
VERTEX
8
CUT
10
187.33226
20
9.91675
30
0.0
0
VERTEX
8
CUT
10
262.05501
20
-0.08429
30
0.0
0
VERTEX
8
CUT
10
270.44857
20
62.62814
30
0.0
0
VERTEX
8
CUT
10
297.12822
20
97.51922
30
0.0
0
VERTEX
8
CUT
10
304.33536
20
151.36734
30
0.0
0
VERTEX
8
CUT
10
207.84153
20
164.28232
30
0.0
0
VERTEX
8
CUT
10
207.78391
20
163.85184
30
0.0
0
VERTEX
8
CUT
10
197.89917
20
163.85184
30
0.0
0
VERTEX
8
CUT
10
193.69917
20
168.05184
30
0.0
0
VERTEX
8
CUT
10
178.68376
20
168.05184
30
0.0
0
VERTEX
8
CUT
10
174.48376
20
163.85184
30
0.0
0
VERTEX
8
CUT
10
170.34589
20
163.85184
30
0.0
0
VERTEX
8
CUT
10
166.14589
20
168.05184
30
0.0
0
VERTEX
8
CUT
10
150.68376
20
168.05184
30
0.0
0
VERTEX
8
CUT
10
146.48376
20
163.85184
30
0.0
0
VERTEX
8
CUT
10
142.34589
20
163.85184
30
0.0
0
VERTEX
8
CUT
10
138.14589
20
168.05184
30
0.0
0
VERTEX
8
CUT
10
123.13048
20
168.05184
30
0.0
0
VERTEX
8
CUT
10
118.93048
20
163.85184
30
0.0
0
VERTEX
8
CUT
10
109.04572
20
163.85184
30
0.0
0
VERTEX
8
CUT
10
96.40945
20
258.26048
30
0.0
0
VERTEX
8
CUT
10
72.40175
20
255.04703
30
0.0
0
VERTEX
8
CUT
10
72.67985
20
258.28757
30
0.0
0
VERTEX
8
CUT
10
59.11384
20
256.47175
30
0.0
0
VERTEX
8
CUT
10
60.23438
20
253.41842
30
0.0
0
VERTEX
8
CUT
10
39.23775
20
250.60801
30
0.0
0
VERTEX
8
CUT
10
39.51585
20
253.84855
30
0.0
0
VERTEX
8
CUT
10
25.94984
20
252.03273
30
0.0
0
VERTEX
8
CUT
10
27.07038
20
248.97940
30
0.0
0
VERTEX
8
CUT
10
-0.08429
20
245.34473
30
0.0
0
SEQEND
0
POLYLINE
8
CUT
66
1
70
1
0
VERTEX
8
CUT
10
231.10555
20
154.66109
30
0.0
0
VERTEX
8
CUT
10
243.04904
20
153.06254
30
0.0
0
VERTEX
8
CUT
10
243.47687
20
156.25904
30
0.0
0
VERTEX
8
CUT
10
231.53337
20
157.85758
30
0.0
0
VERTEX
8
CUT
10
231.10555
20
154.66109
30
0.0
0
SEQEND
0
POLYLINE
8
CUT
66
1
70
1
0
VERTEX
8
CUT
10
264.26958
20
150.22233
30
0.0
0
VERTEX
8
CUT
10
276.21308
20
148.62378
30
0.0
0
VERTEX
8
CUT
10
276.64091
20
151.82028
30
0.0
0
VERTEX
8
CUT
10
264.69741
20
153.41882
30
0.0
0
VERTEX
8
CUT
10
264.26958
20
150.22233
30
0.0
0
SEQEND
0
LINE
8
SCORE
10
109.18905
20
162.21571
30
0.0
11
109.58703
21
159.24223
31
0.0
0
LINE
8
SCORE
10
109.65336
20
158.74664
30
0.0
11
110.05134
21
155.77316
31
0.0
0
LINE
8
SCORE
10
110.11767
20
155.27758
30
0.0
11
110.51564
21
152.30409
31
0.0
0
LINE
8
SCORE
10
110.58197
20
151.80851
30
0.0
11
110.97995
21
148.83503
31
0.0
0
LINE
8
SCORE
10
111.04628
20
148.33945
30
0.0
11
111.44426
21
145.36596
31
0.0
0
LINE
8
SCORE
10
111.51059
20
144.87038
30
0.0
11
111.90856
21
141.89690
31
0.0
0
LINE
8
SCORE
10
111.97489
20
141.40131
30
0.0
11
112.37287
21
138.42783
31
0.0
0
LINE
8
SCORE
10
112.43920
20
137.93225
30
0.0
11
112.83718
21
134.95876
31
0.0
0
LINE
8
SCORE
10
112.90351
20
134.46318
30
0.0
11
113.30149
21
131.48970
31
0.0
0
LINE
8
SCORE
10
113.36781
20
130.99412
30
0.0
11
113.76579
21
128.02063
31
0.0
0
LINE
8
SCORE
10
113.83212
20
127.52505
30
0.0
11
114.23010
21
124.55157
31
0.0
0
LINE
8
SCORE
10
114.29643
20
124.05598
30
0.0
11
114.69441
21
121.08250
31
0.0
0
LINE
8
SCORE
10
114.76074
20
120.58692
30
0.0
11
115.15871
21
117.61343
31
0.0
0
LINE
8
SCORE
10
115.22504
20
117.11785
30
0.0
11
115.62302
21
114.14437
31
0.0
0
LINE
8
SCORE
10
115.68935
20
113.64879
30
0.0
11
116.08733
21
110.67530
31
0.0
0
LINE
8
SCORE
10
116.15366
20
110.17972
30
0.0
11
116.55163
21
107.20624
31
0.0
0
LINE
8
SCORE
10
116.61796
20
106.71065
30
0.0
11
117.01594
21
103.73717
31
0.0
0
LINE
8
SCORE
10
117.08227
20
103.24159
30
0.0
11
117.48025
21
100.26810
31
0.0
0
LINE
8
SCORE
10
117.54658
20
99.77252
30
0.0
11
117.94455
21
96.79904
31
0.0
0
LINE
8
SCORE
10
118.01088
20
96.30346
30
0.0
11
118.40886
21
93.32997
31
0.0
0
LINE
8
SCORE
10
118.47519
20
92.83439
30
0.0
11
118.87317
21
89.86090
31
0.0
0
LINE
8
SCORE
10
118.93950
20
89.36532
30
0.0
11
119.33747
21
86.39184
31
0.0
0
LINE
8
SCORE
10
119.40380
20
85.89626
30
0.0
11
119.80178
21
82.92277
31
0.0
0
LINE
8
SCORE
10
119.86811
20
82.42719
30
0.0
11
120.26609
21
79.45371
31
0.0
0
LINE
8
SCORE
10
120.33242
20
78.95813
30
0.0
11
120.73040
21
75.98464
31
0.0
0
LINE
8
SCORE
10
120.79672
20
75.48906
30
0.0
11
121.19470
21
72.51557
31
0.0
0
LINE
8
SCORE
10
121.26103
20
72.01999
30
0.0
11
121.65901
21
69.04651
31
0.0
0
LINE
8
SCORE
10
121.72534
20
68.55093
30
0.0
11
122.12332
21
65.57744
31
0.0
0
LINE
8
SCORE
10
122.18965
20
65.08186
30
0.0
11
122.58762
21
62.10838
31
0.0
0
LINE
8
SCORE
10
122.65395
20
61.61280
30
0.0
11
123.05193
21
58.63931
31
0.0
0
LINE
8
SCORE
10
123.11826
20
58.14373
30
0.0
11
123.51624
21
55.17024
31
0.0
0
LINE
8
SCORE
10
123.58257
20
54.67466
30
0.0
11
123.98054
21
51.70118
31
0.0
0
LINE
8
SCORE
10
124.04687
20
51.20560
30
0.0
11
124.44485
21
48.23211
31
0.0
0
LINE
8
SCORE
10
124.51118
20
47.73653
30
0.0
11
124.90916
21
44.76305
31
0.0
0
LINE
8
SCORE
10
124.97549
20
44.26747
30
0.0
11
125.37346
21
41.29398
31
0.0
0
LINE
8
SCORE
10
125.43979
20
40.79840
30
0.0
11
125.83777
21
37.82491
31
0.0
0
LINE
8
SCORE
10
125.90410
20
37.32933
30
0.0
11
126.30208
21
34.35585
31
0.0
0
LINE
8
SCORE
10
126.36841
20
33.86027
30
0.0
11
126.76638
21
30.88678
31
0.0
0
LINE
8
SCORE
10
126.83271
20
30.39120
30
0.0
11
127.23069
21
27.41772
31
0.0
0
LINE
8
SCORE
10
127.29702
20
26.92214
30
0.0
11
127.69500
21
23.94865
31
0.0
0
LINE
8
SCORE
10
127.76133
20
23.45307
30
0.0
11
128.15931
21
20.47958
31
0.0
0
LINE
8
SCORE
10
128.22564
20
19.98400
30
0.0
11
128.62361
21
17.01052
31
0.0
0
LINE
8
SCORE
10
128.68994
20
16.51494
30
0.0
11
129.08792
21
13.54145
31
0.0
0
LINE
8
SCORE
10
129.15425
20
13.04587
30
0.0
11
129.29646
21
11.98336
31
0.0
0
LINE
8
SCORE
10
207.64060
20
162.21571
30
0.0
11
207.24262
21
159.24223
31
0.0
0
LINE
8
SCORE
10
207.17629
20
158.74664
30
0.0
11
206.77831
21
155.77316
31
0.0
0
LINE
8
SCORE
10
206.71198
20
155.27758
30
0.0
11
206.31401
21
152.30409
31
0.0
0
LINE
8
SCORE
10
206.24768
20
151.80851
30
0.0
11
205.84970
21
148.83503
31
0.0
0
LINE
8
SCORE
10
205.78337
20
148.33945
30
0.0
11
205.38539
21
145.36596
31
0.0
0
LINE
8
SCORE
10
205.31906
20
144.87038
30
0.0
11
204.92109
21
141.89690
31
0.0
0
LINE
8
SCORE
10
204.85476
20
141.40131
30
0.0
11
204.45678
21
138.42783
31
0.0
0
LINE
8
SCORE
10
204.39045
20
137.93225
30
0.0
11
203.99247
21
134.95876
31
0.0
0
LINE
8
SCORE
10
203.92614
20
134.46318
30
0.0
11
203.52817
21
131.48970
31
0.0
0
LINE
8
SCORE
10
203.46184
20
130.99412
30
0.0
11
203.06386
21
128.02063
31
0.0
0
LINE
8
SCORE
10
202.99753
20
127.52505
30
0.0
11
202.59955
21
124.55157
31
0.0
0
LINE
8
SCORE
10
202.53322
20
124.05598
30
0.0
11
202.13524
21
121.08250
31
0.0
0
LINE
8
SCORE
10
202.06892
20
120.58692
30
0.0
11
201.67094
21
117.61343
31
0.0
0
LINE
8
SCORE
10
201.60461
20
117.11785
30
0.0
11
201.20663
21
114.14437
31
0.0
0
LINE
8
SCORE
10
201.14030
20
113.64879
30
0.0
11
200.74232
21
110.67530
31
0.0
0
LINE
8
SCORE
10
200.67599
20
110.17972
30
0.0
11
200.27802
21
107.20624
31
0.0
0
LINE
8
SCORE
10
200.21169
20
106.71065
30
0.0
11
199.81371
21
103.73717
31
0.0
0
LINE
8
SCORE
10
199.74738
20
103.24159
30
0.0
11
199.34940
21
100.26810
31
0.0
0
LINE
8
SCORE
10
199.28307
20
99.77252
30
0.0
11
198.88510
21
96.79904
31
0.0
0
LINE
8
SCORE
10
198.81877
20
96.30346
30
0.0
11
198.42079
21
93.32997
31
0.0
0
LINE
8
SCORE
10
198.35446
20
92.83439
30
0.0
11
197.95648
21
89.86090
31
0.0
0
LINE
8
SCORE
10
197.89015
20
89.36532
30
0.0
11
197.49218
21
86.39184
31
0.0
0
LINE
8
SCORE
10
197.42585
20
85.89626
30
0.0
11
197.02787
21
82.92277
31
0.0
0
LINE
8
SCORE
10
196.96154
20
82.42719
30
0.0
11
196.56356
21
79.45371
31
0.0
0
LINE
8
SCORE
10
196.49723
20
78.95813
30
0.0
11
196.09926
21
75.98464
31
0.0
0
LINE
8
SCORE
10
196.03293
20
75.48906
30
0.0
11
195.63495
21
72.51557
31
0.0
0
LINE
8
SCORE
10
195.56862
20
72.01999
30
0.0
11
195.17064
21
69.04651
31
0.0
0
LINE
8
SCORE
10
195.10431
20
68.55093
30
0.0
11
194.70633
21
65.57744
31
0.0
0
LINE
8
SCORE
10
194.64001
20
65.08186
30
0.0
11
194.24203
21
62.10838
31
0.0
0
LINE
8
SCORE
10
194.17570
20
61.61280
30
0.0
11
193.77772
21
58.63931
31
0.0
0
LINE
8
SCORE
10
193.71139
20
58.14373
30
0.0
11
193.31341
21
55.17024
31
0.0
0
LINE
8
SCORE
10
193.24708
20
54.67466
30
0.0
11
192.84911
21
51.70118
31
0.0
0
LINE
8
SCORE
10
192.78278
20
51.20560
30
0.0
11
192.38480
21
48.23211
31
0.0
0
LINE
8
SCORE
10
192.31847
20
47.73653
30
0.0
11
191.92049
21
44.76305
31
0.0
0
LINE
8
SCORE
10
191.85416
20
44.26747
30
0.0
11
191.45619
21
41.29398
31
0.0
0
LINE
8
SCORE
10
191.38986
20
40.79840
30
0.0
11
190.99188
21
37.82491
31
0.0
0
LINE
8
SCORE
10
190.92555
20
37.32933
30
0.0
11
190.52757
21
34.35585
31
0.0
0
LINE
8
SCORE
10
190.46124
20
33.86027
30
0.0
11
190.06327
21
30.88678
31
0.0
0
LINE
8
SCORE
10
189.99694
20
30.39120
30
0.0
11
189.59896
21
27.41772
31
0.0
0
LINE
8
SCORE
10
189.53263
20
26.92214
30
0.0
11
189.13465
21
23.94865
31
0.0
0
LINE
8
SCORE
10
189.06832
20
23.45307
30
0.0
11
188.67035
21
20.47958
31
0.0
0
LINE
8
SCORE
10
188.60402
20
19.98400
30
0.0
11
188.20604
21
17.01052
31
0.0
0
LINE
8
SCORE
10
188.13971
20
16.51494
30
0.0
11
187.74173
21
13.54145
31
0.0
0
LINE
8
SCORE
10
187.67540
20
13.04587
30
0.0
11
187.53319
21
11.98336
31
0.0
0
LINE
8
SCORE
10
110.56969
20
160.75772
30
0.0
11
107.59620
21
160.35974
31
0.0
0
LINE
8
SCORE
10
107.10062
20
160.29341
30
0.0
11
104.12713
21
159.89543
31
0.0
0
LINE
8
SCORE
10
103.63155
20
159.82910
30
0.0
11
100.65807
21
159.43112
31
0.0
0
LINE
8
SCORE
10
100.16249
20
159.36479
30
0.0
11
97.18900
21
158.96681
31
0.0
0
LINE
8
SCORE
10
96.69342
20
158.90048
30
0.0
11
93.71994
21
158.50250
31
0.0
0
LINE
8
SCORE
10
93.22436
20
158.43617
30
0.0
11
90.25087
21
158.03819
31
0.0
0
LINE
8
SCORE
10
89.75529
20
157.97186
30
0.0
11
86.78181
21
157.57389
31
0.0
0
LINE
8
SCORE
10
86.28623
20
157.50756
30
0.0
11
83.31274
21
157.10958
31
0.0
0
LINE
8
SCORE
10
82.81716
20
157.04325
30
0.0
11
79.84367
21
156.64527
31
0.0
0
LINE
8
SCORE
10
79.34809
20
156.57894
30
0.0
11
76.37461
21
156.18096
31
0.0
0
LINE
8
SCORE
10
75.87903
20
156.11463
30
0.0
11
72.90554
21
155.71665
31
0.0
0
LINE
8
SCORE
10
72.40996
20
155.65032
30
0.0
11
69.43648
21
155.25234
31
0.0
0
LINE
8
SCORE
10
68.94090
20
155.18601
30
0.0
11
65.96741
21
154.78803
31
0.0
0
LINE
8
SCORE
10
65.47183
20
154.72170
30
0.0
11
62.49835
21
154.32372
31
0.0
0
LINE
8
SCORE
10
62.00276
20
154.25740
30
0.0
11
59.02928
21
153.85942
31
0.0
0
LINE
8
SCORE
10
58.53370
20
153.79309
30
0.0
11
55.56021
21
153.39511
31
0.0
0
LINE
8
SCORE
10
55.06463
20
153.32878
30
0.0
11
52.09115
21
152.93080
31
0.0
0
LINE
8
SCORE
10
51.59557
20
152.86447
30
0.0
11
48.62208
21
152.46649
31
0.0
0
LINE
8
SCORE
10
48.12650
20
152.40016
30
0.0
11
45.15302
21
152.00218
31
0.0
0
LINE
8
SCORE
10
44.65744
20
151.93585
30
0.0
11
41.68395
21
151.53787
31
0.0
0
LINE
8
SCORE
10
41.18837
20
151.47154
30
0.0
11
38.21488
21
151.07356
31
0.0
0
LINE
8
SCORE
10
37.71930
20
151.00723
30
0.0
11
34.74582
21
150.60926
31
0.0
0
LINE
8
SCORE
10
34.25024
20
150.54293
30
0.0
11
31.27675
21
150.14495
31
0.0
0
LINE
8
SCORE
10
30.78117
20
150.07862
30
0.0
11
27.80769
21
149.68064
31
0.0
0
LINE
8
SCORE
10
27.31211
20
149.61431
30
0.0
11
24.33862
21
149.21633
31
0.0
0
LINE
8
SCORE
10
23.84304
20
149.15000
30
0.0
11
20.86956
21
148.75202
31
0.0
0
LINE
8
SCORE
10
20.37398
20
148.68569
30
0.0
11
17.40049
21
148.28771
31
0.0
0
LINE
8
SCORE
10
16.90491
20
148.22138
30
0.0
11
15.04223
21
147.97208
31
0.0
0
LINE
8
SCORE2
10
109.18905
20
162.21571
30
0.0
11
129.29646
21
11.98336
31
0.0
0
LINE
8
SCORE2
10
207.64060
20
162.21571
30
0.0
11
187.53319
21
11.98336
31
0.0
0
LINE
8
SCORE2
10
110.56969
20
160.75772
30
0.0
11
15.04223
21
147.97208
31
0.0
0
ENDSEC
0
EOF
