0
SECTION
2
ENTITIES
0
POLYLINE
8
CUT
66
1
70
1
0
VERTEX
8
CUT
10
-0.07698
20
163.52672
30
0.0
0
VERTEX
8
CUT
10
16.48820
20
122.84766
30
0.0
0
VERTEX
8
CUT
10
8.09464
20
60.13523
30
0.0
0
VERTEX
8
CUT
10
86.03582
20
49.70342
30
0.0
0
VERTEX
8
CUT
10
101.74821
20
46.35785
30
0.0
0
VERTEX
8
CUT
10
117.12463
20
41.70715
30
0.0
0
VERTEX
8
CUT
10
132.05712
20
35.78398
30
0.0
0
VERTEX
8
CUT
10
146.44536
20
28.62766
30
0.0
0
VERTEX
8
CUT
10
164.42590
20
20.95024
30
0.0
0
VERTEX
8
CUT
10
166.83192
20
20.04788
30
0.0
0
VERTEX
8
CUT
10
169.23588
20
19.14488
30
0.0
0
VERTEX
8
CUT
10
171.63938
20
18.24068
30
0.0
0
VERTEX
8
CUT
10
174.04244
20
17.33529
30
0.0
0
VERTEX
8
CUT
10
176.44504
20
16.42873
30
0.0
0
VERTEX
8
CUT
10
178.84721
20
15.52101
30
0.0
0
VERTEX
8
CUT
10
181.24894
20
14.61215
30
0.0
0
VERTEX
8
CUT
10
183.65025
20
13.70218
30
0.0
0
VERTEX
8
CUT
10
186.05114
20
12.79110
30
0.0
0
VERTEX
8
CUT
10
188.45161
20
11.87894
30
0.0
0
VERTEX
8
CUT
10
190.85168
20
10.96571
30
0.0
0
VERTEX
8
CUT
10
193.25135
20
10.05143
30
0.0
0
VERTEX
8
CUT
10
195.65063
20
9.13612
30
0.0
0
VERTEX
8
CUT
10
198.04952
20
8.21979
30
0.0
0
VERTEX
8
CUT
10
200.44804
20
7.30247
30
0.0
0
VERTEX
8
CUT
10
202.84618
20
6.38416
30
0.0
0
VERTEX
8
CUT
10
205.24395
20
5.46489
30
0.0
0
VERTEX
8
CUT
10
207.64136
20
4.54468
30
0.0
0
VERTEX
8
CUT
10
210.03842
20
3.62354
30
0.0
0
VERTEX
8
CUT
10
212.43514
20
2.70149
30
0.0
0
VERTEX
8
CUT
10
214.83151
20
1.77854
30
0.0
0
VERTEX
8
CUT
10
217.22755
20
0.85472
30
0.0
0
VERTEX
8
CUT
10
219.69083
20
-0.09604
30
0.0
0
VERTEX
8
CUT
10
254.54717
20
81.53762
30
0.0
0
VERTEX
8
CUT
10
290.74370
20
110.75616
30
0.0
0
VERTEX
8
CUT
10
357.48911
20
267.07410
30
0.0
0
VERTEX
8
CUT
10
332.28113
20
277.83741
30
0.0
0
VERTEX
8
CUT
10
334.04700
20
280.53573
30
0.0
0
VERTEX
8
CUT
10
321.74267
20
285.78944
30
0.0
0
VERTEX
8
CUT
10
321.01500
20
282.64782
30
0.0
0
VERTEX
8
CUT
10
301.50905
20
290.97648
30
0.0
0
VERTEX
8
CUT
10
303.27493
20
293.67480
30
0.0
0
VERTEX
8
CUT
10
290.97059
20
298.92851
30
0.0
0
VERTEX
8
CUT
10
290.24293
20
295.78689
30
0.0
0
VERTEX
8
CUT
10
265.03493
20
306.55021
30
0.0
0
VERTEX
8
CUT
10
260.61496
20
296.19863
30
0.0
0
VERTEX
8
CUT
10
262.27037
20
295.49180
30
0.0
0
VERTEX
8
CUT
10
256.93008
20
282.98482
30
0.0
0
VERTEX
8
CUT
10
255.27467
20
283.69166
30
0.0
0
VERTEX
8
CUT
10
253.56648
20
279.69108
30
0.0
0
VERTEX
8
CUT
10
255.22189
20
278.98425
30
0.0
0
VERTEX
8
CUT
10
245.93486
20
257.23399
30
0.0
0
VERTEX
8
CUT
10
244.27945
20
257.94083
30
0.0
0
VERTEX
8
CUT
10
242.57127
20
253.94025
30
0.0
0
VERTEX
8
CUT
10
244.22668
20
253.23342
30
0.0
0
VERTEX
8
CUT
10
237.24346
20
236.87870
30
0.0
0
VERTEX
8
CUT
10
235.58805
20
237.58554
30
0.0
0
VERTEX
8
CUT
10
233.87986
20
233.58496
30
0.0
0
VERTEX
8
CUT
10
235.53527
20
232.87813
30
0.0
0
VERTEX
8
CUT
10
228.55206
20
216.52341
30
0.0
0
VERTEX
8
CUT
10
226.89665
20
217.23024
30
0.0
0
VERTEX
8
CUT
10
221.26861
20
204.04937
30
0.0
0
VERTEX
8
CUT
10
207.04254
20
204.04937
30
0.0
0
VERTEX
8
CUT
10
202.84254
20
208.24937
30
0.0
0
VERTEX
8
CUT
10
193.24721
20
208.24937
30
0.0
0
VERTEX
8
CUT
10
189.04721
20
204.04937
30
0.0
0
VERTEX
8
CUT
10
184.90935
20
204.04937
30
0.0
0
VERTEX
8
CUT
10
180.70935
20
208.24937
30
0.0
0
VERTEX
8
CUT
10
171.11402
20
208.24937
30
0.0
0
VERTEX
8
CUT
10
166.91402
20
204.04937
30
0.0
0
VERTEX
8
CUT
10
162.77615
20
204.04937
30
0.0
0
VERTEX
8
CUT
10
158.57615
20
208.24937
30
0.0
0
VERTEX
8
CUT
10
143.11402
20
208.24937
30
0.0
0
VERTEX
8
CUT
10
138.91402
20
204.04937
30
0.0
0
VERTEX
8
CUT
10
134.77615
20
204.04937
30
0.0
0
VERTEX
8
CUT
10
130.57615
20
208.24937
30
0.0
0
VERTEX
8
CUT
10
125.16464
20
208.24937
30
0.0
0
VERTEX
8
CUT
10
120.96464
20
204.04937
30
0.0
0
VERTEX
8
CUT
10
106.69166
20
204.04937
30
0.0
0
VERTEX
8
CUT
10
7.13016
20
217.37484
30
0.0
0
VERTEX
8
CUT
10
-0.07698
20
163.52672
30
0.0
0
SEQEND
0
POLYLINE
8
CUT
66
1
70
1
0
VERTEX
8
CUT
10
33.54114
20
207.33244
30
0.0
0
VERTEX
8
CUT
10
45.48464
20
205.73390
30
0.0
0
VERTEX
8
CUT
10
45.91246
20
208.93040
30
0.0
0
VERTEX
8
CUT
10
33.96896
20
210.52893
30
0.0
0
VERTEX
8
CUT
10
33.54114
20
207.33244
30
0.0
0
SEQEND
0
POLYLINE
8
CUT
66
1
70
1
0
VERTEX
8
CUT
10
66.70518
20
202.89371
30
0.0
0
VERTEX
8
CUT
10
78.64868
20
201.29517
30
0.0
0
VERTEX
8
CUT
10
79.07650
20
204.49167
30
0.0
0
VERTEX
8
CUT
10
67.13300
20
206.09021
30
0.0
0
VERTEX
8
CUT
10
66.70518
20
202.89371
30
0.0
0
SEQEND
0
LINE
8
SCORE
10
221.31814
20
203.97437
30
0.0
11
220.14008
21
201.21536
31
0.0
0
LINE
8
SCORE
10
218.96202
20
198.45634
30
0.0
11
217.78396
21
195.69732
31
0.0
0
LINE
8
SCORE
10
216.60590
20
192.93830
30
0.0
11
215.42784
21
190.17929
31
0.0
0
LINE
8
SCORE
10
214.24979
20
187.42027
30
0.0
11
213.07173
21
184.66125
31
0.0
0
LINE
8
SCORE
10
211.89367
20
181.90223
30
0.0
11
210.71561
21
179.14322
31
0.0
0
LINE
8
SCORE
10
209.53755
20
176.38420
30
0.0
11
208.35949
21
173.62518
31
0.0
0
LINE
8
SCORE
10
207.18143
20
170.86616
30
0.0
11
206.00337
21
168.10715
31
0.0
0
LINE
8
SCORE
10
204.82531
20
165.34813
30
0.0
11
203.64726
21
162.58911
31
0.0
0
LINE
8
SCORE
10
202.46920
20
159.83009
30
0.0
11
201.29114
21
157.07108
31
0.0
0
LINE
8
SCORE
10
200.11308
20
154.31206
30
0.0
11
198.93502
21
151.55304
31
0.0
0
LINE
8
SCORE
10
197.75696
20
148.79402
30
0.0
11
196.57890
21
146.03501
31
0.0
0
LINE
8
SCORE
10
195.40084
20
143.27599
30
0.0
11
194.22278
21
140.51697
31
0.0
0
LINE
8
SCORE
10
193.04472
20
137.75796
30
0.0
11
191.86667
21
134.99894
31
0.0
0
LINE
8
SCORE
10
190.68861
20
132.23992
30
0.0
11
189.51055
21
129.48090
31
0.0
0
LINE
8
SCORE
10
188.33249
20
126.72189
30
0.0
11
187.15443
21
123.96287
31
0.0
0
LINE
8
SCORE
10
185.97637
20
121.20385
30
0.0
11
184.79831
21
118.44483
31
0.0
0
LINE
8
SCORE
10
183.62025
20
115.68582
30
0.0
11
182.44219
21
112.92680
31
0.0
0
LINE
8
SCORE
10
181.26413
20
110.16778
30
0.0
11
180.08608
21
107.40876
31
0.0
0
LINE
8
SCORE
10
178.90802
20
104.64975
30
0.0
11
177.72996
21
101.89073
31
0.0
0
LINE
8
SCORE
10
176.55190
20
99.13171
30
0.0
11
175.37384
21
96.37269
31
0.0
0
LINE
8
SCORE
10
174.19578
20
93.61368
30
0.0
11
173.01772
21
90.85466
31
0.0
0
LINE
8
SCORE
10
171.83966
20
88.09564
30
0.0
11
170.66160
21
85.33662
31
0.0
0
LINE
8
SCORE
10
169.48355
20
82.57761
30
0.0
11
168.30549
21
79.81859
31
0.0
0
LINE
8
SCORE
10
167.12743
20
77.05957
30
0.0
11
165.94937
21
74.30055
31
0.0
0
LINE
8
SCORE
10
164.77131
20
71.54154
30
0.0
11
163.59325
21
68.78252
31
0.0
0
LINE
8
SCORE
10
162.41519
20
66.02350
30
0.0
11
161.23713
21
63.26448
31
0.0
0
LINE
8
SCORE
10
160.05907
20
60.50547
30
0.0
11
158.88101
21
57.74645
31
0.0
0
LINE
8
SCORE
10
157.70296
20
54.98743
30
0.0
11
156.52490
21
52.22842
31
0.0
0
LINE
8
SCORE
10
155.34684
20
49.46940
30
0.0
11
154.16878
21
46.71038
31
0.0
0
LINE
8
SCORE
10
152.99072
20
43.95136
30
0.0
11
151.81266
21
41.19235
31
0.0
0
LINE
8
SCORE
10
150.63460
20
38.43333
30
0.0
11
149.45654
21
35.67431
31
0.0
0
LINE
8
SCORE
10
148.27848
20
32.91529
30
0.0
11
147.10043
21
30.15628
31
0.0
0
LINE
8
SCORE
10
106.68667
20
203.97437
30
0.0
11
106.28869
21
201.00089
31
0.0
0
LINE
8
SCORE
10
105.89071
20
198.02740
30
0.0
11
105.49273
21
195.05392
31
0.0
0
LINE
8
SCORE
10
105.09476
20
192.08043
30
0.0
11
104.69678
21
189.10695
31
0.0
0
LINE
8
SCORE
10
104.29880
20
186.13346
30
0.0
11
103.90082
21
183.15998
31
0.0
0
LINE
8
SCORE
10
103.50285
20
180.18649
30
0.0
11
103.10487
21
177.21301
31
0.0
0
LINE
8
SCORE
10
102.70689
20
174.23952
30
0.0
11
102.30891
21
171.26604
31
0.0
0
LINE
8
SCORE
10
101.91094
20
168.29255
30
0.0
11
101.51296
21
165.31907
31
0.0
0
LINE
8
SCORE
10
101.11498
20
162.34558
30
0.0
11
100.71701
21
159.37210
31
0.0
0
LINE
8
SCORE
10
100.31903
20
156.39861
30
0.0
11
99.92105
21
153.42513
31
0.0
0
LINE
8
SCORE
10
99.52307
20
150.45164
30
0.0
11
99.12510
21
147.47815
31
0.0
0
LINE
8
SCORE
10
98.72712
20
144.50467
30
0.0
11
98.32914
21
141.53118
31
0.0
0
LINE
8
SCORE
10
97.93116
20
138.55770
30
0.0
11
97.53319
21
135.58421
31
0.0
0
LINE
8
SCORE
10
97.13521
20
132.61073
30
0.0
11
96.73723
21
129.63724
31
0.0
0
LINE
8
SCORE
10
96.33925
20
126.66376
30
0.0
11
95.94128
21
123.69027
31
0.0
0
LINE
8
SCORE
10
95.54330
20
120.71679
30
0.0
11
95.14532
21
117.74330
31
0.0
0
LINE
8
SCORE
10
94.74735
20
114.76982
30
0.0
11
94.34937
21
111.79633
31
0.0
0
LINE
8
SCORE
10
93.95139
20
108.82285
30
0.0
11
93.55341
21
105.84936
31
0.0
0
LINE
8
SCORE
10
93.15544
20
102.87588
30
0.0
11
92.75746
21
99.90239
31
0.0
0
LINE
8
SCORE
10
92.35948
20
96.92891
30
0.0
11
91.96150
21
93.95542
31
0.0
0
LINE
8
SCORE
10
91.56353
20
90.98194
30
0.0
11
91.16555
21
88.00845
31
0.0
0
LINE
8
SCORE
10
90.76757
20
85.03497
30
0.0
11
90.36959
21
82.06148
31
0.0
0
LINE
8
SCORE
10
89.97162
20
79.08800
30
0.0
11
89.57364
21
76.11451
31
0.0
0
LINE
8
SCORE
10
89.17566
20
73.14103
30
0.0
11
88.77769
21
70.16754
31
0.0
0
LINE
8
SCORE
10
88.37971
20
67.19406
30
0.0
11
87.98173
21
64.22057
31
0.0
0
LINE
8
SCORE
10
87.58375
20
61.24708
30
0.0
11
87.18578
21
58.27360
31
0.0
0
LINE
8
SCORE
10
86.78780
20
55.30011
30
0.0
11
86.38982
21
52.32663
31
0.0
0
LINE
8
SCORE
10
313.63421
20
164.55680
30
0.0
11
310.87519
21
165.73486
31
0.0
0
LINE
8
SCORE
10
308.11618
20
166.91292
30
0.0
11
305.35716
21
168.09098
31
0.0
0
LINE
8
SCORE
10
302.59814
20
169.26903
30
0.0
11
299.83912
21
170.44709
31
0.0
0
LINE
8
SCORE
10
297.08011
20
171.62515
30
0.0
11
294.32109
21
172.80321
31
0.0
0
LINE
8
SCORE
10
291.56207
20
173.98127
30
0.0
11
288.80305
21
175.15933
31
0.0
0
LINE
8
SCORE
10
286.04404
20
176.33739
30
0.0
11
283.28502
21
177.51545
31
0.0
0
LINE
8
SCORE
10
280.52600
20
178.69351
30
0.0
11
277.76698
21
179.87157
31
0.0
0
LINE
8
SCORE
10
275.00797
20
181.04962
30
0.0
11
272.24895
21
182.22768
31
0.0
0
LINE
8
SCORE
10
269.48993
20
183.40574
30
0.0
11
266.73091
21
184.58380
31
0.0
0
LINE
8
SCORE
10
263.97190
20
185.76186
30
0.0
11
261.21288
21
186.93992
31
0.0
0
LINE
8
SCORE
10
258.45386
20
188.11798
30
0.0
11
255.69484
21
189.29604
31
0.0
0
LINE
8
SCORE
10
252.93583
20
190.47410
30
0.0
11
250.17681
21
191.65215
31
0.0
0
LINE
8
SCORE
10
247.41779
20
192.83021
30
0.0
11
244.65878
21
194.00827
31
0.0
0
LINE
8
SCORE
10
241.89976
20
195.18633
30
0.0
11
239.14074
21
196.36439
31
0.0
0
LINE
8
SCORE
10
236.38172
20
197.54245
30
0.0
11
233.62271
21
198.72051
31
0.0
0
LINE
8
SCORE
10
230.86369
20
199.89857
30
0.0
11
228.10467
21
201.07663
31
0.0
0
LINE
8
SCORE
10
225.34565
20
202.25469
30
0.0
11
222.58664
21
203.43274
31
0.0
0
LINE
8
SCORE2
10
221.31814
20
203.97437
30
0.0
11
146.47682
21
28.69578
31
0.0
0
LINE
8
SCORE2
10
106.68667
20
203.97437
30
0.0
11
86.04862
21
49.77737
31
0.0
0
LINE
8
SCORE2
10
313.63421
20
164.55680
30
0.0
11
221.31814
21
203.97437
31
0.0
0
ENDSEC
0
EOF
