0
SECTION
2
ENTITIES
0
POLYLINE
8
CUT
66
1
70
1
0
VERTEX
8
CUT
10
-0.09843
20
349.25614
30
0.0
0
VERTEX
8
CUT
10
83.55212
20
153.34632
30
0.0
0
VERTEX
8
CUT
10
119.74864
20
124.12778
30
0.0
0
VERTEX
8
CUT
10
172.79040
20
-0.09617
30
0.0
0
VERTEX
8
CUT
10
173.74126
20
0.27299
30
0.0
0
VERTEX
8
CUT
10
175.50784
20
0.95838
30
0.0
0
VERTEX
8
CUT
10
177.27463
20
1.64323
30
0.0
0
VERTEX
8
CUT
10
178.15811
20
1.98545
30
0.0
0
VERTEX
8
CUT
10
179.92522
20
2.66947
30
0.0
0
VERTEX
8
CUT
10
180.80885
20
3.01127
30
0.0
0
VERTEX
8
CUT
10
182.57628
20
3.69444
30
0.0
0
VERTEX
8
CUT
10
184.34393
20
4.37702
30
0.0
0
VERTEX
8
CUT
10
185.22784
20
4.71810
30
0.0
0
VERTEX
8
CUT
10
186.99583
20
5.39980
30
0.0
0
VERTEX
8
CUT
10
187.87990
20
5.74043
30
0.0
0
VERTEX
8
CUT
10
189.64823
20
6.42123
30
0.0
0
VERTEX
8
CUT
10
190.53248
20
6.76141
30
0.0
0
VERTEX
8
CUT
10
192.30116
20
7.44129
30
0.0
0
VERTEX
8
CUT
10
193.18688
20
7.78149
30
0.0
0
VERTEX
8
CUT
10
242.56183
20
28.86385
30
0.0
0
VERTEX
8
CUT
10
242.52858
20
28.94173
30
0.0
0
VERTEX
8
CUT
10
251.33866
20
32.97803
30
0.0
0
VERTEX
8
CUT
10
263.48457
20
37.43225
30
0.0
0
VERTEX
8
CUT
10
275.94102
20
40.92512
30
0.0
0
VERTEX
8
CUT
10
288.63204
20
43.43536
30
0.0
0
VERTEX
8
CUT
10
301.48024
20
44.94766
30
0.0
0
VERTEX
8
CUT
10
313.50393
20
45.41748
30
0.0
0
VERTEX
8
CUT
10
313.50324
20
45.45284
30
0.0
0
VERTEX
8
CUT
10
386.69634
20
45.45284
30
0.0
0
VERTEX
8
CUT
10
386.69634
20
152.51179
30
0.0
0
VERTEX
8
CUT
10
408.51156
20
190.29687
30
0.0
0
VERTEX
8
CUT
10
408.51156
20
244.14598
30
0.0
0
VERTEX
8
CUT
10
298.33834
20
244.14598
30
0.0
0
VERTEX
8
CUT
10
294.13834
20
248.34598
30
0.0
0
VERTEX
8
CUT
10
279.12293
20
248.34598
30
0.0
0
VERTEX
8
CUT
10
274.92293
20
244.14598
30
0.0
0
VERTEX
8
CUT
10
270.78506
20
244.14598
30
0.0
0
VERTEX
8
CUT
10
266.58506
20
248.34598
30
0.0
0
VERTEX
8
CUT
10
255.82913
20
248.34598
30
0.0
0
VERTEX
8
CUT
10
251.62913
20
244.14598
30
0.0
0
VERTEX
8
CUT
10
247.49126
20
244.14598
30
0.0
0
VERTEX
8
CUT
10
243.29126
20
248.34598
30
0.0
0
VERTEX
8
CUT
10
237.87975
20
248.34598
30
0.0
0
VERTEX
8
CUT
10
233.67975
20
244.14598
30
0.0
0
VERTEX
8
CUT
10
229.54188
20
244.14598
30
0.0
0
VERTEX
8
CUT
10
225.34188
20
248.34598
30
0.0
0
VERTEX
8
CUT
10
209.87975
20
248.34598
30
0.0
0
VERTEX
8
CUT
10
205.67975
20
244.14598
30
0.0
0
VERTEX
8
CUT
10
201.54188
20
244.14598
30
0.0
0
VERTEX
8
CUT
10
197.34188
20
248.34598
30
0.0
0
VERTEX
8
CUT
10
187.74655
20
248.34598
30
0.0
0
VERTEX
8
CUT
10
183.54655
20
244.14598
30
0.0
0
VERTEX
8
CUT
10
179.40868
20
244.14598
30
0.0
0
VERTEX
8
CUT
10
175.20868
20
248.34598
30
0.0
0
VERTEX
8
CUT
10
165.61335
20
248.34598
30
0.0
0
VERTEX
8
CUT
10
161.41335
20
244.14598
30
0.0
0
VERTEX
8
CUT
10
150.63960
20
244.14598
30
0.0
0
VERTEX
8
CUT
10
89.43564
20
387.48583
30
0.0
0
VERTEX
8
CUT
10
67.15949
20
377.97426
30
0.0
0
VERTEX
8
CUT
10
66.56159
20
381.17128
30
0.0
0
VERTEX
8
CUT
10
53.97404
20
375.79658
30
0.0
0
VERTEX
8
CUT
10
55.86970
20
373.15369
30
0.0
0
VERTEX
8
CUT
10
36.38747
20
364.83506
30
0.0
0
VERTEX
8
CUT
10
35.78957
20
368.03209
30
0.0
0
VERTEX
8
CUT
10
23.20202
20
362.65739
30
0.0
0
VERTEX
8
CUT
10
25.09768
20
360.01449
30
0.0
0
VERTEX
8
CUT
10
-0.09843
20
349.25614
30
0.0
0
SEQEND
0
POLYLINE
8
CUT
66
1
70
1
0
VERTEX
8
CUT
10
335.49204
20
237.69598
30
0.0
0
VERTEX
8
CUT
10
347.54204
20
237.69598
30
0.0
0
VERTEX
8
CUT
10
347.54204
20
240.92098
30
0.0
0
VERTEX
8
CUT
10
335.49204
20
240.92098
30
0.0
0
VERTEX
8
CUT
10
335.49204
20
237.69598
30
0.0
0
SEQEND
0
POLYLINE
8
CUT
66
1
70
1
0
VERTEX
8
CUT
10
368.95180
20
237.69598
30
0.0
0
VERTEX
8
CUT
10
381.00180
20
237.69598
30
0.0
0
VERTEX
8
CUT
10
381.00180
20
240.92098
30
0.0
0
VERTEX
8
CUT
10
368.95180
20
240.92098
30
0.0
0
VERTEX
8
CUT
10
368.95180
20
237.69598
30
0.0
0
SEQEND
0
LINE
8
SCORE
10
150.05772
20
245.31776
30
0.0
11
152.02115
21
240.71939
31
0.0
0
LINE
8
SCORE
10
153.98458
20
236.12103
30
0.0
11
155.94801
21
231.52267
31
0.0
0
LINE
8
SCORE
10
157.91144
20
226.92431
30
0.0
11
159.87487
21
222.32595
31
0.0
0
LINE
8
SCORE
10
161.83831
20
217.72758
30
0.0
11
163.80174
21
213.12922
31
0.0
0
LINE
8
SCORE
10
165.76517
20
208.53086
30
0.0
11
167.72860
21
203.93250
31
0.0
0
LINE
8
SCORE
10
169.69203
20
199.33413
30
0.0
11
171.65546
21
194.73577
31
0.0
0
LINE
8
SCORE
10
173.61889
20
190.13741
30
0.0
11
175.58233
21
185.53905
31
0.0
0
LINE
8
SCORE
10
177.54576
20
180.94068
30
0.0
11
179.50919
21
176.34232
31
0.0
0
LINE
8
SCORE
10
181.47262
20
171.74396
30
0.0
11
183.43605
21
167.14560
31
0.0
0
LINE
8
SCORE
10
185.39948
20
162.54723
30
0.0
11
187.36292
21
157.94887
31
0.0
0
LINE
8
SCORE
10
189.32635
20
153.35051
30
0.0
11
191.28978
21
148.75215
31
0.0
0
LINE
8
SCORE
10
193.25321
20
144.15379
30
0.0
11
195.21664
21
139.55542
31
0.0
0
LINE
8
SCORE
10
197.18007
20
134.95706
30
0.0
11
199.14351
21
130.35870
31
0.0
0
LINE
8
SCORE
10
201.10694
20
125.76034
30
0.0
11
203.07037
21
121.16197
31
0.0
0
LINE
8
SCORE
10
205.03380
20
116.56361
30
0.0
11
206.99723
21
111.96525
31
0.0
0
LINE
8
SCORE
10
208.96066
20
107.36689
30
0.0
11
210.92409
21
102.76852
31
0.0
0
LINE
8
SCORE
10
212.88753
20
98.17016
30
0.0
11
214.85096
21
93.57180
31
0.0
0
LINE
8
SCORE
10
216.81439
20
88.97344
30
0.0
11
218.77782
21
84.37507
31
0.0
0
LINE
8
SCORE
10
220.74125
20
79.77671
30
0.0
11
222.70468
21
75.17835
31
0.0
0
LINE
8
SCORE
10
224.66812
20
70.57999
30
0.0
11
226.63155
21
65.98162
31
0.0
0
LINE
8
SCORE
10
228.59498
20
61.38326
30
0.0
11
230.55841
21
56.78490
31
0.0
0
LINE
8
SCORE
10
232.52184
20
52.18654
30
0.0
11
234.48527
21
47.58818
31
0.0
0
LINE
8
SCORE
10
236.44871
20
42.98981
30
0.0
11
238.41214
21
38.39145
31
0.0
0
LINE
8
SCORE
10
240.37557
20
33.79309
30
0.0
11
242.33900
21
29.19473
31
0.0
0
LINE
8
SCORE
10
311.23227
20
45.52784
30
0.0
11
311.23227
21
50.52784
31
0.0
0
LINE
8
SCORE
10
311.23227
20
55.52784
30
0.0
11
311.23227
21
60.52784
31
0.0
0
LINE
8
SCORE
10
311.23227
20
65.52784
30
0.0
11
311.23227
21
70.52784
31
0.0
0
LINE
8
SCORE
10
311.23227
20
75.52784
30
0.0
11
311.23227
21
80.52784
31
0.0
0
LINE
8
SCORE
10
311.23227
20
85.52784
30
0.0
11
311.23227
21
90.52784
31
0.0
0
LINE
8
SCORE
10
311.23227
20
95.52784
30
0.0
11
311.23227
21
100.52784
31
0.0
0
LINE
8
SCORE
10
311.23227
20
105.52784
30
0.0
11
311.23227
21
110.52784
31
0.0
0
LINE
8
SCORE
10
311.23227
20
115.52784
30
0.0
11
311.23227
21
120.52784
31
0.0
0
LINE
8
SCORE
10
311.23227
20
125.52784
30
0.0
11
311.23227
21
130.52784
31
0.0
0
LINE
8
SCORE
10
311.23227
20
135.52784
30
0.0
11
311.23227
21
140.52784
31
0.0
0
LINE
8
SCORE
10
311.23227
20
145.52784
30
0.0
11
311.23227
21
150.52784
31
0.0
0
LINE
8
SCORE
10
311.23227
20
155.52784
30
0.0
11
311.23227
21
160.52784
31
0.0
0
LINE
8
SCORE
10
311.23227
20
165.52784
30
0.0
11
311.23227
21
170.52784
31
0.0
0
LINE
8
SCORE
10
311.23227
20
175.52784
30
0.0
11
311.23227
21
180.52784
31
0.0
0
LINE
8
SCORE
10
311.23227
20
185.52784
30
0.0
11
311.23227
21
190.52784
31
0.0
0
LINE
8
SCORE
10
311.23227
20
195.52784
30
0.0
11
311.23227
21
200.52784
31
0.0
0
LINE
8
SCORE
10
311.23227
20
205.52784
30
0.0
11
311.23227
21
210.52784
31
0.0
0
LINE
8
SCORE
10
311.23227
20
215.52784
30
0.0
11
311.23227
21
220.52784
31
0.0
0
LINE
8
SCORE
10
311.23227
20
225.52784
30
0.0
11
311.23227
21
230.52784
31
0.0
0
LINE
8
SCORE
10
311.23227
20
235.52784
30
0.0
11
311.23227
21
240.52784
31
0.0
0
LINE
8
SCORE
10
62.54964
20
202.72518
30
0.0
11
67.14800
21
204.68861
31
0.0
0
LINE
8
SCORE
10
71.74636
20
206.65205
30
0.0
11
76.34472
21
208.61548
31
0.0
0
LINE
8
SCORE
10
80.94309
20
210.57891
30
0.0
11
85.54145
21
212.54234
31
0.0
0
LINE
8
SCORE
10
90.13981
20
214.50577
30
0.0
11
94.73817
21
216.46920
31
0.0
0
LINE
8
SCORE
10
99.33654
20
218.43264
30
0.0
11
103.93490
21
220.39607
31
0.0
0
LINE
8
SCORE
10
108.53326
20
222.35950
30
0.0
11
113.13162
21
224.32293
31
0.0
0
LINE
8
SCORE
10
117.72999
20
226.28636
30
0.0
11
122.32835
21
228.24979
31
0.0
0
LINE
8
SCORE
10
126.92671
20
230.21323
30
0.0
11
131.52507
21
232.17666
31
0.0
0
LINE
8
SCORE
10
136.12344
20
234.14009
30
0.0
11
140.72180
21
236.10352
31
0.0
0
LINE
8
SCORE
10
145.32016
20
238.06695
30
0.0
11
149.91852
21
240.03038
31
0.0
0
LINE
8
SCORE
10
154.51689
20
241.99381
30
0.0
11
154.86571
21
242.14276
31
0.0
0
LINE
8
SCORE2
10
150.05772
20
245.31776
30
0.0
11
242.46340
21
28.90338
31
0.0
0
LINE
8
SCORE2
10
311.23227
20
45.52784
30
0.0
11
311.23227
21
244.07098
31
0.0
0
LINE
8
SCORE2
10
62.54964
20
202.72518
30
0.0
11
154.86571
21
242.14276
31
0.0
0
ENDSEC
0
EOF
