0
SECTION
2
ENTITIES
0
POLYLINE
8
CUT
66
1
70
1
0
VERTEX
8
CUT
10
-0.07698
20
163.52672
30
0.0
0
VERTEX
8
CUT
10
16.48820
20
122.84766
30
0.0
0
VERTEX
8
CUT
10
8.09464
20
60.13523
30
0.0
0
VERTEX
8
CUT
10
86.03582
20
49.70342
30
0.0
0
VERTEX
8
CUT
10
101.74821
20
46.35785
30
0.0
0
VERTEX
8
CUT
10
117.12463
20
41.70715
30
0.0
0
VERTEX
8
CUT
10
132.05712
20
35.78398
30
0.0
0
VERTEX
8
CUT
10
146.44536
20
28.62766
30
0.0
0
VERTEX
8
CUT
10
164.42590
20
20.95024
30
0.0
0
VERTEX
8
CUT
10
166.83192
20
20.04788
30
0.0
0
VERTEX
8
CUT
10
169.23588
20
19.14488
30
0.0
0
VERTEX
8
CUT
10
171.63938
20
18.24068
30
0.0
0
VERTEX
8
CUT
10
174.04244
20
17.33529
30
0.0
0
VERTEX
8
CUT
10
176.44504
20
16.42873
30
0.0
0
VERTEX
8
CUT
10
178.84721
20
15.52101
30
0.0
0
VERTEX
8
CUT
10
181.24894
20
14.61215
30
0.0
0
VERTEX
8
CUT
10
183.65025
20
13.70218
30
0.0
0
VERTEX
8
CUT
10
186.05114
20
12.79110
30
0.0
0
VERTEX
8
CUT
10
188.45161
20
11.87894
30
0.0
0
VERTEX
8
CUT
10
190.85168
20
10.96571
30
0.0
0
VERTEX
8
CUT
10
193.25135
20
10.05143
30
0.0
0
VERTEX
8
CUT
10
195.65063
20
9.13612
30
0.0
0
VERTEX
8
CUT
10
198.04952
20
8.21979
30
0.0
0
VERTEX
8
CUT
10
200.44804
20
7.30247
30
0.0
0
VERTEX
8
CUT
10
202.84618
20
6.38416
30
0.0
0
VERTEX
8
CUT
10
205.24395
20
5.46489
30
0.0
0
VERTEX
8
CUT
10
207.64136
20
4.54468
30
0.0
0
VERTEX
8
CUT
10
210.03842
20
3.62354
30
0.0
0
VERTEX
8
CUT
10
212.43514
20
2.70149
30
0.0
0
VERTEX
8
CUT
10
214.83151
20
1.77854
30
0.0
0
VERTEX
8
CUT
10
217.22755
20
0.85472
30
0.0
0
VERTEX
8
CUT
10
219.69083
20
-0.09604
30
0.0
0
VERTEX
8
CUT
10
254.54717
20
81.53762
30
0.0
0
VERTEX
8
CUT
10
290.74370
20
110.75616
30
0.0
0
VERTEX
8
CUT
10
357.48911
20
267.07410
30
0.0
0
VERTEX
8
CUT
10
332.29297
20
277.83235
30
0.0
0
VERTEX
8
CUT
10
334.18862
20
280.47526
30
0.0
0
VERTEX
8
CUT
10
321.60105
20
285.84990
30
0.0
0
VERTEX
8
CUT
10
321.00316
20
282.65288
30
0.0
0
VERTEX
8
CUT
10
301.52090
20
290.97142
30
0.0
0
VERTEX
8
CUT
10
303.41655
20
293.61433
30
0.0
0
VERTEX
8
CUT
10
290.82897
20
298.98897
30
0.0
0
VERTEX
8
CUT
10
290.23109
20
295.79195
30
0.0
0
VERTEX
8
CUT
10
265.03493
20
306.55021
30
0.0
0
VERTEX
8
CUT
10
260.61496
20
296.19863
30
0.0
0
VERTEX
8
CUT
10
262.27037
20
295.49180
30
0.0
0
VERTEX
8
CUT
10
256.93008
20
282.98482
30
0.0
0
VERTEX
8
CUT
10
255.27467
20
283.69166
30
0.0
0
VERTEX
8
CUT
10
253.56648
20
279.69108
30
0.0
0
VERTEX
8
CUT
10
255.22189
20
278.98425
30
0.0
0
VERTEX
8
CUT
10
245.93486
20
257.23399
30
0.0
0
VERTEX
8
CUT
10
244.27945
20
257.94083
30
0.0
0
VERTEX
8
CUT
10
242.57127
20
253.94025
30
0.0
0
VERTEX
8
CUT
10
244.22668
20
253.23342
30
0.0
0
VERTEX
8
CUT
10
237.24346
20
236.87870
30
0.0
0
VERTEX
8
CUT
10
235.58805
20
237.58554
30
0.0
0
VERTEX
8
CUT
10
233.87986
20
233.58496
30
0.0
0
VERTEX
8
CUT
10
235.53527
20
232.87813
30
0.0
0
VERTEX
8
CUT
10
228.55206
20
216.52341
30
0.0
0
VERTEX
8
CUT
10
226.89665
20
217.23024
30
0.0
0
VERTEX
8
CUT
10
221.26861
20
204.04937
30
0.0
0
VERTEX
8
CUT
10
207.04254
20
204.04937
30
0.0
0
VERTEX
8
CUT
10
202.84254
20
208.24937
30
0.0
0
VERTEX
8
CUT
10
193.24721
20
208.24937
30
0.0
0
VERTEX
8
CUT
10
189.04721
20
204.04937
30
0.0
0
VERTEX
8
CUT
10
184.90935
20
204.04937
30
0.0
0
VERTEX
8
CUT
10
180.70935
20
208.24937
30
0.0
0
VERTEX
8
CUT
10
171.11402
20
208.24937
30
0.0
0
VERTEX
8
CUT
10
166.91402
20
204.04937
30
0.0
0
VERTEX
8
CUT
10
162.77615
20
204.04937
30
0.0
0
VERTEX
8
CUT
10
158.57615
20
208.24937
30
0.0
0
VERTEX
8
CUT
10
143.11402
20
208.24937
30
0.0
0
VERTEX
8
CUT
10
138.91402
20
204.04937
30
0.0
0
VERTEX
8
CUT
10
134.77615
20
204.04937
30
0.0
0
VERTEX
8
CUT
10
130.57615
20
208.24937
30
0.0
0
VERTEX
8
CUT
10
125.16464
20
208.24937
30
0.0
0
VERTEX
8
CUT
10
120.96464
20
204.04937
30
0.0
0
VERTEX
8
CUT
10
106.69166
20
204.04937
30
0.0
0
VERTEX
8
CUT
10
7.13016
20
217.37484
30
0.0
0
VERTEX
8
CUT
10
-0.07698
20
163.52672
30
0.0
0
SEQEND
0
POLYLINE
8
CUT
66
1
70
1
0
VERTEX
8
CUT
10
33.54114
20
207.33244
30
0.0
0
VERTEX
8
CUT
10
45.48464
20
205.73390
30
0.0
0
VERTEX
8
CUT
10
45.91246
20
208.93040
30
0.0
0
VERTEX
8
CUT
10
33.96896
20
210.52893
30
0.0
0
VERTEX
8
CUT
10
33.54114
20
207.33244
30
0.0
0
SEQEND
0
POLYLINE
8
CUT
66
1
70
1
0
VERTEX
8
CUT
10
66.70518
20
202.89371
30
0.0
0
VERTEX
8
CUT
10
78.64868
20
201.29517
30
0.0
0
VERTEX
8
CUT
10
79.07650
20
204.49167
30
0.0
0
VERTEX
8
CUT
10
67.13300
20
206.09021
30
0.0
0
VERTEX
8
CUT
10
66.70518
20
202.89371
30
0.0
0
SEQEND
0
LINE
8
SCORE
10
221.31814
20
203.97437
30
0.0
11
219.35471
21
199.37601
31
0.0
0
LINE
8
SCORE
10
217.39128
20
194.77765
30
0.0
11
215.42784
21
190.17929
31
0.0
0
LINE
8
SCORE
10
213.46441
20
185.58092
30
0.0
11
211.50098
21
180.98256
31
0.0
0
LINE
8
SCORE
10
209.53755
20
176.38420
30
0.0
11
207.57412
21
171.78584
31
0.0
0
LINE
8
SCORE
10
205.61069
20
167.18747
30
0.0
11
203.64726
21
162.58911
31
0.0
0
LINE
8
SCORE
10
201.68382
20
157.99075
30
0.0
11
199.72039
21
153.39239
31
0.0
0
LINE
8
SCORE
10
197.75696
20
148.79402
30
0.0
11
195.79353
21
144.19566
31
0.0
0
LINE
8
SCORE
10
193.83010
20
139.59730
30
0.0
11
191.86667
21
134.99894
31
0.0
0
LINE
8
SCORE
10
189.90323
20
130.40058
30
0.0
11
187.93980
21
125.80221
31
0.0
0
LINE
8
SCORE
10
185.97637
20
121.20385
30
0.0
11
184.01294
21
116.60549
31
0.0
0
LINE
8
SCORE
10
182.04951
20
112.00713
30
0.0
11
180.08608
21
107.40876
31
0.0
0
LINE
8
SCORE
10
178.12264
20
102.81040
30
0.0
11
176.15921
21
98.21204
31
0.0
0
LINE
8
SCORE
10
174.19578
20
93.61368
30
0.0
11
172.23235
21
89.01531
31
0.0
0
LINE
8
SCORE
10
170.26892
20
84.41695
30
0.0
11
168.30549
21
79.81859
31
0.0
0
LINE
8
SCORE
10
166.34205
20
75.22023
30
0.0
11
164.37862
21
70.62186
31
0.0
0
LINE
8
SCORE
10
162.41519
20
66.02350
30
0.0
11
160.45176
21
61.42514
31
0.0
0
LINE
8
SCORE
10
158.48833
20
56.82678
30
0.0
11
156.52490
21
52.22842
31
0.0
0
LINE
8
SCORE
10
154.56147
20
47.63005
30
0.0
11
152.59803
21
43.03169
31
0.0
0
LINE
8
SCORE
10
150.63460
20
38.43333
30
0.0
11
148.67117
21
33.83497
31
0.0
0
LINE
8
SCORE
10
146.70774
20
29.23660
30
0.0
11
146.47682
21
28.69578
31
0.0
0
LINE
8
SCORE
10
106.68667
20
203.97437
30
0.0
11
106.02337
21
199.01856
31
0.0
0
LINE
8
SCORE
10
105.36007
20
194.06276
30
0.0
11
104.69678
21
189.10695
31
0.0
0
LINE
8
SCORE
10
104.03348
20
184.15114
30
0.0
11
103.37019
21
179.19533
31
0.0
0
LINE
8
SCORE
10
102.70689
20
174.23952
30
0.0
11
102.04360
21
169.28371
31
0.0
0
LINE
8
SCORE
10
101.38030
20
164.32790
30
0.0
11
100.71701
21
159.37210
31
0.0
0
LINE
8
SCORE
10
100.05371
20
154.41629
30
0.0
11
99.39041
21
149.46048
31
0.0
0
LINE
8
SCORE
10
98.72712
20
144.50467
30
0.0
11
98.06382
21
139.54886
31
0.0
0
LINE
8
SCORE
10
97.40053
20
134.59305
30
0.0
11
96.73723
21
129.63724
31
0.0
0
LINE
8
SCORE
10
96.07394
20
124.68144
30
0.0
11
95.41064
21
119.72563
31
0.0
0
LINE
8
SCORE
10
94.74735
20
114.76982
30
0.0
11
94.08405
21
109.81401
31
0.0
0
LINE
8
SCORE
10
93.42075
20
104.85820
30
0.0
11
92.75746
21
99.90239
31
0.0
0
LINE
8
SCORE
10
92.09416
20
94.94658
30
0.0
11
91.43087
21
89.99077
31
0.0
0
LINE
8
SCORE
10
90.76757
20
85.03497
30
0.0
11
90.10428
21
80.07916
31
0.0
0
LINE
8
SCORE
10
89.44098
20
75.12335
30
0.0
11
88.77769
21
70.16754
31
0.0
0
LINE
8
SCORE
10
88.11439
20
65.21173
30
0.0
11
87.45109
21
60.25592
31
0.0
0
LINE
8
SCORE
10
86.78780
20
55.30011
30
0.0
11
86.12450
21
50.34431
31
0.0
0
LINE
8
SCORE
10
313.63421
20
164.55680
30
0.0
11
309.03585
21
166.52023
31
0.0
0
LINE
8
SCORE
10
304.43749
20
168.48366
30
0.0
11
299.83912
21
170.44709
31
0.0
0
LINE
8
SCORE
10
295.24076
20
172.41053
30
0.0
11
290.64240
21
174.37396
31
0.0
0
LINE
8
SCORE
10
286.04404
20
176.33739
30
0.0
11
281.44567
21
178.30082
31
0.0
0
LINE
8
SCORE
10
276.84731
20
180.26425
30
0.0
11
272.24895
21
182.22768
31
0.0
0
LINE
8
SCORE
10
267.65059
20
184.19111
30
0.0
11
263.05222
21
186.15455
31
0.0
0
LINE
8
SCORE
10
258.45386
20
188.11798
30
0.0
11
253.85550
21
190.08141
31
0.0
0
LINE
8
SCORE
10
249.25714
20
192.04484
30
0.0
11
244.65878
21
194.00827
31
0.0
0
LINE
8
SCORE
10
240.06041
20
195.97170
30
0.0
11
235.46205
21
197.93514
31
0.0
0
LINE
8
SCORE
10
230.86369
20
199.89857
30
0.0
11
226.26533
21
201.86200
31
0.0
0
LINE
8
SCORE
10
221.66696
20
203.82543
30
0.0
11
221.31814
21
203.97437
31
0.0
0
LINE
8
SCORE2
10
221.31814
20
203.97437
30
0.0
11
146.47682
21
28.69578
31
0.0
0
LINE
8
SCORE2
10
106.68667
20
203.97437
30
0.0
11
86.04862
21
49.77737
31
0.0
0
LINE
8
SCORE2
10
313.63421
20
164.55680
30
0.0
11
221.31814
21
203.97437
31
0.0
0
ENDSEC
0
EOF
