<svg xmlns="http://www.w3.org/2000/svg" viewBox="0 0 357.3906797332423 306.4517866943343" width="100%" preserveAspectRatio="xMidYMid meet">
<rect x="0" y="0" width="357.3906797332423" height="306.4517866943343" fill="#0d1117"/>
<polygon points="207.01,203.97 221.32,203.97 146.48,28.70 132.09,35.85 117.15,41.78 101.77,46.43 86.05,49.78 106.69,203.97 121.00,203.97 125.20,208.17 130.55,208.17 134.75,203.97 138.95,203.97 143.15,208.17 158.55,208.17 162.75,203.97 166.95,203.97 171.15,208.17 180.68,208.17 184.88,203.97 189.08,203.97 193.28,208.17 202.81,208.17" fill="#1f3a5f" fill-opacity="0.55" stroke="none"/>
<polygon points="146.48,28.70 221.32,203.97 313.63,164.56 290.68,110.80 254.49,81.58 219.65,0.00 217.25,0.92 214.86,1.85 212.46,2.77 210.07,3.69 207.67,4.61 205.27,5.53 202.87,6.45 200.47,7.37 198.08,8.29 195.68,9.21 193.28,10.12 190.88,11.04 188.48,11.95 186.08,12.86 183.68,13.77 181.28,14.68 178.87,15.59 176.47,16.50 174.07,17.41 171.67,18.31 169.26,19.22 166.86,20.12 164.45,21.02" fill="#3a2f1f" fill-opacity="0.55" stroke="none"/>
<polygon points="86.05,49.78 82.66,50.23 79.28,50.68 75.89,51.14 72.51,51.59 69.12,52.04 65.73,52.50 62.35,52.95 58.96,53.40 55.58,53.86 52.19,54.31 48.81,54.76 45.42,55.22 42.04,55.67 38.65,56.12 35.26,56.57 31.88,57.03 28.49,57.48 25.11,57.93 21.72,58.39 18.34,58.84 14.95,59.29 11.56,59.75 8.18,60.20 16.57,122.86 0.00,163.54 7.19,217.29 106.69,203.97" fill="#3a2f1f" fill-opacity="0.55" stroke="none"/>
<polygon points="290.89,298.88 303.30,293.58 301.41,290.94 321.06,282.55 321.66,285.74 334.07,280.44 332.18,277.80 357.39,267.03 313.63,164.56 221.32,203.97 226.94,217.13 228.59,216.42 235.63,232.92 233.98,233.62 235.63,237.49 237.28,236.78 244.33,253.27 242.67,253.98 244.32,257.84 245.97,257.14 255.32,279.02 253.66,279.73 255.31,283.59 256.97,282.89 262.37,295.53 260.71,296.24 265.07,306.45 290.29,295.69" fill="#3a2f1f" fill-opacity="0.55" stroke="none"/>
<path d="M -0.08,163.53 L 16.49,122.85 L 8.09,60.14 L 86.04,49.70 L 101.75,46.36 L 117.12,41.71 L 132.06,35.78 L 146.45,28.63 L 164.43,20.95 L 166.83,20.05 L 169.24,19.14 L 171.64,18.24 L 174.04,17.34 L 176.45,16.43 L 178.85,15.52 L 181.25,14.61 L 183.65,13.70 L 186.05,12.79 L 188.45,11.88 L 190.85,10.97 L 193.25,10.05 L 195.65,9.14 L 198.05,8.22 L 200.45,7.30 L 202.85,6.38 L 205.24,5.46 L 207.64,4.54 L 210.04,3.62 L 212.44,2.70 L 214.83,1.78 L 217.23,0.85 L 219.69,-0.10 L 254.55,81.54 L 290.74,110.76 L 357.49,267.07 L 332.29,277.83 L 334.19,280.48 L 321.60,285.85 L 321.00,282.65 L 301.52,290.97 L 303.42,293.61 L 290.83,298.99 L 290.23,295.79 L 265.03,306.55 L 260.61,296.20 L 262.27,295.49 L 256.93,282.98 L 255.27,283.69 L 253.57,279.69 L 255.22,278.98 L 245.93,257.23 L 244.28,257.94 L 242.57,253.94 L 244.23,253.23 L 237.24,236.88 L 235.59,237.59 L 233.88,233.58 L 235.54,232.88 L 228.55,216.52 L 226.90,217.23 L 221.27,204.05 L 207.04,204.05 L 202.84,208.25 L 193.25,208.25 L 189.05,204.05 L 184.91,204.05 L 180.71,208.25 L 171.11,208.25 L 166.91,204.05 L 162.78,204.05 L 158.58,208.25 L 143.11,208.25 L 138.91,204.05 L 134.78,204.05 L 130.58,208.25 L 125.16,208.25 L 120.96,204.05 L 106.69,204.05 L 7.13,217.37 L -0.08,163.53 Z" fill="none" stroke="#ff0000" stroke-width="0.6"/>
<path d="M 33.54,207.33 L 45.48,205.73 L 45.91,208.93 L 33.97,210.53 L 33.54,207.33 Z" fill="none" stroke="#ff0000" stroke-width="0.6"/>
<path d="M 66.71,202.89 L 78.65,201.30 L 79.08,204.49 L 67.13,206.09 L 66.71,202.89 Z" fill="none" stroke="#ff0000" stroke-width="0.6"/>
<line x1="221.32" y1="203.97" x2="146.48" y2="28.70" stroke="#00a650" stroke-width="1.6" stroke-opacity="0.8"/>
<line x1="106.69" y1="203.97" x2="86.05" y2="49.78" stroke="#00a650" stroke-width="1.6" stroke-opacity="0.8"/>
<line x1="313.63" y1="164.56" x2="221.32" y2="203.97" stroke="#00a650" stroke-width="1.6" stroke-opacity="0.8"/>
<line x1="221.32" y1="203.97" x2="146.48" y2="28.70" stroke="#0000ff" stroke-width="0.8" stroke-dasharray="2 1.5"/>
<line x1="106.69" y1="203.97" x2="86.05" y2="49.78" stroke="#0000ff" stroke-width="0.8" stroke-dasharray="2 1.5"/>
<line x1="313.63" y1="164.56" x2="221.32" y2="203.97" stroke="#0000ff" stroke-width="0.8" stroke-dasharray="2 1.5"/>
<text x="183.9" y="116.3" fill="#9ad" font-size="5" text-anchor="middle">90°</text>
<text x="96.4" y="126.9" fill="#9ad" font-size="5" text-anchor="middle">90°</text>
<text x="267.5" y="184.3" fill="#9ad" font-size="5" text-anchor="middle">113°</text>
</svg>