0
SECTION
2
ENTITIES
0
POLYLINE
8
CUT
66
1
70
1
0
VERTEX
8
CUT
10
-0.15574
20
145.07650
30
0.0
0
VERTEX
8
CUT
10
93.80185
20
141.40510
30
0.0
0
VERTEX
8
CUT
10
93.63786
20
137.20830
30
0.0
0
VERTEX
8
CUT
10
95.19880
20
137.14731
30
0.0
0
VERTEX
8
CUT
10
99.55958
20
141.18012
30
0.0
0
VERTEX
8
CUT
10
103.63221
20
141.02098
30
0.0
0
VERTEX
8
CUT
10
107.66502
20
136.66019
30
0.0
0
VERTEX
8
CUT
10
122.73106
20
136.07148
30
0.0
0
VERTEX
8
CUT
10
127.09185
20
140.10429
30
0.0
0
VERTEX
8
CUT
10
131.16448
20
139.94515
30
0.0
0
VERTEX
8
CUT
10
135.19729
20
135.58437
30
0.0
0
VERTEX
8
CUT
10
146.00710
20
135.16197
30
0.0
0
VERTEX
8
CUT
10
150.36789
20
139.19478
30
0.0
0
VERTEX
8
CUT
10
154.44052
20
139.03564
30
0.0
0
VERTEX
8
CUT
10
158.47332
20
134.67485
30
0.0
0
VERTEX
8
CUT
10
163.94280
20
134.46113
30
0.0
0
VERTEX
8
CUT
10
168.30358
20
138.49394
30
0.0
0
VERTEX
8
CUT
10
172.37621
20
138.33480
30
0.0
0
VERTEX
8
CUT
10
176.40902
20
133.97401
30
0.0
0
VERTEX
8
CUT
10
191.92144
20
133.36787
30
0.0
0
VERTEX
8
CUT
10
196.28223
20
137.40067
30
0.0
0
VERTEX
8
CUT
10
200.35486
20
137.24153
30
0.0
0
VERTEX
8
CUT
10
204.38767
20
132.88075
30
0.0
0
VERTEX
8
CUT
10
214.03776
20
132.50367
30
0.0
0
VERTEX
8
CUT
10
218.39855
20
136.53648
30
0.0
0
VERTEX
8
CUT
10
222.47118
20
136.37734
30
0.0
0
VERTEX
8
CUT
10
226.50398
20
132.01655
30
0.0
0
VERTEX
8
CUT
10
236.15408
20
131.63947
30
0.0
0
VERTEX
8
CUT
10
240.51487
20
135.67228
30
0.0
0
VERTEX
8
CUT
10
244.58750
20
135.51314
30
0.0
0
VERTEX
8
CUT
10
248.62030
20
131.15235
30
0.0
0
VERTEX
8
CUT
10
249.37817
20
131.12274
30
0.0
0
VERTEX
8
CUT
10
299.24339
20
0.42953
30
0.0
0
VERTEX
8
CUT
10
314.21860
20
6.14324
30
0.0
0
VERTEX
8
CUT
10
315.39530
20
-0.20430
30
0.0
0
VERTEX
8
CUT
10
325.44837
20
3.63138
30
0.0
0
VERTEX
8
CUT
10
322.09780
20
9.14950
30
0.0
0
VERTEX
8
CUT
10
337.24435
20
14.92857
30
0.0
0
VERTEX
8
CUT
10
338.42105
20
8.58103
30
0.0
0
VERTEX
8
CUT
10
348.47412
20
12.41672
30
0.0
0
VERTEX
8
CUT
10
345.12355
20
17.93484
30
0.0
0
VERTEX
8
CUT
10
360.27010
20
23.71391
30
0.0
0
VERTEX
8
CUT
10
361.44680
20
17.36637
30
0.0
0
VERTEX
8
CUT
10
371.49987
20
21.20206
30
0.0
0
VERTEX
8
CUT
10
368.14930
20
26.72018
30
0.0
0
VERTEX
8
CUT
10
387.37559
20
34.05585
30
0.0
0
VERTEX
8
CUT
10
315.96450
20
221.21929
30
0.0
0
VERTEX
8
CUT
10
280.93642
20
251.82885
30
0.0
0
VERTEX
8
CUT
10
232.76626
20
378.07944
30
0.0
0
VERTEX
8
CUT
10
231.73312
20
377.72409
30
0.0
0
VERTEX
8
CUT
10
229.94114
20
377.10821
30
0.0
0
VERTEX
8
CUT
10
228.14898
20
376.49287
30
0.0
0
VERTEX
8
CUT
10
227.25283
20
376.18541
30
0.0
0
VERTEX
8
CUT
10
225.46038
20
375.57092
30
0.0
0
VERTEX
8
CUT
10
224.56409
20
375.26389
30
0.0
0
VERTEX
8
CUT
10
222.77135
20
374.65026
30
0.0
0
VERTEX
8
CUT
10
221.87491
20
374.34366
30
0.0
0
VERTEX
8
CUT
10
220.08188
20
373.73092
30
0.0
0
VERTEX
8
CUT
10
219.18529
20
373.42477
30
0.0
0
VERTEX
8
CUT
10
217.39196
20
372.81293
30
0.0
0
VERTEX
8
CUT
10
216.49522
20
372.50724
30
0.0
0
VERTEX
8
CUT
10
214.70158
20
371.89632
30
0.0
0
VERTEX
8
CUT
10
213.80468
20
371.59109
30
0.0
0
VERTEX
8
CUT
10
212.00809
20
370.98021
30
0.0
0
VERTEX
8
CUT
10
164.74268
20
352.94638
30
0.0
0
VERTEX
8
CUT
10
164.80305
20
352.78815
30
0.0
0
VERTEX
8
CUT
10
158.84929
20
350.33698
30
0.0
0
VERTEX
8
CUT
10
146.54430
20
346.36220
30
0.0
0
VERTEX
8
CUT
10
133.96667
20
343.35972
30
0.0
0
VERTEX
8
CUT
10
121.19310
20
341.34783
30
0.0
0
VERTEX
8
CUT
10
108.30150
20
340.33881
30
0.0
0
VERTEX
8
CUT
10
95.89795
20
340.33881
30
0.0
0
VERTEX
8
CUT
10
95.89755
20
340.31809
30
0.0
0
VERTEX
8
CUT
10
29.40673
20
342.91623
30
0.0
0
VERTEX
8
CUT
10
25.22444
20
235.88405
30
0.0
0
VERTEX
8
CUT
10
1.95052
20
198.97957
30
0.0
0
VERTEX
8
CUT
10
-0.15574
20
145.07650
30
0.0
0
SEQEND
0
POLYLINE
8
CUT
66
1
70
1
0
VERTEX
8
CUT
10
20.82510
20
150.71159
30
0.0
0
VERTEX
8
CUT
10
28.91893
20
150.39533
30
0.0
0
VERTEX
8
CUT
10
29.17077
20
156.84041
30
0.0
0
VERTEX
8
CUT
10
21.07695
20
157.15667
30
0.0
0
VERTEX
8
CUT
10
20.82510
20
150.71159
30
0.0
0
SEQEND
0
POLYLINE
8
CUT
66
1
70
1
0
VERTEX
8
CUT
10
45.45113
20
149.74933
30
0.0
0
VERTEX
8
CUT
10
53.54496
20
149.43306
30
0.0
0
VERTEX
8
CUT
10
53.79680
20
155.87814
30
0.0
0
VERTEX
8
CUT
10
45.70298
20
156.19441
30
0.0
0
VERTEX
8
CUT
10
45.45113
20
149.74933
30
0.0
0
SEQEND
0
POLYLINE
8
CUT
66
1
70
1
0
VERTEX
8
CUT
10
70.07716
20
148.78707
30
0.0
0
VERTEX
8
CUT
10
78.17099
20
148.47080
30
0.0
0
VERTEX
8
CUT
10
78.42283
20
154.91588
30
0.0
0
VERTEX
8
CUT
10
70.32900
20
155.23215
30
0.0
0
VERTEX
8
CUT
10
70.07716
20
148.78707
30
0.0
0
SEQEND
0
LINE
8
SCORE
10
250.44954
20
128.73553
30
0.0
11
249.38011
21
131.53844
31
0.0
0
LINE
8
SCORE
10
248.31068
20
134.34135
30
0.0
11
247.24124
21
137.14426
31
0.0
0
LINE
8
SCORE
10
246.17181
20
139.94717
30
0.0
11
245.10237
21
142.75009
31
0.0
0
LINE
8
SCORE
10
244.03294
20
145.55300
30
0.0
11
242.96351
21
148.35591
31
0.0
0
LINE
8
SCORE
10
241.89407
20
151.15882
30
0.0
11
240.82464
21
153.96173
31
0.0
0
LINE
8
SCORE
10
239.75520
20
156.76464
30
0.0
11
238.68577
21
159.56755
31
0.0
0
LINE
8
SCORE
10
237.61634
20
162.37046
30
0.0
11
236.54690
21
165.17337
31
0.0
0
LINE
8
SCORE
10
235.47747
20
167.97629
30
0.0
11
234.40803
21
170.77920
31
0.0
0
LINE
8
SCORE
10
233.33860
20
173.58211
30
0.0
11
232.26917
21
176.38502
31
0.0
0
LINE
8
SCORE
10
231.19973
20
179.18793
30
0.0
11
230.13030
21
181.99084
31
0.0
0
LINE
8
SCORE
10
229.06086
20
184.79375
30
0.0
11
227.99143
21
187.59666
31
0.0
0
LINE
8
SCORE
10
226.92200
20
190.39957
30
0.0
11
225.85256
21
193.20249
31
0.0
0
LINE
8
SCORE
10
224.78313
20
196.00540
30
0.0
11
223.71369
21
198.80831
31
0.0
0
LINE
8
SCORE
10
222.64426
20
201.61122
30
0.0
11
221.57483
21
204.41413
31
0.0
0
LINE
8
SCORE
10
220.50539
20
207.21704
30
0.0
11
219.43596
21
210.01995
31
0.0
0
LINE
8
SCORE
10
218.36652
20
212.82286
30
0.0
11
217.29709
21
215.62578
31
0.0
0
LINE
8
SCORE
10
216.22766
20
218.42869
30
0.0
11
215.15822
21
221.23160
31
0.0
0
LINE
8
SCORE
10
214.08879
20
224.03451
30
0.0
11
213.01935
21
226.83742
31
0.0
0
LINE
8
SCORE
10
211.94992
20
229.64033
30
0.0
11
210.88049
21
232.44324
31
0.0
0
LINE
8
SCORE
10
209.81105
20
235.24615
30
0.0
11
208.74162
21
238.04906
31
0.0
0
LINE
8
SCORE
10
207.67218
20
240.85198
30
0.0
11
206.60275
21
243.65489
31
0.0
0
LINE
8
SCORE
10
205.53331
20
246.45780
30
0.0
11
204.46388
21
249.26071
31
0.0
0
LINE
8
SCORE
10
203.39445
20
252.06362
30
0.0
11
202.32501
21
254.86653
31
0.0
0
LINE
8
SCORE
10
201.25558
20
257.66944
30
0.0
11
200.18614
21
260.47235
31
0.0
0
LINE
8
SCORE
10
199.11671
20
263.27526
30
0.0
11
198.04728
21
266.07818
31
0.0
0
LINE
8
SCORE
10
196.97784
20
268.88109
30
0.0
11
195.90841
21
271.68400
31
0.0
0
LINE
8
SCORE
10
194.83897
20
274.48691
30
0.0
11
193.76954
21
277.28982
31
0.0
0
LINE
8
SCORE
10
192.70011
20
280.09273
30
0.0
11
191.63067
21
282.89564
31
0.0
0
LINE
8
SCORE
10
190.56124
20
285.69855
30
0.0
11
189.49180
21
288.50146
31
0.0
0
LINE
8
SCORE
10
188.42237
20
291.30438
30
0.0
11
187.35294
21
294.10729
31
0.0
0
LINE
8
SCORE
10
186.28350
20
296.91020
30
0.0
11
185.21407
21
299.71311
31
0.0
0
LINE
8
SCORE
10
184.14463
20
302.51602
30
0.0
11
183.07520
21
305.31893
31
0.0
0
LINE
8
SCORE
10
182.00577
20
308.12184
30
0.0
11
180.93633
21
310.92475
31
0.0
0
LINE
8
SCORE
10
179.86690
20
313.72766
30
0.0
11
178.79746
21
316.53058
31
0.0
0
LINE
8
SCORE
10
177.72803
20
319.33349
30
0.0
11
176.65860
21
322.13640
31
0.0
0
LINE
8
SCORE
10
175.58916
20
324.93931
30
0.0
11
174.51973
21
327.74222
31
0.0
0
LINE
8
SCORE
10
173.45029
20
330.54513
30
0.0
11
172.38086
21
333.34804
31
0.0
0
LINE
8
SCORE
10
171.31143
20
336.15095
30
0.0
11
170.24199
21
338.95386
31
0.0
0
LINE
8
SCORE
10
169.17256
20
341.75678
30
0.0
11
168.10312
21
344.55969
31
0.0
0
LINE
8
SCORE
10
167.03369
20
347.36260
30
0.0
11
165.96426
21
350.16551
31
0.0
0
LINE
8
SCORE
10
333.24559
20
175.50598
30
0.0
11
330.44268
21
174.43654
31
0.0
0
LINE
8
SCORE
10
327.63977
20
173.36711
30
0.0
11
324.83686
21
172.29767
31
0.0
0
LINE
8
SCORE
10
322.03395
20
171.22824
30
0.0
11
319.23104
21
170.15881
31
0.0
0
LINE
8
SCORE
10
316.42813
20
169.08937
30
0.0
11
313.62522
21
168.01994
31
0.0
0
LINE
8
SCORE
10
310.82230
20
166.95050
30
0.0
11
308.01939
21
165.88107
31
0.0
0
LINE
8
SCORE
10
305.21648
20
164.81164
30
0.0
11
302.41357
21
163.74220
31
0.0
0
LINE
8
SCORE
10
299.61066
20
162.67277
30
0.0
11
296.80775
21
161.60333
31
0.0
0
LINE
8
SCORE
10
294.00484
20
160.53390
30
0.0
11
291.20193
21
159.46446
31
0.0
0
LINE
8
SCORE
10
288.39902
20
158.39503
30
0.0
11
285.59610
21
157.32560
31
0.0
0
LINE
8
SCORE
10
282.79319
20
156.25616
30
0.0
11
279.99028
21
155.18673
31
0.0
0
LINE
8
SCORE
10
277.18737
20
154.11729
30
0.0
11
274.38446
21
153.04786
31
0.0
0
LINE
8
SCORE
10
271.58155
20
151.97843
30
0.0
11
268.77864
21
150.90899
31
0.0
0
LINE
8
SCORE
10
265.97573
20
149.83956
30
0.0
11
263.17282
21
148.77012
31
0.0
0
LINE
8
SCORE
10
260.36990
20
147.70069
30
0.0
11
257.56699
21
146.63126
31
0.0
0
LINE
8
SCORE
10
254.76408
20
145.56182
30
0.0
11
251.96117
21
144.49239
31
0.0
0
LINE
8
SCORE
10
249.15826
20
143.42295
30
0.0
11
246.35535
21
142.35352
31
0.0
0
LINE
8
SCORE
10
243.55244
20
141.28409
30
0.0
11
241.14260
21
140.36463
31
0.0
0
LINE
8
SCORE
10
101.70976
20
339.94087
30
0.0
11
101.59262
21
336.94316
31
0.0
0
LINE
8
SCORE
10
101.47549
20
333.94544
30
0.0
11
101.35835
21
330.94773
31
0.0
0
LINE
8
SCORE
10
101.24122
20
327.95002
30
0.0
11
101.12408
21
324.95231
31
0.0
0
LINE
8
SCORE
10
101.00694
20
321.95459
30
0.0
11
100.88981
21
318.95688
31
0.0
0
LINE
8
SCORE
10
100.77267
20
315.95917
30
0.0
11
100.65554
21
312.96146
31
0.0
0
LINE
8
SCORE
10
100.53840
20
309.96374
30
0.0
11
100.42126
21
306.96603
31
0.0
0
LINE
8
SCORE
10
100.30413
20
303.96832
30
0.0
11
100.18699
21
300.97061
31
0.0
0
LINE
8
SCORE
10
100.06986
20
297.97289
30
0.0
11
99.95272
21
294.97518
31
0.0
0
LINE
8
SCORE
10
99.83559
20
291.97747
30
0.0
11
99.71845
21
288.97976
31
0.0
0
LINE
8
SCORE
10
99.60131
20
285.98205
30
0.0
11
99.48418
21
282.98433
31
0.0
0
LINE
8
SCORE
10
99.36704
20
279.98662
30
0.0
11
99.24991
21
276.98891
31
0.0
0
LINE
8
SCORE
10
99.13277
20
273.99120
30
0.0
11
99.01563
21
270.99348
31
0.0
0
LINE
8
SCORE
10
98.89850
20
267.99577
30
0.0
11
98.78136
21
264.99806
31
0.0
0
LINE
8
SCORE
10
98.66423
20
262.00035
30
0.0
11
98.54709
21
259.00263
31
0.0
0
LINE
8
SCORE
10
98.42996
20
256.00492
30
0.0
11
98.31282
21
253.00721
31
0.0
0
LINE
8
SCORE
10
98.19568
20
250.00950
30
0.0
11
98.07855
21
247.01179
31
0.0
0
LINE
8
SCORE
10
97.96141
20
244.01407
30
0.0
11
97.84428
21
241.01636
31
0.0
0
LINE
8
SCORE
10
97.72714
20
238.01865
30
0.0
11
97.61001
21
235.02094
31
0.0
0
LINE
8
SCORE
10
97.49287
20
232.02322
30
0.0
11
97.37573
21
229.02551
31
0.0
0
LINE
8
SCORE
10
97.25860
20
226.02780
30
0.0
11
97.14146
21
223.03009
31
0.0
0
LINE
8
SCORE
10
97.02433
20
220.03237
30
0.0
11
96.90719
21
217.03466
31
0.0
0
LINE
8
SCORE
10
96.79005
20
214.03695
30
0.0
11
96.67292
21
211.03924
31
0.0
0
LINE
8
SCORE
10
96.55578
20
208.04153
30
0.0
11
96.43865
21
205.04381
31
0.0
0
LINE
8
SCORE
10
96.32151
20
202.04610
30
0.0
11
96.20438
21
199.04839
31
0.0
0
LINE
8
SCORE
10
96.08724
20
196.05068
30
0.0
11
95.97010
21
193.05296
31
0.0
0
LINE
8
SCORE
10
95.85297
20
190.05525
30
0.0
11
95.73583
21
187.05754
31
0.0
0
LINE
8
SCORE
10
95.61870
20
184.05983
30
0.0
11
95.50156
21
181.06211
31
0.0
0
LINE
8
SCORE
10
95.38443
20
178.06440
30
0.0
11
95.26729
21
175.06669
31
0.0
0
LINE
8
SCORE
10
95.15015
20
172.06898
30
0.0
11
95.03302
21
169.07126
31
0.0
0
LINE
8
SCORE
10
94.91588
20
166.07355
30
0.0
11
94.79875
21
163.07584
31
0.0
0
LINE
8
SCORE
10
94.68161
20
160.07813
30
0.0
11
94.56447
21
157.08042
31
0.0
0
LINE
8
SCORE
10
94.44734
20
154.08270
30
0.0
11
94.33020
21
151.08499
31
0.0
0
LINE
8
SCORE
10
94.21307
20
148.08728
30
0.0
11
94.09593
21
145.08957
31
0.0
0
LINE
8
SCORE
10
93.97880
20
142.09185
30
0.0
11
93.86166
21
139.09414
31
0.0
0
LINE
8
SCORE2
10
250.44954
20
128.73553
30
0.0
11
164.93630
21
352.85970
31
0.0
0
LINE
8
SCORE2
10
333.24559
20
175.50598
30
0.0
11
241.14260
21
140.36463
31
0.0
0
LINE
8
SCORE2
10
101.70976
20
339.94087
30
0.0
11
93.79360
21
137.35233
31
0.0
0
ENDSEC
0
EOF
