<svg xmlns="http://www.w3.org/2000/svg" viewBox="0 0 391.22379723667706 374.898164305688" width="100%" preserveAspectRatio="xMidYMid meet">
<rect x="0" y="0" width="391.22379723667706" height="374.898164305688" fill="#0d1117"/>
<polygon points="290.61,42.53 277.76,41.02 265.06,38.50 252.60,35.01 240.45,30.55 234.46,27.81 143.18,241.58 150.58,241.58 154.78,245.78 164.31,245.78 168.51,241.58 172.71,241.58 176.91,245.78 186.45,245.78 190.65,241.58 194.85,241.58 199.05,245.78 214.45,245.78 218.65,241.58 222.85,241.58 227.05,245.78 232.40,245.78 236.60,241.58 240.80,241.58 245.00,245.78 255.69,245.78 259.89,241.58 264.09,241.58 268.29,245.78 283.24,245.78 287.44,241.58 297.19,241.58 297.19,42.98 302.26,42.98" fill="#1f3a5f" fill-opacity="0.55" stroke="none"/>
<polygon points="234.52,27.66 188.14,7.85 187.25,7.51 186.37,7.17 185.48,6.83 184.60,6.49 183.71,6.15 182.83,5.81 181.95,5.47 181.06,5.13 180.18,4.79 179.29,4.45 178.41,4.11 177.53,3.76 176.64,3.42 175.76,3.08 174.88,2.74 173.99,2.40 173.11,2.06 172.22,1.71 171.34,1.37 170.46,1.03 169.57,0.69 168.69,0.34 167.81,0.00 114.79,124.17 78.59,153.39 59.41,198.30 145.89,235.23" fill="#3a2f1f" fill-opacity="0.55" stroke="none"/>
<polygon points="369.41,43.03 297.19,43.03 297.19,241.58 391.22,241.58 391.22,187.82 369.41,150.04" fill="#3a2f1f" fill-opacity="0.55" stroke="none"/>
<polygon points="25.37,355.19 26.79,348.89 42.45,355.58 38.88,360.96 48.45,365.04 49.87,358.75 65.52,365.43 61.96,370.81 71.53,374.90 72.95,368.60 86.48,374.38 145.89,235.23 59.41,198.30 0.00,337.45 19.37,345.72 15.80,351.11" fill="#3a2f1f" fill-opacity="0.55" stroke="none"/>
<path d="M -0.20,337.53 L 78.47,153.30 L 114.66,124.08 L 167.73,-0.19 L 169.63,0.55 L 171.40,1.23 L 172.28,1.57 L 174.05,2.26 L 174.93,2.60 L 176.70,3.28 L 177.58,3.62 L 179.35,4.31 L 180.23,4.65 L 182.00,5.33 L 182.88,5.67 L 184.65,6.35 L 185.54,6.69 L 187.31,7.37 L 188.19,7.71 L 234.72,27.58 L 234.65,27.73 L 240.50,30.42 L 252.64,34.87 L 265.10,38.36 L 277.78,40.87 L 290.62,42.38 L 303.02,42.86 L 303.02,42.88 L 369.56,42.88 L 369.56,150.00 L 391.37,187.78 L 391.37,241.73 L 287.51,241.73 L 283.31,245.93 L 268.23,245.93 L 264.03,241.73 L 259.95,241.73 L 255.75,245.93 L 244.94,245.93 L 240.74,241.73 L 236.66,241.73 L 232.46,245.93 L 226.99,245.93 L 222.79,241.73 L 218.71,241.73 L 214.51,245.93 L 198.99,245.93 L 194.79,241.73 L 190.71,241.73 L 186.51,245.93 L 176.85,245.93 L 172.65,241.73 L 168.58,241.73 L 164.38,245.93 L 154.72,245.93 L 150.52,241.73 L 143.28,241.73 L 86.56,374.57 L 73.06,368.81 L 71.63,375.11 L 61.74,370.88 L 65.30,365.50 L 49.98,358.96 L 48.55,365.25 L 38.66,361.03 L 42.22,355.64 L 26.90,349.10 L 25.47,355.40 L 15.58,351.17 L 19.14,345.79 L -0.20,337.53 Z" fill="none" stroke="#ff0000" stroke-width="0.6"/>
<path d="M 311.89,228.83 L 319.99,228.83 L 319.99,235.28 L 311.89,235.28 L 311.89,228.83 Z" fill="none" stroke="#ff0000" stroke-width="0.6"/>
<path d="M 336.98,228.83 L 345.08,228.83 L 345.08,235.28 L 336.98,235.28 L 336.98,228.83 Z" fill="none" stroke="#ff0000" stroke-width="0.6"/>
<path d="M 362.08,228.83 L 370.18,228.83 L 370.18,235.28 L 362.08,235.28 L 362.08,228.83 Z" fill="none" stroke="#ff0000" stroke-width="0.6"/>
<line x1="142.11" y1="244.07" x2="234.52" y2="27.66" stroke="#00a650" stroke-width="1.6" stroke-opacity="0.8"/>
<line x1="297.19" y1="43.03" x2="297.19" y2="241.58" stroke="#00a650" stroke-width="1.6" stroke-opacity="0.8"/>
<line x1="59.41" y1="198.30" x2="151.73" y2="237.72" stroke="#00a650" stroke-width="1.6" stroke-opacity="0.8"/>
<line x1="142.11" y1="244.07" x2="234.52" y2="27.66" stroke="#0000ff" stroke-width="0.8" stroke-dasharray="2 1.5"/>
<line x1="297.19" y1="43.03" x2="297.19" y2="241.58" stroke="#0000ff" stroke-width="0.8" stroke-dasharray="2 1.5"/>
<line x1="59.41" y1="198.30" x2="151.73" y2="237.72" stroke="#0000ff" stroke-width="0.8" stroke-dasharray="2 1.5"/>
<text x="188.3" y="135.9" fill="#9ad" font-size="5" text-anchor="middle">90°</text>
<text x="297.2" y="142.3" fill="#9ad" font-size="5" text-anchor="middle">90°</text>
<text x="105.6" y="218.0" fill="#9ad" font-size="5" text-anchor="middle">113°</text>
</svg>