<svg xmlns="http://www.w3.org/2000/svg" viewBox="0 0 387.18197566521786 377.89040377121944" width="100%" preserveAspectRatio="xMidYMid meet">
<rect x="0" y="0" width="387.18197566521786" height="377.89040377121944" fill="#0d1117"/>
<polygon points="121.21,341.20 134.00,343.21 146.58,346.22 158.90,350.20 165.00,352.71 249.48,131.27 248.69,131.30 244.66,135.66 240.46,135.82 236.10,131.79 226.57,132.16 222.54,136.52 218.34,136.69 213.98,132.66 204.46,133.03 200.42,137.39 196.23,137.55 191.87,133.52 176.48,134.12 172.44,138.48 168.25,138.65 163.89,134.61 158.54,134.82 154.51,139.18 150.31,139.35 145.95,135.31 135.27,135.73 131.23,140.09 127.04,140.26 122.67,136.22 107.73,136.81 103.70,141.17 99.50,141.33 95.14,137.30 93.79,137.35 101.71,339.99 96.65,340.19 108.31,340.19" fill="#1f3a5f" fill-opacity="0.55" stroke="none"/>
<polygon points="212.96,371.14 213.85,371.45 214.75,371.75 215.65,372.06 216.54,372.37 217.44,372.67 218.34,372.98 219.23,373.28 220.13,373.59 221.03,373.90 221.92,374.20 222.82,374.51 223.72,374.82 224.61,375.12 225.51,375.43 226.41,375.74 227.30,376.04 228.20,376.35 229.09,376.66 229.99,376.97 230.89,377.27 231.78,377.58 232.68,377.89 280.81,251.74 315.84,221.13 333.25,175.51 245.39,141.99 164.94,352.86 212.06,370.84" fill="#3a2f1f" fill-opacity="0.55" stroke="none"/>
<polygon points="367.93,26.80 371.28,21.28 361.56,17.57 360.38,23.92 344.90,18.01 348.25,12.49 338.54,8.79 337.36,15.13 321.88,9.23 325.23,3.71 315.51,0.00 314.33,6.35 299.33,0.62 245.39,141.99 333.25,175.51 387.18,34.14" fill="#3a2f1f" fill-opacity="0.55" stroke="none"/>
<polygon points="2.10,198.93 25.37,235.84 29.55,342.76 101.71,339.94 93.96,141.55 0.00,145.22" fill="#3a2f1f" fill-opacity="0.55" stroke="none"/>
<path d="M -0.16,145.08 L 93.80,141.41 L 93.64,137.21 L 95.20,137.15 L 99.56,141.18 L 103.63,141.02 L 107.67,136.66 L 122.73,136.07 L 127.09,140.10 L 131.16,139.95 L 135.20,135.58 L 146.01,135.16 L 150.37,139.19 L 154.44,139.04 L 158.47,134.67 L 163.94,134.46 L 168.30,138.49 L 172.38,138.33 L 176.41,133.97 L 191.92,133.37 L 196.28,137.40 L 200.35,137.24 L 204.39,132.88 L 214.04,132.50 L 218.40,136.54 L 222.47,136.38 L 226.50,132.02 L 236.15,131.64 L 240.51,135.67 L 244.59,135.51 L 248.62,131.15 L 249.38,131.12 L 299.24,0.43 L 314.22,6.14 L 315.40,-0.20 L 325.45,3.63 L 322.10,9.15 L 337.24,14.93 L 338.42,8.58 L 348.47,12.42 L 345.12,17.93 L 360.27,23.71 L 361.45,17.37 L 371.50,21.20 L 368.15,26.72 L 387.38,34.06 L 315.96,221.22 L 280.94,251.83 L 232.77,378.08 L 231.73,377.72 L 229.94,377.11 L 228.15,376.49 L 227.25,376.19 L 225.46,375.57 L 224.56,375.26 L 222.77,374.65 L 221.87,374.34 L 220.08,373.73 L 219.19,373.42 L 217.39,372.81 L 216.50,372.51 L 214.70,371.90 L 213.80,371.59 L 212.01,370.98 L 164.74,352.95 L 164.80,352.79 L 158.85,350.34 L 146.54,346.36 L 133.97,343.36 L 121.19,341.35 L 108.30,340.34 L 95.90,340.34 L 95.90,340.32 L 29.41,342.92 L 25.22,235.88 L 1.95,198.98 L -0.16,145.08 Z" fill="none" stroke="#ff0000" stroke-width="0.6"/>
<path d="M 20.83,150.71 L 28.92,150.40 L 29.17,156.84 L 21.08,157.16 L 20.83,150.71 Z" fill="none" stroke="#ff0000" stroke-width="0.6"/>
<path d="M 45.45,149.75 L 53.54,149.43 L 53.80,155.88 L 45.70,156.19 L 45.45,149.75 Z" fill="none" stroke="#ff0000" stroke-width="0.6"/>
<path d="M 70.08,148.79 L 78.17,148.47 L 78.42,154.92 L 70.33,155.23 L 70.08,148.79 Z" fill="none" stroke="#ff0000" stroke-width="0.6"/>
<line x1="250.45" y1="128.74" x2="164.94" y2="352.86" stroke="#00a650" stroke-width="1.6" stroke-opacity="0.8"/>
<line x1="333.25" y1="175.51" x2="241.14" y2="140.36" stroke="#00a650" stroke-width="1.6" stroke-opacity="0.8"/>
<line x1="101.71" y1="339.94" x2="93.79" y2="137.35" stroke="#00a650" stroke-width="1.6" stroke-opacity="0.8"/>
<line x1="250.45" y1="128.74" x2="164.94" y2="352.86" stroke="#0000ff" stroke-width="0.8" stroke-dasharray="2 1.5"/>
<line x1="333.25" y1="175.51" x2="241.14" y2="140.36" stroke="#0000ff" stroke-width="0.8" stroke-dasharray="2 1.5"/>
<line x1="101.71" y1="339.94" x2="93.79" y2="137.35" stroke="#0000ff" stroke-width="0.8" stroke-dasharray="2 1.5"/>
<text x="207.7" y="240.8" fill="#9ad" font-size="5" text-anchor="middle">90°</text>
<text x="287.2" y="157.9" fill="#9ad" font-size="5" text-anchor="middle">113°</text>
<text x="97.8" y="238.6" fill="#9ad" font-size="5" text-anchor="middle">90°</text>
</svg>