0
SECTION
2
ENTITIES
0
POLYLINE
8
CUT
66
1
70
1
0
VERTEX
8
CUT
10
-0.15000
20
187.78322
30
0.0
0
VERTEX
8
CUT
10
21.66523
20
149.99814
30
0.0
0
VERTEX
8
CUT
10
21.66523
20
42.88428
30
0.0
0
VERTEX
8
CUT
10
88.20678
20
42.88428
30
0.0
0
VERTEX
8
CUT
10
88.20638
20
42.86357
30
0.0
0
VERTEX
8
CUT
10
100.60047
20
42.37927
30
0.0
0
VERTEX
8
CUT
10
113.44285
20
40.86766
30
0.0
0
VERTEX
8
CUT
10
126.12812
20
38.35856
30
0.0
0
VERTEX
8
CUT
10
138.57892
20
34.86726
30
0.0
0
VERTEX
8
CUT
10
150.71933
20
30.41506
30
0.0
0
VERTEX
8
CUT
10
156.57285
20
27.73330
30
0.0
0
VERTEX
8
CUT
10
156.50635
20
27.57755
30
0.0
0
VERTEX
8
CUT
10
203.03158
20
7.71198
30
0.0
0
VERTEX
8
CUT
10
204.80294
20
7.03142
30
0.0
0
VERTEX
8
CUT
10
205.68724
20
6.69140
30
0.0
0
VERTEX
8
CUT
10
207.45566
20
6.01092
30
0.0
0
VERTEX
8
CUT
10
208.33978
20
5.67044
30
0.0
0
VERTEX
8
CUT
10
210.10785
20
4.98905
30
0.0
0
VERTEX
8
CUT
10
210.99181
20
4.64812
30
0.0
0
VERTEX
8
CUT
10
212.75955
20
3.96584
30
0.0
0
VERTEX
8
CUT
10
213.64333
20
3.62448
30
0.0
0
VERTEX
8
CUT
10
215.41074
20
2.94132
30
0.0
0
VERTEX
8
CUT
10
216.29436
20
2.59952
30
0.0
0
VERTEX
8
CUT
10
218.06145
20
1.91551
30
0.0
0
VERTEX
8
CUT
10
218.94491
20
1.57330
30
0.0
0
VERTEX
8
CUT
10
220.71168
20
0.88846
30
0.0
0
VERTEX
8
CUT
10
222.47825
20
0.20307
30
0.0
0
VERTEX
8
CUT
10
223.49673
20
-0.19235
30
0.0
0
VERTEX
8
CUT
10
276.55964
20
124.08115
30
0.0
0
VERTEX
8
CUT
10
312.75617
20
153.29970
30
0.0
0
VERTEX
8
CUT
10
391.42065
20
337.53214
30
0.0
0
VERTEX
8
CUT
10
372.08159
20
345.78963
30
0.0
0
VERTEX
8
CUT
10
375.64506
20
351.17272
30
0.0
0
VERTEX
8
CUT
10
365.74942
20
355.39800
30
0.0
0
VERTEX
8
CUT
10
364.32577
20
349.10125
30
0.0
0
VERTEX
8
CUT
10
349.00257
20
355.64402
30
0.0
0
VERTEX
8
CUT
10
352.56604
20
361.02711
30
0.0
0
VERTEX
8
CUT
10
342.67041
20
365.25240
30
0.0
0
VERTEX
8
CUT
10
341.24676
20
358.95564
30
0.0
0
VERTEX
8
CUT
10
325.92355
20
365.49842
30
0.0
0
VERTEX
8
CUT
10
329.48702
20
370.88150
30
0.0
0
VERTEX
8
CUT
10
319.59139
20
375.10679
30
0.0
0
VERTEX
8
CUT
10
318.16774
20
368.81003
30
0.0
0
VERTEX
8
CUT
10
304.66860
20
374.57396
30
0.0
0
VERTEX
8
CUT
10
247.94512
20
241.72742
30
0.0
0
VERTEX
8
CUT
10
240.70428
20
241.72742
30
0.0
0
VERTEX
8
CUT
10
236.50428
20
245.92742
30
0.0
0
VERTEX
8
CUT
10
226.84682
20
245.92742
30
0.0
0
VERTEX
8
CUT
10
222.64682
20
241.72742
30
0.0
0
VERTEX
8
CUT
10
218.57108
20
241.72742
30
0.0
0
VERTEX
8
CUT
10
214.37108
20
245.92742
30
0.0
0
VERTEX
8
CUT
10
204.71362
20
245.92742
30
0.0
0
VERTEX
8
CUT
10
200.51362
20
241.72742
30
0.0
0
VERTEX
8
CUT
10
196.43788
20
241.72742
30
0.0
0
VERTEX
8
CUT
10
192.23788
20
245.92742
30
0.0
0
VERTEX
8
CUT
10
176.71362
20
245.92742
30
0.0
0
VERTEX
8
CUT
10
172.51362
20
241.72742
30
0.0
0
VERTEX
8
CUT
10
168.43788
20
241.72742
30
0.0
0
VERTEX
8
CUT
10
164.23788
20
245.92742
30
0.0
0
VERTEX
8
CUT
10
158.76424
20
245.92742
30
0.0
0
VERTEX
8
CUT
10
154.56424
20
241.72742
30
0.0
0
VERTEX
8
CUT
10
150.48850
20
241.72742
30
0.0
0
VERTEX
8
CUT
10
146.28850
20
245.92742
30
0.0
0
VERTEX
8
CUT
10
135.47044
20
245.92742
30
0.0
0
VERTEX
8
CUT
10
131.27044
20
241.72742
30
0.0
0
VERTEX
8
CUT
10
127.19470
20
241.72742
30
0.0
0
VERTEX
8
CUT
10
122.99470
20
245.92742
30
0.0
0
VERTEX
8
CUT
10
107.91716
20
245.92742
30
0.0
0
VERTEX
8
CUT
10
103.71716
20
241.72742
30
0.0
0
VERTEX
8
CUT
10
-0.15000
20
241.72742
30
0.0
0
VERTEX
8
CUT
10
-0.15000
20
187.78322
30
0.0
0
SEQEND
0
POLYLINE
8
CUT
66
1
70
1
0
VERTEX
8
CUT
10
21.04482
20
235.27742
30
0.0
0
VERTEX
8
CUT
10
21.04482
20
228.82742
30
0.0
0
VERTEX
8
CUT
10
29.14482
20
228.82742
30
0.0
0
VERTEX
8
CUT
10
29.14482
20
235.27742
30
0.0
0
VERTEX
8
CUT
10
21.04482
20
235.27742
30
0.0
0
SEQEND
0
POLYLINE
8
CUT
66
1
70
1
0
VERTEX
8
CUT
10
46.13965
20
235.27742
30
0.0
0
VERTEX
8
CUT
10
46.13965
20
228.82742
30
0.0
0
VERTEX
8
CUT
10
54.23965
20
228.82742
30
0.0
0
VERTEX
8
CUT
10
54.23965
20
235.27742
30
0.0
0
VERTEX
8
CUT
10
46.13965
20
235.27742
30
0.0
0
SEQEND
0
POLYLINE
8
CUT
66
1
70
1
0
VERTEX
8
CUT
10
71.23447
20
235.27742
30
0.0
0
VERTEX
8
CUT
10
71.23447
20
228.82742
30
0.0
0
VERTEX
8
CUT
10
79.33447
20
228.82742
30
0.0
0
VERTEX
8
CUT
10
79.33447
20
235.27742
30
0.0
0
VERTEX
8
CUT
10
71.23447
20
235.27742
30
0.0
0
SEQEND
0
LINE
8
SCORE
10
249.10889
20
244.07098
30
0.0
11
247.93083
21
241.31196
31
0.0
0
LINE
8
SCORE
10
246.75277
20
238.55294
30
0.0
11
245.57471
21
235.79393
31
0.0
0
LINE
8
SCORE
10
244.39665
20
233.03491
30
0.0
11
243.21859
21
230.27589
31
0.0
0
LINE
8
SCORE
10
242.04053
20
227.51687
30
0.0
11
240.86247
21
224.75786
31
0.0
0
LINE
8
SCORE
10
239.68442
20
221.99884
30
0.0
11
238.50636
21
219.23982
31
0.0
0
LINE
8
SCORE
10
237.32830
20
216.48080
30
0.0
11
236.15024
21
213.72179
31
0.0
0
LINE
8
SCORE
10
234.97218
20
210.96277
30
0.0
11
233.79412
21
208.20375
31
0.0
0
LINE
8
SCORE
10
232.61606
20
205.44473
30
0.0
11
231.43800
21
202.68572
31
0.0
0
LINE
8
SCORE
10
230.25994
20
199.92670
30
0.0
11
229.08188
21
197.16768
31
0.0
0
LINE
8
SCORE
10
227.90383
20
194.40866
30
0.0
11
226.72577
21
191.64965
31
0.0
0
LINE
8
SCORE
10
225.54771
20
188.89063
30
0.0
11
224.36965
21
186.13161
31
0.0
0
LINE
8
SCORE
10
223.19159
20
183.37259
30
0.0
11
222.01353
21
180.61358
31
0.0
0
LINE
8
SCORE
10
220.83547
20
177.85456
30
0.0
11
219.65741
21
175.09554
31
0.0
0
LINE
8
SCORE
10
218.47935
20
172.33653
30
0.0
11
217.30130
21
169.57751
31
0.0
0
LINE
8
SCORE
10
216.12324
20
166.81849
30
0.0
11
214.94518
21
164.05947
31
0.0
0
LINE
8
SCORE
10
213.76712
20
161.30046
30
0.0
11
212.58906
21
158.54144
31
0.0
0
LINE
8
SCORE
10
211.41100
20
155.78242
30
0.0
11
210.23294
21
153.02340
31
0.0
0
LINE
8
SCORE
10
209.05488
20
150.26439
30
0.0
11
207.87682
21
147.50537
31
0.0
0
LINE
8
SCORE
10
206.69876
20
144.74635
30
0.0
11
205.52071
21
141.98733
31
0.0
0
LINE
8
SCORE
10
204.34265
20
139.22832
30
0.0
11
203.16459
21
136.46930
31
0.0
0
LINE
8
SCORE
10
201.98653
20
133.71028
30
0.0
11
200.80847
21
130.95126
31
0.0
0
LINE
8
SCORE
10
199.63041
20
128.19225
30
0.0
11
198.45235
21
125.43323
31
0.0
0
LINE
8
SCORE
10
197.27429
20
122.67421
30
0.0
11
196.09623
21
119.91519
31
0.0
0
LINE
8
SCORE
10
194.91818
20
117.15618
30
0.0
11
193.74012
21
114.39716
31
0.0
0
LINE
8
SCORE
10
192.56206
20
111.63814
30
0.0
11
191.38400
21
108.87912
31
0.0
0
LINE
8
SCORE
10
190.20594
20
106.12011
30
0.0
11
189.02788
21
103.36109
31
0.0
0
LINE
8
SCORE
10
187.84982
20
100.60207
30
0.0
11
186.67176
21
97.84305
31
0.0
0
LINE
8
SCORE
10
185.49370
20
95.08404
30
0.0
11
184.31564
21
92.32502
31
0.0
0
LINE
8
SCORE
10
183.13759
20
89.56600
30
0.0
11
181.95953
21
86.80699
31
0.0
0
LINE
8
SCORE
10
180.78147
20
84.04797
30
0.0
11
179.60341
21
81.28895
31
0.0
0
LINE
8
SCORE
10
178.42535
20
78.52993
30
0.0
11
177.24729
21
75.77092
31
0.0
0
LINE
8
SCORE
10
176.06923
20
73.01190
30
0.0
11
174.89117
21
70.25288
31
0.0
0
LINE
8
SCORE
10
173.71311
20
67.49386
30
0.0
11
172.53506
21
64.73485
31
0.0
0
LINE
8
SCORE
10
171.35700
20
61.97583
30
0.0
11
170.17894
21
59.21681
31
0.0
0
LINE
8
SCORE
10
169.00088
20
56.45779
30
0.0
11
167.82282
21
53.69878
31
0.0
0
LINE
8
SCORE
10
166.64476
20
50.93976
30
0.0
11
165.46670
21
48.18074
31
0.0
0
LINE
8
SCORE
10
164.28864
20
45.42172
30
0.0
11
163.11058
21
42.66271
31
0.0
0
LINE
8
SCORE
10
161.93252
20
39.90369
30
0.0
11
160.75447
21
37.14467
31
0.0
0
LINE
8
SCORE
10
159.57641
20
34.38565
30
0.0
11
158.39835
21
31.62664
31
0.0
0
LINE
8
SCORE
10
157.22029
20
28.86762
30
0.0
11
156.70320
21
27.65660
31
0.0
0
LINE
8
SCORE
10
94.02929
20
43.03428
30
0.0
11
94.02929
21
46.03428
31
0.0
0
LINE
8
SCORE
10
94.02929
20
49.03428
30
0.0
11
94.02929
21
52.03428
31
0.0
0
LINE
8
SCORE
10
94.02929
20
55.03428
30
0.0
11
94.02929
21
58.03428
31
0.0
0
LINE
8
SCORE
10
94.02929
20
61.03428
30
0.0
11
94.02929
21
64.03428
31
0.0
0
LINE
8
SCORE
10
94.02929
20
67.03428
30
0.0
11
94.02929
21
70.03428
31
0.0
0
LINE
8
SCORE
10
94.02929
20
73.03428
30
0.0
11
94.02929
21
76.03428
31
0.0
0
LINE
8
SCORE
10
94.02929
20
79.03428
30
0.0
11
94.02929
21
82.03428
31
0.0
0
LINE
8
SCORE
10
94.02929
20
85.03428
30
0.0
11
94.02929
21
88.03428
31
0.0
0
LINE
8
SCORE
10
94.02929
20
91.03428
30
0.0
11
94.02929
21
94.03428
31
0.0
0
LINE
8
SCORE
10
94.02929
20
97.03428
30
0.0
11
94.02929
21
100.03428
31
0.0
0
LINE
8
SCORE
10
94.02929
20
103.03428
30
0.0
11
94.02929
21
106.03428
31
0.0
0
LINE
8
SCORE
10
94.02929
20
109.03428
30
0.0
11
94.02929
21
112.03428
31
0.0
0
LINE
8
SCORE
10
94.02929
20
115.03428
30
0.0
11
94.02929
21
118.03428
31
0.0
0
LINE
8
SCORE
10
94.02929
20
121.03428
30
0.0
11
94.02929
21
124.03428
31
0.0
0
LINE
8
SCORE
10
94.02929
20
127.03428
30
0.0
11
94.02929
21
130.03428
31
0.0
0
LINE
8
SCORE
10
94.02929
20
133.03428
30
0.0
11
94.02929
21
136.03428
31
0.0
0
LINE
8
SCORE
10
94.02929
20
139.03428
30
0.0
11
94.02929
21
142.03428
31
0.0
0
LINE
8
SCORE
10
94.02929
20
145.03428
30
0.0
11
94.02929
21
148.03428
31
0.0
0
LINE
8
SCORE
10
94.02929
20
151.03428
30
0.0
11
94.02929
21
154.03428
31
0.0
0
LINE
8
SCORE
10
94.02929
20
157.03428
30
0.0
11
94.02929
21
160.03428
31
0.0
0
LINE
8
SCORE
10
94.02929
20
163.03428
30
0.0
11
94.02929
21
166.03428
31
0.0
0
LINE
8
SCORE
10
94.02929
20
169.03428
30
0.0
11
94.02929
21
172.03428
31
0.0
0
LINE
8
SCORE
10
94.02929
20
175.03428
30
0.0
11
94.02929
21
178.03428
31
0.0
0
LINE
8
SCORE
10
94.02929
20
181.03428
30
0.0
11
94.02929
21
184.03428
31
0.0
0
LINE
8
SCORE
10
94.02929
20
187.03428
30
0.0
11
94.02929
21
190.03428
31
0.0
0
LINE
8
SCORE
10
94.02929
20
193.03428
30
0.0
11
94.02929
21
196.03428
31
0.0
0
LINE
8
SCORE
10
94.02929
20
199.03428
30
0.0
11
94.02929
21
202.03428
31
0.0
0
LINE
8
SCORE
10
94.02929
20
205.03428
30
0.0
11
94.02929
21
208.03428
31
0.0
0
LINE
8
SCORE
10
94.02929
20
211.03428
30
0.0
11
94.02929
21
214.03428
31
0.0
0
LINE
8
SCORE
10
94.02929
20
217.03428
30
0.0
11
94.02929
21
220.03428
31
0.0
0
LINE
8
SCORE
10
94.02929
20
223.03428
30
0.0
11
94.02929
21
226.03428
31
0.0
0
LINE
8
SCORE
10
94.02929
20
229.03428
30
0.0
11
94.02929
21
232.03428
31
0.0
0
LINE
8
SCORE
10
94.02929
20
235.03428
30
0.0
11
94.02929
21
238.03428
31
0.0
0
LINE
8
SCORE
10
94.02929
20
241.03428
30
0.0
11
94.02929
21
241.57742
31
0.0
0
LINE
8
SCORE
10
331.80897
20
198.30340
30
0.0
11
329.04995
21
199.48146
31
0.0
0
LINE
8
SCORE
10
326.29094
20
200.65952
30
0.0
11
323.53192
21
201.83758
31
0.0
0
LINE
8
SCORE
10
320.77290
20
203.01564
30
0.0
11
318.01388
21
204.19370
31
0.0
0
LINE
8
SCORE
10
315.25487
20
205.37176
30
0.0
11
312.49585
21
206.54982
31
0.0
0
LINE
8
SCORE
10
309.73683
20
207.72788
30
0.0
11
306.97781
21
208.90593
31
0.0
0
LINE
8
SCORE
10
304.21880
20
210.08399
30
0.0
11
301.45978
21
211.26205
31
0.0
0
LINE
8
SCORE
10
298.70076
20
212.44011
30
0.0
11
295.94175
21
213.61817
31
0.0
0
LINE
8
SCORE
10
293.18273
20
214.79623
30
0.0
11
290.42371
21
215.97429
31
0.0
0
LINE
8
SCORE
10
287.66469
20
217.15235
30
0.0
11
284.90568
21
218.33041
31
0.0
0
LINE
8
SCORE
10
282.14666
20
219.50846
30
0.0
11
279.38764
21
220.68652
31
0.0
0
LINE
8
SCORE
10
276.62862
20
221.86458
30
0.0
11
273.86961
21
223.04264
31
0.0
0
LINE
8
SCORE
10
271.11059
20
224.22070
30
0.0
11
268.35157
21
225.39876
31
0.0
0
LINE
8
SCORE
10
265.59255
20
226.57682
30
0.0
11
262.83354
21
227.75488
31
0.0
0
LINE
8
SCORE
10
260.07452
20
228.93294
30
0.0
11
257.31550
21
230.11100
31
0.0
0
LINE
8
SCORE
10
254.55648
20
231.28905
30
0.0
11
251.79747
21
232.46711
31
0.0
0
LINE
8
SCORE
10
249.03845
20
233.64517
30
0.0
11
246.27943
21
234.82323
31
0.0
0
LINE
8
SCORE
10
243.52041
20
236.00129
30
0.0
11
240.76140
21
237.17935
31
0.0
0
LINE
8
SCORE2
10
249.10889
20
244.07098
30
0.0
11
156.70320
21
27.65660
31
0.0
0
LINE
8
SCORE2
10
94.02929
20
43.03428
30
0.0
11
94.02929
21
241.57742
31
0.0
0
LINE
8
SCORE2
10
331.80897
20
198.30340
30
0.0
11
239.49290
21
237.72098
31
0.0
0
ENDSEC
0
EOF
