0
SECTION
2
ENTITIES
0
POLYLINE
8
CUT
66
1
70
1
0
VERTEX
8
CUT
10
-0.15000
20
187.78322
30
0.0
0
VERTEX
8
CUT
10
21.66523
20
149.99814
30
0.0
0
VERTEX
8
CUT
10
21.66523
20
42.88428
30
0.0
0
VERTEX
8
CUT
10
88.20678
20
42.88428
30
0.0
0
VERTEX
8
CUT
10
88.20638
20
42.86357
30
0.0
0
VERTEX
8
CUT
10
100.60047
20
42.37927
30
0.0
0
VERTEX
8
CUT
10
113.44285
20
40.86766
30
0.0
0
VERTEX
8
CUT
10
126.12812
20
38.35856
30
0.0
0
VERTEX
8
CUT
10
138.57892
20
34.86726
30
0.0
0
VERTEX
8
CUT
10
150.71933
20
30.41506
30
0.0
0
VERTEX
8
CUT
10
156.57285
20
27.73330
30
0.0
0
VERTEX
8
CUT
10
156.50635
20
27.57755
30
0.0
0
VERTEX
8
CUT
10
203.03158
20
7.71198
30
0.0
0
VERTEX
8
CUT
10
204.80294
20
7.03142
30
0.0
0
VERTEX
8
CUT
10
205.68724
20
6.69140
30
0.0
0
VERTEX
8
CUT
10
207.45566
20
6.01092
30
0.0
0
VERTEX
8
CUT
10
208.33978
20
5.67044
30
0.0
0
VERTEX
8
CUT
10
210.10785
20
4.98905
30
0.0
0
VERTEX
8
CUT
10
210.99181
20
4.64812
30
0.0
0
VERTEX
8
CUT
10
212.75955
20
3.96584
30
0.0
0
VERTEX
8
CUT
10
213.64333
20
3.62448
30
0.0
0
VERTEX
8
CUT
10
215.41074
20
2.94132
30
0.0
0
VERTEX
8
CUT
10
216.29436
20
2.59952
30
0.0
0
VERTEX
8
CUT
10
218.06145
20
1.91551
30
0.0
0
VERTEX
8
CUT
10
218.94491
20
1.57330
30
0.0
0
VERTEX
8
CUT
10
220.71168
20
0.88846
30
0.0
0
VERTEX
8
CUT
10
222.47825
20
0.20307
30
0.0
0
VERTEX
8
CUT
10
223.49673
20
-0.19235
30
0.0
0
VERTEX
8
CUT
10
276.55964
20
124.08115
30
0.0
0
VERTEX
8
CUT
10
312.75617
20
153.29970
30
0.0
0
VERTEX
8
CUT
10
391.42065
20
337.53214
30
0.0
0
VERTEX
8
CUT
10
372.08159
20
345.78963
30
0.0
0
VERTEX
8
CUT
10
375.64506
20
351.17272
30
0.0
0
VERTEX
8
CUT
10
365.74942
20
355.39800
30
0.0
0
VERTEX
8
CUT
10
364.32577
20
349.10125
30
0.0
0
VERTEX
8
CUT
10
349.00257
20
355.64402
30
0.0
0
VERTEX
8
CUT
10
352.56604
20
361.02711
30
0.0
0
VERTEX
8
CUT
10
342.67041
20
365.25240
30
0.0
0
VERTEX
8
CUT
10
341.24676
20
358.95564
30
0.0
0
VERTEX
8
CUT
10
325.92355
20
365.49842
30
0.0
0
VERTEX
8
CUT
10
329.48702
20
370.88150
30
0.0
0
VERTEX
8
CUT
10
319.59139
20
375.10679
30
0.0
0
VERTEX
8
CUT
10
318.16774
20
368.81003
30
0.0
0
VERTEX
8
CUT
10
304.66860
20
374.57396
30
0.0
0
VERTEX
8
CUT
10
247.94512
20
241.72742
30
0.0
0
VERTEX
8
CUT
10
240.70428
20
241.72742
30
0.0
0
VERTEX
8
CUT
10
236.50428
20
245.92742
30
0.0
0
VERTEX
8
CUT
10
226.84682
20
245.92742
30
0.0
0
VERTEX
8
CUT
10
222.64682
20
241.72742
30
0.0
0
VERTEX
8
CUT
10
218.57108
20
241.72742
30
0.0
0
VERTEX
8
CUT
10
214.37108
20
245.92742
30
0.0
0
VERTEX
8
CUT
10
204.71362
20
245.92742
30
0.0
0
VERTEX
8
CUT
10
200.51362
20
241.72742
30
0.0
0
VERTEX
8
CUT
10
196.43788
20
241.72742
30
0.0
0
VERTEX
8
CUT
10
192.23788
20
245.92742
30
0.0
0
VERTEX
8
CUT
10
176.71362
20
245.92742
30
0.0
0
VERTEX
8
CUT
10
172.51362
20
241.72742
30
0.0
0
VERTEX
8
CUT
10
168.43788
20
241.72742
30
0.0
0
VERTEX
8
CUT
10
164.23788
20
245.92742
30
0.0
0
VERTEX
8
CUT
10
158.76424
20
245.92742
30
0.0
0
VERTEX
8
CUT
10
154.56424
20
241.72742
30
0.0
0
VERTEX
8
CUT
10
150.48850
20
241.72742
30
0.0
0
VERTEX
8
CUT
10
146.28850
20
245.92742
30
0.0
0
VERTEX
8
CUT
10
135.47044
20
245.92742
30
0.0
0
VERTEX
8
CUT
10
131.27044
20
241.72742
30
0.0
0
VERTEX
8
CUT
10
127.19470
20
241.72742
30
0.0
0
VERTEX
8
CUT
10
122.99470
20
245.92742
30
0.0
0
VERTEX
8
CUT
10
107.91716
20
245.92742
30
0.0
0
VERTEX
8
CUT
10
103.71716
20
241.72742
30
0.0
0
VERTEX
8
CUT
10
-0.15000
20
241.72742
30
0.0
0
VERTEX
8
CUT
10
-0.15000
20
187.78322
30
0.0
0
SEQEND
0
POLYLINE
8
CUT
66
1
70
1
0
VERTEX
8
CUT
10
21.04482
20
235.27742
30
0.0
0
VERTEX
8
CUT
10
21.04482
20
228.82742
30
0.0
0
VERTEX
8
CUT
10
29.14482
20
228.82742
30
0.0
0
VERTEX
8
CUT
10
29.14482
20
235.27742
30
0.0
0
VERTEX
8
CUT
10
21.04482
20
235.27742
30
0.0
0
SEQEND
0
POLYLINE
8
CUT
66
1
70
1
0
VERTEX
8
CUT
10
46.13965
20
235.27742
30
0.0
0
VERTEX
8
CUT
10
46.13965
20
228.82742
30
0.0
0
VERTEX
8
CUT
10
54.23965
20
228.82742
30
0.0
0
VERTEX
8
CUT
10
54.23965
20
235.27742
30
0.0
0
VERTEX
8
CUT
10
46.13965
20
235.27742
30
0.0
0
SEQEND
0
POLYLINE
8
CUT
66
1
70
1
0
VERTEX
8
CUT
10
71.23447
20
235.27742
30
0.0
0
VERTEX
8
CUT
10
71.23447
20
228.82742
30
0.0
0
VERTEX
8
CUT
10
79.33447
20
228.82742
30
0.0
0
VERTEX
8
CUT
10
79.33447
20
235.27742
30
0.0
0
VERTEX
8
CUT
10
71.23447
20
235.27742
30
0.0
0
SEQEND
0
LINE
8
SCORE
10
249.10889
20
244.07098
30
0.0
11
247.14546
21
239.47262
31
0.0
0
LINE
8
SCORE
10
245.18202
20
234.87425
30
0.0
11
243.21859
21
230.27589
31
0.0
0
LINE
8
SCORE
10
241.25516
20
225.67753
30
0.0
11
239.29173
21
221.07917
31
0.0
0
LINE
8
SCORE
10
237.32830
20
216.48080
30
0.0
11
235.36487
21
211.88244
31
0.0
0
LINE
8
SCORE
10
233.40143
20
207.28408
30
0.0
11
231.43800
21
202.68572
31
0.0
0
LINE
8
SCORE
10
229.47457
20
198.08735
30
0.0
11
227.51114
21
193.48899
31
0.0
0
LINE
8
SCORE
10
225.54771
20
188.89063
30
0.0
11
223.58428
21
184.29227
31
0.0
0
LINE
8
SCORE
10
221.62084
20
179.69390
30
0.0
11
219.65741
21
175.09554
31
0.0
0
LINE
8
SCORE
10
217.69398
20
170.49718
30
0.0
11
215.73055
21
165.89882
31
0.0
0
LINE
8
SCORE
10
213.76712
20
161.30046
30
0.0
11
211.80369
21
156.70209
31
0.0
0
LINE
8
SCORE
10
209.84026
20
152.10373
30
0.0
11
207.87682
21
147.50537
31
0.0
0
LINE
8
SCORE
10
205.91339
20
142.90701
30
0.0
11
203.94996
21
138.30864
31
0.0
0
LINE
8
SCORE
10
201.98653
20
133.71028
30
0.0
11
200.02310
21
129.11192
31
0.0
0
LINE
8
SCORE
10
198.05967
20
124.51356
30
0.0
11
196.09623
21
119.91519
31
0.0
0
LINE
8
SCORE
10
194.13280
20
115.31683
30
0.0
11
192.16937
21
110.71847
31
0.0
0
LINE
8
SCORE
10
190.20594
20
106.12011
30
0.0
11
188.24251
21
101.52174
31
0.0
0
LINE
8
SCORE
10
186.27908
20
96.92338
30
0.0
11
184.31564
21
92.32502
31
0.0
0
LINE
8
SCORE
10
182.35221
20
87.72666
30
0.0
11
180.38878
21
83.12830
31
0.0
0
LINE
8
SCORE
10
178.42535
20
78.52993
30
0.0
11
176.46192
21
73.93157
31
0.0
0
LINE
8
SCORE
10
174.49849
20
69.33321
30
0.0
11
172.53506
21
64.73485
31
0.0
0
LINE
8
SCORE
10
170.57162
20
60.13648
30
0.0
11
168.60819
21
55.53812
31
0.0
0
LINE
8
SCORE
10
166.64476
20
50.93976
30
0.0
11
164.68133
21
46.34140
31
0.0
0
LINE
8
SCORE
10
162.71790
20
41.74303
30
0.0
11
160.75447
21
37.14467
31
0.0
0
LINE
8
SCORE
10
158.79103
20
32.54631
30
0.0
11
156.82760
21
27.94795
31
0.0
0
LINE
8
SCORE
10
94.02929
20
43.03428
30
0.0
11
94.02929
21
48.03428
31
0.0
0
LINE
8
SCORE
10
94.02929
20
53.03428
30
0.0
11
94.02929
21
58.03428
31
0.0
0
LINE
8
SCORE
10
94.02929
20
63.03428
30
0.0
11
94.02929
21
68.03428
31
0.0
0
LINE
8
SCORE
10
94.02929
20
73.03428
30
0.0
11
94.02929
21
78.03428
31
0.0
0
LINE
8
SCORE
10
94.02929
20
83.03428
30
0.0
11
94.02929
21
88.03428
31
0.0
0
LINE
8
SCORE
10
94.02929
20
93.03428
30
0.0
11
94.02929
21
98.03428
31
0.0
0
LINE
8
SCORE
10
94.02929
20
103.03428
30
0.0
11
94.02929
21
108.03428
31
0.0
0
LINE
8
SCORE
10
94.02929
20
113.03428
30
0.0
11
94.02929
21
118.03428
31
0.0
0
LINE
8
SCORE
10
94.02929
20
123.03428
30
0.0
11
94.02929
21
128.03428
31
0.0
0
LINE
8
SCORE
10
94.02929
20
133.03428
30
0.0
11
94.02929
21
138.03428
31
0.0
0
LINE
8
SCORE
10
94.02929
20
143.03428
30
0.0
11
94.02929
21
148.03428
31
0.0
0
LINE
8
SCORE
10
94.02929
20
153.03428
30
0.0
11
94.02929
21
158.03428
31
0.0
0
LINE
8
SCORE
10
94.02929
20
163.03428
30
0.0
11
94.02929
21
168.03428
31
0.0
0
LINE
8
SCORE
10
94.02929
20
173.03428
30
0.0
11
94.02929
21
178.03428
31
0.0
0
LINE
8
SCORE
10
94.02929
20
183.03428
30
0.0
11
94.02929
21
188.03428
31
0.0
0
LINE
8
SCORE
10
94.02929
20
193.03428
30
0.0
11
94.02929
21
198.03428
31
0.0
0
LINE
8
SCORE
10
94.02929
20
203.03428
30
0.0
11
94.02929
21
208.03428
31
0.0
0
LINE
8
SCORE
10
94.02929
20
213.03428
30
0.0
11
94.02929
21
218.03428
31
0.0
0
LINE
8
SCORE
10
94.02929
20
223.03428
30
0.0
11
94.02929
21
228.03428
31
0.0
0
LINE
8
SCORE
10
94.02929
20
233.03428
30
0.0
11
94.02929
21
238.03428
31
0.0
0
LINE
8
SCORE
10
331.80897
20
198.30340
30
0.0
11
327.21061
21
200.26684
31
0.0
0
LINE
8
SCORE
10
322.61225
20
202.23027
30
0.0
11
318.01388
21
204.19370
31
0.0
0
LINE
8
SCORE
10
313.41552
20
206.15713
30
0.0
11
308.81716
21
208.12056
31
0.0
0
LINE
8
SCORE
10
304.21880
20
210.08399
30
0.0
11
299.62044
21
212.04742
31
0.0
0
LINE
8
SCORE
10
295.02207
20
214.01086
30
0.0
11
290.42371
21
215.97429
31
0.0
0
LINE
8
SCORE
10
285.82535
20
217.93772
30
0.0
11
281.22699
21
219.90115
31
0.0
0
LINE
8
SCORE
10
276.62862
20
221.86458
30
0.0
11
272.03026
21
223.82801
31
0.0
0
LINE
8
SCORE
10
267.43190
20
225.79145
30
0.0
11
262.83354
21
227.75488
31
0.0
0
LINE
8
SCORE
10
258.23517
20
229.71831
30
0.0
11
253.63681
21
231.68174
31
0.0
0
LINE
8
SCORE
10
249.03845
20
233.64517
30
0.0
11
244.44009
21
235.60860
31
0.0
0
LINE
8
SCORE
10
239.84172
20
237.57204
30
0.0
11
239.49290
21
237.72098
31
0.0
0
LINE
8
SCORE2
10
249.10889
20
244.07098
30
0.0
11
156.70320
21
27.65660
31
0.0
0
LINE
8
SCORE2
10
94.02929
20
43.03428
30
0.0
11
94.02929
21
241.57742
31
0.0
0
LINE
8
SCORE2
10
331.80897
20
198.30340
30
0.0
11
239.49290
21
237.72098
31
0.0
0
ENDSEC
0
EOF
