<svg xmlns="http://www.w3.org/2000/svg" viewBox="0 0 391.2237972366777 374.8981643056879" width="100%" preserveAspectRatio="xMidYMid meet">
<rect x="0" y="0" width="391.2237972366777" height="374.8981643056879" fill="#0d1117"/>
<polygon points="156.77,27.81 150.78,30.55 138.63,35.01 126.16,38.50 113.47,41.02 100.61,42.53 88.96,42.98 94.03,42.98 94.03,241.58 103.78,241.58 107.98,245.78 122.93,245.78 127.13,241.58 131.33,241.58 135.53,245.78 146.23,245.78 150.43,241.58 154.63,241.58 158.83,245.78 164.18,245.78 168.38,241.58 172.58,241.58 176.78,245.78 192.18,245.78 196.38,241.58 200.58,241.58 204.78,245.78 214.31,245.78 218.51,241.58 222.71,241.58 226.91,245.78 236.44,245.78 240.64,241.58 248.04,241.58" fill="#1f3a5f" fill-opacity="0.55" stroke="none"/>
<polygon points="312.63,153.39 276.44,124.17 223.42,0.00 222.53,0.34 221.65,0.69 220.77,1.03 219.88,1.37 219.00,1.71 218.12,2.06 217.23,2.40 216.35,2.74 215.46,3.08 214.58,3.42 213.70,3.76 212.81,4.11 211.93,4.45 211.05,4.79 210.16,5.13 209.28,5.47 208.39,5.81 207.51,6.15 206.63,6.49 205.74,6.83 204.86,7.17 203.97,7.51 203.09,7.85 156.70,27.66 245.33,235.23 331.81,198.30" fill="#3a2f1f" fill-opacity="0.55" stroke="none"/>
<polygon points="21.82,150.04 0.00,187.82 0.00,241.58 94.03,241.58 94.03,43.03 21.82,43.03" fill="#3a2f1f" fill-opacity="0.55" stroke="none"/>
<polygon points="318.27,368.60 319.70,374.90 329.26,370.81 325.70,365.43 341.35,358.75 342.78,365.04 352.34,360.96 348.78,355.58 364.43,348.89 365.86,355.19 375.42,351.11 371.86,345.72 391.22,337.45 331.81,198.30 245.33,235.23 304.75,374.38" fill="#3a2f1f" fill-opacity="0.55" stroke="none"/>
<path d="M -0.15,187.78 L 21.67,150.00 L 21.67,42.88 L 88.21,42.88 L 88.21,42.86 L 100.60,42.38 L 113.44,40.87 L 126.13,38.36 L 138.58,34.87 L 150.72,30.42 L 156.57,27.73 L 156.51,27.58 L 203.03,7.71 L 204.80,7.03 L 205.69,6.69 L 207.46,6.01 L 208.34,5.67 L 210.11,4.99 L 210.99,4.65 L 212.76,3.97 L 213.64,3.62 L 215.41,2.94 L 216.29,2.60 L 218.06,1.92 L 218.94,1.57 L 220.71,0.89 L 222.48,0.20 L 223.50,-0.19 L 276.56,124.08 L 312.76,153.30 L 391.42,337.53 L 372.08,345.79 L 375.65,351.17 L 365.75,355.40 L 364.33,349.10 L 349.00,355.64 L 352.57,361.03 L 342.67,365.25 L 341.25,358.96 L 325.92,365.50 L 329.49,370.88 L 319.59,375.11 L 318.17,368.81 L 304.67,374.57 L 247.95,241.73 L 240.70,241.73 L 236.50,245.93 L 226.85,245.93 L 222.65,241.73 L 218.57,241.73 L 214.37,245.93 L 204.71,245.93 L 200.51,241.73 L 196.44,241.73 L 192.24,245.93 L 176.71,245.93 L 172.51,241.73 L 168.44,241.73 L 164.24,245.93 L 158.76,245.93 L 154.56,241.73 L 150.49,241.73 L 146.29,245.93 L 135.47,245.93 L 131.27,241.73 L 127.19,241.73 L 122.99,245.93 L 107.92,245.93 L 103.72,241.73 L -0.15,241.73 L -0.15,187.78 Z" fill="none" stroke="#ff0000" stroke-width="0.6"/>
<path d="M 21.04,235.28 L 21.04,228.83 L 29.14,228.83 L 29.14,235.28 L 21.04,235.28 Z" fill="none" stroke="#ff0000" stroke-width="0.6"/>
<path d="M 46.14,235.28 L 46.14,228.83 L 54.24,228.83 L 54.24,235.28 L 46.14,235.28 Z" fill="none" stroke="#ff0000" stroke-width="0.6"/>
<path d="M 71.23,235.28 L 71.23,228.83 L 79.33,228.83 L 79.33,235.28 L 71.23,235.28 Z" fill="none" stroke="#ff0000" stroke-width="0.6"/>
<line x1="249.11" y1="244.07" x2="156.70" y2="27.66" stroke="#00a650" stroke-width="1.6" stroke-opacity="0.8"/>
<line x1="94.03" y1="43.03" x2="94.03" y2="241.58" stroke="#00a650" stroke-width="1.6" stroke-opacity="0.8"/>
<line x1="331.81" y1="198.30" x2="239.49" y2="237.72" stroke="#00a650" stroke-width="1.6" stroke-opacity="0.8"/>
<line x1="249.11" y1="244.07" x2="156.70" y2="27.66" stroke="#0000ff" stroke-width="0.8" stroke-dasharray="2 1.5"/>
<line x1="94.03" y1="43.03" x2="94.03" y2="241.58" stroke="#0000ff" stroke-width="0.8" stroke-dasharray="2 1.5"/>
<line x1="331.81" y1="198.30" x2="239.49" y2="237.72" stroke="#0000ff" stroke-width="0.8" stroke-dasharray="2 1.5"/>
<text x="202.9" y="135.9" fill="#9ad" font-size="5" text-anchor="middle">90°</text>
<text x="94.0" y="142.3" fill="#9ad" font-size="5" text-anchor="middle">90°</text>
<text x="285.7" y="218.0" fill="#9ad" font-size="5" text-anchor="middle">113°</text>
</svg>