0
SECTION
2
ENTITIES
0
POLYLINE
8
CUT
66
1
70
1
0
VERTEX
8
CUT
10
-0.07698
20
160.19078
30
0.0
0
VERTEX
8
CUT
10
16.48820
20
119.51172
30
0.0
0
VERTEX
8
CUT
10
8.09464
20
56.79929
30
0.0
0
VERTEX
8
CUT
10
80.01643
20
47.17313
30
0.0
0
VERTEX
8
CUT
10
80.01280
20
47.15219
30
0.0
0
VERTEX
8
CUT
10
95.45436
20
43.86429
30
0.0
0
VERTEX
8
CUT
10
110.83077
20
39.21359
30
0.0
0
VERTEX
8
CUT
10
125.76327
20
33.29042
30
0.0
0
VERTEX
8
CUT
10
137.23862
20
27.58289
30
0.0
0
VERTEX
8
CUT
10
137.16458
20
27.40948
30
0.0
0
VERTEX
8
CUT
10
152.29212
20
20.95024
30
0.0
0
VERTEX
8
CUT
10
154.69814
20
20.04788
30
0.0
0
VERTEX
8
CUT
10
157.10211
20
19.14488
30
0.0
0
VERTEX
8
CUT
10
159.50561
20
18.24068
30
0.0
0
VERTEX
8
CUT
10
161.90866
20
17.33529
30
0.0
0
VERTEX
8
CUT
10
164.31127
20
16.42873
30
0.0
0
VERTEX
8
CUT
10
166.71343
20
15.52101
30
0.0
0
VERTEX
8
CUT
10
169.11517
20
14.61215
30
0.0
0
VERTEX
8
CUT
10
171.51648
20
13.70218
30
0.0
0
VERTEX
8
CUT
10
173.91737
20
12.79110
30
0.0
0
VERTEX
8
CUT
10
176.31784
20
11.87894
30
0.0
0
VERTEX
8
CUT
10
178.71791
20
10.96571
30
0.0
0
VERTEX
8
CUT
10
181.11758
20
10.05143
30
0.0
0
VERTEX
8
CUT
10
183.51686
20
9.13612
30
0.0
0
VERTEX
8
CUT
10
185.91575
20
8.21979
30
0.0
0
VERTEX
8
CUT
10
188.31426
20
7.30247
30
0.0
0
VERTEX
8
CUT
10
190.71240
20
6.38416
30
0.0
0
VERTEX
8
CUT
10
193.11018
20
5.46489
30
0.0
0
VERTEX
8
CUT
10
195.50759
20
4.54468
30
0.0
0
VERTEX
8
CUT
10
197.90465
20
3.62354
30
0.0
0
VERTEX
8
CUT
10
200.30136
20
2.70149
30
0.0
0
VERTEX
8
CUT
10
202.69774
20
1.77854
30
0.0
0
VERTEX
8
CUT
10
205.09378
20
0.85472
30
0.0
0
VERTEX
8
CUT
10
207.55705
20
-0.09604
30
0.0
0
VERTEX
8
CUT
10
242.41340
20
81.53762
30
0.0
0
VERTEX
8
CUT
10
278.60992
20
110.75616
30
0.0
0
VERTEX
8
CUT
10
341.57927
20
258.23054
30
0.0
0
VERTEX
8
CUT
10
316.37129
20
268.99385
30
0.0
0
VERTEX
8
CUT
10
318.13716
20
271.69217
30
0.0
0
VERTEX
8
CUT
10
305.83283
20
276.94588
30
0.0
0
VERTEX
8
CUT
10
305.10517
20
273.80426
30
0.0
0
VERTEX
8
CUT
10
285.59922
20
282.13292
30
0.0
0
VERTEX
8
CUT
10
287.36509
20
284.83124
30
0.0
0
VERTEX
8
CUT
10
275.06075
20
290.08495
30
0.0
0
VERTEX
8
CUT
10
274.33309
20
286.94334
30
0.0
0
VERTEX
8
CUT
10
252.04506
20
296.45989
30
0.0
0
VERTEX
8
CUT
10
211.52244
20
201.55581
30
0.0
0
VERTEX
8
CUT
10
200.74869
20
201.55581
30
0.0
0
VERTEX
8
CUT
10
196.54869
20
205.75581
30
0.0
0
VERTEX
8
CUT
10
186.95336
20
205.75581
30
0.0
0
VERTEX
8
CUT
10
182.75336
20
201.55581
30
0.0
0
VERTEX
8
CUT
10
178.61549
20
201.55581
30
0.0
0
VERTEX
8
CUT
10
174.41549
20
205.75581
30
0.0
0
VERTEX
8
CUT
10
164.82016
20
205.75581
30
0.0
0
VERTEX
8
CUT
10
160.62016
20
201.55581
30
0.0
0
VERTEX
8
CUT
10
156.48230
20
201.55581
30
0.0
0
VERTEX
8
CUT
10
152.28230
20
205.75581
30
0.0
0
VERTEX
8
CUT
10
136.82016
20
205.75581
30
0.0
0
VERTEX
8
CUT
10
132.62016
20
201.55581
30
0.0
0
VERTEX
8
CUT
10
128.48230
20
201.55581
30
0.0
0
VERTEX
8
CUT
10
124.28230
20
205.75581
30
0.0
0
VERTEX
8
CUT
10
118.87078
20
205.75581
30
0.0
0
VERTEX
8
CUT
10
114.67078
20
201.55581
30
0.0
0
VERTEX
8
CUT
10
100.39888
20
201.55581
30
0.0
0
VERTEX
8
CUT
10
100.39887
20
201.55567
30
0.0
0
VERTEX
8
CUT
10
7.13016
20
214.03890
30
0.0
0
VERTEX
8
CUT
10
-0.07698
20
160.19078
30
0.0
0
SEQEND
0
POLYLINE
8
CUT
66
1
70
1
0
VERTEX
8
CUT
10
33.54114
20
203.99649
30
0.0
0
VERTEX
8
CUT
10
45.48464
20
202.39796
30
0.0
0
VERTEX
8
CUT
10
45.91246
20
205.59446
30
0.0
0
VERTEX
8
CUT
10
33.96896
20
207.19299
30
0.0
0
VERTEX
8
CUT
10
33.54114
20
203.99649
30
0.0
0
SEQEND
0
POLYLINE
8
CUT
66
1
70
1
0
VERTEX
8
CUT
10
66.70518
20
199.55777
30
0.0
0
VERTEX
8
CUT
10
78.64868
20
197.95923
30
0.0
0
VERTEX
8
CUT
10
79.07650
20
201.15573
30
0.0
0
VERTEX
8
CUT
10
67.13300
20
202.75427
30
0.0
0
VERTEX
8
CUT
10
66.70518
20
199.55777
30
0.0
0
SEQEND
0
LINE
8
SCORE
10
212.10433
20
202.72759
30
0.0
11
211.31895
21
200.88825
31
0.0
0
LINE
8
SCORE
10
210.92627
20
199.96858
30
0.0
11
210.14090
21
198.12923
31
0.0
0
LINE
8
SCORE
10
209.74821
20
197.20956
30
0.0
11
208.96284
21
195.37021
31
0.0
0
LINE
8
SCORE
10
208.57015
20
194.45054
30
0.0
11
207.78478
21
192.61120
31
0.0
0
LINE
8
SCORE
10
207.39209
20
191.69152
30
0.0
11
206.60672
21
189.85218
31
0.0
0
LINE
8
SCORE
10
206.21403
20
188.93251
30
0.0
11
205.42866
21
187.09316
31
0.0
0
LINE
8
SCORE
10
205.03597
20
186.17349
30
0.0
11
204.25060
21
184.33414
31
0.0
0
LINE
8
SCORE
10
203.85791
20
183.41447
30
0.0
11
203.07254
21
181.57513
31
0.0
0
LINE
8
SCORE
10
202.67986
20
180.65545
30
0.0
11
201.89448
21
178.81611
31
0.0
0
LINE
8
SCORE
10
201.50180
20
177.89644
30
0.0
11
200.71642
21
176.05709
31
0.0
0
LINE
8
SCORE
10
200.32374
20
175.13742
30
0.0
11
199.53836
21
173.29807
31
0.0
0
LINE
8
SCORE
10
199.14568
20
172.37840
30
0.0
11
198.36031
21
170.53906
31
0.0
0
LINE
8
SCORE
10
197.96762
20
169.61938
30
0.0
11
197.18225
21
167.78004
31
0.0
0
LINE
8
SCORE
10
196.78956
20
166.86037
30
0.0
11
196.00419
21
165.02102
31
0.0
0
LINE
8
SCORE
10
195.61150
20
164.10135
30
0.0
11
194.82613
21
162.26201
31
0.0
0
LINE
8
SCORE
10
194.43344
20
161.34233
30
0.0
11
193.64807
21
159.50299
31
0.0
0
LINE
8
SCORE
10
193.25538
20
158.58332
30
0.0
11
192.47001
21
156.74397
31
0.0
0
LINE
8
SCORE
10
192.07732
20
155.82430
30
0.0
11
191.29195
21
153.98495
31
0.0
0
LINE
8
SCORE
10
190.89927
20
153.06528
30
0.0
11
190.11389
21
151.22594
31
0.0
0
LINE
8
SCORE
10
189.72121
20
150.30626
30
0.0
11
188.93583
21
148.46692
31
0.0
0
LINE
8
SCORE
10
188.54315
20
147.54725
30
0.0
11
187.75778
21
145.70790
31
0.0
0
LINE
8
SCORE
10
187.36509
20
144.78823
30
0.0
11
186.57972
21
142.94888
31
0.0
0
LINE
8
SCORE
10
186.18703
20
142.02921
30
0.0
11
185.40166
21
140.18987
31
0.0
0
LINE
8
SCORE
10
185.00897
20
139.27019
30
0.0
11
184.22360
21
137.43085
31
0.0
0
LINE
8
SCORE
10
183.83091
20
136.51118
30
0.0
11
183.04554
21
134.67183
31
0.0
0
LINE
8
SCORE
10
182.65285
20
133.75216
30
0.0
11
181.86748
21
131.91281
31
0.0
0
LINE
8
SCORE
10
181.47479
20
130.99314
30
0.0
11
180.68942
21
129.15380
31
0.0
0
LINE
8
SCORE
10
180.29674
20
128.23412
30
0.0
11
179.51136
21
126.39478
31
0.0
0
LINE
8
SCORE
10
179.11868
20
125.47511
30
0.0
11
178.33330
21
123.63576
31
0.0
0
LINE
8
SCORE
10
177.94062
20
122.71609
30
0.0
11
177.15524
21
120.87674
31
0.0
0
LINE
8
SCORE
10
176.76256
20
119.95707
30
0.0
11
175.97719
21
118.11773
31
0.0
0
LINE
8
SCORE
10
175.58450
20
117.19805
30
0.0
11
174.79913
21
115.35871
31
0.0
0
LINE
8
SCORE
10
174.40644
20
114.43904
30
0.0
11
173.62107
21
112.59969
31
0.0
0
LINE
8
SCORE
10
173.22838
20
111.68002
30
0.0
11
172.44301
21
109.84067
31
0.0
0
LINE
8
SCORE
10
172.05032
20
108.92100
30
0.0
11
171.26495
21
107.08166
31
0.0
0
LINE
8
SCORE
10
170.87226
20
106.16198
30
0.0
11
170.08689
21
104.32264
31
0.0
0
LINE
8
SCORE
10
169.69420
20
103.40297
30
0.0
11
168.90883
21
101.56362
31
0.0
0
LINE
8
SCORE
10
168.51615
20
100.64395
30
0.0
11
167.73077
21
98.80460
31
0.0
0
LINE
8
SCORE
10
167.33809
20
97.88493
30
0.0
11
166.55271
21
96.04559
31
0.0
0
LINE
8
SCORE
10
166.16003
20
95.12591
30
0.0
11
165.37466
21
93.28657
31
0.0
0
LINE
8
SCORE
10
164.98197
20
92.36690
30
0.0
11
164.19660
21
90.52755
31
0.0
0
LINE
8
SCORE
10
163.80391
20
89.60788
30
0.0
11
163.01854
21
87.76853
31
0.0
0
LINE
8
SCORE
10
162.62585
20
86.84886
30
0.0
11
161.84048
21
85.00952
31
0.0
0
LINE
8
SCORE
10
161.44779
20
84.08985
30
0.0
11
160.66242
21
82.25050
31
0.0
0
LINE
8
SCORE
10
160.26973
20
81.33083
30
0.0
11
159.48436
21
79.49148
31
0.0
0
LINE
8
SCORE
10
159.09167
20
78.57181
30
0.0
11
158.30630
21
76.73247
31
0.0
0
LINE
8
SCORE
10
157.91362
20
75.81279
30
0.0
11
157.12824
21
73.97345
31
0.0
0
LINE
8
SCORE
10
156.73556
20
73.05378
30
0.0
11
155.95018
21
71.21443
31
0.0
0
LINE
8
SCORE
10
155.55750
20
70.29476
30
0.0
11
154.77212
21
68.45541
31
0.0
0
LINE
8
SCORE
10
154.37944
20
67.53574
30
0.0
11
153.59407
21
65.69640
31
0.0
0
LINE
8
SCORE
10
153.20138
20
64.77672
30
0.0
11
152.41601
21
62.93738
31
0.0
0
LINE
8
SCORE
10
152.02332
20
62.01771
30
0.0
11
151.23795
21
60.17836
31
0.0
0
LINE
8
SCORE
10
150.84526
20
59.25869
30
0.0
11
150.05989
21
57.41934
31
0.0
0
LINE
8
SCORE
10
149.66720
20
56.49967
30
0.0
11
148.88183
21
54.66033
31
0.0
0
LINE
8
SCORE
10
148.48914
20
53.74065
30
0.0
11
147.70377
21
51.90131
31
0.0
0
LINE
8
SCORE
10
147.31108
20
50.98164
30
0.0
11
146.52571
21
49.14229
31
0.0
0
LINE
8
SCORE
10
146.13303
20
48.22262
30
0.0
11
145.34765
21
46.38327
31
0.0
0
LINE
8
SCORE
10
144.95497
20
45.46360
30
0.0
11
144.16959
21
43.62426
31
0.0
0
LINE
8
SCORE
10
143.77691
20
42.70458
30
0.0
11
142.99153
21
40.86524
31
0.0
0
LINE
8
SCORE
10
142.59885
20
39.94557
30
0.0
11
141.81348
21
38.10622
31
0.0
0
LINE
8
SCORE
10
141.42079
20
37.18655
30
0.0
11
140.63542
21
35.34720
31
0.0
0
LINE
8
SCORE
10
140.24273
20
34.42753
30
0.0
11
139.45736
21
32.58819
31
0.0
0
LINE
8
SCORE
10
139.06467
20
31.66851
30
0.0
11
138.27930
21
29.82917
31
0.0
0
LINE
8
SCORE
10
137.88661
20
28.90950
30
0.0
11
137.26300
21
27.44900
31
0.0
0
LINE
8
SCORE
10
103.53974
20
201.05962
30
0.0
11
103.27442
21
199.07730
31
0.0
0
LINE
8
SCORE
10
103.14176
20
198.08614
30
0.0
11
102.87644
21
196.10382
31
0.0
0
LINE
8
SCORE
10
102.74378
20
195.11265
30
0.0
11
102.47847
21
193.13033
31
0.0
0
LINE
8
SCORE
10
102.34581
20
192.13917
30
0.0
11
102.08049
21
190.15684
31
0.0
0
LINE
8
SCORE
10
101.94783
20
189.16568
30
0.0
11
101.68251
21
187.18336
31
0.0
0
LINE
8
SCORE
10
101.54985
20
186.19220
30
0.0
11
101.28453
21
184.20987
31
0.0
0
LINE
8
SCORE
10
101.15187
20
183.21871
30
0.0
11
100.88656
21
181.23639
31
0.0
0
LINE
8
SCORE
10
100.75390
20
180.24523
30
0.0
11
100.48858
21
178.26290
31
0.0
0
LINE
8
SCORE
10
100.35592
20
177.27174
30
0.0
11
100.09060
21
175.28942
31
0.0
0
LINE
8
SCORE
10
99.95794
20
174.29826
30
0.0
11
99.69262
21
172.31593
31
0.0
0
LINE
8
SCORE
10
99.55997
20
171.32477
30
0.0
11
99.29465
21
169.34245
31
0.0
0
LINE
8
SCORE
10
99.16199
20
168.35129
30
0.0
11
98.89667
21
166.36896
31
0.0
0
LINE
8
SCORE
10
98.76401
20
165.37780
30
0.0
11
98.49869
21
163.39548
31
0.0
0
LINE
8
SCORE
10
98.36603
20
162.40432
30
0.0
11
98.10072
21
160.42199
31
0.0
0
LINE
8
SCORE
10
97.96806
20
159.43083
30
0.0
11
97.70274
21
157.44851
31
0.0
0
LINE
8
SCORE
10
97.57008
20
156.45735
30
0.0
11
97.30476
21
154.47502
31
0.0
0
LINE
8
SCORE
10
97.17210
20
153.48386
30
0.0
11
96.90678
21
151.50154
31
0.0
0
LINE
8
SCORE
10
96.77412
20
150.51038
30
0.0
11
96.50881
21
148.52805
31
0.0
0
LINE
8
SCORE
10
96.37615
20
147.53689
30
0.0
11
96.11083
21
145.55457
31
0.0
0
LINE
8
SCORE
10
95.97817
20
144.56341
30
0.0
11
95.71285
21
142.58108
31
0.0
0
LINE
8
SCORE
10
95.58019
20
141.58992
30
0.0
11
95.31487
21
139.60760
31
0.0
0
LINE
8
SCORE
10
95.18221
20
138.61644
30
0.0
11
94.91690
21
136.63411
31
0.0
0
LINE
8
SCORE
10
94.78424
20
135.64295
30
0.0
11
94.51892
21
133.66063
31
0.0
0
LINE
8
SCORE
10
94.38626
20
132.66947
30
0.0
11
94.12094
21
130.68714
31
0.0
0
LINE
8
SCORE
10
93.98828
20
129.69598
30
0.0
11
93.72296
21
127.71366
31
0.0
0
LINE
8
SCORE
10
93.59031
20
126.72249
30
0.0
11
93.32499
21
124.74017
31
0.0
0
LINE
8
SCORE
10
93.19233
20
123.74901
30
0.0
11
92.92701
21
121.76669
31
0.0
0
LINE
8
SCORE
10
92.79435
20
120.77552
30
0.0
11
92.52903
21
118.79320
31
0.0
0
LINE
8
SCORE
10
92.39637
20
117.80204
30
0.0
11
92.13106
21
115.81972
31
0.0
0
LINE
8
SCORE
10
91.99840
20
114.82855
30
0.0
11
91.73308
21
112.84623
31
0.0
0
LINE
8
SCORE
10
91.60042
20
111.85507
30
0.0
11
91.33510
21
109.87275
31
0.0
0
LINE
8
SCORE
10
91.20244
20
108.88158
30
0.0
11
90.93712
21
106.89926
31
0.0
0
LINE
8
SCORE
10
90.80446
20
105.90810
30
0.0
11
90.53915
21
103.92578
31
0.0
0
LINE
8
SCORE
10
90.40649
20
102.93461
30
0.0
11
90.14117
21
100.95229
31
0.0
0
LINE
8
SCORE
10
90.00851
20
99.96113
30
0.0
11
89.74319
21
97.97880
31
0.0
0
LINE
8
SCORE
10
89.61053
20
96.98764
30
0.0
11
89.34521
21
95.00532
31
0.0
0
LINE
8
SCORE
10
89.21255
20
94.01416
30
0.0
11
88.94724
21
92.03183
31
0.0
0
LINE
8
SCORE
10
88.81458
20
91.04067
30
0.0
11
88.54926
21
89.05835
31
0.0
0
LINE
8
SCORE
10
88.41660
20
88.06719
30
0.0
11
88.15128
21
86.08486
31
0.0
0
LINE
8
SCORE
10
88.01862
20
85.09370
30
0.0
11
87.75330
21
83.11138
31
0.0
0
LINE
8
SCORE
10
87.62065
20
82.12022
30
0.0
11
87.35533
21
80.13789
31
0.0
0
LINE
8
SCORE
10
87.22267
20
79.14673
30
0.0
11
86.95735
21
77.16441
31
0.0
0
LINE
8
SCORE
10
86.82469
20
76.17325
30
0.0
11
86.55937
21
74.19092
31
0.0
0
LINE
8
SCORE
10
86.42671
20
73.19976
30
0.0
11
86.16140
21
71.21744
31
0.0
0
LINE
8
SCORE
10
86.02874
20
70.22628
30
0.0
11
85.76342
21
68.24395
31
0.0
0
LINE
8
SCORE
10
85.63076
20
67.25279
30
0.0
11
85.36544
21
65.27047
31
0.0
0
LINE
8
SCORE
10
85.23278
20
64.27931
30
0.0
11
84.96746
21
62.29698
31
0.0
0
LINE
8
SCORE
10
84.83480
20
61.30582
30
0.0
11
84.56949
21
59.32350
31
0.0
0
LINE
8
SCORE
10
84.43683
20
58.33234
30
0.0
11
84.17151
21
56.35001
31
0.0
0
LINE
8
SCORE
10
84.03885
20
55.35885
30
0.0
11
83.77353
21
53.37653
31
0.0
0
LINE
8
SCORE
10
83.64087
20
52.38537
30
0.0
11
83.37555
21
50.40304
31
0.0
0
LINE
8
SCORE
10
83.24290
20
49.41188
30
0.0
11
82.97758
21
47.42956
31
0.0
0
LINE
8
SCORE
10
299.61240
20
160.13502
30
0.0
11
297.77306
21
160.92039
31
0.0
0
LINE
8
SCORE
10
296.85339
20
161.31308
30
0.0
11
295.01404
21
162.09845
31
0.0
0
LINE
8
SCORE
10
294.09437
20
162.49114
30
0.0
11
292.25502
21
163.27651
31
0.0
0
LINE
8
SCORE
10
291.33535
20
163.66920
30
0.0
11
289.49601
21
164.45457
31
0.0
0
LINE
8
SCORE
10
288.57633
20
164.84726
30
0.0
11
286.73699
21
165.63263
31
0.0
0
LINE
8
SCORE
10
285.81732
20
166.02531
30
0.0
11
283.97797
21
166.81069
31
0.0
0
LINE
8
SCORE
10
283.05830
20
167.20337
30
0.0
11
281.21896
21
167.98875
31
0.0
0
LINE
8
SCORE
10
280.29928
20
168.38143
30
0.0
11
278.45994
21
169.16681
31
0.0
0
LINE
8
SCORE
10
277.54027
20
169.55949
30
0.0
11
275.70092
21
170.34486
31
0.0
0
LINE
8
SCORE
10
274.78125
20
170.73755
30
0.0
11
272.94190
21
171.52292
31
0.0
0
LINE
8
SCORE
10
272.02223
20
171.91561
30
0.0
11
270.18289
21
172.70098
31
0.0
0
LINE
8
SCORE
10
269.26321
20
173.09367
30
0.0
11
267.42387
21
173.87904
31
0.0
0
LINE
8
SCORE
10
266.50420
20
174.27173
30
0.0
11
264.66485
21
175.05710
31
0.0
0
LINE
8
SCORE
10
263.74518
20
175.44979
30
0.0
11
261.90583
21
176.23516
31
0.0
0
LINE
8
SCORE
10
260.98616
20
176.62785
30
0.0
11
259.14682
21
177.41322
31
0.0
0
LINE
8
SCORE
10
258.22714
20
177.80590
30
0.0
11
256.38780
21
178.59128
31
0.0
0
LINE
8
SCORE
10
255.46813
20
178.98396
30
0.0
11
253.62878
21
179.76934
31
0.0
0
LINE
8
SCORE
10
252.70911
20
180.16202
30
0.0
11
250.86976
21
180.94739
31
0.0
0
LINE
8
SCORE
10
249.95009
20
181.34008
30
0.0
11
248.11075
21
182.12545
31
0.0
0
LINE
8
SCORE
10
247.19107
20
182.51814
30
0.0
11
245.35173
21
183.30351
31
0.0
0
LINE
8
SCORE
10
244.43206
20
183.69620
30
0.0
11
242.59271
21
184.48157
31
0.0
0
LINE
8
SCORE
10
241.67304
20
184.87426
30
0.0
11
239.83369
21
185.65963
31
0.0
0
LINE
8
SCORE
10
238.91402
20
186.05232
30
0.0
11
237.07468
21
186.83769
31
0.0
0
LINE
8
SCORE
10
236.15500
20
187.23038
30
0.0
11
234.31566
21
188.01575
31
0.0
0
LINE
8
SCORE
10
233.39599
20
188.40843
30
0.0
11
231.55664
21
189.19381
31
0.0
0
LINE
8
SCORE
10
230.63697
20
189.58649
30
0.0
11
228.79762
21
190.37187
31
0.0
0
LINE
8
SCORE
10
227.87795
20
190.76455
30
0.0
11
226.03861
21
191.54993
31
0.0
0
LINE
8
SCORE
10
225.11893
20
191.94261
30
0.0
11
223.27959
21
192.72798
31
0.0
0
LINE
8
SCORE
10
222.35992
20
193.12067
30
0.0
11
220.52057
21
193.90604
31
0.0
0
LINE
8
SCORE
10
219.60090
20
194.29873
30
0.0
11
217.76155
21
195.08410
31
0.0
0
LINE
8
SCORE
10
216.84188
20
195.47679
30
0.0
11
215.00254
21
196.26216
31
0.0
0
LINE
8
SCORE
10
214.08286
20
196.65485
30
0.0
11
212.24352
21
197.44022
31
0.0
0
LINE
8
SCORE
10
211.32385
20
197.83291
30
0.0
11
209.48450
21
198.61828
31
0.0
0
LINE
8
SCORE
10
208.56483
20
199.01097
30
0.0
11
207.29633
21
199.55259
31
0.0
0
LINE
8
SCORE2
10
212.10433
20
202.72759
30
0.0
11
137.26300
21
27.44900
31
0.0
0
LINE
8
SCORE2
10
103.53974
20
201.05962
30
0.0
11
82.90170
21
46.86262
31
0.0
0
LINE
8
SCORE2
10
299.61240
20
160.13502
30
0.0
11
207.29633
21
199.55259
31
0.0
0
ENDSEC
0
EOF
