0
SECTION
2
ENTITIES
0
POLYLINE
8
CUT
66
1
70
1
0
VERTEX
8
CUT
10
-0.00000
20
8.04549
30
0.0
0
VERTEX
8
CUT
10
0.82826
20
6.01154
30
0.0
0
VERTEX
8
CUT
10
0.40895
20
2.87864
30
0.0
0
VERTEX
8
CUT
10
4.17854
20
2.37411
30
0.0
0
VERTEX
8
CUT
10
4.17828
20
2.37216
30
0.0
0
VERTEX
8
CUT
10
4.07976
20
2.38535
30
0.0
0
VERTEX
8
CUT
10
4.84056
20
2.22336
30
0.0
0
VERTEX
8
CUT
10
5.60968
20
1.99073
30
0.0
0
VERTEX
8
CUT
10
6.35660
20
1.69446
30
0.0
0
VERTEX
8
CUT
10
6.96394
20
1.39238
30
0.0
0
VERTEX
8
CUT
10
6.96109
20
1.38570
30
0.0
0
VERTEX
8
CUT
10
7.74498
20
1.05099
30
0.0
0
VERTEX
8
CUT
10
7.86521
20
1.00590
30
0.0
0
VERTEX
8
CUT
10
7.98541
20
0.96075
30
0.0
0
VERTEX
8
CUT
10
8.10558
20
0.91554
30
0.0
0
VERTEX
8
CUT
10
8.22574
20
0.87027
30
0.0
0
VERTEX
8
CUT
10
8.34587
20
0.82494
30
0.0
0
VERTEX
8
CUT
10
8.46598
20
0.77956
30
0.0
0
VERTEX
8
CUT
10
8.58607
20
0.73411
30
0.0
0
VERTEX
8
CUT
10
8.70613
20
0.68862
30
0.0
0
VERTEX
8
CUT
10
8.82618
20
0.64306
30
0.0
0
VERTEX
8
CUT
10
8.94621
20
0.59745
30
0.0
0
VERTEX
8
CUT
10
9.06621
20
0.55179
30
0.0
0
VERTEX
8
CUT
10
9.18620
20
0.50608
30
0.0
0
VERTEX
8
CUT
10
9.30616
20
0.46031
30
0.0
0
VERTEX
8
CUT
10
9.42611
20
0.41449
30
0.0
0
VERTEX
8
CUT
10
9.54603
20
0.36863
30
0.0
0
VERTEX
8
CUT
10
9.66594
20
0.32271
30
0.0
0
VERTEX
8
CUT
10
9.78583
20
0.27675
30
0.0
0
VERTEX
8
CUT
10
9.90570
20
0.23073
30
0.0
0
VERTEX
8
CUT
10
10.02556
20
0.18468
30
0.0
0
VERTEX
8
CUT
10
10.14540
20
0.13857
30
0.0
0
VERTEX
8
CUT
10
10.26522
20
0.09243
30
0.0
0
VERTEX
8
CUT
10
10.38502
20
0.04623
30
0.0
0
VERTEX
8
CUT
10
10.50481
20
0.00000
30
0.0
0
VERTEX
8
CUT
10
12.24657
20
4.07921
30
0.0
0
VERTEX
8
CUT
10
14.05640
20
5.54014
30
0.0
0
VERTEX
8
CUT
10
17.25653
20
13.03487
30
0.0
0
VERTEX
8
CUT
10
15.93679
20
13.59838
30
0.0
0
VERTEX
8
CUT
10
16.01142
20
13.70243
30
0.0
0
VERTEX
8
CUT
10
15.52261
20
13.91114
30
0.0
0
VERTEX
8
CUT
10
15.49908
20
13.78527
30
0.0
0
VERTEX
8
CUT
10
14.39818
20
14.25533
30
0.0
0
VERTEX
8
CUT
10
14.47281
20
14.35938
30
0.0
0
VERTEX
8
CUT
10
13.98401
20
14.56809
30
0.0
0
VERTEX
8
CUT
10
13.96047
20
14.44223
30
0.0
0
VERTEX
8
CUT
10
12.78672
20
14.94340
30
0.0
0
VERTEX
8
CUT
10
10.65987
20
9.96229
30
0.0
0
VERTEX
8
CUT
10
10.62883
20
9.97555
30
0.0
0
VERTEX
8
CUT
10
10.68220
20
10.10055
30
0.0
0
VERTEX
8
CUT
10
10.10278
20
10.10055
30
0.0
0
VERTEX
8
CUT
10
9.89278
20
10.31055
30
0.0
0
VERTEX
8
CUT
10
9.41612
20
10.31055
30
0.0
0
VERTEX
8
CUT
10
9.20612
20
10.10055
30
0.0
0
VERTEX
8
CUT
10
8.99612
20
10.10055
30
0.0
0
VERTEX
8
CUT
10
8.78612
20
10.31055
30
0.0
0
VERTEX
8
CUT
10
8.30946
20
10.31055
30
0.0
0
VERTEX
8
CUT
10
8.09946
20
10.10055
30
0.0
0
VERTEX
8
CUT
10
7.88946
20
10.10055
30
0.0
0
VERTEX
8
CUT
10
7.67946
20
10.31055
30
0.0
0
VERTEX
8
CUT
10
6.90946
20
10.31055
30
0.0
0
VERTEX
8
CUT
10
6.69946
20
10.10055
30
0.0
0
VERTEX
8
CUT
10
6.48946
20
10.10055
30
0.0
0
VERTEX
8
CUT
10
6.27946
20
10.31055
30
0.0
0
VERTEX
8
CUT
10
6.01200
20
10.31055
30
0.0
0
VERTEX
8
CUT
10
5.80200
20
10.10055
30
0.0
0
VERTEX
8
CUT
10
5.10138
20
10.10055
30
0.0
0
VERTEX
8
CUT
10
5.21070
20
10.08592
30
0.0
0
VERTEX
8
CUT
10
5.21044
20
10.08396
30
0.0
0
VERTEX
8
CUT
10
0.35973
20
10.73319
30
0.0
0
VERTEX
8
CUT
10
-0.00000
20
8.04549
30
0.0
0
SEQEND
0
POLYLINE
8
CUT
66
1
70
1
0
VERTEX
8
CUT
10
1.74621
20
10.29142
30
0.0
0
VERTEX
8
CUT
10
2.22228
20
10.22770
30
0.0
0
VERTEX
8
CUT
10
2.23990
20
10.35940
30
0.0
0
VERTEX
8
CUT
10
1.76383
20
10.42312
30
0.0
0
VERTEX
8
CUT
10
1.74621
20
10.29142
30
0.0
0
SEQEND
0
POLYLINE
8
CUT
66
1
70
1
0
VERTEX
8
CUT
10
3.40441
20
10.06948
30
0.0
0
VERTEX
8
CUT
10
3.88048
20
10.00577
30
0.0
0
VERTEX
8
CUT
10
3.89811
20
10.13747
30
0.0
0
VERTEX
8
CUT
10
3.42204
20
10.20118
30
0.0
0
VERTEX
8
CUT
10
3.40441
20
10.06948
30
0.0
0
SEQEND
0
LINE
8
SCORE
10
10.62883
20
9.97555
30
0.0
11
10.55153
21
9.79451
31
0.0
0
LINE
8
SCORE
10
10.47423
20
9.61347
30
0.0
11
10.39693
21
9.43243
31
0.0
0
LINE
8
SCORE
10
10.31962
20
9.25140
30
0.0
11
10.24232
21
9.07036
31
0.0
0
LINE
8
SCORE
10
10.16502
20
8.88932
30
0.0
11
10.08772
21
8.70828
31
0.0
0
LINE
8
SCORE
10
10.01042
20
8.52724
30
0.0
11
9.93312
21
8.34621
31
0.0
0
LINE
8
SCORE
10
9.85582
20
8.16517
30
0.0
11
9.77852
21
7.98413
31
0.0
0
LINE
8
SCORE
10
9.70122
20
7.80309
30
0.0
11
9.62392
21
7.62205
31
0.0
0
LINE
8
SCORE
10
9.54662
20
7.44102
30
0.0
11
9.46932
21
7.25998
31
0.0
0
LINE
8
SCORE
10
9.39202
20
7.07894
30
0.0
11
9.31472
21
6.89790
31
0.0
0
LINE
8
SCORE
10
9.23742
20
6.71687
30
0.0
11
9.16012
21
6.53583
31
0.0
0
LINE
8
SCORE
10
9.08282
20
6.35479
30
0.0
11
9.00552
21
6.17375
31
0.0
0
LINE
8
SCORE
10
8.92822
20
5.99271
30
0.0
11
8.85092
21
5.81168
31
0.0
0
LINE
8
SCORE
10
8.77362
20
5.63064
30
0.0
11
8.69632
21
5.44960
31
0.0
0
LINE
8
SCORE
10
8.61901
20
5.26856
30
0.0
11
8.54171
21
5.08752
31
0.0
0
LINE
8
SCORE
10
8.46441
20
4.90649
30
0.0
11
8.38711
21
4.72545
31
0.0
0
LINE
8
SCORE
10
8.30981
20
4.54441
30
0.0
11
8.23251
21
4.36337
31
0.0
0
LINE
8
SCORE
10
8.15521
20
4.18233
30
0.0
11
8.07791
21
4.00130
31
0.0
0
LINE
8
SCORE
10
8.00061
20
3.82026
30
0.0
11
7.92331
21
3.63922
31
0.0
0
LINE
8
SCORE
10
7.84601
20
3.45818
30
0.0
11
7.76871
21
3.27715
31
0.0
0
LINE
8
SCORE
10
7.69141
20
3.09611
30
0.0
11
7.61411
21
2.91507
31
0.0
0
LINE
8
SCORE
10
7.53681
20
2.73403
30
0.0
11
7.45951
21
2.55299
31
0.0
0
LINE
8
SCORE
10
7.38221
20
2.37196
30
0.0
11
7.30491
21
2.19092
31
0.0
0
LINE
8
SCORE
10
7.22761
20
2.00988
30
0.0
11
7.15031
21
1.82884
31
0.0
0
LINE
8
SCORE
10
7.07301
20
1.64780
30
0.0
11
6.99570
21
1.46677
31
0.0
0
LINE
8
SCORE
10
5.21044
20
10.08396
30
0.0
11
5.18432
21
9.88885
31
0.0
0
LINE
8
SCORE
10
5.15821
20
9.69374
30
0.0
11
5.13210
21
9.49863
31
0.0
0
LINE
8
SCORE
10
5.10598
20
9.30352
30
0.0
11
5.07987
21
9.10841
31
0.0
0
LINE
8
SCORE
10
5.05375
20
8.91330
30
0.0
11
5.02764
21
8.71819
31
0.0
0
LINE
8
SCORE
10
5.00153
20
8.52308
30
0.0
11
4.97541
21
8.32797
31
0.0
0
LINE
8
SCORE
10
4.94930
20
8.13286
30
0.0
11
4.92318
21
7.93775
31
0.0
0
LINE
8
SCORE
10
4.89707
20
7.74264
30
0.0
11
4.87096
21
7.54753
31
0.0
0
LINE
8
SCORE
10
4.84484
20
7.35242
30
0.0
11
4.81873
21
7.15731
31
0.0
0
LINE
8
SCORE
10
4.79261
20
6.96220
30
0.0
11
4.76650
21
6.76708
31
0.0
0
LINE
8
SCORE
10
4.74039
20
6.57197
30
0.0
11
4.71427
21
6.37686
31
0.0
0
LINE
8
SCORE
10
4.68816
20
6.18175
30
0.0
11
4.66204
21
5.98664
31
0.0
0
LINE
8
SCORE
10
4.63593
20
5.79153
30
0.0
11
4.60982
21
5.59642
31
0.0
0
LINE
8
SCORE
10
4.58370
20
5.40131
30
0.0
11
4.55759
21
5.20620
31
0.0
0
LINE
8
SCORE
10
4.53147
20
5.01109
30
0.0
11
4.50536
21
4.81598
31
0.0
0
LINE
8
SCORE
10
4.47925
20
4.62087
30
0.0
11
4.45313
21
4.42576
31
0.0
0
LINE
8
SCORE
10
4.42702
20
4.23065
30
0.0
11
4.40090
21
4.03554
31
0.0
0
LINE
8
SCORE
10
4.37479
20
3.84043
30
0.0
11
4.34868
21
3.64532
31
0.0
0
LINE
8
SCORE
10
4.32256
20
3.45021
30
0.0
11
4.29645
21
3.25509
31
0.0
0
LINE
8
SCORE
10
4.27033
20
3.05998
30
0.0
11
4.24422
21
2.86487
31
0.0
0
LINE
8
SCORE
10
4.21811
20
2.66976
30
0.0
11
4.19199
21
2.47465
31
0.0
0
LINE
8
SCORE
10
15.12967
20
8.05375
30
0.0
11
14.94863
21
8.13105
31
0.0
0
LINE
8
SCORE
10
14.76760
20
8.20836
30
0.0
11
14.58656
21
8.28566
31
0.0
0
LINE
8
SCORE
10
14.40552
20
8.36296
30
0.0
11
14.22448
21
8.44026
31
0.0
0
LINE
8
SCORE
10
14.04344
20
8.51756
30
0.0
11
13.86241
21
8.59486
31
0.0
0
LINE
8
SCORE
10
13.68137
20
8.67216
30
0.0
11
13.50033
21
8.74946
31
0.0
0
LINE
8
SCORE
10
13.31929
20
8.82676
30
0.0
11
13.13825
21
8.90406
31
0.0
0
LINE
8
SCORE
10
12.95722
20
8.98136
30
0.0
11
12.77618
21
9.05866
31
0.0
0
LINE
8
SCORE
10
12.59514
20
9.13596
30
0.0
11
12.41410
21
9.21326
31
0.0
0
LINE
8
SCORE
10
12.23306
20
9.29056
30
0.0
11
12.05203
21
9.36786
31
0.0
0
LINE
8
SCORE
10
11.87099
20
9.44516
30
0.0
11
11.68995
21
9.52246
31
0.0
0
LINE
8
SCORE
10
11.50891
20
9.59976
30
0.0
11
11.32788
21
9.67706
31
0.0
0
LINE
8
SCORE
10
11.14684
20
9.75436
30
0.0
11
10.96580
21
9.83166
31
0.0
0
LINE
8
SCORE
10
10.78476
20
9.90897
30
0.0
11
10.65987
21
9.96229
31
0.0
0
LINE
8
SCORE2
10
10.62883
20
9.97555
30
0.0
11
6.96394
21
1.39238
31
0.0
0
LINE
8
SCORE2
10
5.21044
20
10.08396
30
0.0
11
4.17854
21
2.37411
31
0.0
0
LINE
8
SCORE2
10
15.12967
20
8.05375
30
0.0
11
10.65987
21
9.96229
31
0.0
0
ENDSEC
0
EOF
