0
SECTION
2
ENTITIES
0
POLYLINE
8
CUT
66
1
70
1
0
VERTEX
8
CUT
10
0.00000
20
8.13784
30
0.0
0
VERTEX
8
CUT
10
1.10918
20
5.54014
30
0.0
0
VERTEX
8
CUT
10
2.91901
20
4.07921
30
0.0
0
VERTEX
8
CUT
10
4.66077
20
-0.00000
30
0.0
0
VERTEX
8
CUT
10
4.78055
20
0.04623
30
0.0
0
VERTEX
8
CUT
10
4.90036
20
0.09243
30
0.0
0
VERTEX
8
CUT
10
5.02018
20
0.13857
30
0.0
0
VERTEX
8
CUT
10
5.14001
20
0.18468
30
0.0
0
VERTEX
8
CUT
10
5.25987
20
0.23073
30
0.0
0
VERTEX
8
CUT
10
5.37974
20
0.27675
30
0.0
0
VERTEX
8
CUT
10
5.49963
20
0.32271
30
0.0
0
VERTEX
8
CUT
10
5.61954
20
0.36863
30
0.0
0
VERTEX
8
CUT
10
5.73947
20
0.41449
30
0.0
0
VERTEX
8
CUT
10
5.85941
20
0.46031
30
0.0
0
VERTEX
8
CUT
10
5.97938
20
0.50608
30
0.0
0
VERTEX
8
CUT
10
6.09936
20
0.55179
30
0.0
0
VERTEX
8
CUT
10
6.21937
20
0.59745
30
0.0
0
VERTEX
8
CUT
10
6.33939
20
0.64306
30
0.0
0
VERTEX
8
CUT
10
6.45944
20
0.68862
30
0.0
0
VERTEX
8
CUT
10
6.57951
20
0.73411
30
0.0
0
VERTEX
8
CUT
10
6.69960
20
0.77956
30
0.0
0
VERTEX
8
CUT
10
6.81971
20
0.82494
30
0.0
0
VERTEX
8
CUT
10
6.93984
20
0.87027
30
0.0
0
VERTEX
8
CUT
10
7.05999
20
0.91554
30
0.0
0
VERTEX
8
CUT
10
7.18017
20
0.96075
30
0.0
0
VERTEX
8
CUT
10
7.30037
20
1.00590
30
0.0
0
VERTEX
8
CUT
10
7.42059
20
1.05099
30
0.0
0
VERTEX
8
CUT
10
8.20448
20
1.38570
30
0.0
0
VERTEX
8
CUT
10
8.20163
20
1.39238
30
0.0
0
VERTEX
8
CUT
10
8.80898
20
1.69446
30
0.0
0
VERTEX
8
CUT
10
9.55590
20
1.99073
30
0.0
0
VERTEX
8
CUT
10
10.32502
20
2.22336
30
0.0
0
VERTEX
8
CUT
10
11.08582
20
2.38535
30
0.0
0
VERTEX
8
CUT
10
10.98730
20
2.37216
30
0.0
0
VERTEX
8
CUT
10
10.98704
20
2.37411
30
0.0
0
VERTEX
8
CUT
10
14.75663
20
2.87864
30
0.0
0
VERTEX
8
CUT
10
14.33731
20
6.01154
30
0.0
0
VERTEX
8
CUT
10
15.16557
20
8.04549
30
0.0
0
VERTEX
8
CUT
10
14.81789
20
10.64319
30
0.0
0
VERTEX
8
CUT
10
9.96718
20
9.99396
30
0.0
0
VERTEX
8
CUT
10
9.96692
20
9.99592
30
0.0
0
VERTEX
8
CUT
10
10.07624
20
10.01055
30
0.0
0
VERTEX
8
CUT
10
4.52180
20
10.01055
30
0.0
0
VERTEX
8
CUT
10
4.50084
20
10.05963
30
0.0
0
VERTEX
8
CUT
10
0.00000
20
8.13784
30
0.0
0
SEQEND
0
LINE
8
SCORE
10
9.96718
20
9.99396
30
0.0
11
9.99330
21
9.79885
31
0.0
0
LINE
8
SCORE
10
10.01941
20
9.60374
30
0.0
11
10.04552
21
9.40863
31
0.0
0
LINE
8
SCORE
10
10.07164
20
9.21352
30
0.0
11
10.09775
21
9.01841
31
0.0
0
LINE
8
SCORE
10
10.12387
20
8.82330
30
0.0
11
10.14998
21
8.62819
31
0.0
0
LINE
8
SCORE
10
10.17609
20
8.43308
30
0.0
11
10.20221
21
8.23797
31
0.0
0
LINE
8
SCORE
10
10.22832
20
8.04286
30
0.0
11
10.25444
21
7.84775
31
0.0
0
LINE
8
SCORE
10
10.28055
20
7.65264
30
0.0
11
10.30666
21
7.45753
31
0.0
0
LINE
8
SCORE
10
10.33278
20
7.26242
30
0.0
11
10.35889
21
7.06731
31
0.0
0
LINE
8
SCORE
10
10.38501
20
6.87220
30
0.0
11
10.41112
21
6.67708
31
0.0
0
LINE
8
SCORE
10
10.43723
20
6.48197
30
0.0
11
10.46335
21
6.28686
31
0.0
0
LINE
8
SCORE
10
10.48946
20
6.09175
30
0.0
11
10.51558
21
5.89664
31
0.0
0
LINE
8
SCORE
10
10.54169
20
5.70153
30
0.0
11
10.56780
21
5.50642
31
0.0
0
LINE
8
SCORE
10
10.59392
20
5.31131
30
0.0
11
10.62003
21
5.11620
31
0.0
0
LINE
8
SCORE
10
10.64615
20
4.92109
30
0.0
11
10.67226
21
4.72598
31
0.0
0
LINE
8
SCORE
10
10.69837
20
4.53087
30
0.0
11
10.72449
21
4.33576
31
0.0
0
LINE
8
SCORE
10
10.75060
20
4.14065
30
0.0
11
10.77672
21
3.94554
31
0.0
0
LINE
8
SCORE
10
10.80283
20
3.75043
30
0.0
11
10.82894
21
3.55532
31
0.0
0
LINE
8
SCORE
10
10.85506
20
3.36021
30
0.0
11
10.88117
21
3.16509
31
0.0
0
LINE
8
SCORE
10
10.90729
20
2.96998
30
0.0
11
10.93340
21
2.77487
31
0.0
0
LINE
8
SCORE
10
10.95951
20
2.57976
30
0.0
11
10.98563
21
2.38465
31
0.0
0
LINE
8
SCORE
10
4.52180
20
10.01055
30
0.0
11
4.59910
21
9.82951
31
0.0
0
LINE
8
SCORE
10
4.67640
20
9.64847
30
0.0
11
4.75370
21
9.46743
31
0.0
0
LINE
8
SCORE
10
4.83101
20
9.28640
30
0.0
11
4.90831
21
9.10536
31
0.0
0
LINE
8
SCORE
10
4.98561
20
8.92432
30
0.0
11
5.06291
21
8.74328
31
0.0
0
LINE
8
SCORE
10
5.14021
20
8.56224
30
0.0
11
5.21751
21
8.38121
31
0.0
0
LINE
8
SCORE
10
5.29481
20
8.20017
30
0.0
11
5.37211
21
8.01913
31
0.0
0
LINE
8
SCORE
10
5.44941
20
7.83809
30
0.0
11
5.52671
21
7.65705
31
0.0
0
LINE
8
SCORE
10
5.60401
20
7.47602
30
0.0
11
5.68131
21
7.29498
31
0.0
0
LINE
8
SCORE
10
5.75861
20
7.11394
30
0.0
11
5.83591
21
6.93290
31
0.0
0
LINE
8
SCORE
10
5.91321
20
6.75187
30
0.0
11
5.99051
21
6.57083
31
0.0
0
LINE
8
SCORE
10
6.06781
20
6.38979
30
0.0
11
6.14511
21
6.20875
31
0.0
0
LINE
8
SCORE
10
6.22241
20
6.02771
30
0.0
11
6.29971
21
5.84668
31
0.0
0
LINE
8
SCORE
10
6.37701
20
5.66564
30
0.0
11
6.45431
21
5.48460
31
0.0
0
LINE
8
SCORE
10
6.53162
20
5.30356
30
0.0
11
6.60892
21
5.12252
31
0.0
0
LINE
8
SCORE
10
6.68622
20
4.94149
30
0.0
11
6.76352
21
4.76045
31
0.0
0
LINE
8
SCORE
10
6.84082
20
4.57941
30
0.0
11
6.91812
21
4.39837
31
0.0
0
LINE
8
SCORE
10
6.99542
20
4.21733
30
0.0
11
7.07272
21
4.03630
31
0.0
0
LINE
8
SCORE
10
7.15002
20
3.85526
30
0.0
11
7.22732
21
3.67422
31
0.0
0
LINE
8
SCORE
10
7.30462
20
3.49318
30
0.0
11
7.38192
21
3.31215
31
0.0
0
LINE
8
SCORE
10
7.45922
20
3.13111
30
0.0
11
7.53652
21
2.95007
31
0.0
0
LINE
8
SCORE
10
7.61382
20
2.76903
30
0.0
11
7.69112
21
2.58799
31
0.0
0
LINE
8
SCORE
10
7.76842
20
2.40696
30
0.0
11
7.84572
21
2.22592
31
0.0
0
LINE
8
SCORE
10
7.92302
20
2.04488
30
0.0
11
8.00032
21
1.86384
31
0.0
0
LINE
8
SCORE
10
8.07762
20
1.68280
30
0.0
11
8.15492
21
1.50177
31
0.0
0
LINE
8
SCORE2
10
9.96718
20
9.99396
30
0.0
11
10.98704
21
2.37411
31
0.0
0
LINE
8
SCORE2
10
4.52180
20
10.01055
30
0.0
11
8.20163
21
1.39238
31
0.0
0
ENDSEC
0
EOF
