<?xml version="1.0" encoding="UTF-8"?>
<svg xmlns="http://www.w3.org/2000/svg" version="1.1" width="15.1656in" height="10.6432in" viewBox="0 0 15.1656 10.6432">
<title>bin flat pattern</title>
<g id="cut" stroke="#ff0000" fill="none" stroke-width="0.0039">
  <path d="M 0.0000,8.1378 L 1.1092,5.5401 L 2.9190,4.0792 L 4.6608,-0.0000 L 4.7806,0.0462 L 4.9004,0.0924 L 5.0202,0.1386 L 5.1400,0.1847 L 5.2599,0.2307 L 5.3797,0.2767 L 5.4996,0.3227 L 5.6195,0.3686 L 5.7395,0.4145 L 5.8594,0.4603 L 5.9794,0.5061 L 6.0994,0.5518 L 6.2194,0.5975 L 6.3394,0.6431 L 6.4594,0.6886 L 6.5795,0.7341 L 6.6996,0.7796 L 6.8197,0.8249 L 6.9398,0.8703 L 7.0600,0.9155 L 7.1802,0.9608 L 7.3004,1.0059 L 7.4206,1.0510 L 8.2045,1.3857 L 8.2016,1.3924 L 8.8090,1.6945 L 9.5559,1.9907 L 10.3250,2.2234 L 11.0858,2.3853 L 10.9873,2.3722 L 10.9870,2.3741 L 14.7566,2.8786 L 14.3373,6.0115 L 15.1656,8.0455 L 14.8179,10.6432 L 9.9672,9.9940 L 9.9669,9.9959 L 10.0762,10.0105 L 4.5218,10.0105 L 4.5008,10.0596 L 0.0000,8.1378 Z"/>
</g>
<g id="score" stroke="#0000ff" fill="none" stroke-width="0.0039">
  <line x1="9.9672" y1="9.9940" x2="9.9933" y2="9.7989"/>
  <line x1="10.0194" y1="9.6037" x2="10.0455" y2="9.4086"/>
  <line x1="10.0716" y1="9.2135" x2="10.0978" y2="9.0184"/>
  <line x1="10.1239" y1="8.8233" x2="10.1500" y2="8.6282"/>
  <line x1="10.1761" y1="8.4331" x2="10.2022" y2="8.2380"/>
  <line x1="10.2283" y1="8.0429" x2="10.2544" y2="7.8477"/>
  <line x1="10.2805" y1="7.6526" x2="10.3067" y2="7.4575"/>
  <line x1="10.3328" y1="7.2624" x2="10.3589" y2="7.0673"/>
  <line x1="10.3850" y1="6.8722" x2="10.4111" y2="6.6771"/>
  <line x1="10.4372" y1="6.4820" x2="10.4633" y2="6.2869"/>
  <line x1="10.4895" y1="6.0918" x2="10.5156" y2="5.8966"/>
  <line x1="10.5417" y1="5.7015" x2="10.5678" y2="5.5064"/>
  <line x1="10.5939" y1="5.3113" x2="10.6200" y2="5.1162"/>
  <line x1="10.6461" y1="4.9211" x2="10.6723" y2="4.7260"/>
  <line x1="10.6984" y1="4.5309" x2="10.7245" y2="4.3358"/>
  <line x1="10.7506" y1="4.1406" x2="10.7767" y2="3.9455"/>
  <line x1="10.8028" y1="3.7504" x2="10.8289" y2="3.5553"/>
  <line x1="10.8551" y1="3.3602" x2="10.8812" y2="3.1651"/>
  <line x1="10.9073" y1="2.9700" x2="10.9334" y2="2.7749"/>
  <line x1="10.9595" y1="2.5798" x2="10.9856" y2="2.3847"/>
  <line x1="4.5218" y1="10.0105" x2="4.5991" y2="9.8295"/>
  <line x1="4.6764" y1="9.6485" x2="4.7537" y2="9.4674"/>
  <line x1="4.8310" y1="9.2864" x2="4.9083" y2="9.1054"/>
  <line x1="4.9856" y1="8.9243" x2="5.0629" y2="8.7433"/>
  <line x1="5.1402" y1="8.5622" x2="5.2175" y2="8.3812"/>
  <line x1="5.2948" y1="8.2002" x2="5.3721" y2="8.0191"/>
  <line x1="5.4494" y1="7.8381" x2="5.5267" y2="7.6571"/>
  <line x1="5.6040" y1="7.4760" x2="5.6813" y2="7.2950"/>
  <line x1="5.7586" y1="7.1139" x2="5.8359" y2="6.9329"/>
  <line x1="5.9132" y1="6.7519" x2="5.9905" y2="6.5708"/>
  <line x1="6.0678" y1="6.3898" x2="6.1451" y2="6.2088"/>
  <line x1="6.2224" y1="6.0277" x2="6.2997" y2="5.8467"/>
  <line x1="6.3770" y1="5.6656" x2="6.4543" y2="5.4846"/>
  <line x1="6.5316" y1="5.3036" x2="6.6089" y2="5.1225"/>
  <line x1="6.6862" y1="4.9415" x2="6.7635" y2="4.7604"/>
  <line x1="6.8408" y1="4.5794" x2="6.9181" y2="4.3984"/>
  <line x1="6.9954" y1="4.2173" x2="7.0727" y2="4.0363"/>
  <line x1="7.1500" y1="3.8553" x2="7.2273" y2="3.6742"/>
  <line x1="7.3046" y1="3.4932" x2="7.3819" y2="3.3121"/>
  <line x1="7.4592" y1="3.1311" x2="7.5365" y2="2.9501"/>
  <line x1="7.6138" y1="2.7690" x2="7.6911" y2="2.5880"/>
  <line x1="7.7684" y1="2.4070" x2="7.8457" y2="2.2259"/>
  <line x1="7.9230" y1="2.0449" x2="8.0003" y2="1.8638"/>
  <line x1="8.0776" y1="1.6828" x2="8.1549" y2="1.5018"/>
</g>
<g id="score2" stroke="#00a650" fill="none" stroke-width="0.0039">
  <line x1="9.9672" y1="9.9940" x2="10.9870" y2="2.3741"/>
  <line x1="4.5218" y1="10.0105" x2="8.2016" y2="1.3924"/>
</g>
</svg>