0
SECTION
2
ENTITIES
0
POLYLINE
8
CUT
66
1
70
1
0
VERTEX
8
CUT
10
-0.08429
20
245.34473
30
0.0
0
VERTEX
8
CUT
10
12.99550
20
147.62247
30
0.0
0
VERTEX
8
CUT
10
19.70144
20
97.51922
30
0.0
0
VERTEX
8
CUT
10
46.38108
20
62.62814
30
0.0
0
VERTEX
8
CUT
10
54.77464
20
-0.08429
30
0.0
0
VERTEX
8
CUT
10
129.49739
20
9.91675
30
0.0
0
VERTEX
8
CUT
10
129.50034
20
9.89470
30
0.0
0
VERTEX
8
CUT
10
142.36462
20
11.52260
30
0.0
0
VERTEX
8
CUT
10
158.41483
20
12.19644
30
0.0
0
VERTEX
8
CUT
10
174.46504
20
11.52260
30
0.0
0
VERTEX
8
CUT
10
187.32931
20
9.89470
30
0.0
0
VERTEX
8
CUT
10
187.33226
20
9.91675
30
0.0
0
VERTEX
8
CUT
10
262.05501
20
-0.08429
30
0.0
0
VERTEX
8
CUT
10
270.44857
20
62.62814
30
0.0
0
VERTEX
8
CUT
10
297.12822
20
97.51922
30
0.0
0
VERTEX
8
CUT
10
304.33536
20
151.36734
30
0.0
0
VERTEX
8
CUT
10
207.84153
20
164.28232
30
0.0
0
VERTEX
8
CUT
10
207.78391
20
163.85184
30
0.0
0
VERTEX
8
CUT
10
197.89917
20
163.85184
30
0.0
0
VERTEX
8
CUT
10
193.69917
20
168.05184
30
0.0
0
VERTEX
8
CUT
10
178.68376
20
168.05184
30
0.0
0
VERTEX
8
CUT
10
174.48376
20
163.85184
30
0.0
0
VERTEX
8
CUT
10
170.34589
20
163.85184
30
0.0
0
VERTEX
8
CUT
10
166.14589
20
168.05184
30
0.0
0
VERTEX
8
CUT
10
150.68376
20
168.05184
30
0.0
0
VERTEX
8
CUT
10
146.48376
20
163.85184
30
0.0
0
VERTEX
8
CUT
10
142.34589
20
163.85184
30
0.0
0
VERTEX
8
CUT
10
138.14589
20
168.05184
30
0.0
0
VERTEX
8
CUT
10
123.13048
20
168.05184
30
0.0
0
VERTEX
8
CUT
10
118.93048
20
163.85184
30
0.0
0
VERTEX
8
CUT
10
109.04572
20
163.85184
30
0.0
0
VERTEX
8
CUT
10
96.40945
20
258.26048
30
0.0
0
VERTEX
8
CUT
10
-0.08429
20
245.34473
30
0.0
0
SEQEND
0
LINE
8
SCORE
10
108.92373
20
164.19803
30
0.0
11
109.58703
21
159.24223
31
0.0
0
LINE
8
SCORE
10
110.25033
20
154.28642
30
0.0
11
110.91362
21
149.33061
31
0.0
0
LINE
8
SCORE
10
111.57692
20
144.37480
30
0.0
11
112.24021
21
139.41899
31
0.0
0
LINE
8
SCORE
10
112.90351
20
134.46318
30
0.0
11
113.56680
21
129.50737
31
0.0
0
LINE
8
SCORE
10
114.23010
20
124.55157
30
0.0
11
114.89339
21
119.59576
31
0.0
0
LINE
8
SCORE
10
115.55669
20
114.63995
30
0.0
11
116.21999
21
109.68414
31
0.0
0
LINE
8
SCORE
10
116.88328
20
104.72833
30
0.0
11
117.54658
21
99.77252
31
0.0
0
LINE
8
SCORE
10
118.20987
20
94.81671
30
0.0
11
118.87317
21
89.86090
31
0.0
0
LINE
8
SCORE
10
119.53646
20
84.90510
30
0.0
11
120.19976
21
79.94929
31
0.0
0
LINE
8
SCORE
10
120.86305
20
74.99348
30
0.0
11
121.52635
21
70.03767
31
0.0
0
LINE
8
SCORE
10
122.18965
20
65.08186
30
0.0
11
122.85294
21
60.12605
31
0.0
0
LINE
8
SCORE
10
123.51624
20
55.17024
30
0.0
11
124.17953
21
50.21444
31
0.0
0
LINE
8
SCORE
10
124.84283
20
45.25863
30
0.0
11
125.50612
21
40.30282
31
0.0
0
LINE
8
SCORE
10
126.16942
20
35.34701
30
0.0
11
126.83271
21
30.39120
31
0.0
0
LINE
8
SCORE
10
127.49601
20
25.43539
30
0.0
11
128.15931
21
20.47958
31
0.0
0
LINE
8
SCORE
10
128.82260
20
15.52378
30
0.0
11
129.48590
21
10.56797
31
0.0
0
LINE
8
SCORE
10
207.90592
20
164.19803
30
0.0
11
207.24262
21
159.24223
31
0.0
0
LINE
8
SCORE
10
206.57933
20
154.28642
30
0.0
11
205.91603
21
149.33061
31
0.0
0
LINE
8
SCORE
10
205.25273
20
144.37480
30
0.0
11
204.58944
21
139.41899
31
0.0
0
LINE
8
SCORE
10
203.92614
20
134.46318
30
0.0
11
203.26285
21
129.50737
31
0.0
0
LINE
8
SCORE
10
202.59955
20
124.55157
30
0.0
11
201.93626
21
119.59576
31
0.0
0
LINE
8
SCORE
10
201.27296
20
114.63995
30
0.0
11
200.60967
21
109.68414
31
0.0
0
LINE
8
SCORE
10
199.94637
20
104.72833
30
0.0
11
199.28307
21
99.77252
31
0.0
0
LINE
8
SCORE
10
198.61978
20
94.81671
30
0.0
11
197.95648
21
89.86090
31
0.0
0
LINE
8
SCORE
10
197.29319
20
84.90510
30
0.0
11
196.62989
21
79.94929
31
0.0
0
LINE
8
SCORE
10
195.96660
20
74.99348
30
0.0
11
195.30330
21
70.03767
31
0.0
0
LINE
8
SCORE
10
194.64001
20
65.08186
30
0.0
11
193.97671
21
60.12605
31
0.0
0
LINE
8
SCORE
10
193.31341
20
55.17024
30
0.0
11
192.65012
21
50.21444
31
0.0
0
LINE
8
SCORE
10
191.98682
20
45.25863
30
0.0
11
191.32353
21
40.30282
31
0.0
0
LINE
8
SCORE
10
190.66023
20
35.34701
30
0.0
11
189.99694
21
30.39120
31
0.0
0
LINE
8
SCORE
10
189.33364
20
25.43539
30
0.0
11
188.67035
21
20.47958
31
0.0
0
LINE
8
SCORE
10
188.00705
20
15.52378
30
0.0
11
187.34375
21
10.56797
31
0.0
0
LINE
8
SCORE
10
112.55201
20
161.02304
30
0.0
11
107.59620
21
160.35974
31
0.0
0
LINE
8
SCORE
10
102.64039
20
159.69644
30
0.0
11
97.68458
21
159.03314
31
0.0
0
LINE
8
SCORE
10
92.72878
20
158.36984
30
0.0
11
87.77297
21
157.70655
31
0.0
0
LINE
8
SCORE
10
82.81716
20
157.04325
30
0.0
11
77.86135
21
156.37995
31
0.0
0
LINE
8
SCORE
10
72.90554
20
155.71665
30
0.0
11
67.94973
21
155.05335
31
0.0
0
LINE
8
SCORE
10
62.99393
20
154.39005
30
0.0
11
58.03812
21
153.72676
31
0.0
0
LINE
8
SCORE
10
53.08231
20
153.06346
30
0.0
11
48.12650
21
152.40016
31
0.0
0
LINE
8
SCORE
10
43.17069
20
151.73686
30
0.0
11
38.21488
21
151.07356
31
0.0
0
LINE
8
SCORE
10
33.25908
20
150.41027
30
0.0
11
28.30327
21
149.74697
31
0.0
0
LINE
8
SCORE
10
23.34746
20
149.08367
30
0.0
11
18.39165
21
148.42037
31
0.0
0
LINE
8
SCORE
10
13.43584
20
147.75707
30
0.0
11
13.05990
21
147.70676
31
0.0
0
LINE
8
SCORE2
10
108.92373
20
164.19803
30
0.0
11
129.56178
21
10.00103
31
0.0
0
LINE
8
SCORE2
10
207.90592
20
164.19803
30
0.0
11
187.26787
21
10.00103
31
0.0
0
LINE
8
SCORE2
10
112.55201
20
161.02304
30
0.0
11
13.05990
21
147.70676
31
0.0
0
ENDSEC
0
EOF
