<svg xmlns="http://www.w3.org/2000/svg" viewBox="0 0 304.25107008823665 258.1761881992186" width="100%" preserveAspectRatio="xMidYMid meet">
<rect x="0" y="0" width="304.25107008823665" height="258.1761881992186" fill="#0d1117"/>
<polygon points="174.47,11.60 158.41,12.27 142.36,11.60 129.56,9.98 108.98,163.78 118.96,163.78 123.16,167.98 138.11,167.98 142.31,163.78 146.51,163.78 150.71,167.98 166.11,167.98 170.31,163.78 174.51,163.78 178.71,167.98 193.67,167.98 197.87,163.78 207.85,163.78 187.26,9.98" fill="#1f3a5f" fill-opacity="0.55" stroke="none"/>
<polygon points="129.56,10.00 129.32,9.97 125.94,9.52 122.55,9.06 119.17,8.61 115.78,8.16 112.39,7.70 109.01,7.25 105.62,6.80 102.24,6.34 98.85,5.89 95.47,5.44 92.08,4.98 88.70,4.53 85.31,4.08 81.92,3.63 78.54,3.17 75.15,2.72 71.77,2.27 68.38,1.81 65.00,1.36 61.61,0.91 58.22,0.45 54.84,0.00 46.45,62.66 19.77,97.55 13.06,147.71 109.41,160.60" fill="#3a2f1f" fill-opacity="0.55" stroke="none"/>
<polygon points="304.25,151.30 297.06,97.55 270.38,62.66 261.99,0.00 258.60,0.45 255.22,0.91 251.83,1.36 248.45,1.81 245.06,2.27 241.68,2.72 238.29,3.17 234.91,3.63 231.52,4.08 228.13,4.53 224.75,4.98 221.36,5.44 217.98,5.89 214.59,6.34 211.21,6.80 207.82,7.25 204.43,7.70 201.05,8.16 197.66,8.61 194.28,9.06 190.89,9.52 187.51,9.97 187.27,10.00 207.91,164.20" fill="#3a2f1f" fill-opacity="0.55" stroke="none"/>
<polygon points="0.00,245.28 96.35,258.18 109.41,160.60 13.06,147.71" fill="#3a2f1f" fill-opacity="0.55" stroke="none"/>
<path d="M -0.08,245.34 L 13.00,147.62 L 19.70,97.52 L 46.38,62.63 L 54.77,-0.08 L 129.50,9.92 L 129.50,9.89 L 142.36,11.52 L 158.41,12.20 L 174.47,11.52 L 187.33,9.89 L 187.33,9.92 L 262.06,-0.08 L 270.45,62.63 L 297.13,97.52 L 304.34,151.37 L 207.84,164.28 L 207.78,163.85 L 197.90,163.85 L 193.70,168.05 L 178.68,168.05 L 174.48,163.85 L 170.35,163.85 L 166.15,168.05 L 150.68,168.05 L 146.48,163.85 L 142.35,163.85 L 138.15,168.05 L 123.13,168.05 L 118.93,163.85 L 109.05,163.85 L 96.41,258.26 L -0.08,245.34 Z" fill="none" stroke="#ff0000" stroke-width="0.6"/>
<line x1="108.92" y1="164.20" x2="129.56" y2="10.00" stroke="#00a650" stroke-width="1.6" stroke-opacity="0.8"/>
<line x1="207.91" y1="164.20" x2="187.27" y2="10.00" stroke="#00a650" stroke-width="1.6" stroke-opacity="0.8"/>
<line x1="112.55" y1="161.02" x2="13.06" y2="147.71" stroke="#00a650" stroke-width="1.6" stroke-opacity="0.8"/>
<line x1="108.92" y1="164.20" x2="129.56" y2="10.00" stroke="#0000ff" stroke-width="0.8" stroke-dasharray="2 1.5"/>
<line x1="207.91" y1="164.20" x2="187.27" y2="10.00" stroke="#0000ff" stroke-width="0.8" stroke-dasharray="2 1.5"/>
<line x1="112.55" y1="161.02" x2="13.06" y2="147.71" stroke="#0000ff" stroke-width="0.8" stroke-dasharray="2 1.5"/>
<text x="119.2" y="87.1" fill="#9ad" font-size="5" text-anchor="middle">90°</text>
<text x="197.6" y="87.1" fill="#9ad" font-size="5" text-anchor="middle">90°</text>
<text x="62.8" y="154.4" fill="#9ad" font-size="5" text-anchor="middle">98°</text>
<text x="158.4" y="78.8" fill="#ff9500" font-size="3" text-anchor="middle">bin_third_center</text>
<text x="158.4" y="83.6" fill="#ff9500" font-size="3" text-anchor="middle"><TIMESTAMP></text>
<text x="158.4" y="88.4" fill="#ff9500" font-size="3" text-anchor="middle">t=3.175mm</text>
<text x="158.4" y="93.2" fill="#ff9500" font-size="3" text-anchor="middle">perf 5/5</text>
<text x="158.4" y="98.0" fill="#ff9500" font-size="3" text-anchor="middle">+score overlay</text>
<text x="158.4" y="102.8" fill="#ff9500" font-size="3" text-anchor="middle">kerf 0.15</text>
<text x="158.4" y="107.6" fill="#ff9500" font-size="3" text-anchor="middle">comp 1</text>
<text x="158.4" y="112.4" fill="#ff9500" font-size="3" text-anchor="middle">clear 1</text>
</svg>