0
SECTION
2
ENTITIES
0
POLYLINE
8
CUT
66
1
70
1
0
VERTEX
8
CUT
10
-0.07546
20
215.36181
30
0.0
0
VERTEX
8
CUT
10
5.47448
20
2.41284
30
0.0
0
VERTEX
8
CUT
10
32.27508
20
3.11132
30
0.0
0
VERTEX
8
CUT
10
31.79354
20
-0.07731
30
0.0
0
VERTEX
8
CUT
10
45.16802
20
0.27126
30
0.0
0
VERTEX
8
CUT
10
44.52105
20
3.43048
30
0.0
0
VERTEX
8
CUT
10
65.12368
20
3.96743
30
0.0
0
VERTEX
8
CUT
10
64.64215
20
0.77880
30
0.0
0
VERTEX
8
CUT
10
78.01663
20
1.12737
30
0.0
0
VERTEX
8
CUT
10
77.36966
20
4.28659
30
0.0
0
VERTEX
8
CUT
10
102.79572
20
4.94925
30
0.0
0
VERTEX
8
CUT
10
98.85402
20
156.19073
30
0.0
0
VERTEX
8
CUT
10
102.69893
20
157.95226
30
0.0
0
VERTEX
8
CUT
10
104.76792
20
163.51996
30
0.0
0
VERTEX
8
CUT
10
108.52978
20
165.24344
30
0.0
0
VERTEX
8
CUT
10
114.09748
20
163.17445
30
0.0
0
VERTEX
8
CUT
10
122.82087
20
167.17104
30
0.0
0
VERTEX
8
CUT
10
124.88986
20
172.73874
30
0.0
0
VERTEX
8
CUT
10
128.65172
20
174.46222
30
0.0
0
VERTEX
8
CUT
10
134.21942
20
172.39323
30
0.0
0
VERTEX
8
CUT
10
142.94282
20
176.38982
30
0.0
0
VERTEX
8
CUT
10
145.01180
20
181.95752
30
0.0
0
VERTEX
8
CUT
10
148.77366
20
183.68100
30
0.0
0
VERTEX
8
CUT
10
154.34136
20
181.61201
30
0.0
0
VERTEX
8
CUT
10
168.39844
20
188.05220
30
0.0
0
VERTEX
8
CUT
10
170.46743
20
193.61990
30
0.0
0
VERTEX
8
CUT
10
174.22928
20
195.34338
30
0.0
0
VERTEX
8
CUT
10
179.79699
20
193.27439
30
0.0
0
VERTEX
8
CUT
10
184.71675
20
195.52836
30
0.0
0
VERTEX
8
CUT
10
186.78574
20
201.09606
30
0.0
0
VERTEX
8
CUT
10
190.54760
20
202.81954
30
0.0
0
VERTEX
8
CUT
10
196.11530
20
200.75055
30
0.0
0
VERTEX
8
CUT
10
205.89383
20
205.23055
30
0.0
0
VERTEX
8
CUT
10
207.96282
20
210.79825
30
0.0
0
VERTEX
8
CUT
10
211.72468
20
212.52173
30
0.0
0
VERTEX
8
CUT
10
217.29238
20
210.45274
30
0.0
0
VERTEX
8
CUT
10
230.94333
20
216.70686
30
0.0
0
VERTEX
8
CUT
10
233.01232
20
222.27457
30
0.0
0
VERTEX
8
CUT
10
236.77417
20
223.99804
30
0.0
0
VERTEX
8
CUT
10
242.34187
20
221.92906
30
0.0
0
VERTEX
8
CUT
10
246.55211
20
223.85796
30
0.0
0
VERTEX
8
CUT
10
244.80275
20
227.67630
30
0.0
0
VERTEX
8
CUT
10
333.17404
20
268.16322
30
0.0
0
VERTEX
8
CUT
10
310.74515
20
317.11903
30
0.0
0
VERTEX
8
CUT
10
275.17428
20
342.38422
30
0.0
0
VERTEX
8
CUT
10
230.58277
20
439.71466
30
0.0
0
VERTEX
8
CUT
10
164.04077
20
409.22874
30
0.0
0
VERTEX
8
CUT
10
164.02667
20
409.26117
30
0.0
0
VERTEX
8
CUT
10
152.89989
20
404.68027
30
0.0
0
VERTEX
8
CUT
10
140.58932
20
400.70369
30
0.0
0
VERTEX
8
CUT
10
128.00599
20
397.69984
30
0.0
0
VERTEX
8
CUT
10
115.22664
20
395.68704
30
0.0
0
VERTEX
8
CUT
10
102.32919
20
394.67756
30
0.0
0
VERTEX
8
CUT
10
92.63851
20
394.67756
30
0.0
0
VERTEX
8
CUT
10
92.63630
20
394.76221
30
0.0
0
VERTEX
8
CUT
10
38.96699
20
393.36347
30
0.0
0
VERTEX
8
CUT
10
37.07449
20
393.24447
30
0.0
0
VERTEX
8
CUT
10
36.12892
20
393.18526
30
0.0
0
VERTEX
8
CUT
10
34.23774
20
393.06734
30
0.0
0
VERTEX
8
CUT
10
33.29213
20
393.00863
30
0.0
0
VERTEX
8
CUT
10
31.40089
20
392.89168
30
0.0
0
VERTEX
8
CUT
10
30.45525
20
392.83344
30
0.0
0
VERTEX
8
CUT
10
28.56394
20
392.71744
30
0.0
0
VERTEX
8
CUT
10
27.61827
20
392.65967
30
0.0
0
VERTEX
8
CUT
10
25.72690
20
392.54460
30
0.0
0
VERTEX
8
CUT
10
24.78120
20
392.48729
30
0.0
0
VERTEX
8
CUT
10
22.88976
20
392.37313
30
0.0
0
VERTEX
8
CUT
10
21.94403
20
392.31627
30
0.0
0
VERTEX
8
CUT
10
20.05254
20
392.20299
30
0.0
0
VERTEX
8
CUT
10
18.16101
20
392.09030
30
0.0
0
VERTEX
8
CUT
10
17.14280
20
392.02987
30
0.0
0
VERTEX
8
CUT
10
20.66195
20
257.00160
30
0.0
0
VERTEX
8
CUT
10
-0.07546
20
215.36181
30
0.0
0
SEQEND
0
POLYLINE
8
CUT
66
1
70
1
0
VERTEX
8
CUT
10
265.19428
20
244.11329
30
0.0
0
VERTEX
8
CUT
10
266.53754
20
241.18135
30
0.0
0
VERTEX
8
CUT
10
277.49255
20
246.20034
30
0.0
0
VERTEX
8
CUT
10
276.14929
20
249.13228
30
0.0
0
VERTEX
8
CUT
10
265.19428
20
244.11329
30
0.0
0
SEQEND
0
POLYLINE
8
CUT
66
1
70
1
0
VERTEX
8
CUT
10
295.06806
20
257.79983
30
0.0
0
VERTEX
8
CUT
10
296.41131
20
254.86789
30
0.0
0
VERTEX
8
CUT
10
307.36632
20
259.88688
30
0.0
0
VERTEX
8
CUT
10
306.02307
20
262.81882
30
0.0
0
VERTEX
8
CUT
10
295.06806
20
257.79983
30
0.0
0
SEQEND
0
LINE
8
SCORE
10
98.76097
20
156.88239
30
0.0
11
98.68281
21
159.88137
31
0.0
0
LINE
8
SCORE
10
98.66978
20
160.38120
30
0.0
11
98.59162
21
163.38018
31
0.0
0
LINE
8
SCORE
10
98.57860
20
163.88001
30
0.0
11
98.50044
21
166.87900
31
0.0
0
LINE
8
SCORE
10
98.48741
20
167.37883
30
0.0
11
98.40925
21
170.37781
31
0.0
0
LINE
8
SCORE
10
98.39622
20
170.87764
30
0.0
11
98.31806
21
173.87662
31
0.0
0
LINE
8
SCORE
10
98.30504
20
174.37645
30
0.0
11
98.22687
21
177.37543
31
0.0
0
LINE
8
SCORE
10
98.21385
20
177.87526
30
0.0
11
98.13569
21
180.87424
31
0.0
0
LINE
8
SCORE
10
98.12266
20
181.37407
30
0.0
11
98.04450
21
184.37306
31
0.0
0
LINE
8
SCORE
10
98.03147
20
184.87289
30
0.0
11
97.95331
21
187.87187
31
0.0
0
LINE
8
SCORE
10
97.94029
20
188.37170
30
0.0
11
97.86213
21
191.37068
31
0.0
0
LINE
8
SCORE
10
97.84910
20
191.87051
30
0.0
11
97.77094
21
194.86949
31
0.0
0
LINE
8
SCORE
10
97.75791
20
195.36932
30
0.0
11
97.67975
21
198.36830
31
0.0
0
LINE
8
SCORE
10
97.66673
20
198.86813
30
0.0
11
97.58857
21
201.86712
31
0.0
0
LINE
8
SCORE
10
97.57554
20
202.36695
30
0.0
11
97.49738
21
205.36593
31
0.0
0
LINE
8
SCORE
10
97.48435
20
205.86576
30
0.0
11
97.40619
21
208.86474
31
0.0
0
LINE
8
SCORE
10
97.39316
20
209.36457
30
0.0
11
97.31500
21
212.36355
31
0.0
0
LINE
8
SCORE
10
97.30198
20
212.86338
30
0.0
11
97.22382
21
215.86236
31
0.0
0
LINE
8
SCORE
10
97.21079
20
216.36219
30
0.0
11
97.13263
21
219.36118
31
0.0
0
LINE
8
SCORE
10
97.11960
20
219.86101
30
0.0
11
97.04144
21
222.85999
31
0.0
0
LINE
8
SCORE
10
97.02842
20
223.35982
30
0.0
11
96.95026
21
226.35880
31
0.0
0
LINE
8
SCORE
10
96.93723
20
226.85863
30
0.0
11
96.85907
21
229.85761
31
0.0
0
LINE
8
SCORE
10
96.84604
20
230.35744
30
0.0
11
96.76788
21
233.35642
31
0.0
0
LINE
8
SCORE
10
96.75486
20
233.85625
30
0.0
11
96.67670
21
236.85524
31
0.0
0
LINE
8
SCORE
10
96.66367
20
237.35507
30
0.0
11
96.58551
21
240.35405
31
0.0
0
LINE
8
SCORE
10
96.57248
20
240.85388
30
0.0
11
96.49432
21
243.85286
31
0.0
0
LINE
8
SCORE
10
96.48129
20
244.35269
30
0.0
11
96.40313
21
247.35167
31
0.0
0
LINE
8
SCORE
10
96.39011
20
247.85150
30
0.0
11
96.31195
21
250.85048
31
0.0
0
LINE
8
SCORE
10
96.29892
20
251.35031
30
0.0
11
96.22076
21
254.34929
31
0.0
0
LINE
8
SCORE
10
96.20773
20
254.84913
30
0.0
11
96.12957
21
257.84811
31
0.0
0
LINE
8
SCORE
10
96.11655
20
258.34794
30
0.0
11
96.03839
21
261.34692
31
0.0
0
LINE
8
SCORE
10
96.02536
20
261.84675
30
0.0
11
95.94720
21
264.84573
31
0.0
0
LINE
8
SCORE
10
95.93417
20
265.34556
30
0.0
11
95.85601
21
268.34454
31
0.0
0
LINE
8
SCORE
10
95.84299
20
268.84437
30
0.0
11
95.76482
21
271.84335
31
0.0
0
LINE
8
SCORE
10
95.75180
20
272.34318
30
0.0
11
95.67364
21
275.34217
31
0.0
0
LINE
8
SCORE
10
95.66061
20
275.84200
30
0.0
11
95.58245
21
278.84098
31
0.0
0
LINE
8
SCORE
10
95.56942
20
279.34081
30
0.0
11
95.49126
21
282.33979
31
0.0
0
LINE
8
SCORE
10
95.47824
20
282.83962
30
0.0
11
95.40008
21
285.83860
31
0.0
0
LINE
8
SCORE
10
95.38705
20
286.33843
30
0.0
11
95.30889
21
289.33741
31
0.0
0
LINE
8
SCORE
10
95.29586
20
289.83724
30
0.0
11
95.21770
21
292.83623
31
0.0
0
LINE
8
SCORE
10
95.20468
20
293.33606
30
0.0
11
95.12652
21
296.33504
31
0.0
0
LINE
8
SCORE
10
95.11349
20
296.83487
30
0.0
11
95.03533
21
299.83385
31
0.0
0
LINE
8
SCORE
10
95.02230
20
300.33368
30
0.0
11
94.94414
21
303.33266
31
0.0
0
LINE
8
SCORE
10
94.93111
20
303.83249
30
0.0
11
94.85295
21
306.83147
31
0.0
0
LINE
8
SCORE
10
94.83993
20
307.33130
30
0.0
11
94.76177
21
310.33029
31
0.0
0
LINE
8
SCORE
10
94.74874
20
310.83012
30
0.0
11
94.67058
21
313.82910
31
0.0
0
LINE
8
SCORE
10
94.65755
20
314.32893
30
0.0
11
94.57939
21
317.32791
31
0.0
0
LINE
8
SCORE
10
94.56637
20
317.82774
30
0.0
11
94.48821
21
320.82672
31
0.0
0
LINE
8
SCORE
10
94.47518
20
321.32655
30
0.0
11
94.39702
21
324.32553
31
0.0
0
LINE
8
SCORE
10
94.38399
20
324.82536
30
0.0
11
94.30583
21
327.82435
31
0.0
0
LINE
8
SCORE
10
94.29281
20
328.32418
30
0.0
11
94.21464
21
331.32316
31
0.0
0
LINE
8
SCORE
10
94.20162
20
331.82299
30
0.0
11
94.12346
21
334.82197
31
0.0
0
LINE
8
SCORE
10
94.11043
20
335.32180
30
0.0
11
94.03227
21
338.32078
31
0.0
0
LINE
8
SCORE
10
94.01924
20
338.82061
30
0.0
11
93.94108
21
341.81959
31
0.0
0
LINE
8
SCORE
10
93.92806
20
342.31942
30
0.0
11
93.84990
21
345.31841
31
0.0
0
LINE
8
SCORE
10
93.83687
20
345.81824
30
0.0
11
93.75871
21
348.81722
31
0.0
0
LINE
8
SCORE
10
93.74568
20
349.31705
30
0.0
11
93.66752
21
352.31603
31
0.0
0
LINE
8
SCORE
10
93.65450
20
352.81586
30
0.0
11
93.57634
21
355.81484
31
0.0
0
LINE
8
SCORE
10
93.56331
20
356.31467
30
0.0
11
93.48515
21
359.31365
31
0.0
0
LINE
8
SCORE
10
93.47212
20
359.81348
30
0.0
11
93.39396
21
362.81246
31
0.0
0
LINE
8
SCORE
10
93.38093
20
363.31229
30
0.0
11
93.30277
21
366.31128
31
0.0
0
LINE
8
SCORE
10
93.28975
20
366.81111
30
0.0
11
93.21159
21
369.81009
31
0.0
0
LINE
8
SCORE
10
93.19856
20
370.30992
30
0.0
11
93.12040
21
373.30890
31
0.0
0
LINE
8
SCORE
10
93.10737
20
373.80873
30
0.0
11
93.02921
21
376.80771
31
0.0
0
LINE
8
SCORE
10
93.01619
20
377.30754
30
0.0
11
92.93803
21
380.30652
31
0.0
0
LINE
8
SCORE
10
92.92500
20
380.80635
30
0.0
11
92.84684
21
383.80534
31
0.0
0
LINE
8
SCORE
10
92.83381
20
384.30517
30
0.0
11
92.75565
21
387.30415
31
0.0
0
LINE
8
SCORE
10
92.74263
20
387.80398
30
0.0
11
92.66447
21
390.80296
31
0.0
0
LINE
8
SCORE
10
92.65144
20
391.30279
30
0.0
11
92.61539
21
392.68596
31
0.0
0
LINE
8
SCORE
10
3.39686
20
161.77432
30
0.0
11
6.39584
21
161.85249
31
0.0
0
LINE
8
SCORE
10
6.89567
20
161.86551
30
0.0
11
9.89465
21
161.94367
31
0.0
0
LINE
8
SCORE
10
10.39448
20
161.95670
30
0.0
11
13.39346
21
162.03486
31
0.0
0
LINE
8
SCORE
10
13.89329
20
162.04789
30
0.0
11
16.89227
21
162.12605
31
0.0
0
LINE
8
SCORE
10
17.39210
20
162.13907
30
0.0
11
20.39109
21
162.21723
31
0.0
0
LINE
8
SCORE
10
20.89092
20
162.23026
30
0.0
11
23.88990
21
162.30842
31
0.0
0
LINE
8
SCORE
10
24.38973
20
162.32145
30
0.0
11
27.38871
21
162.39961
31
0.0
0
LINE
8
SCORE
10
27.88854
20
162.41263
30
0.0
11
30.88752
21
162.49079
31
0.0
0
LINE
8
SCORE
10
31.38735
20
162.50382
30
0.0
11
34.38633
21
162.58198
31
0.0
0
LINE
8
SCORE
10
34.88616
20
162.59501
30
0.0
11
37.88515
21
162.67317
31
0.0
0
LINE
8
SCORE
10
38.38498
20
162.68620
30
0.0
11
41.38396
21
162.76436
31
0.0
0
LINE
8
SCORE
10
41.88379
20
162.77738
30
0.0
11
44.88277
21
162.85554
31
0.0
0
LINE
8
SCORE
10
45.38260
20
162.86857
30
0.0
11
48.38158
21
162.94673
31
0.0
0
LINE
8
SCORE
10
48.88141
20
162.95976
30
0.0
11
51.88039
21
163.03792
31
0.0
0
LINE
8
SCORE
10
52.38022
20
163.05094
30
0.0
11
55.37920
21
163.12910
31
0.0
0
LINE
8
SCORE
10
55.87904
20
163.14213
30
0.0
11
58.87802
21
163.22029
31
0.0
0
LINE
8
SCORE
10
59.37785
20
163.23332
30
0.0
11
62.37683
21
163.31148
31
0.0
0
LINE
8
SCORE
10
62.87666
20
163.32450
30
0.0
11
65.87564
21
163.40266
31
0.0
0
LINE
8
SCORE
10
66.37547
20
163.41569
30
0.0
11
69.37445
21
163.49385
31
0.0
0
LINE
8
SCORE
10
69.87428
20
163.50688
30
0.0
11
72.87326
21
163.58504
31
0.0
0
LINE
8
SCORE
10
73.37309
20
163.59807
30
0.0
11
76.37208
21
163.67623
31
0.0
0
LINE
8
SCORE
10
76.87191
20
163.68925
30
0.0
11
79.87089
21
163.76741
31
0.0
0
LINE
8
SCORE
10
80.37072
20
163.78044
30
0.0
11
83.36970
21
163.85860
31
0.0
0
LINE
8
SCORE
10
83.86953
20
163.87163
30
0.0
11
86.86851
21
163.94979
31
0.0
0
LINE
8
SCORE
10
87.36834
20
163.96281
30
0.0
11
90.36732
21
164.04097
31
0.0
0
LINE
8
SCORE
10
90.86715
20
164.05400
30
0.0
11
93.86614
21
164.13216
31
0.0
0
LINE
8
SCORE
10
94.36597
20
164.14519
30
0.0
11
97.36495
21
164.22335
31
0.0
0
LINE
8
SCORE
10
97.86478
20
164.23637
30
0.0
11
97.94404
21
164.23844
31
0.0
0
LINE
8
SCORE
10
162.84043
20
406.39641
30
0.0
11
164.08997
21
403.66902
31
0.0
0
LINE
8
SCORE
10
164.29823
20
403.21445
30
0.0
11
165.54777
21
400.48707
31
0.0
0
LINE
8
SCORE
10
165.75603
20
400.03250
30
0.0
11
167.00557
21
397.30511
31
0.0
0
LINE
8
SCORE
10
167.21382
20
396.85055
30
0.0
11
168.46337
21
394.12316
31
0.0
0
LINE
8
SCORE
10
168.67162
20
393.66860
30
0.0
11
169.92116
21
390.94121
31
0.0
0
LINE
8
SCORE
10
170.12942
20
390.48664
30
0.0
11
171.37896
21
387.75925
31
0.0
0
LINE
8
SCORE
10
171.58722
20
387.30469
30
0.0
11
172.83676
21
384.57730
31
0.0
0
LINE
8
SCORE
10
173.04502
20
384.12274
30
0.0
11
174.29456
21
381.39535
31
0.0
0
LINE
8
SCORE
10
174.50281
20
380.94078
30
0.0
11
175.75235
21
378.21339
31
0.0
0
LINE
8
SCORE
10
175.96061
20
377.75883
30
0.0
11
177.21015
21
375.03144
31
0.0
0
LINE
8
SCORE
10
177.41841
20
374.57688
30
0.0
11
178.66795
21
371.84949
31
0.0
0
LINE
8
SCORE
10
178.87621
20
371.39492
30
0.0
11
180.12575
21
368.66753
31
0.0
0
LINE
8
SCORE
10
180.33400
20
368.21297
30
0.0
11
181.58355
21
365.48558
31
0.0
0
LINE
8
SCORE
10
181.79180
20
365.03102
30
0.0
11
183.04134
21
362.30363
31
0.0
0
LINE
8
SCORE
10
183.24960
20
361.84906
30
0.0
11
184.49914
21
359.12168
31
0.0
0
LINE
8
SCORE
10
184.70740
20
358.66711
30
0.0
11
185.95694
21
355.93972
31
0.0
0
LINE
8
SCORE
10
186.16520
20
355.48516
30
0.0
11
187.41474
21
352.75777
31
0.0
0
LINE
8
SCORE
10
187.62299
20
352.30320
30
0.0
11
188.87253
21
349.57582
31
0.0
0
LINE
8
SCORE
10
189.08079
20
349.12125
30
0.0
11
190.33033
21
346.39386
31
0.0
0
LINE
8
SCORE
10
190.53859
20
345.93930
30
0.0
11
191.78813
21
343.21191
31
0.0
0
LINE
8
SCORE
10
191.99639
20
342.75735
30
0.0
11
193.24593
21
340.02996
31
0.0
0
LINE
8
SCORE
10
193.45418
20
339.57539
30
0.0
11
194.70373
21
336.84800
31
0.0
0
LINE
8
SCORE
10
194.91198
20
336.39344
30
0.0
11
196.16152
21
333.66605
31
0.0
0
LINE
8
SCORE
10
196.36978
20
333.21149
30
0.0
11
197.61932
21
330.48410
31
0.0
0
LINE
8
SCORE
10
197.82758
20
330.02953
30
0.0
11
199.07712
21
327.30214
31
0.0
0
LINE
8
SCORE
10
199.28538
20
326.84758
30
0.0
11
200.53492
21
324.12019
31
0.0
0
LINE
8
SCORE
10
200.74317
20
323.66563
30
0.0
11
201.99271
21
320.93824
31
0.0
0
LINE
8
SCORE
10
202.20097
20
320.48367
30
0.0
11
203.45051
21
317.75629
31
0.0
0
LINE
8
SCORE
10
203.65877
20
317.30172
30
0.0
11
204.90831
21
314.57433
31
0.0
0
LINE
8
SCORE
10
205.11657
20
314.11977
30
0.0
11
206.36611
21
311.39238
31
0.0
0
LINE
8
SCORE
10
206.57436
20
310.93781
30
0.0
11
207.82391
21
308.21043
31
0.0
0
LINE
8
SCORE
10
208.03216
20
307.75586
30
0.0
11
209.28170
21
305.02847
31
0.0
0
LINE
8
SCORE
10
209.48996
20
304.57391
30
0.0
11
210.73950
21
301.84652
31
0.0
0
LINE
8
SCORE
10
210.94776
20
301.39195
30
0.0
11
212.19730
21
298.66457
31
0.0
0
LINE
8
SCORE
10
212.40556
20
298.21000
30
0.0
11
213.65510
21
295.48261
31
0.0
0
LINE
8
SCORE
10
213.86335
20
295.02805
30
0.0
11
215.11289
21
292.30066
31
0.0
0
LINE
8
SCORE
10
215.32115
20
291.84610
30
0.0
11
216.57069
21
289.11871
31
0.0
0
LINE
8
SCORE
10
216.77895
20
288.66414
30
0.0
11
218.02849
21
285.93675
31
0.0
0
LINE
8
SCORE
10
218.23675
20
285.48219
30
0.0
11
219.48629
21
282.75480
31
0.0
0
LINE
8
SCORE
10
219.69454
20
282.30024
30
0.0
11
220.94409
21
279.57285
31
0.0
0
LINE
8
SCORE
10
221.15234
20
279.11828
30
0.0
11
222.40188
21
276.39089
31
0.0
0
LINE
8
SCORE
10
222.61014
20
275.93633
30
0.0
11
223.85968
21
273.20894
31
0.0
0
LINE
8
SCORE
10
224.06794
20
272.75438
30
0.0
11
225.31748
21
270.02699
31
0.0
0
LINE
8
SCORE
10
225.52574
20
269.57242
30
0.0
11
226.77528
21
266.84504
31
0.0
0
LINE
8
SCORE
10
226.98353
20
266.39047
30
0.0
11
228.23307
21
263.66308
31
0.0
0
LINE
8
SCORE
10
228.44133
20
263.20852
30
0.0
11
229.69087
21
260.48113
31
0.0
0
LINE
8
SCORE
10
229.89913
20
260.02656
30
0.0
11
231.14867
21
257.29918
31
0.0
0
LINE
8
SCORE
10
231.35693
20
256.84461
30
0.0
11
232.60647
21
254.11722
31
0.0
0
LINE
8
SCORE
10
232.81472
20
253.66266
30
0.0
11
234.06427
21
250.93527
31
0.0
0
LINE
8
SCORE
10
234.27252
20
250.48070
30
0.0
11
235.52206
21
247.75332
31
0.0
0
LINE
8
SCORE
10
235.73032
20
247.29875
30
0.0
11
236.97986
21
244.57136
31
0.0
0
LINE
8
SCORE
10
237.18812
20
244.11680
30
0.0
11
238.43766
21
241.38941
31
0.0
0
LINE
8
SCORE
10
238.64592
20
240.93485
30
0.0
11
239.89546
21
238.20746
31
0.0
0
LINE
8
SCORE
10
240.10371
20
237.75289
30
0.0
11
241.35325
21
235.02550
31
0.0
0
LINE
8
SCORE
10
241.56151
20
234.57094
30
0.0
11
242.81105
21
231.84355
31
0.0
0
LINE
8
SCORE
10
243.01931
20
231.38899
30
0.0
11
244.26885
21
228.66160
31
0.0
0
LINE
8
SCORE
10
244.47711
20
228.20703
30
0.0
11
245.61966
21
225.71316
31
0.0
0
LINE
8
SCORE2
10
98.76097
20
156.88239
30
0.0
11
92.61539
21
392.68596
31
0.0
0
LINE
8
SCORE2
10
3.39686
20
161.77432
30
0.0
11
97.94404
21
164.23844
31
0.0
0
LINE
8
SCORE2
10
162.84043
20
406.39641
30
0.0
11
245.61966
21
225.71316
31
0.0
0
ENDSEC
0
EOF
