0
SECTION
2
ENTITIES
0
POLYLINE
8
CUT
66
1
70
1
0
VERTEX
8
CUT
10
-0.07500
20
190.29687
30
0.0
0
VERTEX
8
CUT
10
21.74023
20
152.51179
30
0.0
0
VERTEX
8
CUT
10
21.74023
20
45.45284
30
0.0
0
VERTEX
8
CUT
10
94.93332
20
45.45284
30
0.0
0
VERTEX
8
CUT
10
94.93263
20
45.41748
30
0.0
0
VERTEX
8
CUT
10
106.95632
20
44.94766
30
0.0
0
VERTEX
8
CUT
10
119.80452
20
43.43536
30
0.0
0
VERTEX
8
CUT
10
132.49554
20
40.92512
30
0.0
0
VERTEX
8
CUT
10
144.95199
20
37.43225
30
0.0
0
VERTEX
8
CUT
10
157.09790
20
32.97803
30
0.0
0
VERTEX
8
CUT
10
165.90799
20
28.94173
30
0.0
0
VERTEX
8
CUT
10
165.87473
20
28.86385
30
0.0
0
VERTEX
8
CUT
10
215.24968
20
7.78149
30
0.0
0
VERTEX
8
CUT
10
217.01977
20
7.10142
30
0.0
0
VERTEX
8
CUT
10
217.90408
20
6.76141
30
0.0
0
VERTEX
8
CUT
10
219.67252
20
6.08091
30
0.0
0
VERTEX
8
CUT
10
220.55666
20
5.74043
30
0.0
0
VERTEX
8
CUT
10
222.32476
20
5.05902
30
0.0
0
VERTEX
8
CUT
10
223.20872
20
4.71810
30
0.0
0
VERTEX
8
CUT
10
224.97648
20
4.03580
30
0.0
0
VERTEX
8
CUT
10
225.86028
20
3.69444
30
0.0
0
VERTEX
8
CUT
10
227.62771
20
3.01127
30
0.0
0
VERTEX
8
CUT
10
228.51135
20
2.66947
30
0.0
0
VERTEX
8
CUT
10
230.27845
20
1.98545
30
0.0
0
VERTEX
8
CUT
10
231.16193
20
1.64323
30
0.0
0
VERTEX
8
CUT
10
232.92872
20
0.95838
30
0.0
0
VERTEX
8
CUT
10
234.69531
20
0.27299
30
0.0
0
VERTEX
8
CUT
10
235.64616
20
-0.09617
30
0.0
0
VERTEX
8
CUT
10
288.68792
20
124.12778
30
0.0
0
VERTEX
8
CUT
10
324.88445
20
153.34632
30
0.0
0
VERTEX
8
CUT
10
408.53499
20
349.25614
30
0.0
0
VERTEX
8
CUT
10
383.32704
20
360.01955
30
0.0
0
VERTEX
8
CUT
10
385.09293
20
362.71786
30
0.0
0
VERTEX
8
CUT
10
372.78861
20
367.97162
30
0.0
0
VERTEX
8
CUT
10
372.06094
20
364.83001
30
0.0
0
VERTEX
8
CUT
10
352.55502
20
373.15874
30
0.0
0
VERTEX
8
CUT
10
354.32090
20
375.85705
30
0.0
0
VERTEX
8
CUT
10
342.01659
20
381.11081
30
0.0
0
VERTEX
8
CUT
10
341.28891
20
377.96920
30
0.0
0
VERTEX
8
CUT
10
319.00093
20
387.48583
30
0.0
0
VERTEX
8
CUT
10
257.79696
20
244.14598
30
0.0
0
VERTEX
8
CUT
10
247.02321
20
244.14598
30
0.0
0
VERTEX
8
CUT
10
242.82321
20
248.34598
30
0.0
0
VERTEX
8
CUT
10
233.22788
20
248.34598
30
0.0
0
VERTEX
8
CUT
10
229.02788
20
244.14598
30
0.0
0
VERTEX
8
CUT
10
224.89001
20
244.14598
30
0.0
0
VERTEX
8
CUT
10
220.69001
20
248.34598
30
0.0
0
VERTEX
8
CUT
10
211.09468
20
248.34598
30
0.0
0
VERTEX
8
CUT
10
206.89468
20
244.14598
30
0.0
0
VERTEX
8
CUT
10
202.75682
20
244.14598
30
0.0
0
VERTEX
8
CUT
10
198.55682
20
248.34598
30
0.0
0
VERTEX
8
CUT
10
183.09468
20
248.34598
30
0.0
0
VERTEX
8
CUT
10
178.89468
20
244.14598
30
0.0
0
VERTEX
8
CUT
10
174.75682
20
244.14598
30
0.0
0
VERTEX
8
CUT
10
170.55682
20
248.34598
30
0.0
0
VERTEX
8
CUT
10
165.14530
20
248.34598
30
0.0
0
VERTEX
8
CUT
10
160.94530
20
244.14598
30
0.0
0
VERTEX
8
CUT
10
156.80744
20
244.14598
30
0.0
0
VERTEX
8
CUT
10
152.60744
20
248.34598
30
0.0
0
VERTEX
8
CUT
10
141.85150
20
248.34598
30
0.0
0
VERTEX
8
CUT
10
137.65150
20
244.14598
30
0.0
0
VERTEX
8
CUT
10
133.51363
20
244.14598
30
0.0
0
VERTEX
8
CUT
10
129.31363
20
248.34598
30
0.0
0
VERTEX
8
CUT
10
114.29823
20
248.34598
30
0.0
0
VERTEX
8
CUT
10
110.09823
20
244.14598
30
0.0
0
VERTEX
8
CUT
10
-0.07500
20
244.14598
30
0.0
0
VERTEX
8
CUT
10
-0.07500
20
190.29687
30
0.0
0
SEQEND
0
POLYLINE
8
CUT
66
1
70
1
0
VERTEX
8
CUT
10
27.43476
20
237.69598
30
0.0
0
VERTEX
8
CUT
10
39.48476
20
237.69598
30
0.0
0
VERTEX
8
CUT
10
39.48476
20
240.92098
30
0.0
0
VERTEX
8
CUT
10
27.43476
20
240.92098
30
0.0
0
VERTEX
8
CUT
10
27.43476
20
237.69598
30
0.0
0
SEQEND
0
POLYLINE
8
CUT
66
1
70
1
0
VERTEX
8
CUT
10
60.89453
20
237.69598
30
0.0
0
VERTEX
8
CUT
10
72.94453
20
237.69598
30
0.0
0
VERTEX
8
CUT
10
72.94453
20
240.92098
30
0.0
0
VERTEX
8
CUT
10
60.89453
20
240.92098
30
0.0
0
VERTEX
8
CUT
10
60.89453
20
237.69598
30
0.0
0
SEQEND
0
LINE
8
SCORE
10
257.59347
20
243.47841
30
0.0
11
256.41542
21
240.71939
31
0.0
0
LINE
8
SCORE
10
256.21907
20
240.25956
30
0.0
11
255.04101
21
237.50054
31
0.0
0
LINE
8
SCORE
10
254.84467
20
237.04070
30
0.0
11
253.66661
21
234.28169
31
0.0
0
LINE
8
SCORE
10
253.47027
20
233.82185
30
0.0
11
252.29221
21
231.06283
31
0.0
0
LINE
8
SCORE
10
252.09587
20
230.60300
30
0.0
11
250.91781
21
227.84398
31
0.0
0
LINE
8
SCORE
10
250.72146
20
227.38414
30
0.0
11
249.54340
21
224.62513
31
0.0
0
LINE
8
SCORE
10
249.34706
20
224.16529
30
0.0
11
248.16900
21
221.40627
31
0.0
0
LINE
8
SCORE
10
247.97266
20
220.94644
30
0.0
11
246.79460
21
218.18742
31
0.0
0
LINE
8
SCORE
10
246.59826
20
217.72758
30
0.0
11
245.42020
21
214.96857
31
0.0
0
LINE
8
SCORE
10
245.22386
20
214.50873
30
0.0
11
244.04580
21
211.74971
31
0.0
0
LINE
8
SCORE
10
243.84945
20
211.28988
30
0.0
11
242.67139
21
208.53086
31
0.0
0
LINE
8
SCORE
10
242.47505
20
208.07102
30
0.0
11
241.29699
21
205.31200
31
0.0
0
LINE
8
SCORE
10
241.10065
20
204.85217
30
0.0
11
239.92259
21
202.09315
31
0.0
0
LINE
8
SCORE
10
239.72625
20
201.63331
30
0.0
11
238.54819
21
198.87430
31
0.0
0
LINE
8
SCORE
10
238.35184
20
198.41446
30
0.0
11
237.17379
21
195.65544
31
0.0
0
LINE
8
SCORE
10
236.97744
20
195.19561
30
0.0
11
235.79938
21
192.43659
31
0.0
0
LINE
8
SCORE
10
235.60304
20
191.97675
30
0.0
11
234.42498
21
189.21774
31
0.0
0
LINE
8
SCORE
10
234.22864
20
188.75790
30
0.0
11
233.05058
21
185.99888
31
0.0
0
LINE
8
SCORE
10
232.85424
20
185.53905
30
0.0
11
231.67618
21
182.78003
31
0.0
0
LINE
8
SCORE
10
231.47983
20
182.32019
30
0.0
11
230.30178
21
179.56118
31
0.0
0
LINE
8
SCORE
10
230.10543
20
179.10134
30
0.0
11
228.92737
21
176.34232
31
0.0
0
LINE
8
SCORE
10
228.73103
20
175.88249
30
0.0
11
227.55297
21
173.12347
31
0.0
0
LINE
8
SCORE
10
227.35663
20
172.66363
30
0.0
11
226.17857
21
169.90461
31
0.0
0
LINE
8
SCORE
10
225.98223
20
169.44478
30
0.0
11
224.80417
21
166.68576
31
0.0
0
LINE
8
SCORE
10
224.60782
20
166.22592
30
0.0
11
223.42976
21
163.46691
31
0.0
0
LINE
8
SCORE
10
223.23342
20
163.00707
30
0.0
11
222.05536
21
160.24805
31
0.0
0
LINE
8
SCORE
10
221.85902
20
159.78822
30
0.0
11
220.68096
21
157.02920
31
0.0
0
LINE
8
SCORE
10
220.48462
20
156.56936
30
0.0
11
219.30656
21
153.81035
31
0.0
0
LINE
8
SCORE
10
219.11022
20
153.35051
30
0.0
11
217.93216
21
150.59149
31
0.0
0
LINE
8
SCORE
10
217.73581
20
150.13166
30
0.0
11
216.55775
21
147.37264
31
0.0
0
LINE
8
SCORE
10
216.36141
20
146.91280
30
0.0
11
215.18335
21
144.15379
31
0.0
0
LINE
8
SCORE
10
214.98701
20
143.69395
30
0.0
11
213.80895
21
140.93493
31
0.0
0
LINE
8
SCORE
10
213.61261
20
140.47510
30
0.0
11
212.43455
21
137.71608
31
0.0
0
LINE
8
SCORE
10
212.23820
20
137.25624
30
0.0
11
211.06015
21
134.49722
31
0.0
0
LINE
8
SCORE
10
210.86380
20
134.03739
30
0.0
11
209.68574
21
131.27837
31
0.0
0
LINE
8
SCORE
10
209.48940
20
130.81853
30
0.0
11
208.31134
21
128.05952
31
0.0
0
LINE
8
SCORE
10
208.11500
20
127.59968
30
0.0
11
206.93694
21
124.84066
31
0.0
0
LINE
8
SCORE
10
206.74060
20
124.38083
30
0.0
11
205.56254
21
121.62181
31
0.0
0
LINE
8
SCORE
10
205.36619
20
121.16197
30
0.0
11
204.18814
21
118.40296
31
0.0
0
LINE
8
SCORE
10
203.99179
20
117.94312
30
0.0
11
202.81373
21
115.18410
31
0.0
0
LINE
8
SCORE
10
202.61739
20
114.72427
30
0.0
11
201.43933
21
111.96525
31
0.0
0
LINE
8
SCORE
10
201.24299
20
111.50541
30
0.0
11
200.06493
21
108.74639
31
0.0
0
LINE
8
SCORE
10
199.86859
20
108.28656
30
0.0
11
198.69053
21
105.52754
31
0.0
0
LINE
8
SCORE
10
198.49418
20
105.06771
30
0.0
11
197.31612
21
102.30869
31
0.0
0
LINE
8
SCORE
10
197.11978
20
101.84885
30
0.0
11
195.94172
21
99.08983
31
0.0
0
LINE
8
SCORE
10
195.74538
20
98.63000
30
0.0
11
194.56732
21
95.87098
31
0.0
0
LINE
8
SCORE
10
194.37098
20
95.41114
30
0.0
11
193.19292
21
92.65213
31
0.0
0
LINE
8
SCORE
10
192.99658
20
92.19229
30
0.0
11
191.81852
21
89.43327
31
0.0
0
LINE
8
SCORE
10
191.62217
20
88.97344
30
0.0
11
190.44411
21
86.21442
31
0.0
0
LINE
8
SCORE
10
190.24777
20
85.75458
30
0.0
11
189.06971
21
82.99557
31
0.0
0
LINE
8
SCORE
10
188.87337
20
82.53573
30
0.0
11
187.69531
21
79.77671
31
0.0
0
LINE
8
SCORE
10
187.49897
20
79.31688
30
0.0
11
186.32091
21
76.55786
31
0.0
0
LINE
8
SCORE
10
186.12456
20
76.09802
30
0.0
11
184.94651
21
73.33900
31
0.0
0
LINE
8
SCORE
10
184.75016
20
72.87917
30
0.0
11
183.57210
21
70.12015
31
0.0
0
LINE
8
SCORE
10
183.37576
20
69.66031
30
0.0
11
182.19770
21
66.90130
31
0.0
0
LINE
8
SCORE
10
182.00136
20
66.44146
30
0.0
11
180.82330
21
63.68244
31
0.0
0
LINE
8
SCORE
10
180.62696
20
63.22261
30
0.0
11
179.44890
21
60.46359
31
0.0
0
LINE
8
SCORE
10
179.25255
20
60.00375
30
0.0
11
178.07450
21
57.24474
31
0.0
0
LINE
8
SCORE
10
177.87815
20
56.78490
30
0.0
11
176.70009
21
54.02588
31
0.0
0
LINE
8
SCORE
10
176.50375
20
53.56605
30
0.0
11
175.32569
21
50.80703
31
0.0
0
LINE
8
SCORE
10
175.12935
20
50.34719
30
0.0
11
173.95129
21
47.58818
31
0.0
0
LINE
8
SCORE
10
173.75495
20
47.12834
30
0.0
11
172.57689
21
44.36932
31
0.0
0
LINE
8
SCORE
10
172.38054
20
43.90949
30
0.0
11
171.20248
21
41.15047
31
0.0
0
LINE
8
SCORE
10
171.00614
20
40.69063
30
0.0
11
169.82808
21
37.93161
31
0.0
0
LINE
8
SCORE
10
169.63174
20
37.47178
30
0.0
11
168.45368
21
34.71276
31
0.0
0
LINE
8
SCORE
10
168.25734
20
34.25292
30
0.0
11
167.07928
21
31.49391
31
0.0
0
LINE
8
SCORE
10
166.88294
20
31.03407
30
0.0
11
166.75853
21
30.74272
31
0.0
0
LINE
8
SCORE
10
97.20429
20
47.52784
30
0.0
11
97.20429
21
50.52784
31
0.0
0
LINE
8
SCORE
10
97.20429
20
51.02784
30
0.0
11
97.20429
21
54.02784
31
0.0
0
LINE
8
SCORE
10
97.20429
20
54.52784
30
0.0
11
97.20429
21
57.52784
31
0.0
0
LINE
8
SCORE
10
97.20429
20
58.02784
30
0.0
11
97.20429
21
61.02784
31
0.0
0
LINE
8
SCORE
10
97.20429
20
61.52784
30
0.0
11
97.20429
21
64.52784
31
0.0
0
LINE
8
SCORE
10
97.20429
20
65.02784
30
0.0
11
97.20429
21
68.02784
31
0.0
0
LINE
8
SCORE
10
97.20429
20
68.52784
30
0.0
11
97.20429
21
71.52784
31
0.0
0
LINE
8
SCORE
10
97.20429
20
72.02784
30
0.0
11
97.20429
21
75.02784
31
0.0
0
LINE
8
SCORE
10
97.20429
20
75.52784
30
0.0
11
97.20429
21
78.52784
31
0.0
0
LINE
8
SCORE
10
97.20429
20
79.02784
30
0.0
11
97.20429
21
82.02784
31
0.0
0
LINE
8
SCORE
10
97.20429
20
82.52784
30
0.0
11
97.20429
21
85.52784
31
0.0
0
LINE
8
SCORE
10
97.20429
20
86.02784
30
0.0
11
97.20429
21
89.02784
31
0.0
0
LINE
8
SCORE
10
97.20429
20
89.52784
30
0.0
11
97.20429
21
92.52784
31
0.0
0
LINE
8
SCORE
10
97.20429
20
93.02784
30
0.0
11
97.20429
21
96.02784
31
0.0
0
LINE
8
SCORE
10
97.20429
20
96.52784
30
0.0
11
97.20429
21
99.52784
31
0.0
0
LINE
8
SCORE
10
97.20429
20
100.02784
30
0.0
11
97.20429
21
103.02784
31
0.0
0
LINE
8
SCORE
10
97.20429
20
103.52784
30
0.0
11
97.20429
21
106.52784
31
0.0
0
LINE
8
SCORE
10
97.20429
20
107.02784
30
0.0
11
97.20429
21
110.02784
31
0.0
0
LINE
8
SCORE
10
97.20429
20
110.52784
30
0.0
11
97.20429
21
113.52784
31
0.0
0
LINE
8
SCORE
10
97.20429
20
114.02784
30
0.0
11
97.20429
21
117.02784
31
0.0
0
LINE
8
SCORE
10
97.20429
20
117.52784
30
0.0
11
97.20429
21
120.52784
31
0.0
0
LINE
8
SCORE
10
97.20429
20
121.02784
30
0.0
11
97.20429
21
124.02784
31
0.0
0
LINE
8
SCORE
10
97.20429
20
124.52784
30
0.0
11
97.20429
21
127.52784
31
0.0
0
LINE
8
SCORE
10
97.20429
20
128.02784
30
0.0
11
97.20429
21
131.02784
31
0.0
0
LINE
8
SCORE
10
97.20429
20
131.52784
30
0.0
11
97.20429
21
134.52784
31
0.0
0
LINE
8
SCORE
10
97.20429
20
135.02784
30
0.0
11
97.20429
21
138.02784
31
0.0
0
LINE
8
SCORE
10
97.20429
20
138.52784
30
0.0
11
97.20429
21
141.52784
31
0.0
0
LINE
8
SCORE
10
97.20429
20
142.02784
30
0.0
11
97.20429
21
145.02784
31
0.0
0
LINE
8
SCORE
10
97.20429
20
145.52784
30
0.0
11
97.20429
21
148.52784
31
0.0
0
LINE
8
SCORE
10
97.20429
20
149.02784
30
0.0
11
97.20429
21
152.02784
31
0.0
0
LINE
8
SCORE
10
97.20429
20
152.52784
30
0.0
11
97.20429
21
155.52784
31
0.0
0
LINE
8
SCORE
10
97.20429
20
156.02784
30
0.0
11
97.20429
21
159.02784
31
0.0
0
LINE
8
SCORE
10
97.20429
20
159.52784
30
0.0
11
97.20429
21
162.52784
31
0.0
0
LINE
8
SCORE
10
97.20429
20
163.02784
30
0.0
11
97.20429
21
166.02784
31
0.0
0
LINE
8
SCORE
10
97.20429
20
166.52784
30
0.0
11
97.20429
21
169.52784
31
0.0
0
LINE
8
SCORE
10
97.20429
20
170.02784
30
0.0
11
97.20429
21
173.02784
31
0.0
0
LINE
8
SCORE
10
97.20429
20
173.52784
30
0.0
11
97.20429
21
176.52784
31
0.0
0
LINE
8
SCORE
10
97.20429
20
177.02784
30
0.0
11
97.20429
21
180.02784
31
0.0
0
LINE
8
SCORE
10
97.20429
20
180.52784
30
0.0
11
97.20429
21
183.52784
31
0.0
0
LINE
8
SCORE
10
97.20429
20
184.02784
30
0.0
11
97.20429
21
187.02784
31
0.0
0
LINE
8
SCORE
10
97.20429
20
187.52784
30
0.0
11
97.20429
21
190.52784
31
0.0
0
LINE
8
SCORE
10
97.20429
20
191.02784
30
0.0
11
97.20429
21
194.02784
31
0.0
0
LINE
8
SCORE
10
97.20429
20
194.52784
30
0.0
11
97.20429
21
197.52784
31
0.0
0
LINE
8
SCORE
10
97.20429
20
198.02784
30
0.0
11
97.20429
21
201.02784
31
0.0
0
LINE
8
SCORE
10
97.20429
20
201.52784
30
0.0
11
97.20429
21
204.52784
31
0.0
0
LINE
8
SCORE
10
97.20429
20
205.02784
30
0.0
11
97.20429
21
208.02784
31
0.0
0
LINE
8
SCORE
10
97.20429
20
208.52784
30
0.0
11
97.20429
21
211.52784
31
0.0
0
LINE
8
SCORE
10
97.20429
20
212.02784
30
0.0
11
97.20429
21
215.02784
31
0.0
0
LINE
8
SCORE
10
97.20429
20
215.52784
30
0.0
11
97.20429
21
218.52784
31
0.0
0
LINE
8
SCORE
10
97.20429
20
219.02784
30
0.0
11
97.20429
21
222.02784
31
0.0
0
LINE
8
SCORE
10
97.20429
20
222.52784
30
0.0
11
97.20429
21
225.52784
31
0.0
0
LINE
8
SCORE
10
97.20429
20
226.02784
30
0.0
11
97.20429
21
229.02784
31
0.0
0
LINE
8
SCORE
10
97.20429
20
229.52784
30
0.0
11
97.20429
21
232.52784
31
0.0
0
LINE
8
SCORE
10
97.20429
20
233.02784
30
0.0
11
97.20429
21
236.02784
31
0.0
0
LINE
8
SCORE
10
97.20429
20
236.52784
30
0.0
11
97.20429
21
239.52784
31
0.0
0
LINE
8
SCORE
10
97.20429
20
240.02784
30
0.0
11
97.20429
21
242.07098
31
0.0
0
LINE
8
SCORE
10
344.04758
20
203.51056
30
0.0
11
341.28856
21
204.68861
31
0.0
0
LINE
8
SCORE
10
340.82873
20
204.88496
30
0.0
11
338.06971
21
206.06302
31
0.0
0
LINE
8
SCORE
10
337.60987
20
206.25936
30
0.0
11
334.85086
21
207.43742
31
0.0
0
LINE
8
SCORE
10
334.39102
20
207.63376
30
0.0
11
331.63200
21
208.81182
31
0.0
0
LINE
8
SCORE
10
331.17217
20
209.00816
30
0.0
11
328.41315
21
210.18622
31
0.0
0
LINE
8
SCORE
10
327.95331
20
210.38257
30
0.0
11
325.19429
21
211.56062
31
0.0
0
LINE
8
SCORE
10
324.73446
20
211.75697
30
0.0
11
321.97544
21
212.93503
31
0.0
0
LINE
8
SCORE
10
321.51560
20
213.13137
30
0.0
11
318.75659
21
214.30943
31
0.0
0
LINE
8
SCORE
10
318.29675
20
214.50577
30
0.0
11
315.53773
21
215.68383
31
0.0
0
LINE
8
SCORE
10
315.07790
20
215.88017
30
0.0
11
312.31888
21
217.05823
31
0.0
0
LINE
8
SCORE
10
311.85904
20
217.25458
30
0.0
11
309.10003
21
218.43264
31
0.0
0
LINE
8
SCORE
10
308.64019
20
218.62898
30
0.0
11
305.88117
21
219.80704
31
0.0
0
LINE
8
SCORE
10
305.42134
20
220.00338
30
0.0
11
302.66232
21
221.18144
31
0.0
0
LINE
8
SCORE
10
302.20248
20
221.37778
30
0.0
11
299.44347
21
222.55584
31
0.0
0
LINE
8
SCORE
10
298.98363
20
222.75219
30
0.0
11
296.22461
21
223.93024
31
0.0
0
LINE
8
SCORE
10
295.76478
20
224.12659
30
0.0
11
293.00576
21
225.30465
31
0.0
0
LINE
8
SCORE
10
292.54592
20
225.50099
30
0.0
11
289.78690
21
226.67905
31
0.0
0
LINE
8
SCORE
10
289.32707
20
226.87539
30
0.0
11
286.56805
21
228.05345
31
0.0
0
LINE
8
SCORE
10
286.10821
20
228.24979
30
0.0
11
283.34920
21
229.42785
31
0.0
0
LINE
8
SCORE
10
282.88936
20
229.62420
30
0.0
11
280.13034
21
230.80225
31
0.0
0
LINE
8
SCORE
10
279.67051
20
230.99860
30
0.0
11
276.91149
21
232.17666
31
0.0
0
LINE
8
SCORE
10
276.45165
20
232.37300
30
0.0
11
273.69264
21
233.55106
31
0.0
0
LINE
8
SCORE
10
273.23280
20
233.74740
30
0.0
11
270.47378
21
234.92546
31
0.0
0
LINE
8
SCORE
10
270.01395
20
235.12180
30
0.0
11
267.25493
21
236.29986
31
0.0
0
LINE
8
SCORE
10
266.79509
20
236.49621
30
0.0
11
264.03608
21
237.67427
31
0.0
0
LINE
8
SCORE
10
263.57624
20
237.87061
30
0.0
11
260.81722
21
239.04867
31
0.0
0
LINE
8
SCORE
10
260.35739
20
239.24501
30
0.0
11
257.59837
21
240.42307
31
0.0
0
LINE
8
SCORE
10
257.13853
20
240.61941
30
0.0
11
255.41020
21
241.35738
31
0.0
0
LINE
8
SCORE2
10
257.59347
20
243.47841
30
0.0
11
166.75853
21
30.74272
31
0.0
0
LINE
8
SCORE2
10
97.20429
20
47.52784
30
0.0
11
97.20429
21
242.07098
31
0.0
0
LINE
8
SCORE2
10
344.04758
20
203.51056
30
0.0
11
255.41020
21
241.35738
31
0.0
0
ENDSEC
0
EOF
