0
SECTION
2
ENTITIES
0
POLYLINE
8
CUT
66
1
70
1
0
VERTEX
8
CUT
10
-0.09843
20
349.25614
30
0.0
0
VERTEX
8
CUT
10
83.55212
20
153.34632
30
0.0
0
VERTEX
8
CUT
10
119.74864
20
124.12778
30
0.0
0
VERTEX
8
CUT
10
172.79040
20
-0.09617
30
0.0
0
VERTEX
8
CUT
10
173.74126
20
0.27299
30
0.0
0
VERTEX
8
CUT
10
175.50784
20
0.95838
30
0.0
0
VERTEX
8
CUT
10
177.27463
20
1.64323
30
0.0
0
VERTEX
8
CUT
10
178.15811
20
1.98545
30
0.0
0
VERTEX
8
CUT
10
179.92522
20
2.66947
30
0.0
0
VERTEX
8
CUT
10
180.80885
20
3.01127
30
0.0
0
VERTEX
8
CUT
10
182.57628
20
3.69444
30
0.0
0
VERTEX
8
CUT
10
184.34393
20
4.37702
30
0.0
0
VERTEX
8
CUT
10
185.22784
20
4.71810
30
0.0
0
VERTEX
8
CUT
10
186.99583
20
5.39980
30
0.0
0
VERTEX
8
CUT
10
187.87990
20
5.74043
30
0.0
0
VERTEX
8
CUT
10
189.64823
20
6.42123
30
0.0
0
VERTEX
8
CUT
10
190.53248
20
6.76141
30
0.0
0
VERTEX
8
CUT
10
192.30116
20
7.44129
30
0.0
0
VERTEX
8
CUT
10
193.18688
20
7.78149
30
0.0
0
VERTEX
8
CUT
10
242.56183
20
28.86385
30
0.0
0
VERTEX
8
CUT
10
242.52858
20
28.94173
30
0.0
0
VERTEX
8
CUT
10
251.33866
20
32.97803
30
0.0
0
VERTEX
8
CUT
10
263.48457
20
37.43225
30
0.0
0
VERTEX
8
CUT
10
275.94102
20
40.92512
30
0.0
0
VERTEX
8
CUT
10
288.63204
20
43.43536
30
0.0
0
VERTEX
8
CUT
10
301.48024
20
44.94766
30
0.0
0
VERTEX
8
CUT
10
313.50393
20
45.41748
30
0.0
0
VERTEX
8
CUT
10
313.50324
20
45.45284
30
0.0
0
VERTEX
8
CUT
10
386.69634
20
45.45284
30
0.0
0
VERTEX
8
CUT
10
386.69634
20
152.51179
30
0.0
0
VERTEX
8
CUT
10
408.51156
20
190.29687
30
0.0
0
VERTEX
8
CUT
10
408.51156
20
244.14598
30
0.0
0
VERTEX
8
CUT
10
298.33834
20
244.14598
30
0.0
0
VERTEX
8
CUT
10
294.13834
20
248.34598
30
0.0
0
VERTEX
8
CUT
10
279.12293
20
248.34598
30
0.0
0
VERTEX
8
CUT
10
274.92293
20
244.14598
30
0.0
0
VERTEX
8
CUT
10
270.78506
20
244.14598
30
0.0
0
VERTEX
8
CUT
10
266.58506
20
248.34598
30
0.0
0
VERTEX
8
CUT
10
255.82913
20
248.34598
30
0.0
0
VERTEX
8
CUT
10
251.62913
20
244.14598
30
0.0
0
VERTEX
8
CUT
10
247.49126
20
244.14598
30
0.0
0
VERTEX
8
CUT
10
243.29126
20
248.34598
30
0.0
0
VERTEX
8
CUT
10
237.87975
20
248.34598
30
0.0
0
VERTEX
8
CUT
10
233.67975
20
244.14598
30
0.0
0
VERTEX
8
CUT
10
229.54188
20
244.14598
30
0.0
0
VERTEX
8
CUT
10
225.34188
20
248.34598
30
0.0
0
VERTEX
8
CUT
10
209.87975
20
248.34598
30
0.0
0
VERTEX
8
CUT
10
205.67975
20
244.14598
30
0.0
0
VERTEX
8
CUT
10
201.54188
20
244.14598
30
0.0
0
VERTEX
8
CUT
10
197.34188
20
248.34598
30
0.0
0
VERTEX
8
CUT
10
187.74655
20
248.34598
30
0.0
0
VERTEX
8
CUT
10
183.54655
20
244.14598
30
0.0
0
VERTEX
8
CUT
10
179.40868
20
244.14598
30
0.0
0
VERTEX
8
CUT
10
175.20868
20
248.34598
30
0.0
0
VERTEX
8
CUT
10
165.61335
20
248.34598
30
0.0
0
VERTEX
8
CUT
10
161.41335
20
244.14598
30
0.0
0
VERTEX
8
CUT
10
150.63960
20
244.14598
30
0.0
0
VERTEX
8
CUT
10
89.43564
20
387.48583
30
0.0
0
VERTEX
8
CUT
10
67.14765
20
377.96920
30
0.0
0
VERTEX
8
CUT
10
66.41997
20
381.11081
30
0.0
0
VERTEX
8
CUT
10
54.11566
20
375.85705
30
0.0
0
VERTEX
8
CUT
10
55.88154
20
373.15874
30
0.0
0
VERTEX
8
CUT
10
36.37563
20
364.83001
30
0.0
0
VERTEX
8
CUT
10
35.64795
20
367.97162
30
0.0
0
VERTEX
8
CUT
10
23.34364
20
362.71786
30
0.0
0
VERTEX
8
CUT
10
25.10952
20
360.01955
30
0.0
0
VERTEX
8
CUT
10
-0.09843
20
349.25614
30
0.0
0
SEQEND
0
POLYLINE
8
CUT
66
1
70
1
0
VERTEX
8
CUT
10
335.49204
20
237.69598
30
0.0
0
VERTEX
8
CUT
10
347.54204
20
237.69598
30
0.0
0
VERTEX
8
CUT
10
347.54204
20
240.92098
30
0.0
0
VERTEX
8
CUT
10
335.49204
20
240.92098
30
0.0
0
VERTEX
8
CUT
10
335.49204
20
237.69598
30
0.0
0
SEQEND
0
POLYLINE
8
CUT
66
1
70
1
0
VERTEX
8
CUT
10
368.95180
20
237.69598
30
0.0
0
VERTEX
8
CUT
10
381.00180
20
237.69598
30
0.0
0
VERTEX
8
CUT
10
381.00180
20
240.92098
30
0.0
0
VERTEX
8
CUT
10
368.95180
20
240.92098
30
0.0
0
VERTEX
8
CUT
10
368.95180
20
237.69598
30
0.0
0
SEQEND
0
LINE
8
SCORE
10
150.05772
20
245.31776
30
0.0
11
150.84309
21
243.47841
31
0.0
0
LINE
8
SCORE
10
151.23577
20
242.55874
30
0.0
11
152.02115
21
240.71939
31
0.0
0
LINE
8
SCORE
10
152.41383
20
239.79972
30
0.0
11
153.19921
21
237.96038
31
0.0
0
LINE
8
SCORE
10
153.59189
20
237.04070
30
0.0
11
154.37727
21
235.20136
31
0.0
0
LINE
8
SCORE
10
154.76995
20
234.28169
30
0.0
11
155.55532
21
232.44234
31
0.0
0
LINE
8
SCORE
10
155.94801
20
231.52267
30
0.0
11
156.73338
21
229.68333
31
0.0
0
LINE
8
SCORE
10
157.12607
20
228.76365
30
0.0
11
157.91144
21
226.92431
31
0.0
0
LINE
8
SCORE
10
158.30413
20
226.00464
30
0.0
11
159.08950
21
224.16529
31
0.0
0
LINE
8
SCORE
10
159.48219
20
223.24562
30
0.0
11
160.26756
21
221.40627
31
0.0
0
LINE
8
SCORE
10
160.66025
20
220.48660
30
0.0
11
161.44562
21
218.64726
31
0.0
0
LINE
8
SCORE
10
161.83831
20
217.72758
30
0.0
11
162.62368
21
215.88824
31
0.0
0
LINE
8
SCORE
10
163.01636
20
214.96857
30
0.0
11
163.80174
21
213.12922
31
0.0
0
LINE
8
SCORE
10
164.19442
20
212.20955
30
0.0
11
164.97980
21
210.37020
31
0.0
0
LINE
8
SCORE
10
165.37248
20
209.45053
30
0.0
11
166.15785
21
207.61119
31
0.0
0
LINE
8
SCORE
10
166.55054
20
206.69151
30
0.0
11
167.33591
21
204.85217
31
0.0
0
LINE
8
SCORE
10
167.72860
20
203.93250
30
0.0
11
168.51397
21
202.09315
31
0.0
0
LINE
8
SCORE
10
168.90666
20
201.17348
30
0.0
11
169.69203
21
199.33413
31
0.0
0
LINE
8
SCORE
10
170.08472
20
198.41446
30
0.0
11
170.87009
21
196.57512
31
0.0
0
LINE
8
SCORE
10
171.26278
20
195.65544
30
0.0
11
172.04815
21
193.81610
31
0.0
0
LINE
8
SCORE
10
172.44084
20
192.89643
30
0.0
11
173.22621
21
191.05708
31
0.0
0
LINE
8
SCORE
10
173.61889
20
190.13741
30
0.0
11
174.40427
21
188.29806
31
0.0
0
LINE
8
SCORE
10
174.79695
20
187.37839
30
0.0
11
175.58233
21
185.53905
31
0.0
0
LINE
8
SCORE
10
175.97501
20
184.61937
30
0.0
11
176.76039
21
182.78003
31
0.0
0
LINE
8
SCORE
10
177.15307
20
181.86036
30
0.0
11
177.93844
21
180.02101
31
0.0
0
LINE
8
SCORE
10
178.33113
20
179.10134
30
0.0
11
179.11650
21
177.26199
31
0.0
0
LINE
8
SCORE
10
179.50919
20
176.34232
30
0.0
11
180.29456
21
174.50298
31
0.0
0
LINE
8
SCORE
10
180.68725
20
173.58330
30
0.0
11
181.47262
21
171.74396
31
0.0
0
LINE
8
SCORE
10
181.86531
20
170.82429
30
0.0
11
182.65068
21
168.98494
31
0.0
0
LINE
8
SCORE
10
183.04337
20
168.06527
30
0.0
11
183.82874
21
166.22592
31
0.0
0
LINE
8
SCORE
10
184.22143
20
165.30625
30
0.0
11
185.00680
21
163.46691
31
0.0
0
LINE
8
SCORE
10
185.39948
20
162.54723
30
0.0
11
186.18486
21
160.70789
31
0.0
0
LINE
8
SCORE
10
186.57754
20
159.78822
30
0.0
11
187.36292
21
157.94887
31
0.0
0
LINE
8
SCORE
10
187.75560
20
157.02920
30
0.0
11
188.54097
21
155.18985
31
0.0
0
LINE
8
SCORE
10
188.93366
20
154.27018
30
0.0
11
189.71903
21
152.43084
31
0.0
0
LINE
8
SCORE
10
190.11172
20
151.51116
30
0.0
11
190.89709
21
149.67182
31
0.0
0
LINE
8
SCORE
10
191.28978
20
148.75215
30
0.0
11
192.07515
21
146.91280
31
0.0
0
LINE
8
SCORE
10
192.46784
20
145.99313
30
0.0
11
193.25321
21
144.15379
31
0.0
0
LINE
8
SCORE
10
193.64590
20
143.23411
30
0.0
11
194.43127
21
141.39477
31
0.0
0
LINE
8
SCORE
10
194.82396
20
140.47510
30
0.0
11
195.60933
21
138.63575
31
0.0
0
LINE
8
SCORE
10
196.00201
20
137.71608
30
0.0
11
196.78739
21
135.87673
31
0.0
0
LINE
8
SCORE
10
197.18007
20
134.95706
30
0.0
11
197.96545
21
133.11772
31
0.0
0
LINE
8
SCORE
10
198.35813
20
132.19804
30
0.0
11
199.14351
21
130.35870
31
0.0
0
LINE
8
SCORE
10
199.53619
20
129.43903
30
0.0
11
200.32156
21
127.59968
31
0.0
0
LINE
8
SCORE
10
200.71425
20
126.68001
30
0.0
11
201.49962
21
124.84066
31
0.0
0
LINE
8
SCORE
10
201.89231
20
123.92099
30
0.0
11
202.67768
21
122.08165
31
0.0
0
LINE
8
SCORE
10
203.07037
20
121.16197
30
0.0
11
203.85574
21
119.32263
31
0.0
0
LINE
8
SCORE
10
204.24843
20
118.40296
30
0.0
11
205.03380
21
116.56361
31
0.0
0
LINE
8
SCORE
10
205.42649
20
115.64394
30
0.0
11
206.21186
21
113.80459
31
0.0
0
LINE
8
SCORE
10
206.60455
20
112.88492
30
0.0
11
207.38992
21
111.04558
31
0.0
0
LINE
8
SCORE
10
207.78260
20
110.12590
30
0.0
11
208.56798
21
108.28656
31
0.0
0
LINE
8
SCORE
10
208.96066
20
107.36689
30
0.0
11
209.74604
21
105.52754
31
0.0
0
LINE
8
SCORE
10
210.13872
20
104.60787
30
0.0
11
210.92409
21
102.76852
31
0.0
0
LINE
8
SCORE
10
211.31678
20
101.84885
30
0.0
11
212.10215
21
100.00951
31
0.0
0
LINE
8
SCORE
10
212.49484
20
99.08983
30
0.0
11
213.28021
21
97.25049
31
0.0
0
LINE
8
SCORE
10
213.67290
20
96.33082
30
0.0
11
214.45827
21
94.49147
31
0.0
0
LINE
8
SCORE
10
214.85096
20
93.57180
30
0.0
11
215.63633
21
91.73245
31
0.0
0
LINE
8
SCORE
10
216.02902
20
90.81278
30
0.0
11
216.81439
21
88.97344
31
0.0
0
LINE
8
SCORE
10
217.20708
20
88.05376
30
0.0
11
217.99245
21
86.21442
31
0.0
0
LINE
8
SCORE
10
218.38513
20
85.29475
30
0.0
11
219.17051
21
83.45540
31
0.0
0
LINE
8
SCORE
10
219.56319
20
82.53573
30
0.0
11
220.34857
21
80.69638
31
0.0
0
LINE
8
SCORE
10
220.74125
20
79.77671
30
0.0
11
221.52663
21
77.93737
31
0.0
0
LINE
8
SCORE
10
221.91931
20
77.01769
30
0.0
11
222.70468
21
75.17835
31
0.0
0
LINE
8
SCORE
10
223.09737
20
74.25868
30
0.0
11
223.88274
21
72.41933
31
0.0
0
LINE
8
SCORE
10
224.27543
20
71.49966
30
0.0
11
225.06080
21
69.66031
31
0.0
0
LINE
8
SCORE
10
225.45349
20
68.74064
30
0.0
11
226.23886
21
66.90130
31
0.0
0
LINE
8
SCORE
10
226.63155
20
65.98162
30
0.0
11
227.41692
21
64.14228
31
0.0
0
LINE
8
SCORE
10
227.80961
20
63.22261
30
0.0
11
228.59498
21
61.38326
31
0.0
0
LINE
8
SCORE
10
228.98767
20
60.46359
30
0.0
11
229.77304
21
58.62425
31
0.0
0
LINE
8
SCORE
10
230.16572
20
57.70457
30
0.0
11
230.95110
21
55.86523
31
0.0
0
LINE
8
SCORE
10
231.34378
20
54.94556
30
0.0
11
232.12916
21
53.10621
31
0.0
0
LINE
8
SCORE
10
232.52184
20
52.18654
30
0.0
11
233.30721
21
50.34719
31
0.0
0
LINE
8
SCORE
10
233.69990
20
49.42752
30
0.0
11
234.48527
21
47.58818
31
0.0
0
LINE
8
SCORE
10
234.87796
20
46.66850
30
0.0
11
235.66333
21
44.82916
31
0.0
0
LINE
8
SCORE
10
236.05602
20
43.90949
30
0.0
11
236.84139
21
42.07014
31
0.0
0
LINE
8
SCORE
10
237.23408
20
41.15047
30
0.0
11
238.01945
21
39.31112
31
0.0
0
LINE
8
SCORE
10
238.41214
20
38.39145
30
0.0
11
239.19751
21
36.55211
31
0.0
0
LINE
8
SCORE
10
239.59020
20
35.63243
30
0.0
11
240.37557
21
33.79309
31
0.0
0
LINE
8
SCORE
10
240.76825
20
32.87342
30
0.0
11
241.55363
21
31.03407
31
0.0
0
LINE
8
SCORE
10
241.94631
20
30.11440
30
0.0
11
242.46340
21
28.90338
31
0.0
0
LINE
8
SCORE
10
311.23227
20
45.52784
30
0.0
11
311.23227
21
47.52784
31
0.0
0
LINE
8
SCORE
10
311.23227
20
48.52784
30
0.0
11
311.23227
21
50.52784
31
0.0
0
LINE
8
SCORE
10
311.23227
20
51.52784
30
0.0
11
311.23227
21
53.52784
31
0.0
0
LINE
8
SCORE
10
311.23227
20
54.52784
30
0.0
11
311.23227
21
56.52784
31
0.0
0
LINE
8
SCORE
10
311.23227
20
57.52784
30
0.0
11
311.23227
21
59.52784
31
0.0
0
LINE
8
SCORE
10
311.23227
20
60.52784
30
0.0
11
311.23227
21
62.52784
31
0.0
0
LINE
8
SCORE
10
311.23227
20
63.52784
30
0.0
11
311.23227
21
65.52784
31
0.0
0
LINE
8
SCORE
10
311.23227
20
66.52784
30
0.0
11
311.23227
21
68.52784
31
0.0
0
LINE
8
SCORE
10
311.23227
20
69.52784
30
0.0
11
311.23227
21
71.52784
31
0.0
0
LINE
8
SCORE
10
311.23227
20
72.52784
30
0.0
11
311.23227
21
74.52784
31
0.0
0
LINE
8
SCORE
10
311.23227
20
75.52784
30
0.0
11
311.23227
21
77.52784
31
0.0
0
LINE
8
SCORE
10
311.23227
20
78.52784
30
0.0
11
311.23227
21
80.52784
31
0.0
0
LINE
8
SCORE
10
311.23227
20
81.52784
30
0.0
11
311.23227
21
83.52784
31
0.0
0
LINE
8
SCORE
10
311.23227
20
84.52784
30
0.0
11
311.23227
21
86.52784
31
0.0
0
LINE
8
SCORE
10
311.23227
20
87.52784
30
0.0
11
311.23227
21
89.52784
31
0.0
0
LINE
8
SCORE
10
311.23227
20
90.52784
30
0.0
11
311.23227
21
92.52784
31
0.0
0
LINE
8
SCORE
10
311.23227
20
93.52784
30
0.0
11
311.23227
21
95.52784
31
0.0
0
LINE
8
SCORE
10
311.23227
20
96.52784
30
0.0
11
311.23227
21
98.52784
31
0.0
0
LINE
8
SCORE
10
311.23227
20
99.52784
30
0.0
11
311.23227
21
101.52784
31
0.0
0
LINE
8
SCORE
10
311.23227
20
102.52784
30
0.0
11
311.23227
21
104.52784
31
0.0
0
LINE
8
SCORE
10
311.23227
20
105.52784
30
0.0
11
311.23227
21
107.52784
31
0.0
0
LINE
8
SCORE
10
311.23227
20
108.52784
30
0.0
11
311.23227
21
110.52784
31
0.0
0
LINE
8
SCORE
10
311.23227
20
111.52784
30
0.0
11
311.23227
21
113.52784
31
0.0
0
LINE
8
SCORE
10
311.23227
20
114.52784
30
0.0
11
311.23227
21
116.52784
31
0.0
0
LINE
8
SCORE
10
311.23227
20
117.52784
30
0.0
11
311.23227
21
119.52784
31
0.0
0
LINE
8
SCORE
10
311.23227
20
120.52784
30
0.0
11
311.23227
21
122.52784
31
0.0
0
LINE
8
SCORE
10
311.23227
20
123.52784
30
0.0
11
311.23227
21
125.52784
31
0.0
0
LINE
8
SCORE
10
311.23227
20
126.52784
30
0.0
11
311.23227
21
128.52784
31
0.0
0
LINE
8
SCORE
10
311.23227
20
129.52784
30
0.0
11
311.23227
21
131.52784
31
0.0
0
LINE
8
SCORE
10
311.23227
20
132.52784
30
0.0
11
311.23227
21
134.52784
31
0.0
0
LINE
8
SCORE
10
311.23227
20
135.52784
30
0.0
11
311.23227
21
137.52784
31
0.0
0
LINE
8
SCORE
10
311.23227
20
138.52784
30
0.0
11
311.23227
21
140.52784
31
0.0
0
LINE
8
SCORE
10
311.23227
20
141.52784
30
0.0
11
311.23227
21
143.52784
31
0.0
0
LINE
8
SCORE
10
311.23227
20
144.52784
30
0.0
11
311.23227
21
146.52784
31
0.0
0
LINE
8
SCORE
10
311.23227
20
147.52784
30
0.0
11
311.23227
21
149.52784
31
0.0
0
LINE
8
SCORE
10
311.23227
20
150.52784
30
0.0
11
311.23227
21
152.52784
31
0.0
0
LINE
8
SCORE
10
311.23227
20
153.52784
30
0.0
11
311.23227
21
155.52784
31
0.0
0
LINE
8
SCORE
10
311.23227
20
156.52784
30
0.0
11
311.23227
21
158.52784
31
0.0
0
LINE
8
SCORE
10
311.23227
20
159.52784
30
0.0
11
311.23227
21
161.52784
31
0.0
0
LINE
8
SCORE
10
311.23227
20
162.52784
30
0.0
11
311.23227
21
164.52784
31
0.0
0
LINE
8
SCORE
10
311.23227
20
165.52784
30
0.0
11
311.23227
21
167.52784
31
0.0
0
LINE
8
SCORE
10
311.23227
20
168.52784
30
0.0
11
311.23227
21
170.52784
31
0.0
0
LINE
8
SCORE
10
311.23227
20
171.52784
30
0.0
11
311.23227
21
173.52784
31
0.0
0
LINE
8
SCORE
10
311.23227
20
174.52784
30
0.0
11
311.23227
21
176.52784
31
0.0
0
LINE
8
SCORE
10
311.23227
20
177.52784
30
0.0
11
311.23227
21
179.52784
31
0.0
0
LINE
8
SCORE
10
311.23227
20
180.52784
30
0.0
11
311.23227
21
182.52784
31
0.0
0
LINE
8
SCORE
10
311.23227
20
183.52784
30
0.0
11
311.23227
21
185.52784
31
0.0
0
LINE
8
SCORE
10
311.23227
20
186.52784
30
0.0
11
311.23227
21
188.52784
31
0.0
0
LINE
8
SCORE
10
311.23227
20
189.52784
30
0.0
11
311.23227
21
191.52784
31
0.0
0
LINE
8
SCORE
10
311.23227
20
192.52784
30
0.0
11
311.23227
21
194.52784
31
0.0
0
LINE
8
SCORE
10
311.23227
20
195.52784
30
0.0
11
311.23227
21
197.52784
31
0.0
0
LINE
8
SCORE
10
311.23227
20
198.52784
30
0.0
11
311.23227
21
200.52784
31
0.0
0
LINE
8
SCORE
10
311.23227
20
201.52784
30
0.0
11
311.23227
21
203.52784
31
0.0
0
LINE
8
SCORE
10
311.23227
20
204.52784
30
0.0
11
311.23227
21
206.52784
31
0.0
0
LINE
8
SCORE
10
311.23227
20
207.52784
30
0.0
11
311.23227
21
209.52784
31
0.0
0
LINE
8
SCORE
10
311.23227
20
210.52784
30
0.0
11
311.23227
21
212.52784
31
0.0
0
LINE
8
SCORE
10
311.23227
20
213.52784
30
0.0
11
311.23227
21
215.52784
31
0.0
0
LINE
8
SCORE
10
311.23227
20
216.52784
30
0.0
11
311.23227
21
218.52784
31
0.0
0
LINE
8
SCORE
10
311.23227
20
219.52784
30
0.0
11
311.23227
21
221.52784
31
0.0
0
LINE
8
SCORE
10
311.23227
20
222.52784
30
0.0
11
311.23227
21
224.52784
31
0.0
0
LINE
8
SCORE
10
311.23227
20
225.52784
30
0.0
11
311.23227
21
227.52784
31
0.0
0
LINE
8
SCORE
10
311.23227
20
228.52784
30
0.0
11
311.23227
21
230.52784
31
0.0
0
LINE
8
SCORE
10
311.23227
20
231.52784
30
0.0
11
311.23227
21
233.52784
31
0.0
0
LINE
8
SCORE
10
311.23227
20
234.52784
30
0.0
11
311.23227
21
236.52784
31
0.0
0
LINE
8
SCORE
10
311.23227
20
237.52784
30
0.0
11
311.23227
21
239.52784
31
0.0
0
LINE
8
SCORE
10
311.23227
20
240.52784
30
0.0
11
311.23227
21
242.52784
31
0.0
0
LINE
8
SCORE
10
311.23227
20
243.52784
30
0.0
11
311.23227
21
244.07098
31
0.0
0
LINE
8
SCORE
10
62.54964
20
202.72518
30
0.0
11
64.38898
21
203.51056
31
0.0
0
LINE
8
SCORE
10
65.30866
20
203.90324
30
0.0
11
67.14800
21
204.68861
31
0.0
0
LINE
8
SCORE
10
68.06767
20
205.08130
30
0.0
11
69.90702
21
205.86667
31
0.0
0
LINE
8
SCORE
10
70.82669
20
206.25936
30
0.0
11
72.66603
21
207.04473
31
0.0
0
LINE
8
SCORE
10
73.58571
20
207.43742
30
0.0
11
75.42505
21
208.22279
31
0.0
0
LINE
8
SCORE
10
76.34472
20
208.61548
30
0.0
11
78.18407
21
209.40085
31
0.0
0
LINE
8
SCORE
10
79.10374
20
209.79354
30
0.0
11
80.94309
21
210.57891
31
0.0
0
LINE
8
SCORE
10
81.86276
20
210.97160
30
0.0
11
83.70210
21
211.75697
31
0.0
0
LINE
8
SCORE
10
84.62178
20
212.14965
30
0.0
11
86.46112
21
212.93503
31
0.0
0
LINE
8
SCORE
10
87.38079
20
213.32771
30
0.0
11
89.22014
21
214.11309
31
0.0
0
LINE
8
SCORE
10
90.13981
20
214.50577
30
0.0
11
91.97916
21
215.29114
31
0.0
0
LINE
8
SCORE
10
92.89883
20
215.68383
30
0.0
11
94.73817
21
216.46920
31
0.0
0
LINE
8
SCORE
10
95.65785
20
216.86189
30
0.0
11
97.49719
21
217.64726
31
0.0
0
LINE
8
SCORE
10
98.41686
20
218.03995
30
0.0
11
100.25621
21
218.82532
31
0.0
0
LINE
8
SCORE
10
101.17588
20
219.21801
30
0.0
11
103.01523
21
220.00338
31
0.0
0
LINE
8
SCORE
10
103.93490
20
220.39607
30
0.0
11
105.77424
21
221.18144
31
0.0
0
LINE
8
SCORE
10
106.69392
20
221.57413
30
0.0
11
108.53326
21
222.35950
31
0.0
0
LINE
8
SCORE
10
109.45293
20
222.75219
30
0.0
11
111.29228
21
223.53756
31
0.0
0
LINE
8
SCORE
10
112.21195
20
223.93024
30
0.0
11
114.05130
21
224.71562
31
0.0
0
LINE
8
SCORE
10
114.97097
20
225.10830
30
0.0
11
116.81031
21
225.89368
31
0.0
0
LINE
8
SCORE
10
117.72999
20
226.28636
30
0.0
11
119.56933
21
227.07173
31
0.0
0
LINE
8
SCORE
10
120.48900
20
227.46442
30
0.0
11
122.32835
21
228.24979
31
0.0
0
LINE
8
SCORE
10
123.24802
20
228.64248
30
0.0
11
125.08737
21
229.42785
31
0.0
0
LINE
8
SCORE
10
126.00704
20
229.82054
30
0.0
11
127.84638
21
230.60591
31
0.0
0
LINE
8
SCORE
10
128.76606
20
230.99860
30
0.0
11
130.60540
21
231.78397
31
0.0
0
LINE
8
SCORE
10
131.52507
20
232.17666
30
0.0
11
133.36442
21
232.96203
31
0.0
0
LINE
8
SCORE
10
134.28409
20
233.35472
30
0.0
11
136.12344
21
234.14009
31
0.0
0
LINE
8
SCORE
10
137.04311
20
234.53277
30
0.0
11
138.88245
21
235.31815
31
0.0
0
LINE
8
SCORE
10
139.80213
20
235.71083
30
0.0
11
141.64147
21
236.49621
31
0.0
0
LINE
8
SCORE
10
142.56114
20
236.88889
30
0.0
11
144.40049
21
237.67427
31
0.0
0
LINE
8
SCORE
10
145.32016
20
238.06695
30
0.0
11
147.15951
21
238.85232
31
0.0
0
LINE
8
SCORE
10
148.07918
20
239.24501
30
0.0
11
149.91852
21
240.03038
31
0.0
0
LINE
8
SCORE
10
150.83820
20
240.42307
30
0.0
11
152.67754
21
241.20844
31
0.0
0
LINE
8
SCORE
10
153.59721
20
241.60113
30
0.0
11
154.86571
21
242.14276
31
0.0
0
LINE
8
SCORE2
10
150.05772
20
245.31776
30
0.0
11
242.46340
21
28.90338
31
0.0
0
LINE
8
SCORE2
10
311.23227
20
45.52784
30
0.0
11
311.23227
21
244.07098
31
0.0
0
LINE
8
SCORE2
10
62.54964
20
202.72518
30
0.0
11
154.86571
21
242.14276
31
0.0
0
ENDSEC
0
EOF
