0
SECTION
2
ENTITIES
0
POLYLINE
8
CUT
66
1
70
1
0
VERTEX
8
CUT
10
-0.07698
20
160.19078
30
0.0
0
VERTEX
8
CUT
10
16.48820
20
119.51172
30
0.0
0
VERTEX
8
CUT
10
8.09464
20
56.79929
30
0.0
0
VERTEX
8
CUT
10
80.01643
20
47.17313
30
0.0
0
VERTEX
8
CUT
10
80.01280
20
47.15219
30
0.0
0
VERTEX
8
CUT
10
95.45436
20
43.86429
30
0.0
0
VERTEX
8
CUT
10
110.83077
20
39.21359
30
0.0
0
VERTEX
8
CUT
10
125.76327
20
33.29042
30
0.0
0
VERTEX
8
CUT
10
137.23862
20
27.58289
30
0.0
0
VERTEX
8
CUT
10
137.16458
20
27.40948
30
0.0
0
VERTEX
8
CUT
10
152.29212
20
20.95024
30
0.0
0
VERTEX
8
CUT
10
154.69814
20
20.04788
30
0.0
0
VERTEX
8
CUT
10
157.10211
20
19.14488
30
0.0
0
VERTEX
8
CUT
10
159.50561
20
18.24068
30
0.0
0
VERTEX
8
CUT
10
161.90866
20
17.33529
30
0.0
0
VERTEX
8
CUT
10
164.31127
20
16.42873
30
0.0
0
VERTEX
8
CUT
10
166.71343
20
15.52101
30
0.0
0
VERTEX
8
CUT
10
169.11517
20
14.61215
30
0.0
0
VERTEX
8
CUT
10
171.51648
20
13.70218
30
0.0
0
VERTEX
8
CUT
10
173.91737
20
12.79110
30
0.0
0
VERTEX
8
CUT
10
176.31784
20
11.87894
30
0.0
0
VERTEX
8
CUT
10
178.71791
20
10.96571
30
0.0
0
VERTEX
8
CUT
10
181.11758
20
10.05143
30
0.0
0
VERTEX
8
CUT
10
183.51686
20
9.13612
30
0.0
0
VERTEX
8
CUT
10
185.91575
20
8.21979
30
0.0
0
VERTEX
8
CUT
10
188.31426
20
7.30247
30
0.0
0
VERTEX
8
CUT
10
190.71240
20
6.38416
30
0.0
0
VERTEX
8
CUT
10
193.11018
20
5.46489
30
0.0
0
VERTEX
8
CUT
10
195.50759
20
4.54468
30
0.0
0
VERTEX
8
CUT
10
197.90465
20
3.62354
30
0.0
0
VERTEX
8
CUT
10
200.30136
20
2.70149
30
0.0
0
VERTEX
8
CUT
10
202.69774
20
1.77854
30
0.0
0
VERTEX
8
CUT
10
205.09378
20
0.85472
30
0.0
0
VERTEX
8
CUT
10
207.55705
20
-0.09604
30
0.0
0
VERTEX
8
CUT
10
242.41340
20
81.53762
30
0.0
0
VERTEX
8
CUT
10
278.60992
20
110.75616
30
0.0
0
VERTEX
8
CUT
10
341.57927
20
258.23054
30
0.0
0
VERTEX
8
CUT
10
252.04506
20
296.45989
30
0.0
0
VERTEX
8
CUT
10
211.52244
20
201.55581
30
0.0
0
VERTEX
8
CUT
10
200.74869
20
201.55581
30
0.0
0
VERTEX
8
CUT
10
196.54869
20
205.75581
30
0.0
0
VERTEX
8
CUT
10
186.95336
20
205.75581
30
0.0
0
VERTEX
8
CUT
10
182.75336
20
201.55581
30
0.0
0
VERTEX
8
CUT
10
178.61549
20
201.55581
30
0.0
0
VERTEX
8
CUT
10
174.41549
20
205.75581
30
0.0
0
VERTEX
8
CUT
10
164.82016
20
205.75581
30
0.0
0
VERTEX
8
CUT
10
160.62016
20
201.55581
30
0.0
0
VERTEX
8
CUT
10
156.48230
20
201.55581
30
0.0
0
VERTEX
8
CUT
10
152.28230
20
205.75581
30
0.0
0
VERTEX
8
CUT
10
136.82016
20
205.75581
30
0.0
0
VERTEX
8
CUT
10
132.62016
20
201.55581
30
0.0
0
VERTEX
8
CUT
10
128.48230
20
201.55581
30
0.0
0
VERTEX
8
CUT
10
124.28230
20
205.75581
30
0.0
0
VERTEX
8
CUT
10
118.87078
20
205.75581
30
0.0
0
VERTEX
8
CUT
10
114.67078
20
201.55581
30
0.0
0
VERTEX
8
CUT
10
100.39888
20
201.55581
30
0.0
0
VERTEX
8
CUT
10
100.39887
20
201.55567
30
0.0
0
VERTEX
8
CUT
10
7.13016
20
214.03890
30
0.0
0
VERTEX
8
CUT
10
-0.07698
20
160.19078
30
0.0
0
SEQEND
0
LINE
8
SCORE
10
212.10433
20
202.72759
30
0.0
11
210.92627
21
199.96858
31
0.0
0
LINE
8
SCORE
10
209.74821
20
197.20956
30
0.0
11
208.57015
21
194.45054
31
0.0
0
LINE
8
SCORE
10
207.39209
20
191.69152
30
0.0
11
206.21403
21
188.93251
31
0.0
0
LINE
8
SCORE
10
205.03597
20
186.17349
30
0.0
11
203.85791
21
183.41447
31
0.0
0
LINE
8
SCORE
10
202.67986
20
180.65545
30
0.0
11
201.50180
21
177.89644
31
0.0
0
LINE
8
SCORE
10
200.32374
20
175.13742
30
0.0
11
199.14568
21
172.37840
31
0.0
0
LINE
8
SCORE
10
197.96762
20
169.61938
30
0.0
11
196.78956
21
166.86037
31
0.0
0
LINE
8
SCORE
10
195.61150
20
164.10135
30
0.0
11
194.43344
21
161.34233
31
0.0
0
LINE
8
SCORE
10
193.25538
20
158.58332
30
0.0
11
192.07732
21
155.82430
31
0.0
0
LINE
8
SCORE
10
190.89927
20
153.06528
30
0.0
11
189.72121
21
150.30626
31
0.0
0
LINE
8
SCORE
10
188.54315
20
147.54725
30
0.0
11
187.36509
21
144.78823
31
0.0
0
LINE
8
SCORE
10
186.18703
20
142.02921
30
0.0
11
185.00897
21
139.27019
31
0.0
0
LINE
8
SCORE
10
183.83091
20
136.51118
30
0.0
11
182.65285
21
133.75216
31
0.0
0
LINE
8
SCORE
10
181.47479
20
130.99314
30
0.0
11
180.29674
21
128.23412
31
0.0
0
LINE
8
SCORE
10
179.11868
20
125.47511
30
0.0
11
177.94062
21
122.71609
31
0.0
0
LINE
8
SCORE
10
176.76256
20
119.95707
30
0.0
11
175.58450
21
117.19805
31
0.0
0
LINE
8
SCORE
10
174.40644
20
114.43904
30
0.0
11
173.22838
21
111.68002
31
0.0
0
LINE
8
SCORE
10
172.05032
20
108.92100
30
0.0
11
170.87226
21
106.16198
31
0.0
0
LINE
8
SCORE
10
169.69420
20
103.40297
30
0.0
11
168.51615
21
100.64395
31
0.0
0
LINE
8
SCORE
10
167.33809
20
97.88493
30
0.0
11
166.16003
21
95.12591
31
0.0
0
LINE
8
SCORE
10
164.98197
20
92.36690
30
0.0
11
163.80391
21
89.60788
31
0.0
0
LINE
8
SCORE
10
162.62585
20
86.84886
30
0.0
11
161.44779
21
84.08985
31
0.0
0
LINE
8
SCORE
10
160.26973
20
81.33083
30
0.0
11
159.09167
21
78.57181
31
0.0
0
LINE
8
SCORE
10
157.91362
20
75.81279
30
0.0
11
156.73556
21
73.05378
31
0.0
0
LINE
8
SCORE
10
155.55750
20
70.29476
30
0.0
11
154.37944
21
67.53574
31
0.0
0
LINE
8
SCORE
10
153.20138
20
64.77672
30
0.0
11
152.02332
21
62.01771
31
0.0
0
LINE
8
SCORE
10
150.84526
20
59.25869
30
0.0
11
149.66720
21
56.49967
31
0.0
0
LINE
8
SCORE
10
148.48914
20
53.74065
30
0.0
11
147.31108
21
50.98164
31
0.0
0
LINE
8
SCORE
10
146.13303
20
48.22262
30
0.0
11
144.95497
21
45.46360
31
0.0
0
LINE
8
SCORE
10
143.77691
20
42.70458
30
0.0
11
142.59885
21
39.94557
31
0.0
0
LINE
8
SCORE
10
141.42079
20
37.18655
30
0.0
11
140.24273
21
34.42753
31
0.0
0
LINE
8
SCORE
10
139.06467
20
31.66851
30
0.0
11
137.88661
21
28.90950
31
0.0
0
LINE
8
SCORE
10
103.53974
20
201.05962
30
0.0
11
103.14176
21
198.08614
31
0.0
0
LINE
8
SCORE
10
102.74378
20
195.11265
30
0.0
11
102.34581
21
192.13917
31
0.0
0
LINE
8
SCORE
10
101.94783
20
189.16568
30
0.0
11
101.54985
21
186.19220
31
0.0
0
LINE
8
SCORE
10
101.15187
20
183.21871
30
0.0
11
100.75390
21
180.24523
31
0.0
0
LINE
8
SCORE
10
100.35592
20
177.27174
30
0.0
11
99.95794
21
174.29826
31
0.0
0
LINE
8
SCORE
10
99.55997
20
171.32477
30
0.0
11
99.16199
21
168.35129
31
0.0
0
LINE
8
SCORE
10
98.76401
20
165.37780
30
0.0
11
98.36603
21
162.40432
31
0.0
0
LINE
8
SCORE
10
97.96806
20
159.43083
30
0.0
11
97.57008
21
156.45735
31
0.0
0
LINE
8
SCORE
10
97.17210
20
153.48386
30
0.0
11
96.77412
21
150.51038
31
0.0
0
LINE
8
SCORE
10
96.37615
20
147.53689
30
0.0
11
95.97817
21
144.56341
31
0.0
0
LINE
8
SCORE
10
95.58019
20
141.58992
30
0.0
11
95.18221
21
138.61644
31
0.0
0
LINE
8
SCORE
10
94.78424
20
135.64295
30
0.0
11
94.38626
21
132.66947
31
0.0
0
LINE
8
SCORE
10
93.98828
20
129.69598
30
0.0
11
93.59031
21
126.72249
31
0.0
0
LINE
8
SCORE
10
93.19233
20
123.74901
30
0.0
11
92.79435
21
120.77552
31
0.0
0
LINE
8
SCORE
10
92.39637
20
117.80204
30
0.0
11
91.99840
21
114.82855
31
0.0
0
LINE
8
SCORE
10
91.60042
20
111.85507
30
0.0
11
91.20244
21
108.88158
31
0.0
0
LINE
8
SCORE
10
90.80446
20
105.90810
30
0.0
11
90.40649
21
102.93461
31
0.0
0
LINE
8
SCORE
10
90.00851
20
99.96113
30
0.0
11
89.61053
21
96.98764
31
0.0
0
LINE
8
SCORE
10
89.21255
20
94.01416
30
0.0
11
88.81458
21
91.04067
31
0.0
0
LINE
8
SCORE
10
88.41660
20
88.06719
30
0.0
11
88.01862
21
85.09370
31
0.0
0
LINE
8
SCORE
10
87.62065
20
82.12022
30
0.0
11
87.22267
21
79.14673
31
0.0
0
LINE
8
SCORE
10
86.82469
20
76.17325
30
0.0
11
86.42671
21
73.19976
31
0.0
0
LINE
8
SCORE
10
86.02874
20
70.22628
30
0.0
11
85.63076
21
67.25279
31
0.0
0
LINE
8
SCORE
10
85.23278
20
64.27931
30
0.0
11
84.83480
21
61.30582
31
0.0
0
LINE
8
SCORE
10
84.43683
20
58.33234
30
0.0
11
84.03885
21
55.35885
31
0.0
0
LINE
8
SCORE
10
83.64087
20
52.38537
30
0.0
11
83.24290
21
49.41188
31
0.0
0
LINE
8
SCORE
10
299.61240
20
160.13502
30
0.0
11
296.85339
21
161.31308
31
0.0
0
LINE
8
SCORE
10
294.09437
20
162.49114
30
0.0
11
291.33535
21
163.66920
31
0.0
0
LINE
8
SCORE
10
288.57633
20
164.84726
30
0.0
11
285.81732
21
166.02531
31
0.0
0
LINE
8
SCORE
10
283.05830
20
167.20337
30
0.0
11
280.29928
21
168.38143
31
0.0
0
LINE
8
SCORE
10
277.54027
20
169.55949
30
0.0
11
274.78125
21
170.73755
31
0.0
0
LINE
8
SCORE
10
272.02223
20
171.91561
30
0.0
11
269.26321
21
173.09367
31
0.0
0
LINE
8
SCORE
10
266.50420
20
174.27173
30
0.0
11
263.74518
21
175.44979
31
0.0
0
LINE
8
SCORE
10
260.98616
20
176.62785
30
0.0
11
258.22714
21
177.80590
31
0.0
0
LINE
8
SCORE
10
255.46813
20
178.98396
30
0.0
11
252.70911
21
180.16202
31
0.0
0
LINE
8
SCORE
10
249.95009
20
181.34008
30
0.0
11
247.19107
21
182.51814
31
0.0
0
LINE
8
SCORE
10
244.43206
20
183.69620
30
0.0
11
241.67304
21
184.87426
31
0.0
0
LINE
8
SCORE
10
238.91402
20
186.05232
30
0.0
11
236.15500
21
187.23038
31
0.0
0
LINE
8
SCORE
10
233.39599
20
188.40843
30
0.0
11
230.63697
21
189.58649
31
0.0
0
LINE
8
SCORE
10
227.87795
20
190.76455
30
0.0
11
225.11893
21
191.94261
31
0.0
0
LINE
8
SCORE
10
222.35992
20
193.12067
30
0.0
11
219.60090
21
194.29873
31
0.0
0
LINE
8
SCORE
10
216.84188
20
195.47679
30
0.0
11
214.08286
21
196.65485
31
0.0
0
LINE
8
SCORE
10
211.32385
20
197.83291
30
0.0
11
208.56483
21
199.01097
31
0.0
0
LINE
8
SCORE2
10
212.10433
20
202.72759
30
0.0
11
137.26300
21
27.44900
31
0.0
0
LINE
8
SCORE2
10
103.53974
20
201.05962
30
0.0
11
82.90170
21
46.86262
31
0.0
0
LINE
8
SCORE2
10
299.61240
20
160.13502
30
0.0
11
207.29633
21
199.55259
31
0.0
0
ENDSEC
0
EOF
