0
SECTION
2
ENTITIES
0
POLYLINE
8
CUT
66
1
70
1
0
VERTEX
8
CUT
10
-0.07546
20
224.97454
30
0.0
0
VERTEX
8
CUT
10
5.72501
20
2.41284
30
0.0
0
VERTEX
8
CUT
10
32.52560
20
3.11132
30
0.0
0
VERTEX
8
CUT
10
32.04407
20
-0.07731
30
0.0
0
VERTEX
8
CUT
10
45.41855
20
0.27126
30
0.0
0
VERTEX
8
CUT
10
44.77158
20
3.43048
30
0.0
0
VERTEX
8
CUT
10
65.37421
20
3.96743
30
0.0
0
VERTEX
8
CUT
10
64.89268
20
0.77880
30
0.0
0
VERTEX
8
CUT
10
78.26716
20
1.12737
30
0.0
0
VERTEX
8
CUT
10
77.62019
20
4.28659
30
0.0
0
VERTEX
8
CUT
10
104.42078
20
4.98507
30
0.0
0
VERTEX
8
CUT
10
104.19347
20
13.70711
30
0.0
0
VERTEX
8
CUT
10
105.99286
20
13.75401
30
0.0
0
VERTEX
8
CUT
10
105.87952
20
18.10253
30
0.0
0
VERTEX
8
CUT
10
104.08014
20
18.05564
30
0.0
0
VERTEX
8
CUT
10
103.47561
20
41.25104
30
0.0
0
VERTEX
8
CUT
10
105.27500
20
41.29793
30
0.0
0
VERTEX
8
CUT
10
105.16167
20
45.64646
30
0.0
0
VERTEX
8
CUT
10
103.36228
20
45.59956
30
0.0
0
VERTEX
8
CUT
10
102.86873
20
64.53693
30
0.0
0
VERTEX
8
CUT
10
104.66812
20
64.58383
30
0.0
0
VERTEX
8
CUT
10
104.55478
20
68.93235
30
0.0
0
VERTEX
8
CUT
10
102.75539
20
68.88546
30
0.0
0
VERTEX
8
CUT
10
102.40108
20
82.48022
30
0.0
0
VERTEX
8
CUT
10
104.20047
20
82.52712
30
0.0
0
VERTEX
8
CUT
10
104.08714
20
86.87564
30
0.0
0
VERTEX
8
CUT
10
102.28775
20
86.82874
30
0.0
0
VERTEX
8
CUT
10
101.67159
20
110.47071
30
0.0
0
VERTEX
8
CUT
10
103.47098
20
110.51761
30
0.0
0
VERTEX
8
CUT
10
103.35764
20
114.86613
30
0.0
0
VERTEX
8
CUT
10
101.55825
20
114.81924
30
0.0
0
VERTEX
8
CUT
10
101.09494
20
132.59640
30
0.0
0
VERTEX
8
CUT
10
102.89433
20
132.64329
30
0.0
0
VERTEX
8
CUT
10
102.78100
20
136.99182
30
0.0
0
VERTEX
8
CUT
10
100.98161
20
136.94492
30
0.0
0
VERTEX
8
CUT
10
100.51830
20
154.72208
30
0.0
0
VERTEX
8
CUT
10
102.31768
20
154.76898
30
0.0
0
VERTEX
8
CUT
10
102.20435
20
159.11750
30
0.0
0
VERTEX
8
CUT
10
100.40496
20
159.07060
30
0.0
0
VERTEX
8
CUT
10
100.26454
20
164.45860
30
0.0
0
VERTEX
8
CUT
10
101.99539
20
164.50371
30
0.0
0
VERTEX
8
CUT
10
102.01029
20
164.50668
30
0.0
0
VERTEX
8
CUT
10
109.04678
20
167.73042
30
0.0
0
VERTEX
8
CUT
10
111.11576
20
173.29812
30
0.0
0
VERTEX
8
CUT
10
114.87762
20
175.02160
30
0.0
0
VERTEX
8
CUT
10
120.44532
20
172.95262
30
0.0
0
VERTEX
8
CUT
10
129.16872
20
176.94920
30
0.0
0
VERTEX
8
CUT
10
131.23771
20
182.51690
30
0.0
0
VERTEX
8
CUT
10
134.99956
20
184.24038
30
0.0
0
VERTEX
8
CUT
10
140.56726
20
182.17139
30
0.0
0
VERTEX
8
CUT
10
149.29066
20
186.16798
30
0.0
0
VERTEX
8
CUT
10
151.35965
20
191.73568
30
0.0
0
VERTEX
8
CUT
10
155.12150
20
193.45916
30
0.0
0
VERTEX
8
CUT
10
160.68921
20
191.39017
30
0.0
0
VERTEX
8
CUT
10
174.74629
20
197.83036
30
0.0
0
VERTEX
8
CUT
10
176.81527
20
203.39806
30
0.0
0
VERTEX
8
CUT
10
180.57713
20
205.12154
30
0.0
0
VERTEX
8
CUT
10
186.14483
20
203.05255
30
0.0
0
VERTEX
8
CUT
10
191.06460
20
205.30652
30
0.0
0
VERTEX
8
CUT
10
193.13358
20
210.87422
30
0.0
0
VERTEX
8
CUT
10
196.89544
20
212.59770
30
0.0
0
VERTEX
8
CUT
10
202.46314
20
210.52872
30
0.0
0
VERTEX
8
CUT
10
212.24168
20
215.00871
30
0.0
0
VERTEX
8
CUT
10
214.31066
20
220.57641
30
0.0
0
VERTEX
8
CUT
10
218.07252
20
222.29989
30
0.0
0
VERTEX
8
CUT
10
223.64022
20
220.23090
30
0.0
0
VERTEX
8
CUT
10
237.29117
20
226.48503
30
0.0
0
VERTEX
8
CUT
10
239.36016
20
232.05273
30
0.0
0
VERTEX
8
CUT
10
243.12202
20
233.77621
30
0.0
0
VERTEX
8
CUT
10
248.68972
20
231.70722
30
0.0
0
VERTEX
8
CUT
10
255.71826
20
234.92731
30
0.0
0
VERTEX
8
CUT
10
257.42288
20
235.70828
30
0.0
0
VERTEX
8
CUT
10
255.67352
20
239.52662
30
0.0
0
VERTEX
8
CUT
10
345.29486
20
280.58624
30
0.0
0
VERTEX
8
CUT
10
322.86597
20
329.54205
30
0.0
0
VERTEX
8
CUT
10
287.29510
20
354.80724
30
0.0
0
VERTEX
8
CUT
10
242.70359
20
452.13769
30
0.0
0
VERTEX
8
CUT
10
171.21183
20
419.38405
30
0.0
0
VERTEX
8
CUT
10
159.24774
20
414.45843
30
0.0
0
VERTEX
8
CUT
10
146.93717
20
410.48185
30
0.0
0
VERTEX
8
CUT
10
134.35384
20
407.47800
30
0.0
0
VERTEX
8
CUT
10
121.57448
20
405.46520
30
0.0
0
VERTEX
8
CUT
10
108.67703
20
404.45572
30
0.0
0
VERTEX
8
CUT
10
95.66221
20
404.45572
30
0.0
0
VERTEX
8
CUT
10
95.66221
20
404.45379
30
0.0
0
VERTEX
8
CUT
10
38.96699
20
402.97619
30
0.0
0
VERTEX
8
CUT
10
37.07449
20
402.85719
30
0.0
0
VERTEX
8
CUT
10
36.12892
20
402.79799
30
0.0
0
VERTEX
8
CUT
10
34.23774
20
402.68007
30
0.0
0
VERTEX
8
CUT
10
33.29213
20
402.62135
30
0.0
0
VERTEX
8
CUT
10
31.40089
20
402.50440
30
0.0
0
VERTEX
8
CUT
10
30.45525
20
402.44616
30
0.0
0
VERTEX
8
CUT
10
28.56394
20
402.33016
30
0.0
0
VERTEX
8
CUT
10
27.61827
20
402.27239
30
0.0
0
VERTEX
8
CUT
10
25.72690
20
402.15732
30
0.0
0
VERTEX
8
CUT
10
24.78120
20
402.10001
30
0.0
0
VERTEX
8
CUT
10
22.88976
20
401.98585
30
0.0
0
VERTEX
8
CUT
10
21.94403
20
401.92899
30
0.0
0
VERTEX
8
CUT
10
20.05254
20
401.81572
30
0.0
0
VERTEX
8
CUT
10
18.16101
20
401.70302
30
0.0
0
VERTEX
8
CUT
10
17.14280
20
401.64259
30
0.0
0
VERTEX
8
CUT
10
20.66195
20
266.61432
30
0.0
0
VERTEX
8
CUT
10
-0.07546
20
224.97454
30
0.0
0
SEQEND
0
POLYLINE
8
CUT
66
1
70
1
0
VERTEX
8
CUT
10
277.31510
20
256.53631
30
0.0
0
VERTEX
8
CUT
10
278.65835
20
253.60437
30
0.0
0
VERTEX
8
CUT
10
289.61336
20
258.62336
30
0.0
0
VERTEX
8
CUT
10
288.27011
20
261.55530
30
0.0
0
VERTEX
8
CUT
10
277.31510
20
256.53631
30
0.0
0
SEQEND
0
POLYLINE
8
CUT
66
1
70
1
0
VERTEX
8
CUT
10
307.18887
20
270.22285
30
0.0
0
VERTEX
8
CUT
10
308.53213
20
267.29091
30
0.0
0
VERTEX
8
CUT
10
319.48714
20
272.30990
30
0.0
0
VERTEX
8
CUT
10
318.14388
20
275.24184
30
0.0
0
VERTEX
8
CUT
10
307.18887
20
270.22285
30
0.0
0
SEQEND
0
LINE
8
SCORE
10
101.98700
20
164.57851
30
0.0
11
101.90884
21
167.57749
31
0.0
0
LINE
8
SCORE
10
101.83068
20
170.57648
30
0.0
11
101.75252
21
173.57546
31
0.0
0
LINE
8
SCORE
10
101.67436
20
176.57444
30
0.0
11
101.59620
21
179.57342
31
0.0
0
LINE
8
SCORE
10
101.51804
20
182.57240
30
0.0
11
101.43988
21
185.57138
31
0.0
0
LINE
8
SCORE
10
101.36172
20
188.57037
30
0.0
11
101.28356
21
191.56935
31
0.0
0
LINE
8
SCORE
10
101.20540
20
194.56833
30
0.0
11
101.12724
21
197.56731
31
0.0
0
LINE
8
SCORE
10
101.04908
20
200.56629
30
0.0
11
100.97092
21
203.56527
31
0.0
0
LINE
8
SCORE
10
100.89276
20
206.56426
30
0.0
11
100.81459
21
209.56324
31
0.0
0
LINE
8
SCORE
10
100.73643
20
212.56222
30
0.0
11
100.65827
21
215.56120
31
0.0
0
LINE
8
SCORE
10
100.58011
20
218.56018
30
0.0
11
100.50195
21
221.55916
31
0.0
0
LINE
8
SCORE
10
100.42379
20
224.55815
30
0.0
11
100.34563
21
227.55713
31
0.0
0
LINE
8
SCORE
10
100.26747
20
230.55611
30
0.0
11
100.18931
21
233.55509
31
0.0
0
LINE
8
SCORE
10
100.11115
20
236.55407
30
0.0
11
100.03299
21
239.55305
31
0.0
0
LINE
8
SCORE
10
99.95483
20
242.55204
30
0.0
11
99.87667
21
245.55102
31
0.0
0
LINE
8
SCORE
10
99.79851
20
248.55000
30
0.0
11
99.72035
21
251.54898
31
0.0
0
LINE
8
SCORE
10
99.64219
20
254.54796
30
0.0
11
99.56403
21
257.54694
31
0.0
0
LINE
8
SCORE
10
99.48587
20
260.54593
30
0.0
11
99.40771
21
263.54491
31
0.0
0
LINE
8
SCORE
10
99.32955
20
266.54389
30
0.0
11
99.25139
21
269.54287
31
0.0
0
LINE
8
SCORE
10
99.17323
20
272.54185
30
0.0
11
99.09507
21
275.54083
31
0.0
0
LINE
8
SCORE
10
99.01691
20
278.53981
30
0.0
11
98.93875
21
281.53880
31
0.0
0
LINE
8
SCORE
10
98.86059
20
284.53778
30
0.0
11
98.78243
21
287.53676
31
0.0
0
LINE
8
SCORE
10
98.70427
20
290.53574
30
0.0
11
98.62611
21
293.53472
31
0.0
0
LINE
8
SCORE
10
98.54795
20
296.53370
30
0.0
11
98.46978
21
299.53269
31
0.0
0
LINE
8
SCORE
10
98.39162
20
302.53167
30
0.0
11
98.31346
21
305.53065
31
0.0
0
LINE
8
SCORE
10
98.23530
20
308.52963
30
0.0
11
98.15714
21
311.52861
31
0.0
0
LINE
8
SCORE
10
98.07898
20
314.52759
30
0.0
11
98.00082
21
317.52658
31
0.0
0
LINE
8
SCORE
10
97.92266
20
320.52556
30
0.0
11
97.84450
21
323.52454
31
0.0
0
LINE
8
SCORE
10
97.76634
20
326.52352
30
0.0
11
97.68818
21
329.52250
31
0.0
0
LINE
8
SCORE
10
97.61002
20
332.52148
30
0.0
11
97.53186
21
335.52047
31
0.0
0
LINE
8
SCORE
10
97.45370
20
338.51945
30
0.0
11
97.37554
21
341.51843
31
0.0
0
LINE
8
SCORE
10
97.29738
20
344.51741
30
0.0
11
97.21922
21
347.51639
31
0.0
0
LINE
8
SCORE
10
97.14106
20
350.51537
30
0.0
11
97.06290
21
353.51436
31
0.0
0
LINE
8
SCORE
10
96.98474
20
356.51334
30
0.0
11
96.90658
21
359.51232
31
0.0
0
LINE
8
SCORE
10
96.82842
20
362.51130
30
0.0
11
96.75026
21
365.51028
31
0.0
0
LINE
8
SCORE
10
96.67210
20
368.50926
30
0.0
11
96.59394
21
371.50825
31
0.0
0
LINE
8
SCORE
10
96.51578
20
374.50723
30
0.0
11
96.43762
21
377.50621
31
0.0
0
LINE
8
SCORE
10
96.35946
20
380.50519
30
0.0
11
96.28130
21
383.50417
31
0.0
0
LINE
8
SCORE
10
96.20314
20
386.50315
30
0.0
11
96.12498
21
389.50214
31
0.0
0
LINE
8
SCORE
10
96.04681
20
392.50112
30
0.0
11
95.96865
21
395.50010
31
0.0
0
LINE
8
SCORE
10
95.89049
20
398.49908
30
0.0
11
95.81233
21
401.49806
31
0.0
0
LINE
8
SCORE
10
1.52280
20
166.52858
30
0.0
11
4.52178
21
166.60674
31
0.0
0
LINE
8
SCORE
10
7.52076
20
166.68490
30
0.0
11
10.51974
21
166.76306
31
0.0
0
LINE
8
SCORE
10
13.51873
20
166.84122
30
0.0
11
16.51771
21
166.91938
31
0.0
0
LINE
8
SCORE
10
19.51669
20
166.99754
30
0.0
11
22.51567
21
167.07570
31
0.0
0
LINE
8
SCORE
10
25.51465
20
167.15386
30
0.0
11
28.51363
21
167.23202
31
0.0
0
LINE
8
SCORE
10
31.51262
20
167.31018
30
0.0
11
34.51160
21
167.38834
31
0.0
0
LINE
8
SCORE
10
37.51058
20
167.46650
30
0.0
11
40.50956
21
167.54466
31
0.0
0
LINE
8
SCORE
10
43.50854
20
167.62282
30
0.0
11
46.50752
21
167.70098
31
0.0
0
LINE
8
SCORE
10
49.50651
20
167.77914
30
0.0
11
52.50549
21
167.85730
31
0.0
0
LINE
8
SCORE
10
55.50447
20
167.93546
30
0.0
11
58.50345
21
168.01363
31
0.0
0
LINE
8
SCORE
10
61.50243
20
168.09179
30
0.0
11
64.50141
21
168.16995
31
0.0
0
LINE
8
SCORE
10
67.50040
20
168.24811
30
0.0
11
70.49938
21
168.32627
31
0.0
0
LINE
8
SCORE
10
73.49836
20
168.40443
30
0.0
11
76.49734
21
168.48259
31
0.0
0
LINE
8
SCORE
10
79.49632
20
168.56075
30
0.0
11
82.49530
21
168.63891
31
0.0
0
LINE
8
SCORE
10
85.49429
20
168.71707
30
0.0
11
88.49327
21
168.79523
31
0.0
0
LINE
8
SCORE
10
91.49225
20
168.87339
30
0.0
11
94.49123
21
168.95155
31
0.0
0
LINE
8
SCORE
10
97.49021
20
169.02971
30
0.0
11
100.06863
21
169.09691
31
0.0
0
LINE
8
SCORE
10
171.24173
20
419.31526
30
0.0
11
172.49128
21
416.58787
31
0.0
0
LINE
8
SCORE
10
173.74082
20
413.86048
30
0.0
11
174.99036
21
411.13309
31
0.0
0
LINE
8
SCORE
10
176.23990
20
408.40571
30
0.0
11
177.48944
21
405.67832
31
0.0
0
LINE
8
SCORE
10
178.73898
20
402.95093
30
0.0
11
179.98852
21
400.22354
31
0.0
0
LINE
8
SCORE
10
181.23806
20
397.49615
30
0.0
11
182.48760
21
394.76876
31
0.0
0
LINE
8
SCORE
10
183.73714
20
392.04138
30
0.0
11
184.98668
21
389.31399
31
0.0
0
LINE
8
SCORE
10
186.23623
20
386.58660
30
0.0
11
187.48577
21
383.85921
31
0.0
0
LINE
8
SCORE
10
188.73531
20
381.13182
30
0.0
11
189.98485
21
378.40443
31
0.0
0
LINE
8
SCORE
10
191.23439
20
375.67704
30
0.0
11
192.48393
21
372.94966
31
0.0
0
LINE
8
SCORE
10
193.73347
20
370.22227
30
0.0
11
194.98301
21
367.49488
31
0.0
0
LINE
8
SCORE
10
196.23255
20
364.76749
30
0.0
11
197.48209
21
362.04010
31
0.0
0
LINE
8
SCORE
10
198.73164
20
359.31271
30
0.0
11
199.98118
21
356.58533
31
0.0
0
LINE
8
SCORE
10
201.23072
20
353.85794
30
0.0
11
202.48026
21
351.13055
31
0.0
0
LINE
8
SCORE
10
203.72980
20
348.40316
30
0.0
11
204.97934
21
345.67577
31
0.0
0
LINE
8
SCORE
10
206.22888
20
342.94838
30
0.0
11
207.47842
21
340.22100
31
0.0
0
LINE
8
SCORE
10
208.72796
20
337.49361
30
0.0
11
209.97750
21
334.76622
31
0.0
0
LINE
8
SCORE
10
211.22704
20
332.03883
30
0.0
11
212.47659
21
329.31144
31
0.0
0
LINE
8
SCORE
10
213.72613
20
326.58405
30
0.0
11
214.97567
21
323.85667
31
0.0
0
LINE
8
SCORE
10
216.22521
20
321.12928
30
0.0
11
217.47475
21
318.40189
31
0.0
0
LINE
8
SCORE
10
218.72429
20
315.67450
30
0.0
11
219.97383
21
312.94711
31
0.0
0
LINE
8
SCORE
10
221.22337
20
310.21972
30
0.0
11
222.47291
21
307.49234
31
0.0
0
LINE
8
SCORE
10
223.72245
20
304.76495
30
0.0
11
224.97200
21
302.03756
31
0.0
0
LINE
8
SCORE
10
226.22154
20
299.31017
30
0.0
11
227.47108
21
296.58278
31
0.0
0
LINE
8
SCORE
10
228.72062
20
293.85539
30
0.0
11
229.97016
21
291.12801
31
0.0
0
LINE
8
SCORE
10
231.21970
20
288.40062
30
0.0
11
232.46924
21
285.67323
31
0.0
0
LINE
8
SCORE
10
233.71878
20
282.94584
30
0.0
11
234.96832
21
280.21845
31
0.0
0
LINE
8
SCORE
10
236.21786
20
277.49106
30
0.0
11
237.46741
21
274.76367
31
0.0
0
LINE
8
SCORE
10
238.71695
20
272.03629
30
0.0
11
239.96649
21
269.30890
31
0.0
0
LINE
8
SCORE
10
241.21603
20
266.58151
30
0.0
11
242.46557
21
263.85412
31
0.0
0
LINE
8
SCORE
10
243.71511
20
261.12673
30
0.0
11
244.96465
21
258.39934
31
0.0
0
LINE
8
SCORE
10
246.21419
20
255.67196
30
0.0
11
247.46373
21
252.94457
31
0.0
0
LINE
8
SCORE
10
248.71327
20
250.21718
30
0.0
11
249.96281
21
247.48979
31
0.0
0
LINE
8
SCORE
10
251.21236
20
244.76240
30
0.0
11
252.46190
21
242.03501
31
0.0
0
LINE
8
SCORE
10
253.71144
20
239.30763
30
0.0
11
254.96098
21
236.58024
31
0.0
0
LINE
8
SCORE2
10
101.98700
20
164.57851
30
0.0
11
95.73721
21
404.38072
31
0.0
0
LINE
8
SCORE2
10
1.52280
20
166.52858
30
0.0
11
100.06863
21
169.09691
31
0.0
0
LINE
8
SCORE2
10
171.24173
20
419.31526
30
0.0
11
255.68702
21
234.99550
31
0.0
0
ENDSEC
0
EOF
