0
SECTION
2
ENTITIES
0
POLYLINE
8
CUT
66
1
70
1
0
VERTEX
8
CUT
10
-0.07500
20
192.79043
30
0.0
0
VERTEX
8
CUT
10
21.74023
20
155.00535
30
0.0
0
VERTEX
8
CUT
10
21.74023
20
47.94640
30
0.0
0
VERTEX
8
CUT
10
100.37783
20
47.94640
30
0.0
0
VERTEX
8
CUT
10
113.30632
20
47.44122
30
0.0
0
VERTEX
8
CUT
10
126.15452
20
45.92892
30
0.0
0
VERTEX
8
CUT
10
138.84554
20
43.41868
30
0.0
0
VERTEX
8
CUT
10
151.30199
20
39.92580
30
0.0
0
VERTEX
8
CUT
10
163.44790
20
35.47159
30
0.0
0
VERTEX
8
CUT
10
175.21152
20
30.08214
30
0.0
0
VERTEX
8
CUT
10
227.43960
20
7.78149
30
0.0
0
VERTEX
8
CUT
10
229.20969
20
7.10142
30
0.0
0
VERTEX
8
CUT
10
230.09400
20
6.76141
30
0.0
0
VERTEX
8
CUT
10
231.86244
20
6.08091
30
0.0
0
VERTEX
8
CUT
10
232.74658
20
5.74043
30
0.0
0
VERTEX
8
CUT
10
234.51468
20
5.05902
30
0.0
0
VERTEX
8
CUT
10
235.39864
20
4.71810
30
0.0
0
VERTEX
8
CUT
10
237.16640
20
4.03580
30
0.0
0
VERTEX
8
CUT
10
238.05020
20
3.69444
30
0.0
0
VERTEX
8
CUT
10
239.81763
20
3.01127
30
0.0
0
VERTEX
8
CUT
10
240.70127
20
2.66947
30
0.0
0
VERTEX
8
CUT
10
242.46838
20
1.98545
30
0.0
0
VERTEX
8
CUT
10
243.35185
20
1.64323
30
0.0
0
VERTEX
8
CUT
10
245.11864
20
0.95838
30
0.0
0
VERTEX
8
CUT
10
246.88523
20
0.27299
30
0.0
0
VERTEX
8
CUT
10
247.83608
20
-0.09617
30
0.0
0
VERTEX
8
CUT
10
300.87784
20
124.12778
30
0.0
0
VERTEX
8
CUT
10
337.07437
20
153.34632
30
0.0
0
VERTEX
8
CUT
10
424.50098
20
358.09969
30
0.0
0
VERTEX
8
CUT
10
399.29303
20
368.86311
30
0.0
0
VERTEX
8
CUT
10
401.05891
20
371.56142
30
0.0
0
VERTEX
8
CUT
10
388.75460
20
376.81518
30
0.0
0
VERTEX
8
CUT
10
388.02692
20
373.67357
30
0.0
0
VERTEX
8
CUT
10
368.52101
20
382.00230
30
0.0
0
VERTEX
8
CUT
10
370.28689
20
384.70061
30
0.0
0
VERTEX
8
CUT
10
357.98257
20
389.95437
30
0.0
0
VERTEX
8
CUT
10
357.25490
20
386.81276
30
0.0
0
VERTEX
8
CUT
10
332.04695
20
397.57617
30
0.0
0
VERTEX
8
CUT
10
326.91258
20
385.55145
30
0.0
0
VERTEX
8
CUT
10
328.56799
20
384.84462
30
0.0
0
VERTEX
8
CUT
10
319.45638
20
363.50520
30
0.0
0
VERTEX
8
CUT
10
317.80097
20
364.21204
30
0.0
0
VERTEX
8
CUT
10
316.09279
20
360.21146
30
0.0
0
VERTEX
8
CUT
10
317.74820
20
359.50463
30
0.0
0
VERTEX
8
CUT
10
310.30922
20
342.08254
30
0.0
0
VERTEX
8
CUT
10
308.65381
20
342.78937
30
0.0
0
VERTEX
8
CUT
10
306.94563
20
338.78880
30
0.0
0
VERTEX
8
CUT
10
308.60104
20
338.08196
30
0.0
0
VERTEX
8
CUT
10
303.26075
20
325.57498
30
0.0
0
VERTEX
8
CUT
10
301.60534
20
326.28182
30
0.0
0
VERTEX
8
CUT
10
299.89715
20
322.28124
30
0.0
0
VERTEX
8
CUT
10
301.55256
20
321.57441
30
0.0
0
VERTEX
8
CUT
10
292.26553
20
299.82416
30
0.0
0
VERTEX
8
CUT
10
290.61012
20
300.53099
30
0.0
0
VERTEX
8
CUT
10
288.90194
20
296.53042
30
0.0
0
VERTEX
8
CUT
10
290.55735
20
295.82358
30
0.0
0
VERTEX
8
CUT
10
283.57413
20
279.46886
30
0.0
0
VERTEX
8
CUT
10
281.91872
20
280.17570
30
0.0
0
VERTEX
8
CUT
10
280.21053
20
276.17512
30
0.0
0
VERTEX
8
CUT
10
281.86594
20
275.46829
30
0.0
0
VERTEX
8
CUT
10
274.88272
20
259.11357
30
0.0
0
VERTEX
8
CUT
10
273.22731
20
259.82041
30
0.0
0
VERTEX
8
CUT
10
267.59914
20
246.63954
30
0.0
0
VERTEX
8
CUT
10
253.37321
20
246.63954
30
0.0
0
VERTEX
8
CUT
10
249.17321
20
250.83954
30
0.0
0
VERTEX
8
CUT
10
239.57788
20
250.83954
30
0.0
0
VERTEX
8
CUT
10
235.37788
20
246.63954
30
0.0
0
VERTEX
8
CUT
10
231.24001
20
246.63954
30
0.0
0
VERTEX
8
CUT
10
227.04001
20
250.83954
30
0.0
0
VERTEX
8
CUT
10
217.44468
20
250.83954
30
0.0
0
VERTEX
8
CUT
10
213.24468
20
246.63954
30
0.0
0
VERTEX
8
CUT
10
209.10682
20
246.63954
30
0.0
0
VERTEX
8
CUT
10
204.90682
20
250.83954
30
0.0
0
VERTEX
8
CUT
10
189.44468
20
250.83954
30
0.0
0
VERTEX
8
CUT
10
185.24468
20
246.63954
30
0.0
0
VERTEX
8
CUT
10
181.10682
20
246.63954
30
0.0
0
VERTEX
8
CUT
10
176.90682
20
250.83954
30
0.0
0
VERTEX
8
CUT
10
171.49530
20
250.83954
30
0.0
0
VERTEX
8
CUT
10
167.29530
20
246.63954
30
0.0
0
VERTEX
8
CUT
10
163.15744
20
246.63954
30
0.0
0
VERTEX
8
CUT
10
158.95744
20
250.83954
30
0.0
0
VERTEX
8
CUT
10
148.20150
20
250.83954
30
0.0
0
VERTEX
8
CUT
10
144.00150
20
246.63954
30
0.0
0
VERTEX
8
CUT
10
139.86363
20
246.63954
30
0.0
0
VERTEX
8
CUT
10
135.66363
20
250.83954
30
0.0
0
VERTEX
8
CUT
10
120.64823
20
250.83954
30
0.0
0
VERTEX
8
CUT
10
116.44823
20
246.63954
30
0.0
0
VERTEX
8
CUT
10
-0.07500
20
246.63954
30
0.0
0
VERTEX
8
CUT
10
-0.07500
20
192.79043
30
0.0
0
SEQEND
0
POLYLINE
8
CUT
66
1
70
1
0
VERTEX
8
CUT
10
27.43476
20
240.18954
30
0.0
0
VERTEX
8
CUT
10
39.48476
20
240.18954
30
0.0
0
VERTEX
8
CUT
10
39.48476
20
243.41454
30
0.0
0
VERTEX
8
CUT
10
27.43476
20
243.41454
30
0.0
0
VERTEX
8
CUT
10
27.43476
20
240.18954
30
0.0
0
SEQEND
0
POLYLINE
8
CUT
66
1
70
1
0
VERTEX
8
CUT
10
60.89453
20
240.18954
30
0.0
0
VERTEX
8
CUT
10
72.94453
20
240.18954
30
0.0
0
VERTEX
8
CUT
10
72.94453
20
243.41454
30
0.0
0
VERTEX
8
CUT
10
60.89453
20
243.41454
30
0.0
0
VERTEX
8
CUT
10
60.89453
20
240.18954
30
0.0
0
SEQEND
0
LINE
8
SCORE
10
267.64881
20
246.56454
30
0.0
11
266.47075
21
243.80552
31
0.0
0
LINE
8
SCORE
10
265.29269
20
241.04650
30
0.0
11
264.11463
21
238.28748
31
0.0
0
LINE
8
SCORE
10
262.93657
20
235.52847
30
0.0
11
261.75851
21
232.76945
31
0.0
0
LINE
8
SCORE
10
260.58045
20
230.01043
30
0.0
11
259.40239
21
227.25141
31
0.0
0
LINE
8
SCORE
10
258.22434
20
224.49240
30
0.0
11
257.04628
21
221.73338
31
0.0
0
LINE
8
SCORE
10
255.86822
20
218.97436
30
0.0
11
254.69016
21
216.21534
31
0.0
0
LINE
8
SCORE
10
253.51210
20
213.45633
30
0.0
11
252.33404
21
210.69731
31
0.0
0
LINE
8
SCORE
10
251.15598
20
207.93829
30
0.0
11
249.97792
21
205.17927
31
0.0
0
LINE
8
SCORE
10
248.79986
20
202.42026
30
0.0
11
247.62181
21
199.66124
31
0.0
0
LINE
8
SCORE
10
246.44375
20
196.90222
30
0.0
11
245.26569
21
194.14321
31
0.0
0
LINE
8
SCORE
10
244.08763
20
191.38419
30
0.0
11
242.90957
21
188.62517
31
0.0
0
LINE
8
SCORE
10
241.73151
20
185.86615
30
0.0
11
240.55345
21
183.10714
31
0.0
0
LINE
8
SCORE
10
239.37539
20
180.34812
30
0.0
11
238.19733
21
177.58910
31
0.0
0
LINE
8
SCORE
10
237.01927
20
174.83008
30
0.0
11
235.84122
21
172.07107
31
0.0
0
LINE
8
SCORE
10
234.66316
20
169.31205
30
0.0
11
233.48510
21
166.55303
31
0.0
0
LINE
8
SCORE
10
232.30704
20
163.79401
30
0.0
11
231.12898
21
161.03500
31
0.0
0
LINE
8
SCORE
10
229.95092
20
158.27598
30
0.0
11
228.77286
21
155.51696
31
0.0
0
LINE
8
SCORE
10
227.59480
20
152.75794
30
0.0
11
226.41674
21
149.99893
31
0.0
0
LINE
8
SCORE
10
225.23869
20
147.23991
30
0.0
11
224.06063
21
144.48089
31
0.0
0
LINE
8
SCORE
10
222.88257
20
141.72187
30
0.0
11
221.70451
21
138.96286
31
0.0
0
LINE
8
SCORE
10
220.52645
20
136.20384
30
0.0
11
219.34839
21
133.44482
31
0.0
0
LINE
8
SCORE
10
218.17033
20
130.68580
30
0.0
11
216.99227
21
127.92679
31
0.0
0
LINE
8
SCORE
10
215.81421
20
125.16777
30
0.0
11
214.63615
21
122.40875
31
0.0
0
LINE
8
SCORE
10
213.45810
20
119.64973
30
0.0
11
212.28004
21
116.89072
31
0.0
0
LINE
8
SCORE
10
211.10198
20
114.13170
30
0.0
11
209.92392
21
111.37268
31
0.0
0
LINE
8
SCORE
10
208.74586
20
108.61367
30
0.0
11
207.56780
21
105.85465
31
0.0
0
LINE
8
SCORE
10
206.38974
20
103.09563
30
0.0
11
205.21168
21
100.33661
31
0.0
0
LINE
8
SCORE
10
204.03362
20
97.57760
30
0.0
11
202.85556
21
94.81858
31
0.0
0
LINE
8
SCORE
10
201.67751
20
92.05956
30
0.0
11
200.49945
21
89.30054
31
0.0
0
LINE
8
SCORE
10
199.32139
20
86.54153
30
0.0
11
198.14333
21
83.78251
31
0.0
0
LINE
8
SCORE
10
196.96527
20
81.02349
30
0.0
11
195.78721
21
78.26447
31
0.0
0
LINE
8
SCORE
10
194.60915
20
75.50546
30
0.0
11
193.43109
21
72.74644
31
0.0
0
LINE
8
SCORE
10
192.25303
20
69.98742
30
0.0
11
191.07498
21
67.22840
31
0.0
0
LINE
8
SCORE
10
189.89692
20
64.46939
30
0.0
11
188.71886
21
61.71037
31
0.0
0
LINE
8
SCORE
10
187.54080
20
58.95135
30
0.0
11
186.36274
21
56.19233
31
0.0
0
LINE
8
SCORE
10
185.18468
20
53.43332
30
0.0
11
184.00662
21
50.67430
31
0.0
0
LINE
8
SCORE
10
182.82856
20
47.91528
30
0.0
11
181.65050
21
45.15626
31
0.0
0
LINE
8
SCORE
10
180.47244
20
42.39725
30
0.0
11
179.29439
21
39.63823
31
0.0
0
LINE
8
SCORE
10
178.11633
20
36.87921
30
0.0
11
176.93827
21
34.12019
31
0.0
0
LINE
8
SCORE
10
175.76021
20
31.36118
30
0.0
11
175.24312
21
30.15016
31
0.0
0
LINE
8
SCORE
10
100.37929
20
48.02140
30
0.0
11
100.37929
21
51.02140
31
0.0
0
LINE
8
SCORE
10
100.37929
20
54.02140
30
0.0
11
100.37929
21
57.02140
31
0.0
0
LINE
8
SCORE
10
100.37929
20
60.02140
30
0.0
11
100.37929
21
63.02140
31
0.0
0
LINE
8
SCORE
10
100.37929
20
66.02140
30
0.0
11
100.37929
21
69.02140
31
0.0
0
LINE
8
SCORE
10
100.37929
20
72.02140
30
0.0
11
100.37929
21
75.02140
31
0.0
0
LINE
8
SCORE
10
100.37929
20
78.02140
30
0.0
11
100.37929
21
81.02140
31
0.0
0
LINE
8
SCORE
10
100.37929
20
84.02140
30
0.0
11
100.37929
21
87.02140
31
0.0
0
LINE
8
SCORE
10
100.37929
20
90.02140
30
0.0
11
100.37929
21
93.02140
31
0.0
0
LINE
8
SCORE
10
100.37929
20
96.02140
30
0.0
11
100.37929
21
99.02140
31
0.0
0
LINE
8
SCORE
10
100.37929
20
102.02140
30
0.0
11
100.37929
21
105.02140
31
0.0
0
LINE
8
SCORE
10
100.37929
20
108.02140
30
0.0
11
100.37929
21
111.02140
31
0.0
0
LINE
8
SCORE
10
100.37929
20
114.02140
30
0.0
11
100.37929
21
117.02140
31
0.0
0
LINE
8
SCORE
10
100.37929
20
120.02140
30
0.0
11
100.37929
21
123.02140
31
0.0
0
LINE
8
SCORE
10
100.37929
20
126.02140
30
0.0
11
100.37929
21
129.02140
31
0.0
0
LINE
8
SCORE
10
100.37929
20
132.02140
30
0.0
11
100.37929
21
135.02140
31
0.0
0
LINE
8
SCORE
10
100.37929
20
138.02140
30
0.0
11
100.37929
21
141.02140
31
0.0
0
LINE
8
SCORE
10
100.37929
20
144.02140
30
0.0
11
100.37929
21
147.02140
31
0.0
0
LINE
8
SCORE
10
100.37929
20
150.02140
30
0.0
11
100.37929
21
153.02140
31
0.0
0
LINE
8
SCORE
10
100.37929
20
156.02140
30
0.0
11
100.37929
21
159.02140
31
0.0
0
LINE
8
SCORE
10
100.37929
20
162.02140
30
0.0
11
100.37929
21
165.02140
31
0.0
0
LINE
8
SCORE
10
100.37929
20
168.02140
30
0.0
11
100.37929
21
171.02140
31
0.0
0
LINE
8
SCORE
10
100.37929
20
174.02140
30
0.0
11
100.37929
21
177.02140
31
0.0
0
LINE
8
SCORE
10
100.37929
20
180.02140
30
0.0
11
100.37929
21
183.02140
31
0.0
0
LINE
8
SCORE
10
100.37929
20
186.02140
30
0.0
11
100.37929
21
189.02140
31
0.0
0
LINE
8
SCORE
10
100.37929
20
192.02140
30
0.0
11
100.37929
21
195.02140
31
0.0
0
LINE
8
SCORE
10
100.37929
20
198.02140
30
0.0
11
100.37929
21
201.02140
31
0.0
0
LINE
8
SCORE
10
100.37929
20
204.02140
30
0.0
11
100.37929
21
207.02140
31
0.0
0
LINE
8
SCORE
10
100.37929
20
210.02140
30
0.0
11
100.37929
21
213.02140
31
0.0
0
LINE
8
SCORE
10
100.37929
20
216.02140
30
0.0
11
100.37929
21
219.02140
31
0.0
0
LINE
8
SCORE
10
100.37929
20
222.02140
30
0.0
11
100.37929
21
225.02140
31
0.0
0
LINE
8
SCORE
10
100.37929
20
228.02140
30
0.0
11
100.37929
21
231.02140
31
0.0
0
LINE
8
SCORE
10
100.37929
20
234.02140
30
0.0
11
100.37929
21
237.02140
31
0.0
0
LINE
8
SCORE
10
100.37929
20
240.02140
30
0.0
11
100.37929
21
243.02140
31
0.0
0
LINE
8
SCORE
10
100.37929
20
246.02140
30
0.0
11
100.37929
21
246.56454
31
0.0
0
LINE
8
SCORE
10
359.96488
20
207.14696
30
0.0
11
357.20586
21
208.32502
31
0.0
0
LINE
8
SCORE
10
354.44684
20
209.50308
30
0.0
11
351.68783
21
210.68114
31
0.0
0
LINE
8
SCORE
10
348.92881
20
211.85920
30
0.0
11
346.16979
21
213.03726
31
0.0
0
LINE
8
SCORE
10
343.41077
20
214.21532
30
0.0
11
340.65176
21
215.39337
31
0.0
0
LINE
8
SCORE
10
337.89274
20
216.57143
30
0.0
11
335.13372
21
217.74949
31
0.0
0
LINE
8
SCORE
10
332.37470
20
218.92755
30
0.0
11
329.61569
21
220.10561
31
0.0
0
LINE
8
SCORE
10
326.85667
20
221.28367
30
0.0
11
324.09765
21
222.46173
31
0.0
0
LINE
8
SCORE
10
321.33863
20
223.63979
30
0.0
11
318.57962
21
224.81785
31
0.0
0
LINE
8
SCORE
10
315.82060
20
225.99591
30
0.0
11
313.06158
21
227.17396
31
0.0
0
LINE
8
SCORE
10
310.30256
20
228.35202
30
0.0
11
307.54355
21
229.53008
31
0.0
0
LINE
8
SCORE
10
304.78453
20
230.70814
30
0.0
11
302.02551
21
231.88620
31
0.0
0
LINE
8
SCORE
10
299.26650
20
233.06426
30
0.0
11
296.50748
21
234.24232
31
0.0
0
LINE
8
SCORE
10
293.74846
20
235.42038
30
0.0
11
290.98944
21
236.59844
31
0.0
0
LINE
8
SCORE
10
288.23043
20
237.77649
30
0.0
11
285.47141
21
238.95455
31
0.0
0
LINE
8
SCORE
10
282.71239
20
240.13261
30
0.0
11
279.95337
21
241.31067
31
0.0
0
LINE
8
SCORE
10
277.19436
20
242.48873
30
0.0
11
274.43534
21
243.66679
31
0.0
0
LINE
8
SCORE
10
271.67632
20
244.84485
30
0.0
11
268.91730
21
246.02291
31
0.0
0
LINE
8
SCORE2
10
267.64881
20
246.56454
30
0.0
11
175.24312
21
30.15016
31
0.0
0
LINE
8
SCORE2
10
100.37929
20
48.02140
30
0.0
11
100.37929
21
246.56454
31
0.0
0
LINE
8
SCORE2
10
359.96488
20
207.14696
30
0.0
11
267.64881
21
246.56454
31
0.0
0
ENDSEC
0
EOF
