0
SECTION
2
ENTITIES
0
POLYLINE
8
CUT
66
1
70
1
0
VERTEX
8
CUT
10
-0.19685
20
162.83585
30
0.0
0
VERTEX
8
CUT
10
22.06030
20
110.70953
30
0.0
0
VERTEX
8
CUT
10
58.25682
20
81.49099
30
0.0
0
VERTEX
8
CUT
10
93.13427
20
-0.19208
30
0.0
0
VERTEX
8
CUT
10
95.66508
20
0.78474
30
0.0
0
VERTEX
8
CUT
10
98.06110
20
1.70856
30
0.0
0
VERTEX
8
CUT
10
100.45744
20
2.63149
30
0.0
0
VERTEX
8
CUT
10
102.85413
20
3.55353
30
0.0
0
VERTEX
8
CUT
10
105.25117
20
4.47467
30
0.0
0
VERTEX
8
CUT
10
107.64855
20
5.39487
30
0.0
0
VERTEX
8
CUT
10
110.04630
20
6.31413
30
0.0
0
VERTEX
8
CUT
10
112.44441
20
7.23242
30
0.0
0
VERTEX
8
CUT
10
114.84289
20
8.14974
30
0.0
0
VERTEX
8
CUT
10
117.24175
20
9.06605
30
0.0
0
VERTEX
8
CUT
10
119.64100
20
9.98135
30
0.0
0
VERTEX
8
CUT
10
122.04064
20
10.89562
30
0.0
0
VERTEX
8
CUT
10
124.44068
20
11.80884
30
0.0
0
VERTEX
8
CUT
10
126.84112
20
12.72099
30
0.0
0
VERTEX
8
CUT
10
129.24198
20
13.63205
30
0.0
0
VERTEX
8
CUT
10
131.64326
20
14.54202
30
0.0
0
VERTEX
8
CUT
10
134.04496
20
15.45086
30
0.0
0
VERTEX
8
CUT
10
136.44709
20
16.35856
30
0.0
0
VERTEX
8
CUT
10
138.84966
20
17.26511
30
0.0
0
VERTEX
8
CUT
10
141.25268
20
18.17049
30
0.0
0
VERTEX
8
CUT
10
143.65615
20
19.07468
30
0.0
0
VERTEX
8
CUT
10
146.06008
20
19.97766
30
0.0
0
VERTEX
8
CUT
10
148.46765
20
20.88061
30
0.0
0
VERTEX
8
CUT
10
160.74575
20
26.12318
30
0.0
0
VERTEX
8
CUT
10
160.59766
20
26.47001
30
0.0
0
VERTEX
8
CUT
10
169.15926
20
30.72831
30
0.0
0
VERTEX
8
CUT
10
184.08590
20
36.64915
30
0.0
0
VERTEX
8
CUT
10
199.45629
20
41.29803
30
0.0
0
VERTEX
8
CUT
10
215.16280
20
44.64235
30
0.0
0
VERTEX
8
CUT
10
280.58773
20
53.39897
30
0.0
0
VERTEX
8
CUT
10
272.18687
20
116.16597
30
0.0
0
VERTEX
8
CUT
10
288.75206
20
156.84502
30
0.0
0
VERTEX
8
CUT
10
281.77324
20
208.98724
30
0.0
0
VERTEX
8
CUT
10
194.73010
20
197.33726
30
0.0
0
VERTEX
8
CUT
10
87.63992
20
197.33726
30
0.0
0
VERTEX
8
CUT
10
86.55520
20
199.87767
30
0.0
0
VERTEX
8
CUT
10
-0.19685
20
162.83585
30
0.0
0
SEQEND
0
LINE
8
SCORE
10
188.44620
20
196.34487
30
0.0
11
188.84417
21
193.37139
31
0.0
0
LINE
8
SCORE
10
189.24215
20
190.39790
30
0.0
11
189.64013
21
187.42442
31
0.0
0
LINE
8
SCORE
10
190.03810
20
184.45093
30
0.0
11
190.43608
21
181.47745
31
0.0
0
LINE
8
SCORE
10
190.83406
20
178.50396
30
0.0
11
191.23204
21
175.53048
31
0.0
0
LINE
8
SCORE
10
191.63001
20
172.55699
30
0.0
11
192.02799
21
169.58351
31
0.0
0
LINE
8
SCORE
10
192.42597
20
166.61002
30
0.0
11
192.82395
21
163.63654
31
0.0
0
LINE
8
SCORE
10
193.22192
20
160.66305
30
0.0
11
193.61990
21
157.68957
31
0.0
0
LINE
8
SCORE
10
194.01788
20
154.71608
30
0.0
11
194.41586
21
151.74260
31
0.0
0
LINE
8
SCORE
10
194.81383
20
148.76911
30
0.0
11
195.21181
21
145.79563
31
0.0
0
LINE
8
SCORE
10
195.60979
20
142.82214
30
0.0
11
196.00776
21
139.84866
31
0.0
0
LINE
8
SCORE
10
196.40574
20
136.87517
30
0.0
11
196.80372
21
133.90169
31
0.0
0
LINE
8
SCORE
10
197.20170
20
130.92820
30
0.0
11
197.59967
21
127.95472
31
0.0
0
LINE
8
SCORE
10
197.99765
20
124.98123
30
0.0
11
198.39563
21
122.00775
31
0.0
0
LINE
8
SCORE
10
198.79361
20
119.03426
30
0.0
11
199.19158
21
116.06078
31
0.0
0
LINE
8
SCORE
10
199.58956
20
113.08729
30
0.0
11
199.98754
21
110.11380
31
0.0
0
LINE
8
SCORE
10
200.38552
20
107.14032
30
0.0
11
200.78349
21
104.16683
31
0.0
0
LINE
8
SCORE
10
201.18147
20
101.19335
30
0.0
11
201.57945
21
98.21986
31
0.0
0
LINE
8
SCORE
10
201.97742
20
95.24638
30
0.0
11
202.37540
21
92.27289
31
0.0
0
LINE
8
SCORE
10
202.77338
20
89.29941
30
0.0
11
203.17136
21
86.32592
31
0.0
0
LINE
8
SCORE
10
203.56933
20
83.35244
30
0.0
11
203.96731
21
80.37895
31
0.0
0
LINE
8
SCORE
10
204.36529
20
77.40547
30
0.0
11
204.76327
21
74.43198
31
0.0
0
LINE
8
SCORE
10
205.16124
20
71.45850
30
0.0
11
205.55922
21
68.48501
31
0.0
0
LINE
8
SCORE
10
205.95720
20
65.51153
30
0.0
11
206.35518
21
62.53804
31
0.0
0
LINE
8
SCORE
10
206.75315
20
59.56456
30
0.0
11
207.15113
21
56.59107
31
0.0
0
LINE
8
SCORE
10
207.54911
20
53.61759
30
0.0
11
207.94708
21
50.64410
31
0.0
0
LINE
8
SCORE
10
208.34506
20
47.67062
30
0.0
11
208.74304
21
44.69713
31
0.0
0
LINE
8
SCORE
10
86.47615
20
199.68081
30
0.0
11
87.65421
21
196.92180
31
0.0
0
LINE
8
SCORE
10
88.83227
20
194.16278
30
0.0
11
90.01033
21
191.40376
31
0.0
0
LINE
8
SCORE
10
91.18839
20
188.64475
30
0.0
11
92.36645
21
185.88573
31
0.0
0
LINE
8
SCORE
10
93.54450
20
183.12671
30
0.0
11
94.72256
21
180.36769
31
0.0
0
LINE
8
SCORE
10
95.90062
20
177.60868
30
0.0
11
97.07868
21
174.84966
31
0.0
0
LINE
8
SCORE
10
98.25674
20
172.09064
30
0.0
11
99.43480
21
169.33162
31
0.0
0
LINE
8
SCORE
10
100.61286
20
166.57261
30
0.0
11
101.79092
21
163.81359
31
0.0
0
LINE
8
SCORE
10
102.96898
20
161.05457
30
0.0
11
104.14704
21
158.29555
31
0.0
0
LINE
8
SCORE
10
105.32509
20
155.53654
30
0.0
11
106.50315
21
152.77752
31
0.0
0
LINE
8
SCORE
10
107.68121
20
150.01850
30
0.0
11
108.85927
21
147.25948
31
0.0
0
LINE
8
SCORE
10
110.03733
20
144.50047
30
0.0
11
111.21539
21
141.74145
31
0.0
0
LINE
8
SCORE
10
112.39345
20
138.98243
30
0.0
11
113.57151
21
136.22341
31
0.0
0
LINE
8
SCORE
10
114.74957
20
133.46440
30
0.0
11
115.92762
21
130.70538
31
0.0
0
LINE
8
SCORE
10
117.10568
20
127.94636
30
0.0
11
118.28374
21
125.18734
31
0.0
0
LINE
8
SCORE
10
119.46180
20
122.42833
30
0.0
11
120.63986
21
119.66931
31
0.0
0
LINE
8
SCORE
10
121.81792
20
116.91029
30
0.0
11
122.99598
21
114.15127
31
0.0
0
LINE
8
SCORE
10
124.17404
20
111.39226
30
0.0
11
125.35210
21
108.63324
31
0.0
0
LINE
8
SCORE
10
126.53016
20
105.87422
30
0.0
11
127.70821
21
103.11521
31
0.0
0
LINE
8
SCORE
10
128.88627
20
100.35619
30
0.0
11
130.06433
21
97.59717
31
0.0
0
LINE
8
SCORE
10
131.24239
20
94.83815
30
0.0
11
132.42045
21
92.07914
31
0.0
0
LINE
8
SCORE
10
133.59851
20
89.32012
30
0.0
11
134.77657
21
86.56110
31
0.0
0
LINE
8
SCORE
10
135.95463
20
83.80208
30
0.0
11
137.13269
21
81.04307
31
0.0
0
LINE
8
SCORE
10
138.31074
20
78.28405
30
0.0
11
139.48880
21
75.52503
31
0.0
0
LINE
8
SCORE
10
140.66686
20
72.76601
30
0.0
11
141.84492
21
70.00700
31
0.0
0
LINE
8
SCORE
10
143.02298
20
67.24798
30
0.0
11
144.20104
21
64.48896
31
0.0
0
LINE
8
SCORE
10
145.37910
20
61.72994
30
0.0
11
146.55716
21
58.97093
31
0.0
0
LINE
8
SCORE
10
147.73522
20
56.21191
30
0.0
11
148.91328
21
53.45289
31
0.0
0
LINE
8
SCORE
10
150.09133
20
50.69387
30
0.0
11
151.26939
21
47.93486
31
0.0
0
LINE
8
SCORE
10
152.44745
20
45.17584
30
0.0
11
153.62551
21
42.41682
31
0.0
0
LINE
8
SCORE
10
154.80357
20
39.65780
30
0.0
11
155.98163
21
36.89879
31
0.0
0
LINE
8
SCORE
10
157.15969
20
34.13977
30
0.0
11
158.33775
21
31.38075
31
0.0
0
LINE
8
SCORE
10
159.51581
20
28.62174
30
0.0
11
160.54890
21
26.20222
31
0.0
0
LINE
8
SCORE2
10
188.44620
20
196.34487
30
0.0
11
208.84332
21
43.94787
31
0.0
0
LINE
8
SCORE2
10
86.47615
20
199.68081
30
0.0
11
160.54890
21
26.20222
31
0.0
0
ENDSEC
0
EOF
