0
SECTION
2
ENTITIES
0
POLYLINE
8
CUT
66
1
70
1
0
VERTEX
8
CUT
10
-0.15092
20
205.94336
30
0.0
0
VERTEX
8
CUT
10
5.06821
20
5.68738
30
0.0
0
VERTEX
8
CUT
10
25.63943
20
6.22352
30
0.0
0
VERTEX
8
CUT
10
24.64190
20
-0.15464
30
0.0
0
VERTEX
8
CUT
10
35.39820
20
0.12570
30
0.0
0
VERTEX
8
CUT
10
34.06980
20
6.44323
30
0.0
0
VERTEX
8
CUT
10
50.27588
20
6.86560
30
0.0
0
VERTEX
8
CUT
10
49.27836
20
0.48744
30
0.0
0
VERTEX
8
CUT
10
60.03466
20
0.76778
30
0.0
0
VERTEX
8
CUT
10
58.70626
20
7.08531
30
0.0
0
VERTEX
8
CUT
10
74.91234
20
7.50768
30
0.0
0
VERTEX
8
CUT
10
73.91482
20
1.12953
30
0.0
0
VERTEX
8
CUT
10
84.67112
20
1.40986
30
0.0
0
VERTEX
8
CUT
10
83.34271
20
7.72740
30
0.0
0
VERTEX
8
CUT
10
99.36548
20
8.14499
30
0.0
0
VERTEX
8
CUT
10
95.72104
20
147.98050
30
0.0
0
VERTEX
8
CUT
10
96.41057
20
148.29641
30
0.0
0
VERTEX
8
CUT
10
98.47956
20
153.86411
30
0.0
0
VERTEX
8
CUT
10
102.18493
20
155.56171
30
0.0
0
VERTEX
8
CUT
10
107.75263
20
153.49272
30
0.0
0
VERTEX
8
CUT
10
116.53251
20
157.51518
30
0.0
0
VERTEX
8
CUT
10
118.60150
20
163.08289
30
0.0
0
VERTEX
8
CUT
10
122.30687
20
164.78049
30
0.0
0
VERTEX
8
CUT
10
127.87457
20
162.71150
30
0.0
0
VERTEX
8
CUT
10
136.65445
20
166.73396
30
0.0
0
VERTEX
8
CUT
10
138.72344
20
172.30166
30
0.0
0
VERTEX
8
CUT
10
142.42881
20
173.99926
30
0.0
0
VERTEX
8
CUT
10
147.99651
20
171.93028
30
0.0
0
VERTEX
8
CUT
10
162.11008
20
178.39635
30
0.0
0
VERTEX
8
CUT
10
164.17906
20
183.96405
30
0.0
0
VERTEX
8
CUT
10
167.88444
20
185.66165
30
0.0
0
VERTEX
8
CUT
10
173.45214
20
183.59266
30
0.0
0
VERTEX
8
CUT
10
178.42839
20
185.87251
30
0.0
0
VERTEX
8
CUT
10
180.49737
20
191.44021
30
0.0
0
VERTEX
8
CUT
10
184.20275
20
193.13781
30
0.0
0
VERTEX
8
CUT
10
189.77045
20
191.06882
30
0.0
0
VERTEX
8
CUT
10
199.60547
20
195.57469
30
0.0
0
VERTEX
8
CUT
10
201.67446
20
201.14239
30
0.0
0
VERTEX
8
CUT
10
205.37983
20
202.83999
30
0.0
0
VERTEX
8
CUT
10
210.94753
20
200.77101
30
0.0
0
VERTEX
8
CUT
10
224.65497
20
207.05101
30
0.0
0
VERTEX
8
CUT
10
226.72395
20
212.61871
30
0.0
0
VERTEX
8
CUT
10
230.42932
20
214.31631
30
0.0
0
VERTEX
8
CUT
10
235.99702
20
212.24732
30
0.0
0
VERTEX
8
CUT
10
237.41721
20
212.89797
30
0.0
0
VERTEX
8
CUT
10
235.66785
20
216.71632
30
0.0
0
VERTEX
8
CUT
10
321.15265
20
255.88080
30
0.0
0
VERTEX
8
CUT
10
298.68415
20
304.92307
30
0.0
0
VERTEX
8
CUT
10
263.11328
20
330.18826
30
0.0
0
VERTEX
8
CUT
10
218.49890
20
427.56862
30
0.0
0
VERTEX
8
CUT
10
158.00401
20
399.85315
30
0.0
0
VERTEX
8
CUT
10
157.99575
20
399.87215
30
0.0
0
VERTEX
8
CUT
10
146.52620
20
395.15013
30
0.0
0
VERTEX
8
CUT
10
134.22121
20
391.17535
30
0.0
0
VERTEX
8
CUT
10
121.64359
20
388.17286
30
0.0
0
VERTEX
8
CUT
10
108.87002
20
386.16097
30
0.0
0
VERTEX
8
CUT
10
95.97841
20
385.15195
30
0.0
0
VERTEX
8
CUT
10
89.53981
20
385.15195
30
0.0
0
VERTEX
8
CUT
10
89.53540
20
385.32125
30
0.0
0
VERTEX
8
CUT
10
38.96366
20
384.00323
30
0.0
0
VERTEX
8
CUT
10
37.06980
20
383.88415
30
0.0
0
VERTEX
8
CUT
10
36.12424
20
383.82495
30
0.0
0
VERTEX
8
CUT
10
34.23309
20
383.70703
30
0.0
0
VERTEX
8
CUT
10
33.28749
20
383.64831
30
0.0
0
VERTEX
8
CUT
10
31.39627
20
383.53136
30
0.0
0
VERTEX
8
CUT
10
30.45065
20
383.47313
30
0.0
0
VERTEX
8
CUT
10
28.55936
20
383.35713
30
0.0
0
VERTEX
8
CUT
10
27.61370
20
383.29936
30
0.0
0
VERTEX
8
CUT
10
25.72236
20
383.18429
30
0.0
0
VERTEX
8
CUT
10
24.77667
20
383.12698
30
0.0
0
VERTEX
8
CUT
10
22.88526
20
383.01282
30
0.0
0
VERTEX
8
CUT
10
21.93954
20
382.95596
30
0.0
0
VERTEX
8
CUT
10
20.04807
20
382.84269
30
0.0
0
VERTEX
8
CUT
10
18.15656
20
382.73000
30
0.0
0
VERTEX
8
CUT
10
17.06593
20
382.66527
30
0.0
0
VERTEX
8
CUT
10
20.58648
20
247.58314
30
0.0
0
VERTEX
8
CUT
10
-0.15092
20
205.94336
30
0.0
0
SEQEND
0
POLYLINE
8
CUT
66
1
70
1
0
VERTEX
8
CUT
10
244.74527
20
235.06450
30
0.0
0
VERTEX
8
CUT
10
247.43179
20
229.20061
30
0.0
0
VERTEX
8
CUT
10
254.79574
20
232.57437
30
0.0
0
VERTEX
8
CUT
10
252.10922
20
238.43826
30
0.0
0
VERTEX
8
CUT
10
244.74527
20
235.06450
30
0.0
0
SEQEND
0
POLYLINE
8
CUT
66
1
70
1
0
VERTEX
8
CUT
10
267.15061
20
245.32940
30
0.0
0
VERTEX
8
CUT
10
269.83712
20
239.46552
30
0.0
0
VERTEX
8
CUT
10
277.20107
20
242.83928
30
0.0
0
VERTEX
8
CUT
10
274.51456
20
248.70316
30
0.0
0
VERTEX
8
CUT
10
267.15061
20
245.32940
30
0.0
0
SEQEND
0
POLYLINE
8
CUT
66
1
70
1
0
VERTEX
8
CUT
10
289.55594
20
255.59431
30
0.0
0
VERTEX
8
CUT
10
292.24246
20
249.73042
30
0.0
0
VERTEX
8
CUT
10
299.60640
20
253.10418
30
0.0
0
VERTEX
8
CUT
10
296.91989
20
258.96807
30
0.0
0
VERTEX
8
CUT
10
289.55594
20
255.59431
30
0.0
0
SEQEND
0
LINE
8
SCORE
10
95.63916
20
145.36518
30
0.0
11
95.56099
21
148.36416
31
0.0
0
LINE
8
SCORE
10
95.48283
20
151.36314
30
0.0
11
95.40467
21
154.36213
31
0.0
0
LINE
8
SCORE
10
95.32651
20
157.36111
30
0.0
11
95.24835
21
160.36009
31
0.0
0
LINE
8
SCORE
10
95.17019
20
163.35907
30
0.0
11
95.09203
21
166.35805
31
0.0
0
LINE
8
SCORE
10
95.01387
20
169.35703
30
0.0
11
94.93571
21
172.35602
31
0.0
0
LINE
8
SCORE
10
94.85755
20
175.35500
30
0.0
11
94.77939
21
178.35398
31
0.0
0
LINE
8
SCORE
10
94.70123
20
181.35296
30
0.0
11
94.62307
21
184.35194
31
0.0
0
LINE
8
SCORE
10
94.54491
20
187.35092
30
0.0
11
94.46675
21
190.34991
31
0.0
0
LINE
8
SCORE
10
94.38859
20
193.34889
30
0.0
11
94.31043
21
196.34787
31
0.0
0
LINE
8
SCORE
10
94.23227
20
199.34685
30
0.0
11
94.15411
21
202.34583
31
0.0
0
LINE
8
SCORE
10
94.07595
20
205.34481
30
0.0
11
93.99779
21
208.34380
31
0.0
0
LINE
8
SCORE
10
93.91963
20
211.34278
30
0.0
11
93.84147
21
214.34176
31
0.0
0
LINE
8
SCORE
10
93.76331
20
217.34074
30
0.0
11
93.68515
21
220.33972
31
0.0
0
LINE
8
SCORE
10
93.60699
20
223.33870
30
0.0
11
93.52883
21
226.33769
31
0.0
0
LINE
8
SCORE
10
93.45067
20
229.33667
30
0.0
11
93.37251
21
232.33565
31
0.0
0
LINE
8
SCORE
10
93.29435
20
235.33463
30
0.0
11
93.21619
21
238.33361
31
0.0
0
LINE
8
SCORE
10
93.13802
20
241.33259
30
0.0
11
93.05986
21
244.33158
31
0.0
0
LINE
8
SCORE
10
92.98170
20
247.33056
30
0.0
11
92.90354
21
250.32954
31
0.0
0
LINE
8
SCORE
10
92.82538
20
253.32852
30
0.0
11
92.74722
21
256.32750
31
0.0
0
LINE
8
SCORE
10
92.66906
20
259.32648
30
0.0
11
92.59090
21
262.32547
31
0.0
0
LINE
8
SCORE
10
92.51274
20
265.32445
30
0.0
11
92.43458
21
268.32343
31
0.0
0
LINE
8
SCORE
10
92.35642
20
271.32241
30
0.0
11
92.27826
21
274.32139
31
0.0
0
LINE
8
SCORE
10
92.20010
20
277.32037
30
0.0
11
92.12194
21
280.31936
31
0.0
0
LINE
8
SCORE
10
92.04378
20
283.31834
30
0.0
11
91.96562
21
286.31732
31
0.0
0
LINE
8
SCORE
10
91.88746
20
289.31630
30
0.0
11
91.80930
21
292.31528
31
0.0
0
LINE
8
SCORE
10
91.73114
20
295.31426
30
0.0
11
91.65298
21
298.31324
31
0.0
0
LINE
8
SCORE
10
91.57482
20
301.31223
30
0.0
11
91.49666
21
304.31121
31
0.0
0
LINE
8
SCORE
10
91.41850
20
307.31019
30
0.0
11
91.34034
21
310.30917
31
0.0
0
LINE
8
SCORE
10
91.26218
20
313.30815
30
0.0
11
91.18402
21
316.30713
31
0.0
0
LINE
8
SCORE
10
91.10586
20
319.30612
30
0.0
11
91.02770
21
322.30510
31
0.0
0
LINE
8
SCORE
10
90.94954
20
325.30408
30
0.0
11
90.87138
21
328.30306
31
0.0
0
LINE
8
SCORE
10
90.79321
20
331.30204
30
0.0
11
90.71505
21
334.30102
31
0.0
0
LINE
8
SCORE
10
90.63689
20
337.30001
30
0.0
11
90.55873
21
340.29899
31
0.0
0
LINE
8
SCORE
10
90.48057
20
343.29797
30
0.0
11
90.40241
21
346.29695
31
0.0
0
LINE
8
SCORE
10
90.32425
20
349.29593
30
0.0
11
90.24609
21
352.29491
31
0.0
0
LINE
8
SCORE
10
90.16793
20
355.29390
30
0.0
11
90.08977
21
358.29288
31
0.0
0
LINE
8
SCORE
10
90.01161
20
361.29186
30
0.0
11
89.93345
21
364.29084
31
0.0
0
LINE
8
SCORE
10
89.85529
20
367.28982
30
0.0
11
89.77713
21
370.28880
31
0.0
0
LINE
8
SCORE
10
89.69897
20
373.28779
30
0.0
11
89.62081
21
376.28677
31
0.0
0
LINE
8
SCORE
10
89.54265
20
379.28575
30
0.0
11
89.46449
21
382.28473
31
0.0
0
LINE
8
SCORE
10
1.27227
20
157.09341
30
0.0
11
4.27125
21
157.17157
31
0.0
0
LINE
8
SCORE
10
7.27023
20
157.24973
30
0.0
11
10.26922
21
157.32789
31
0.0
0
LINE
8
SCORE
10
13.26820
20
157.40605
30
0.0
11
16.26718
21
157.48421
31
0.0
0
LINE
8
SCORE
10
19.26616
20
157.56237
30
0.0
11
22.26514
21
157.64053
31
0.0
0
LINE
8
SCORE
10
25.26412
20
157.71869
30
0.0
11
28.26311
21
157.79685
31
0.0
0
LINE
8
SCORE
10
31.26209
20
157.87501
30
0.0
11
34.26107
21
157.95317
31
0.0
0
LINE
8
SCORE
10
37.26005
20
158.03133
30
0.0
11
40.25903
21
158.10949
31
0.0
0
LINE
8
SCORE
10
43.25801
20
158.18765
30
0.0
11
46.25699
21
158.26581
31
0.0
0
LINE
8
SCORE
10
49.25598
20
158.34397
30
0.0
11
52.25496
21
158.42213
31
0.0
0
LINE
8
SCORE
10
55.25394
20
158.50030
30
0.0
11
58.25292
21
158.57846
31
0.0
0
LINE
8
SCORE
10
61.25190
20
158.65662
30
0.0
11
64.25088
21
158.73478
31
0.0
0
LINE
8
SCORE
10
67.24987
20
158.81294
30
0.0
11
70.24885
21
158.89110
31
0.0
0
LINE
8
SCORE
10
73.24783
20
158.96926
30
0.0
11
76.24681
21
159.04742
31
0.0
0
LINE
8
SCORE
10
79.24579
20
159.12558
30
0.0
11
82.24477
21
159.20374
31
0.0
0
LINE
8
SCORE
10
85.24376
20
159.28190
30
0.0
11
88.24274
21
159.36006
31
0.0
0
LINE
8
SCORE
10
91.24172
20
159.43822
30
0.0
11
94.24070
21
159.51638
31
0.0
0
LINE
8
SCORE
10
97.23968
20
159.59454
30
0.0
11
99.81810
21
159.66174
31
0.0
0
LINE
8
SCORE
10
152.77307
20
397.29163
30
0.0
11
154.02261
21
394.56424
31
0.0
0
LINE
8
SCORE
10
155.27216
20
391.83685
30
0.0
11
156.52170
21
389.10946
31
0.0
0
LINE
8
SCORE
10
157.77124
20
386.38207
30
0.0
11
159.02078
21
383.65468
31
0.0
0
LINE
8
SCORE
10
160.27032
20
380.92730
30
0.0
11
161.51986
21
378.19991
31
0.0
0
LINE
8
SCORE
10
162.76940
20
375.47252
30
0.0
11
164.01894
21
372.74513
31
0.0
0
LINE
8
SCORE
10
165.26848
20
370.01774
30
0.0
11
166.51802
21
367.29035
31
0.0
0
LINE
8
SCORE
10
167.76756
20
364.56297
30
0.0
11
169.01711
21
361.83558
31
0.0
0
LINE
8
SCORE
10
170.26665
20
359.10819
30
0.0
11
171.51619
21
356.38080
31
0.0
0
LINE
8
SCORE
10
172.76573
20
353.65341
30
0.0
11
174.01527
21
350.92602
31
0.0
0
LINE
8
SCORE
10
175.26481
20
348.19864
30
0.0
11
176.51435
21
345.47125
31
0.0
0
LINE
8
SCORE
10
177.76389
20
342.74386
30
0.0
11
179.01343
21
340.01647
31
0.0
0
LINE
8
SCORE
10
180.26297
20
337.28908
30
0.0
11
181.51252
21
334.56169
31
0.0
0
LINE
8
SCORE
10
182.76206
20
331.83431
30
0.0
11
184.01160
21
329.10692
31
0.0
0
LINE
8
SCORE
10
185.26114
20
326.37953
30
0.0
11
186.51068
21
323.65214
31
0.0
0
LINE
8
SCORE
10
187.76022
20
320.92475
30
0.0
11
189.00976
21
318.19736
31
0.0
0
LINE
8
SCORE
10
190.25930
20
315.46998
30
0.0
11
191.50884
21
312.74259
31
0.0
0
LINE
8
SCORE
10
192.75838
20
310.01520
30
0.0
11
194.00792
21
307.28781
31
0.0
0
LINE
8
SCORE
10
195.25747
20
304.56042
30
0.0
11
196.50701
21
301.83303
31
0.0
0
LINE
8
SCORE
10
197.75655
20
299.10564
30
0.0
11
199.00609
21
296.37826
31
0.0
0
LINE
8
SCORE
10
200.25563
20
293.65087
30
0.0
11
201.50517
21
290.92348
31
0.0
0
LINE
8
SCORE
10
202.75471
20
288.19609
30
0.0
11
204.00425
21
285.46870
31
0.0
0
LINE
8
SCORE
10
205.25379
20
282.74131
30
0.0
11
206.50333
21
280.01393
31
0.0
0
LINE
8
SCORE
10
207.75288
20
277.28654
30
0.0
11
209.00242
21
274.55915
31
0.0
0
LINE
8
SCORE
10
210.25196
20
271.83176
30
0.0
11
211.50150
21
269.10437
31
0.0
0
LINE
8
SCORE
10
212.75104
20
266.37698
30
0.0
11
214.00058
21
263.64960
31
0.0
0
LINE
8
SCORE
10
215.25012
20
260.92221
30
0.0
11
216.49966
21
258.19482
31
0.0
0
LINE
8
SCORE
10
217.74920
20
255.46743
30
0.0
11
218.99874
21
252.74004
31
0.0
0
LINE
8
SCORE
10
220.24828
20
250.01265
30
0.0
11
221.49783
21
247.28527
31
0.0
0
LINE
8
SCORE
10
222.74737
20
244.55788
30
0.0
11
223.99691
21
241.83049
31
0.0
0
LINE
8
SCORE
10
225.24645
20
239.10310
30
0.0
11
226.49599
21
236.37571
31
0.0
0
LINE
8
SCORE
10
227.74553
20
233.64832
30
0.0
11
228.99507
21
230.92094
31
0.0
0
LINE
8
SCORE
10
230.24461
20
228.19355
30
0.0
11
231.49415
21
225.46616
31
0.0
0
LINE
8
SCORE
10
232.74369
20
222.73877
30
0.0
11
233.99324
21
220.01138
31
0.0
0
LINE
8
SCORE
10
235.24278
20
217.28399
30
0.0
11
236.49232
21
214.55660
31
0.0
0
LINE
8
SCORE2
10
95.63916
20
145.36518
30
0.0
11
89.38936
21
385.16739
31
0.0
0
LINE
8
SCORE2
10
1.27227
20
157.09341
30
0.0
11
99.81810
21
159.66174
31
0.0
0
LINE
8
SCORE2
10
152.77307
20
397.29163
30
0.0
11
237.21836
21
212.97187
31
0.0
0
ENDSEC
0
EOF
