0
SECTION
2
ENTITIES
0
POLYLINE
8
CUT
66
1
70
1
0
VERTEX
8
CUT
10
-0.07546
20
215.36181
30
0.0
0
VERTEX
8
CUT
10
5.47448
20
2.41284
30
0.0
0
VERTEX
8
CUT
10
32.27508
20
3.11132
30
0.0
0
VERTEX
8
CUT
10
31.79354
20
-0.07731
30
0.0
0
VERTEX
8
CUT
10
45.16802
20
0.27126
30
0.0
0
VERTEX
8
CUT
10
44.52105
20
3.43048
30
0.0
0
VERTEX
8
CUT
10
65.12368
20
3.96743
30
0.0
0
VERTEX
8
CUT
10
64.64215
20
0.77880
30
0.0
0
VERTEX
8
CUT
10
78.01663
20
1.12737
30
0.0
0
VERTEX
8
CUT
10
77.36966
20
4.28659
30
0.0
0
VERTEX
8
CUT
10
102.79572
20
4.94925
30
0.0
0
VERTEX
8
CUT
10
98.85402
20
156.19073
30
0.0
0
VERTEX
8
CUT
10
102.69893
20
157.95226
30
0.0
0
VERTEX
8
CUT
10
104.76792
20
163.51996
30
0.0
0
VERTEX
8
CUT
10
108.52978
20
165.24344
30
0.0
0
VERTEX
8
CUT
10
114.09748
20
163.17445
30
0.0
0
VERTEX
8
CUT
10
122.82087
20
167.17104
30
0.0
0
VERTEX
8
CUT
10
124.88986
20
172.73874
30
0.0
0
VERTEX
8
CUT
10
128.65172
20
174.46222
30
0.0
0
VERTEX
8
CUT
10
134.21942
20
172.39323
30
0.0
0
VERTEX
8
CUT
10
142.94282
20
176.38982
30
0.0
0
VERTEX
8
CUT
10
145.01180
20
181.95752
30
0.0
0
VERTEX
8
CUT
10
148.77366
20
183.68100
30
0.0
0
VERTEX
8
CUT
10
154.34136
20
181.61201
30
0.0
0
VERTEX
8
CUT
10
168.39844
20
188.05220
30
0.0
0
VERTEX
8
CUT
10
170.46743
20
193.61990
30
0.0
0
VERTEX
8
CUT
10
174.22928
20
195.34338
30
0.0
0
VERTEX
8
CUT
10
179.79699
20
193.27439
30
0.0
0
VERTEX
8
CUT
10
184.71675
20
195.52836
30
0.0
0
VERTEX
8
CUT
10
186.78574
20
201.09606
30
0.0
0
VERTEX
8
CUT
10
190.54760
20
202.81954
30
0.0
0
VERTEX
8
CUT
10
196.11530
20
200.75055
30
0.0
0
VERTEX
8
CUT
10
205.89383
20
205.23055
30
0.0
0
VERTEX
8
CUT
10
207.96282
20
210.79825
30
0.0
0
VERTEX
8
CUT
10
211.72468
20
212.52173
30
0.0
0
VERTEX
8
CUT
10
217.29238
20
210.45274
30
0.0
0
VERTEX
8
CUT
10
230.94333
20
216.70686
30
0.0
0
VERTEX
8
CUT
10
233.01232
20
222.27457
30
0.0
0
VERTEX
8
CUT
10
236.77417
20
223.99804
30
0.0
0
VERTEX
8
CUT
10
242.34187
20
221.92906
30
0.0
0
VERTEX
8
CUT
10
246.55211
20
223.85796
30
0.0
0
VERTEX
8
CUT
10
244.80275
20
227.67630
30
0.0
0
VERTEX
8
CUT
10
333.17404
20
268.16322
30
0.0
0
VERTEX
8
CUT
10
310.74515
20
317.11903
30
0.0
0
VERTEX
8
CUT
10
275.17428
20
342.38422
30
0.0
0
VERTEX
8
CUT
10
230.58277
20
439.71466
30
0.0
0
VERTEX
8
CUT
10
164.04077
20
409.22874
30
0.0
0
VERTEX
8
CUT
10
164.02667
20
409.26117
30
0.0
0
VERTEX
8
CUT
10
152.89989
20
404.68027
30
0.0
0
VERTEX
8
CUT
10
140.58932
20
400.70369
30
0.0
0
VERTEX
8
CUT
10
128.00599
20
397.69984
30
0.0
0
VERTEX
8
CUT
10
115.22664
20
395.68704
30
0.0
0
VERTEX
8
CUT
10
102.32919
20
394.67756
30
0.0
0
VERTEX
8
CUT
10
92.63851
20
394.67756
30
0.0
0
VERTEX
8
CUT
10
92.63630
20
394.76221
30
0.0
0
VERTEX
8
CUT
10
38.96699
20
393.36347
30
0.0
0
VERTEX
8
CUT
10
37.07449
20
393.24447
30
0.0
0
VERTEX
8
CUT
10
36.12892
20
393.18526
30
0.0
0
VERTEX
8
CUT
10
34.23774
20
393.06734
30
0.0
0
VERTEX
8
CUT
10
33.29213
20
393.00863
30
0.0
0
VERTEX
8
CUT
10
31.40089
20
392.89168
30
0.0
0
VERTEX
8
CUT
10
30.45525
20
392.83344
30
0.0
0
VERTEX
8
CUT
10
28.56394
20
392.71744
30
0.0
0
VERTEX
8
CUT
10
27.61827
20
392.65967
30
0.0
0
VERTEX
8
CUT
10
25.72690
20
392.54460
30
0.0
0
VERTEX
8
CUT
10
24.78120
20
392.48729
30
0.0
0
VERTEX
8
CUT
10
22.88976
20
392.37313
30
0.0
0
VERTEX
8
CUT
10
21.94403
20
392.31627
30
0.0
0
VERTEX
8
CUT
10
20.05254
20
392.20299
30
0.0
0
VERTEX
8
CUT
10
18.16101
20
392.09030
30
0.0
0
VERTEX
8
CUT
10
17.14280
20
392.02987
30
0.0
0
VERTEX
8
CUT
10
20.66195
20
257.00160
30
0.0
0
VERTEX
8
CUT
10
-0.07546
20
215.36181
30
0.0
0
SEQEND
0
POLYLINE
8
CUT
66
1
70
1
0
VERTEX
8
CUT
10
265.19428
20
244.11329
30
0.0
0
VERTEX
8
CUT
10
266.53754
20
241.18135
30
0.0
0
VERTEX
8
CUT
10
277.49255
20
246.20034
30
0.0
0
VERTEX
8
CUT
10
276.14929
20
249.13228
30
0.0
0
VERTEX
8
CUT
10
265.19428
20
244.11329
30
0.0
0
SEQEND
0
POLYLINE
8
CUT
66
1
70
1
0
VERTEX
8
CUT
10
295.06806
20
257.79983
30
0.0
0
VERTEX
8
CUT
10
296.41131
20
254.86789
30
0.0
0
VERTEX
8
CUT
10
307.36632
20
259.88688
30
0.0
0
VERTEX
8
CUT
10
306.02307
20
262.81882
30
0.0
0
VERTEX
8
CUT
10
295.06806
20
257.79983
30
0.0
0
SEQEND
0
LINE
8
SCORE
10
98.81308
20
154.88307
30
0.0
11
98.76097
21
156.88239
31
0.0
0
LINE
8
SCORE
10
98.73492
20
157.88205
30
0.0
11
98.68281
21
159.88137
31
0.0
0
LINE
8
SCORE
10
98.65676
20
160.88103
30
0.0
11
98.60465
21
162.88035
31
0.0
0
LINE
8
SCORE
10
98.57860
20
163.88001
30
0.0
11
98.52649
21
165.87934
31
0.0
0
LINE
8
SCORE
10
98.50044
20
166.87900
30
0.0
11
98.44833
21
168.87832
31
0.0
0
LINE
8
SCORE
10
98.42228
20
169.87798
30
0.0
11
98.37017
21
171.87730
31
0.0
0
LINE
8
SCORE
10
98.34412
20
172.87696
30
0.0
11
98.29201
21
174.87628
31
0.0
0
LINE
8
SCORE
10
98.26596
20
175.87594
30
0.0
11
98.21385
21
177.87526
31
0.0
0
LINE
8
SCORE
10
98.18779
20
178.87492
30
0.0
11
98.13569
21
180.87424
31
0.0
0
LINE
8
SCORE
10
98.10963
20
181.87390
30
0.0
11
98.05753
21
183.87323
31
0.0
0
LINE
8
SCORE
10
98.03147
20
184.87289
30
0.0
11
97.97937
21
186.87221
31
0.0
0
LINE
8
SCORE
10
97.95331
20
187.87187
30
0.0
11
97.90121
21
189.87119
31
0.0
0
LINE
8
SCORE
10
97.87515
20
190.87085
30
0.0
11
97.82305
21
192.87017
31
0.0
0
LINE
8
SCORE
10
97.79699
20
193.86983
30
0.0
11
97.74489
21
195.86915
31
0.0
0
LINE
8
SCORE
10
97.71883
20
196.86881
30
0.0
11
97.66673
21
198.86813
31
0.0
0
LINE
8
SCORE
10
97.64067
20
199.86779
30
0.0
11
97.58857
21
201.86712
31
0.0
0
LINE
8
SCORE
10
97.56251
20
202.86678
30
0.0
11
97.51041
21
204.86610
31
0.0
0
LINE
8
SCORE
10
97.48435
20
205.86576
30
0.0
11
97.43224
21
207.86508
31
0.0
0
LINE
8
SCORE
10
97.40619
20
208.86474
30
0.0
11
97.35408
21
210.86406
31
0.0
0
LINE
8
SCORE
10
97.32803
20
211.86372
30
0.0
11
97.27592
21
213.86304
31
0.0
0
LINE
8
SCORE
10
97.24987
20
214.86270
30
0.0
11
97.19776
21
216.86202
31
0.0
0
LINE
8
SCORE
10
97.17171
20
217.86168
30
0.0
11
97.11960
21
219.86101
31
0.0
0
LINE
8
SCORE
10
97.09355
20
220.86067
30
0.0
11
97.04144
21
222.85999
31
0.0
0
LINE
8
SCORE
10
97.01539
20
223.85965
30
0.0
11
96.96328
21
225.85897
31
0.0
0
LINE
8
SCORE
10
96.93723
20
226.85863
30
0.0
11
96.88512
21
228.85795
31
0.0
0
LINE
8
SCORE
10
96.85907
20
229.85761
30
0.0
11
96.80696
21
231.85693
31
0.0
0
LINE
8
SCORE
10
96.78091
20
232.85659
30
0.0
11
96.72880
21
234.85591
31
0.0
0
LINE
8
SCORE
10
96.70275
20
235.85557
30
0.0
11
96.65064
21
237.85490
31
0.0
0
LINE
8
SCORE
10
96.62459
20
238.85456
30
0.0
11
96.57248
21
240.85388
31
0.0
0
LINE
8
SCORE
10
96.54643
20
241.85354
30
0.0
11
96.49432
21
243.85286
31
0.0
0
LINE
8
SCORE
10
96.46827
20
244.85252
30
0.0
11
96.41616
21
246.85184
31
0.0
0
LINE
8
SCORE
10
96.39011
20
247.85150
30
0.0
11
96.33800
21
249.85082
31
0.0
0
LINE
8
SCORE
10
96.31195
20
250.85048
30
0.0
11
96.25984
21
252.84980
31
0.0
0
LINE
8
SCORE
10
96.23379
20
253.84946
30
0.0
11
96.18168
21
255.84879
31
0.0
0
LINE
8
SCORE
10
96.15563
20
256.84845
30
0.0
11
96.10352
21
258.84777
31
0.0
0
LINE
8
SCORE
10
96.07747
20
259.84743
30
0.0
11
96.02536
21
261.84675
31
0.0
0
LINE
8
SCORE
10
95.99931
20
262.84641
30
0.0
11
95.94720
21
264.84573
31
0.0
0
LINE
8
SCORE
10
95.92115
20
265.84539
30
0.0
11
95.86904
21
267.84471
31
0.0
0
LINE
8
SCORE
10
95.84299
20
268.84437
30
0.0
11
95.79088
21
270.84369
31
0.0
0
LINE
8
SCORE
10
95.76482
20
271.84335
30
0.0
11
95.71272
21
273.84268
31
0.0
0
LINE
8
SCORE
10
95.68666
20
274.84234
30
0.0
11
95.63456
21
276.84166
31
0.0
0
LINE
8
SCORE
10
95.60850
20
277.84132
30
0.0
11
95.55640
21
279.84064
31
0.0
0
LINE
8
SCORE
10
95.53034
20
280.84030
30
0.0
11
95.47824
21
282.83962
31
0.0
0
LINE
8
SCORE
10
95.45218
20
283.83928
30
0.0
11
95.40008
21
285.83860
31
0.0
0
LINE
8
SCORE
10
95.37402
20
286.83826
30
0.0
11
95.32192
21
288.83758
31
0.0
0
LINE
8
SCORE
10
95.29586
20
289.83724
30
0.0
11
95.24376
21
291.83657
31
0.0
0
LINE
8
SCORE
10
95.21770
20
292.83623
30
0.0
11
95.16560
21
294.83555
31
0.0
0
LINE
8
SCORE
10
95.13954
20
295.83521
30
0.0
11
95.08744
21
297.83453
31
0.0
0
LINE
8
SCORE
10
95.06138
20
298.83419
30
0.0
11
95.00927
21
300.83351
31
0.0
0
LINE
8
SCORE
10
94.98322
20
301.83317
30
0.0
11
94.93111
21
303.83249
31
0.0
0
LINE
8
SCORE
10
94.90506
20
304.83215
30
0.0
11
94.85295
21
306.83147
31
0.0
0
LINE
8
SCORE
10
94.82690
20
307.83113
30
0.0
11
94.77479
21
309.83046
31
0.0
0
LINE
8
SCORE
10
94.74874
20
310.83012
30
0.0
11
94.69663
21
312.82944
31
0.0
0
LINE
8
SCORE
10
94.67058
20
313.82910
30
0.0
11
94.61847
21
315.82842
31
0.0
0
LINE
8
SCORE
10
94.59242
20
316.82808
30
0.0
11
94.54031
21
318.82740
31
0.0
0
LINE
8
SCORE
10
94.51426
20
319.82706
30
0.0
11
94.46215
21
321.82638
31
0.0
0
LINE
8
SCORE
10
94.43610
20
322.82604
30
0.0
11
94.38399
21
324.82536
31
0.0
0
LINE
8
SCORE
10
94.35794
20
325.82502
30
0.0
11
94.30583
21
327.82435
31
0.0
0
LINE
8
SCORE
10
94.27978
20
328.82401
30
0.0
11
94.22767
21
330.82333
31
0.0
0
LINE
8
SCORE
10
94.20162
20
331.82299
30
0.0
11
94.14951
21
333.82231
31
0.0
0
LINE
8
SCORE
10
94.12346
20
334.82197
30
0.0
11
94.07135
21
336.82129
31
0.0
0
LINE
8
SCORE
10
94.04530
20
337.82095
30
0.0
11
93.99319
21
339.82027
31
0.0
0
LINE
8
SCORE
10
93.96714
20
340.81993
30
0.0
11
93.91503
21
342.81925
31
0.0
0
LINE
8
SCORE
10
93.88898
20
343.81891
30
0.0
11
93.83687
21
345.81824
31
0.0
0
LINE
8
SCORE
10
93.81082
20
346.81790
30
0.0
11
93.75871
21
348.81722
31
0.0
0
LINE
8
SCORE
10
93.73266
20
349.81688
30
0.0
11
93.68055
21
351.81620
31
0.0
0
LINE
8
SCORE
10
93.65450
20
352.81586
30
0.0
11
93.60239
21
354.81518
31
0.0
0
LINE
8
SCORE
10
93.57634
20
355.81484
30
0.0
11
93.52423
21
357.81416
31
0.0
0
LINE
8
SCORE
10
93.49818
20
358.81382
30
0.0
11
93.44607
21
360.81314
31
0.0
0
LINE
8
SCORE
10
93.42001
20
361.81280
30
0.0
11
93.36791
21
363.81213
31
0.0
0
LINE
8
SCORE
10
93.34185
20
364.81179
30
0.0
11
93.28975
21
366.81111
31
0.0
0
LINE
8
SCORE
10
93.26369
20
367.81077
30
0.0
11
93.21159
21
369.81009
31
0.0
0
LINE
8
SCORE
10
93.18553
20
370.80975
30
0.0
11
93.13343
21
372.80907
31
0.0
0
LINE
8
SCORE
10
93.10737
20
373.80873
30
0.0
11
93.05527
21
375.80805
31
0.0
0
LINE
8
SCORE
10
93.02921
20
376.80771
30
0.0
11
92.97711
21
378.80703
31
0.0
0
LINE
8
SCORE
10
92.95105
20
379.80669
30
0.0
11
92.89895
21
381.80602
31
0.0
0
LINE
8
SCORE
10
92.87289
20
382.80568
30
0.0
11
92.82079
21
384.80500
31
0.0
0
LINE
8
SCORE
10
92.79473
20
385.80466
30
0.0
11
92.74263
21
387.80398
31
0.0
0
LINE
8
SCORE
10
92.71657
20
388.80364
30
0.0
11
92.66447
21
390.80296
31
0.0
0
LINE
8
SCORE
10
92.63841
20
391.80262
30
0.0
11
92.58630
21
393.80194
31
0.0
0
LINE
8
SCORE
10
1.39753
20
161.72222
30
0.0
11
3.39686
21
161.77432
31
0.0
0
LINE
8
SCORE
10
4.39652
20
161.80038
30
0.0
11
6.39584
21
161.85249
31
0.0
0
LINE
8
SCORE
10
7.39550
20
161.87854
30
0.0
11
9.39482
21
161.93065
31
0.0
0
LINE
8
SCORE
10
10.39448
20
161.95670
30
0.0
11
12.39380
21
162.00881
31
0.0
0
LINE
8
SCORE
10
13.39346
20
162.03486
30
0.0
11
15.39278
21
162.08697
31
0.0
0
LINE
8
SCORE
10
16.39244
20
162.11302
30
0.0
11
18.39176
21
162.16513
31
0.0
0
LINE
8
SCORE
10
19.39142
20
162.19118
30
0.0
11
21.39075
21
162.24329
31
0.0
0
LINE
8
SCORE
10
22.39041
20
162.26934
30
0.0
11
24.38973
21
162.32145
31
0.0
0
LINE
8
SCORE
10
25.38939
20
162.34750
30
0.0
11
27.38871
21
162.39961
31
0.0
0
LINE
8
SCORE
10
28.38837
20
162.42566
30
0.0
11
30.38769
21
162.47777
31
0.0
0
LINE
8
SCORE
10
31.38735
20
162.50382
30
0.0
11
33.38667
21
162.55593
31
0.0
0
LINE
8
SCORE
10
34.38633
20
162.58198
30
0.0
11
36.38565
21
162.63409
31
0.0
0
LINE
8
SCORE
10
37.38531
20
162.66014
30
0.0
11
39.38464
21
162.71225
31
0.0
0
LINE
8
SCORE
10
40.38430
20
162.73830
30
0.0
11
42.38362
21
162.79041
31
0.0
0
LINE
8
SCORE
10
43.38328
20
162.81646
30
0.0
11
45.38260
21
162.86857
31
0.0
0
LINE
8
SCORE
10
46.38226
20
162.89462
30
0.0
11
48.38158
21
162.94673
31
0.0
0
LINE
8
SCORE
10
49.38124
20
162.97278
30
0.0
11
51.38056
21
163.02489
31
0.0
0
LINE
8
SCORE
10
52.38022
20
163.05094
30
0.0
11
54.37954
21
163.10305
31
0.0
0
LINE
8
SCORE
10
55.37920
20
163.12910
30
0.0
11
57.37853
21
163.18121
31
0.0
0
LINE
8
SCORE
10
58.37819
20
163.20726
30
0.0
11
60.37751
21
163.25937
31
0.0
0
LINE
8
SCORE
10
61.37717
20
163.28542
30
0.0
11
63.37649
21
163.33753
31
0.0
0
LINE
8
SCORE
10
64.37615
20
163.36358
30
0.0
11
66.37547
21
163.41569
31
0.0
0
LINE
8
SCORE
10
67.37513
20
163.44175
30
0.0
11
69.37445
21
163.49385
31
0.0
0
LINE
8
SCORE
10
70.37411
20
163.51991
30
0.0
11
72.37343
21
163.57201
31
0.0
0
LINE
8
SCORE
10
73.37309
20
163.59807
30
0.0
11
75.37242
21
163.65017
31
0.0
0
LINE
8
SCORE
10
76.37208
20
163.67623
30
0.0
11
78.37140
21
163.72833
31
0.0
0
LINE
8
SCORE
10
79.37106
20
163.75439
30
0.0
11
81.37038
21
163.80649
31
0.0
0
LINE
8
SCORE
10
82.37004
20
163.83255
30
0.0
11
84.36936
21
163.88465
31
0.0
0
LINE
8
SCORE
10
85.36902
20
163.91071
30
0.0
11
87.36834
21
163.96281
31
0.0
0
LINE
8
SCORE
10
88.36800
20
163.98887
30
0.0
11
90.36732
21
164.04097
31
0.0
0
LINE
8
SCORE
10
91.36698
20
164.06703
30
0.0
11
93.36631
21
164.11913
31
0.0
0
LINE
8
SCORE
10
94.36597
20
164.14519
30
0.0
11
96.36529
21
164.19729
31
0.0
0
LINE
8
SCORE
10
97.36495
20
164.22335
30
0.0
11
99.36427
21
164.27546
31
0.0
0
LINE
8
SCORE
10
162.00740
20
408.21467
30
0.0
11
162.84043
21
406.39641
31
0.0
0
LINE
8
SCORE
10
163.25694
20
405.48728
30
0.0
11
164.08997
21
403.66902
31
0.0
0
LINE
8
SCORE
10
164.50649
20
402.75989
30
0.0
11
165.33951
21
400.94163
31
0.0
0
LINE
8
SCORE
10
165.75603
20
400.03250
30
0.0
11
166.58905
21
398.21424
31
0.0
0
LINE
8
SCORE
10
167.00557
20
397.30511
30
0.0
11
167.83859
21
395.48685
31
0.0
0
LINE
8
SCORE
10
168.25511
20
394.57772
30
0.0
11
169.08814
21
392.75947
31
0.0
0
LINE
8
SCORE
10
169.50465
20
391.85034
30
0.0
11
170.33768
21
390.03208
31
0.0
0
LINE
8
SCORE
10
170.75419
20
389.12295
30
0.0
11
171.58722
21
387.30469
31
0.0
0
LINE
8
SCORE
10
172.00373
20
386.39556
30
0.0
11
172.83676
21
384.57730
31
0.0
0
LINE
8
SCORE
10
173.25327
20
383.66817
30
0.0
11
174.08630
21
381.84991
31
0.0
0
LINE
8
SCORE
10
174.50281
20
380.94078
30
0.0
11
175.33584
21
379.12252
31
0.0
0
LINE
8
SCORE
10
175.75235
20
378.21339
30
0.0
11
176.58538
21
376.39514
31
0.0
0
LINE
8
SCORE
10
177.00190
20
375.48601
30
0.0
11
177.83492
21
373.66775
31
0.0
0
LINE
8
SCORE
10
178.25144
20
372.75862
30
0.0
11
179.08446
21
370.94036
31
0.0
0
LINE
8
SCORE
10
179.50098
20
370.03123
30
0.0
11
180.33400
21
368.21297
31
0.0
0
LINE
8
SCORE
10
180.75052
20
367.30384
30
0.0
11
181.58355
21
365.48558
31
0.0
0
LINE
8
SCORE
10
182.00006
20
364.57645
30
0.0
11
182.83309
21
362.75819
31
0.0
0
LINE
8
SCORE
10
183.24960
20
361.84906
30
0.0
11
184.08263
21
360.03081
31
0.0
0
LINE
8
SCORE
10
184.49914
20
359.12168
30
0.0
11
185.33217
21
357.30342
31
0.0
0
LINE
8
SCORE
10
185.74868
20
356.39429
30
0.0
11
186.58171
21
354.57603
31
0.0
0
LINE
8
SCORE
10
186.99822
20
353.66690
30
0.0
11
187.83125
21
351.84864
31
0.0
0
LINE
8
SCORE
10
188.24776
20
350.93951
30
0.0
11
189.08079
21
349.12125
31
0.0
0
LINE
8
SCORE
10
189.49730
20
348.21212
30
0.0
11
190.33033
21
346.39386
31
0.0
0
LINE
8
SCORE
10
190.74685
20
345.48473
30
0.0
11
191.57987
21
343.66647
31
0.0
0
LINE
8
SCORE
10
191.99639
20
342.75735
30
0.0
11
192.82941
21
340.93909
31
0.0
0
LINE
8
SCORE
10
193.24593
20
340.02996
30
0.0
11
194.07895
21
338.21170
31
0.0
0
LINE
8
SCORE
10
194.49547
20
337.30257
30
0.0
11
195.32850
21
335.48431
31
0.0
0
LINE
8
SCORE
10
195.74501
20
334.57518
30
0.0
11
196.57804
21
332.75692
31
0.0
0
LINE
8
SCORE
10
196.99455
20
331.84779
30
0.0
11
197.82758
21
330.02953
31
0.0
0
LINE
8
SCORE
10
198.24409
20
329.12040
30
0.0
11
199.07712
21
327.30214
31
0.0
0
LINE
8
SCORE
10
199.49363
20
326.39301
30
0.0
11
200.32666
21
324.57476
31
0.0
0
LINE
8
SCORE
10
200.74317
20
323.66563
30
0.0
11
201.57620
21
321.84737
31
0.0
0
LINE
8
SCORE
10
201.99271
20
320.93824
30
0.0
11
202.82574
21
319.11998
31
0.0
0
LINE
8
SCORE
10
203.24226
20
318.21085
30
0.0
11
204.07528
21
316.39259
31
0.0
0
LINE
8
SCORE
10
204.49180
20
315.48346
30
0.0
11
205.32482
21
313.66520
31
0.0
0
LINE
8
SCORE
10
205.74134
20
312.75607
30
0.0
11
206.57436
21
310.93781
31
0.0
0
LINE
8
SCORE
10
206.99088
20
310.02868
30
0.0
11
207.82391
21
308.21043
31
0.0
0
LINE
8
SCORE
10
208.24042
20
307.30130
30
0.0
11
209.07345
21
305.48304
31
0.0
0
LINE
8
SCORE
10
209.48996
20
304.57391
30
0.0
11
210.32299
21
302.75565
31
0.0
0
LINE
8
SCORE
10
210.73950
20
301.84652
30
0.0
11
211.57253
21
300.02826
31
0.0
0
LINE
8
SCORE
10
211.98904
20
299.11913
30
0.0
11
212.82207
21
297.30087
31
0.0
0
LINE
8
SCORE
10
213.23858
20
296.39174
30
0.0
11
214.07161
21
294.57348
31
0.0
0
LINE
8
SCORE
10
214.48812
20
293.66435
30
0.0
11
215.32115
21
291.84610
31
0.0
0
LINE
8
SCORE
10
215.73766
20
290.93697
30
0.0
11
216.57069
21
289.11871
31
0.0
0
LINE
8
SCORE
10
216.98721
20
288.20958
30
0.0
11
217.82023
21
286.39132
31
0.0
0
LINE
8
SCORE
10
218.23675
20
285.48219
30
0.0
11
219.06977
21
283.66393
31
0.0
0
LINE
8
SCORE
10
219.48629
20
282.75480
30
0.0
11
220.31932
21
280.93654
31
0.0
0
LINE
8
SCORE
10
220.73583
20
280.02741
30
0.0
11
221.56886
21
278.20915
31
0.0
0
LINE
8
SCORE
10
221.98537
20
277.30002
30
0.0
11
222.81840
21
275.48177
31
0.0
0
LINE
8
SCORE
10
223.23491
20
274.57264
30
0.0
11
224.06794
21
272.75438
31
0.0
0
LINE
8
SCORE
10
224.48445
20
271.84525
30
0.0
11
225.31748
21
270.02699
31
0.0
0
LINE
8
SCORE
10
225.73399
20
269.11786
30
0.0
11
226.56702
21
267.29960
31
0.0
0
LINE
8
SCORE
10
226.98353
20
266.39047
30
0.0
11
227.81656
21
264.57221
31
0.0
0
LINE
8
SCORE
10
228.23307
20
263.66308
30
0.0
11
229.06610
21
261.84482
31
0.0
0
LINE
8
SCORE
10
229.48262
20
260.93569
30
0.0
11
230.31564
21
259.11743
31
0.0
0
LINE
8
SCORE
10
230.73216
20
258.20831
30
0.0
11
231.56518
21
256.39005
31
0.0
0
LINE
8
SCORE
10
231.98170
20
255.48092
30
0.0
11
232.81472
21
253.66266
31
0.0
0
LINE
8
SCORE
10
233.23124
20
252.75353
30
0.0
11
234.06427
21
250.93527
31
0.0
0
LINE
8
SCORE
10
234.48078
20
250.02614
30
0.0
11
235.31381
21
248.20788
31
0.0
0
LINE
8
SCORE
10
235.73032
20
247.29875
30
0.0
11
236.56335
21
245.48049
31
0.0
0
LINE
8
SCORE
10
236.97986
20
244.57136
30
0.0
11
237.81289
21
242.75310
31
0.0
0
LINE
8
SCORE
10
238.22940
20
241.84398
30
0.0
11
239.06243
21
240.02572
31
0.0
0
LINE
8
SCORE
10
239.47894
20
239.11659
30
0.0
11
240.31197
21
237.29833
31
0.0
0
LINE
8
SCORE
10
240.72848
20
236.38920
30
0.0
11
241.56151
21
234.57094
31
0.0
0
LINE
8
SCORE
10
241.97803
20
233.66181
30
0.0
11
242.81105
21
231.84355
31
0.0
0
LINE
8
SCORE
10
243.22757
20
230.93442
30
0.0
11
244.06059
21
229.11616
31
0.0
0
LINE
8
SCORE
10
244.47711
20
228.20703
30
0.0
11
245.31013
21
226.38877
31
0.0
0
LINE
8
SCORE
10
245.72665
20
225.47964
30
0.0
11
246.45269
21
223.89491
31
0.0
0
LINE
8
SCORE2
10
98.81308
20
154.88307
30
0.0
11
92.56328
21
394.68528
31
0.0
0
LINE
8
SCORE2
10
1.39753
20
161.72222
30
0.0
11
99.94336
21
164.29055
31
0.0
0
LINE
8
SCORE2
10
162.00740
20
408.21467
30
0.0
11
246.45269
21
223.89491
31
0.0
0
ENDSEC
0
EOF
