<svg xmlns="http://www.w3.org/2000/svg" viewBox="0 0 333.0746169150344 439.6152411521583" width="100%" preserveAspectRatio="xMidYMid meet">
<rect x="0" y="0" width="333.0746169150344" height="439.6152411521583" fill="#0d1117"/>
<polygon points="115.24,395.61 128.02,397.63 140.61,400.63 152.93,404.61 163.71,409.05 161.99,408.26 246.45,223.89 242.34,222.01 236.77,224.08 232.95,222.33 230.88,216.76 217.29,210.53 211.72,212.60 207.90,210.85 205.83,205.29 196.11,200.83 190.54,202.90 186.73,201.15 184.66,195.58 179.79,193.36 174.23,195.42 170.41,193.68 168.34,188.11 154.34,181.69 148.77,183.76 144.95,182.01 142.88,176.45 134.22,172.47 128.65,174.54 124.83,172.79 122.76,167.23 114.09,163.26 108.53,165.32 104.71,163.58 102.64,158.01 98.78,156.24 92.57,394.60 102.33,394.60" fill="#1f3a5f" fill-opacity="0.55" stroke="none"/>
<polygon points="98.57,164.25 1.40,161.72 0.00,215.35 20.74,256.98 17.22,391.96 18.17,392.02 19.11,392.07 20.06,392.13 21.00,392.18 21.95,392.24 22.89,392.30 23.84,392.36 24.79,392.41 25.73,392.47 26.68,392.53 27.62,392.58 28.57,392.64 29.51,392.70 30.46,392.76 31.41,392.82 32.35,392.88 33.30,392.93 34.24,392.99 35.19,393.05 36.13,393.11 37.08,393.17 38.02,393.23 38.97,393.29 92.56,394.69" fill="#3a2f1f" fill-opacity="0.55" stroke="none"/>
<polygon points="77.28,4.36 77.93,1.20 64.73,0.86 65.21,4.04 44.43,3.50 45.08,0.34 31.88,0.00 32.36,3.19 5.55,2.49 1.40,161.72 98.57,164.25 102.72,5.02" fill="#3a2f1f" fill-opacity="0.55" stroke="none"/>
<polygon points="310.69,317.07 333.07,268.20 244.70,227.71 162.01,408.21 230.55,439.62 275.11,342.33" fill="#3a2f1f" fill-opacity="0.55" stroke="none"/>
<path d="M -0.08,215.36 L 5.47,2.41 L 32.28,3.11 L 31.79,-0.08 L 45.17,0.27 L 44.52,3.43 L 65.12,3.97 L 64.64,0.78 L 78.02,1.13 L 77.37,4.29 L 102.80,4.95 L 98.85,156.19 L 102.70,157.95 L 104.77,163.52 L 108.53,165.24 L 114.10,163.17 L 122.82,167.17 L 124.89,172.74 L 128.65,174.46 L 134.22,172.39 L 142.94,176.39 L 145.01,181.96 L 148.77,183.68 L 154.34,181.61 L 168.40,188.05 L 170.47,193.62 L 174.23,195.34 L 179.80,193.27 L 184.72,195.53 L 186.79,201.10 L 190.55,202.82 L 196.12,200.75 L 205.89,205.23 L 207.96,210.80 L 211.72,212.52 L 217.29,210.45 L 230.94,216.71 L 233.01,222.27 L 236.77,224.00 L 242.34,221.93 L 246.55,223.86 L 244.80,227.68 L 333.17,268.16 L 310.75,317.12 L 275.17,342.38 L 230.58,439.71 L 164.04,409.23 L 164.03,409.26 L 152.90,404.68 L 140.59,400.70 L 128.01,397.70 L 115.23,395.69 L 102.33,394.68 L 92.64,394.68 L 92.64,394.76 L 38.97,393.36 L 37.07,393.24 L 36.13,393.19 L 34.24,393.07 L 33.29,393.01 L 31.40,392.89 L 30.46,392.83 L 28.56,392.72 L 27.62,392.66 L 25.73,392.54 L 24.78,392.49 L 22.89,392.37 L 21.94,392.32 L 20.05,392.20 L 18.16,392.09 L 17.14,392.03 L 20.66,257.00 L -0.08,215.36 Z" fill="none" stroke="#ff0000" stroke-width="0.6"/>
<path d="M 265.19,244.11 L 266.54,241.18 L 277.49,246.20 L 276.15,249.13 L 265.19,244.11 Z" fill="none" stroke="#ff0000" stroke-width="0.6"/>
<path d="M 295.07,257.80 L 296.41,254.87 L 307.37,259.89 L 306.02,262.82 L 295.07,257.80 Z" fill="none" stroke="#ff0000" stroke-width="0.6"/>
<line x1="98.81" y1="154.88" x2="92.56" y2="394.69" stroke="#00a650" stroke-width="1.6" stroke-opacity="0.8"/>
<line x1="1.40" y1="161.72" x2="99.94" y2="164.29" stroke="#00a650" stroke-width="1.6" stroke-opacity="0.8"/>
<line x1="162.01" y1="408.21" x2="246.45" y2="223.89" stroke="#00a650" stroke-width="1.6" stroke-opacity="0.8"/>
<line x1="98.81" y1="154.88" x2="92.56" y2="394.69" stroke="#0000ff" stroke-width="0.8" stroke-dasharray="2 1.5"/>
<line x1="1.40" y1="161.72" x2="99.94" y2="164.29" stroke="#0000ff" stroke-width="0.8" stroke-dasharray="2 1.5"/>
<line x1="162.01" y1="408.21" x2="246.45" y2="223.89" stroke="#0000ff" stroke-width="0.8" stroke-dasharray="2 1.5"/>
<text x="95.7" y="274.8" fill="#9ad" font-size="5" text-anchor="middle">90°</text>
<text x="50.7" y="163.0" fill="#9ad" font-size="5" text-anchor="middle">113°</text>
<text x="204.2" y="316.1" fill="#9ad" font-size="5" text-anchor="middle">90°</text>
</svg>