0
SECTION
2
ENTITIES
0
POLYLINE
8
CUT
66
1
70
1
0
VERTEX
8
CUT
10
0.94488
20
1.10236
30
0.0
0
VERTEX
8
CUT
10
2.20472
20
1.10236
30
0.0
0
VERTEX
8
CUT
10
2.20472
20
2.75591
30
0.0
0
VERTEX
8
CUT
10
0.94488
20
2.75591
30
0.0
0
SEQEND
0
POLYLINE
8
CUT
66
1
70
1
0
VERTEX
8
CUT
10
2.44094
20
1.10236
30
0.0
0
VERTEX
8
CUT
10
3.70079
20
1.10236
30
0.0
0
VERTEX
8
CUT
10
3.70079
20
2.75591
30
0.0
0
VERTEX
8
CUT
10
2.44094
20
2.75591
30
0.0
0
SEQEND
0
POLYLINE
8
CUT
66
1
70
1
0
VERTEX
8
CUT
10
3.93701
20
1.10236
30
0.0
0
VERTEX
8
CUT
10
5.19685
20
1.10236
30
0.0
0
VERTEX
8
CUT
10
5.19685
20
2.75591
30
0.0
0
VERTEX
8
CUT
10
3.93701
20
2.75591
30
0.0
0
SEQEND
0
POLYLINE
8
CUT
66
1
70
1
0
VERTEX
8
CUT
10
5.43307
20
1.10236
30
0.0
0
VERTEX
8
CUT
10
6.69291
20
1.10236
30
0.0
0
VERTEX
8
CUT
10
6.69291
20
2.75591
30
0.0
0
VERTEX
8
CUT
10
5.43307
20
2.75591
30
0.0
0
SEQEND
0
POLYLINE
8
CUT
66
1
70
1
0
VERTEX
8
CUT
10
0.94488
20
2.99213
30
0.0
0
VERTEX
8
CUT
10
2.20472
20
2.99213
30
0.0
0
VERTEX
8
CUT
10
2.20472
20
4.64567
30
0.0
0
VERTEX
8
CUT
10
0.94488
20
4.64567
30
0.0
0
SEQEND
0
POLYLINE
8
CUT
66
1
70
1
0
VERTEX
8
CUT
10
2.44094
20
2.99213
30
0.0
0
VERTEX
8
CUT
10
3.70079
20
2.99213
30
0.0
0
VERTEX
8
CUT
10
3.70079
20
4.64567
30
0.0
0
VERTEX
8
CUT
10
2.44094
20
4.64567
30
0.0
0
SEQEND
0
POLYLINE
8
CUT
66
1
70
1
0
VERTEX
8
CUT
10
3.93701
20
2.99213
30
0.0
0
VERTEX
8
CUT
10
5.19685
20
2.99213
30
0.0
0
VERTEX
8
CUT
10
5.19685
20
4.64567
30
0.0
0
VERTEX
8
CUT
10
3.93701
20
4.64567
30
0.0
0
SEQEND
0
POLYLINE
8
CUT
66
1
70
1
0
VERTEX
8
CUT
10
5.43307
20
2.99213
30
0.0
0
VERTEX
8
CUT
10
6.69291
20
2.99213
30
0.0
0
VERTEX
8
CUT
10
6.69291
20
4.64567
30
0.0
0
VERTEX
8
CUT
10
5.43307
20
4.64567
30
0.0
0
SEQEND
0
POLYLINE
8
CUT
66
1
70
1
0
VERTEX
8
CUT
10
0.94488
20
4.88189
30
0.0
0
VERTEX
8
CUT
10
2.20472
20
4.88189
30
0.0
0
VERTEX
8
CUT
10
2.20472
20
6.53543
30
0.0
0
VERTEX
8
CUT
10
0.94488
20
6.53543
30
0.0
0
SEQEND
0
POLYLINE
8
CUT
66
1
70
1
0
VERTEX
8
CUT
10
2.44094
20
4.88189
30
0.0
0
VERTEX
8
CUT
10
3.70079
20
4.88189
30
0.0
0
VERTEX
8
CUT
10
3.70079
20
6.53543
30
0.0
0
VERTEX
8
CUT
10
2.44094
20
6.53543
30
0.0
0
SEQEND
0
POLYLINE
8
CUT
66
1
70
1
0
VERTEX
8
CUT
10
3.93701
20
4.88189
30
0.0
0
VERTEX
8
CUT
10
5.19685
20
4.88189
30
0.0
0
VERTEX
8
CUT
10
5.19685
20
6.53543
30
0.0
0
VERTEX
8
CUT
10
3.93701
20
6.53543
30
0.0
0
SEQEND
0
POLYLINE
8
CUT
66
1
70
1
0
VERTEX
8
CUT
10
5.43307
20
4.88189
30
0.0
0
VERTEX
8
CUT
10
6.69291
20
4.88189
30
0.0
0
VERTEX
8
CUT
10
6.69291
20
6.53543
30
0.0
0
VERTEX
8
CUT
10
5.43307
20
6.53543
30
0.0
0
SEQEND
0
POLYLINE
8
CUT
66
1
70
1
0
VERTEX
8
CUT
10
0.94488
20
6.77165
30
0.0
0
VERTEX
8
CUT
10
2.20472
20
6.77165
30
0.0
0
VERTEX
8
CUT
10
2.20472
20
8.42520
30
0.0
0
VERTEX
8
CUT
10
0.94488
20
8.42520
30
0.0
0
SEQEND
0
POLYLINE
8
CUT
66
1
70
1
0
VERTEX
8
CUT
10
2.44094
20
6.77165
30
0.0
0
VERTEX
8
CUT
10
3.70079
20
6.77165
30
0.0
0
VERTEX
8
CUT
10
3.70079
20
8.42520
30
0.0
0
VERTEX
8
CUT
10
2.44094
20
8.42520
30
0.0
0
SEQEND
0
POLYLINE
8
CUT
66
1
70
1
0
VERTEX
8
CUT
10
3.93701
20
6.77165
30
0.0
0
VERTEX
8
CUT
10
5.19685
20
6.77165
30
0.0
0
VERTEX
8
CUT
10
5.19685
20
8.42520
30
0.0
0
VERTEX
8
CUT
10
3.93701
20
8.42520
30
0.0
0
SEQEND
0
POLYLINE
8
CUT
66
1
70
1
0
VERTEX
8
CUT
10
5.43307
20
6.77165
30
0.0
0
VERTEX
8
CUT
10
6.69291
20
6.77165
30
0.0
0
VERTEX
8
CUT
10
6.69291
20
8.42520
30
0.0
0
VERTEX
8
CUT
10
5.43307
20
8.42520
30
0.0
0
SEQEND
0
LINE
8
SCORE
10
0.94488
20
1.92913
30
0.0
11
0.98425
21
1.92913
31
0.0
0
LINE
8
SCORE
10
1.00394
20
1.92913
30
0.0
11
1.04331
21
1.92913
31
0.0
0
LINE
8
SCORE
10
1.06299
20
1.92913
30
0.0
11
1.10236
21
1.92913
31
0.0
0
LINE
8
SCORE
10
1.12205
20
1.92913
30
0.0
11
1.16142
21
1.92913
31
0.0
0
LINE
8
SCORE
10
1.18110
20
1.92913
30
0.0
11
1.22047
21
1.92913
31
0.0
0
LINE
8
SCORE
10
1.24016
20
1.92913
30
0.0
11
1.27953
21
1.92913
31
0.0
0
LINE
8
SCORE
10
1.29921
20
1.92913
30
0.0
11
1.33858
21
1.92913
31
0.0
0
LINE
8
SCORE
10
1.35827
20
1.92913
30
0.0
11
1.39764
21
1.92913
31
0.0
0
LINE
8
SCORE
10
1.41732
20
1.92913
30
0.0
11
1.45669
21
1.92913
31
0.0
0
LINE
8
SCORE
10
1.47638
20
1.92913
30
0.0
11
1.51575
21
1.92913
31
0.0
0
LINE
8
SCORE
10
1.53543
20
1.92913
30
0.0
11
1.57480
21
1.92913
31
0.0
0
LINE
8
SCORE
10
1.59449
20
1.92913
30
0.0
11
1.63386
21
1.92913
31
0.0
0
LINE
8
SCORE
10
1.65354
20
1.92913
30
0.0
11
1.69291
21
1.92913
31
0.0
0
LINE
8
SCORE
10
1.71260
20
1.92913
30
0.0
11
1.75197
21
1.92913
31
0.0
0
LINE
8
SCORE
10
1.77165
20
1.92913
30
0.0
11
1.81102
21
1.92913
31
0.0
0
LINE
8
SCORE
10
1.83071
20
1.92913
30
0.0
11
1.87008
21
1.92913
31
0.0
0
LINE
8
SCORE
10
1.88976
20
1.92913
30
0.0
11
1.92913
21
1.92913
31
0.0
0
LINE
8
SCORE
10
1.94882
20
1.92913
30
0.0
11
1.98819
21
1.92913
31
0.0
0
LINE
8
SCORE
10
2.00787
20
1.92913
30
0.0
11
2.04724
21
1.92913
31
0.0
0
LINE
8
SCORE
10
2.06693
20
1.92913
30
0.0
11
2.10630
21
1.92913
31
0.0
0
LINE
8
SCORE
10
2.12598
20
1.92913
30
0.0
11
2.16535
21
1.92913
31
0.0
0
LINE
8
SCORE
10
2.18504
20
1.92913
30
0.0
11
2.20472
21
1.92913
31
0.0
0
LINE
8
SCORE
10
2.44094
20
1.92913
30
0.0
11
2.48031
21
1.92913
31
0.0
0
LINE
8
SCORE
10
2.51969
20
1.92913
30
0.0
11
2.55906
21
1.92913
31
0.0
0
LINE
8
SCORE
10
2.59843
20
1.92913
30
0.0
11
2.63780
21
1.92913
31
0.0
0
LINE
8
SCORE
10
2.67717
20
1.92913
30
0.0
11
2.71654
21
1.92913
31
0.0
0
LINE
8
SCORE
10
2.75591
20
1.92913
30
0.0
11
2.79528
21
1.92913
31
0.0
0
LINE
8
SCORE
10
2.83465
20
1.92913
30
0.0
11
2.87402
21
1.92913
31
0.0
0
LINE
8
SCORE
10
2.91339
20
1.92913
30
0.0
11
2.95276
21
1.92913
31
0.0
0
LINE
8
SCORE
10
2.99213
20
1.92913
30
0.0
11
3.03150
21
1.92913
31
0.0
0
LINE
8
SCORE
10
3.07087
20
1.92913
30
0.0
11
3.11024
21
1.92913
31
0.0
0
LINE
8
SCORE
10
3.14961
20
1.92913
30
0.0
11
3.18898
21
1.92913
31
0.0
0
LINE
8
SCORE
10
3.22835
20
1.92913
30
0.0
11
3.26772
21
1.92913
31
0.0
0
LINE
8
SCORE
10
3.30709
20
1.92913
30
0.0
11
3.34646
21
1.92913
31
0.0
0
LINE
8
SCORE
10
3.38583
20
1.92913
30
0.0
11
3.42520
21
1.92913
31
0.0
0
LINE
8
SCORE
10
3.46457
20
1.92913
30
0.0
11
3.50394
21
1.92913
31
0.0
0
LINE
8
SCORE
10
3.54331
20
1.92913
30
0.0
11
3.58268
21
1.92913
31
0.0
0
LINE
8
SCORE
10
3.62205
20
1.92913
30
0.0
11
3.66142
21
1.92913
31
0.0
0
LINE
8
SCORE
10
3.93701
20
1.92913
30
0.0
11
3.97638
21
1.92913
31
0.0
0
LINE
8
SCORE
10
4.03543
20
1.92913
30
0.0
11
4.07480
21
1.92913
31
0.0
0
LINE
8
SCORE
10
4.13386
20
1.92913
30
0.0
11
4.17323
21
1.92913
31
0.0
0
LINE
8
SCORE
10
4.23228
20
1.92913
30
0.0
11
4.27165
21
1.92913
31
0.0
0
LINE
8
SCORE
10
4.33071
20
1.92913
30
0.0
11
4.37008
21
1.92913
31
0.0
0
LINE
8
SCORE
10
4.42913
20
1.92913
30
0.0
11
4.46850
21
1.92913
31
0.0
0
LINE
8
SCORE
10
4.52756
20
1.92913
30
0.0
11
4.56693
21
1.92913
31
0.0
0
LINE
8
SCORE
10
4.62598
20
1.92913
30
0.0
11
4.66535
21
1.92913
31
0.0
0
LINE
8
SCORE
10
4.72441
20
1.92913
30
0.0
11
4.76378
21
1.92913
31
0.0
0
LINE
8
SCORE
10
4.82283
20
1.92913
30
0.0
11
4.86220
21
1.92913
31
0.0
0
LINE
8
SCORE
10
4.92126
20
1.92913
30
0.0
11
4.96063
21
1.92913
31
0.0
0
LINE
8
SCORE
10
5.01969
20
1.92913
30
0.0
11
5.05906
21
1.92913
31
0.0
0
LINE
8
SCORE
10
5.11811
20
1.92913
30
0.0
11
5.15748
21
1.92913
31
0.0
0
LINE
8
SCORE
10
5.43307
20
1.92913
30
0.0
11
5.47244
21
1.92913
31
0.0
0
LINE
8
SCORE
10
5.55118
20
1.92913
30
0.0
11
5.59055
21
1.92913
31
0.0
0
LINE
8
SCORE
10
5.66929
20
1.92913
30
0.0
11
5.70866
21
1.92913
31
0.0
0
LINE
8
SCORE
10
5.78740
20
1.92913
30
0.0
11
5.82677
21
1.92913
31
0.0
0
LINE
8
SCORE
10
5.90551
20
1.92913
30
0.0
11
5.94488
21
1.92913
31
0.0
0
LINE
8
SCORE
10
6.02362
20
1.92913
30
0.0
11
6.06299
21
1.92913
31
0.0
0
LINE
8
SCORE
10
6.14173
20
1.92913
30
0.0
11
6.18110
21
1.92913
31
0.0
0
LINE
8
SCORE
10
6.25984
20
1.92913
30
0.0
11
6.29921
21
1.92913
31
0.0
0
LINE
8
SCORE
10
6.37795
20
1.92913
30
0.0
11
6.41732
21
1.92913
31
0.0
0
LINE
8
SCORE
10
6.49606
20
1.92913
30
0.0
11
6.53543
21
1.92913
31
0.0
0
LINE
8
SCORE
10
6.61417
20
1.92913
30
0.0
11
6.65354
21
1.92913
31
0.0
0
LINE
8
SCORE
10
0.94488
20
3.81890
30
0.0
11
1.02362
21
3.81890
31
0.0
0
LINE
8
SCORE
10
1.04331
20
3.81890
30
0.0
11
1.12205
21
3.81890
31
0.0
0
LINE
8
SCORE
10
1.14173
20
3.81890
30
0.0
11
1.22047
21
3.81890
31
0.0
0
LINE
8
SCORE
10
1.24016
20
3.81890
30
0.0
11
1.31890
21
3.81890
31
0.0
0
LINE
8
SCORE
10
1.33858
20
3.81890
30
0.0
11
1.41732
21
3.81890
31
0.0
0
LINE
8
SCORE
10
1.43701
20
3.81890
30
0.0
11
1.51575
21
3.81890
31
0.0
0
LINE
8
SCORE
10
1.53543
20
3.81890
30
0.0
11
1.61417
21
3.81890
31
0.0
0
LINE
8
SCORE
10
1.63386
20
3.81890
30
0.0
11
1.71260
21
3.81890
31
0.0
0
LINE
8
SCORE
10
1.73228
20
3.81890
30
0.0
11
1.81102
21
3.81890
31
0.0
0
LINE
8
SCORE
10
1.83071
20
3.81890
30
0.0
11
1.90945
21
3.81890
31
0.0
0
LINE
8
SCORE
10
1.92913
20
3.81890
30
0.0
11
2.00787
21
3.81890
31
0.0
0
LINE
8
SCORE
10
2.02756
20
3.81890
30
0.0
11
2.10630
21
3.81890
31
0.0
0
LINE
8
SCORE
10
2.12598
20
3.81890
30
0.0
11
2.20472
21
3.81890
31
0.0
0
LINE
8
SCORE
10
2.44094
20
3.81890
30
0.0
11
2.51969
21
3.81890
31
0.0
0
LINE
8
SCORE
10
2.55906
20
3.81890
30
0.0
11
2.63780
21
3.81890
31
0.0
0
LINE
8
SCORE
10
2.67717
20
3.81890
30
0.0
11
2.75591
21
3.81890
31
0.0
0
LINE
8
SCORE
10
2.79528
20
3.81890
30
0.0
11
2.87402
21
3.81890
31
0.0
0
LINE
8
SCORE
10
2.91339
20
3.81890
30
0.0
11
2.99213
21
3.81890
31
0.0
0
LINE
8
SCORE
10
3.03150
20
3.81890
30
0.0
11
3.11024
21
3.81890
31
0.0
0
LINE
8
SCORE
10
3.14961
20
3.81890
30
0.0
11
3.22835
21
3.81890
31
0.0
0
LINE
8
SCORE
10
3.26772
20
3.81890
30
0.0
11
3.34646
21
3.81890
31
0.0
0
LINE
8
SCORE
10
3.38583
20
3.81890
30
0.0
11
3.46457
21
3.81890
31
0.0
0
LINE
8
SCORE
10
3.50394
20
3.81890
30
0.0
11
3.58268
21
3.81890
31
0.0
0
LINE
8
SCORE
10
3.62205
20
3.81890
30
0.0
11
3.70079
21
3.81890
31
0.0
0
LINE
8
SCORE
10
3.93701
20
3.81890
30
0.0
11
4.01575
21
3.81890
31
0.0
0
LINE
8
SCORE
10
4.07480
20
3.81890
30
0.0
11
4.15354
21
3.81890
31
0.0
0
LINE
8
SCORE
10
4.21260
20
3.81890
30
0.0
11
4.29134
21
3.81890
31
0.0
0
LINE
8
SCORE
10
4.35039
20
3.81890
30
0.0
11
4.42913
21
3.81890
31
0.0
0
LINE
8
SCORE
10
4.48819
20
3.81890
30
0.0
11
4.56693
21
3.81890
31
0.0
0
LINE
8
SCORE
10
4.62598
20
3.81890
30
0.0
11
4.70472
21
3.81890
31
0.0
0
LINE
8
SCORE
10
4.76378
20
3.81890
30
0.0
11
4.84252
21
3.81890
31
0.0
0
LINE
8
SCORE
10
4.90157
20
3.81890
30
0.0
11
4.98031
21
3.81890
31
0.0
0
LINE
8
SCORE
10
5.03937
20
3.81890
30
0.0
11
5.11811
21
3.81890
31
0.0
0
LINE
8
SCORE
10
5.17717
20
3.81890
30
0.0
11
5.19685
21
3.81890
31
0.0
0
LINE
8
SCORE
10
5.43307
20
3.81890
30
0.0
11
5.51181
21
3.81890
31
0.0
0
LINE
8
SCORE
10
5.59055
20
3.81890
30
0.0
11
5.66929
21
3.81890
31
0.0
0
LINE
8
SCORE
10
5.74803
20
3.81890
30
0.0
11
5.82677
21
3.81890
31
0.0
0
LINE
8
SCORE
10
5.90551
20
3.81890
30
0.0
11
5.98425
21
3.81890
31
0.0
0
LINE
8
SCORE
10
6.06299
20
3.81890
30
0.0
11
6.14173
21
3.81890
31
0.0
0
LINE
8
SCORE
10
6.22047
20
3.81890
30
0.0
11
6.29921
21
3.81890
31
0.0
0
LINE
8
SCORE
10
6.37795
20
3.81890
30
0.0
11
6.45669
21
3.81890
31
0.0
0
LINE
8
SCORE
10
6.53543
20
3.81890
30
0.0
11
6.61417
21
3.81890
31
0.0
0
LINE
8
SCORE
10
0.94488
20
5.70866
30
0.0
11
1.06299
21
5.70866
31
0.0
0
LINE
8
SCORE
10
1.08268
20
5.70866
30
0.0
11
1.20079
21
5.70866
31
0.0
0
LINE
8
SCORE
10
1.22047
20
5.70866
30
0.0
11
1.33858
21
5.70866
31
0.0
0
LINE
8
SCORE
10
1.35827
20
5.70866
30
0.0
11
1.47638
21
5.70866
31
0.0
0
LINE
8
SCORE
10
1.49606
20
5.70866
30
0.0
11
1.61417
21
5.70866
31
0.0
0
LINE
8
SCORE
10
1.63386
20
5.70866
30
0.0
11
1.75197
21
5.70866
31
0.0
0
LINE
8
SCORE
10
1.77165
20
5.70866
30
0.0
11
1.88976
21
5.70866
31
0.0
0
LINE
8
SCORE
10
1.90945
20
5.70866
30
0.0
11
2.02756
21
5.70866
31
0.0
0
LINE
8
SCORE
10
2.04724
20
5.70866
30
0.0
11
2.16535
21
5.70866
31
0.0
0
LINE
8
SCORE
10
2.18504
20
5.70866
30
0.0
11
2.20472
21
5.70866
31
0.0
0
LINE
8
SCORE
10
2.44094
20
5.70866
30
0.0
11
2.55906
21
5.70866
31
0.0
0
LINE
8
SCORE
10
2.59843
20
5.70866
30
0.0
11
2.71654
21
5.70866
31
0.0
0
LINE
8
SCORE
10
2.75591
20
5.70866
30
0.0
11
2.87402
21
5.70866
31
0.0
0
LINE
8
SCORE
10
2.91339
20
5.70866
30
0.0
11
3.03150
21
5.70866
31
0.0
0
LINE
8
SCORE
10
3.07087
20
5.70866
30
0.0
11
3.18898
21
5.70866
31
0.0
0
LINE
8
SCORE
10
3.22835
20
5.70866
30
0.0
11
3.34646
21
5.70866
31
0.0
0
LINE
8
SCORE
10
3.38583
20
5.70866
30
0.0
11
3.50394
21
5.70866
31
0.0
0
LINE
8
SCORE
10
3.54331
20
5.70866
30
0.0
11
3.66142
21
5.70866
31
0.0
0
LINE
8
SCORE
10
3.93701
20
5.70866
30
0.0
11
4.05512
21
5.70866
31
0.0
0
LINE
8
SCORE
10
4.11417
20
5.70866
30
0.0
11
4.23228
21
5.70866
31
0.0
0
LINE
8
SCORE
10
4.29134
20
5.70866
30
0.0
11
4.40945
21
5.70866
31
0.0
0
LINE
8
SCORE
10
4.46850
20
5.70866
30
0.0
11
4.58661
21
5.70866
31
0.0
0
LINE
8
SCORE
10
4.64567
20
5.70866
30
0.0
11
4.76378
21
5.70866
31
0.0
0
LINE
8
SCORE
10
4.82283
20
5.70866
30
0.0
11
4.94094
21
5.70866
31
0.0
0
LINE
8
SCORE
10
5.00000
20
5.70866
30
0.0
11
5.11811
21
5.70866
31
0.0
0
LINE
8
SCORE
10
5.17717
20
5.70866
30
0.0
11
5.19685
21
5.70866
31
0.0
0
LINE
8
SCORE
10
5.43307
20
5.70866
30
0.0
11
5.55118
21
5.70866
31
0.0
0
LINE
8
SCORE
10
5.62992
20
5.70866
30
0.0
11
5.74803
21
5.70866
31
0.0
0
LINE
8
SCORE
10
5.82677
20
5.70866
30
0.0
11
5.94488
21
5.70866
31
0.0
0
LINE
8
SCORE
10
6.02362
20
5.70866
30
0.0
11
6.14173
21
5.70866
31
0.0
0
LINE
8
SCORE
10
6.22047
20
5.70866
30
0.0
11
6.33858
21
5.70866
31
0.0
0
LINE
8
SCORE
10
6.41732
20
5.70866
30
0.0
11
6.53543
21
5.70866
31
0.0
0
LINE
8
SCORE
10
6.61417
20
5.70866
30
0.0
11
6.69291
21
5.70866
31
0.0
0
LINE
8
SCORE
10
0.94488
20
7.59843
30
0.0
11
1.14173
21
7.59843
31
0.0
0
LINE
8
SCORE
10
1.16142
20
7.59843
30
0.0
11
1.35827
21
7.59843
31
0.0
0
LINE
8
SCORE
10
1.37795
20
7.59843
30
0.0
11
1.57480
21
7.59843
31
0.0
0
LINE
8
SCORE
10
1.59449
20
7.59843
30
0.0
11
1.79134
21
7.59843
31
0.0
0
LINE
8
SCORE
10
1.81102
20
7.59843
30
0.0
11
2.00787
21
7.59843
31
0.0
0
LINE
8
SCORE
10
2.02756
20
7.59843
30
0.0
11
2.20472
21
7.59843
31
0.0
0
LINE
8
SCORE
10
2.44094
20
7.59843
30
0.0
11
2.63780
21
7.59843
31
0.0
0
LINE
8
SCORE
10
2.67717
20
7.59843
30
0.0
11
2.87402
21
7.59843
31
0.0
0
LINE
8
SCORE
10
2.91339
20
7.59843
30
0.0
11
3.11024
21
7.59843
31
0.0
0
LINE
8
SCORE
10
3.14961
20
7.59843
30
0.0
11
3.34646
21
7.59843
31
0.0
0
LINE
8
SCORE
10
3.38583
20
7.59843
30
0.0
11
3.58268
21
7.59843
31
0.0
0
LINE
8
SCORE
10
3.62205
20
7.59843
30
0.0
11
3.70079
21
7.59843
31
0.0
0
LINE
8
SCORE
10
3.93701
20
7.59843
30
0.0
11
4.13386
21
7.59843
31
0.0
0
LINE
8
SCORE
10
4.19291
20
7.59843
30
0.0
11
4.38976
21
7.59843
31
0.0
0
LINE
8
SCORE
10
4.44882
20
7.59843
30
0.0
11
4.64567
21
7.59843
31
0.0
0
LINE
8
SCORE
10
4.70472
20
7.59843
30
0.0
11
4.90157
21
7.59843
31
0.0
0
LINE
8
SCORE
10
4.96063
20
7.59843
30
0.0
11
5.15748
21
7.59843
31
0.0
0
LINE
8
SCORE
10
5.43307
20
7.59843
30
0.0
11
5.62992
21
7.59843
31
0.0
0
LINE
8
SCORE
10
5.70866
20
7.59843
30
0.0
11
5.90551
21
7.59843
31
0.0
0
LINE
8
SCORE
10
5.98425
20
7.59843
30
0.0
11
6.18110
21
7.59843
31
0.0
0
LINE
8
SCORE
10
6.25984
20
7.59843
30
0.0
11
6.45669
21
7.59843
31
0.0
0
LINE
8
SCORE
10
6.53543
20
7.59843
30
0.0
11
6.69291
21
7.59843
31
0.0
0
ENDSEC
0
EOF
