0
SECTION
2
ENTITIES
0
POLYLINE
8
CUT
66
1
70
1
0
VERTEX
8
CUT
10
-0.07500
20
190.29687
30
0.0
0
VERTEX
8
CUT
10
21.74023
20
152.51179
30
0.0
0
VERTEX
8
CUT
10
21.74023
20
45.45284
30
0.0
0
VERTEX
8
CUT
10
94.93332
20
45.45284
30
0.0
0
VERTEX
8
CUT
10
94.93263
20
45.41748
30
0.0
0
VERTEX
8
CUT
10
106.95632
20
44.94766
30
0.0
0
VERTEX
8
CUT
10
119.80452
20
43.43536
30
0.0
0
VERTEX
8
CUT
10
132.49554
20
40.92512
30
0.0
0
VERTEX
8
CUT
10
144.95199
20
37.43225
30
0.0
0
VERTEX
8
CUT
10
157.09790
20
32.97803
30
0.0
0
VERTEX
8
CUT
10
165.90799
20
28.94173
30
0.0
0
VERTEX
8
CUT
10
165.87473
20
28.86385
30
0.0
0
VERTEX
8
CUT
10
215.24968
20
7.78149
30
0.0
0
VERTEX
8
CUT
10
217.01977
20
7.10142
30
0.0
0
VERTEX
8
CUT
10
217.90408
20
6.76141
30
0.0
0
VERTEX
8
CUT
10
219.67252
20
6.08091
30
0.0
0
VERTEX
8
CUT
10
220.55666
20
5.74043
30
0.0
0
VERTEX
8
CUT
10
222.32476
20
5.05902
30
0.0
0
VERTEX
8
CUT
10
223.20872
20
4.71810
30
0.0
0
VERTEX
8
CUT
10
224.97648
20
4.03580
30
0.0
0
VERTEX
8
CUT
10
225.86028
20
3.69444
30
0.0
0
VERTEX
8
CUT
10
227.62771
20
3.01127
30
0.0
0
VERTEX
8
CUT
10
228.51135
20
2.66947
30
0.0
0
VERTEX
8
CUT
10
230.27845
20
1.98545
30
0.0
0
VERTEX
8
CUT
10
231.16193
20
1.64323
30
0.0
0
VERTEX
8
CUT
10
232.92872
20
0.95838
30
0.0
0
VERTEX
8
CUT
10
234.69531
20
0.27299
30
0.0
0
VERTEX
8
CUT
10
235.64616
20
-0.09617
30
0.0
0
VERTEX
8
CUT
10
288.68792
20
124.12778
30
0.0
0
VERTEX
8
CUT
10
324.88445
20
153.34632
30
0.0
0
VERTEX
8
CUT
10
408.53499
20
349.25614
30
0.0
0
VERTEX
8
CUT
10
319.00093
20
387.48583
30
0.0
0
VERTEX
8
CUT
10
257.79696
20
244.14598
30
0.0
0
VERTEX
8
CUT
10
247.02321
20
244.14598
30
0.0
0
VERTEX
8
CUT
10
242.82321
20
248.34598
30
0.0
0
VERTEX
8
CUT
10
233.22788
20
248.34598
30
0.0
0
VERTEX
8
CUT
10
229.02788
20
244.14598
30
0.0
0
VERTEX
8
CUT
10
224.89001
20
244.14598
30
0.0
0
VERTEX
8
CUT
10
220.69001
20
248.34598
30
0.0
0
VERTEX
8
CUT
10
211.09468
20
248.34598
30
0.0
0
VERTEX
8
CUT
10
206.89468
20
244.14598
30
0.0
0
VERTEX
8
CUT
10
202.75682
20
244.14598
30
0.0
0
VERTEX
8
CUT
10
198.55682
20
248.34598
30
0.0
0
VERTEX
8
CUT
10
183.09468
20
248.34598
30
0.0
0
VERTEX
8
CUT
10
178.89468
20
244.14598
30
0.0
0
VERTEX
8
CUT
10
174.75682
20
244.14598
30
0.0
0
VERTEX
8
CUT
10
170.55682
20
248.34598
30
0.0
0
VERTEX
8
CUT
10
165.14530
20
248.34598
30
0.0
0
VERTEX
8
CUT
10
160.94530
20
244.14598
30
0.0
0
VERTEX
8
CUT
10
156.80744
20
244.14598
30
0.0
0
VERTEX
8
CUT
10
152.60744
20
248.34598
30
0.0
0
VERTEX
8
CUT
10
141.85150
20
248.34598
30
0.0
0
VERTEX
8
CUT
10
137.65150
20
244.14598
30
0.0
0
VERTEX
8
CUT
10
133.51363
20
244.14598
30
0.0
0
VERTEX
8
CUT
10
129.31363
20
248.34598
30
0.0
0
VERTEX
8
CUT
10
114.29823
20
248.34598
30
0.0
0
VERTEX
8
CUT
10
110.09823
20
244.14598
30
0.0
0
VERTEX
8
CUT
10
-0.07500
20
244.14598
30
0.0
0
VERTEX
8
CUT
10
-0.07500
20
190.29687
30
0.0
0
SEQEND
0
LINE
8
SCORE
10
258.37885
20
245.31776
30
0.0
11
256.41542
21
240.71939
31
0.0
0
LINE
8
SCORE
10
254.45198
20
236.12103
30
0.0
11
252.48855
21
231.52267
31
0.0
0
LINE
8
SCORE
10
250.52512
20
226.92431
30
0.0
11
248.56169
21
222.32595
31
0.0
0
LINE
8
SCORE
10
246.59826
20
217.72758
30
0.0
11
244.63483
21
213.12922
31
0.0
0
LINE
8
SCORE
10
242.67139
20
208.53086
30
0.0
11
240.70796
21
203.93250
31
0.0
0
LINE
8
SCORE
10
238.74453
20
199.33413
30
0.0
11
236.78110
21
194.73577
31
0.0
0
LINE
8
SCORE
10
234.81767
20
190.13741
30
0.0
11
232.85424
21
185.53905
31
0.0
0
LINE
8
SCORE
10
230.89080
20
180.94068
30
0.0
11
228.92737
21
176.34232
31
0.0
0
LINE
8
SCORE
10
226.96394
20
171.74396
30
0.0
11
225.00051
21
167.14560
31
0.0
0
LINE
8
SCORE
10
223.03708
20
162.54723
30
0.0
11
221.07365
21
157.94887
31
0.0
0
LINE
8
SCORE
10
219.11022
20
153.35051
30
0.0
11
217.14678
21
148.75215
31
0.0
0
LINE
8
SCORE
10
215.18335
20
144.15379
30
0.0
11
213.21992
21
139.55542
31
0.0
0
LINE
8
SCORE
10
211.25649
20
134.95706
30
0.0
11
209.29306
21
130.35870
31
0.0
0
LINE
8
SCORE
10
207.32963
20
125.76034
30
0.0
11
205.36619
21
121.16197
31
0.0
0
LINE
8
SCORE
10
203.40276
20
116.56361
30
0.0
11
201.43933
21
111.96525
31
0.0
0
LINE
8
SCORE
10
199.47590
20
107.36689
30
0.0
11
197.51247
21
102.76852
31
0.0
0
LINE
8
SCORE
10
195.54904
20
98.17016
30
0.0
11
193.58560
21
93.57180
31
0.0
0
LINE
8
SCORE
10
191.62217
20
88.97344
30
0.0
11
189.65874
21
84.37507
31
0.0
0
LINE
8
SCORE
10
187.69531
20
79.77671
30
0.0
11
185.73188
21
75.17835
31
0.0
0
LINE
8
SCORE
10
183.76845
20
70.57999
30
0.0
11
181.80502
21
65.98162
31
0.0
0
LINE
8
SCORE
10
179.84158
20
61.38326
30
0.0
11
177.87815
21
56.78490
31
0.0
0
LINE
8
SCORE
10
175.91472
20
52.18654
30
0.0
11
173.95129
21
47.58818
31
0.0
0
LINE
8
SCORE
10
171.98786
20
42.98981
30
0.0
11
170.02443
21
38.39145
31
0.0
0
LINE
8
SCORE
10
168.06099
20
33.79309
30
0.0
11
166.09756
21
29.19473
31
0.0
0
LINE
8
SCORE
10
97.20429
20
45.52784
30
0.0
11
97.20429
21
50.52784
31
0.0
0
LINE
8
SCORE
10
97.20429
20
55.52784
30
0.0
11
97.20429
21
60.52784
31
0.0
0
LINE
8
SCORE
10
97.20429
20
65.52784
30
0.0
11
97.20429
21
70.52784
31
0.0
0
LINE
8
SCORE
10
97.20429
20
75.52784
30
0.0
11
97.20429
21
80.52784
31
0.0
0
LINE
8
SCORE
10
97.20429
20
85.52784
30
0.0
11
97.20429
21
90.52784
31
0.0
0
LINE
8
SCORE
10
97.20429
20
95.52784
30
0.0
11
97.20429
21
100.52784
31
0.0
0
LINE
8
SCORE
10
97.20429
20
105.52784
30
0.0
11
97.20429
21
110.52784
31
0.0
0
LINE
8
SCORE
10
97.20429
20
115.52784
30
0.0
11
97.20429
21
120.52784
31
0.0
0
LINE
8
SCORE
10
97.20429
20
125.52784
30
0.0
11
97.20429
21
130.52784
31
0.0
0
LINE
8
SCORE
10
97.20429
20
135.52784
30
0.0
11
97.20429
21
140.52784
31
0.0
0
LINE
8
SCORE
10
97.20429
20
145.52784
30
0.0
11
97.20429
21
150.52784
31
0.0
0
LINE
8
SCORE
10
97.20429
20
155.52784
30
0.0
11
97.20429
21
160.52784
31
0.0
0
LINE
8
SCORE
10
97.20429
20
165.52784
30
0.0
11
97.20429
21
170.52784
31
0.0
0
LINE
8
SCORE
10
97.20429
20
175.52784
30
0.0
11
97.20429
21
180.52784
31
0.0
0
LINE
8
SCORE
10
97.20429
20
185.52784
30
0.0
11
97.20429
21
190.52784
31
0.0
0
LINE
8
SCORE
10
97.20429
20
195.52784
30
0.0
11
97.20429
21
200.52784
31
0.0
0
LINE
8
SCORE
10
97.20429
20
205.52784
30
0.0
11
97.20429
21
210.52784
31
0.0
0
LINE
8
SCORE
10
97.20429
20
215.52784
30
0.0
11
97.20429
21
220.52784
31
0.0
0
LINE
8
SCORE
10
97.20429
20
225.52784
30
0.0
11
97.20429
21
230.52784
31
0.0
0
LINE
8
SCORE
10
97.20429
20
235.52784
30
0.0
11
97.20429
21
240.52784
31
0.0
0
LINE
8
SCORE
10
345.88693
20
202.72518
30
0.0
11
341.28856
21
204.68861
31
0.0
0
LINE
8
SCORE
10
336.69020
20
206.65205
30
0.0
11
332.09184
21
208.61548
31
0.0
0
LINE
8
SCORE
10
327.49348
20
210.57891
30
0.0
11
322.89511
21
212.54234
31
0.0
0
LINE
8
SCORE
10
318.29675
20
214.50577
30
0.0
11
313.69839
21
216.46920
31
0.0
0
LINE
8
SCORE
10
309.10003
20
218.43264
30
0.0
11
304.50166
21
220.39607
31
0.0
0
LINE
8
SCORE
10
299.90330
20
222.35950
30
0.0
11
295.30494
21
224.32293
31
0.0
0
LINE
8
SCORE
10
290.70658
20
226.28636
30
0.0
11
286.10821
21
228.24979
31
0.0
0
LINE
8
SCORE
10
281.50985
20
230.21323
30
0.0
11
276.91149
21
232.17666
31
0.0
0
LINE
8
SCORE
10
272.31313
20
234.14009
30
0.0
11
267.71476
21
236.10352
31
0.0
0
LINE
8
SCORE
10
263.11640
20
238.06695
30
0.0
11
258.51804
21
240.03038
31
0.0
0
LINE
8
SCORE
10
253.91968
20
241.99381
30
0.0
11
253.57085
21
242.14276
31
0.0
0
LINE
8
SCORE2
10
258.37885
20
245.31776
30
0.0
11
165.97316
21
28.90338
31
0.0
0
LINE
8
SCORE2
10
97.20429
20
45.52784
30
0.0
11
97.20429
21
244.07098
31
0.0
0
LINE
8
SCORE2
10
345.88693
20
202.72518
30
0.0
11
253.57085
21
242.14276
31
0.0
0
ENDSEC
0
EOF
