<?xml version="1.0" encoding="UTF-8"?>
<svg xmlns="http://www.w3.org/2000/svg" version="1.1" width="408.4366mm" height="387.3874mm" viewBox="0 0 408.4366 387.3874">
<title>bin flat pattern</title>
<g id="cut" stroke="#ff0000" fill="none" stroke-width="0.1000">
  <path d="M -0.0750,190.2969 L 21.7402,152.5118 L 21.7402,45.4528 L 94.9333,45.4528 L 94.9326,45.4175 L 106.9563,44.9477 L 119.8045,43.4354 L 132.4955,40.9251 L 144.9520,37.4322 L 157.0979,32.9780 L 165.9080,28.9417 L 165.8747,28.8639 L 215.2497,7.7815 L 217.0198,7.1014 L 217.9041,6.7614 L 219.6725,6.0809 L 220.5567,5.7404 L 222.3248,5.0590 L 223.2087,4.7181 L 224.9765,4.0358 L 225.8603,3.6944 L 227.6277,3.0113 L 228.5113,2.6695 L 230.2785,1.9855 L 231.1619,1.6432 L 232.9287,0.9584 L 234.6953,0.2730 L 235.6462,-0.0962 L 288.6879,124.1278 L 324.8844,153.3463 L 408.5350,349.2561 L 319.0009,387.4858 L 257.7970,244.1460 L 247.0232,244.1460 L 242.8232,248.3460 L 233.2279,248.3460 L 229.0279,244.1460 L 224.8900,244.1460 L 220.6900,248.3460 L 211.0947,248.3460 L 206.8947,244.1460 L 202.7568,244.1460 L 198.5568,248.3460 L 183.0947,248.3460 L 178.8947,244.1460 L 174.7568,244.1460 L 170.5568,248.3460 L 165.1453,248.3460 L 160.9453,244.1460 L 156.8074,244.1460 L 152.6074,248.3460 L 141.8515,248.3460 L 137.6515,244.1460 L 133.5136,244.1460 L 129.3136,248.3460 L 114.2982,248.3460 L 110.0982,244.1460 L -0.0750,244.1460 L -0.0750,190.2969 Z"/>
</g>
<g id="score" stroke="#0000ff" fill="none" stroke-width="0.1000">
  <line x1="258.3788" y1="245.3178" x2="256.4154" y2="240.7194"/>
  <line x1="254.4520" y1="236.1210" x2="252.4886" y2="231.5227"/>
  <line x1="250.5251" y1="226.9243" x2="248.5617" y2="222.3259"/>
  <line x1="246.5983" y1="217.7276" x2="244.6348" y2="213.1292"/>
  <line x1="242.6714" y1="208.5309" x2="240.7080" y2="203.9325"/>
  <line x1="238.7445" y1="199.3341" x2="236.7811" y2="194.7358"/>
  <line x1="234.8177" y1="190.1374" x2="232.8542" y2="185.5390"/>
  <line x1="230.8908" y1="180.9407" x2="228.9274" y2="176.3423"/>
  <line x1="226.9639" y1="171.7440" x2="225.0005" y2="167.1456"/>
  <line x1="223.0371" y1="162.5472" x2="221.0736" y2="157.9489"/>
  <line x1="219.1102" y1="153.3505" x2="217.1468" y2="148.7521"/>
  <line x1="215.1834" y1="144.1538" x2="213.2199" y2="139.5554"/>
  <line x1="211.2565" y1="134.9571" x2="209.2931" y2="130.3587"/>
  <line x1="207.3296" y1="125.7603" x2="205.3662" y2="121.1620"/>
  <line x1="203.4028" y1="116.5636" x2="201.4393" y2="111.9652"/>
  <line x1="199.4759" y1="107.3669" x2="197.5125" y2="102.7685"/>
  <line x1="195.5490" y1="98.1702" x2="193.5856" y2="93.5718"/>
  <line x1="191.6222" y1="88.9734" x2="189.6587" y2="84.3751"/>
  <line x1="187.6953" y1="79.7767" x2="185.7319" y2="75.1783"/>
  <line x1="183.7684" y1="70.5800" x2="181.8050" y2="65.9816"/>
  <line x1="179.8416" y1="61.3833" x2="177.8782" y2="56.7849"/>
  <line x1="175.9147" y1="52.1865" x2="173.9513" y2="47.5882"/>
  <line x1="171.9879" y1="42.9898" x2="170.0244" y2="38.3915"/>
  <line x1="168.0610" y1="33.7931" x2="166.0976" y2="29.1947"/>
  <line x1="97.2043" y1="45.5278" x2="97.2043" y2="50.5278"/>
  <line x1="97.2043" y1="55.5278" x2="97.2043" y2="60.5278"/>
  <line x1="97.2043" y1="65.5278" x2="97.2043" y2="70.5278"/>
  <line x1="97.2043" y1="75.5278" x2="97.2043" y2="80.5278"/>
  <line x1="97.2043" y1="85.5278" x2="97.2043" y2="90.5278"/>
  <line x1="97.2043" y1="95.5278" x2="97.2043" y2="100.5278"/>
  <line x1="97.2043" y1="105.5278" x2="97.2043" y2="110.5278"/>
  <line x1="97.2043" y1="115.5278" x2="97.2043" y2="120.5278"/>
  <line x1="97.2043" y1="125.5278" x2="97.2043" y2="130.5278"/>
  <line x1="97.2043" y1="135.5278" x2="97.2043" y2="140.5278"/>
  <line x1="97.2043" y1="145.5278" x2="97.2043" y2="150.5278"/>
  <line x1="97.2043" y1="155.5278" x2="97.2043" y2="160.5278"/>
  <line x1="97.2043" y1="165.5278" x2="97.2043" y2="170.5278"/>
  <line x1="97.2043" y1="175.5278" x2="97.2043" y2="180.5278"/>
  <line x1="97.2043" y1="185.5278" x2="97.2043" y2="190.5278"/>
  <line x1="97.2043" y1="195.5278" x2="97.2043" y2="200.5278"/>
  <line x1="97.2043" y1="205.5278" x2="97.2043" y2="210.5278"/>
  <line x1="97.2043" y1="215.5278" x2="97.2043" y2="220.5278"/>
  <line x1="97.2043" y1="225.5278" x2="97.2043" y2="230.5278"/>
  <line x1="97.2043" y1="235.5278" x2="97.2043" y2="240.5278"/>
  <line x1="345.8869" y1="202.7252" x2="341.2886" y2="204.6886"/>
  <line x1="336.6902" y1="206.6520" x2="332.0918" y2="208.6155"/>
  <line x1="327.4935" y1="210.5789" x2="322.8951" y2="212.5423"/>
  <line x1="318.2968" y1="214.5058" x2="313.6984" y2="216.4692"/>
  <line x1="309.1000" y1="218.4326" x2="304.5017" y2="220.3961"/>
  <line x1="299.9033" y1="222.3595" x2="295.3049" y2="224.3229"/>
  <line x1="290.7066" y1="226.2864" x2="286.1082" y2="228.2498"/>
  <line x1="281.5099" y1="230.2132" x2="276.9115" y2="232.1767"/>
  <line x1="272.3131" y1="234.1401" x2="267.7148" y2="236.1035"/>
  <line x1="263.1164" y1="238.0670" x2="258.5180" y2="240.0304"/>
  <line x1="253.9197" y1="241.9938" x2="253.5709" y2="242.1428"/>
</g>
<g id="score2" stroke="#00a650" fill="none" stroke-width="0.1000">
  <line x1="258.3788" y1="245.3178" x2="165.9732" y2="28.9034"/>
  <line x1="97.2043" y1="45.5278" x2="97.2043" y2="244.0710"/>
  <line x1="345.8869" y1="202.7252" x2="253.5709" y2="242.1428"/>
</g>
<g id="labels" fill="#ff9500" font-size="3.000" font-family="sans-serif">
  <text x="159.004" y="139.105" text-anchor="middle">bin_half_left</text>
  <text x="159.004" y="143.905" text-anchor="middle"><TIMESTAMP></text>
  <text x="159.004" y="148.705" text-anchor="middle">t=3.175mm</text>
  <text x="159.004" y="153.505" text-anchor="middle">perf 5/5</text>
  <text x="159.004" y="158.305" text-anchor="middle">+score overlay</text>
  <text x="159.004" y="163.105" text-anchor="middle">kerf 0.15</text>
  <text x="159.004" y="167.905" text-anchor="middle">comp 1</text>
  <text x="159.004" y="172.705" text-anchor="middle">clear 1</text>
</g>
</svg>