0
SECTION
2
ENTITIES
0
POLYLINE
8
CUT
66
1
70
1
0
VERTEX
8
CUT
10
-0.09843
20
162.79632
30
0.0
0
VERTEX
8
CUT
10
22.12194
20
110.75616
30
0.0
0
VERTEX
8
CUT
10
58.31847
20
81.53762
30
0.0
0
VERTEX
8
CUT
10
93.17481
20
-0.09604
30
0.0
0
VERTEX
8
CUT
10
95.63809
20
0.85472
30
0.0
0
VERTEX
8
CUT
10
98.03413
20
1.77854
30
0.0
0
VERTEX
8
CUT
10
100.43050
20
2.70149
30
0.0
0
VERTEX
8
CUT
10
102.82722
20
3.62354
30
0.0
0
VERTEX
8
CUT
10
105.22428
20
4.54468
30
0.0
0
VERTEX
8
CUT
10
107.62169
20
5.46489
30
0.0
0
VERTEX
8
CUT
10
110.01946
20
6.38416
30
0.0
0
VERTEX
8
CUT
10
112.41760
20
7.30247
30
0.0
0
VERTEX
8
CUT
10
114.81611
20
8.21979
30
0.0
0
VERTEX
8
CUT
10
117.21501
20
9.13612
30
0.0
0
VERTEX
8
CUT
10
119.61428
20
10.05143
30
0.0
0
VERTEX
8
CUT
10
122.01395
20
10.96571
30
0.0
0
VERTEX
8
CUT
10
124.41402
20
11.87894
30
0.0
0
VERTEX
8
CUT
10
126.81450
20
12.79110
30
0.0
0
VERTEX
8
CUT
10
129.21539
20
13.70218
30
0.0
0
VERTEX
8
CUT
10
131.61670
20
14.61215
30
0.0
0
VERTEX
8
CUT
10
134.01843
20
15.52101
30
0.0
0
VERTEX
8
CUT
10
136.42060
20
16.42873
30
0.0
0
VERTEX
8
CUT
10
138.82320
20
17.33529
30
0.0
0
VERTEX
8
CUT
10
141.22625
20
18.24068
30
0.0
0
VERTEX
8
CUT
10
143.62976
20
19.14488
30
0.0
0
VERTEX
8
CUT
10
146.03372
20
20.04788
30
0.0
0
VERTEX
8
CUT
10
148.43974
20
20.95024
30
0.0
0
VERTEX
8
CUT
10
163.56729
20
27.40948
30
0.0
0
VERTEX
8
CUT
10
163.49324
20
27.58289
30
0.0
0
VERTEX
8
CUT
10
174.96860
20
33.29042
30
0.0
0
VERTEX
8
CUT
10
189.90109
20
39.21359
30
0.0
0
VERTEX
8
CUT
10
205.27751
20
43.86429
30
0.0
0
VERTEX
8
CUT
10
220.71906
20
47.15219
30
0.0
0
VERTEX
8
CUT
10
220.71544
20
47.17313
30
0.0
0
VERTEX
8
CUT
10
292.63722
20
56.79929
30
0.0
0
VERTEX
8
CUT
10
284.24366
20
119.51172
30
0.0
0
VERTEX
8
CUT
10
300.80885
20
160.19078
30
0.0
0
VERTEX
8
CUT
10
293.84262
20
212.23890
30
0.0
0
VERTEX
8
CUT
10
200.57391
20
199.75567
30
0.0
0
VERTEX
8
CUT
10
200.57390
20
199.75581
30
0.0
0
VERTEX
8
CUT
10
89.97799
20
199.75581
30
0.0
0
VERTEX
8
CUT
10
89.43564
20
201.02602
30
0.0
0
VERTEX
8
CUT
10
-0.09843
20
162.79632
30
0.0
0
SEQEND
0
LINE
8
SCORE
10
197.43304
20
199.25962
30
0.0
11
198.09634
21
194.30382
31
0.0
0
LINE
8
SCORE
10
198.75963
20
189.34801
30
0.0
11
199.42293
21
184.39220
31
0.0
0
LINE
8
SCORE
10
200.08622
20
179.43639
30
0.0
11
200.74952
21
174.48058
31
0.0
0
LINE
8
SCORE
10
201.41281
20
169.52477
30
0.0
11
202.07611
21
164.56896
31
0.0
0
LINE
8
SCORE
10
202.73941
20
159.61316
30
0.0
11
203.40270
21
154.65735
31
0.0
0
LINE
8
SCORE
10
204.06600
20
149.70154
30
0.0
11
204.72929
21
144.74573
31
0.0
0
LINE
8
SCORE
10
205.39259
20
139.78992
30
0.0
11
206.05588
21
134.83411
31
0.0
0
LINE
8
SCORE
10
206.71918
20
129.87830
30
0.0
11
207.38247
21
124.92249
31
0.0
0
LINE
8
SCORE
10
208.04577
20
119.96669
30
0.0
11
208.70907
21
115.01088
31
0.0
0
LINE
8
SCORE
10
209.37236
20
110.05507
30
0.0
11
210.03566
21
105.09926
31
0.0
0
LINE
8
SCORE
10
210.69895
20
100.14345
30
0.0
11
211.36225
21
95.18764
31
0.0
0
LINE
8
SCORE
10
212.02554
20
90.23183
30
0.0
11
212.68884
21
85.27603
31
0.0
0
LINE
8
SCORE
10
213.35213
20
80.32022
30
0.0
11
214.01543
21
75.36441
31
0.0
0
LINE
8
SCORE
10
214.67873
20
70.40860
30
0.0
11
215.34202
21
65.45279
31
0.0
0
LINE
8
SCORE
10
216.00532
20
60.49698
30
0.0
11
216.66861
21
55.54117
31
0.0
0
LINE
8
SCORE
10
217.33191
20
50.58537
30
0.0
11
217.83017
21
46.86262
31
0.0
0
LINE
8
SCORE
10
89.39611
20
200.92759
30
0.0
11
91.35954
21
196.32923
31
0.0
0
LINE
8
SCORE
10
93.32297
20
191.73087
30
0.0
11
95.28641
21
187.13251
31
0.0
0
LINE
8
SCORE
10
97.24984
20
182.53414
30
0.0
11
99.21327
21
177.93578
31
0.0
0
LINE
8
SCORE
10
101.17670
20
173.33742
30
0.0
11
103.14013
21
168.73906
31
0.0
0
LINE
8
SCORE
10
105.10356
20
164.14070
30
0.0
11
107.06700
21
159.54233
31
0.0
0
LINE
8
SCORE
10
109.03043
20
154.94397
30
0.0
11
110.99386
21
150.34561
31
0.0
0
LINE
8
SCORE
10
112.95729
20
145.74725
30
0.0
11
114.92072
21
141.14888
31
0.0
0
LINE
8
SCORE
10
116.88415
20
136.55052
30
0.0
11
118.84758
21
131.95216
31
0.0
0
LINE
8
SCORE
10
120.81102
20
127.35380
30
0.0
11
122.77445
21
122.75543
31
0.0
0
LINE
8
SCORE
10
124.73788
20
118.15707
30
0.0
11
126.70131
21
113.55871
31
0.0
0
LINE
8
SCORE
10
128.66474
20
108.96035
30
0.0
11
130.62817
21
104.36198
31
0.0
0
LINE
8
SCORE
10
132.59161
20
99.76362
30
0.0
11
134.55504
21
95.16526
31
0.0
0
LINE
8
SCORE
10
136.51847
20
90.56690
30
0.0
11
138.48190
21
85.96853
31
0.0
0
LINE
8
SCORE
10
140.44533
20
81.37017
30
0.0
11
142.40876
21
76.77181
31
0.0
0
LINE
8
SCORE
10
144.37220
20
72.17345
30
0.0
11
146.33563
21
67.57509
31
0.0
0
LINE
8
SCORE
10
148.29906
20
62.97672
30
0.0
11
150.26249
21
58.37836
31
0.0
0
LINE
8
SCORE
10
152.22592
20
53.78000
30
0.0
11
154.18935
21
49.18164
31
0.0
0
LINE
8
SCORE
10
156.15278
20
44.58327
30
0.0
11
158.11622
21
39.98491
31
0.0
0
LINE
8
SCORE
10
160.07965
20
35.38655
30
0.0
11
162.04308
21
30.78819
31
0.0
0
LINE
8
SCORE2
10
197.43304
20
199.25962
30
0.0
11
217.83017
21
46.86262
31
0.0
0
LINE
8
SCORE2
10
89.39611
20
200.92759
30
0.0
11
163.46886
21
27.44900
31
0.0
0
ENDSEC
0
EOF
