0
SECTION
2
ENTITIES
0
POLYLINE
8
CUT
66
1
70
1
0
VERTEX
8
CUT
10
0.00000
20
17.58588
30
0.0
0
VERTEX
8
CUT
10
4.23408
20
7.66965
30
0.0
0
VERTEX
8
CUT
10
6.04391
20
6.20872
30
0.0
0
VERTEX
8
CUT
10
8.69494
20
0.00000
30
0.0
0
VERTEX
8
CUT
10
8.78326
20
0.03428
30
0.0
0
VERTEX
8
CUT
10
8.82743
20
0.05142
30
0.0
0
VERTEX
8
CUT
10
8.91577
20
0.08566
30
0.0
0
VERTEX
8
CUT
10
8.95994
20
0.10277
30
0.0
0
VERTEX
8
CUT
10
9.04830
20
0.13697
30
0.0
0
VERTEX
8
CUT
10
9.09248
20
0.15406
30
0.0
0
VERTEX
8
CUT
10
9.18086
20
0.18822
30
0.0
0
VERTEX
8
CUT
10
9.22505
20
0.20529
30
0.0
0
VERTEX
8
CUT
10
9.31343
20
0.23940
30
0.0
0
VERTEX
8
CUT
10
9.35763
20
0.25645
30
0.0
0
VERTEX
8
CUT
10
9.40184
20
0.27349
30
0.0
0
VERTEX
8
CUT
10
9.44604
20
0.29052
30
0.0
0
VERTEX
8
CUT
10
9.49025
20
0.30755
30
0.0
0
VERTEX
8
CUT
10
9.53446
20
0.32456
30
0.0
0
VERTEX
8
CUT
10
9.57867
20
0.34157
30
0.0
0
VERTEX
8
CUT
10
9.62289
20
0.35857
30
0.0
0
VERTEX
8
CUT
10
9.66711
20
0.37556
30
0.0
0
VERTEX
8
CUT
10
9.71133
20
0.39255
30
0.0
0
VERTEX
8
CUT
10
12.20760
20
1.45842
30
0.0
0
VERTEX
8
CUT
10
12.20632
20
1.46142
30
0.0
0
VERTEX
8
CUT
10
12.68097
20
1.67888
30
0.0
0
VERTEX
8
CUT
10
13.28855
20
1.90169
30
0.0
0
VERTEX
8
CUT
10
13.91165
20
2.07641
30
0.0
0
VERTEX
8
CUT
10
14.54649
20
2.20198
30
0.0
0
VERTEX
8
CUT
10
15.18919
20
2.27763
30
0.0
0
VERTEX
8
CUT
10
15.78546
20
2.30093
30
0.0
0
VERTEX
8
CUT
10
15.71083
20
2.30093
30
0.0
0
VERTEX
8
CUT
10
15.71083
20
2.30290
30
0.0
0
VERTEX
8
CUT
10
19.51404
20
2.30290
30
0.0
0
VERTEX
8
CUT
10
19.51404
20
7.65310
30
0.0
0
VERTEX
8
CUT
10
20.60480
20
9.54235
30
0.0
0
VERTEX
8
CUT
10
20.60480
20
12.23006
30
0.0
0
VERTEX
8
CUT
10
15.03083
20
12.23006
30
0.0
0
VERTEX
8
CUT
10
14.82083
20
12.44006
30
0.0
0
VERTEX
8
CUT
10
14.07317
20
12.44006
30
0.0
0
VERTEX
8
CUT
10
13.86317
20
12.23006
30
0.0
0
VERTEX
8
CUT
10
13.65317
20
12.23006
30
0.0
0
VERTEX
8
CUT
10
13.44317
20
12.44006
30
0.0
0
VERTEX
8
CUT
10
12.90848
20
12.44006
30
0.0
0
VERTEX
8
CUT
10
12.69848
20
12.23006
30
0.0
0
VERTEX
8
CUT
10
12.48848
20
12.23006
30
0.0
0
VERTEX
8
CUT
10
12.27848
20
12.44006
30
0.0
0
VERTEX
8
CUT
10
12.01101
20
12.44006
30
0.0
0
VERTEX
8
CUT
10
11.80101
20
12.23006
30
0.0
0
VERTEX
8
CUT
10
11.59101
20
12.23006
30
0.0
0
VERTEX
8
CUT
10
11.38101
20
12.44006
30
0.0
0
VERTEX
8
CUT
10
10.61101
20
12.44006
30
0.0
0
VERTEX
8
CUT
10
10.40101
20
12.23006
30
0.0
0
VERTEX
8
CUT
10
10.19101
20
12.23006
30
0.0
0
VERTEX
8
CUT
10
9.98101
20
12.44006
30
0.0
0
VERTEX
8
CUT
10
9.50435
20
12.44006
30
0.0
0
VERTEX
8
CUT
10
9.29435
20
12.23006
30
0.0
0
VERTEX
8
CUT
10
9.08435
20
12.23006
30
0.0
0
VERTEX
8
CUT
10
8.87435
20
12.44006
30
0.0
0
VERTEX
8
CUT
10
8.39769
20
12.44006
30
0.0
0
VERTEX
8
CUT
10
8.18769
20
12.23006
30
0.0
0
VERTEX
8
CUT
10
7.60828
20
12.23006
30
0.0
0
VERTEX
8
CUT
10
7.66165
20
12.10506
30
0.0
0
VERTEX
8
CUT
10
7.63061
20
12.09180
30
0.0
0
VERTEX
8
CUT
10
4.46981
20
19.49442
30
0.0
0
VERTEX
8
CUT
10
3.29574
20
18.99311
30
0.0
0
VERTEX
8
CUT
10
3.26709
20
19.11679
30
0.0
0
VERTEX
8
CUT
10
2.78915
20
18.91272
30
0.0
0
VERTEX
8
CUT
10
2.85867
20
18.80648
30
0.0
0
VERTEX
8
CUT
10
1.75713
20
18.33615
30
0.0
0
VERTEX
8
CUT
10
1.72849
20
18.45983
30
0.0
0
VERTEX
8
CUT
10
1.25055
20
18.25576
30
0.0
0
VERTEX
8
CUT
10
1.32007
20
18.14953
30
0.0
0
VERTEX
8
CUT
10
0.00000
20
17.58588
30
0.0
0
SEQEND
0
POLYLINE
8
CUT
66
1
70
1
0
VERTEX
8
CUT
10
17.01866
20
11.97612
30
0.0
0
VERTEX
8
CUT
10
17.49898
20
11.97612
30
0.0
0
VERTEX
8
CUT
10
17.49898
20
12.10899
30
0.0
0
VERTEX
8
CUT
10
17.01866
20
12.10899
30
0.0
0
VERTEX
8
CUT
10
17.01866
20
11.97612
30
0.0
0
SEQEND
0
POLYLINE
8
CUT
66
1
70
1
0
VERTEX
8
CUT
10
18.69165
20
11.97612
30
0.0
0
VERTEX
8
CUT
10
19.17197
20
11.97612
30
0.0
0
VERTEX
8
CUT
10
19.17197
20
12.10899
30
0.0
0
VERTEX
8
CUT
10
18.69165
20
12.10899
30
0.0
0
VERTEX
8
CUT
10
18.69165
20
11.97612
30
0.0
0
SEQEND
0
LINE
8
SCORE
10
7.66165
20
12.10506
30
0.0
11
7.70803
21
11.99643
31
0.0
0
LINE
8
SCORE
10
7.75441
20
11.88781
30
0.0
11
7.80079
21
11.77919
31
0.0
0
LINE
8
SCORE
10
7.84717
20
11.67056
30
0.0
11
7.89355
21
11.56194
31
0.0
0
LINE
8
SCORE
10
7.93993
20
11.45332
30
0.0
11
7.98631
21
11.34470
31
0.0
0
LINE
8
SCORE
10
8.03269
20
11.23607
30
0.0
11
8.07907
21
11.12745
31
0.0
0
LINE
8
SCORE
10
8.12545
20
11.01883
30
0.0
11
8.17183
21
10.91021
31
0.0
0
LINE
8
SCORE
10
8.21821
20
10.80158
30
0.0
11
8.26459
21
10.69296
31
0.0
0
LINE
8
SCORE
10
8.31097
20
10.58434
30
0.0
11
8.35735
21
10.47571
31
0.0
0
LINE
8
SCORE
10
8.40373
20
10.36709
30
0.0
11
8.45011
21
10.25847
31
0.0
0
LINE
8
SCORE
10
8.49649
20
10.14985
30
0.0
11
8.54287
21
10.04122
31
0.0
0
LINE
8
SCORE
10
8.58925
20
9.93260
30
0.0
11
8.63563
21
9.82398
31
0.0
0
LINE
8
SCORE
10
8.68202
20
9.71536
30
0.0
11
8.72840
21
9.60673
31
0.0
0
LINE
8
SCORE
10
8.77478
20
9.49811
30
0.0
11
8.82116
21
9.38949
31
0.0
0
LINE
8
SCORE
10
8.86754
20
9.28086
30
0.0
11
8.91392
21
9.17224
31
0.0
0
LINE
8
SCORE
10
8.96030
20
9.06362
30
0.0
11
9.00668
21
8.95500
31
0.0
0
LINE
8
SCORE
10
9.05306
20
8.84637
30
0.0
11
9.09944
21
8.73775
31
0.0
0
LINE
8
SCORE
10
9.14582
20
8.62913
30
0.0
11
9.19220
21
8.52051
31
0.0
0
LINE
8
SCORE
10
9.23858
20
8.41188
30
0.0
11
9.28496
21
8.30326
31
0.0
0
LINE
8
SCORE
10
9.33134
20
8.19464
30
0.0
11
9.37772
21
8.08601
31
0.0
0
LINE
8
SCORE
10
9.42410
20
7.97739
30
0.0
11
9.47048
21
7.86877
31
0.0
0
LINE
8
SCORE
10
9.51686
20
7.76015
30
0.0
11
9.56324
21
7.65152
31
0.0
0
LINE
8
SCORE
10
9.60962
20
7.54290
30
0.0
11
9.65600
21
7.43428
31
0.0
0
LINE
8
SCORE
10
9.70238
20
7.32565
30
0.0
11
9.74876
21
7.21703
31
0.0
0
LINE
8
SCORE
10
9.79514
20
7.10841
30
0.0
11
9.84152
21
6.99979
31
0.0
0
LINE
8
SCORE
10
9.88790
20
6.89116
30
0.0
11
9.93428
21
6.78254
31
0.0
0
LINE
8
SCORE
10
9.98066
20
6.67392
30
0.0
11
10.02704
21
6.56530
31
0.0
0
LINE
8
SCORE
10
10.07342
20
6.45667
30
0.0
11
10.11980
21
6.34805
31
0.0
0
LINE
8
SCORE
10
10.16618
20
6.23943
30
0.0
11
10.21256
21
6.13080
31
0.0
0
LINE
8
SCORE
10
10.25894
20
6.02218
30
0.0
11
10.30532
21
5.91356
31
0.0
0
LINE
8
SCORE
10
10.35171
20
5.80494
30
0.0
11
10.39809
21
5.69631
31
0.0
0
LINE
8
SCORE
10
10.44447
20
5.58769
30
0.0
11
10.49085
21
5.47907
31
0.0
0
LINE
8
SCORE
10
10.53723
20
5.37045
30
0.0
11
10.58361
21
5.26182
31
0.0
0
LINE
8
SCORE
10
10.62999
20
5.15320
30
0.0
11
10.67637
21
5.04458
31
0.0
0
LINE
8
SCORE
10
10.72275
20
4.93595
30
0.0
11
10.76913
21
4.82733
31
0.0
0
LINE
8
SCORE
10
10.81551
20
4.71871
30
0.0
11
10.86189
21
4.61009
31
0.0
0
LINE
8
SCORE
10
10.90827
20
4.50146
30
0.0
11
10.95465
21
4.39284
31
0.0
0
LINE
8
SCORE
10
11.00103
20
4.28422
30
0.0
11
11.04741
21
4.17560
31
0.0
0
LINE
8
SCORE
10
11.09379
20
4.06697
30
0.0
11
11.14017
21
3.95835
31
0.0
0
LINE
8
SCORE
10
11.18655
20
3.84973
30
0.0
11
11.23293
21
3.74110
31
0.0
0
LINE
8
SCORE
10
11.27931
20
3.63248
30
0.0
11
11.32569
21
3.52386
31
0.0
0
LINE
8
SCORE
10
11.37207
20
3.41524
30
0.0
11
11.41845
21
3.30661
31
0.0
0
LINE
8
SCORE
10
11.46483
20
3.19799
30
0.0
11
11.51121
21
3.08937
31
0.0
0
LINE
8
SCORE
10
11.55759
20
2.98075
30
0.0
11
11.60397
21
2.87212
31
0.0
0
LINE
8
SCORE
10
11.65035
20
2.76350
30
0.0
11
11.69673
21
2.65488
31
0.0
0
LINE
8
SCORE
10
11.74311
20
2.54625
30
0.0
11
11.78949
21
2.43763
31
0.0
0
LINE
8
SCORE
10
11.83587
20
2.32901
30
0.0
11
11.88225
21
2.22039
31
0.0
0
LINE
8
SCORE
10
11.92863
20
2.11176
30
0.0
11
11.97501
21
2.00314
31
0.0
0
LINE
8
SCORE
10
12.02139
20
1.89452
30
0.0
11
12.06778
21
1.78590
31
0.0
0
LINE
8
SCORE
10
12.11416
20
1.67727
30
0.0
11
12.16054
21
1.56865
31
0.0
0
LINE
8
SCORE
10
15.71083
20
2.30290
30
0.0
11
15.71083
21
2.42101
31
0.0
0
LINE
8
SCORE
10
15.71083
20
2.53912
30
0.0
11
15.71083
21
2.65723
31
0.0
0
LINE
8
SCORE
10
15.71083
20
2.77534
30
0.0
11
15.71083
21
2.89345
31
0.0
0
LINE
8
SCORE
10
15.71083
20
3.01156
30
0.0
11
15.71083
21
3.12967
31
0.0
0
LINE
8
SCORE
10
15.71083
20
3.24778
30
0.0
11
15.71083
21
3.36589
31
0.0
0
LINE
8
SCORE
10
15.71083
20
3.48400
30
0.0
11
15.71083
21
3.60211
31
0.0
0
LINE
8
SCORE
10
15.71083
20
3.72022
30
0.0
11
15.71083
21
3.83833
31
0.0
0
LINE
8
SCORE
10
15.71083
20
3.95644
30
0.0
11
15.71083
21
4.07455
31
0.0
0
LINE
8
SCORE
10
15.71083
20
4.19266
30
0.0
11
15.71083
21
4.31077
31
0.0
0
LINE
8
SCORE
10
15.71083
20
4.42888
30
0.0
11
15.71083
21
4.54699
31
0.0
0
LINE
8
SCORE
10
15.71083
20
4.66510
30
0.0
11
15.71083
21
4.78321
31
0.0
0
LINE
8
SCORE
10
15.71083
20
4.90132
30
0.0
11
15.71083
21
5.01943
31
0.0
0
LINE
8
SCORE
10
15.71083
20
5.13754
30
0.0
11
15.71083
21
5.25565
31
0.0
0
LINE
8
SCORE
10
15.71083
20
5.37376
30
0.0
11
15.71083
21
5.49187
31
0.0
0
LINE
8
SCORE
10
15.71083
20
5.60998
30
0.0
11
15.71083
21
5.72810
31
0.0
0
LINE
8
SCORE
10
15.71083
20
5.84621
30
0.0
11
15.71083
21
5.96432
31
0.0
0
LINE
8
SCORE
10
15.71083
20
6.08243
30
0.0
11
15.71083
21
6.20054
31
0.0
0
LINE
8
SCORE
10
15.71083
20
6.31865
30
0.0
11
15.71083
21
6.43676
31
0.0
0
LINE
8
SCORE
10
15.71083
20
6.55487
30
0.0
11
15.71083
21
6.67298
31
0.0
0
LINE
8
SCORE
10
15.71083
20
6.79109
30
0.0
11
15.71083
21
6.90920
31
0.0
0
LINE
8
SCORE
10
15.71083
20
7.02731
30
0.0
11
15.71083
21
7.14542
31
0.0
0
LINE
8
SCORE
10
15.71083
20
7.26353
30
0.0
11
15.71083
21
7.38164
31
0.0
0
LINE
8
SCORE
10
15.71083
20
7.49975
30
0.0
11
15.71083
21
7.61786
31
0.0
0
LINE
8
SCORE
10
15.71083
20
7.73597
30
0.0
11
15.71083
21
7.85408
31
0.0
0
LINE
8
SCORE
10
15.71083
20
7.97219
30
0.0
11
15.71083
21
8.09030
31
0.0
0
LINE
8
SCORE
10
15.71083
20
8.20841
30
0.0
11
15.71083
21
8.32652
31
0.0
0
LINE
8
SCORE
10
15.71083
20
8.44463
30
0.0
11
15.71083
21
8.56274
31
0.0
0
LINE
8
SCORE
10
15.71083
20
8.68085
30
0.0
11
15.71083
21
8.79896
31
0.0
0
LINE
8
SCORE
10
15.71083
20
8.91707
30
0.0
11
15.71083
21
9.03518
31
0.0
0
LINE
8
SCORE
10
15.71083
20
9.15329
30
0.0
11
15.71083
21
9.27140
31
0.0
0
LINE
8
SCORE
10
15.71083
20
9.38951
30
0.0
11
15.71083
21
9.50762
31
0.0
0
LINE
8
SCORE
10
15.71083
20
9.62573
30
0.0
11
15.71083
21
9.74384
31
0.0
0
LINE
8
SCORE
10
15.71083
20
9.86195
30
0.0
11
15.71083
21
9.98006
31
0.0
0
LINE
8
SCORE
10
15.71083
20
10.09817
30
0.0
11
15.71083
21
10.21628
31
0.0
0
LINE
8
SCORE
10
15.71083
20
10.33439
30
0.0
11
15.71083
21
10.45250
31
0.0
0
LINE
8
SCORE
10
15.71083
20
10.57061
30
0.0
11
15.71083
21
10.68873
31
0.0
0
LINE
8
SCORE
10
15.71083
20
10.80684
30
0.0
11
15.71083
21
10.92495
31
0.0
0
LINE
8
SCORE
10
15.71083
20
11.04306
30
0.0
11
15.71083
21
11.16117
31
0.0
0
LINE
8
SCORE
10
15.71083
20
11.27928
30
0.0
11
15.71083
21
11.39739
31
0.0
0
LINE
8
SCORE
10
15.71083
20
11.51550
30
0.0
11
15.71083
21
11.63361
31
0.0
0
LINE
8
SCORE
10
15.71083
20
11.75172
30
0.0
11
15.71083
21
11.86983
31
0.0
0
LINE
8
SCORE
10
15.71083
20
11.98794
30
0.0
11
15.71083
21
12.10605
31
0.0
0
LINE
8
SCORE
10
15.71083
20
12.22416
30
0.0
11
15.71083
21
12.23006
31
0.0
0
LINE
8
SCORE
10
3.16080
20
10.18326
30
0.0
11
3.26943
21
10.22964
31
0.0
0
LINE
8
SCORE
10
3.37805
20
10.27602
30
0.0
11
3.48667
21
10.32240
31
0.0
0
LINE
8
SCORE
10
3.59530
20
10.36878
30
0.0
11
3.70392
21
10.41516
31
0.0
0
LINE
8
SCORE
10
3.81254
20
10.46154
30
0.0
11
3.92116
21
10.50792
31
0.0
0
LINE
8
SCORE
10
4.02979
20
10.55430
30
0.0
11
4.13841
21
10.60068
31
0.0
0
LINE
8
SCORE
10
4.24703
20
10.64707
30
0.0
11
4.35565
21
10.69345
31
0.0
0
LINE
8
SCORE
10
4.46428
20
10.73983
30
0.0
11
4.57290
21
10.78621
31
0.0
0
LINE
8
SCORE
10
4.68152
20
10.83259
30
0.0
11
4.79015
21
10.87897
31
0.0
0
LINE
8
SCORE
10
4.89877
20
10.92535
30
0.0
11
5.00739
21
10.97173
31
0.0
0
LINE
8
SCORE
10
5.11601
20
11.01811
30
0.0
11
5.22464
21
11.06449
31
0.0
0
LINE
8
SCORE
10
5.33326
20
11.11087
30
0.0
11
5.44188
21
11.15725
31
0.0
0
LINE
8
SCORE
10
5.55050
20
11.20363
30
0.0
11
5.65913
21
11.25001
31
0.0
0
LINE
8
SCORE
10
5.76775
20
11.29639
30
0.0
11
5.87637
21
11.34277
31
0.0
0
LINE
8
SCORE
10
5.98500
20
11.38915
30
0.0
11
6.09362
21
11.43553
31
0.0
0
LINE
8
SCORE
10
6.20224
20
11.48191
30
0.0
11
6.31086
21
11.52829
31
0.0
0
LINE
8
SCORE
10
6.41949
20
11.57467
30
0.0
11
6.52811
21
11.62105
31
0.0
0
LINE
8
SCORE
10
6.63673
20
11.66743
30
0.0
11
6.74535
21
11.71381
31
0.0
0
LINE
8
SCORE
10
6.85398
20
11.76019
30
0.0
11
6.96260
21
11.80657
31
0.0
0
LINE
8
SCORE
10
7.07122
20
11.85295
30
0.0
11
7.17985
21
11.89933
31
0.0
0
LINE
8
SCORE
10
7.28847
20
11.94571
30
0.0
11
7.39709
21
11.99209
31
0.0
0
LINE
8
SCORE
10
7.50571
20
12.03847
30
0.0
11
7.61434
21
12.08485
31
0.0
0
LINE
8
SCORE2
10
7.66165
20
12.10506
30
0.0
11
12.20632
21
1.46142
31
0.0
0
LINE
8
SCORE2
10
15.71083
20
2.30290
30
0.0
11
15.71083
21
12.23006
31
0.0
0
LINE
8
SCORE2
10
3.16080
20
10.18326
30
0.0
11
7.63061
21
12.09180
31
0.0
0
ENDSEC
0
EOF
