0
SECTION
2
ENTITIES
0
POLYLINE
8
CUT
66
1
70
1
0
VERTEX
8
CUT
10
-0.00000
20
17.58588
30
0.0
0
VERTEX
8
CUT
10
4.23408
20
7.66965
30
0.0
0
VERTEX
8
CUT
10
6.04391
20
6.20872
30
0.0
0
VERTEX
8
CUT
10
8.69494
20
0.00000
30
0.0
0
VERTEX
8
CUT
10
8.78326
20
0.03428
30
0.0
0
VERTEX
8
CUT
10
8.82743
20
0.05142
30
0.0
0
VERTEX
8
CUT
10
8.91577
20
0.08566
30
0.0
0
VERTEX
8
CUT
10
8.95994
20
0.10277
30
0.0
0
VERTEX
8
CUT
10
9.04830
20
0.13697
30
0.0
0
VERTEX
8
CUT
10
9.09248
20
0.15406
30
0.0
0
VERTEX
8
CUT
10
9.18086
20
0.18822
30
0.0
0
VERTEX
8
CUT
10
9.22505
20
0.20529
30
0.0
0
VERTEX
8
CUT
10
9.31343
20
0.23940
30
0.0
0
VERTEX
8
CUT
10
9.35763
20
0.25645
30
0.0
0
VERTEX
8
CUT
10
9.40184
20
0.27349
30
0.0
0
VERTEX
8
CUT
10
9.44604
20
0.29052
30
0.0
0
VERTEX
8
CUT
10
9.49025
20
0.30755
30
0.0
0
VERTEX
8
CUT
10
9.53446
20
0.32456
30
0.0
0
VERTEX
8
CUT
10
9.57867
20
0.34157
30
0.0
0
VERTEX
8
CUT
10
9.62289
20
0.35857
30
0.0
0
VERTEX
8
CUT
10
9.66711
20
0.37556
30
0.0
0
VERTEX
8
CUT
10
9.71133
20
0.39255
30
0.0
0
VERTEX
8
CUT
10
12.20760
20
1.45842
30
0.0
0
VERTEX
8
CUT
10
12.20632
20
1.46142
30
0.0
0
VERTEX
8
CUT
10
12.68097
20
1.67888
30
0.0
0
VERTEX
8
CUT
10
13.28855
20
1.90169
30
0.0
0
VERTEX
8
CUT
10
13.91165
20
2.07641
30
0.0
0
VERTEX
8
CUT
10
14.54649
20
2.20198
30
0.0
0
VERTEX
8
CUT
10
15.18919
20
2.27763
30
0.0
0
VERTEX
8
CUT
10
15.78546
20
2.30093
30
0.0
0
VERTEX
8
CUT
10
15.71083
20
2.30093
30
0.0
0
VERTEX
8
CUT
10
15.71083
20
2.30290
30
0.0
0
VERTEX
8
CUT
10
19.51404
20
2.30290
30
0.0
0
VERTEX
8
CUT
10
19.51404
20
7.65310
30
0.0
0
VERTEX
8
CUT
10
20.60480
20
9.54235
30
0.0
0
VERTEX
8
CUT
10
20.60480
20
12.23006
30
0.0
0
VERTEX
8
CUT
10
15.03083
20
12.23006
30
0.0
0
VERTEX
8
CUT
10
14.82083
20
12.44006
30
0.0
0
VERTEX
8
CUT
10
14.07317
20
12.44006
30
0.0
0
VERTEX
8
CUT
10
13.86317
20
12.23006
30
0.0
0
VERTEX
8
CUT
10
13.65317
20
12.23006
30
0.0
0
VERTEX
8
CUT
10
13.44317
20
12.44006
30
0.0
0
VERTEX
8
CUT
10
12.90848
20
12.44006
30
0.0
0
VERTEX
8
CUT
10
12.69848
20
12.23006
30
0.0
0
VERTEX
8
CUT
10
12.48848
20
12.23006
30
0.0
0
VERTEX
8
CUT
10
12.27848
20
12.44006
30
0.0
0
VERTEX
8
CUT
10
12.01101
20
12.44006
30
0.0
0
VERTEX
8
CUT
10
11.80101
20
12.23006
30
0.0
0
VERTEX
8
CUT
10
11.59101
20
12.23006
30
0.0
0
VERTEX
8
CUT
10
11.38101
20
12.44006
30
0.0
0
VERTEX
8
CUT
10
10.61101
20
12.44006
30
0.0
0
VERTEX
8
CUT
10
10.40101
20
12.23006
30
0.0
0
VERTEX
8
CUT
10
10.19101
20
12.23006
30
0.0
0
VERTEX
8
CUT
10
9.98101
20
12.44006
30
0.0
0
VERTEX
8
CUT
10
9.50435
20
12.44006
30
0.0
0
VERTEX
8
CUT
10
9.29435
20
12.23006
30
0.0
0
VERTEX
8
CUT
10
9.08435
20
12.23006
30
0.0
0
VERTEX
8
CUT
10
8.87435
20
12.44006
30
0.0
0
VERTEX
8
CUT
10
8.39769
20
12.44006
30
0.0
0
VERTEX
8
CUT
10
8.18769
20
12.23006
30
0.0
0
VERTEX
8
CUT
10
7.60828
20
12.23006
30
0.0
0
VERTEX
8
CUT
10
7.66165
20
12.10506
30
0.0
0
VERTEX
8
CUT
10
7.63061
20
12.09180
30
0.0
0
VERTEX
8
CUT
10
4.46981
20
19.49442
30
0.0
0
VERTEX
8
CUT
10
3.29606
20
18.99324
30
0.0
0
VERTEX
8
CUT
10
3.27252
20
19.11911
30
0.0
0
VERTEX
8
CUT
10
2.78372
20
18.91040
30
0.0
0
VERTEX
8
CUT
10
2.85835
20
18.80635
30
0.0
0
VERTEX
8
CUT
10
1.75746
20
18.33628
30
0.0
0
VERTEX
8
CUT
10
1.73392
20
18.46215
30
0.0
0
VERTEX
8
CUT
10
1.24511
20
18.25344
30
0.0
0
VERTEX
8
CUT
10
1.31975
20
18.14939
30
0.0
0
VERTEX
8
CUT
10
-0.00000
20
17.58588
30
0.0
0
SEQEND
0
POLYLINE
8
CUT
66
1
70
1
0
VERTEX
8
CUT
10
17.01866
20
11.97612
30
0.0
0
VERTEX
8
CUT
10
17.49898
20
11.97612
30
0.0
0
VERTEX
8
CUT
10
17.49898
20
12.10899
30
0.0
0
VERTEX
8
CUT
10
17.01866
20
12.10899
30
0.0
0
VERTEX
8
CUT
10
17.01866
20
11.97612
30
0.0
0
SEQEND
0
POLYLINE
8
CUT
66
1
70
1
0
VERTEX
8
CUT
10
18.69165
20
11.97612
30
0.0
0
VERTEX
8
CUT
10
19.17197
20
11.97612
30
0.0
0
VERTEX
8
CUT
10
19.17197
20
12.10899
30
0.0
0
VERTEX
8
CUT
10
18.69165
20
12.10899
30
0.0
0
VERTEX
8
CUT
10
18.69165
20
11.97612
30
0.0
0
SEQEND
0
LINE
8
SCORE
10
7.66165
20
12.10506
30
0.0
11
7.73895
21
11.92402
31
0.0
0
LINE
8
SCORE
10
7.81625
20
11.74298
30
0.0
11
7.89355
21
11.56194
31
0.0
0
LINE
8
SCORE
10
7.97085
20
11.38090
30
0.0
11
8.04815
21
11.19987
31
0.0
0
LINE
8
SCORE
10
8.12545
20
11.01883
30
0.0
11
8.20275
21
10.83779
31
0.0
0
LINE
8
SCORE
10
8.28005
20
10.65675
30
0.0
11
8.35735
21
10.47571
31
0.0
0
LINE
8
SCORE
10
8.43465
20
10.29468
30
0.0
11
8.51195
21
10.11364
31
0.0
0
LINE
8
SCORE
10
8.58925
20
9.93260
30
0.0
11
8.66656
21
9.75156
31
0.0
0
LINE
8
SCORE
10
8.74386
20
9.57052
30
0.0
11
8.82116
21
9.38949
31
0.0
0
LINE
8
SCORE
10
8.89846
20
9.20845
30
0.0
11
8.97576
21
9.02741
31
0.0
0
LINE
8
SCORE
10
9.05306
20
8.84637
30
0.0
11
9.13036
21
8.66534
31
0.0
0
LINE
8
SCORE
10
9.20766
20
8.48430
30
0.0
11
9.28496
21
8.30326
31
0.0
0
LINE
8
SCORE
10
9.36226
20
8.12222
30
0.0
11
9.43956
21
7.94118
31
0.0
0
LINE
8
SCORE
10
9.51686
20
7.76015
30
0.0
11
9.59416
21
7.57911
31
0.0
0
LINE
8
SCORE
10
9.67146
20
7.39807
30
0.0
11
9.74876
21
7.21703
31
0.0
0
LINE
8
SCORE
10
9.82606
20
7.03599
30
0.0
11
9.90336
21
6.85496
31
0.0
0
LINE
8
SCORE
10
9.98066
20
6.67392
30
0.0
11
10.05796
21
6.49288
31
0.0
0
LINE
8
SCORE
10
10.13526
20
6.31184
30
0.0
11
10.21256
21
6.13080
31
0.0
0
LINE
8
SCORE
10
10.28986
20
5.94977
30
0.0
11
10.36717
21
5.76873
31
0.0
0
LINE
8
SCORE
10
10.44447
20
5.58769
30
0.0
11
10.52177
21
5.40665
31
0.0
0
LINE
8
SCORE
10
10.59907
20
5.22562
30
0.0
11
10.67637
21
5.04458
31
0.0
0
LINE
8
SCORE
10
10.75367
20
4.86354
30
0.0
11
10.83097
21
4.68250
31
0.0
0
LINE
8
SCORE
10
10.90827
20
4.50146
30
0.0
11
10.98557
21
4.32043
31
0.0
0
LINE
8
SCORE
10
11.06287
20
4.13939
30
0.0
11
11.14017
21
3.95835
31
0.0
0
LINE
8
SCORE
10
11.21747
20
3.77731
30
0.0
11
11.29477
21
3.59627
31
0.0
0
LINE
8
SCORE
10
11.37207
20
3.41524
30
0.0
11
11.44937
21
3.23420
31
0.0
0
LINE
8
SCORE
10
11.52667
20
3.05316
30
0.0
11
11.60397
21
2.87212
31
0.0
0
LINE
8
SCORE
10
11.68127
20
2.69109
30
0.0
11
11.75857
21
2.51005
31
0.0
0
LINE
8
SCORE
10
11.83587
20
2.32901
30
0.0
11
11.91317
21
2.14797
31
0.0
0
LINE
8
SCORE
10
11.99047
20
1.96693
30
0.0
11
12.06778
21
1.78590
31
0.0
0
LINE
8
SCORE
10
12.14508
20
1.60486
30
0.0
11
12.20632
21
1.46142
31
0.0
0
LINE
8
SCORE
10
15.71083
20
2.30290
30
0.0
11
15.71083
21
2.49975
31
0.0
0
LINE
8
SCORE
10
15.71083
20
2.69660
30
0.0
11
15.71083
21
2.89345
31
0.0
0
LINE
8
SCORE
10
15.71083
20
3.09030
30
0.0
11
15.71083
21
3.28715
31
0.0
0
LINE
8
SCORE
10
15.71083
20
3.48400
30
0.0
11
15.71083
21
3.68085
31
0.0
0
LINE
8
SCORE
10
15.71083
20
3.87770
30
0.0
11
15.71083
21
4.07455
31
0.0
0
LINE
8
SCORE
10
15.71083
20
4.27140
30
0.0
11
15.71083
21
4.46825
31
0.0
0
LINE
8
SCORE
10
15.71083
20
4.66510
30
0.0
11
15.71083
21
4.86195
31
0.0
0
LINE
8
SCORE
10
15.71083
20
5.05880
30
0.0
11
15.71083
21
5.25565
31
0.0
0
LINE
8
SCORE
10
15.71083
20
5.45250
30
0.0
11
15.71083
21
5.64935
31
0.0
0
LINE
8
SCORE
10
15.71083
20
5.84621
30
0.0
11
15.71083
21
6.04306
31
0.0
0
LINE
8
SCORE
10
15.71083
20
6.23991
30
0.0
11
15.71083
21
6.43676
31
0.0
0
LINE
8
SCORE
10
15.71083
20
6.63361
30
0.0
11
15.71083
21
6.83046
31
0.0
0
LINE
8
SCORE
10
15.71083
20
7.02731
30
0.0
11
15.71083
21
7.22416
31
0.0
0
LINE
8
SCORE
10
15.71083
20
7.42101
30
0.0
11
15.71083
21
7.61786
31
0.0
0
LINE
8
SCORE
10
15.71083
20
7.81471
30
0.0
11
15.71083
21
8.01156
31
0.0
0
LINE
8
SCORE
10
15.71083
20
8.20841
30
0.0
11
15.71083
21
8.40526
31
0.0
0
LINE
8
SCORE
10
15.71083
20
8.60211
30
0.0
11
15.71083
21
8.79896
31
0.0
0
LINE
8
SCORE
10
15.71083
20
8.99581
30
0.0
11
15.71083
21
9.19266
31
0.0
0
LINE
8
SCORE
10
15.71083
20
9.38951
30
0.0
11
15.71083
21
9.58636
31
0.0
0
LINE
8
SCORE
10
15.71083
20
9.78321
30
0.0
11
15.71083
21
9.98006
31
0.0
0
LINE
8
SCORE
10
15.71083
20
10.17691
30
0.0
11
15.71083
21
10.37376
31
0.0
0
LINE
8
SCORE
10
15.71083
20
10.57061
30
0.0
11
15.71083
21
10.76747
31
0.0
0
LINE
8
SCORE
10
15.71083
20
10.96432
30
0.0
11
15.71083
21
11.16117
31
0.0
0
LINE
8
SCORE
10
15.71083
20
11.35802
30
0.0
11
15.71083
21
11.55487
31
0.0
0
LINE
8
SCORE
10
15.71083
20
11.75172
30
0.0
11
15.71083
21
11.94857
31
0.0
0
LINE
8
SCORE
10
15.71083
20
12.14542
30
0.0
11
15.71083
21
12.23006
31
0.0
0
LINE
8
SCORE
10
3.16080
20
10.18326
30
0.0
11
3.34184
21
10.26056
31
0.0
0
LINE
8
SCORE
10
3.52288
20
10.33786
30
0.0
11
3.70392
21
10.41516
31
0.0
0
LINE
8
SCORE
10
3.88496
20
10.49246
30
0.0
11
4.06599
21
10.56976
31
0.0
0
LINE
8
SCORE
10
4.24703
20
10.64707
30
0.0
11
4.42807
21
10.72437
31
0.0
0
LINE
8
SCORE
10
4.60911
20
10.80167
30
0.0
11
4.79015
21
10.87897
31
0.0
0
LINE
8
SCORE
10
4.97118
20
10.95627
30
0.0
11
5.15222
21
11.03357
31
0.0
0
LINE
8
SCORE
10
5.33326
20
11.11087
30
0.0
11
5.51430
21
11.18817
31
0.0
0
LINE
8
SCORE
10
5.69534
20
11.26547
30
0.0
11
5.87637
21
11.34277
31
0.0
0
LINE
8
SCORE
10
6.05741
20
11.42007
30
0.0
11
6.23845
21
11.49737
31
0.0
0
LINE
8
SCORE
10
6.41949
20
11.57467
30
0.0
11
6.60052
21
11.65197
31
0.0
0
LINE
8
SCORE
10
6.78156
20
11.72927
30
0.0
11
6.96260
21
11.80657
31
0.0
0
LINE
8
SCORE
10
7.14364
20
11.88387
30
0.0
11
7.32468
21
11.96117
31
0.0
0
LINE
8
SCORE
10
7.50571
20
12.03847
30
0.0
11
7.63061
21
12.09180
31
0.0
0
LINE
8
SCORE2
10
7.66165
20
12.10506
30
0.0
11
12.20632
21
1.46142
31
0.0
0
LINE
8
SCORE2
10
15.71083
20
2.30290
30
0.0
11
15.71083
21
12.23006
31
0.0
0
LINE
8
SCORE2
10
3.16080
20
10.18326
30
0.0
11
7.63061
21
12.09180
31
0.0
0
ENDSEC
0
EOF
