0
SECTION
2
ENTITIES
0
POLYLINE
8
CUT
66
1
70
1
0
VERTEX
8
CUT
10
-0.07500
20
190.29687
30
0.0
0
VERTEX
8
CUT
10
21.74023
20
152.51179
30
0.0
0
VERTEX
8
CUT
10
21.74023
20
45.45284
30
0.0
0
VERTEX
8
CUT
10
94.93332
20
45.45284
30
0.0
0
VERTEX
8
CUT
10
94.93263
20
45.41748
30
0.0
0
VERTEX
8
CUT
10
106.95632
20
44.94766
30
0.0
0
VERTEX
8
CUT
10
119.80452
20
43.43536
30
0.0
0
VERTEX
8
CUT
10
132.49554
20
40.92512
30
0.0
0
VERTEX
8
CUT
10
144.95199
20
37.43225
30
0.0
0
VERTEX
8
CUT
10
157.09790
20
32.97803
30
0.0
0
VERTEX
8
CUT
10
165.90799
20
28.94173
30
0.0
0
VERTEX
8
CUT
10
165.87473
20
28.86385
30
0.0
0
VERTEX
8
CUT
10
215.24968
20
7.78149
30
0.0
0
VERTEX
8
CUT
10
217.01977
20
7.10142
30
0.0
0
VERTEX
8
CUT
10
217.90408
20
6.76141
30
0.0
0
VERTEX
8
CUT
10
219.67252
20
6.08091
30
0.0
0
VERTEX
8
CUT
10
220.55666
20
5.74043
30
0.0
0
VERTEX
8
CUT
10
222.32476
20
5.05902
30
0.0
0
VERTEX
8
CUT
10
223.20872
20
4.71810
30
0.0
0
VERTEX
8
CUT
10
224.97648
20
4.03580
30
0.0
0
VERTEX
8
CUT
10
225.86028
20
3.69444
30
0.0
0
VERTEX
8
CUT
10
227.62771
20
3.01127
30
0.0
0
VERTEX
8
CUT
10
228.51135
20
2.66947
30
0.0
0
VERTEX
8
CUT
10
230.27845
20
1.98545
30
0.0
0
VERTEX
8
CUT
10
231.16193
20
1.64323
30
0.0
0
VERTEX
8
CUT
10
232.92872
20
0.95838
30
0.0
0
VERTEX
8
CUT
10
234.69531
20
0.27299
30
0.0
0
VERTEX
8
CUT
10
235.64616
20
-0.09617
30
0.0
0
VERTEX
8
CUT
10
288.68792
20
124.12778
30
0.0
0
VERTEX
8
CUT
10
324.88445
20
153.34632
30
0.0
0
VERTEX
8
CUT
10
408.53499
20
349.25614
30
0.0
0
VERTEX
8
CUT
10
383.32704
20
360.01955
30
0.0
0
VERTEX
8
CUT
10
385.09293
20
362.71786
30
0.0
0
VERTEX
8
CUT
10
372.78861
20
367.97162
30
0.0
0
VERTEX
8
CUT
10
372.06094
20
364.83001
30
0.0
0
VERTEX
8
CUT
10
352.55502
20
373.15874
30
0.0
0
VERTEX
8
CUT
10
354.32090
20
375.85705
30
0.0
0
VERTEX
8
CUT
10
342.01659
20
381.11081
30
0.0
0
VERTEX
8
CUT
10
341.28891
20
377.96920
30
0.0
0
VERTEX
8
CUT
10
319.00093
20
387.48583
30
0.0
0
VERTEX
8
CUT
10
257.79696
20
244.14598
30
0.0
0
VERTEX
8
CUT
10
247.02321
20
244.14598
30
0.0
0
VERTEX
8
CUT
10
242.82321
20
248.34598
30
0.0
0
VERTEX
8
CUT
10
233.22788
20
248.34598
30
0.0
0
VERTEX
8
CUT
10
229.02788
20
244.14598
30
0.0
0
VERTEX
8
CUT
10
224.89001
20
244.14598
30
0.0
0
VERTEX
8
CUT
10
220.69001
20
248.34598
30
0.0
0
VERTEX
8
CUT
10
211.09468
20
248.34598
30
0.0
0
VERTEX
8
CUT
10
206.89468
20
244.14598
30
0.0
0
VERTEX
8
CUT
10
202.75682
20
244.14598
30
0.0
0
VERTEX
8
CUT
10
198.55682
20
248.34598
30
0.0
0
VERTEX
8
CUT
10
183.09468
20
248.34598
30
0.0
0
VERTEX
8
CUT
10
178.89468
20
244.14598
30
0.0
0
VERTEX
8
CUT
10
174.75682
20
244.14598
30
0.0
0
VERTEX
8
CUT
10
170.55682
20
248.34598
30
0.0
0
VERTEX
8
CUT
10
165.14530
20
248.34598
30
0.0
0
VERTEX
8
CUT
10
160.94530
20
244.14598
30
0.0
0
VERTEX
8
CUT
10
156.80744
20
244.14598
30
0.0
0
VERTEX
8
CUT
10
152.60744
20
248.34598
30
0.0
0
VERTEX
8
CUT
10
141.85150
20
248.34598
30
0.0
0
VERTEX
8
CUT
10
137.65150
20
244.14598
30
0.0
0
VERTEX
8
CUT
10
133.51363
20
244.14598
30
0.0
0
VERTEX
8
CUT
10
129.31363
20
248.34598
30
0.0
0
VERTEX
8
CUT
10
114.29823
20
248.34598
30
0.0
0
VERTEX
8
CUT
10
110.09823
20
244.14598
30
0.0
0
VERTEX
8
CUT
10
-0.07500
20
244.14598
30
0.0
0
VERTEX
8
CUT
10
-0.07500
20
190.29687
30
0.0
0
SEQEND
0
POLYLINE
8
CUT
66
1
70
1
0
VERTEX
8
CUT
10
27.43476
20
237.69598
30
0.0
0
VERTEX
8
CUT
10
39.48476
20
237.69598
30
0.0
0
VERTEX
8
CUT
10
39.48476
20
240.92098
30
0.0
0
VERTEX
8
CUT
10
27.43476
20
240.92098
30
0.0
0
VERTEX
8
CUT
10
27.43476
20
237.69598
30
0.0
0
SEQEND
0
POLYLINE
8
CUT
66
1
70
1
0
VERTEX
8
CUT
10
60.89453
20
237.69598
30
0.0
0
VERTEX
8
CUT
10
72.94453
20
237.69598
30
0.0
0
VERTEX
8
CUT
10
72.94453
20
240.92098
30
0.0
0
VERTEX
8
CUT
10
60.89453
20
240.92098
30
0.0
0
VERTEX
8
CUT
10
60.89453
20
237.69598
30
0.0
0
SEQEND
0
LINE
8
SCORE
10
258.37885
20
245.31776
30
0.0
11
257.59347
21
243.47841
31
0.0
0
LINE
8
SCORE
10
257.20079
20
242.55874
30
0.0
11
256.41542
21
240.71939
31
0.0
0
LINE
8
SCORE
10
256.02273
20
239.79972
30
0.0
11
255.23736
21
237.96038
31
0.0
0
LINE
8
SCORE
10
254.84467
20
237.04070
30
0.0
11
254.05930
21
235.20136
31
0.0
0
LINE
8
SCORE
10
253.66661
20
234.28169
30
0.0
11
252.88124
21
232.44234
31
0.0
0
LINE
8
SCORE
10
252.48855
20
231.52267
30
0.0
11
251.70318
21
229.68333
31
0.0
0
LINE
8
SCORE
10
251.31049
20
228.76365
30
0.0
11
250.52512
21
226.92431
31
0.0
0
LINE
8
SCORE
10
250.13243
20
226.00464
30
0.0
11
249.34706
21
224.16529
31
0.0
0
LINE
8
SCORE
10
248.95438
20
223.24562
30
0.0
11
248.16900
21
221.40627
31
0.0
0
LINE
8
SCORE
10
247.77632
20
220.48660
30
0.0
11
246.99094
21
218.64726
31
0.0
0
LINE
8
SCORE
10
246.59826
20
217.72758
30
0.0
11
245.81288
21
215.88824
31
0.0
0
LINE
8
SCORE
10
245.42020
20
214.96857
30
0.0
11
244.63483
21
213.12922
31
0.0
0
LINE
8
SCORE
10
244.24214
20
212.20955
30
0.0
11
243.45677
21
210.37020
31
0.0
0
LINE
8
SCORE
10
243.06408
20
209.45053
30
0.0
11
242.27871
21
207.61119
31
0.0
0
LINE
8
SCORE
10
241.88602
20
206.69151
30
0.0
11
241.10065
21
204.85217
31
0.0
0
LINE
8
SCORE
10
240.70796
20
203.93250
30
0.0
11
239.92259
21
202.09315
31
0.0
0
LINE
8
SCORE
10
239.52990
20
201.17348
30
0.0
11
238.74453
21
199.33413
31
0.0
0
LINE
8
SCORE
10
238.35184
20
198.41446
30
0.0
11
237.56647
21
196.57512
31
0.0
0
LINE
8
SCORE
10
237.17379
20
195.65544
30
0.0
11
236.38841
21
193.81610
31
0.0
0
LINE
8
SCORE
10
235.99573
20
192.89643
30
0.0
11
235.21035
21
191.05708
31
0.0
0
LINE
8
SCORE
10
234.81767
20
190.13741
30
0.0
11
234.03230
21
188.29806
31
0.0
0
LINE
8
SCORE
10
233.63961
20
187.37839
30
0.0
11
232.85424
21
185.53905
31
0.0
0
LINE
8
SCORE
10
232.46155
20
184.61937
30
0.0
11
231.67618
21
182.78003
31
0.0
0
LINE
8
SCORE
10
231.28349
20
181.86036
30
0.0
11
230.49812
21
180.02101
31
0.0
0
LINE
8
SCORE
10
230.10543
20
179.10134
30
0.0
11
229.32006
21
177.26199
31
0.0
0
LINE
8
SCORE
10
228.92737
20
176.34232
30
0.0
11
228.14200
21
174.50298
31
0.0
0
LINE
8
SCORE
10
227.74931
20
173.58330
30
0.0
11
226.96394
21
171.74396
31
0.0
0
LINE
8
SCORE
10
226.57126
20
170.82429
30
0.0
11
225.78588
21
168.98494
31
0.0
0
LINE
8
SCORE
10
225.39320
20
168.06527
30
0.0
11
224.60782
21
166.22592
31
0.0
0
LINE
8
SCORE
10
224.21514
20
165.30625
30
0.0
11
223.42976
21
163.46691
31
0.0
0
LINE
8
SCORE
10
223.03708
20
162.54723
30
0.0
11
222.25171
21
160.70789
31
0.0
0
LINE
8
SCORE
10
221.85902
20
159.78822
30
0.0
11
221.07365
21
157.94887
31
0.0
0
LINE
8
SCORE
10
220.68096
20
157.02920
30
0.0
11
219.89559
21
155.18985
31
0.0
0
LINE
8
SCORE
10
219.50290
20
154.27018
30
0.0
11
218.71753
21
152.43084
31
0.0
0
LINE
8
SCORE
10
218.32484
20
151.51116
30
0.0
11
217.53947
21
149.67182
31
0.0
0
LINE
8
SCORE
10
217.14678
20
148.75215
30
0.0
11
216.36141
21
146.91280
31
0.0
0
LINE
8
SCORE
10
215.96872
20
145.99313
30
0.0
11
215.18335
21
144.15379
31
0.0
0
LINE
8
SCORE
10
214.79067
20
143.23411
30
0.0
11
214.00529
21
141.39477
31
0.0
0
LINE
8
SCORE
10
213.61261
20
140.47510
30
0.0
11
212.82723
21
138.63575
31
0.0
0
LINE
8
SCORE
10
212.43455
20
137.71608
30
0.0
11
211.64918
21
135.87673
31
0.0
0
LINE
8
SCORE
10
211.25649
20
134.95706
30
0.0
11
210.47112
21
133.11772
31
0.0
0
LINE
8
SCORE
10
210.07843
20
132.19804
30
0.0
11
209.29306
21
130.35870
31
0.0
0
LINE
8
SCORE
10
208.90037
20
129.43903
30
0.0
11
208.11500
21
127.59968
31
0.0
0
LINE
8
SCORE
10
207.72231
20
126.68001
30
0.0
11
206.93694
21
124.84066
31
0.0
0
LINE
8
SCORE
10
206.54425
20
123.92099
30
0.0
11
205.75888
21
122.08165
31
0.0
0
LINE
8
SCORE
10
205.36619
20
121.16197
30
0.0
11
204.58082
21
119.32263
31
0.0
0
LINE
8
SCORE
10
204.18814
20
118.40296
30
0.0
11
203.40276
21
116.56361
31
0.0
0
LINE
8
SCORE
10
203.01008
20
115.64394
30
0.0
11
202.22470
21
113.80459
31
0.0
0
LINE
8
SCORE
10
201.83202
20
112.88492
30
0.0
11
201.04664
21
111.04558
31
0.0
0
LINE
8
SCORE
10
200.65396
20
110.12590
30
0.0
11
199.86859
21
108.28656
31
0.0
0
LINE
8
SCORE
10
199.47590
20
107.36689
30
0.0
11
198.69053
21
105.52754
31
0.0
0
LINE
8
SCORE
10
198.29784
20
104.60787
30
0.0
11
197.51247
21
102.76852
31
0.0
0
LINE
8
SCORE
10
197.11978
20
101.84885
30
0.0
11
196.33441
21
100.00951
31
0.0
0
LINE
8
SCORE
10
195.94172
20
99.08983
30
0.0
11
195.15635
21
97.25049
31
0.0
0
LINE
8
SCORE
10
194.76366
20
96.33082
30
0.0
11
193.97829
21
94.49147
31
0.0
0
LINE
8
SCORE
10
193.58560
20
93.57180
30
0.0
11
192.80023
21
91.73245
31
0.0
0
LINE
8
SCORE
10
192.40755
20
90.81278
30
0.0
11
191.62217
21
88.97344
31
0.0
0
LINE
8
SCORE
10
191.22949
20
88.05376
30
0.0
11
190.44411
21
86.21442
31
0.0
0
LINE
8
SCORE
10
190.05143
20
85.29475
30
0.0
11
189.26606
21
83.45540
31
0.0
0
LINE
8
SCORE
10
188.87337
20
82.53573
30
0.0
11
188.08800
21
80.69638
31
0.0
0
LINE
8
SCORE
10
187.69531
20
79.77671
30
0.0
11
186.90994
21
77.93737
31
0.0
0
LINE
8
SCORE
10
186.51725
20
77.01769
30
0.0
11
185.73188
21
75.17835
31
0.0
0
LINE
8
SCORE
10
185.33919
20
74.25868
30
0.0
11
184.55382
21
72.41933
31
0.0
0
LINE
8
SCORE
10
184.16113
20
71.49966
30
0.0
11
183.37576
21
69.66031
31
0.0
0
LINE
8
SCORE
10
182.98307
20
68.74064
30
0.0
11
182.19770
21
66.90130
31
0.0
0
LINE
8
SCORE
10
181.80502
20
65.98162
30
0.0
11
181.01964
21
64.14228
31
0.0
0
LINE
8
SCORE
10
180.62696
20
63.22261
30
0.0
11
179.84158
21
61.38326
31
0.0
0
LINE
8
SCORE
10
179.44890
20
60.46359
30
0.0
11
178.66352
21
58.62425
31
0.0
0
LINE
8
SCORE
10
178.27084
20
57.70457
30
0.0
11
177.48547
21
55.86523
31
0.0
0
LINE
8
SCORE
10
177.09278
20
54.94556
30
0.0
11
176.30741
21
53.10621
31
0.0
0
LINE
8
SCORE
10
175.91472
20
52.18654
30
0.0
11
175.12935
21
50.34719
31
0.0
0
LINE
8
SCORE
10
174.73666
20
49.42752
30
0.0
11
173.95129
21
47.58818
31
0.0
0
LINE
8
SCORE
10
173.55860
20
46.66850
30
0.0
11
172.77323
21
44.82916
31
0.0
0
LINE
8
SCORE
10
172.38054
20
43.90949
30
0.0
11
171.59517
21
42.07014
31
0.0
0
LINE
8
SCORE
10
171.20248
20
41.15047
30
0.0
11
170.41711
21
39.31112
31
0.0
0
LINE
8
SCORE
10
170.02443
20
38.39145
30
0.0
11
169.23905
21
36.55211
31
0.0
0
LINE
8
SCORE
10
168.84637
20
35.63243
30
0.0
11
168.06099
21
33.79309
31
0.0
0
LINE
8
SCORE
10
167.66831
20
32.87342
30
0.0
11
166.88294
21
31.03407
31
0.0
0
LINE
8
SCORE
10
166.49025
20
30.11440
30
0.0
11
165.97316
21
28.90338
31
0.0
0
LINE
8
SCORE
10
97.20429
20
45.52784
30
0.0
11
97.20429
21
47.52784
31
0.0
0
LINE
8
SCORE
10
97.20429
20
48.52784
30
0.0
11
97.20429
21
50.52784
31
0.0
0
LINE
8
SCORE
10
97.20429
20
51.52784
30
0.0
11
97.20429
21
53.52784
31
0.0
0
LINE
8
SCORE
10
97.20429
20
54.52784
30
0.0
11
97.20429
21
56.52784
31
0.0
0
LINE
8
SCORE
10
97.20429
20
57.52784
30
0.0
11
97.20429
21
59.52784
31
0.0
0
LINE
8
SCORE
10
97.20429
20
60.52784
30
0.0
11
97.20429
21
62.52784
31
0.0
0
LINE
8
SCORE
10
97.20429
20
63.52784
30
0.0
11
97.20429
21
65.52784
31
0.0
0
LINE
8
SCORE
10
97.20429
20
66.52784
30
0.0
11
97.20429
21
68.52784
31
0.0
0
LINE
8
SCORE
10
97.20429
20
69.52784
30
0.0
11
97.20429
21
71.52784
31
0.0
0
LINE
8
SCORE
10
97.20429
20
72.52784
30
0.0
11
97.20429
21
74.52784
31
0.0
0
LINE
8
SCORE
10
97.20429
20
75.52784
30
0.0
11
97.20429
21
77.52784
31
0.0
0
LINE
8
SCORE
10
97.20429
20
78.52784
30
0.0
11
97.20429
21
80.52784
31
0.0
0
LINE
8
SCORE
10
97.20429
20
81.52784
30
0.0
11
97.20429
21
83.52784
31
0.0
0
LINE
8
SCORE
10
97.20429
20
84.52784
30
0.0
11
97.20429
21
86.52784
31
0.0
0
LINE
8
SCORE
10
97.20429
20
87.52784
30
0.0
11
97.20429
21
89.52784
31
0.0
0
LINE
8
SCORE
10
97.20429
20
90.52784
30
0.0
11
97.20429
21
92.52784
31
0.0
0
LINE
8
SCORE
10
97.20429
20
93.52784
30
0.0
11
97.20429
21
95.52784
31
0.0
0
LINE
8
SCORE
10
97.20429
20
96.52784
30
0.0
11
97.20429
21
98.52784
31
0.0
0
LINE
8
SCORE
10
97.20429
20
99.52784
30
0.0
11
97.20429
21
101.52784
31
0.0
0
LINE
8
SCORE
10
97.20429
20
102.52784
30
0.0
11
97.20429
21
104.52784
31
0.0
0
LINE
8
SCORE
10
97.20429
20
105.52784
30
0.0
11
97.20429
21
107.52784
31
0.0
0
LINE
8
SCORE
10
97.20429
20
108.52784
30
0.0
11
97.20429
21
110.52784
31
0.0
0
LINE
8
SCORE
10
97.20429
20
111.52784
30
0.0
11
97.20429
21
113.52784
31
0.0
0
LINE
8
SCORE
10
97.20429
20
114.52784
30
0.0
11
97.20429
21
116.52784
31
0.0
0
LINE
8
SCORE
10
97.20429
20
117.52784
30
0.0
11
97.20429
21
119.52784
31
0.0
0
LINE
8
SCORE
10
97.20429
20
120.52784
30
0.0
11
97.20429
21
122.52784
31
0.0
0
LINE
8
SCORE
10
97.20429
20
123.52784
30
0.0
11
97.20429
21
125.52784
31
0.0
0
LINE
8
SCORE
10
97.20429
20
126.52784
30
0.0
11
97.20429
21
128.52784
31
0.0
0
LINE
8
SCORE
10
97.20429
20
129.52784
30
0.0
11
97.20429
21
131.52784
31
0.0
0
LINE
8
SCORE
10
97.20429
20
132.52784
30
0.0
11
97.20429
21
134.52784
31
0.0
0
LINE
8
SCORE
10
97.20429
20
135.52784
30
0.0
11
97.20429
21
137.52784
31
0.0
0
LINE
8
SCORE
10
97.20429
20
138.52784
30
0.0
11
97.20429
21
140.52784
31
0.0
0
LINE
8
SCORE
10
97.20429
20
141.52784
30
0.0
11
97.20429
21
143.52784
31
0.0
0
LINE
8
SCORE
10
97.20429
20
144.52784
30
0.0
11
97.20429
21
146.52784
31
0.0
0
LINE
8
SCORE
10
97.20429
20
147.52784
30
0.0
11
97.20429
21
149.52784
31
0.0
0
LINE
8
SCORE
10
97.20429
20
150.52784
30
0.0
11
97.20429
21
152.52784
31
0.0
0
LINE
8
SCORE
10
97.20429
20
153.52784
30
0.0
11
97.20429
21
155.52784
31
0.0
0
LINE
8
SCORE
10
97.20429
20
156.52784
30
0.0
11
97.20429
21
158.52784
31
0.0
0
LINE
8
SCORE
10
97.20429
20
159.52784
30
0.0
11
97.20429
21
161.52784
31
0.0
0
LINE
8
SCORE
10
97.20429
20
162.52784
30
0.0
11
97.20429
21
164.52784
31
0.0
0
LINE
8
SCORE
10
97.20429
20
165.52784
30
0.0
11
97.20429
21
167.52784
31
0.0
0
LINE
8
SCORE
10
97.20429
20
168.52784
30
0.0
11
97.20429
21
170.52784
31
0.0
0
LINE
8
SCORE
10
97.20429
20
171.52784
30
0.0
11
97.20429
21
173.52784
31
0.0
0
LINE
8
SCORE
10
97.20429
20
174.52784
30
0.0
11
97.20429
21
176.52784
31
0.0
0
LINE
8
SCORE
10
97.20429
20
177.52784
30
0.0
11
97.20429
21
179.52784
31
0.0
0
LINE
8
SCORE
10
97.20429
20
180.52784
30
0.0
11
97.20429
21
182.52784
31
0.0
0
LINE
8
SCORE
10
97.20429
20
183.52784
30
0.0
11
97.20429
21
185.52784
31
0.0
0
LINE
8
SCORE
10
97.20429
20
186.52784
30
0.0
11
97.20429
21
188.52784
31
0.0
0
LINE
8
SCORE
10
97.20429
20
189.52784
30
0.0
11
97.20429
21
191.52784
31
0.0
0
LINE
8
SCORE
10
97.20429
20
192.52784
30
0.0
11
97.20429
21
194.52784
31
0.0
0
LINE
8
SCORE
10
97.20429
20
195.52784
30
0.0
11
97.20429
21
197.52784
31
0.0
0
LINE
8
SCORE
10
97.20429
20
198.52784
30
0.0
11
97.20429
21
200.52784
31
0.0
0
LINE
8
SCORE
10
97.20429
20
201.52784
30
0.0
11
97.20429
21
203.52784
31
0.0
0
LINE
8
SCORE
10
97.20429
20
204.52784
30
0.0
11
97.20429
21
206.52784
31
0.0
0
LINE
8
SCORE
10
97.20429
20
207.52784
30
0.0
11
97.20429
21
209.52784
31
0.0
0
LINE
8
SCORE
10
97.20429
20
210.52784
30
0.0
11
97.20429
21
212.52784
31
0.0
0
LINE
8
SCORE
10
97.20429
20
213.52784
30
0.0
11
97.20429
21
215.52784
31
0.0
0
LINE
8
SCORE
10
97.20429
20
216.52784
30
0.0
11
97.20429
21
218.52784
31
0.0
0
LINE
8
SCORE
10
97.20429
20
219.52784
30
0.0
11
97.20429
21
221.52784
31
0.0
0
LINE
8
SCORE
10
97.20429
20
222.52784
30
0.0
11
97.20429
21
224.52784
31
0.0
0
LINE
8
SCORE
10
97.20429
20
225.52784
30
0.0
11
97.20429
21
227.52784
31
0.0
0
LINE
8
SCORE
10
97.20429
20
228.52784
30
0.0
11
97.20429
21
230.52784
31
0.0
0
LINE
8
SCORE
10
97.20429
20
231.52784
30
0.0
11
97.20429
21
233.52784
31
0.0
0
LINE
8
SCORE
10
97.20429
20
234.52784
30
0.0
11
97.20429
21
236.52784
31
0.0
0
LINE
8
SCORE
10
97.20429
20
237.52784
30
0.0
11
97.20429
21
239.52784
31
0.0
0
LINE
8
SCORE
10
97.20429
20
240.52784
30
0.0
11
97.20429
21
242.52784
31
0.0
0
LINE
8
SCORE
10
97.20429
20
243.52784
30
0.0
11
97.20429
21
244.07098
31
0.0
0
LINE
8
SCORE
10
345.88693
20
202.72518
30
0.0
11
344.04758
21
203.51056
31
0.0
0
LINE
8
SCORE
10
343.12791
20
203.90324
30
0.0
11
341.28856
21
204.68861
31
0.0
0
LINE
8
SCORE
10
340.36889
20
205.08130
30
0.0
11
338.52955
21
205.86667
31
0.0
0
LINE
8
SCORE
10
337.60987
20
206.25936
30
0.0
11
335.77053
21
207.04473
31
0.0
0
LINE
8
SCORE
10
334.85086
20
207.43742
30
0.0
11
333.01151
21
208.22279
31
0.0
0
LINE
8
SCORE
10
332.09184
20
208.61548
30
0.0
11
330.25249
21
209.40085
31
0.0
0
LINE
8
SCORE
10
329.33282
20
209.79354
30
0.0
11
327.49348
21
210.57891
31
0.0
0
LINE
8
SCORE
10
326.57380
20
210.97160
30
0.0
11
324.73446
21
211.75697
31
0.0
0
LINE
8
SCORE
10
323.81479
20
212.14965
30
0.0
11
321.97544
21
212.93503
31
0.0
0
LINE
8
SCORE
10
321.05577
20
213.32771
30
0.0
11
319.21642
21
214.11309
31
0.0
0
LINE
8
SCORE
10
318.29675
20
214.50577
30
0.0
11
316.45741
21
215.29114
31
0.0
0
LINE
8
SCORE
10
315.53773
20
215.68383
30
0.0
11
313.69839
21
216.46920
31
0.0
0
LINE
8
SCORE
10
312.77872
20
216.86189
30
0.0
11
310.93937
21
217.64726
31
0.0
0
LINE
8
SCORE
10
310.01970
20
218.03995
30
0.0
11
308.18035
21
218.82532
31
0.0
0
LINE
8
SCORE
10
307.26068
20
219.21801
30
0.0
11
305.42134
21
220.00338
31
0.0
0
LINE
8
SCORE
10
304.50166
20
220.39607
30
0.0
11
302.66232
21
221.18144
31
0.0
0
LINE
8
SCORE
10
301.74265
20
221.57413
30
0.0
11
299.90330
21
222.35950
31
0.0
0
LINE
8
SCORE
10
298.98363
20
222.75219
30
0.0
11
297.14428
21
223.53756
31
0.0
0
LINE
8
SCORE
10
296.22461
20
223.93024
30
0.0
11
294.38527
21
224.71562
31
0.0
0
LINE
8
SCORE
10
293.46559
20
225.10830
30
0.0
11
291.62625
21
225.89368
31
0.0
0
LINE
8
SCORE
10
290.70658
20
226.28636
30
0.0
11
288.86723
21
227.07173
31
0.0
0
LINE
8
SCORE
10
287.94756
20
227.46442
30
0.0
11
286.10821
21
228.24979
31
0.0
0
LINE
8
SCORE
10
285.18854
20
228.64248
30
0.0
11
283.34920
21
229.42785
31
0.0
0
LINE
8
SCORE
10
282.42952
20
229.82054
30
0.0
11
280.59018
21
230.60591
31
0.0
0
LINE
8
SCORE
10
279.67051
20
230.99860
30
0.0
11
277.83116
21
231.78397
31
0.0
0
LINE
8
SCORE
10
276.91149
20
232.17666
30
0.0
11
275.07214
21
232.96203
31
0.0
0
LINE
8
SCORE
10
274.15247
20
233.35472
30
0.0
11
272.31313
21
234.14009
31
0.0
0
LINE
8
SCORE
10
271.39345
20
234.53277
30
0.0
11
269.55411
21
235.31815
31
0.0
0
LINE
8
SCORE
10
268.63444
20
235.71083
30
0.0
11
266.79509
21
236.49621
31
0.0
0
LINE
8
SCORE
10
265.87542
20
236.88889
30
0.0
11
264.03608
21
237.67427
31
0.0
0
LINE
8
SCORE
10
263.11640
20
238.06695
30
0.0
11
261.27706
21
238.85232
31
0.0
0
LINE
8
SCORE
10
260.35739
20
239.24501
30
0.0
11
258.51804
21
240.03038
31
0.0
0
LINE
8
SCORE
10
257.59837
20
240.42307
30
0.0
11
255.75902
21
241.20844
31
0.0
0
LINE
8
SCORE
10
254.83935
20
241.60113
30
0.0
11
253.57085
21
242.14276
31
0.0
0
LINE
8
SCORE2
10
258.37885
20
245.31776
30
0.0
11
165.97316
21
28.90338
31
0.0
0
LINE
8
SCORE2
10
97.20429
20
45.52784
30
0.0
11
97.20429
21
244.07098
31
0.0
0
LINE
8
SCORE2
10
345.88693
20
202.72518
30
0.0
11
253.57085
21
242.14276
31
0.0
0
ENDSEC
0
EOF
