<?xml version="1.0" encoding="UTF-8"?>
<svg xmlns="http://www.w3.org/2000/svg" version="1.1" width="408.4366mm" height="387.3874mm" viewBox="0 0 408.4366 387.3874">
<title>bin flat pattern</title>
<g id="cut" stroke="#ff0000" fill="none" stroke-width="0.1000">
  <path d="M -0.0750,190.2969 L 21.7402,152.5118 L 21.7402,45.4528 L 94.9333,45.4528 L 94.9326,45.4175 L 106.9563,44.9477 L 119.8045,43.4354 L 132.4955,40.9251 L 144.9520,37.4322 L 157.0979,32.9780 L 165.9080,28.9417 L 165.8747,28.8639 L 215.2497,7.7815 L 217.0198,7.1014 L 217.9041,6.7614 L 219.6725,6.0809 L 220.5567,5.7404 L 222.3248,5.0590 L 223.2087,4.7181 L 224.9765,4.0358 L 225.8603,3.6944 L 227.6277,3.0113 L 228.5113,2.6695 L 230.2785,1.9855 L 231.1619,1.6432 L 232.9287,0.9584 L 234.6953,0.2730 L 235.6462,-0.0962 L 288.6879,124.1278 L 324.8844,153.3463 L 408.5350,349.2561 L 383.3389,360.0145 L 385.2345,362.6574 L 372.6470,368.0321 L 372.0491,364.8351 L 352.5669,373.1537 L 354.4625,375.7966 L 341.8750,381.1713 L 341.2771,377.9743 L 319.0009,387.4858 L 257.7970,244.1460 L 247.0232,244.1460 L 242.8232,248.3460 L 233.2279,248.3460 L 229.0279,244.1460 L 224.8900,244.1460 L 220.6900,248.3460 L 211.0947,248.3460 L 206.8947,244.1460 L 202.7568,244.1460 L 198.5568,248.3460 L 183.0947,248.3460 L 178.8947,244.1460 L 174.7568,244.1460 L 170.5568,248.3460 L 165.1453,248.3460 L 160.9453,244.1460 L 156.8074,244.1460 L 152.6074,248.3460 L 141.8515,248.3460 L 137.6515,244.1460 L 133.5136,244.1460 L 129.3136,248.3460 L 114.2982,248.3460 L 110.0982,244.1460 L -0.0750,244.1460 L -0.0750,190.2969 Z"/>
  <path d="M 27.4348,237.6960 L 39.4848,237.6960 L 39.4848,240.9210 L 27.4348,240.9210 L 27.4348,237.6960 Z"/>
  <path d="M 60.8945,237.6960 L 72.9445,237.6960 L 72.9445,240.9210 L 60.8945,240.9210 L 60.8945,237.6960 Z"/>
</g>
<g id="score" stroke="#0000ff" fill="none" stroke-width="0.1000">
  <line x1="258.3788" y1="245.3178" x2="257.5935" y2="243.4784"/>
  <line x1="257.2008" y1="242.5587" x2="256.4154" y2="240.7194"/>
  <line x1="256.0227" y1="239.7997" x2="255.2374" y2="237.9604"/>
  <line x1="254.8447" y1="237.0407" x2="254.0593" y2="235.2014"/>
  <line x1="253.6666" y1="234.2817" x2="252.8812" y2="232.4423"/>
  <line x1="252.4886" y1="231.5227" x2="251.7032" y2="229.6833"/>
  <line x1="251.3105" y1="228.7637" x2="250.5251" y2="226.9243"/>
  <line x1="250.1324" y1="226.0046" x2="249.3471" y2="224.1653"/>
  <line x1="248.9544" y1="223.2456" x2="248.1690" y2="221.4063"/>
  <line x1="247.7763" y1="220.4866" x2="246.9909" y2="218.6473"/>
  <line x1="246.5983" y1="217.7276" x2="245.8129" y2="215.8882"/>
  <line x1="245.4202" y1="214.9686" x2="244.6348" y2="213.1292"/>
  <line x1="244.2421" y1="212.2095" x2="243.4568" y2="210.3702"/>
  <line x1="243.0641" y1="209.4505" x2="242.2787" y2="207.6112"/>
  <line x1="241.8860" y1="206.6915" x2="241.1006" y2="204.8522"/>
  <line x1="240.7080" y1="203.9325" x2="239.9226" y2="202.0932"/>
  <line x1="239.5299" y1="201.1735" x2="238.7445" y2="199.3341"/>
  <line x1="238.3518" y1="198.4145" x2="237.5665" y2="196.5751"/>
  <line x1="237.1738" y1="195.6554" x2="236.3884" y2="193.8161"/>
  <line x1="235.9957" y1="192.8964" x2="235.2104" y2="191.0571"/>
  <line x1="234.8177" y1="190.1374" x2="234.0323" y2="188.2981"/>
  <line x1="233.6396" y1="187.3784" x2="232.8542" y2="185.5390"/>
  <line x1="232.4616" y1="184.6194" x2="231.6762" y2="182.7800"/>
  <line x1="231.2835" y1="181.8604" x2="230.4981" y2="180.0210"/>
  <line x1="230.1054" y1="179.1013" x2="229.3201" y2="177.2620"/>
  <line x1="228.9274" y1="176.3423" x2="228.1420" y2="174.5030"/>
  <line x1="227.7493" y1="173.5833" x2="226.9639" y2="171.7440"/>
  <line x1="226.5713" y1="170.8243" x2="225.7859" y2="168.9849"/>
  <line x1="225.3932" y1="168.0653" x2="224.6078" y2="166.2259"/>
  <line x1="224.2151" y1="165.3063" x2="223.4298" y2="163.4669"/>
  <line x1="223.0371" y1="162.5472" x2="222.2517" y2="160.7079"/>
  <line x1="221.8590" y1="159.7882" x2="221.0736" y2="157.9489"/>
  <line x1="220.6810" y1="157.0292" x2="219.8956" y2="155.1899"/>
  <line x1="219.5029" y1="154.2702" x2="218.7175" y2="152.4308"/>
  <line x1="218.3248" y1="151.5112" x2="217.5395" y2="149.6718"/>
  <line x1="217.1468" y1="148.7521" x2="216.3614" y2="146.9128"/>
  <line x1="215.9687" y1="145.9931" x2="215.1834" y2="144.1538"/>
  <line x1="214.7907" y1="143.2341" x2="214.0053" y2="141.3948"/>
  <line x1="213.6126" y1="140.4751" x2="212.8272" y2="138.6358"/>
  <line x1="212.4345" y1="137.7161" x2="211.6492" y2="135.8767"/>
  <line x1="211.2565" y1="134.9571" x2="210.4711" y2="133.1177"/>
  <line x1="210.0784" y1="132.1980" x2="209.2931" y2="130.3587"/>
  <line x1="208.9004" y1="129.4390" x2="208.1150" y2="127.5997"/>
  <line x1="207.7223" y1="126.6800" x2="206.9369" y2="124.8407"/>
  <line x1="206.5443" y1="123.9210" x2="205.7589" y2="122.0816"/>
  <line x1="205.3662" y1="121.1620" x2="204.5808" y2="119.3226"/>
  <line x1="204.1881" y1="118.4030" x2="203.4028" y2="116.5636"/>
  <line x1="203.0101" y1="115.6439" x2="202.2247" y2="113.8046"/>
  <line x1="201.8320" y1="112.8849" x2="201.0466" y2="111.0456"/>
  <line x1="200.6540" y1="110.1259" x2="199.8686" y2="108.2866"/>
  <line x1="199.4759" y1="107.3669" x2="198.6905" y2="105.5275"/>
  <line x1="198.2978" y1="104.6079" x2="197.5125" y2="102.7685"/>
  <line x1="197.1198" y1="101.8489" x2="196.3344" y2="100.0095"/>
  <line x1="195.9417" y1="99.0898" x2="195.1564" y2="97.2505"/>
  <line x1="194.7637" y1="96.3308" x2="193.9783" y2="94.4915"/>
  <line x1="193.5856" y1="93.5718" x2="192.8002" y2="91.7325"/>
  <line x1="192.4075" y1="90.8128" x2="191.6222" y2="88.9734"/>
  <line x1="191.2295" y1="88.0538" x2="190.4441" y2="86.2144"/>
  <line x1="190.0514" y1="85.2947" x2="189.2661" y2="83.4554"/>
  <line x1="188.8734" y1="82.5357" x2="188.0880" y2="80.6964"/>
  <line x1="187.6953" y1="79.7767" x2="186.9099" y2="77.9374"/>
  <line x1="186.5173" y1="77.0177" x2="185.7319" y2="75.1783"/>
  <line x1="185.3392" y1="74.2587" x2="184.5538" y2="72.4193"/>
  <line x1="184.1611" y1="71.4997" x2="183.3758" y2="69.6603"/>
  <line x1="182.9831" y1="68.7406" x2="182.1977" y2="66.9013"/>
  <line x1="181.8050" y1="65.9816" x2="181.0196" y2="64.1423"/>
  <line x1="180.6270" y1="63.2226" x2="179.8416" y2="61.3833"/>
  <line x1="179.4489" y1="60.4636" x2="178.6635" y2="58.6242"/>
  <line x1="178.2708" y1="57.7046" x2="177.4855" y2="55.8652"/>
  <line x1="177.0928" y1="54.9456" x2="176.3074" y2="53.1062"/>
  <line x1="175.9147" y1="52.1865" x2="175.1293" y2="50.3472"/>
  <line x1="174.7367" y1="49.4275" x2="173.9513" y2="47.5882"/>
  <line x1="173.5586" y1="46.6685" x2="172.7732" y2="44.8292"/>
  <line x1="172.3805" y1="43.9095" x2="171.5952" y2="42.0701"/>
  <line x1="171.2025" y1="41.1505" x2="170.4171" y2="39.3111"/>
  <line x1="170.0244" y1="38.3915" x2="169.2391" y2="36.5521"/>
  <line x1="168.8464" y1="35.6324" x2="168.0610" y2="33.7931"/>
  <line x1="167.6683" y1="32.8734" x2="166.8829" y2="31.0341"/>
  <line x1="166.4902" y1="30.1144" x2="165.9732" y2="28.9034"/>
  <line x1="97.2043" y1="45.5278" x2="97.2043" y2="47.5278"/>
  <line x1="97.2043" y1="48.5278" x2="97.2043" y2="50.5278"/>
  <line x1="97.2043" y1="51.5278" x2="97.2043" y2="53.5278"/>
  <line x1="97.2043" y1="54.5278" x2="97.2043" y2="56.5278"/>
  <line x1="97.2043" y1="57.5278" x2="97.2043" y2="59.5278"/>
  <line x1="97.2043" y1="60.5278" x2="97.2043" y2="62.5278"/>
  <line x1="97.2043" y1="63.5278" x2="97.2043" y2="65.5278"/>
  <line x1="97.2043" y1="66.5278" x2="97.2043" y2="68.5278"/>
  <line x1="97.2043" y1="69.5278" x2="97.2043" y2="71.5278"/>
  <line x1="97.2043" y1="72.5278" x2="97.2043" y2="74.5278"/>
  <line x1="97.2043" y1="75.5278" x2="97.2043" y2="77.5278"/>
  <line x1="97.2043" y1="78.5278" x2="97.2043" y2="80.5278"/>
  <line x1="97.2043" y1="81.5278" x2="97.2043" y2="83.5278"/>
  <line x1="97.2043" y1="84.5278" x2="97.2043" y2="86.5278"/>
  <line x1="97.2043" y1="87.5278" x2="97.2043" y2="89.5278"/>
  <line x1="97.2043" y1="90.5278" x2="97.2043" y2="92.5278"/>
  <line x1="97.2043" y1="93.5278" x2="97.2043" y2="95.5278"/>
  <line x1="97.2043" y1="96.5278" x2="97.2043" y2="98.5278"/>
  <line x1="97.2043" y1="99.5278" x2="97.2043" y2="101.5278"/>
  <line x1="97.2043" y1="102.5278" x2="97.2043" y2="104.5278"/>
  <line x1="97.2043" y1="105.5278" x2="97.2043" y2="107.5278"/>
  <line x1="97.2043" y1="108.5278" x2="97.2043" y2="110.5278"/>
  <line x1="97.2043" y1="111.5278" x2="97.2043" y2="113.5278"/>
  <line x1="97.2043" y1="114.5278" x2="97.2043" y2="116.5278"/>
  <line x1="97.2043" y1="117.5278" x2="97.2043" y2="119.5278"/>
  <line x1="97.2043" y1="120.5278" x2="97.2043" y2="122.5278"/>
  <line x1="97.2043" y1="123.5278" x2="97.2043" y2="125.5278"/>
  <line x1="97.2043" y1="126.5278" x2="97.2043" y2="128.5278"/>
  <line x1="97.2043" y1="129.5278" x2="97.2043" y2="131.5278"/>
  <line x1="97.2043" y1="132.5278" x2="97.2043" y2="134.5278"/>
  <line x1="97.2043" y1="135.5278" x2="97.2043" y2="137.5278"/>
  <line x1="97.2043" y1="138.5278" x2="97.2043" y2="140.5278"/>
  <line x1="97.2043" y1="141.5278" x2="97.2043" y2="143.5278"/>
  <line x1="97.2043" y1="144.5278" x2="97.2043" y2="146.5278"/>
  <line x1="97.2043" y1="147.5278" x2="97.2043" y2="149.5278"/>
  <line x1="97.2043" y1="150.5278" x2="97.2043" y2="152.5278"/>
  <line x1="97.2043" y1="153.5278" x2="97.2043" y2="155.5278"/>
  <line x1="97.2043" y1="156.5278" x2="97.2043" y2="158.5278"/>
  <line x1="97.2043" y1="159.5278" x2="97.2043" y2="161.5278"/>
  <line x1="97.2043" y1="162.5278" x2="97.2043" y2="164.5278"/>
  <line x1="97.2043" y1="165.5278" x2="97.2043" y2="167.5278"/>
  <line x1="97.2043" y1="168.5278" x2="97.2043" y2="170.5278"/>
  <line x1="97.2043" y1="171.5278" x2="97.2043" y2="173.5278"/>
  <line x1="97.2043" y1="174.5278" x2="97.2043" y2="176.5278"/>
  <line x1="97.2043" y1="177.5278" x2="97.2043" y2="179.5278"/>
  <line x1="97.2043" y1="180.5278" x2="97.2043" y2="182.5278"/>
  <line x1="97.2043" y1="183.5278" x2="97.2043" y2="185.5278"/>
  <line x1="97.2043" y1="186.5278" x2="97.2043" y2="188.5278"/>
  <line x1="97.2043" y1="189.5278" x2="97.2043" y2="191.5278"/>
  <line x1="97.2043" y1="192.5278" x2="97.2043" y2="194.5278"/>
  <line x1="97.2043" y1="195.5278" x2="97.2043" y2="197.5278"/>
  <line x1="97.2043" y1="198.5278" x2="97.2043" y2="200.5278"/>
  <line x1="97.2043" y1="201.5278" x2="97.2043" y2="203.5278"/>
  <line x1="97.2043" y1="204.5278" x2="97.2043" y2="206.5278"/>
  <line x1="97.2043" y1="207.5278" x2="97.2043" y2="209.5278"/>
  <line x1="97.2043" y1="210.5278" x2="97.2043" y2="212.5278"/>
  <line x1="97.2043" y1="213.5278" x2="97.2043" y2="215.5278"/>
  <line x1="97.2043" y1="216.5278" x2="97.2043" y2="218.5278"/>
  <line x1="97.2043" y1="219.5278" x2="97.2043" y2="221.5278"/>
  <line x1="97.2043" y1="222.5278" x2="97.2043" y2="224.5278"/>
  <line x1="97.2043" y1="225.5278" x2="97.2043" y2="227.5278"/>
  <line x1="97.2043" y1="228.5278" x2="97.2043" y2="230.5278"/>
  <line x1="97.2043" y1="231.5278" x2="97.2043" y2="233.5278"/>
  <line x1="97.2043" y1="234.5278" x2="97.2043" y2="236.5278"/>
  <line x1="97.2043" y1="237.5278" x2="97.2043" y2="239.5278"/>
  <line x1="97.2043" y1="240.5278" x2="97.2043" y2="242.5278"/>
  <line x1="97.2043" y1="243.5278" x2="97.2043" y2="244.0710"/>
  <line x1="345.8869" y1="202.7252" x2="344.0476" y2="203.5106"/>
  <line x1="343.1279" y1="203.9032" x2="341.2886" y2="204.6886"/>
  <line x1="340.3689" y1="205.0813" x2="338.5295" y2="205.8667"/>
  <line x1="337.6099" y1="206.2594" x2="335.7705" y2="207.0447"/>
  <line x1="334.8509" y1="207.4374" x2="333.0115" y2="208.2228"/>
  <line x1="332.0918" y1="208.6155" x2="330.2525" y2="209.4009"/>
  <line x1="329.3328" y1="209.7935" x2="327.4935" y2="210.5789"/>
  <line x1="326.5738" y1="210.9716" x2="324.7345" y2="211.7570"/>
  <line x1="323.8148" y1="212.1497" x2="321.9754" y2="212.9350"/>
  <line x1="321.0558" y1="213.3277" x2="319.2164" y2="214.1131"/>
  <line x1="318.2968" y1="214.5058" x2="316.4574" y2="215.2911"/>
  <line x1="315.5377" y1="215.6838" x2="313.6984" y2="216.4692"/>
  <line x1="312.7787" y1="216.8619" x2="310.9394" y2="217.6473"/>
  <line x1="310.0197" y1="218.0399" x2="308.1804" y2="218.8253"/>
  <line x1="307.2607" y1="219.2180" x2="305.4213" y2="220.0034"/>
  <line x1="304.5017" y1="220.3961" x2="302.6623" y2="221.1814"/>
  <line x1="301.7426" y1="221.5741" x2="299.9033" y2="222.3595"/>
  <line x1="298.9836" y1="222.7522" x2="297.1443" y2="223.5376"/>
  <line x1="296.2246" y1="223.9302" x2="294.3853" y2="224.7156"/>
  <line x1="293.4656" y1="225.1083" x2="291.6262" y2="225.8937"/>
  <line x1="290.7066" y1="226.2864" x2="288.8672" y2="227.0717"/>
  <line x1="287.9476" y1="227.4644" x2="286.1082" y2="228.2498"/>
  <line x1="285.1885" y1="228.6425" x2="283.3492" y2="229.4279"/>
  <line x1="282.4295" y1="229.8205" x2="280.5902" y2="230.6059"/>
  <line x1="279.6705" y1="230.9986" x2="277.8312" y2="231.7840"/>
  <line x1="276.9115" y1="232.1767" x2="275.0721" y2="232.9620"/>
  <line x1="274.1525" y1="233.3547" x2="272.3131" y2="234.1401"/>
  <line x1="271.3935" y1="234.5328" x2="269.5541" y2="235.3181"/>
  <line x1="268.6344" y1="235.7108" x2="266.7951" y2="236.4962"/>
  <line x1="265.8754" y1="236.8889" x2="264.0361" y2="237.6743"/>
  <line x1="263.1164" y1="238.0670" x2="261.2771" y2="238.8523"/>
  <line x1="260.3574" y1="239.2450" x2="258.5180" y2="240.0304"/>
  <line x1="257.5984" y1="240.4231" x2="255.7590" y2="241.2084"/>
  <line x1="254.8394" y1="241.6011" x2="253.5709" y2="242.1428"/>
</g>
<g id="score2" stroke="#00a650" fill="none" stroke-width="0.1000">
  <line x1="258.3788" y1="245.3178" x2="165.9732" y2="28.9034"/>
  <line x1="97.2043" y1="45.5278" x2="97.2043" y2="244.0710"/>
  <line x1="345.8869" y1="202.7252" x2="253.5709" y2="242.1428"/>
</g>
</svg>